G04 EAGLE Gerber RS-274X export*
G75*
%MOMM*%
%FSLAX34Y34*%
%LPD*%
%INBottom Copper*%
%IPPOS*%
%AMOC8*
5,1,8,0,0,1.08239X$1,22.5*%
G01*
%ADD10C,0.254000*%

G36*
X1520020Y-758D02*
X1520020Y-758D01*
X1520039Y-760D01*
X1520141Y-738D01*
X1520243Y-722D01*
X1520260Y-712D01*
X1520280Y-708D01*
X1520369Y-655D01*
X1520460Y-606D01*
X1520474Y-592D01*
X1520491Y-582D01*
X1520558Y-503D01*
X1520630Y-428D01*
X1520638Y-410D01*
X1520651Y-395D01*
X1520690Y-299D01*
X1520733Y-205D01*
X1520735Y-185D01*
X1520743Y-167D01*
X1520761Y0D01*
X1520761Y397000D01*
X1520758Y397020D01*
X1520760Y397039D01*
X1520738Y397141D01*
X1520722Y397243D01*
X1520712Y397260D01*
X1520708Y397280D01*
X1520655Y397369D01*
X1520606Y397460D01*
X1520592Y397474D01*
X1520582Y397491D01*
X1520503Y397558D01*
X1520428Y397630D01*
X1520410Y397638D01*
X1520395Y397651D01*
X1520299Y397690D01*
X1520205Y397733D01*
X1520185Y397735D01*
X1520167Y397743D01*
X1520000Y397761D01*
X0Y397761D01*
X-20Y397758D01*
X-39Y397760D01*
X-141Y397738D01*
X-243Y397722D01*
X-260Y397712D01*
X-280Y397708D01*
X-369Y397655D01*
X-460Y397606D01*
X-474Y397592D01*
X-491Y397582D01*
X-558Y397503D01*
X-630Y397428D01*
X-638Y397410D01*
X-651Y397395D01*
X-690Y397299D01*
X-733Y397205D01*
X-735Y397185D01*
X-743Y397167D01*
X-761Y397000D01*
X-761Y0D01*
X-758Y-20D01*
X-760Y-39D01*
X-738Y-141D01*
X-722Y-243D01*
X-712Y-260D01*
X-708Y-280D01*
X-655Y-369D01*
X-606Y-460D01*
X-592Y-474D01*
X-582Y-491D01*
X-503Y-558D01*
X-428Y-630D01*
X-410Y-638D01*
X-395Y-651D01*
X-299Y-690D01*
X-205Y-733D01*
X-185Y-735D01*
X-167Y-743D01*
X0Y-761D01*
X1520000Y-761D01*
X1520020Y-758D01*
G37*
%LPC*%
G36*
X615931Y116499D02*
X615931Y116499D01*
X606139Y119123D01*
X597360Y124192D01*
X590192Y131360D01*
X585123Y140139D01*
X582499Y149931D01*
X582499Y160069D01*
X585123Y169861D01*
X590192Y178640D01*
X597360Y185808D01*
X606139Y190877D01*
X615931Y193501D01*
X626069Y193501D01*
X635861Y190877D01*
X644640Y185808D01*
X651808Y178640D01*
X656877Y169861D01*
X659501Y160069D01*
X659501Y149931D01*
X656877Y140139D01*
X651808Y131360D01*
X644640Y124192D01*
X635861Y119123D01*
X626069Y116499D01*
X615931Y116499D01*
G37*
%LPD*%
%LPC*%
G36*
X1128931Y116499D02*
X1128931Y116499D01*
X1119139Y119123D01*
X1110360Y124192D01*
X1103192Y131360D01*
X1098123Y140139D01*
X1095499Y149931D01*
X1095499Y160069D01*
X1098123Y169861D01*
X1103192Y178640D01*
X1110360Y185808D01*
X1119139Y190877D01*
X1128931Y193501D01*
X1139069Y193501D01*
X1148861Y190877D01*
X1157640Y185808D01*
X1164808Y178640D01*
X1169877Y169861D01*
X1172501Y160069D01*
X1172501Y149931D01*
X1169877Y140139D01*
X1164808Y131360D01*
X1157640Y124192D01*
X1148861Y119123D01*
X1139069Y116499D01*
X1128931Y116499D01*
G37*
%LPD*%
%LPC*%
G36*
X1439050Y232999D02*
X1439050Y232999D01*
X1431420Y235044D01*
X1424579Y238993D01*
X1418993Y244579D01*
X1415044Y251420D01*
X1412999Y259050D01*
X1412999Y266950D01*
X1415044Y274580D01*
X1418993Y281421D01*
X1424579Y287007D01*
X1431420Y290956D01*
X1439050Y293001D01*
X1446950Y293001D01*
X1454580Y290956D01*
X1461421Y287007D01*
X1467007Y281421D01*
X1470956Y274580D01*
X1473001Y266950D01*
X1473001Y259050D01*
X1470956Y251420D01*
X1467007Y244579D01*
X1461421Y238993D01*
X1454580Y235044D01*
X1446950Y232999D01*
X1439050Y232999D01*
G37*
%LPD*%
%LPC*%
G36*
X1325050Y232999D02*
X1325050Y232999D01*
X1317420Y235044D01*
X1310579Y238993D01*
X1304993Y244579D01*
X1301044Y251420D01*
X1298999Y259050D01*
X1298999Y266950D01*
X1301044Y274580D01*
X1304993Y281421D01*
X1310579Y287007D01*
X1317420Y290956D01*
X1325050Y293001D01*
X1332950Y293001D01*
X1340580Y290956D01*
X1347421Y287007D01*
X1353007Y281421D01*
X1356956Y274580D01*
X1359001Y266950D01*
X1359001Y259050D01*
X1356956Y251420D01*
X1353007Y244579D01*
X1347421Y238993D01*
X1340580Y235044D01*
X1332950Y232999D01*
X1325050Y232999D01*
G37*
%LPD*%
%LPC*%
G36*
X445050Y232999D02*
X445050Y232999D01*
X437420Y235044D01*
X430579Y238993D01*
X424993Y244579D01*
X421044Y251420D01*
X418999Y259050D01*
X418999Y266950D01*
X421044Y274580D01*
X424993Y281421D01*
X430579Y287007D01*
X437420Y290956D01*
X445050Y293001D01*
X452950Y293001D01*
X460580Y290956D01*
X467421Y287007D01*
X473007Y281421D01*
X476956Y274580D01*
X479001Y266950D01*
X479001Y259050D01*
X476956Y251420D01*
X473007Y244579D01*
X467421Y238993D01*
X460580Y235044D01*
X452950Y232999D01*
X445050Y232999D01*
G37*
%LPD*%
%LPC*%
G36*
X315050Y232999D02*
X315050Y232999D01*
X307420Y235044D01*
X300579Y238993D01*
X294993Y244579D01*
X291044Y251420D01*
X288999Y259050D01*
X288999Y266950D01*
X291044Y274580D01*
X294993Y281421D01*
X300579Y287007D01*
X307420Y290956D01*
X315050Y293001D01*
X322950Y293001D01*
X330580Y290956D01*
X337421Y287007D01*
X343007Y281421D01*
X346956Y274580D01*
X349001Y266950D01*
X349001Y259050D01*
X346956Y251420D01*
X343007Y244579D01*
X337421Y238993D01*
X330580Y235044D01*
X322950Y232999D01*
X315050Y232999D01*
G37*
%LPD*%
%LPC*%
G36*
X186050Y232999D02*
X186050Y232999D01*
X178420Y235044D01*
X171579Y238993D01*
X165993Y244579D01*
X162044Y251420D01*
X159999Y259050D01*
X159999Y266950D01*
X162044Y274580D01*
X165993Y281421D01*
X171579Y287007D01*
X178420Y290956D01*
X186050Y293001D01*
X193950Y293001D01*
X201580Y290956D01*
X208421Y287007D01*
X214007Y281421D01*
X217956Y274580D01*
X220001Y266950D01*
X220001Y259050D01*
X217956Y251420D01*
X214007Y244579D01*
X208421Y238993D01*
X201580Y235044D01*
X193950Y232999D01*
X186050Y232999D01*
G37*
%LPD*%
%LPC*%
G36*
X72050Y232999D02*
X72050Y232999D01*
X64420Y235044D01*
X57579Y238993D01*
X51993Y244579D01*
X48044Y251420D01*
X45999Y259050D01*
X45999Y266950D01*
X48044Y274580D01*
X51993Y281421D01*
X57579Y287007D01*
X64420Y290956D01*
X72050Y293001D01*
X79950Y293001D01*
X87580Y290956D01*
X94421Y287007D01*
X100007Y281421D01*
X103956Y274580D01*
X106001Y266950D01*
X106001Y259050D01*
X103956Y251420D01*
X100007Y244579D01*
X94421Y238993D01*
X87580Y235044D01*
X79950Y232999D01*
X72050Y232999D01*
G37*
%LPD*%
%LPC*%
G36*
X186050Y103999D02*
X186050Y103999D01*
X178420Y106044D01*
X171579Y109993D01*
X165993Y115579D01*
X162044Y122420D01*
X159999Y130050D01*
X159999Y137950D01*
X162044Y145580D01*
X165993Y152421D01*
X171579Y158007D01*
X178420Y161956D01*
X186050Y164001D01*
X193950Y164001D01*
X201580Y161956D01*
X208421Y158007D01*
X214007Y152421D01*
X217956Y145580D01*
X220001Y137950D01*
X220001Y130050D01*
X217956Y122420D01*
X214007Y115579D01*
X208421Y109993D01*
X201580Y106044D01*
X193950Y103999D01*
X186050Y103999D01*
G37*
%LPD*%
%LPC*%
G36*
X72050Y103999D02*
X72050Y103999D01*
X64420Y106044D01*
X57579Y109993D01*
X51993Y115579D01*
X48044Y122420D01*
X45999Y130050D01*
X45999Y137950D01*
X48044Y145580D01*
X51993Y152421D01*
X57579Y158007D01*
X64420Y161956D01*
X72050Y164001D01*
X79950Y164001D01*
X87580Y161956D01*
X94421Y158007D01*
X100007Y152421D01*
X103956Y145580D01*
X106001Y137950D01*
X106001Y130050D01*
X103956Y122420D01*
X100007Y115579D01*
X94421Y109993D01*
X87580Y106044D01*
X79950Y103999D01*
X72050Y103999D01*
G37*
%LPD*%
%LPC*%
G36*
X1439050Y103999D02*
X1439050Y103999D01*
X1431420Y106044D01*
X1424579Y109993D01*
X1418993Y115579D01*
X1415044Y122420D01*
X1412999Y130050D01*
X1412999Y137950D01*
X1415044Y145580D01*
X1418993Y152421D01*
X1424579Y158007D01*
X1431420Y161956D01*
X1439050Y164001D01*
X1446950Y164001D01*
X1454580Y161956D01*
X1461421Y158007D01*
X1467007Y152421D01*
X1470956Y145580D01*
X1473001Y137950D01*
X1473001Y130050D01*
X1470956Y122420D01*
X1467007Y115579D01*
X1461421Y109993D01*
X1454580Y106044D01*
X1446950Y103999D01*
X1439050Y103999D01*
G37*
%LPD*%
%LPC*%
G36*
X1325050Y103999D02*
X1325050Y103999D01*
X1317420Y106044D01*
X1310579Y109993D01*
X1304993Y115579D01*
X1301044Y122420D01*
X1298999Y130050D01*
X1298999Y137950D01*
X1301044Y145580D01*
X1304993Y152421D01*
X1310579Y158007D01*
X1317420Y161956D01*
X1325050Y164001D01*
X1332950Y164001D01*
X1340580Y161956D01*
X1347421Y158007D01*
X1353007Y152421D01*
X1356956Y145580D01*
X1359001Y137950D01*
X1359001Y130050D01*
X1356956Y122420D01*
X1353007Y115579D01*
X1347421Y109993D01*
X1340580Y106044D01*
X1332950Y103999D01*
X1325050Y103999D01*
G37*
%LPD*%
%LPC*%
G36*
X445050Y103999D02*
X445050Y103999D01*
X437420Y106044D01*
X430579Y109993D01*
X424993Y115579D01*
X421044Y122420D01*
X418999Y130050D01*
X418999Y137950D01*
X421044Y145580D01*
X424993Y152421D01*
X430579Y158007D01*
X437420Y161956D01*
X445050Y164001D01*
X452950Y164001D01*
X460580Y161956D01*
X467421Y158007D01*
X473007Y152421D01*
X476956Y145580D01*
X479001Y137950D01*
X479001Y130050D01*
X476956Y122420D01*
X473007Y115579D01*
X467421Y109993D01*
X460580Y106044D01*
X452950Y103999D01*
X445050Y103999D01*
G37*
%LPD*%
%LPC*%
G36*
X315050Y103999D02*
X315050Y103999D01*
X307420Y106044D01*
X300579Y109993D01*
X294993Y115579D01*
X291044Y122420D01*
X288999Y130050D01*
X288999Y137950D01*
X291044Y145580D01*
X294993Y152421D01*
X300579Y158007D01*
X307420Y161956D01*
X315050Y164001D01*
X322950Y164001D01*
X330580Y161956D01*
X337421Y158007D01*
X343007Y152421D01*
X346956Y145580D01*
X349001Y137950D01*
X349001Y130050D01*
X346956Y122420D01*
X343007Y115579D01*
X337421Y109993D01*
X330580Y106044D01*
X322950Y103999D01*
X315050Y103999D01*
G37*
%LPD*%
%LPC*%
G36*
X617643Y252499D02*
X617643Y252499D01*
X611157Y254237D01*
X605342Y257594D01*
X600594Y262342D01*
X597237Y268157D01*
X595499Y274643D01*
X595499Y281357D01*
X597237Y287843D01*
X600594Y293658D01*
X605342Y298406D01*
X611157Y301763D01*
X617643Y303501D01*
X624357Y303501D01*
X630843Y301763D01*
X636658Y298406D01*
X641406Y293658D01*
X644763Y287843D01*
X646501Y281357D01*
X646501Y274643D01*
X644763Y268157D01*
X641406Y262342D01*
X636658Y257594D01*
X630843Y254237D01*
X624357Y252499D01*
X617643Y252499D01*
G37*
%LPD*%
%LPC*%
G36*
X1130643Y252499D02*
X1130643Y252499D01*
X1124157Y254237D01*
X1118342Y257594D01*
X1113594Y262342D01*
X1110237Y268157D01*
X1108499Y274643D01*
X1108499Y281357D01*
X1110237Y287843D01*
X1113594Y293658D01*
X1118342Y298406D01*
X1124157Y301763D01*
X1130643Y303501D01*
X1137357Y303501D01*
X1143843Y301763D01*
X1149658Y298406D01*
X1154406Y293658D01*
X1157763Y287843D01*
X1159501Y281357D01*
X1159501Y274643D01*
X1157763Y268157D01*
X1154406Y262342D01*
X1149658Y257594D01*
X1143843Y254237D01*
X1137357Y252499D01*
X1130643Y252499D01*
G37*
%LPD*%
D10*
X0Y0D02*
X1520000Y0D01*
X1520000Y396500D01*
X0Y396500D01*
X0Y0D01*
M02*
