G04 EAGLE Gerber RS-274X export*
G75*
%MOMM*%
%FSLAX34Y34*%
%LPD*%
%INTop Copper*%
%IPPOS*%
%AMOC8*
5,1,8,0,0,1.08239X$1,22.5*%
G01*
%ADD10C,1.676400*%
%ADD11C,0.254000*%
%ADD12C,0.755600*%
%ADD13C,0.304800*%
%ADD14C,4.016000*%
%ADD15C,0.254000*%

G36*
X347017Y2425D02*
X347017Y2425D01*
X347083Y2427D01*
X347126Y2445D01*
X347173Y2453D01*
X347230Y2487D01*
X347290Y2512D01*
X347325Y2543D01*
X347366Y2568D01*
X347408Y2619D01*
X347456Y2663D01*
X347478Y2705D01*
X347507Y2742D01*
X347528Y2804D01*
X347559Y2863D01*
X347567Y2917D01*
X347579Y2954D01*
X347578Y2994D01*
X347586Y3048D01*
X347586Y18187D01*
X347573Y18262D01*
X347568Y18337D01*
X347553Y18371D01*
X347547Y18408D01*
X347508Y18473D01*
X347477Y18543D01*
X347451Y18569D01*
X347432Y18601D01*
X347373Y18649D01*
X347320Y18703D01*
X347287Y18719D01*
X347258Y18742D01*
X347186Y18766D01*
X347117Y18799D01*
X347081Y18802D01*
X347046Y18814D01*
X346970Y18812D01*
X346894Y18818D01*
X346858Y18808D01*
X346821Y18807D01*
X346751Y18779D01*
X346678Y18759D01*
X346648Y18737D01*
X346614Y18723D01*
X346557Y18672D01*
X346496Y18627D01*
X346471Y18593D01*
X346448Y18572D01*
X346427Y18531D01*
X346387Y18475D01*
X346005Y17726D01*
X344995Y16335D01*
X343779Y15119D01*
X342388Y14108D01*
X340856Y13328D01*
X339221Y12797D01*
X337933Y12593D01*
X337933Y22815D01*
X337921Y22880D01*
X337919Y22946D01*
X337901Y22990D01*
X337893Y23036D01*
X337859Y23093D01*
X337835Y23154D01*
X337803Y23189D01*
X337779Y23229D01*
X337728Y23271D01*
X337683Y23319D01*
X337641Y23341D01*
X337605Y23371D01*
X337542Y23392D01*
X337484Y23422D01*
X337429Y23430D01*
X337392Y23443D01*
X337353Y23441D01*
X337298Y23450D01*
X336662Y23450D01*
X336662Y23451D01*
X337298Y23451D01*
X337363Y23463D01*
X337429Y23465D01*
X337473Y23483D01*
X337519Y23491D01*
X337576Y23525D01*
X337637Y23549D01*
X337672Y23581D01*
X337712Y23605D01*
X337754Y23656D01*
X337802Y23701D01*
X337824Y23743D01*
X337854Y23779D01*
X337875Y23842D01*
X337905Y23900D01*
X337913Y23955D01*
X337926Y23992D01*
X337924Y24031D01*
X337933Y24086D01*
X337933Y34308D01*
X339221Y34104D01*
X340856Y33573D01*
X342388Y32792D01*
X343779Y31782D01*
X344995Y30566D01*
X346005Y29175D01*
X346387Y28426D01*
X346433Y28366D01*
X346472Y28300D01*
X346500Y28277D01*
X346522Y28248D01*
X346587Y28207D01*
X346646Y28159D01*
X346681Y28147D01*
X346712Y28127D01*
X346786Y28111D01*
X346858Y28087D01*
X346895Y28088D01*
X346931Y28080D01*
X347007Y28091D01*
X347083Y28094D01*
X347117Y28107D01*
X347153Y28113D01*
X347220Y28149D01*
X347290Y28178D01*
X347318Y28203D01*
X347350Y28220D01*
X347400Y28278D01*
X347456Y28329D01*
X347473Y28362D01*
X347497Y28390D01*
X347524Y28461D01*
X347559Y28529D01*
X347565Y28570D01*
X347576Y28600D01*
X347576Y28646D01*
X347586Y28714D01*
X347586Y44817D01*
X347568Y44916D01*
X347554Y45016D01*
X347549Y45026D01*
X347547Y45038D01*
X347496Y45124D01*
X347448Y45213D01*
X347439Y45221D01*
X347432Y45231D01*
X347355Y45294D01*
X347279Y45361D01*
X347267Y45365D01*
X347258Y45373D01*
X347163Y45405D01*
X347069Y45440D01*
X347057Y45441D01*
X347046Y45444D01*
X346946Y45441D01*
X346845Y45442D01*
X346833Y45438D01*
X346821Y45438D01*
X346729Y45400D01*
X346634Y45366D01*
X346625Y45358D01*
X346614Y45353D01*
X346539Y45286D01*
X346463Y45220D01*
X346456Y45209D01*
X346448Y45202D01*
X346427Y45161D01*
X346366Y45060D01*
X345493Y42951D01*
X342563Y40021D01*
X338735Y38436D01*
X334592Y38436D01*
X330764Y40021D01*
X327834Y42951D01*
X326249Y46779D01*
X326249Y50922D01*
X327057Y52873D01*
X327068Y52926D01*
X327090Y52976D01*
X327092Y53035D01*
X327105Y53093D01*
X327097Y53146D01*
X327100Y53200D01*
X327082Y53256D01*
X327073Y53315D01*
X327047Y53362D01*
X327031Y53414D01*
X326989Y53471D01*
X326966Y53512D01*
X326943Y53532D01*
X326919Y53564D01*
X317443Y63041D01*
X317443Y145264D01*
X317436Y145306D01*
X317438Y145348D01*
X317416Y145415D01*
X317404Y145485D01*
X317382Y145521D01*
X317369Y145562D01*
X317315Y145635D01*
X317289Y145678D01*
X317273Y145691D01*
X317257Y145712D01*
X304792Y158177D01*
X304758Y158202D01*
X304729Y158233D01*
X304666Y158265D01*
X304608Y158306D01*
X304567Y158316D01*
X304529Y158336D01*
X304440Y158349D01*
X304391Y158362D01*
X304370Y158359D01*
X304344Y158363D01*
X252924Y158363D01*
X252882Y158356D01*
X252839Y158358D01*
X252772Y158336D01*
X252703Y158324D01*
X252666Y158302D01*
X252626Y158289D01*
X252553Y158235D01*
X252510Y158209D01*
X252496Y158193D01*
X252475Y158177D01*
X251292Y156994D01*
X249156Y156109D01*
X246844Y156109D01*
X244708Y156994D01*
X243074Y158628D01*
X242189Y160764D01*
X242189Y163076D01*
X242912Y164820D01*
X242928Y164896D01*
X242953Y164969D01*
X242952Y165005D01*
X242960Y165040D01*
X242949Y165116D01*
X242947Y165194D01*
X242933Y165226D01*
X242928Y165262D01*
X242891Y165330D01*
X242862Y165401D01*
X242838Y165428D01*
X242821Y165459D01*
X242763Y165510D01*
X242711Y165567D01*
X242679Y165583D01*
X242653Y165607D01*
X242580Y165634D01*
X242511Y165670D01*
X242471Y165676D01*
X242443Y165686D01*
X242396Y165687D01*
X242326Y165697D01*
X212631Y165697D01*
X212589Y165690D01*
X212547Y165692D01*
X212479Y165670D01*
X212410Y165658D01*
X212373Y165636D01*
X212333Y165623D01*
X212260Y165569D01*
X212217Y165543D01*
X212204Y165527D01*
X212182Y165511D01*
X207489Y160818D01*
X207464Y160783D01*
X207433Y160754D01*
X207401Y160691D01*
X207360Y160634D01*
X207350Y160592D01*
X207330Y160555D01*
X207317Y160465D01*
X207304Y160416D01*
X207307Y160395D01*
X207303Y160369D01*
X207303Y140178D01*
X207310Y140136D01*
X207308Y140093D01*
X207330Y140026D01*
X207342Y139957D01*
X207364Y139920D01*
X207377Y139880D01*
X207431Y139807D01*
X207457Y139764D01*
X207473Y139750D01*
X207489Y139729D01*
X208926Y138292D01*
X209811Y136156D01*
X209811Y133844D01*
X208926Y131708D01*
X207292Y130074D01*
X205156Y129189D01*
X202844Y129189D01*
X200708Y130074D01*
X199074Y131708D01*
X198189Y133844D01*
X198189Y136156D01*
X199074Y138292D01*
X200511Y139729D01*
X200536Y139764D01*
X200567Y139793D01*
X200599Y139855D01*
X200640Y139913D01*
X200650Y139954D01*
X200670Y139992D01*
X200683Y140082D01*
X200696Y140131D01*
X200693Y140151D01*
X200697Y140178D01*
X200697Y163368D01*
X208794Y171465D01*
X208845Y171538D01*
X208901Y171607D01*
X208909Y171630D01*
X208922Y171649D01*
X208945Y171735D01*
X208973Y171820D01*
X208972Y171843D01*
X208978Y171866D01*
X208969Y171955D01*
X208966Y172044D01*
X208958Y172066D01*
X208955Y172090D01*
X208916Y172170D01*
X208882Y172252D01*
X208866Y172269D01*
X208856Y172291D01*
X208791Y172352D01*
X208731Y172418D01*
X208710Y172428D01*
X208692Y172445D01*
X208610Y172479D01*
X208531Y172520D01*
X208505Y172524D01*
X208486Y172532D01*
X208435Y172534D01*
X208346Y172548D01*
X180631Y172548D01*
X180589Y172540D01*
X180547Y172542D01*
X180479Y172521D01*
X180410Y172508D01*
X180373Y172486D01*
X180333Y172473D01*
X180260Y172420D01*
X180217Y172394D01*
X180204Y172378D01*
X180182Y172362D01*
X154489Y146668D01*
X154464Y146633D01*
X154433Y146605D01*
X154401Y146542D01*
X154360Y146484D01*
X154350Y146443D01*
X154330Y146405D01*
X154317Y146315D01*
X154304Y146267D01*
X154307Y146246D01*
X154303Y146220D01*
X154303Y123178D01*
X154310Y123136D01*
X154308Y123093D01*
X154330Y123026D01*
X154342Y122957D01*
X154364Y122920D01*
X154377Y122880D01*
X154431Y122807D01*
X154457Y122764D01*
X154473Y122750D01*
X154489Y122729D01*
X155926Y121292D01*
X156811Y119156D01*
X156811Y116844D01*
X155926Y114708D01*
X154292Y113074D01*
X152156Y112189D01*
X149844Y112189D01*
X147708Y113074D01*
X146074Y114708D01*
X145189Y116844D01*
X145189Y119156D01*
X146074Y121292D01*
X147511Y122729D01*
X147536Y122764D01*
X147567Y122793D01*
X147599Y122855D01*
X147640Y122913D01*
X147650Y122954D01*
X147670Y122992D01*
X147683Y123082D01*
X147696Y123131D01*
X147693Y123151D01*
X147697Y123178D01*
X147697Y149219D01*
X177632Y179153D01*
X326335Y179153D01*
X326388Y179163D01*
X326442Y179162D01*
X326498Y179182D01*
X326556Y179193D01*
X326602Y179220D01*
X326653Y179239D01*
X326698Y179277D01*
X326749Y179307D01*
X326783Y179349D01*
X326824Y179384D01*
X326861Y179445D01*
X326890Y179481D01*
X326900Y179510D01*
X326921Y179545D01*
X327834Y181750D01*
X330764Y184680D01*
X334592Y186265D01*
X338735Y186265D01*
X342563Y184680D01*
X345493Y181750D01*
X346366Y179641D01*
X346420Y179556D01*
X346472Y179470D01*
X346481Y179462D01*
X346487Y179452D01*
X346568Y179392D01*
X346646Y179328D01*
X346657Y179325D01*
X346667Y179317D01*
X346763Y179289D01*
X346858Y179257D01*
X346870Y179257D01*
X346882Y179253D01*
X346982Y179260D01*
X347083Y179263D01*
X347094Y179268D01*
X347105Y179268D01*
X347197Y179310D01*
X347290Y179347D01*
X347299Y179355D01*
X347310Y179360D01*
X347382Y179431D01*
X347456Y179499D01*
X347462Y179509D01*
X347470Y179518D01*
X347512Y179609D01*
X347559Y179698D01*
X347561Y179711D01*
X347565Y179721D01*
X347569Y179766D01*
X347586Y179884D01*
X347586Y191952D01*
X347575Y192017D01*
X347573Y192083D01*
X347555Y192126D01*
X347547Y192173D01*
X347513Y192230D01*
X347488Y192290D01*
X347457Y192325D01*
X347432Y192366D01*
X347381Y192408D01*
X347337Y192456D01*
X347295Y192478D01*
X347258Y192507D01*
X347196Y192528D01*
X347137Y192559D01*
X347083Y192567D01*
X347046Y192579D01*
X347006Y192578D01*
X346952Y192586D01*
X28858Y192586D01*
X28759Y192568D01*
X28659Y192554D01*
X28649Y192549D01*
X28637Y192547D01*
X28551Y192495D01*
X28462Y192448D01*
X28454Y192439D01*
X28444Y192432D01*
X28381Y192355D01*
X28314Y192279D01*
X28310Y192267D01*
X28303Y192258D01*
X28270Y192163D01*
X28235Y192069D01*
X28235Y192057D01*
X28231Y192046D01*
X28234Y191946D01*
X28233Y191845D01*
X28237Y191833D01*
X28237Y191821D01*
X28275Y191729D01*
X28309Y191634D01*
X28317Y191625D01*
X28322Y191614D01*
X28389Y191540D01*
X28455Y191463D01*
X28466Y191456D01*
X28473Y191448D01*
X28514Y191427D01*
X28615Y191366D01*
X32526Y189746D01*
X38746Y183526D01*
X42113Y175399D01*
X42113Y166601D01*
X38746Y158474D01*
X32526Y152254D01*
X24399Y148887D01*
X15601Y148887D01*
X7474Y152254D01*
X3496Y156231D01*
X3423Y156282D01*
X3354Y156338D01*
X3332Y156346D01*
X3312Y156360D01*
X3226Y156382D01*
X3142Y156410D01*
X3118Y156410D01*
X3095Y156415D01*
X3006Y156406D01*
X2917Y156404D01*
X2895Y156395D01*
X2872Y156392D01*
X2792Y156353D01*
X2710Y156319D01*
X2692Y156303D01*
X2671Y156293D01*
X2610Y156228D01*
X2544Y156168D01*
X2533Y156147D01*
X2517Y156130D01*
X2482Y156048D01*
X2441Y155968D01*
X2438Y155942D01*
X2429Y155923D01*
X2427Y155873D01*
X2414Y155783D01*
X2414Y37217D01*
X2430Y37129D01*
X2439Y37041D01*
X2449Y37020D01*
X2453Y36996D01*
X2499Y36920D01*
X2538Y36840D01*
X2555Y36823D01*
X2568Y36803D01*
X2637Y36747D01*
X2701Y36686D01*
X2723Y36677D01*
X2742Y36662D01*
X2826Y36633D01*
X2908Y36598D01*
X2932Y36597D01*
X2954Y36590D01*
X3043Y36592D01*
X3132Y36588D01*
X3155Y36596D01*
X3179Y36596D01*
X3261Y36630D01*
X3346Y36657D01*
X3367Y36673D01*
X3386Y36681D01*
X3424Y36715D01*
X3496Y36769D01*
X8474Y41746D01*
X16601Y45113D01*
X25399Y45113D01*
X33526Y41746D01*
X39746Y35526D01*
X43113Y27399D01*
X43113Y18601D01*
X39746Y10474D01*
X33526Y4254D01*
X32029Y3634D01*
X31945Y3580D01*
X31858Y3528D01*
X31851Y3519D01*
X31841Y3513D01*
X31780Y3432D01*
X31717Y3354D01*
X31713Y3343D01*
X31706Y3333D01*
X31677Y3237D01*
X31645Y3142D01*
X31645Y3130D01*
X31642Y3118D01*
X31649Y3018D01*
X31652Y2917D01*
X31656Y2906D01*
X31657Y2895D01*
X31698Y2803D01*
X31736Y2710D01*
X31744Y2701D01*
X31749Y2690D01*
X31819Y2618D01*
X31887Y2544D01*
X31898Y2538D01*
X31906Y2530D01*
X31997Y2488D01*
X32087Y2441D01*
X32100Y2439D01*
X32109Y2435D01*
X32155Y2431D01*
X32272Y2414D01*
X346952Y2414D01*
X347017Y2425D01*
G37*
%LPC*%
G36*
X173632Y27697D02*
X173632Y27697D01*
X165326Y36003D01*
X165291Y36028D01*
X165262Y36059D01*
X165199Y36091D01*
X165142Y36132D01*
X165100Y36142D01*
X165063Y36162D01*
X164973Y36175D01*
X164924Y36188D01*
X164903Y36185D01*
X164877Y36189D01*
X162844Y36189D01*
X160708Y37074D01*
X159074Y38708D01*
X158189Y40844D01*
X158189Y43156D01*
X159074Y45292D01*
X160708Y46926D01*
X162844Y47811D01*
X165156Y47811D01*
X167292Y46926D01*
X168926Y45292D01*
X169811Y43156D01*
X169811Y41123D01*
X169818Y41081D01*
X169816Y41039D01*
X169838Y40971D01*
X169850Y40902D01*
X169872Y40865D01*
X169885Y40825D01*
X169927Y40769D01*
X169928Y40765D01*
X169935Y40757D01*
X169939Y40752D01*
X169965Y40709D01*
X169981Y40696D01*
X169997Y40674D01*
X176182Y34489D01*
X176217Y34464D01*
X176246Y34433D01*
X176309Y34401D01*
X176366Y34360D01*
X176408Y34350D01*
X176445Y34330D01*
X176535Y34317D01*
X176584Y34304D01*
X176605Y34307D01*
X176631Y34303D01*
X267369Y34303D01*
X267411Y34310D01*
X267453Y34308D01*
X267521Y34330D01*
X267590Y34342D01*
X267627Y34364D01*
X267667Y34377D01*
X267740Y34431D01*
X267783Y34457D01*
X267796Y34473D01*
X267818Y34489D01*
X293082Y59753D01*
X293107Y59788D01*
X293138Y59817D01*
X293170Y59880D01*
X293211Y59937D01*
X293221Y59979D01*
X293241Y60016D01*
X293254Y60106D01*
X293266Y60155D01*
X293264Y60176D01*
X293268Y60202D01*
X293268Y75393D01*
X293261Y75435D01*
X293263Y75478D01*
X293241Y75545D01*
X293229Y75614D01*
X293207Y75651D01*
X293194Y75691D01*
X293140Y75764D01*
X293114Y75807D01*
X293098Y75821D01*
X293082Y75842D01*
X291645Y77279D01*
X290760Y79415D01*
X290760Y81727D01*
X291645Y83863D01*
X293279Y85497D01*
X295415Y86382D01*
X297727Y86382D01*
X299863Y85497D01*
X301497Y83863D01*
X302382Y81727D01*
X302382Y79415D01*
X301497Y77279D01*
X300059Y75842D01*
X300035Y75807D01*
X300004Y75778D01*
X299972Y75715D01*
X299931Y75658D01*
X299921Y75617D01*
X299901Y75579D01*
X299888Y75489D01*
X299875Y75440D01*
X299878Y75420D01*
X299874Y75393D01*
X299874Y57203D01*
X270368Y27697D01*
X173632Y27697D01*
G37*
%LPD*%
%LPC*%
G36*
X255844Y37189D02*
X255844Y37189D01*
X253708Y38074D01*
X252074Y39708D01*
X251189Y41844D01*
X251189Y44156D01*
X252074Y46292D01*
X253511Y47729D01*
X253536Y47764D01*
X253567Y47793D01*
X253599Y47855D01*
X253640Y47913D01*
X253650Y47954D01*
X253670Y47992D01*
X253683Y48082D01*
X253696Y48131D01*
X253693Y48151D01*
X253697Y48178D01*
X253697Y117369D01*
X253690Y117411D01*
X253692Y117453D01*
X253670Y117521D01*
X253658Y117590D01*
X253636Y117627D01*
X253623Y117667D01*
X253569Y117740D01*
X253543Y117783D01*
X253527Y117796D01*
X253511Y117818D01*
X242326Y129003D01*
X242291Y129028D01*
X242262Y129059D01*
X242199Y129091D01*
X242142Y129132D01*
X242100Y129142D01*
X242063Y129162D01*
X241973Y129175D01*
X241924Y129188D01*
X241903Y129185D01*
X241877Y129189D01*
X239844Y129189D01*
X237708Y130074D01*
X236074Y131708D01*
X235189Y133844D01*
X235189Y136156D01*
X236074Y138292D01*
X237708Y139926D01*
X239844Y140811D01*
X242156Y140811D01*
X244292Y139926D01*
X245926Y138292D01*
X246811Y136156D01*
X246811Y134123D01*
X246818Y134081D01*
X246816Y134039D01*
X246838Y133971D01*
X246850Y133902D01*
X246872Y133865D01*
X246885Y133825D01*
X246939Y133752D01*
X246965Y133709D01*
X246981Y133695D01*
X246997Y133674D01*
X260303Y120368D01*
X260303Y48178D01*
X260310Y48136D01*
X260308Y48093D01*
X260330Y48026D01*
X260342Y47957D01*
X260364Y47920D01*
X260377Y47880D01*
X260431Y47807D01*
X260457Y47764D01*
X260473Y47750D01*
X260489Y47729D01*
X261926Y46292D01*
X262811Y44156D01*
X262811Y41844D01*
X261926Y39708D01*
X260292Y38074D01*
X258156Y37189D01*
X255844Y37189D01*
G37*
%LPD*%
%LPC*%
G36*
X325806Y24720D02*
X325806Y24720D01*
X326010Y26008D01*
X326541Y27643D01*
X327321Y29175D01*
X328332Y30566D01*
X329548Y31782D01*
X330939Y32792D01*
X332470Y33573D01*
X334106Y34104D01*
X335394Y34308D01*
X335394Y24720D01*
X325806Y24720D01*
G37*
%LPD*%
%LPC*%
G36*
X334106Y12797D02*
X334106Y12797D01*
X332470Y13328D01*
X330939Y14108D01*
X329548Y15119D01*
X328332Y16335D01*
X327321Y17726D01*
X326541Y19258D01*
X326010Y20893D01*
X325806Y22181D01*
X335394Y22181D01*
X335394Y12593D01*
X334106Y12797D01*
G37*
%LPD*%
%LPC*%
G36*
X253339Y17395D02*
X253339Y17395D01*
X250976Y19757D01*
X250976Y23098D01*
X253339Y25460D01*
X256679Y25460D01*
X259042Y23098D01*
X259042Y19757D01*
X256679Y17395D01*
X253339Y17395D01*
G37*
%LPD*%
%LPC*%
G36*
X93339Y17395D02*
X93339Y17395D01*
X90976Y19757D01*
X90976Y23098D01*
X93339Y25460D01*
X96679Y25460D01*
X99042Y23098D01*
X99042Y19757D01*
X96679Y17395D01*
X93339Y17395D01*
G37*
%LPD*%
D10*
X336663Y23450D03*
X336663Y48850D03*
X336663Y74250D03*
X336663Y99650D03*
X336663Y125050D03*
X336663Y150450D03*
X336663Y175850D03*
D11*
X179000Y175850D01*
D12*
X151000Y118000D03*
D11*
X151000Y147850D02*
X179000Y175850D01*
X151000Y147850D02*
X151000Y118000D01*
D12*
X296571Y80571D03*
D11*
X296571Y58571D01*
X269000Y31000D01*
D12*
X164000Y42000D03*
D11*
X175000Y31000D01*
X269000Y31000D01*
X336663Y150450D02*
X318114Y169000D01*
D12*
X204000Y135000D03*
D11*
X211000Y169000D02*
X318114Y169000D01*
X204000Y162000D02*
X204000Y135000D01*
X204000Y162000D02*
X211000Y169000D01*
D12*
X248000Y161920D03*
D13*
X306080Y161920D02*
X321000Y147000D01*
X321000Y64514D01*
X306080Y161920D02*
X248000Y161920D01*
X321000Y64514D02*
X336663Y48850D01*
D12*
X257000Y43000D03*
D11*
X257000Y119000D01*
X241000Y135000D01*
D12*
X241000Y135000D03*
D14*
X21000Y23000D03*
X20000Y171000D03*
D15*
X0Y0D02*
X350000Y0D01*
X350000Y195000D01*
X0Y195000D01*
X0Y0D01*
M02*
