G04 EAGLE Gerber RS-274X export*
G75*
%MOMM*%
%FSLAX34Y34*%
%LPD*%
%INSilkscreen Top*%
%IPPOS*%
%AMOC8*
5,1,8,0,0,1.08239X$1,22.5*%
G01*
%ADD10C,0.076200*%
%ADD11C,0.127000*%
%ADD12C,0.203200*%
%ADD13R,0.508000X0.508000*%
%ADD14C,0.254000*%

G36*
X17398Y72578D02*
X17398Y72578D01*
X17433Y72575D01*
X17514Y72600D01*
X17558Y72609D01*
X17572Y72618D01*
X17592Y72624D01*
X17957Y72807D01*
X18415Y72831D01*
X18433Y72835D01*
X18455Y72835D01*
X18978Y72905D01*
X19486Y72899D01*
X20030Y72854D01*
X20041Y72856D01*
X20054Y72853D01*
X21745Y72794D01*
X21750Y72795D01*
X21756Y72793D01*
X22320Y72786D01*
X22346Y72791D01*
X22382Y72789D01*
X22940Y72852D01*
X22960Y72859D01*
X22988Y72860D01*
X24087Y73092D01*
X24099Y73097D01*
X24116Y73099D01*
X25203Y73398D01*
X25216Y73404D01*
X25233Y73407D01*
X25767Y73591D01*
X25774Y73595D01*
X25785Y73597D01*
X27358Y74208D01*
X27363Y74212D01*
X27371Y74213D01*
X27875Y74426D01*
X27887Y74434D01*
X27904Y74439D01*
X28391Y74682D01*
X28869Y74876D01*
X28878Y74882D01*
X28891Y74886D01*
X29400Y75121D01*
X29418Y75135D01*
X29445Y75145D01*
X29930Y75433D01*
X29936Y75439D01*
X29946Y75443D01*
X30892Y76053D01*
X30919Y76079D01*
X30963Y76108D01*
X31776Y76867D01*
X32198Y77219D01*
X32223Y77250D01*
X32265Y77287D01*
X32605Y77703D01*
X32973Y78112D01*
X32981Y78126D01*
X32996Y78139D01*
X33689Y79029D01*
X33699Y79048D01*
X33716Y79068D01*
X34321Y80016D01*
X34325Y80026D01*
X34333Y80037D01*
X34884Y81000D01*
X34887Y81009D01*
X34894Y81017D01*
X35938Y83017D01*
X35939Y83021D01*
X35943Y83026D01*
X36444Y84035D01*
X36445Y84039D01*
X36448Y84043D01*
X36689Y84552D01*
X36692Y84563D01*
X36699Y84574D01*
X36906Y85070D01*
X37143Y85543D01*
X37147Y85558D01*
X37158Y85574D01*
X37591Y86609D01*
X37592Y86615D01*
X37596Y86621D01*
X37996Y87656D01*
X37999Y87671D01*
X38007Y87687D01*
X38501Y89266D01*
X38504Y89301D01*
X38519Y89349D01*
X38587Y89860D01*
X38875Y90901D01*
X38877Y90936D01*
X38890Y90981D01*
X38947Y91510D01*
X39067Y92026D01*
X39067Y92048D01*
X39075Y92075D01*
X39358Y94279D01*
X39357Y94301D01*
X39362Y94329D01*
X39406Y95960D01*
X39404Y95968D01*
X39406Y95979D01*
X39393Y97107D01*
X39391Y97114D01*
X39392Y97123D01*
X39368Y97686D01*
X39360Y97717D01*
X39359Y97761D01*
X39258Y98274D01*
X39225Y98804D01*
X39221Y98819D01*
X39222Y98839D01*
X39074Y99950D01*
X39069Y99964D01*
X39069Y99983D01*
X38738Y101627D01*
X38731Y101643D01*
X38729Y101664D01*
X38429Y102723D01*
X38324Y103252D01*
X38319Y103264D01*
X38318Y103278D01*
X38181Y103816D01*
X38178Y103822D01*
X38178Y103829D01*
X37876Y104896D01*
X37872Y104903D01*
X37871Y104913D01*
X37362Y106498D01*
X37358Y106506D01*
X37356Y106516D01*
X37164Y107042D01*
X37155Y107056D01*
X37150Y107076D01*
X36930Y107565D01*
X36762Y108072D01*
X36750Y108093D01*
X36742Y108123D01*
X36638Y108352D01*
X36637Y108353D01*
X36637Y108354D01*
X36614Y108384D01*
X36594Y108449D01*
X36081Y109455D01*
X36071Y109468D01*
X36063Y109487D01*
X35477Y110453D01*
X35466Y110465D01*
X35457Y110484D01*
X35129Y110943D01*
X35116Y110955D01*
X35104Y110974D01*
X34741Y111406D01*
X34730Y111414D01*
X34720Y111428D01*
X34331Y111837D01*
X34322Y111843D01*
X34315Y111853D01*
X33908Y112244D01*
X33897Y112250D01*
X33888Y112262D01*
X33460Y112631D01*
X33438Y112643D01*
X33414Y112666D01*
X32951Y112979D01*
X32932Y112987D01*
X32912Y113004D01*
X31925Y113544D01*
X31894Y113554D01*
X31855Y113576D01*
X31332Y113765D01*
X31320Y113766D01*
X31308Y113773D01*
X30244Y114097D01*
X30220Y114099D01*
X30191Y114110D01*
X29636Y114214D01*
X29622Y114214D01*
X29604Y114219D01*
X29044Y114287D01*
X29024Y114285D01*
X28999Y114291D01*
X28435Y114308D01*
X28419Y114305D01*
X28399Y114308D01*
X27835Y114285D01*
X27807Y114278D01*
X27769Y114278D01*
X27524Y114235D01*
X27874Y115975D01*
X28145Y117058D01*
X28145Y117069D01*
X28150Y117082D01*
X28257Y117613D01*
X28409Y118134D01*
X28410Y118146D01*
X28415Y118159D01*
X28673Y119243D01*
X28995Y120310D01*
X28996Y120315D01*
X28998Y120320D01*
X29292Y121372D01*
X29487Y121812D01*
X29782Y122236D01*
X29787Y122249D01*
X29798Y122261D01*
X30091Y122743D01*
X30104Y122778D01*
X30131Y122824D01*
X30332Y123350D01*
X30339Y123390D01*
X30358Y123446D01*
X30409Y123743D01*
X30407Y123794D01*
X30415Y123843D01*
X30408Y123874D01*
X30541Y124075D01*
X30887Y124156D01*
X30927Y124174D01*
X31015Y124205D01*
X31470Y124456D01*
X31492Y124474D01*
X31517Y124485D01*
X31567Y124538D01*
X31622Y124584D01*
X31634Y124610D01*
X31653Y124630D01*
X31692Y124725D01*
X31711Y124762D01*
X31711Y124772D01*
X31716Y124784D01*
X31838Y125332D01*
X31839Y125375D01*
X31849Y125470D01*
X31816Y126033D01*
X31807Y126066D01*
X31804Y126113D01*
X31680Y126664D01*
X31667Y126691D01*
X31660Y126730D01*
X31460Y127258D01*
X31443Y127285D01*
X31428Y127325D01*
X31153Y127817D01*
X31144Y127827D01*
X31140Y127839D01*
X31029Y127963D01*
X30596Y128308D01*
X30565Y128324D01*
X30539Y128347D01*
X30477Y128369D01*
X30419Y128398D01*
X30384Y128401D01*
X30351Y128412D01*
X30265Y128409D01*
X30221Y128413D01*
X30205Y128407D01*
X30185Y128407D01*
X29648Y128297D01*
X29607Y128279D01*
X29528Y128256D01*
X29176Y128083D01*
X28973Y128870D01*
X28961Y128894D01*
X28954Y128928D01*
X28540Y129978D01*
X28526Y130000D01*
X28515Y130033D01*
X28247Y130528D01*
X28223Y130556D01*
X28208Y130589D01*
X28148Y130646D01*
X28119Y130680D01*
X28103Y130688D01*
X28087Y130704D01*
X27716Y130955D01*
X27110Y131799D01*
X27094Y131813D01*
X27081Y131835D01*
X26712Y132259D01*
X26695Y132272D01*
X26683Y132289D01*
X26575Y132364D01*
X26554Y132380D01*
X26550Y132381D01*
X26546Y132383D01*
X26130Y132578D01*
X25837Y132891D01*
X25217Y133779D01*
X25211Y133785D01*
X25206Y133794D01*
X24869Y134240D01*
X24821Y134282D01*
X24780Y134331D01*
X24743Y134351D01*
X24720Y134372D01*
X24683Y134384D01*
X24634Y134411D01*
X24161Y134575D01*
X23724Y134837D01*
X23684Y134852D01*
X23623Y134884D01*
X23224Y135016D01*
X22918Y135331D01*
X22873Y135362D01*
X22834Y135401D01*
X22785Y135423D01*
X22754Y135444D01*
X22722Y135450D01*
X22681Y135468D01*
X22216Y135585D01*
X21801Y135824D01*
X21759Y135838D01*
X21676Y135874D01*
X21146Y136011D01*
X21112Y136013D01*
X21068Y136024D01*
X20590Y136069D01*
X20137Y136199D01*
X19651Y136398D01*
X19610Y136406D01*
X19550Y136428D01*
X18997Y136527D01*
X18952Y136526D01*
X18867Y136533D01*
X18319Y136487D01*
X18297Y136481D01*
X18268Y136481D01*
X17805Y136393D01*
X17332Y136464D01*
X17309Y136463D01*
X17280Y136469D01*
X16716Y136494D01*
X16704Y136492D01*
X16690Y136494D01*
X16125Y136489D01*
X16039Y136470D01*
X15953Y136456D01*
X15941Y136449D01*
X15931Y136447D01*
X15896Y136423D01*
X15809Y136372D01*
X15568Y136170D01*
X15199Y136182D01*
X15165Y136176D01*
X15131Y136179D01*
X15047Y136156D01*
X15003Y136149D01*
X14990Y136140D01*
X14971Y136135D01*
X14581Y135952D01*
X14211Y135859D01*
X13762Y135924D01*
X13755Y135924D01*
X13749Y135926D01*
X13656Y135918D01*
X13564Y135913D01*
X13557Y135910D01*
X13550Y135910D01*
X13469Y135867D01*
X13385Y135826D01*
X13381Y135820D01*
X13374Y135817D01*
X13265Y135692D01*
X13140Y135488D01*
X12874Y135500D01*
X12830Y135493D01*
X12751Y135490D01*
X12254Y135388D01*
X12244Y135383D01*
X12233Y135383D01*
X12081Y135316D01*
X11723Y135082D01*
X11269Y134965D01*
X11194Y134928D01*
X11117Y134896D01*
X11104Y134884D01*
X11091Y134877D01*
X11062Y134844D01*
X10996Y134782D01*
X10683Y134367D01*
X10654Y134306D01*
X10617Y134249D01*
X10612Y134217D01*
X10597Y134187D01*
X10594Y134120D01*
X10583Y134053D01*
X10590Y134017D01*
X10589Y133988D01*
X10603Y133950D01*
X10615Y133890D01*
X10809Y133375D01*
X10832Y133338D01*
X10861Y133274D01*
X11163Y132823D01*
X11393Y132421D01*
X11519Y131950D01*
X11525Y131938D01*
X11527Y131924D01*
X11604Y131777D01*
X11825Y131485D01*
X11791Y131152D01*
X11800Y131060D01*
X11807Y130967D01*
X11810Y130960D01*
X11811Y130954D01*
X11827Y130925D01*
X11878Y130816D01*
X12178Y130383D01*
X12426Y129914D01*
X12442Y129895D01*
X12451Y129871D01*
X12527Y129790D01*
X12551Y129761D01*
X12558Y129757D01*
X12565Y129750D01*
X12900Y129495D01*
X13035Y129147D01*
X13052Y129120D01*
X13062Y129090D01*
X13119Y129016D01*
X13143Y128979D01*
X13154Y128972D01*
X13164Y128958D01*
X13497Y128655D01*
X13761Y128259D01*
X13789Y128231D01*
X13861Y128149D01*
X14285Y127802D01*
X14304Y127793D01*
X14323Y127774D01*
X14702Y127521D01*
X14932Y127164D01*
X14935Y127160D01*
X14936Y127157D01*
X15050Y127035D01*
X15459Y126726D01*
X15806Y126358D01*
X15842Y126332D01*
X15913Y126272D01*
X16858Y125705D01*
X16863Y125703D01*
X16867Y125700D01*
X17023Y125643D01*
X17449Y125563D01*
X17785Y125291D01*
X17824Y125270D01*
X17859Y125241D01*
X17923Y125218D01*
X17961Y125198D01*
X17985Y125196D01*
X18016Y125186D01*
X18541Y125096D01*
X19004Y124956D01*
X19447Y124723D01*
X19465Y124718D01*
X19480Y124707D01*
X19626Y124671D01*
X19638Y124667D01*
X19639Y124667D01*
X19641Y124667D01*
X21301Y124539D01*
X21709Y124460D01*
X21982Y124247D01*
X22039Y124219D01*
X22091Y124183D01*
X22132Y124172D01*
X22160Y124158D01*
X22199Y124156D01*
X22252Y124143D01*
X23840Y124027D01*
X24248Y123818D01*
X24278Y123809D01*
X24305Y123793D01*
X24397Y123776D01*
X24439Y123764D01*
X24453Y123766D01*
X24469Y123763D01*
X25032Y123756D01*
X25053Y123760D01*
X25081Y123758D01*
X25643Y123806D01*
X25666Y123813D01*
X25697Y123813D01*
X26251Y123923D01*
X26266Y123929D01*
X26286Y123931D01*
X26830Y124081D01*
X26840Y124086D01*
X26854Y124088D01*
X27390Y124264D01*
X27415Y124278D01*
X27453Y124290D01*
X27883Y124500D01*
X27671Y124300D01*
X27639Y124299D01*
X27603Y124290D01*
X27492Y124269D01*
X26988Y124087D01*
X26981Y124082D01*
X26974Y124081D01*
X26959Y124070D01*
X26929Y124061D01*
X26472Y123825D01*
X25488Y123471D01*
X25472Y123461D01*
X25448Y123454D01*
X24515Y123023D01*
X24029Y122910D01*
X23988Y122892D01*
X23916Y122870D01*
X23540Y122680D01*
X23536Y122677D01*
X23531Y122675D01*
X23478Y122632D01*
X23449Y122623D01*
X23376Y122612D01*
X22985Y122482D01*
X22973Y122475D01*
X22957Y122471D01*
X22463Y122273D01*
X21981Y122116D01*
X21111Y121872D01*
X20783Y122030D01*
X20772Y122032D01*
X20761Y122040D01*
X19742Y122471D01*
X19248Y122710D01*
X19231Y122714D01*
X19213Y122725D01*
X18694Y122930D01*
X18674Y122933D01*
X18650Y122945D01*
X18140Y123092D01*
X17642Y123290D01*
X17602Y123297D01*
X17544Y123318D01*
X16991Y123414D01*
X16948Y123413D01*
X16905Y123422D01*
X16836Y123410D01*
X16792Y123409D01*
X16771Y123399D01*
X16741Y123394D01*
X16322Y123249D01*
X15865Y123288D01*
X15852Y123286D01*
X15835Y123289D01*
X15270Y123303D01*
X15262Y123302D01*
X15252Y123303D01*
X14122Y123289D01*
X14113Y123287D01*
X14102Y123289D01*
X12974Y123230D01*
X12957Y123226D01*
X12935Y123226D01*
X11816Y123078D01*
X11799Y123073D01*
X11778Y123072D01*
X11226Y122955D01*
X11191Y122940D01*
X11138Y122928D01*
X10628Y122716D01*
X10607Y122702D01*
X10583Y122695D01*
X10494Y122626D01*
X10463Y122605D01*
X10459Y122599D01*
X10451Y122593D01*
X10078Y122187D01*
X10070Y122173D01*
X10055Y122160D01*
X9812Y121854D01*
X9420Y121713D01*
X9409Y121707D01*
X9395Y121703D01*
X9113Y121584D01*
X8900Y121494D01*
X8387Y121341D01*
X8364Y121328D01*
X8330Y121320D01*
X7813Y121093D01*
X7779Y121069D01*
X7722Y121041D01*
X7281Y120724D01*
X7249Y120688D01*
X7209Y120661D01*
X7174Y120608D01*
X7146Y120577D01*
X7137Y120552D01*
X7117Y120522D01*
X6930Y120102D01*
X6606Y119791D01*
X6204Y119456D01*
X5760Y119151D01*
X5741Y119131D01*
X5710Y119111D01*
X5289Y118734D01*
X5280Y118721D01*
X5264Y118709D01*
X4872Y118304D01*
X4861Y118287D01*
X4846Y118275D01*
X4776Y118153D01*
X4765Y118136D01*
X4764Y118133D01*
X4763Y118130D01*
X4583Y117646D01*
X4368Y117248D01*
X3666Y116435D01*
X3655Y116415D01*
X3635Y116394D01*
X3314Y115934D01*
X3278Y115851D01*
X3262Y115817D01*
X3259Y115813D01*
X3259Y115810D01*
X3239Y115769D01*
X3238Y115759D01*
X3235Y115751D01*
X3235Y115712D01*
X3228Y115632D01*
X3226Y115616D01*
X3227Y115612D01*
X3226Y115603D01*
X3266Y115168D01*
X3112Y114803D01*
X2535Y113879D01*
X2521Y113843D01*
X2492Y113794D01*
X2297Y113287D01*
X2292Y113253D01*
X2277Y113222D01*
X2272Y113135D01*
X2264Y113091D01*
X2268Y113076D01*
X2267Y113056D01*
X2312Y112622D01*
X2029Y111628D01*
X2028Y111606D01*
X2018Y111579D01*
X1920Y111025D01*
X1922Y110946D01*
X1917Y110868D01*
X1925Y110845D01*
X1925Y110826D01*
X1944Y110785D01*
X1968Y110709D01*
X2170Y110317D01*
X2206Y109945D01*
X2093Y109481D01*
X2092Y109464D01*
X2085Y109443D01*
X1994Y108887D01*
X1994Y108880D01*
X1992Y108873D01*
X1997Y108707D01*
X2106Y108170D01*
X2146Y108074D01*
X2182Y107988D01*
X2183Y107987D01*
X2183Y107986D01*
X2251Y107920D01*
X2324Y107849D01*
X2325Y107848D01*
X2326Y107848D01*
X2332Y107846D01*
X2333Y107845D01*
X2396Y107394D01*
X2406Y107366D01*
X2410Y107327D01*
X2561Y106797D01*
X2578Y106765D01*
X2586Y106730D01*
X2632Y106661D01*
X2653Y106621D01*
X2666Y106610D01*
X2678Y106591D01*
X2896Y106361D01*
X2923Y105981D01*
X2934Y105939D01*
X2944Y105869D01*
X3102Y105356D01*
X3190Y104910D01*
X3133Y104429D01*
X3135Y104405D01*
X3130Y104373D01*
X3127Y103810D01*
X3134Y103773D01*
X3149Y103662D01*
X3312Y103128D01*
X3332Y103090D01*
X3355Y103027D01*
X3629Y102543D01*
X3658Y102509D01*
X3700Y102447D01*
X3838Y102300D01*
X3316Y101036D01*
X3313Y101021D01*
X3304Y101004D01*
X2774Y99423D01*
X2773Y99414D01*
X2768Y99405D01*
X2455Y98336D01*
X2453Y98308D01*
X2441Y98272D01*
X2358Y97741D01*
X2098Y96688D01*
X2097Y96657D01*
X2086Y96617D01*
X2033Y96088D01*
X1918Y95572D01*
X1917Y95539D01*
X1907Y95495D01*
X1872Y94959D01*
X1783Y94430D01*
X1783Y94407D01*
X1777Y94378D01*
X1741Y93815D01*
X1742Y93807D01*
X1740Y93797D01*
X1710Y92669D01*
X1711Y92666D01*
X1710Y92662D01*
X1697Y91533D01*
X1697Y91529D01*
X1697Y91526D01*
X1698Y91524D01*
X1697Y91518D01*
X1718Y90390D01*
X1721Y90380D01*
X1719Y90368D01*
X1755Y89805D01*
X1757Y89797D01*
X1756Y89788D01*
X1865Y88665D01*
X1870Y88649D01*
X1871Y88628D01*
X2064Y87517D01*
X2068Y87508D01*
X2069Y87495D01*
X2183Y86980D01*
X2243Y86448D01*
X2254Y86415D01*
X2259Y86367D01*
X2564Y85293D01*
X2569Y85284D01*
X2571Y85270D01*
X2751Y84736D01*
X2753Y84732D01*
X2754Y84726D01*
X2946Y84196D01*
X2954Y84181D01*
X2960Y84161D01*
X3189Y83649D01*
X3194Y83642D01*
X3197Y83632D01*
X3695Y82625D01*
X3702Y82617D01*
X3706Y82605D01*
X4251Y81620D01*
X4259Y81611D01*
X4264Y81597D01*
X4860Y80643D01*
X4869Y80634D01*
X4876Y80619D01*
X5854Y79238D01*
X5862Y79230D01*
X5869Y79217D01*
X6918Y77889D01*
X6929Y77879D01*
X6940Y77863D01*
X8076Y76609D01*
X8083Y76604D01*
X8089Y76595D01*
X8484Y76192D01*
X8502Y76180D01*
X8519Y76160D01*
X8940Y75806D01*
X9345Y75431D01*
X9360Y75421D01*
X9376Y75404D01*
X9817Y75059D01*
X9832Y75051D01*
X9848Y75036D01*
X10316Y74725D01*
X10335Y74717D01*
X10356Y74700D01*
X11310Y74186D01*
X11335Y74178D01*
X11365Y74160D01*
X11872Y73963D01*
X11875Y73962D01*
X11879Y73960D01*
X12909Y73575D01*
X12929Y73572D01*
X12954Y73561D01*
X15093Y72985D01*
X15121Y72983D01*
X15157Y72972D01*
X15697Y72900D01*
X16173Y72806D01*
X16606Y72618D01*
X16622Y72615D01*
X16636Y72606D01*
X16800Y72577D01*
X17363Y72571D01*
X17398Y72578D01*
G37*
G36*
X29678Y60734D02*
X29678Y60734D01*
X29749Y60740D01*
X29775Y60754D01*
X29803Y60760D01*
X29862Y60800D01*
X29925Y60833D01*
X29943Y60856D01*
X29967Y60872D01*
X30005Y60932D01*
X30050Y60988D01*
X30060Y61019D01*
X30074Y61040D01*
X30081Y61082D01*
X30102Y61146D01*
X30175Y61634D01*
X30173Y61668D01*
X30180Y61713D01*
X30145Y65099D01*
X30151Y66722D01*
X30229Y66993D01*
X30529Y67178D01*
X30992Y67417D01*
X31462Y67604D01*
X31919Y67716D01*
X32325Y67718D01*
X32631Y67594D01*
X32831Y67342D01*
X32931Y66955D01*
X32955Y66195D01*
X32964Y65889D01*
X32967Y61374D01*
X32970Y61357D01*
X32968Y61339D01*
X32990Y61260D01*
X33007Y61180D01*
X33017Y61165D01*
X33021Y61148D01*
X33073Y61083D01*
X33119Y61016D01*
X33134Y61006D01*
X33145Y60992D01*
X33279Y60914D01*
X33287Y60909D01*
X33288Y60909D01*
X33289Y60908D01*
X33699Y60753D01*
X33706Y60751D01*
X33712Y60748D01*
X33876Y60720D01*
X34441Y60720D01*
X34473Y60727D01*
X34506Y60724D01*
X34570Y60746D01*
X34636Y60760D01*
X34663Y60778D01*
X34694Y60789D01*
X34763Y60847D01*
X34800Y60872D01*
X34808Y60884D01*
X34821Y60896D01*
X35081Y61201D01*
X35125Y61282D01*
X35172Y61361D01*
X35174Y61369D01*
X35177Y61375D01*
X35181Y61411D01*
X35200Y61525D01*
X35200Y67003D01*
X35326Y67163D01*
X35715Y67356D01*
X36195Y67551D01*
X36670Y67686D01*
X37119Y67731D01*
X37494Y67667D01*
X37753Y67482D01*
X37902Y67177D01*
X37941Y66722D01*
X37955Y66177D01*
X37983Y61660D01*
X37992Y61616D01*
X38000Y61532D01*
X38121Y61088D01*
X38140Y61050D01*
X38150Y61009D01*
X38185Y60963D01*
X38211Y60911D01*
X38243Y60883D01*
X38268Y60849D01*
X38318Y60820D01*
X38362Y60782D01*
X38403Y60769D01*
X38439Y60748D01*
X38510Y60736D01*
X38552Y60723D01*
X38575Y60725D01*
X38603Y60720D01*
X39168Y60720D01*
X39189Y60724D01*
X39216Y60722D01*
X39732Y60772D01*
X39812Y60797D01*
X39894Y60816D01*
X39907Y60826D01*
X39922Y60830D01*
X39986Y60884D01*
X40054Y60934D01*
X40062Y60948D01*
X40074Y60958D01*
X40113Y61033D01*
X40156Y61105D01*
X40158Y61122D01*
X40165Y61135D01*
X40168Y61179D01*
X40183Y61270D01*
X40178Y65791D01*
X40177Y65795D01*
X40177Y65799D01*
X40147Y67494D01*
X40138Y67531D01*
X40137Y67585D01*
X40024Y68136D01*
X40010Y68169D01*
X39972Y68278D01*
X39699Y68770D01*
X39671Y68803D01*
X39613Y68883D01*
X39213Y69279D01*
X39178Y69302D01*
X39098Y69364D01*
X38602Y69631D01*
X38559Y69644D01*
X38486Y69676D01*
X37939Y69812D01*
X37897Y69814D01*
X37834Y69826D01*
X37270Y69844D01*
X37233Y69837D01*
X37178Y69838D01*
X36620Y69751D01*
X36591Y69740D01*
X36549Y69734D01*
X36010Y69566D01*
X35993Y69557D01*
X35969Y69552D01*
X35446Y69338D01*
X35429Y69326D01*
X35404Y69318D01*
X34623Y68910D01*
X34529Y68954D01*
X34185Y69288D01*
X34148Y69313D01*
X34083Y69365D01*
X33593Y69643D01*
X33553Y69656D01*
X33548Y69657D01*
X33512Y69679D01*
X33486Y69683D01*
X33459Y69695D01*
X32909Y69821D01*
X32865Y69822D01*
X32773Y69834D01*
X31829Y69788D01*
X31786Y69777D01*
X31703Y69765D01*
X31164Y69595D01*
X31145Y69584D01*
X31118Y69578D01*
X30599Y69356D01*
X30587Y69347D01*
X30570Y69342D01*
X30086Y69097D01*
X29994Y69336D01*
X29985Y69350D01*
X29981Y69367D01*
X29932Y69434D01*
X29887Y69504D01*
X29873Y69513D01*
X29863Y69527D01*
X29792Y69569D01*
X29723Y69616D01*
X29706Y69620D01*
X29692Y69628D01*
X29530Y69656D01*
X29528Y69656D01*
X28963Y69656D01*
X28941Y69652D01*
X28912Y69653D01*
X28399Y69601D01*
X28320Y69576D01*
X28240Y69557D01*
X28226Y69547D01*
X28209Y69542D01*
X28146Y69488D01*
X28080Y69439D01*
X28071Y69424D01*
X28058Y69413D01*
X28020Y69339D01*
X27978Y69268D01*
X27975Y69249D01*
X27968Y69235D01*
X27965Y69191D01*
X27951Y69104D01*
X27956Y61762D01*
X27958Y61753D01*
X27957Y61742D01*
X27979Y61199D01*
X28003Y61102D01*
X28025Y61009D01*
X28026Y61008D01*
X28026Y61006D01*
X28086Y60926D01*
X28143Y60849D01*
X28144Y60848D01*
X28145Y60847D01*
X28232Y60796D01*
X28314Y60748D01*
X28316Y60747D01*
X28317Y60747D01*
X28333Y60745D01*
X28478Y60720D01*
X29608Y60720D01*
X29678Y60734D01*
G37*
G36*
X2307Y60730D02*
X2307Y60730D01*
X2359Y60731D01*
X2413Y60752D01*
X2451Y60760D01*
X2476Y60777D01*
X2514Y60792D01*
X2867Y61004D01*
X2921Y61054D01*
X2980Y61098D01*
X2994Y61121D01*
X3013Y61139D01*
X3044Y61206D01*
X3081Y61269D01*
X3086Y61299D01*
X3096Y61320D01*
X3097Y61363D01*
X3108Y61433D01*
X3101Y64036D01*
X3106Y64040D01*
X4061Y64106D01*
X4076Y64110D01*
X4096Y64110D01*
X4656Y64187D01*
X4672Y64193D01*
X4694Y64194D01*
X5245Y64315D01*
X5267Y64324D01*
X5297Y64329D01*
X5833Y64508D01*
X5857Y64522D01*
X5893Y64532D01*
X6401Y64779D01*
X6427Y64799D01*
X6467Y64818D01*
X6931Y65140D01*
X6956Y65166D01*
X6997Y65195D01*
X7399Y65592D01*
X7418Y65621D01*
X7452Y65654D01*
X7784Y66112D01*
X7797Y66142D01*
X7824Y66177D01*
X8081Y66680D01*
X8091Y66716D01*
X8115Y66766D01*
X8275Y67306D01*
X8282Y67386D01*
X8295Y67465D01*
X8294Y67470D01*
X8296Y67473D01*
X8304Y67506D01*
X8315Y67529D01*
X8318Y67571D01*
X8332Y67636D01*
X8360Y68201D01*
X8356Y68226D01*
X8360Y68260D01*
X8321Y68824D01*
X8312Y68857D01*
X8309Y68904D01*
X8179Y69455D01*
X8164Y69487D01*
X8153Y69535D01*
X7932Y70056D01*
X7910Y70088D01*
X7886Y70140D01*
X7570Y70608D01*
X7542Y70636D01*
X7507Y70684D01*
X7106Y71082D01*
X7075Y71102D01*
X7038Y71138D01*
X6573Y71459D01*
X6542Y71472D01*
X6503Y71500D01*
X5991Y71741D01*
X5967Y71747D01*
X5938Y71763D01*
X5402Y71944D01*
X5376Y71947D01*
X5345Y71960D01*
X4791Y72077D01*
X4770Y72077D01*
X4745Y72084D01*
X4182Y72148D01*
X4171Y72147D01*
X4158Y72150D01*
X3593Y72186D01*
X3584Y72185D01*
X3573Y72187D01*
X1309Y72241D01*
X1295Y72239D01*
X1281Y72241D01*
X1197Y72221D01*
X1113Y72206D01*
X1101Y72198D01*
X1087Y72195D01*
X1018Y72144D01*
X947Y72098D01*
X939Y72086D01*
X927Y72077D01*
X884Y72004D01*
X836Y71933D01*
X833Y71918D01*
X826Y71906D01*
X798Y71742D01*
X798Y67779D01*
X812Y67709D01*
X818Y67639D01*
X832Y67609D01*
X837Y67584D01*
X862Y67549D01*
X891Y67489D01*
X918Y67451D01*
X828Y67203D01*
X827Y67200D01*
X826Y67197D01*
X798Y67033D01*
X792Y61386D01*
X794Y61375D01*
X793Y61365D01*
X814Y61278D01*
X832Y61191D01*
X838Y61182D01*
X840Y61172D01*
X894Y61100D01*
X944Y61027D01*
X953Y61021D01*
X959Y61013D01*
X1100Y60924D01*
X1499Y60758D01*
X1514Y60755D01*
X1527Y60748D01*
X1691Y60720D01*
X2256Y60720D01*
X2307Y60730D01*
G37*
G36*
X20024Y60529D02*
X20024Y60529D01*
X20072Y60529D01*
X20630Y60618D01*
X20659Y60629D01*
X20700Y60634D01*
X21239Y60802D01*
X21256Y60812D01*
X21281Y60817D01*
X21803Y61032D01*
X21817Y61042D01*
X21837Y61048D01*
X22342Y61301D01*
X22345Y61303D01*
X22412Y61077D01*
X22429Y61045D01*
X22438Y61009D01*
X22476Y60958D01*
X22506Y60902D01*
X22534Y60879D01*
X22556Y60849D01*
X22610Y60817D01*
X22660Y60777D01*
X22695Y60766D01*
X22727Y60748D01*
X22808Y60734D01*
X22851Y60722D01*
X22869Y60724D01*
X22891Y60720D01*
X23456Y60720D01*
X23490Y60727D01*
X23537Y60727D01*
X24022Y60807D01*
X24085Y60831D01*
X24151Y60846D01*
X24177Y60866D01*
X24208Y60878D01*
X24257Y60924D01*
X24311Y60964D01*
X24328Y60993D01*
X24352Y61015D01*
X24378Y61077D01*
X24413Y61135D01*
X24419Y61172D01*
X24430Y61198D01*
X24430Y61239D01*
X24440Y61299D01*
X24440Y68647D01*
X24436Y68670D01*
X24437Y68700D01*
X24382Y69210D01*
X24358Y69288D01*
X24339Y69367D01*
X24328Y69382D01*
X24322Y69400D01*
X24269Y69462D01*
X24221Y69527D01*
X24205Y69537D01*
X24193Y69551D01*
X24120Y69587D01*
X24050Y69628D01*
X24029Y69632D01*
X24014Y69639D01*
X23970Y69642D01*
X23886Y69656D01*
X22756Y69656D01*
X22751Y69655D01*
X22746Y69656D01*
X22654Y69635D01*
X22561Y69616D01*
X22557Y69614D01*
X22552Y69613D01*
X22475Y69558D01*
X22397Y69504D01*
X22394Y69500D01*
X22390Y69497D01*
X22341Y69417D01*
X22290Y69336D01*
X22289Y69332D01*
X22287Y69328D01*
X22256Y69164D01*
X22240Y68055D01*
X22241Y68050D01*
X22240Y68044D01*
X22278Y63609D01*
X22205Y63397D01*
X21894Y63219D01*
X21415Y62991D01*
X20929Y62794D01*
X20456Y62658D01*
X20006Y62615D01*
X19641Y62676D01*
X19410Y62856D01*
X19280Y63187D01*
X19227Y63663D01*
X19176Y65331D01*
X19171Y67014D01*
X19204Y68703D01*
X19196Y68747D01*
X19188Y68838D01*
X19072Y69282D01*
X19053Y69323D01*
X19042Y69367D01*
X19009Y69411D01*
X18985Y69461D01*
X18951Y69491D01*
X18924Y69527D01*
X18877Y69555D01*
X18835Y69591D01*
X18792Y69605D01*
X18753Y69628D01*
X18687Y69640D01*
X18646Y69653D01*
X18621Y69651D01*
X18589Y69656D01*
X17459Y69656D01*
X17451Y69654D01*
X17442Y69656D01*
X17354Y69635D01*
X17264Y69616D01*
X17257Y69612D01*
X17249Y69610D01*
X17176Y69556D01*
X17100Y69504D01*
X17095Y69497D01*
X17089Y69492D01*
X17042Y69414D01*
X16993Y69336D01*
X16992Y69328D01*
X16987Y69321D01*
X16960Y69157D01*
X16960Y69021D01*
X16960Y69020D01*
X16965Y64499D01*
X16966Y64495D01*
X16965Y64491D01*
X16985Y63360D01*
X16987Y63349D01*
X16986Y63335D01*
X17025Y62771D01*
X17035Y62734D01*
X17040Y62678D01*
X17184Y62134D01*
X17202Y62097D01*
X17240Y62002D01*
X17533Y61521D01*
X17562Y61490D01*
X17624Y61411D01*
X18042Y61032D01*
X18080Y61010D01*
X18151Y60957D01*
X18653Y60702D01*
X18696Y60690D01*
X18772Y60659D01*
X19322Y60538D01*
X19364Y60537D01*
X19426Y60526D01*
X19991Y60523D01*
X20024Y60529D01*
G37*
%LPC*%
G36*
X24492Y113996D02*
X24492Y113996D01*
X23516Y114496D01*
X23494Y114502D01*
X23467Y114518D01*
X22949Y114717D01*
X22920Y114722D01*
X22884Y114737D01*
X22336Y114866D01*
X22296Y114867D01*
X22237Y114879D01*
X21673Y114896D01*
X21658Y114893D01*
X21638Y114896D01*
X21073Y114873D01*
X21062Y114871D01*
X21048Y114872D01*
X20485Y114820D01*
X20472Y114816D01*
X20454Y114816D01*
X19896Y114730D01*
X19882Y114724D01*
X19864Y114723D01*
X19314Y114601D01*
X19310Y114599D01*
X19305Y114599D01*
X18325Y114362D01*
X18419Y114450D01*
X18426Y114460D01*
X18438Y114468D01*
X18830Y114875D01*
X18836Y114883D01*
X18846Y114891D01*
X19593Y115739D01*
X19600Y115751D01*
X19612Y115762D01*
X19959Y116208D01*
X19964Y116217D01*
X19973Y116226D01*
X20299Y116687D01*
X20306Y116704D01*
X20320Y116720D01*
X20897Y117689D01*
X20904Y117709D01*
X20920Y117731D01*
X21403Y118752D01*
X21405Y118761D01*
X21412Y118772D01*
X21631Y119292D01*
X21636Y119314D01*
X21648Y119338D01*
X21802Y119836D01*
X22003Y120230D01*
X22285Y120517D01*
X23204Y120976D01*
X23703Y121182D01*
X23713Y121188D01*
X23726Y121191D01*
X24109Y121372D01*
X24119Y121379D01*
X24130Y121382D01*
X24178Y121422D01*
X24213Y121432D01*
X24288Y121444D01*
X24695Y121582D01*
X24713Y121592D01*
X24740Y121599D01*
X25742Y122051D01*
X27175Y122548D01*
X26839Y121663D01*
X26837Y121649D01*
X26828Y121633D01*
X26333Y120022D01*
X26331Y120008D01*
X26324Y119992D01*
X26193Y119449D01*
X26193Y119437D01*
X26187Y119422D01*
X26088Y118889D01*
X25832Y117869D01*
X25653Y117366D01*
X25649Y117335D01*
X25634Y117296D01*
X25531Y116778D01*
X25358Y116292D01*
X25353Y116255D01*
X25336Y116203D01*
X24983Y113993D01*
X24952Y113846D01*
X24907Y113845D01*
X24492Y113996D01*
G37*
%LPD*%
G36*
X12692Y60738D02*
X12692Y60738D01*
X12783Y60754D01*
X12790Y60758D01*
X12796Y60760D01*
X12825Y60779D01*
X12926Y60840D01*
X13230Y61101D01*
X13250Y61126D01*
X13276Y61145D01*
X13311Y61203D01*
X13353Y61257D01*
X13361Y61288D01*
X13377Y61316D01*
X13393Y61407D01*
X13404Y61449D01*
X13402Y61463D01*
X13405Y61480D01*
X13405Y72218D01*
X13402Y72232D01*
X13404Y72249D01*
X13371Y72781D01*
X13347Y72871D01*
X13326Y72961D01*
X13322Y72966D01*
X13320Y72973D01*
X13262Y73047D01*
X13208Y73121D01*
X13202Y73124D01*
X13197Y73130D01*
X13116Y73175D01*
X13037Y73222D01*
X13029Y73224D01*
X13024Y73227D01*
X12988Y73230D01*
X12873Y73250D01*
X11699Y73250D01*
X11690Y73248D01*
X11682Y73250D01*
X11594Y73229D01*
X11504Y73210D01*
X11497Y73206D01*
X11489Y73204D01*
X11415Y73150D01*
X11340Y73098D01*
X11335Y73091D01*
X11328Y73086D01*
X11282Y73007D01*
X11233Y72930D01*
X11231Y72922D01*
X11227Y72915D01*
X11199Y72751D01*
X11199Y61447D01*
X11211Y61388D01*
X11214Y61328D01*
X11231Y61292D01*
X11239Y61252D01*
X11273Y61202D01*
X11299Y61148D01*
X11332Y61116D01*
X11351Y61088D01*
X11382Y61069D01*
X11419Y61033D01*
X11757Y60806D01*
X11816Y60781D01*
X11872Y60748D01*
X11912Y60741D01*
X11940Y60729D01*
X11979Y60730D01*
X12036Y60720D01*
X12601Y60720D01*
X12692Y60738D01*
G37*
%LPC*%
G36*
X3071Y66028D02*
X3071Y66028D01*
X3059Y67434D01*
X3058Y67436D01*
X3059Y67438D01*
X3051Y67474D01*
X3054Y67483D01*
X3052Y67512D01*
X3059Y67550D01*
X3073Y69240D01*
X3107Y70201D01*
X3919Y70151D01*
X4416Y70067D01*
X4867Y69922D01*
X5263Y69689D01*
X5599Y69386D01*
X5841Y69025D01*
X5978Y68611D01*
X6016Y68147D01*
X5974Y67624D01*
X5980Y67576D01*
X5975Y67528D01*
X5992Y67478D01*
X5993Y67467D01*
X5985Y67458D01*
X5964Y67424D01*
X5924Y67380D01*
X5654Y66952D01*
X5331Y66632D01*
X4945Y66385D01*
X4501Y66219D01*
X4006Y66115D01*
X3481Y66049D01*
X3079Y66024D01*
X3071Y66028D01*
G37*
%LPD*%
%LPC*%
G36*
X5587Y105620D02*
X5587Y105620D01*
X5764Y106126D01*
X6396Y107677D01*
X6428Y107817D01*
X6623Y107904D01*
X6654Y107925D01*
X6702Y107947D01*
X7150Y108252D01*
X8118Y108789D01*
X8127Y108797D01*
X8140Y108803D01*
X8607Y109095D01*
X9058Y109345D01*
X9090Y109359D01*
X8990Y109275D01*
X8982Y109264D01*
X8967Y109255D01*
X8557Y108866D01*
X8545Y108849D01*
X8525Y108832D01*
X8311Y108588D01*
X8182Y108494D01*
X7392Y107690D01*
X7386Y107681D01*
X7376Y107673D01*
X6624Y106832D01*
X6614Y106815D01*
X6596Y106798D01*
X5921Y105894D01*
X5918Y105888D01*
X5912Y105882D01*
X5588Y105420D01*
X5586Y105416D01*
X5582Y105412D01*
X5485Y105267D01*
X5587Y105620D01*
G37*
%LPD*%
D10*
X316256Y15173D02*
X315027Y13944D01*
X315027Y11487D01*
X316256Y10258D01*
X321171Y10258D01*
X322400Y11487D01*
X322400Y13944D01*
X321171Y15173D01*
X318714Y15173D01*
X318714Y12715D01*
X322400Y17742D02*
X315027Y17742D01*
X322400Y22657D01*
X315027Y22657D01*
X315027Y25226D02*
X322400Y25226D01*
X322400Y28912D01*
X321171Y30141D01*
X316256Y30141D01*
X315027Y28912D01*
X315027Y25226D01*
X316017Y41674D02*
X314789Y42903D01*
X314789Y45360D01*
X316017Y46589D01*
X317246Y46589D01*
X318475Y45360D01*
X318475Y44132D01*
X318475Y45360D02*
X319704Y46589D01*
X320932Y46589D01*
X322161Y45360D01*
X322161Y42903D01*
X320932Y41674D01*
X319704Y49158D02*
X314789Y49158D01*
X319704Y49158D02*
X322161Y51616D01*
X319704Y54073D01*
X314789Y54073D01*
X316017Y56643D02*
X314789Y57871D01*
X314789Y60329D01*
X316017Y61557D01*
X317246Y61557D01*
X318475Y60329D01*
X318475Y59100D01*
X318475Y60329D02*
X319704Y61557D01*
X320932Y61557D01*
X322161Y60329D01*
X322161Y57871D01*
X320932Y56643D01*
X314604Y172131D02*
X315833Y173359D01*
X314604Y172131D02*
X314604Y169673D01*
X315833Y168444D01*
X320747Y168444D01*
X321976Y169673D01*
X321976Y172131D01*
X320747Y173359D01*
X314604Y179615D02*
X315833Y180843D01*
X314604Y179615D02*
X314604Y177157D01*
X315833Y175929D01*
X317061Y175929D01*
X318290Y177157D01*
X318290Y179615D01*
X319519Y180843D01*
X320747Y180843D01*
X321976Y179615D01*
X321976Y177157D01*
X320747Y175929D01*
X322195Y114819D02*
X314823Y114819D01*
X314823Y118505D01*
X316051Y119733D01*
X318509Y119733D01*
X319738Y118505D01*
X319738Y114819D01*
X319738Y117276D02*
X322195Y119733D01*
X314823Y125989D02*
X316051Y127218D01*
X314823Y125989D02*
X314823Y123531D01*
X316051Y122303D01*
X317280Y122303D01*
X318509Y123531D01*
X318509Y125989D01*
X319738Y127218D01*
X320966Y127218D01*
X322195Y125989D01*
X322195Y123531D01*
X320966Y122303D01*
X322195Y132244D02*
X314823Y132244D01*
X314823Y129787D02*
X314823Y134702D01*
X314831Y92893D02*
X322204Y92893D01*
X322204Y96579D01*
X320975Y97808D01*
X316060Y97808D01*
X314831Y96579D01*
X314831Y92893D01*
X317289Y100377D02*
X314831Y102835D01*
X322204Y102835D01*
X322204Y105292D02*
X322204Y100377D01*
X322204Y68409D02*
X314831Y68409D01*
X322204Y68409D02*
X322204Y72095D01*
X320975Y73324D01*
X316060Y73324D01*
X314831Y72095D01*
X314831Y68409D01*
X316060Y75893D02*
X320975Y75893D01*
X316060Y75893D02*
X314831Y77122D01*
X314831Y79579D01*
X316060Y80808D01*
X320975Y80808D01*
X322204Y79579D01*
X322204Y77122D01*
X320975Y75893D01*
X316060Y80808D01*
X314900Y143776D02*
X322272Y143776D01*
X322272Y147463D01*
X321044Y148691D01*
X316129Y148691D01*
X314900Y147463D01*
X314900Y143776D01*
X314900Y154947D02*
X316129Y156175D01*
X314900Y154947D02*
X314900Y152489D01*
X316129Y151261D01*
X321044Y151261D01*
X322272Y152489D01*
X322272Y154947D01*
X321044Y156175D01*
D11*
X308509Y193527D02*
X41479Y193527D01*
X308509Y193527D02*
X308509Y927D01*
X41509Y927D01*
X41479Y193527D01*
X66289Y172527D02*
X283729Y172527D01*
X283729Y63887D01*
X66289Y63887D01*
X66289Y172527D01*
D10*
X149390Y13681D02*
X149390Y6308D01*
X149390Y13681D02*
X153076Y13681D01*
X154305Y12452D01*
X154305Y9995D01*
X153076Y8766D01*
X149390Y8766D01*
X160560Y13681D02*
X161789Y12452D01*
X160560Y13681D02*
X158103Y13681D01*
X156874Y12452D01*
X156874Y7537D01*
X158103Y6308D01*
X160560Y6308D01*
X161789Y7537D01*
X164358Y6308D02*
X164358Y13681D01*
X168044Y13681D01*
X169273Y12452D01*
X169273Y11223D01*
X168044Y9995D01*
X169273Y8766D01*
X169273Y7537D01*
X168044Y6308D01*
X164358Y6308D01*
X164358Y9995D02*
X168044Y9995D01*
X179327Y13681D02*
X184242Y13681D01*
X179327Y13681D02*
X179327Y6308D01*
X184242Y6308D01*
X181784Y9995D02*
X179327Y9995D01*
X186811Y13681D02*
X186811Y6308D01*
X190497Y6308D01*
X191726Y7537D01*
X191726Y12452D01*
X190497Y13681D01*
X186811Y13681D01*
X197981Y13681D02*
X199210Y12452D01*
X197981Y13681D02*
X195524Y13681D01*
X194295Y12452D01*
X194295Y7537D01*
X195524Y6308D01*
X197981Y6308D01*
X199210Y7537D01*
X199210Y9995D01*
X196752Y9995D01*
X201779Y13681D02*
X206694Y13681D01*
X201779Y13681D02*
X201779Y6308D01*
X206694Y6308D01*
X204237Y9995D02*
X201779Y9995D01*
X126112Y43748D02*
X126112Y49891D01*
X126112Y43748D02*
X127340Y42519D01*
X129798Y42519D01*
X131027Y43748D01*
X131027Y49891D01*
X137282Y49891D02*
X138511Y48662D01*
X137282Y49891D02*
X134825Y49891D01*
X133596Y48662D01*
X133596Y43748D01*
X134825Y42519D01*
X137282Y42519D01*
X138511Y43748D01*
X138511Y46205D01*
X136053Y46205D01*
X141080Y46205D02*
X145995Y46205D01*
X148564Y42519D02*
X153479Y42519D01*
X148564Y42519D02*
X153479Y47434D01*
X153479Y48662D01*
X152250Y49891D01*
X149793Y49891D01*
X148564Y48662D01*
X156048Y48662D02*
X157277Y49891D01*
X159735Y49891D01*
X160963Y48662D01*
X160963Y47434D01*
X159735Y46205D01*
X160963Y44976D01*
X160963Y43748D01*
X159735Y42519D01*
X157277Y42519D01*
X156048Y43748D01*
X156048Y44976D01*
X157277Y46205D01*
X156048Y47434D01*
X156048Y48662D01*
X157277Y46205D02*
X159735Y46205D01*
X165990Y48662D02*
X168447Y49891D01*
X165990Y48662D02*
X163533Y46205D01*
X163533Y43748D01*
X164761Y42519D01*
X167219Y42519D01*
X168447Y43748D01*
X168447Y44976D01*
X167219Y46205D01*
X163533Y46205D01*
X174703Y42519D02*
X174703Y49891D01*
X171017Y46205D01*
X175932Y46205D01*
X178501Y42519D02*
X178501Y49891D01*
X178501Y46205D02*
X183416Y46205D01*
X183416Y49891D02*
X183416Y42519D01*
X189671Y49891D02*
X190900Y48662D01*
X189671Y49891D02*
X187214Y49891D01*
X185985Y48662D01*
X185985Y47434D01*
X187214Y46205D01*
X189671Y46205D01*
X190900Y44976D01*
X190900Y43748D01*
X189671Y42519D01*
X187214Y42519D01*
X185985Y43748D01*
X193469Y42519D02*
X193469Y49891D01*
X195927Y44976D02*
X193469Y42519D01*
X195927Y44976D02*
X198384Y42519D01*
X198384Y49891D01*
X200953Y49891D02*
X205868Y49891D01*
X200953Y49891D02*
X200953Y42519D01*
X205868Y42519D01*
X203411Y46205D02*
X200953Y46205D01*
X212124Y49891D02*
X213352Y48662D01*
X212124Y49891D02*
X209666Y49891D01*
X208438Y48662D01*
X208438Y43748D01*
X209666Y42519D01*
X212124Y42519D01*
X213352Y43748D01*
X213352Y46205D01*
X210895Y46205D01*
X215922Y43748D02*
X215922Y48662D01*
X217150Y49891D01*
X219608Y49891D01*
X220837Y48662D01*
X220837Y43748D01*
X219608Y42519D01*
X217150Y42519D01*
X215922Y43748D01*
X220837Y48662D01*
X223406Y47434D02*
X225863Y49891D01*
X225863Y42519D01*
X223406Y42519D02*
X228321Y42519D01*
D12*
X330313Y10750D02*
X343013Y10750D01*
D13*
X336663Y150450D03*
X336663Y125050D03*
X336663Y99650D03*
X336663Y74250D03*
X336663Y48850D03*
X336663Y23450D03*
X336663Y175850D03*
D14*
X0Y0D02*
X350000Y0D01*
X350000Y195000D01*
X0Y195000D01*
X0Y0D01*
M02*
