G04 EAGLE Gerber RS-274X export*
G75*
%MOMM*%
%FSLAX34Y34*%
%LPD*%
%INSilkscreen Bottom*%
%IPPOS*%
%AMOC8*
5,1,8,0,0,1.08239X$1,22.5*%
G01*
%ADD10C,0.101600*%
%ADD11C,0.254000*%
%ADD12C,0.076200*%
%ADD13C,0.127000*%
%ADD14R,0.950000X0.500100*%
%ADD15C,0.254000*%

G36*
X307515Y13577D02*
X307515Y13577D01*
X307531Y13580D01*
X307547Y13578D01*
X307708Y13618D01*
X308141Y13806D01*
X308618Y13900D01*
X309157Y13972D01*
X309184Y13981D01*
X309221Y13985D01*
X311361Y14561D01*
X311379Y14570D01*
X311406Y14575D01*
X312436Y14960D01*
X312438Y14962D01*
X312442Y14963D01*
X312949Y15160D01*
X312972Y15175D01*
X313005Y15186D01*
X313959Y15700D01*
X313975Y15714D01*
X313999Y15725D01*
X314466Y16036D01*
X314478Y16048D01*
X314497Y16059D01*
X314938Y16404D01*
X314950Y16418D01*
X314970Y16431D01*
X315374Y16806D01*
X315795Y17160D01*
X315809Y17176D01*
X315831Y17192D01*
X316225Y17595D01*
X316230Y17603D01*
X316239Y17609D01*
X317375Y18863D01*
X317383Y18876D01*
X317397Y18889D01*
X318445Y20217D01*
X318450Y20228D01*
X318461Y20238D01*
X319439Y21619D01*
X319444Y21631D01*
X319455Y21643D01*
X320050Y22597D01*
X320054Y22608D01*
X320064Y22620D01*
X320609Y23605D01*
X320612Y23615D01*
X320619Y23625D01*
X321117Y24632D01*
X321119Y24640D01*
X321125Y24649D01*
X321355Y25161D01*
X321358Y25177D01*
X321369Y25196D01*
X321560Y25726D01*
X321561Y25731D01*
X321564Y25736D01*
X321743Y26270D01*
X321745Y26281D01*
X321751Y26293D01*
X322056Y27367D01*
X322058Y27402D01*
X322071Y27448D01*
X322131Y27980D01*
X322246Y28495D01*
X322246Y28506D01*
X322250Y28517D01*
X322444Y29628D01*
X322443Y29645D01*
X322449Y29665D01*
X322558Y30788D01*
X322558Y30796D01*
X322560Y30805D01*
X322595Y31368D01*
X322594Y31378D01*
X322596Y31390D01*
X322618Y32518D01*
X322616Y32525D01*
X322618Y32533D01*
X322604Y33662D01*
X322603Y33665D01*
X322604Y33669D01*
X322580Y34556D01*
X322574Y34797D01*
X322572Y34805D01*
X322573Y34815D01*
X322538Y35378D01*
X322532Y35400D01*
X322532Y35430D01*
X322442Y35959D01*
X322408Y36495D01*
X322399Y36527D01*
X322397Y36572D01*
X322281Y37088D01*
X322229Y37617D01*
X322220Y37647D01*
X322216Y37688D01*
X321957Y38741D01*
X321874Y39272D01*
X321864Y39299D01*
X321859Y39336D01*
X321546Y40405D01*
X321542Y40413D01*
X321541Y40423D01*
X321011Y42004D01*
X321003Y42017D01*
X320999Y42036D01*
X320476Y43300D01*
X320614Y43447D01*
X320638Y43485D01*
X320685Y43543D01*
X320960Y44027D01*
X320973Y44067D01*
X321003Y44128D01*
X321166Y44662D01*
X321169Y44699D01*
X321188Y44810D01*
X321185Y45373D01*
X321180Y45397D01*
X321181Y45429D01*
X321125Y45910D01*
X321212Y46356D01*
X321371Y46869D01*
X321375Y46912D01*
X321392Y46981D01*
X321418Y47361D01*
X321636Y47592D01*
X321655Y47622D01*
X321682Y47647D01*
X321718Y47722D01*
X321741Y47760D01*
X321744Y47778D01*
X321753Y47797D01*
X321904Y48327D01*
X321906Y48356D01*
X321918Y48394D01*
X321982Y48851D01*
X322016Y48867D01*
X322017Y48868D01*
X322083Y48941D01*
X322149Y49014D01*
X322149Y49015D01*
X322150Y49016D01*
X322152Y49022D01*
X322209Y49170D01*
X322317Y49707D01*
X322317Y49714D01*
X322320Y49720D01*
X322321Y49887D01*
X322229Y50443D01*
X322223Y50460D01*
X322222Y50481D01*
X322108Y50945D01*
X322144Y51317D01*
X322347Y51709D01*
X322368Y51785D01*
X322396Y51858D01*
X322395Y51882D01*
X322401Y51900D01*
X322395Y51945D01*
X322394Y52025D01*
X322297Y52579D01*
X322288Y52600D01*
X322285Y52628D01*
X322002Y53622D01*
X322048Y54056D01*
X322044Y54090D01*
X322050Y54124D01*
X322033Y54210D01*
X322029Y54254D01*
X322021Y54268D01*
X322017Y54287D01*
X321822Y54794D01*
X321802Y54827D01*
X321800Y54832D01*
X321796Y54846D01*
X321790Y54854D01*
X321780Y54879D01*
X321203Y55803D01*
X321049Y56168D01*
X321088Y56603D01*
X321085Y56630D01*
X321088Y56650D01*
X321078Y56692D01*
X321078Y56693D01*
X321072Y56783D01*
X321067Y56793D01*
X321066Y56801D01*
X321047Y56835D01*
X321000Y56934D01*
X320680Y57394D01*
X320663Y57410D01*
X320648Y57435D01*
X319946Y58248D01*
X319732Y58646D01*
X319552Y59130D01*
X319541Y59147D01*
X319537Y59166D01*
X319458Y59281D01*
X319447Y59299D01*
X319445Y59301D01*
X319443Y59304D01*
X319051Y59709D01*
X319037Y59718D01*
X319025Y59734D01*
X318605Y60111D01*
X318581Y60125D01*
X318554Y60151D01*
X318111Y60456D01*
X317709Y60791D01*
X317385Y61102D01*
X317197Y61522D01*
X317169Y61561D01*
X317150Y61605D01*
X317106Y61650D01*
X317082Y61684D01*
X317058Y61698D01*
X317033Y61724D01*
X316593Y62041D01*
X316555Y62058D01*
X316501Y62093D01*
X315984Y62320D01*
X315958Y62325D01*
X315927Y62341D01*
X315415Y62494D01*
X314920Y62703D01*
X314908Y62705D01*
X314894Y62713D01*
X314502Y62854D01*
X314259Y63160D01*
X314247Y63170D01*
X314236Y63187D01*
X313863Y63593D01*
X313843Y63608D01*
X313828Y63628D01*
X313733Y63687D01*
X313702Y63710D01*
X313695Y63711D01*
X313687Y63716D01*
X313177Y63928D01*
X313140Y63935D01*
X313089Y63955D01*
X312536Y64072D01*
X312519Y64072D01*
X312499Y64078D01*
X311379Y64226D01*
X311362Y64225D01*
X311340Y64230D01*
X310212Y64289D01*
X310203Y64287D01*
X310192Y64289D01*
X309062Y64303D01*
X309054Y64302D01*
X309044Y64303D01*
X308479Y64289D01*
X308466Y64286D01*
X308449Y64288D01*
X307992Y64249D01*
X307573Y64394D01*
X307530Y64400D01*
X307490Y64415D01*
X307419Y64415D01*
X307376Y64421D01*
X307354Y64415D01*
X307323Y64414D01*
X306770Y64318D01*
X306732Y64303D01*
X306672Y64290D01*
X306174Y64092D01*
X305664Y63945D01*
X305646Y63935D01*
X305620Y63929D01*
X305101Y63725D01*
X305087Y63716D01*
X305067Y63710D01*
X304572Y63471D01*
X303658Y63084D01*
X303553Y63039D01*
X303544Y63033D01*
X303532Y63030D01*
X303203Y62872D01*
X302333Y63116D01*
X301852Y63273D01*
X301358Y63471D01*
X301344Y63474D01*
X301329Y63482D01*
X300938Y63612D01*
X300864Y63621D01*
X300851Y63624D01*
X300775Y63680D01*
X300398Y63870D01*
X300355Y63881D01*
X300286Y63910D01*
X299800Y64023D01*
X298867Y64454D01*
X298848Y64459D01*
X298826Y64471D01*
X297842Y64824D01*
X297386Y65061D01*
X297359Y65068D01*
X297326Y65087D01*
X296822Y65269D01*
X296785Y65275D01*
X296675Y65299D01*
X296644Y65300D01*
X296432Y65500D01*
X296861Y65290D01*
X296890Y65282D01*
X296925Y65264D01*
X297460Y65088D01*
X297471Y65086D01*
X297484Y65081D01*
X298028Y64931D01*
X298044Y64930D01*
X298064Y64923D01*
X298617Y64813D01*
X298641Y64814D01*
X298671Y64806D01*
X299234Y64758D01*
X299255Y64760D01*
X299282Y64756D01*
X299845Y64763D01*
X299876Y64770D01*
X299908Y64768D01*
X299997Y64796D01*
X300040Y64805D01*
X300051Y64813D01*
X300067Y64818D01*
X300474Y65027D01*
X302062Y65143D01*
X302123Y65160D01*
X302186Y65168D01*
X302223Y65188D01*
X302253Y65197D01*
X302283Y65221D01*
X302332Y65247D01*
X302605Y65460D01*
X303014Y65539D01*
X304673Y65667D01*
X304691Y65672D01*
X304709Y65671D01*
X304852Y65718D01*
X304865Y65722D01*
X304866Y65722D01*
X304867Y65723D01*
X305310Y65956D01*
X305774Y66096D01*
X306299Y66186D01*
X306341Y66202D01*
X306385Y66209D01*
X306444Y66242D01*
X306484Y66258D01*
X306502Y66275D01*
X306530Y66291D01*
X306865Y66563D01*
X307291Y66643D01*
X307296Y66645D01*
X307302Y66645D01*
X307457Y66705D01*
X308402Y67272D01*
X308434Y67302D01*
X308508Y67358D01*
X308855Y67726D01*
X309264Y68035D01*
X309267Y68039D01*
X309271Y68041D01*
X309383Y68164D01*
X309613Y68521D01*
X309991Y68774D01*
X310006Y68789D01*
X310029Y68802D01*
X310454Y69149D01*
X310479Y69179D01*
X310553Y69259D01*
X310818Y69655D01*
X311150Y69958D01*
X311156Y69967D01*
X311162Y69971D01*
X311173Y69987D01*
X311194Y70004D01*
X311241Y70083D01*
X311267Y70119D01*
X311271Y70132D01*
X311279Y70147D01*
X311414Y70495D01*
X311749Y70750D01*
X311766Y70769D01*
X311788Y70782D01*
X311855Y70870D01*
X311880Y70899D01*
X311883Y70907D01*
X311889Y70914D01*
X312136Y71383D01*
X312437Y71816D01*
X312474Y71902D01*
X312513Y71986D01*
X312513Y71994D01*
X312515Y71999D01*
X312516Y72033D01*
X312523Y72152D01*
X312489Y72485D01*
X312711Y72777D01*
X312717Y72789D01*
X312726Y72799D01*
X312795Y72950D01*
X312921Y73421D01*
X313151Y73823D01*
X313453Y74274D01*
X313469Y74314D01*
X313505Y74375D01*
X313700Y74890D01*
X313710Y74956D01*
X313730Y75021D01*
X313726Y75054D01*
X313731Y75086D01*
X313715Y75152D01*
X313708Y75219D01*
X313691Y75252D01*
X313684Y75279D01*
X313660Y75312D01*
X313631Y75367D01*
X313319Y75782D01*
X313256Y75837D01*
X313197Y75897D01*
X313181Y75904D01*
X313170Y75913D01*
X313128Y75928D01*
X313045Y75965D01*
X312592Y76082D01*
X312234Y76316D01*
X312224Y76320D01*
X312216Y76327D01*
X312061Y76388D01*
X311563Y76490D01*
X311518Y76490D01*
X311440Y76500D01*
X311175Y76488D01*
X311049Y76692D01*
X311045Y76697D01*
X311042Y76704D01*
X310978Y76769D01*
X310914Y76837D01*
X310907Y76840D01*
X310902Y76845D01*
X310817Y76880D01*
X310732Y76918D01*
X310725Y76918D01*
X310718Y76921D01*
X310552Y76924D01*
X310104Y76859D01*
X309733Y76952D01*
X309344Y77135D01*
X309310Y77143D01*
X309280Y77159D01*
X309194Y77171D01*
X309151Y77182D01*
X309135Y77179D01*
X309115Y77182D01*
X308746Y77170D01*
X308505Y77372D01*
X308428Y77414D01*
X308353Y77459D01*
X308340Y77462D01*
X308330Y77467D01*
X308288Y77471D01*
X308189Y77489D01*
X307625Y77494D01*
X307613Y77492D01*
X307598Y77494D01*
X307034Y77469D01*
X307012Y77464D01*
X306982Y77464D01*
X306509Y77393D01*
X306046Y77481D01*
X306024Y77480D01*
X305996Y77487D01*
X305447Y77533D01*
X305403Y77528D01*
X305318Y77527D01*
X304764Y77428D01*
X304725Y77412D01*
X304663Y77398D01*
X304177Y77199D01*
X303725Y77069D01*
X303247Y77024D01*
X303215Y77015D01*
X303169Y77011D01*
X302638Y76874D01*
X302598Y76855D01*
X302513Y76824D01*
X302099Y76585D01*
X301633Y76468D01*
X301583Y76444D01*
X301530Y76430D01*
X301488Y76398D01*
X301454Y76382D01*
X301432Y76358D01*
X301396Y76331D01*
X301090Y76016D01*
X300691Y75884D01*
X300654Y75862D01*
X300590Y75837D01*
X300154Y75575D01*
X299680Y75411D01*
X299626Y75378D01*
X299567Y75354D01*
X299536Y75325D01*
X299509Y75309D01*
X299486Y75278D01*
X299446Y75240D01*
X299109Y74794D01*
X299105Y74786D01*
X299098Y74779D01*
X298477Y73891D01*
X298185Y73578D01*
X297768Y73383D01*
X297751Y73371D01*
X297731Y73364D01*
X297630Y73281D01*
X297608Y73265D01*
X297606Y73262D01*
X297603Y73259D01*
X297234Y72835D01*
X297224Y72817D01*
X297205Y72799D01*
X296598Y71955D01*
X296227Y71704D01*
X296201Y71678D01*
X296170Y71659D01*
X296119Y71594D01*
X296088Y71562D01*
X296081Y71545D01*
X296068Y71528D01*
X295800Y71033D01*
X295792Y71008D01*
X295785Y70997D01*
X295785Y70995D01*
X295774Y70978D01*
X295360Y69928D01*
X295356Y69901D01*
X295342Y69869D01*
X295139Y69083D01*
X294786Y69256D01*
X294743Y69267D01*
X294667Y69297D01*
X294130Y69407D01*
X294095Y69407D01*
X294061Y69416D01*
X293996Y69407D01*
X293931Y69407D01*
X293898Y69393D01*
X293864Y69388D01*
X293789Y69347D01*
X293748Y69330D01*
X293736Y69318D01*
X293718Y69308D01*
X293286Y68963D01*
X293277Y68953D01*
X293266Y68946D01*
X293162Y68817D01*
X292886Y68325D01*
X292876Y68295D01*
X292855Y68258D01*
X292655Y67730D01*
X292650Y67701D01*
X292635Y67664D01*
X292510Y67113D01*
X292510Y67079D01*
X292499Y67033D01*
X292465Y66470D01*
X292471Y66427D01*
X292476Y66332D01*
X292598Y65784D01*
X292610Y65758D01*
X292613Y65731D01*
X292650Y65668D01*
X292679Y65603D01*
X292700Y65583D01*
X292714Y65559D01*
X292795Y65495D01*
X292825Y65467D01*
X292834Y65464D01*
X292844Y65456D01*
X293299Y65205D01*
X293341Y65192D01*
X293427Y65156D01*
X293773Y65075D01*
X293906Y64875D01*
X293906Y64850D01*
X293899Y64810D01*
X293906Y64782D01*
X293906Y64743D01*
X293956Y64446D01*
X293970Y64408D01*
X293982Y64350D01*
X294183Y63824D01*
X294204Y63792D01*
X294223Y63743D01*
X294517Y63261D01*
X294526Y63251D01*
X294533Y63236D01*
X294827Y62812D01*
X295023Y62372D01*
X295316Y61320D01*
X295319Y61316D01*
X295319Y61310D01*
X295642Y60243D01*
X295899Y59159D01*
X295904Y59148D01*
X295906Y59134D01*
X296058Y58614D01*
X296164Y58082D01*
X296168Y58071D01*
X296169Y58058D01*
X296440Y56975D01*
X296790Y55235D01*
X296545Y55278D01*
X296517Y55277D01*
X296479Y55285D01*
X295915Y55308D01*
X295899Y55305D01*
X295879Y55308D01*
X295315Y55291D01*
X295295Y55286D01*
X295270Y55287D01*
X294710Y55219D01*
X294696Y55214D01*
X294678Y55214D01*
X294124Y55110D01*
X294101Y55101D01*
X294070Y55097D01*
X293007Y54773D01*
X292997Y54767D01*
X292983Y54765D01*
X292460Y54576D01*
X292432Y54559D01*
X292389Y54544D01*
X291403Y54003D01*
X291387Y53990D01*
X291363Y53979D01*
X290900Y53666D01*
X290882Y53648D01*
X290854Y53631D01*
X290426Y53262D01*
X290419Y53252D01*
X290407Y53244D01*
X289999Y52853D01*
X289994Y52844D01*
X289984Y52837D01*
X289594Y52428D01*
X289587Y52416D01*
X289574Y52406D01*
X289210Y51974D01*
X289201Y51959D01*
X289185Y51943D01*
X288858Y51484D01*
X288851Y51469D01*
X288837Y51453D01*
X288251Y50487D01*
X288245Y50472D01*
X288233Y50455D01*
X287720Y49449D01*
X287705Y49393D01*
X287677Y49352D01*
X287572Y49123D01*
X287567Y49100D01*
X287552Y49072D01*
X287384Y48565D01*
X287164Y48076D01*
X287161Y48060D01*
X287151Y48042D01*
X286959Y47516D01*
X286957Y47508D01*
X286952Y47498D01*
X286444Y45913D01*
X286443Y45905D01*
X286439Y45896D01*
X286137Y44829D01*
X286136Y44823D01*
X286133Y44816D01*
X285996Y44278D01*
X285996Y44266D01*
X285990Y44253D01*
X285885Y43723D01*
X285586Y42664D01*
X285585Y42647D01*
X285577Y42627D01*
X285246Y40983D01*
X285246Y40968D01*
X285240Y40950D01*
X285093Y39839D01*
X285094Y39823D01*
X285089Y39804D01*
X285056Y39274D01*
X284955Y38761D01*
X284956Y38729D01*
X284946Y38686D01*
X284922Y38123D01*
X284923Y38116D01*
X284922Y38107D01*
X284909Y36979D01*
X284910Y36970D01*
X284909Y36960D01*
X284952Y35329D01*
X284957Y35307D01*
X284956Y35279D01*
X285239Y33075D01*
X285246Y33054D01*
X285248Y33026D01*
X285367Y32511D01*
X285424Y31981D01*
X285434Y31949D01*
X285439Y31901D01*
X285728Y30860D01*
X285795Y30349D01*
X285807Y30315D01*
X285814Y30266D01*
X286307Y28687D01*
X286314Y28674D01*
X286318Y28656D01*
X286718Y27621D01*
X286721Y27616D01*
X286723Y27609D01*
X287157Y26574D01*
X287165Y26561D01*
X287171Y26543D01*
X287408Y26070D01*
X287615Y25574D01*
X287621Y25565D01*
X287625Y25552D01*
X287867Y25043D01*
X287869Y25040D01*
X287871Y25035D01*
X288372Y24026D01*
X288375Y24022D01*
X288376Y24017D01*
X289421Y22017D01*
X289426Y22010D01*
X289430Y22000D01*
X289981Y21037D01*
X289988Y21029D01*
X289993Y21016D01*
X290598Y20068D01*
X290612Y20053D01*
X290625Y20029D01*
X291318Y19139D01*
X291330Y19129D01*
X291341Y19112D01*
X291710Y18703D01*
X292049Y18287D01*
X292079Y18262D01*
X292116Y18219D01*
X292538Y17867D01*
X293352Y17108D01*
X293383Y17088D01*
X293422Y17053D01*
X294368Y16443D01*
X294376Y16440D01*
X294384Y16433D01*
X294869Y16145D01*
X294891Y16138D01*
X294914Y16121D01*
X295423Y15886D01*
X295434Y15883D01*
X295445Y15876D01*
X295924Y15682D01*
X296410Y15439D01*
X296424Y15435D01*
X296439Y15426D01*
X296943Y15213D01*
X296950Y15212D01*
X296957Y15208D01*
X298529Y14597D01*
X298538Y14596D01*
X298548Y14591D01*
X299081Y14407D01*
X299095Y14405D01*
X299111Y14398D01*
X300199Y14099D01*
X300212Y14098D01*
X300228Y14092D01*
X301327Y13860D01*
X301348Y13859D01*
X301374Y13852D01*
X301932Y13789D01*
X301959Y13792D01*
X301995Y13786D01*
X302559Y13793D01*
X302564Y13795D01*
X302570Y13794D01*
X304261Y13853D01*
X304271Y13855D01*
X304284Y13854D01*
X304829Y13899D01*
X305337Y13905D01*
X305859Y13835D01*
X305877Y13836D01*
X305900Y13831D01*
X306357Y13807D01*
X306722Y13624D01*
X306757Y13615D01*
X306787Y13597D01*
X306871Y13584D01*
X306914Y13572D01*
X306931Y13574D01*
X306952Y13571D01*
X307515Y13577D01*
G37*
G36*
X285753Y1728D02*
X285753Y1728D01*
X285795Y1727D01*
X285849Y1748D01*
X285906Y1760D01*
X285941Y1784D01*
X285980Y1799D01*
X286022Y1839D01*
X286070Y1872D01*
X286093Y1908D01*
X286123Y1937D01*
X286154Y2003D01*
X286177Y2040D01*
X286181Y2062D01*
X286193Y2088D01*
X286314Y2532D01*
X286317Y2577D01*
X286332Y2660D01*
X286360Y7177D01*
X286374Y7722D01*
X286412Y8177D01*
X286561Y8482D01*
X286821Y8667D01*
X287195Y8731D01*
X287645Y8686D01*
X288119Y8551D01*
X288600Y8356D01*
X288989Y8163D01*
X289114Y8003D01*
X289114Y2525D01*
X289133Y2434D01*
X289148Y2344D01*
X289153Y2337D01*
X289154Y2330D01*
X289175Y2300D01*
X289233Y2201D01*
X289493Y1896D01*
X289519Y1876D01*
X289538Y1849D01*
X289596Y1815D01*
X289650Y1773D01*
X289681Y1764D01*
X289709Y1748D01*
X289799Y1733D01*
X289842Y1721D01*
X289856Y1723D01*
X289873Y1720D01*
X290439Y1720D01*
X290446Y1721D01*
X290453Y1720D01*
X290616Y1753D01*
X291025Y1908D01*
X291041Y1918D01*
X291058Y1922D01*
X291124Y1970D01*
X291194Y2014D01*
X291204Y2029D01*
X291218Y2039D01*
X291260Y2110D01*
X291307Y2178D01*
X291311Y2195D01*
X291320Y2210D01*
X291345Y2362D01*
X291348Y2372D01*
X291347Y2373D01*
X291348Y2374D01*
X291350Y6889D01*
X291383Y7955D01*
X291483Y8342D01*
X291683Y8594D01*
X291989Y8718D01*
X292395Y8716D01*
X292852Y8604D01*
X293322Y8417D01*
X293785Y8178D01*
X294085Y7993D01*
X294163Y7722D01*
X294169Y6099D01*
X294134Y2713D01*
X294136Y2707D01*
X294135Y2702D01*
X294141Y2677D01*
X294140Y2634D01*
X294213Y2146D01*
X294237Y2079D01*
X294253Y2009D01*
X294271Y1986D01*
X294280Y1959D01*
X294329Y1907D01*
X294371Y1849D01*
X294396Y1834D01*
X294416Y1813D01*
X294481Y1784D01*
X294542Y1748D01*
X294574Y1742D01*
X294597Y1732D01*
X294640Y1731D01*
X294706Y1720D01*
X295837Y1720D01*
X295933Y1740D01*
X296028Y1758D01*
X296030Y1759D01*
X296032Y1760D01*
X296113Y1815D01*
X296193Y1869D01*
X296194Y1871D01*
X296196Y1872D01*
X296249Y1956D01*
X296301Y2036D01*
X296302Y2038D01*
X296303Y2040D01*
X296305Y2055D01*
X296336Y2199D01*
X296358Y2742D01*
X296356Y2751D01*
X296358Y2762D01*
X296364Y10104D01*
X296347Y10185D01*
X296336Y10267D01*
X296328Y10282D01*
X296324Y10299D01*
X296277Y10367D01*
X296235Y10438D01*
X296222Y10448D01*
X296212Y10463D01*
X296142Y10507D01*
X296076Y10557D01*
X296057Y10562D01*
X296044Y10570D01*
X296000Y10577D01*
X295915Y10601D01*
X295403Y10653D01*
X295380Y10651D01*
X295352Y10656D01*
X294787Y10656D01*
X294770Y10653D01*
X294753Y10655D01*
X294673Y10633D01*
X294592Y10616D01*
X294578Y10607D01*
X294561Y10602D01*
X294496Y10551D01*
X294428Y10504D01*
X294419Y10490D01*
X294405Y10479D01*
X294322Y10339D01*
X294321Y10336D01*
X294229Y10097D01*
X293744Y10342D01*
X293731Y10346D01*
X293715Y10356D01*
X293196Y10578D01*
X293175Y10582D01*
X293150Y10595D01*
X292612Y10765D01*
X292567Y10770D01*
X292485Y10788D01*
X291541Y10834D01*
X291498Y10827D01*
X291405Y10821D01*
X290855Y10695D01*
X290817Y10677D01*
X290812Y10675D01*
X290771Y10667D01*
X290752Y10653D01*
X290722Y10643D01*
X290231Y10365D01*
X290197Y10336D01*
X290129Y10288D01*
X289786Y9954D01*
X289691Y9910D01*
X288911Y10318D01*
X288891Y10324D01*
X288868Y10338D01*
X288346Y10552D01*
X288327Y10555D01*
X288305Y10566D01*
X287765Y10734D01*
X287734Y10737D01*
X287694Y10751D01*
X287136Y10838D01*
X287099Y10836D01*
X287044Y10844D01*
X286481Y10826D01*
X286440Y10817D01*
X286376Y10812D01*
X285829Y10676D01*
X285788Y10657D01*
X285713Y10631D01*
X285216Y10364D01*
X285184Y10337D01*
X285101Y10279D01*
X284701Y9883D01*
X284677Y9847D01*
X284616Y9770D01*
X284343Y9278D01*
X284332Y9243D01*
X284290Y9136D01*
X284178Y8585D01*
X284178Y8548D01*
X284168Y8494D01*
X284137Y6799D01*
X284138Y6796D01*
X284137Y6791D01*
X284131Y2270D01*
X284148Y2187D01*
X284160Y2103D01*
X284168Y2090D01*
X284171Y2075D01*
X284218Y2005D01*
X284262Y1933D01*
X284274Y1923D01*
X284283Y1911D01*
X284354Y1865D01*
X284422Y1815D01*
X284439Y1811D01*
X284450Y1803D01*
X284494Y1796D01*
X284583Y1772D01*
X285098Y1722D01*
X285119Y1725D01*
X285146Y1720D01*
X285711Y1720D01*
X285753Y1728D01*
G37*
G36*
X322638Y1723D02*
X322638Y1723D01*
X322653Y1721D01*
X322815Y1758D01*
X323214Y1924D01*
X323223Y1930D01*
X323233Y1932D01*
X323305Y1986D01*
X323379Y2036D01*
X323385Y2044D01*
X323393Y2051D01*
X323439Y2128D01*
X323487Y2202D01*
X323489Y2213D01*
X323494Y2222D01*
X323522Y2386D01*
X323516Y8033D01*
X323516Y8036D01*
X323516Y8039D01*
X323487Y8203D01*
X323397Y8451D01*
X323424Y8489D01*
X323453Y8554D01*
X323489Y8615D01*
X323494Y8647D01*
X323505Y8671D01*
X323505Y8713D01*
X323516Y8779D01*
X323516Y12742D01*
X323514Y12756D01*
X323516Y12770D01*
X323494Y12853D01*
X323477Y12937D01*
X323469Y12949D01*
X323465Y12963D01*
X323413Y13030D01*
X323364Y13101D01*
X323352Y13109D01*
X323343Y13120D01*
X323269Y13162D01*
X323197Y13208D01*
X323183Y13210D01*
X323170Y13217D01*
X323005Y13241D01*
X320742Y13187D01*
X320733Y13185D01*
X320722Y13186D01*
X320157Y13150D01*
X320146Y13147D01*
X320132Y13148D01*
X319570Y13084D01*
X319550Y13078D01*
X319523Y13077D01*
X318969Y12960D01*
X318946Y12949D01*
X318913Y12944D01*
X318376Y12763D01*
X318355Y12750D01*
X318323Y12741D01*
X317812Y12500D01*
X317784Y12479D01*
X317741Y12459D01*
X317276Y12138D01*
X317251Y12111D01*
X317209Y12082D01*
X316807Y11684D01*
X316785Y11651D01*
X316744Y11608D01*
X316428Y11140D01*
X316413Y11104D01*
X316383Y11056D01*
X316162Y10535D01*
X316155Y10500D01*
X316135Y10455D01*
X316006Y9904D01*
X316005Y9870D01*
X315994Y9824D01*
X315955Y9260D01*
X315958Y9234D01*
X315954Y9201D01*
X315982Y8636D01*
X316000Y8567D01*
X316009Y8497D01*
X316021Y8477D01*
X316020Y8472D01*
X316022Y8449D01*
X316019Y8431D01*
X316030Y8388D01*
X316040Y8306D01*
X316200Y7766D01*
X316217Y7732D01*
X316234Y7680D01*
X316491Y7177D01*
X316511Y7152D01*
X316531Y7112D01*
X316862Y6654D01*
X316888Y6631D01*
X316915Y6592D01*
X317317Y6195D01*
X317347Y6176D01*
X317383Y6140D01*
X317847Y5818D01*
X317877Y5805D01*
X317914Y5779D01*
X318421Y5532D01*
X318449Y5525D01*
X318482Y5508D01*
X319018Y5329D01*
X319041Y5326D01*
X319069Y5315D01*
X319621Y5194D01*
X319638Y5194D01*
X319659Y5187D01*
X320219Y5110D01*
X320234Y5111D01*
X320253Y5106D01*
X321209Y5040D01*
X321213Y5036D01*
X321206Y2433D01*
X321221Y2361D01*
X321227Y2288D01*
X321240Y2264D01*
X321245Y2238D01*
X321287Y2178D01*
X321321Y2113D01*
X321344Y2093D01*
X321357Y2074D01*
X321394Y2051D01*
X321448Y2004D01*
X321800Y1792D01*
X321849Y1774D01*
X321894Y1748D01*
X321951Y1738D01*
X321988Y1725D01*
X322018Y1727D01*
X322058Y1720D01*
X322623Y1720D01*
X322638Y1723D01*
G37*
G36*
X304888Y1526D02*
X304888Y1526D01*
X304929Y1535D01*
X304992Y1538D01*
X305543Y1659D01*
X305584Y1677D01*
X305662Y1702D01*
X306164Y1957D01*
X306199Y1985D01*
X306272Y2032D01*
X306690Y2411D01*
X306715Y2444D01*
X306781Y2521D01*
X307074Y3002D01*
X307089Y3042D01*
X307131Y3134D01*
X307274Y3678D01*
X307276Y3717D01*
X307289Y3771D01*
X307329Y4335D01*
X307327Y4346D01*
X307330Y4360D01*
X307349Y5491D01*
X307349Y5494D01*
X307349Y5499D01*
X307355Y10020D01*
X307355Y10021D01*
X307355Y10157D01*
X307353Y10165D01*
X307355Y10173D01*
X307334Y10262D01*
X307315Y10352D01*
X307310Y10359D01*
X307309Y10367D01*
X307255Y10440D01*
X307203Y10516D01*
X307196Y10520D01*
X307191Y10527D01*
X307112Y10573D01*
X307035Y10623D01*
X307027Y10624D01*
X307020Y10628D01*
X306856Y10656D01*
X305725Y10656D01*
X305681Y10647D01*
X305636Y10648D01*
X305585Y10627D01*
X305530Y10616D01*
X305493Y10591D01*
X305451Y10574D01*
X305412Y10535D01*
X305366Y10504D01*
X305342Y10466D01*
X305310Y10434D01*
X305282Y10372D01*
X305259Y10336D01*
X305255Y10312D01*
X305242Y10282D01*
X305127Y9838D01*
X305124Y9794D01*
X305111Y9703D01*
X305143Y8014D01*
X305138Y6331D01*
X305087Y4663D01*
X305034Y4188D01*
X304904Y3856D01*
X304673Y3676D01*
X304308Y3615D01*
X303859Y3658D01*
X303385Y3794D01*
X302900Y3990D01*
X302420Y4219D01*
X302110Y4397D01*
X302036Y4609D01*
X302074Y9044D01*
X302073Y9049D01*
X302074Y9055D01*
X302058Y10164D01*
X302057Y10169D01*
X302058Y10173D01*
X302036Y10266D01*
X302016Y10358D01*
X302013Y10362D01*
X302012Y10367D01*
X301956Y10443D01*
X301901Y10521D01*
X301897Y10523D01*
X301894Y10527D01*
X301812Y10575D01*
X301732Y10625D01*
X301727Y10626D01*
X301723Y10628D01*
X301559Y10656D01*
X300428Y10656D01*
X300349Y10640D01*
X300268Y10630D01*
X300252Y10620D01*
X300234Y10616D01*
X300167Y10571D01*
X300096Y10530D01*
X300085Y10515D01*
X300070Y10504D01*
X300026Y10436D01*
X299977Y10371D01*
X299972Y10350D01*
X299963Y10336D01*
X299955Y10292D01*
X299932Y10210D01*
X299877Y9700D01*
X299879Y9677D01*
X299874Y9647D01*
X299874Y2299D01*
X299888Y2233D01*
X299892Y2166D01*
X299907Y2137D01*
X299914Y2104D01*
X299952Y2049D01*
X299982Y1989D01*
X300008Y1968D01*
X300026Y1941D01*
X300083Y1904D01*
X300135Y1861D01*
X300170Y1849D01*
X300194Y1834D01*
X300234Y1827D01*
X300292Y1807D01*
X300777Y1727D01*
X300812Y1728D01*
X300858Y1720D01*
X301424Y1720D01*
X301460Y1727D01*
X301496Y1725D01*
X301556Y1747D01*
X301619Y1760D01*
X301649Y1780D01*
X301683Y1793D01*
X301730Y1836D01*
X301782Y1872D01*
X301802Y1903D01*
X301829Y1928D01*
X301865Y2002D01*
X301889Y2040D01*
X301892Y2057D01*
X301902Y2077D01*
X301969Y2303D01*
X301973Y2301D01*
X302478Y2048D01*
X302494Y2043D01*
X302511Y2032D01*
X303034Y1817D01*
X303053Y1814D01*
X303075Y1802D01*
X303615Y1634D01*
X303645Y1631D01*
X303685Y1618D01*
X304242Y1529D01*
X304277Y1530D01*
X304324Y1523D01*
X304888Y1526D01*
G37*
%LPC*%
G36*
X299362Y54846D02*
X299362Y54846D01*
X299331Y54993D01*
X298979Y57203D01*
X298966Y57239D01*
X298956Y57292D01*
X298784Y57778D01*
X298681Y58296D01*
X298669Y58325D01*
X298661Y58366D01*
X298482Y58869D01*
X298226Y59889D01*
X298127Y60422D01*
X298122Y60434D01*
X298121Y60449D01*
X297990Y60992D01*
X297984Y61005D01*
X297982Y61022D01*
X297486Y62633D01*
X297479Y62645D01*
X297475Y62663D01*
X297139Y63548D01*
X298284Y63151D01*
X298572Y63051D01*
X299574Y62599D01*
X299595Y62595D01*
X299620Y62582D01*
X300026Y62444D01*
X300103Y62434D01*
X300122Y62430D01*
X300206Y62372D01*
X300589Y62191D01*
X300599Y62189D01*
X300611Y62182D01*
X301111Y61976D01*
X302030Y61517D01*
X302312Y61230D01*
X302512Y60836D01*
X302666Y60338D01*
X302677Y60319D01*
X302683Y60292D01*
X302902Y59772D01*
X302908Y59763D01*
X302911Y59752D01*
X303395Y58731D01*
X303407Y58714D01*
X303417Y58689D01*
X303994Y57720D01*
X304006Y57707D01*
X304016Y57687D01*
X304342Y57226D01*
X304349Y57219D01*
X304355Y57208D01*
X304702Y56762D01*
X304713Y56753D01*
X304722Y56739D01*
X305469Y55891D01*
X305477Y55885D01*
X305484Y55875D01*
X305876Y55468D01*
X305886Y55462D01*
X305895Y55450D01*
X305989Y55362D01*
X305009Y55599D01*
X305005Y55599D01*
X305001Y55601D01*
X304450Y55723D01*
X304436Y55724D01*
X304418Y55730D01*
X303860Y55816D01*
X303846Y55816D01*
X303829Y55820D01*
X303267Y55872D01*
X303255Y55871D01*
X303241Y55873D01*
X302676Y55896D01*
X302661Y55893D01*
X302641Y55896D01*
X302077Y55879D01*
X302038Y55869D01*
X301978Y55866D01*
X301431Y55737D01*
X301404Y55725D01*
X301366Y55717D01*
X300847Y55518D01*
X300827Y55505D01*
X300798Y55496D01*
X299822Y54996D01*
X299408Y54845D01*
X299362Y54846D01*
G37*
%LPD*%
G36*
X312342Y1733D02*
X312342Y1733D01*
X312406Y1737D01*
X312443Y1754D01*
X312473Y1760D01*
X312506Y1782D01*
X312558Y1806D01*
X312895Y2033D01*
X312937Y2076D01*
X312986Y2112D01*
X313006Y2146D01*
X313035Y2175D01*
X313057Y2231D01*
X313087Y2283D01*
X313095Y2329D01*
X313107Y2360D01*
X313107Y2396D01*
X313115Y2447D01*
X313115Y13751D01*
X313113Y13759D01*
X313115Y13767D01*
X313094Y13856D01*
X313075Y13946D01*
X313071Y13953D01*
X313069Y13961D01*
X313015Y14034D01*
X312963Y14110D01*
X312956Y14114D01*
X312951Y14121D01*
X312873Y14167D01*
X312795Y14217D01*
X312787Y14218D01*
X312780Y14222D01*
X312616Y14250D01*
X311441Y14250D01*
X311351Y14232D01*
X311260Y14216D01*
X311254Y14212D01*
X311247Y14210D01*
X311170Y14158D01*
X311093Y14108D01*
X311089Y14102D01*
X311083Y14098D01*
X311033Y14020D01*
X310981Y13943D01*
X310979Y13936D01*
X310976Y13930D01*
X310970Y13895D01*
X310943Y13781D01*
X310910Y13249D01*
X310912Y13235D01*
X310909Y13218D01*
X310909Y2480D01*
X310916Y2449D01*
X310913Y2416D01*
X310935Y2352D01*
X310949Y2285D01*
X310967Y2259D01*
X310977Y2228D01*
X311036Y2158D01*
X311062Y2121D01*
X311073Y2114D01*
X311084Y2101D01*
X311389Y1840D01*
X311470Y1795D01*
X311549Y1748D01*
X311557Y1746D01*
X311562Y1743D01*
X311597Y1740D01*
X311713Y1720D01*
X312278Y1720D01*
X312342Y1733D01*
G37*
%LPC*%
G36*
X320833Y7049D02*
X320833Y7049D01*
X320309Y7115D01*
X319813Y7219D01*
X319369Y7385D01*
X318983Y7632D01*
X318660Y7952D01*
X318390Y8380D01*
X318363Y8409D01*
X318329Y8458D01*
X318326Y8462D01*
X318331Y8521D01*
X318342Y8561D01*
X318337Y8588D01*
X318341Y8624D01*
X318298Y9147D01*
X318337Y9611D01*
X318473Y10025D01*
X318715Y10386D01*
X319051Y10689D01*
X319448Y10922D01*
X319899Y11067D01*
X320395Y11151D01*
X321207Y11201D01*
X321242Y10240D01*
X321256Y8550D01*
X321266Y8501D01*
X321266Y8492D01*
X321256Y8434D01*
X321244Y7028D01*
X321236Y7024D01*
X320833Y7049D01*
G37*
%LPD*%
%LPC*%
G36*
X318732Y46412D02*
X318732Y46412D01*
X318729Y46415D01*
X318726Y46420D01*
X318403Y46882D01*
X318398Y46887D01*
X318394Y46894D01*
X317718Y47798D01*
X317704Y47811D01*
X317690Y47832D01*
X316938Y48673D01*
X316930Y48679D01*
X316923Y48690D01*
X316133Y49494D01*
X316120Y49502D01*
X316112Y49514D01*
X316039Y49558D01*
X316017Y49572D01*
X315790Y49832D01*
X315773Y49845D01*
X315757Y49866D01*
X315347Y50255D01*
X315335Y50262D01*
X315324Y50275D01*
X315224Y50359D01*
X315256Y50345D01*
X315708Y50095D01*
X316174Y49803D01*
X316185Y49799D01*
X316197Y49789D01*
X317164Y49252D01*
X317612Y48947D01*
X317647Y48933D01*
X317691Y48904D01*
X317887Y48817D01*
X317918Y48677D01*
X318551Y47126D01*
X318728Y46620D01*
X318829Y46267D01*
X318732Y46412D01*
G37*
%LPD*%
D10*
X306306Y182522D02*
X306306Y190318D01*
X304357Y192267D01*
X300459Y192267D01*
X298510Y190318D01*
X298510Y182522D01*
X300459Y180573D01*
X304357Y180573D01*
X306306Y182522D01*
X298510Y190318D01*
X294612Y182522D02*
X294612Y180573D01*
X294612Y182522D02*
X292663Y182522D01*
X292663Y180573D01*
X294612Y180573D01*
X288765Y182522D02*
X286816Y180573D01*
X282918Y180573D01*
X280969Y182522D01*
X280969Y190318D01*
X282918Y192267D01*
X286816Y192267D01*
X288765Y190318D01*
X288765Y188369D01*
X286816Y186420D01*
X280969Y186420D01*
X273173Y190318D02*
X269275Y192267D01*
X273173Y190318D02*
X277071Y186420D01*
X277071Y182522D01*
X275122Y180573D01*
X271224Y180573D01*
X269275Y182522D01*
X269275Y184471D01*
X271224Y186420D01*
X277071Y186420D01*
X263428Y190318D02*
X263428Y194216D01*
X263428Y190318D02*
X265377Y188369D01*
X259530Y190318D02*
X259530Y194216D01*
X259530Y190318D02*
X261479Y188369D01*
X241989Y192267D02*
X238091Y192267D01*
X241989Y192267D02*
X243938Y190318D01*
X243938Y182522D01*
X241989Y180573D01*
X238091Y180573D01*
X236142Y182522D01*
X236142Y190318D01*
X238091Y192267D01*
X232244Y192267D02*
X232244Y180573D01*
X224448Y180573D01*
X220550Y192267D02*
X212754Y192267D01*
X220550Y192267D02*
X220550Y180573D01*
X212754Y180573D01*
X216652Y186420D02*
X220550Y186420D01*
X208856Y192267D02*
X208856Y180573D01*
X203009Y180573D01*
X201060Y182522D01*
X201060Y190318D01*
X203009Y192267D01*
X208856Y192267D01*
X185468Y192267D02*
X185468Y180573D01*
X185468Y192267D02*
X177672Y192267D01*
X181570Y186420D02*
X185468Y186420D01*
X171825Y192267D02*
X167927Y192267D01*
X171825Y192267D02*
X173774Y190318D01*
X173774Y182522D01*
X171825Y180573D01*
X167927Y180573D01*
X165978Y182522D01*
X165978Y190318D01*
X167927Y192267D01*
X162080Y192267D02*
X162080Y180573D01*
X162080Y192267D02*
X156233Y192267D01*
X154284Y190318D01*
X154284Y186420D01*
X156233Y184471D01*
X162080Y184471D01*
X158182Y184471D02*
X154284Y180573D01*
X138692Y188369D02*
X134794Y192267D01*
X134794Y180573D01*
X138692Y180573D02*
X130896Y180573D01*
X126998Y182522D02*
X126998Y192267D01*
X126998Y182522D02*
X125049Y180573D01*
X121151Y180573D01*
X119202Y182522D01*
X119202Y192267D01*
X99712Y192267D02*
X99712Y180573D01*
X103610Y192267D02*
X95814Y192267D01*
X91916Y188369D02*
X89967Y188369D01*
X89967Y180573D01*
X91916Y180573D02*
X88018Y180573D01*
X89967Y192267D02*
X89967Y194216D01*
X84120Y192267D02*
X82171Y192267D01*
X82171Y180573D01*
X84120Y180573D02*
X80222Y180573D01*
X74375Y180573D02*
X70477Y180573D01*
X74375Y180573D02*
X76324Y182522D01*
X76324Y186420D01*
X74375Y188369D01*
X70477Y188369D01*
X68528Y186420D01*
X68528Y184471D01*
X76324Y184471D01*
X64630Y180573D02*
X58783Y180573D01*
X56834Y182522D01*
X58783Y184471D01*
X62681Y184471D01*
X64630Y186420D01*
X62681Y188369D01*
X56834Y188369D01*
D11*
X248000Y131000D02*
X248009Y131736D01*
X248036Y132472D01*
X248081Y133207D01*
X248144Y133941D01*
X248226Y134672D01*
X248325Y135402D01*
X248442Y136129D01*
X248576Y136853D01*
X248729Y137573D01*
X248899Y138289D01*
X249087Y139001D01*
X249292Y139709D01*
X249514Y140410D01*
X249754Y141107D01*
X250010Y141797D01*
X250284Y142481D01*
X250574Y143157D01*
X250880Y143827D01*
X251203Y144488D01*
X251542Y145142D01*
X251897Y145787D01*
X252268Y146423D01*
X252654Y147050D01*
X253056Y147667D01*
X253472Y148274D01*
X253904Y148871D01*
X254350Y149457D01*
X254810Y150032D01*
X255284Y150595D01*
X255771Y151147D01*
X256273Y151686D01*
X256787Y152213D01*
X257314Y152727D01*
X257853Y153229D01*
X258405Y153716D01*
X258968Y154190D01*
X259543Y154650D01*
X260129Y155096D01*
X260726Y155528D01*
X261333Y155944D01*
X261950Y156346D01*
X262577Y156732D01*
X263213Y157103D01*
X263858Y157458D01*
X264512Y157797D01*
X265173Y158120D01*
X265843Y158426D01*
X266519Y158716D01*
X267203Y158990D01*
X267893Y159246D01*
X268590Y159486D01*
X269291Y159708D01*
X269999Y159913D01*
X270711Y160101D01*
X271427Y160271D01*
X272147Y160424D01*
X272871Y160558D01*
X273598Y160675D01*
X274328Y160774D01*
X275059Y160856D01*
X275793Y160919D01*
X276528Y160964D01*
X277264Y160991D01*
X278000Y161000D01*
X278736Y160991D01*
X279472Y160964D01*
X280207Y160919D01*
X280941Y160856D01*
X281672Y160774D01*
X282402Y160675D01*
X283129Y160558D01*
X283853Y160424D01*
X284573Y160271D01*
X285289Y160101D01*
X286001Y159913D01*
X286709Y159708D01*
X287410Y159486D01*
X288107Y159246D01*
X288797Y158990D01*
X289481Y158716D01*
X290157Y158426D01*
X290827Y158120D01*
X291488Y157797D01*
X292142Y157458D01*
X292787Y157103D01*
X293423Y156732D01*
X294050Y156346D01*
X294667Y155944D01*
X295274Y155528D01*
X295871Y155096D01*
X296457Y154650D01*
X297032Y154190D01*
X297595Y153716D01*
X298147Y153229D01*
X298686Y152727D01*
X299213Y152213D01*
X299727Y151686D01*
X300229Y151147D01*
X300716Y150595D01*
X301190Y150032D01*
X301650Y149457D01*
X302096Y148871D01*
X302528Y148274D01*
X302944Y147667D01*
X303346Y147050D01*
X303732Y146423D01*
X304103Y145787D01*
X304458Y145142D01*
X304797Y144488D01*
X305120Y143827D01*
X305426Y143157D01*
X305716Y142481D01*
X305990Y141797D01*
X306246Y141107D01*
X306486Y140410D01*
X306708Y139709D01*
X306913Y139001D01*
X307101Y138289D01*
X307271Y137573D01*
X307424Y136853D01*
X307558Y136129D01*
X307675Y135402D01*
X307774Y134672D01*
X307856Y133941D01*
X307919Y133207D01*
X307964Y132472D01*
X307991Y131736D01*
X308000Y131000D01*
X307991Y130264D01*
X307964Y129528D01*
X307919Y128793D01*
X307856Y128059D01*
X307774Y127328D01*
X307675Y126598D01*
X307558Y125871D01*
X307424Y125147D01*
X307271Y124427D01*
X307101Y123711D01*
X306913Y122999D01*
X306708Y122291D01*
X306486Y121590D01*
X306246Y120893D01*
X305990Y120203D01*
X305716Y119519D01*
X305426Y118843D01*
X305120Y118173D01*
X304797Y117512D01*
X304458Y116858D01*
X304103Y116213D01*
X303732Y115577D01*
X303346Y114950D01*
X302944Y114333D01*
X302528Y113726D01*
X302096Y113129D01*
X301650Y112543D01*
X301190Y111968D01*
X300716Y111405D01*
X300229Y110853D01*
X299727Y110314D01*
X299213Y109787D01*
X298686Y109273D01*
X298147Y108771D01*
X297595Y108284D01*
X297032Y107810D01*
X296457Y107350D01*
X295871Y106904D01*
X295274Y106472D01*
X294667Y106056D01*
X294050Y105654D01*
X293423Y105268D01*
X292787Y104897D01*
X292142Y104542D01*
X291488Y104203D01*
X290827Y103880D01*
X290157Y103574D01*
X289481Y103284D01*
X288797Y103010D01*
X288107Y102754D01*
X287410Y102514D01*
X286709Y102292D01*
X286001Y102087D01*
X285289Y101899D01*
X284573Y101729D01*
X283853Y101576D01*
X283129Y101442D01*
X282402Y101325D01*
X281672Y101226D01*
X280941Y101144D01*
X280207Y101081D01*
X279472Y101036D01*
X278736Y101009D01*
X278000Y101000D01*
X277264Y101009D01*
X276528Y101036D01*
X275793Y101081D01*
X275059Y101144D01*
X274328Y101226D01*
X273598Y101325D01*
X272871Y101442D01*
X272147Y101576D01*
X271427Y101729D01*
X270711Y101899D01*
X269999Y102087D01*
X269291Y102292D01*
X268590Y102514D01*
X267893Y102754D01*
X267203Y103010D01*
X266519Y103284D01*
X265843Y103574D01*
X265173Y103880D01*
X264512Y104203D01*
X263858Y104542D01*
X263213Y104897D01*
X262577Y105268D01*
X261950Y105654D01*
X261333Y106056D01*
X260726Y106472D01*
X260129Y106904D01*
X259543Y107350D01*
X258968Y107810D01*
X258405Y108284D01*
X257853Y108771D01*
X257314Y109273D01*
X256787Y109787D01*
X256273Y110314D01*
X255771Y110853D01*
X255284Y111405D01*
X254810Y111968D01*
X254350Y112543D01*
X253904Y113129D01*
X253472Y113726D01*
X253056Y114333D01*
X252654Y114950D01*
X252268Y115577D01*
X251897Y116213D01*
X251542Y116858D01*
X251203Y117512D01*
X250880Y118173D01*
X250574Y118843D01*
X250284Y119519D01*
X250010Y120203D01*
X249754Y120893D01*
X249514Y121590D01*
X249292Y122291D01*
X249087Y122999D01*
X248899Y123711D01*
X248729Y124427D01*
X248576Y125147D01*
X248442Y125871D01*
X248325Y126598D01*
X248226Y127328D01*
X248144Y128059D01*
X248081Y128793D01*
X248036Y129528D01*
X248009Y130264D01*
X248000Y131000D01*
D10*
X44976Y57848D02*
X43027Y59797D01*
X44976Y57848D02*
X44976Y53950D01*
X43027Y52002D01*
X35231Y52002D01*
X33282Y53950D01*
X33282Y57848D01*
X35231Y59797D01*
X44976Y69542D02*
X43027Y71491D01*
X44976Y69542D02*
X44976Y65644D01*
X43027Y63695D01*
X35231Y63695D01*
X33282Y65644D01*
X33282Y69542D01*
X35231Y71491D01*
X39129Y75389D02*
X39129Y83185D01*
X33282Y87083D02*
X44976Y87083D01*
X44976Y92930D01*
X43027Y94879D01*
X41078Y94879D01*
X39129Y92930D01*
X37180Y94879D01*
X35231Y94879D01*
X33282Y92930D01*
X33282Y87083D01*
X39129Y87083D02*
X39129Y92930D01*
X43027Y98777D02*
X44976Y98777D01*
X43027Y98777D02*
X39129Y102675D01*
X43027Y106573D01*
X44976Y106573D01*
X39129Y102675D02*
X33282Y102675D01*
X39129Y110471D02*
X39129Y118267D01*
X44976Y128012D02*
X43027Y129961D01*
X44976Y128012D02*
X44976Y124114D01*
X43027Y122165D01*
X41078Y122165D01*
X39129Y124114D01*
X39129Y128012D01*
X37180Y129961D01*
X35231Y129961D01*
X33282Y128012D01*
X33282Y124114D01*
X35231Y122165D01*
X33282Y133859D02*
X41078Y133859D01*
X44976Y137757D01*
X41078Y141655D01*
X33282Y141655D01*
X39129Y141655D02*
X39129Y133859D01*
D11*
X286100Y89900D02*
X286100Y56900D01*
X63000Y60000D02*
X63000Y88000D01*
X240000Y8000D02*
X286000Y54000D01*
X240000Y8000D02*
X240000Y1000D01*
X286000Y54000D02*
X286000Y58000D01*
X63000Y59000D02*
X63000Y53000D01*
X107000Y9000D01*
X107000Y0D01*
D12*
X29327Y51630D02*
X27759Y53198D01*
X29327Y51630D02*
X29327Y48495D01*
X27759Y46927D01*
X26192Y46927D01*
X24624Y48495D01*
X24624Y51630D01*
X23056Y53198D01*
X21489Y53198D01*
X19921Y51630D01*
X19921Y48495D01*
X21489Y46927D01*
X19921Y56283D02*
X29327Y56283D01*
X26192Y57850D02*
X24624Y56283D01*
X26192Y57850D02*
X26192Y60986D01*
X24624Y62553D01*
X19921Y62553D01*
X26192Y67205D02*
X26192Y70341D01*
X24624Y71909D01*
X19921Y71909D01*
X19921Y67205D01*
X21489Y65638D01*
X23056Y67205D01*
X23056Y71909D01*
X21489Y74993D02*
X26192Y74993D01*
X21489Y74993D02*
X19921Y76561D01*
X19921Y81264D01*
X18353Y81264D02*
X26192Y81264D01*
X18353Y81264D02*
X16786Y79696D01*
X16786Y78128D01*
X29327Y98406D02*
X27759Y99974D01*
X29327Y98406D02*
X29327Y95271D01*
X27759Y93703D01*
X26192Y93703D01*
X24624Y95271D01*
X24624Y98406D01*
X23056Y99974D01*
X21489Y99974D01*
X19921Y98406D01*
X19921Y95271D01*
X21489Y93703D01*
X19921Y103059D02*
X29327Y103059D01*
X26192Y104626D02*
X24624Y103059D01*
X26192Y104626D02*
X26192Y107762D01*
X24624Y109329D01*
X19921Y109329D01*
X19921Y113981D02*
X19921Y117117D01*
X19921Y113981D02*
X21489Y112414D01*
X24624Y112414D01*
X26192Y113981D01*
X26192Y117117D01*
X24624Y118684D01*
X23056Y118684D01*
X23056Y112414D01*
X26192Y121769D02*
X26192Y128040D01*
X19921Y121769D01*
X19921Y128040D01*
X26192Y131124D02*
X26192Y132692D01*
X19921Y132692D01*
X19921Y134259D02*
X19921Y131124D01*
X29327Y132692D02*
X30895Y132692D01*
X27759Y138929D02*
X19921Y138929D01*
X27759Y138929D02*
X29327Y140496D01*
X24624Y140496D02*
X24624Y137361D01*
X26192Y143598D02*
X26192Y145165D01*
X19921Y145165D01*
X19921Y143598D02*
X19921Y146733D01*
X29327Y145165D02*
X30895Y145165D01*
X4681Y76569D02*
X7816Y73434D01*
X10952Y73434D01*
X14087Y76569D01*
X14087Y79671D02*
X4681Y79671D01*
X14087Y79671D02*
X14087Y84374D01*
X12519Y85941D01*
X9384Y85941D01*
X7816Y84374D01*
X7816Y79671D01*
X4681Y89026D02*
X14087Y89026D01*
X4681Y89026D02*
X4681Y95296D01*
X6249Y98381D02*
X14087Y98381D01*
X6249Y98381D02*
X4681Y99949D01*
X4681Y103084D01*
X6249Y104652D01*
X14087Y104652D01*
X14087Y107736D02*
X4681Y107736D01*
X10952Y110872D02*
X14087Y107736D01*
X10952Y110872D02*
X14087Y114007D01*
X4681Y114007D01*
X4681Y117091D02*
X7816Y120227D01*
X10952Y120227D01*
X14087Y117091D01*
X67756Y83886D02*
X70213Y81428D01*
X67756Y83886D02*
X75128Y83886D01*
X75128Y86343D02*
X75128Y81428D01*
X130756Y82886D02*
X133213Y80428D01*
X130756Y82886D02*
X138128Y82886D01*
X138128Y85343D02*
X138128Y80428D01*
X136899Y87913D02*
X131984Y87913D01*
X130756Y89141D01*
X130756Y91599D01*
X131984Y92827D01*
X136899Y92827D01*
X138128Y91599D01*
X138128Y89141D01*
X136899Y87913D01*
X131984Y92827D01*
X207628Y85343D02*
X207628Y80428D01*
X202713Y85343D01*
X201484Y85343D01*
X200256Y84115D01*
X200256Y81657D01*
X201484Y80428D01*
X201484Y87913D02*
X206399Y87913D01*
X201484Y87913D02*
X200256Y89141D01*
X200256Y91599D01*
X201484Y92827D01*
X206399Y92827D01*
X207628Y91599D01*
X207628Y89141D01*
X206399Y87913D01*
X201484Y92827D01*
X271756Y81657D02*
X272984Y80428D01*
X271756Y81657D02*
X271756Y84115D01*
X272984Y85343D01*
X274213Y85343D01*
X275442Y84115D01*
X275442Y82886D01*
X275442Y84115D02*
X276671Y85343D01*
X277899Y85343D01*
X279128Y84115D01*
X279128Y81657D01*
X277899Y80428D01*
X277899Y87913D02*
X272984Y87913D01*
X271756Y89141D01*
X271756Y91599D01*
X272984Y92827D01*
X277899Y92827D01*
X279128Y91599D01*
X279128Y89141D01*
X277899Y87913D01*
X272984Y92827D01*
D13*
X130350Y121700D02*
X117650Y121700D01*
X117650Y94300D01*
X130350Y94300D01*
X130350Y121700D01*
D10*
X119680Y111560D02*
X119680Y104440D01*
X128190Y104440D02*
X128190Y111560D01*
D14*
X123949Y113882D03*
X123949Y102198D03*
D12*
X128611Y92573D02*
X128611Y85201D01*
X128611Y92573D02*
X124925Y92573D01*
X123696Y91345D01*
X123696Y88887D01*
X124925Y87658D01*
X128611Y87658D01*
X126154Y87658D02*
X123696Y85201D01*
X121127Y85201D02*
X116212Y85201D01*
X121127Y85201D02*
X116212Y90116D01*
X116212Y91345D01*
X117441Y92573D01*
X119898Y92573D01*
X121127Y91345D01*
X137515Y100412D02*
X139973Y102870D01*
X132600Y102870D01*
X132600Y105327D02*
X132600Y100412D01*
X133829Y107896D02*
X138744Y107896D01*
X139973Y109125D01*
X139973Y111582D01*
X138744Y112811D01*
X133829Y112811D01*
X132600Y111582D01*
X132600Y109125D01*
X133829Y107896D01*
X138744Y112811D01*
X139973Y115380D02*
X132600Y115380D01*
X135058Y115380D02*
X139973Y120295D01*
X136286Y116609D02*
X132600Y120295D01*
D13*
X130350Y129300D02*
X117650Y129300D01*
X130350Y129300D02*
X130350Y156700D01*
X117650Y156700D01*
X117650Y129300D01*
D10*
X128320Y139440D02*
X128320Y146560D01*
X119810Y146560D02*
X119810Y139440D01*
D14*
X124051Y137119D03*
X124051Y148803D03*
D12*
X129524Y159727D02*
X129524Y167099D01*
X125838Y167099D01*
X124609Y165870D01*
X124609Y163413D01*
X125838Y162184D01*
X129524Y162184D01*
X127066Y162184D02*
X124609Y159727D01*
X118354Y159727D02*
X118354Y167099D01*
X122040Y163413D01*
X117125Y163413D01*
X139868Y134824D02*
X137411Y132366D01*
X139868Y134824D02*
X132496Y134824D01*
X132496Y137281D02*
X132496Y132366D01*
X133725Y139851D02*
X138639Y139851D01*
X139868Y141079D01*
X139868Y143537D01*
X138639Y144765D01*
X133725Y144765D01*
X132496Y143537D01*
X132496Y141079D01*
X133725Y139851D01*
X138639Y144765D01*
X139868Y147335D02*
X132496Y147335D01*
X134953Y147335D02*
X139868Y152250D01*
X136182Y148563D02*
X132496Y152250D01*
D13*
X158250Y129500D02*
X170950Y129500D01*
X170950Y156900D01*
X158250Y156900D01*
X158250Y129500D01*
D10*
X168920Y139640D02*
X168920Y146760D01*
X160410Y146760D02*
X160410Y139640D01*
D14*
X164651Y137319D03*
X164651Y149003D03*
D12*
X170986Y159075D02*
X170986Y166447D01*
X167300Y166447D01*
X166071Y165219D01*
X166071Y162761D01*
X167300Y161533D01*
X170986Y161533D01*
X168528Y161533D02*
X166071Y159075D01*
X163502Y166447D02*
X158587Y166447D01*
X163502Y166447D02*
X163502Y162761D01*
X161044Y163990D01*
X159816Y163990D01*
X158587Y162761D01*
X158587Y160304D01*
X159816Y159075D01*
X162273Y159075D01*
X163502Y160304D01*
X181013Y136443D02*
X178555Y133985D01*
X181013Y136443D02*
X173641Y136443D01*
X173641Y138900D02*
X173641Y133985D01*
X174869Y141470D02*
X179784Y141470D01*
X181013Y142698D01*
X181013Y145156D01*
X179784Y146384D01*
X174869Y146384D01*
X173641Y145156D01*
X173641Y142698D01*
X174869Y141470D01*
X179784Y146384D01*
X181013Y148954D02*
X173641Y148954D01*
X176098Y148954D02*
X181013Y153869D01*
X177327Y150182D02*
X173641Y153869D01*
D13*
X183650Y129300D02*
X196350Y129300D01*
X196350Y156700D01*
X183650Y156700D01*
X183650Y129300D01*
D10*
X194320Y139440D02*
X194320Y146560D01*
X185810Y146560D02*
X185810Y139440D01*
D14*
X190051Y137119D03*
X190051Y148803D03*
D12*
X195129Y159892D02*
X195129Y167264D01*
X191443Y167264D01*
X190214Y166036D01*
X190214Y163578D01*
X191443Y162349D01*
X195129Y162349D01*
X192671Y162349D02*
X190214Y159892D01*
X185187Y166036D02*
X182730Y167264D01*
X185187Y166036D02*
X187645Y163578D01*
X187645Y161121D01*
X186416Y159892D01*
X183959Y159892D01*
X182730Y161121D01*
X182730Y162349D01*
X183959Y163578D01*
X187645Y163578D01*
X205771Y141443D02*
X203313Y138985D01*
X205771Y141443D02*
X198399Y141443D01*
X198399Y143900D02*
X198399Y138985D01*
X199627Y146470D02*
X204542Y146470D01*
X205771Y147698D01*
X205771Y150156D01*
X204542Y151384D01*
X199627Y151384D01*
X198399Y150156D01*
X198399Y147698D01*
X199627Y146470D01*
X204542Y151384D01*
X205771Y153954D02*
X198399Y153954D01*
X200856Y153954D02*
X205771Y158869D01*
X202085Y155182D02*
X198399Y158869D01*
D13*
X196350Y122700D02*
X183650Y122700D01*
X183650Y95300D01*
X196350Y95300D01*
X196350Y122700D01*
D10*
X185680Y112560D02*
X185680Y105440D01*
X194190Y105440D02*
X194190Y112560D01*
D14*
X189949Y114882D03*
X189949Y103198D03*
D12*
X197154Y92638D02*
X197154Y85266D01*
X197154Y92638D02*
X193468Y92638D01*
X192239Y91409D01*
X192239Y88952D01*
X193468Y87723D01*
X197154Y87723D01*
X194697Y87723D02*
X192239Y85266D01*
X189670Y91409D02*
X188441Y92638D01*
X185984Y92638D01*
X184755Y91409D01*
X184755Y90181D01*
X185984Y88952D01*
X187212Y88952D01*
X185984Y88952D02*
X184755Y87723D01*
X184755Y86495D01*
X185984Y85266D01*
X188441Y85266D01*
X189670Y86495D01*
X204773Y97977D02*
X206001Y99206D01*
X206001Y101663D01*
X204773Y102892D01*
X203544Y102892D01*
X202315Y101663D01*
X202315Y100434D01*
X202315Y101663D02*
X201087Y102892D01*
X199858Y102892D01*
X198629Y101663D01*
X198629Y99206D01*
X199858Y97977D01*
X199858Y105461D02*
X198629Y106690D01*
X198629Y109147D01*
X199858Y110376D01*
X204773Y110376D01*
X206001Y109147D01*
X206001Y106690D01*
X204773Y105461D01*
X203544Y105461D01*
X202315Y106690D01*
X202315Y110376D01*
X199858Y112945D02*
X204773Y112945D01*
X206001Y114174D01*
X206001Y116631D01*
X204773Y117860D01*
X199858Y117860D01*
X198629Y116631D01*
X198629Y114174D01*
X199858Y112945D01*
X204773Y117860D01*
X206001Y120430D02*
X198629Y120430D01*
X201087Y120430D02*
X206001Y125344D01*
X202315Y121658D02*
X198629Y125344D01*
D13*
X73350Y121700D02*
X60650Y121700D01*
X60650Y94300D01*
X73350Y94300D01*
X73350Y121700D01*
D10*
X62680Y111560D02*
X62680Y104440D01*
X71190Y104440D02*
X71190Y111560D01*
D14*
X66949Y113882D03*
X66949Y102198D03*
D12*
X69646Y93330D02*
X68417Y92101D01*
X69646Y93330D02*
X72103Y93330D01*
X73332Y92101D01*
X73332Y87186D01*
X72103Y85958D01*
X69646Y85958D01*
X68417Y87186D01*
X65848Y92101D02*
X64619Y93330D01*
X62162Y93330D01*
X60933Y92101D01*
X60933Y90873D01*
X62162Y89644D01*
X63390Y89644D01*
X62162Y89644D02*
X60933Y88415D01*
X60933Y87186D01*
X62162Y85958D01*
X64619Y85958D01*
X65848Y87186D01*
X75234Y94348D02*
X75234Y99263D01*
X75234Y94348D02*
X80149Y99263D01*
X81378Y99263D01*
X82607Y98034D01*
X82607Y95576D01*
X81378Y94348D01*
X76463Y101832D02*
X75234Y101832D01*
X76463Y101832D02*
X76463Y103061D01*
X75234Y103061D01*
X75234Y101832D01*
X75234Y105574D02*
X75234Y110489D01*
X75234Y105574D02*
X80149Y110489D01*
X81378Y110489D01*
X82607Y109260D01*
X82607Y106803D01*
X81378Y105574D01*
X80149Y113058D02*
X76463Y113058D01*
X75234Y114287D01*
X75234Y117973D01*
X80149Y117973D01*
X82607Y120542D02*
X75234Y120542D01*
X82607Y120542D02*
X82607Y125457D01*
X78920Y123000D02*
X78920Y120542D01*
D13*
X91650Y121700D02*
X104350Y121700D01*
X91650Y121700D02*
X91650Y94300D01*
X104350Y94300D01*
X104350Y121700D01*
D10*
X93680Y111560D02*
X93680Y104440D01*
X102190Y104440D02*
X102190Y111560D01*
D14*
X97949Y113882D03*
X97949Y102198D03*
D12*
X100342Y92921D02*
X99113Y91692D01*
X100342Y92921D02*
X102799Y92921D01*
X104028Y91692D01*
X104028Y86777D01*
X102799Y85549D01*
X100342Y85549D01*
X99113Y86777D01*
X92857Y85549D02*
X92857Y92921D01*
X96544Y89235D01*
X91629Y89235D01*
X106574Y94949D02*
X106574Y99863D01*
X106574Y94949D02*
X111489Y99863D01*
X112717Y99863D01*
X113946Y98635D01*
X113946Y96177D01*
X112717Y94949D01*
X107803Y102433D02*
X106574Y102433D01*
X107803Y102433D02*
X107803Y103661D01*
X106574Y103661D01*
X106574Y102433D01*
X106574Y106175D02*
X106574Y111090D01*
X106574Y106175D02*
X111489Y111090D01*
X112717Y111090D01*
X113946Y109861D01*
X113946Y107403D01*
X112717Y106175D01*
X111489Y113659D02*
X107803Y113659D01*
X106574Y114888D01*
X106574Y118574D01*
X111489Y118574D01*
X113946Y121143D02*
X106574Y121143D01*
X113946Y121143D02*
X113946Y126058D01*
X110260Y123600D02*
X110260Y121143D01*
D13*
X211650Y122700D02*
X224350Y122700D01*
X211650Y122700D02*
X211650Y95300D01*
X224350Y95300D01*
X224350Y122700D01*
D10*
X213680Y112560D02*
X213680Y105440D01*
X222190Y105440D02*
X222190Y112560D01*
D14*
X217949Y114882D03*
X217949Y103198D03*
D12*
X221050Y92915D02*
X219822Y91686D01*
X221050Y92915D02*
X223508Y92915D01*
X224737Y91686D01*
X224737Y86771D01*
X223508Y85543D01*
X221050Y85543D01*
X219822Y86771D01*
X217252Y92915D02*
X212338Y92915D01*
X217252Y92915D02*
X217252Y89229D01*
X214795Y90457D01*
X213566Y90457D01*
X212338Y89229D01*
X212338Y86771D01*
X213566Y85543D01*
X216024Y85543D01*
X217252Y86771D01*
X232139Y97111D02*
X234596Y99568D01*
X227224Y99568D01*
X227224Y97111D02*
X227224Y102025D01*
X228453Y104595D02*
X233367Y104595D01*
X234596Y105823D01*
X234596Y108281D01*
X233367Y109510D01*
X228453Y109510D01*
X227224Y108281D01*
X227224Y105823D01*
X228453Y104595D01*
X233367Y109510D01*
X232139Y112079D02*
X228453Y112079D01*
X227224Y113308D01*
X227224Y116994D01*
X232139Y116994D01*
X234596Y119563D02*
X227224Y119563D01*
X234596Y119563D02*
X234596Y124478D01*
X230910Y122020D02*
X230910Y119563D01*
D13*
X104350Y129300D02*
X91650Y129300D01*
X104350Y129300D02*
X104350Y156700D01*
X91650Y156700D01*
X91650Y129300D01*
D10*
X102320Y139440D02*
X102320Y146560D01*
X93810Y146560D02*
X93810Y139440D01*
D14*
X98051Y137119D03*
X98051Y148803D03*
D12*
X97287Y165810D02*
X98516Y167039D01*
X100973Y167039D01*
X102202Y165810D01*
X102202Y160895D01*
X100973Y159667D01*
X98516Y159667D01*
X97287Y160895D01*
X94718Y167039D02*
X89803Y167039D01*
X89803Y165810D01*
X94718Y160895D01*
X94718Y159667D01*
X107482Y136726D02*
X107482Y131811D01*
X112397Y136726D01*
X113625Y136726D01*
X114854Y135497D01*
X114854Y133040D01*
X113625Y131811D01*
X108710Y139295D02*
X107482Y139295D01*
X108710Y139295D02*
X108710Y140524D01*
X107482Y140524D01*
X107482Y139295D01*
X107482Y143037D02*
X107482Y147952D01*
X107482Y143037D02*
X112397Y147952D01*
X113625Y147952D01*
X114854Y146723D01*
X114854Y144266D01*
X113625Y143037D01*
X112397Y150521D02*
X108710Y150521D01*
X107482Y151750D01*
X107482Y155436D01*
X112397Y155436D01*
X114854Y158006D02*
X107482Y158006D01*
X114854Y158006D02*
X114854Y162920D01*
X111168Y160463D02*
X111168Y158006D01*
D13*
X211650Y156700D02*
X224350Y156700D01*
X211650Y156700D02*
X211650Y129300D01*
X224350Y129300D01*
X224350Y156700D01*
D10*
X213680Y146560D02*
X213680Y139440D01*
X222190Y139440D02*
X222190Y146560D01*
D14*
X217949Y148882D03*
X217949Y137198D03*
D12*
X219179Y165949D02*
X220408Y167178D01*
X222865Y167178D01*
X224094Y165949D01*
X224094Y161034D01*
X222865Y159806D01*
X220408Y159806D01*
X219179Y161034D01*
X216610Y165949D02*
X215381Y167178D01*
X212924Y167178D01*
X211695Y165949D01*
X211695Y164721D01*
X212924Y163492D01*
X211695Y162263D01*
X211695Y161034D01*
X212924Y159806D01*
X215381Y159806D01*
X216610Y161034D01*
X216610Y162263D01*
X215381Y163492D01*
X216610Y164721D01*
X216610Y165949D01*
X215381Y163492D02*
X212924Y163492D01*
X227576Y134822D02*
X227576Y129907D01*
X232491Y134822D01*
X233719Y134822D01*
X234948Y133593D01*
X234948Y131136D01*
X233719Y129907D01*
X228805Y137391D02*
X227576Y137391D01*
X228805Y137391D02*
X228805Y138620D01*
X227576Y138620D01*
X227576Y137391D01*
X227576Y141133D02*
X227576Y146048D01*
X227576Y141133D02*
X232491Y146048D01*
X233719Y146048D01*
X234948Y144819D01*
X234948Y142362D01*
X233719Y141133D01*
X232491Y148617D02*
X228805Y148617D01*
X227576Y149846D01*
X227576Y153532D01*
X232491Y153532D01*
X234948Y156102D02*
X227576Y156102D01*
X234948Y156102D02*
X234948Y161016D01*
X231262Y158559D02*
X231262Y156102D01*
D13*
X73350Y129300D02*
X60650Y129300D01*
X73350Y129300D02*
X73350Y156700D01*
X60650Y156700D01*
X60650Y129300D01*
D10*
X71320Y139440D02*
X71320Y146560D01*
X62810Y146560D02*
X62810Y139440D01*
D14*
X67051Y137119D03*
X67051Y148803D03*
D12*
X68116Y166099D02*
X69345Y167328D01*
X71802Y167328D01*
X73031Y166099D01*
X73031Y161184D01*
X71802Y159956D01*
X69345Y159956D01*
X68116Y161184D01*
X63089Y166099D02*
X60632Y167328D01*
X63089Y166099D02*
X65547Y163642D01*
X65547Y161184D01*
X64318Y159956D01*
X61861Y159956D01*
X60632Y161184D01*
X60632Y162413D01*
X61861Y163642D01*
X65547Y163642D01*
X76220Y134887D02*
X76220Y129972D01*
X81134Y134887D01*
X82363Y134887D01*
X83592Y133658D01*
X83592Y131201D01*
X82363Y129972D01*
X77448Y137456D02*
X76220Y137456D01*
X77448Y137456D02*
X77448Y138685D01*
X76220Y138685D01*
X76220Y137456D01*
X76220Y141199D02*
X76220Y146113D01*
X76220Y141199D02*
X81134Y146113D01*
X82363Y146113D01*
X83592Y144885D01*
X83592Y142427D01*
X82363Y141199D01*
X81134Y148683D02*
X77448Y148683D01*
X76220Y149911D01*
X76220Y153598D01*
X81134Y153598D01*
X83592Y156167D02*
X76220Y156167D01*
X83592Y156167D02*
X83592Y161082D01*
X79906Y158624D02*
X79906Y156167D01*
D15*
X0Y0D02*
X350000Y0D01*
X350000Y195000D01*
X0Y195000D01*
X0Y0D01*
X97009Y21230D02*
X96932Y20844D01*
X96781Y20480D01*
X96563Y20152D01*
X96284Y19874D01*
X95956Y19655D01*
X95592Y19504D01*
X95206Y19427D01*
X94812Y19427D01*
X94426Y19504D01*
X94062Y19655D01*
X93734Y19874D01*
X93456Y20152D01*
X93237Y20480D01*
X93086Y20844D01*
X93009Y21230D01*
X93009Y21624D01*
X93086Y22011D01*
X93237Y22375D01*
X93456Y22702D01*
X93734Y22981D01*
X94062Y23200D01*
X94426Y23351D01*
X94812Y23427D01*
X95206Y23427D01*
X95592Y23351D01*
X95956Y23200D01*
X96284Y22981D01*
X96563Y22702D01*
X96781Y22375D01*
X96932Y22011D01*
X97009Y21624D01*
X97009Y21230D01*
X257009Y21230D02*
X256932Y20844D01*
X256781Y20480D01*
X256563Y20152D01*
X256284Y19874D01*
X255956Y19655D01*
X255592Y19504D01*
X255206Y19427D01*
X254812Y19427D01*
X254426Y19504D01*
X254062Y19655D01*
X253734Y19874D01*
X253456Y20152D01*
X253237Y20480D01*
X253086Y20844D01*
X253009Y21230D01*
X253009Y21624D01*
X253086Y22011D01*
X253237Y22375D01*
X253456Y22702D01*
X253734Y22981D01*
X254062Y23200D01*
X254426Y23351D01*
X254812Y23427D01*
X255206Y23427D01*
X255592Y23351D01*
X255956Y23200D01*
X256284Y22981D01*
X256563Y22702D01*
X256781Y22375D01*
X256932Y22011D01*
X257009Y21624D01*
X257009Y21230D01*
M02*
