G04 EAGLE Gerber RS-274X export*
G75*
%MOMM*%
%FSLAX34Y34*%
%LPD*%
%INSoldermask Bottom*%
%IPPOS*%
%AMOC8*
5,1,8,0,0,1.08239X$1,22.5*%
G01*
%ADD10R,0.756400X2.606400*%
%ADD11C,0.806400*%
%ADD12R,1.306400X1.306400*%
%ADD13C,2.082800*%
%ADD14C,4.422400*%
%ADD15C,0.254000*%


D10*
X73509Y63927D03*
X80509Y63927D03*
X87509Y63927D03*
X94509Y63927D03*
X101509Y63927D03*
X108509Y63927D03*
X115509Y63927D03*
X122509Y63927D03*
X129509Y63927D03*
X136509Y63927D03*
X143509Y63927D03*
X150509Y63927D03*
X157509Y63927D03*
X164509Y63927D03*
X171509Y63927D03*
X178509Y63927D03*
X185509Y63927D03*
X192509Y63927D03*
X199509Y63927D03*
X206509Y63927D03*
X213509Y63927D03*
X220509Y63927D03*
X227509Y63927D03*
X234509Y63927D03*
X241509Y63927D03*
X248509Y63927D03*
X255509Y63927D03*
X262509Y63927D03*
X269509Y63927D03*
X276509Y63927D03*
D11*
X95009Y21427D03*
X255009Y21427D03*
D12*
X124000Y115500D03*
X124000Y100500D03*
X124000Y135500D03*
X124000Y150500D03*
X164600Y135700D03*
X164600Y150700D03*
X190000Y135500D03*
X190000Y150500D03*
X190000Y116500D03*
X190000Y101500D03*
X67000Y115500D03*
X67000Y100500D03*
X98000Y115500D03*
X98000Y100500D03*
X218000Y116500D03*
X218000Y101500D03*
X98000Y135500D03*
X98000Y150500D03*
X218000Y150500D03*
X218000Y135500D03*
X67000Y135500D03*
X67000Y150500D03*
D13*
X336663Y23450D03*
X336663Y48850D03*
X336663Y74250D03*
X336663Y99650D03*
X336663Y125050D03*
X336663Y150450D03*
X336663Y175850D03*
D14*
X21000Y23000D03*
X20000Y171000D03*
D15*
X0Y0D02*
X350000Y0D01*
X350000Y195000D01*
X0Y195000D01*
X0Y0D01*
M02*
