G04 EAGLE Gerber RS-274X export*
G75*
%MOMM*%
%FSLAX34Y34*%
%LPD*%
%INBottom Copper*%
%IPPOS*%
%AMOC8*
5,1,8,0,0,1.08239X$1,22.5*%
G01*
%ADD10C,1.524000*%
%ADD11C,1.650000*%
%ADD12C,1.524000*%
%ADD13R,1.650000X1.650000*%
%ADD14C,1.473200*%
%ADD15C,0.806400*%
%ADD16C,4.016000*%
%ADD17C,1.006400*%
%ADD18C,0.856400*%
%ADD19C,0.254000*%
%ADD20C,0.406400*%
%ADD21C,0.508000*%
%ADD22C,0.304800*%
%ADD23C,0.076200*%
%ADD24C,0.254000*%

G36*
X693967Y5092D02*
X693967Y5092D01*
X694039Y5094D01*
X694088Y5112D01*
X694139Y5120D01*
X694202Y5154D01*
X694270Y5179D01*
X694310Y5211D01*
X694356Y5236D01*
X694406Y5288D01*
X694462Y5332D01*
X694490Y5376D01*
X694526Y5414D01*
X694556Y5479D01*
X694595Y5539D01*
X694607Y5590D01*
X694629Y5637D01*
X694637Y5708D01*
X694655Y5778D01*
X694651Y5830D01*
X694656Y5881D01*
X694641Y5952D01*
X694636Y6023D01*
X694615Y6071D01*
X694604Y6122D01*
X694567Y6183D01*
X694539Y6249D01*
X694495Y6305D01*
X694478Y6333D01*
X694460Y6348D01*
X694435Y6380D01*
X692696Y8118D01*
X688610Y12204D01*
X688537Y12257D01*
X688467Y12317D01*
X688437Y12329D01*
X688411Y12348D01*
X688324Y12375D01*
X688239Y12409D01*
X688198Y12413D01*
X688176Y12420D01*
X688143Y12419D01*
X688072Y12427D01*
X686494Y12427D01*
X683710Y13580D01*
X681580Y15710D01*
X680427Y18494D01*
X680427Y21506D01*
X681580Y24290D01*
X683418Y26128D01*
X683460Y26186D01*
X683510Y26238D01*
X683531Y26285D01*
X683562Y26327D01*
X683583Y26396D01*
X683613Y26461D01*
X683619Y26513D01*
X683634Y26563D01*
X683632Y26634D01*
X683640Y26705D01*
X683629Y26756D01*
X683628Y26808D01*
X683603Y26876D01*
X683588Y26946D01*
X683561Y26991D01*
X683543Y27039D01*
X683499Y27095D01*
X683462Y27157D01*
X683422Y27191D01*
X683390Y27231D01*
X683329Y27270D01*
X683275Y27317D01*
X683227Y27336D01*
X683183Y27364D01*
X683113Y27382D01*
X683047Y27409D01*
X682975Y27417D01*
X682944Y27425D01*
X682921Y27423D01*
X682880Y27427D01*
X681209Y27427D01*
X681119Y27413D01*
X681028Y27405D01*
X680999Y27393D01*
X680967Y27388D01*
X680886Y27345D01*
X680802Y27309D01*
X680770Y27283D01*
X680749Y27272D01*
X680727Y27249D01*
X680671Y27204D01*
X671894Y18427D01*
X660038Y18427D01*
X659948Y18413D01*
X659857Y18405D01*
X659827Y18393D01*
X659795Y18388D01*
X659714Y18345D01*
X659631Y18309D01*
X659598Y18283D01*
X659578Y18272D01*
X659556Y18249D01*
X659500Y18204D01*
X658723Y17428D01*
X656307Y16427D01*
X653693Y16427D01*
X651277Y17428D01*
X649428Y19277D01*
X648427Y21693D01*
X648427Y24307D01*
X649428Y26723D01*
X651277Y28572D01*
X653693Y29573D01*
X656307Y29573D01*
X658723Y28572D01*
X659500Y27796D01*
X659574Y27743D01*
X659643Y27683D01*
X659673Y27671D01*
X659699Y27652D01*
X659786Y27625D01*
X659871Y27591D01*
X659912Y27587D01*
X659934Y27580D01*
X659967Y27581D01*
X660038Y27573D01*
X667791Y27573D01*
X667881Y27587D01*
X667972Y27595D01*
X668001Y27607D01*
X668033Y27612D01*
X668114Y27655D01*
X668198Y27691D01*
X668230Y27717D01*
X668251Y27728D01*
X668273Y27751D01*
X668329Y27796D01*
X677106Y36573D01*
X694894Y36573D01*
X707671Y23796D01*
X707745Y23743D01*
X707815Y23683D01*
X707845Y23671D01*
X707871Y23652D01*
X707958Y23625D01*
X708043Y23591D01*
X708084Y23587D01*
X708106Y23580D01*
X708138Y23581D01*
X708209Y23573D01*
X1066791Y23573D01*
X1066881Y23587D01*
X1066972Y23595D01*
X1067001Y23607D01*
X1067033Y23612D01*
X1067114Y23655D01*
X1067198Y23691D01*
X1067230Y23717D01*
X1067251Y23728D01*
X1067273Y23751D01*
X1067329Y23796D01*
X1073204Y29671D01*
X1073247Y29731D01*
X1073288Y29774D01*
X1073295Y29789D01*
X1073317Y29815D01*
X1073329Y29845D01*
X1073348Y29871D01*
X1073375Y29958D01*
X1073382Y29975D01*
X1073392Y29997D01*
X1073392Y30002D01*
X1073409Y30043D01*
X1073413Y30084D01*
X1073420Y30106D01*
X1073419Y30138D01*
X1073427Y30209D01*
X1073427Y174548D01*
X1073413Y174638D01*
X1073405Y174729D01*
X1073393Y174759D01*
X1073388Y174791D01*
X1073345Y174871D01*
X1073309Y174955D01*
X1073283Y174987D01*
X1073272Y175008D01*
X1073249Y175030D01*
X1073204Y175086D01*
X1071580Y176710D01*
X1070427Y179494D01*
X1070427Y182506D01*
X1071580Y185290D01*
X1073710Y187420D01*
X1076494Y188573D01*
X1078791Y188573D01*
X1078881Y188587D01*
X1078972Y188595D01*
X1079001Y188607D01*
X1079033Y188612D01*
X1079114Y188655D01*
X1079198Y188691D01*
X1079230Y188717D01*
X1079251Y188728D01*
X1079273Y188751D01*
X1079329Y188796D01*
X1096106Y205573D01*
X1210894Y205573D01*
X1237573Y178894D01*
X1237573Y124209D01*
X1237587Y124119D01*
X1237595Y124028D01*
X1237607Y123999D01*
X1237612Y123967D01*
X1237655Y123886D01*
X1237691Y123802D01*
X1237717Y123770D01*
X1237728Y123749D01*
X1237751Y123727D01*
X1237796Y123671D01*
X1251671Y109796D01*
X1251745Y109743D01*
X1251815Y109683D01*
X1251845Y109671D01*
X1251871Y109652D01*
X1251958Y109625D01*
X1252043Y109591D01*
X1252084Y109587D01*
X1252106Y109580D01*
X1252138Y109581D01*
X1252209Y109573D01*
X1269791Y109573D01*
X1269881Y109587D01*
X1269972Y109595D01*
X1270001Y109607D01*
X1270033Y109612D01*
X1270114Y109655D01*
X1270198Y109691D01*
X1270230Y109717D01*
X1270251Y109728D01*
X1270273Y109751D01*
X1270329Y109796D01*
X1272927Y112393D01*
X1272980Y112467D01*
X1273039Y112537D01*
X1273051Y112567D01*
X1273070Y112593D01*
X1273097Y112680D01*
X1273131Y112765D01*
X1273136Y112806D01*
X1273143Y112828D01*
X1273142Y112860D01*
X1273150Y112932D01*
X1273150Y114939D01*
X1274150Y117355D01*
X1275999Y119204D01*
X1278415Y120205D01*
X1280423Y120205D01*
X1280513Y120219D01*
X1280604Y120227D01*
X1280633Y120239D01*
X1280665Y120244D01*
X1280746Y120287D01*
X1280830Y120323D01*
X1280862Y120349D01*
X1280883Y120360D01*
X1280905Y120383D01*
X1280961Y120428D01*
X1285704Y125171D01*
X1285757Y125245D01*
X1285817Y125315D01*
X1285829Y125345D01*
X1285848Y125371D01*
X1285875Y125458D01*
X1285909Y125543D01*
X1285913Y125584D01*
X1285920Y125606D01*
X1285919Y125638D01*
X1285927Y125709D01*
X1285927Y147394D01*
X1324106Y185573D01*
X1407202Y185573D01*
X1420671Y172104D01*
X1420745Y172051D01*
X1420815Y171991D01*
X1420845Y171979D01*
X1420871Y171960D01*
X1420958Y171933D01*
X1421043Y171899D01*
X1421084Y171895D01*
X1421106Y171888D01*
X1421138Y171889D01*
X1421209Y171881D01*
X1421509Y171881D01*
X1421599Y171895D01*
X1421690Y171903D01*
X1421720Y171915D01*
X1421752Y171920D01*
X1421832Y171963D01*
X1421916Y171999D01*
X1421948Y172025D01*
X1421969Y172036D01*
X1421991Y172059D01*
X1422047Y172104D01*
X1428952Y179009D01*
X1428979Y179046D01*
X1429013Y179077D01*
X1429051Y179145D01*
X1429096Y179209D01*
X1429109Y179252D01*
X1429132Y179293D01*
X1429145Y179369D01*
X1429168Y179444D01*
X1429167Y179489D01*
X1429175Y179535D01*
X1429164Y179612D01*
X1429162Y179690D01*
X1429146Y179733D01*
X1429139Y179778D01*
X1429104Y179847D01*
X1429077Y179921D01*
X1429049Y179956D01*
X1429028Y179997D01*
X1428972Y180052D01*
X1428924Y180113D01*
X1428885Y180137D01*
X1428852Y180170D01*
X1428733Y180235D01*
X1428717Y180246D01*
X1428712Y180247D01*
X1428705Y180250D01*
X1428277Y180428D01*
X1426428Y182277D01*
X1425442Y184658D01*
X1425417Y184697D01*
X1425402Y184740D01*
X1425353Y184801D01*
X1425312Y184867D01*
X1425277Y184896D01*
X1425248Y184932D01*
X1425183Y184974D01*
X1425123Y185024D01*
X1425080Y185040D01*
X1425041Y185065D01*
X1424966Y185084D01*
X1424893Y185112D01*
X1424847Y185114D01*
X1424803Y185125D01*
X1424725Y185119D01*
X1424647Y185122D01*
X1424603Y185110D01*
X1424557Y185106D01*
X1424486Y185075D01*
X1424411Y185054D01*
X1424373Y185028D01*
X1424331Y185010D01*
X1424224Y184924D01*
X1424209Y184914D01*
X1424206Y184910D01*
X1424200Y184905D01*
X1423723Y184428D01*
X1421307Y183427D01*
X1418693Y183427D01*
X1416277Y184428D01*
X1414428Y186277D01*
X1413427Y188693D01*
X1413427Y191307D01*
X1414428Y193723D01*
X1415119Y194415D01*
X1415131Y194431D01*
X1415147Y194443D01*
X1415203Y194531D01*
X1415263Y194614D01*
X1415269Y194633D01*
X1415280Y194650D01*
X1415305Y194751D01*
X1415335Y194850D01*
X1415335Y194869D01*
X1415340Y194889D01*
X1415332Y194992D01*
X1415329Y195095D01*
X1415322Y195114D01*
X1415321Y195134D01*
X1415280Y195229D01*
X1415245Y195326D01*
X1415232Y195342D01*
X1415224Y195360D01*
X1415119Y195491D01*
X1406644Y203966D01*
X1406571Y204019D01*
X1406501Y204079D01*
X1406471Y204091D01*
X1406445Y204110D01*
X1406358Y204137D01*
X1406273Y204171D01*
X1406232Y204175D01*
X1406210Y204182D01*
X1406177Y204181D01*
X1406106Y204189D01*
X1321800Y204189D01*
X1321710Y204175D01*
X1321619Y204167D01*
X1321589Y204155D01*
X1321557Y204150D01*
X1321476Y204107D01*
X1321392Y204071D01*
X1321360Y204045D01*
X1321340Y204034D01*
X1321318Y204011D01*
X1321262Y203966D01*
X1319723Y202428D01*
X1317307Y201427D01*
X1314693Y201427D01*
X1312277Y202428D01*
X1310428Y204277D01*
X1309427Y206693D01*
X1309427Y207200D01*
X1309416Y207271D01*
X1309414Y207343D01*
X1309396Y207392D01*
X1309388Y207443D01*
X1309354Y207506D01*
X1309329Y207574D01*
X1309297Y207614D01*
X1309272Y207660D01*
X1309220Y207710D01*
X1309176Y207766D01*
X1309132Y207794D01*
X1309094Y207830D01*
X1309029Y207860D01*
X1308969Y207899D01*
X1308918Y207911D01*
X1308871Y207933D01*
X1308800Y207941D01*
X1308730Y207959D01*
X1308678Y207955D01*
X1308627Y207960D01*
X1308556Y207945D01*
X1308485Y207940D01*
X1308437Y207919D01*
X1308386Y207908D01*
X1308325Y207871D01*
X1308259Y207843D01*
X1308203Y207799D01*
X1308175Y207782D01*
X1308160Y207764D01*
X1308128Y207739D01*
X1293578Y193189D01*
X1274338Y193189D01*
X1274267Y193178D01*
X1274196Y193176D01*
X1274147Y193158D01*
X1274095Y193150D01*
X1274032Y193116D01*
X1273965Y193091D01*
X1273924Y193059D01*
X1273878Y193034D01*
X1273829Y192982D01*
X1273773Y192938D01*
X1273744Y192894D01*
X1273708Y192856D01*
X1273678Y192791D01*
X1273640Y192731D01*
X1273627Y192680D01*
X1273605Y192633D01*
X1273597Y192562D01*
X1273579Y192492D01*
X1273584Y192440D01*
X1273578Y192389D01*
X1273593Y192318D01*
X1273599Y192247D01*
X1273619Y192199D01*
X1273630Y192148D01*
X1273667Y192087D01*
X1273695Y192021D01*
X1273740Y191965D01*
X1273756Y191937D01*
X1273774Y191922D01*
X1273800Y191890D01*
X1276234Y189456D01*
X1277781Y185721D01*
X1277781Y181679D01*
X1276234Y177944D01*
X1273376Y175086D01*
X1269641Y173539D01*
X1250359Y173539D01*
X1246624Y175086D01*
X1243766Y177944D01*
X1242219Y181679D01*
X1242219Y185721D01*
X1243766Y189456D01*
X1246200Y191890D01*
X1246242Y191948D01*
X1246292Y192000D01*
X1246313Y192047D01*
X1246344Y192089D01*
X1246365Y192158D01*
X1246395Y192223D01*
X1246401Y192275D01*
X1246416Y192325D01*
X1246414Y192396D01*
X1246422Y192467D01*
X1246411Y192518D01*
X1246410Y192570D01*
X1246385Y192638D01*
X1246370Y192708D01*
X1246343Y192753D01*
X1246325Y192801D01*
X1246281Y192857D01*
X1246244Y192919D01*
X1246204Y192953D01*
X1246172Y192993D01*
X1246111Y193032D01*
X1246057Y193079D01*
X1246009Y193098D01*
X1245965Y193126D01*
X1245895Y193144D01*
X1245829Y193171D01*
X1245757Y193179D01*
X1245726Y193187D01*
X1245703Y193185D01*
X1245662Y193189D01*
X1238800Y193189D01*
X1238710Y193175D01*
X1238619Y193167D01*
X1238589Y193155D01*
X1238557Y193150D01*
X1238476Y193107D01*
X1238393Y193071D01*
X1238360Y193045D01*
X1238340Y193034D01*
X1238318Y193011D01*
X1238262Y192966D01*
X1236723Y191428D01*
X1234307Y190427D01*
X1231693Y190427D01*
X1229277Y191428D01*
X1227428Y193277D01*
X1226427Y195693D01*
X1226427Y198307D01*
X1227428Y200723D01*
X1229277Y202572D01*
X1231693Y203573D01*
X1234307Y203573D01*
X1236723Y202572D01*
X1238262Y201034D01*
X1238336Y200981D01*
X1238405Y200921D01*
X1238435Y200909D01*
X1238461Y200890D01*
X1238548Y200863D01*
X1238633Y200829D01*
X1238674Y200825D01*
X1238696Y200818D01*
X1238729Y200819D01*
X1238800Y200811D01*
X1244462Y200811D01*
X1244533Y200822D01*
X1244604Y200824D01*
X1244653Y200842D01*
X1244705Y200850D01*
X1244768Y200884D01*
X1244835Y200909D01*
X1244876Y200941D01*
X1244922Y200966D01*
X1244971Y201018D01*
X1245027Y201062D01*
X1245056Y201106D01*
X1245092Y201144D01*
X1245122Y201209D01*
X1245160Y201269D01*
X1245173Y201320D01*
X1245195Y201367D01*
X1245203Y201438D01*
X1245221Y201508D01*
X1245216Y201560D01*
X1245222Y201611D01*
X1245207Y201682D01*
X1245201Y201753D01*
X1245181Y201801D01*
X1245170Y201852D01*
X1245133Y201913D01*
X1245105Y201979D01*
X1245060Y202035D01*
X1245044Y202063D01*
X1245026Y202078D01*
X1245000Y202110D01*
X1243766Y203344D01*
X1242219Y207079D01*
X1242219Y207428D01*
X1242216Y207448D01*
X1242218Y207467D01*
X1242196Y207569D01*
X1242180Y207671D01*
X1242170Y207688D01*
X1242166Y207708D01*
X1242113Y207797D01*
X1242064Y207888D01*
X1242050Y207902D01*
X1242040Y207919D01*
X1241961Y207986D01*
X1241886Y208058D01*
X1241868Y208066D01*
X1241853Y208079D01*
X1241757Y208118D01*
X1241663Y208161D01*
X1241643Y208163D01*
X1241625Y208171D01*
X1241458Y208189D01*
X955800Y208189D01*
X955710Y208175D01*
X955619Y208167D01*
X955589Y208155D01*
X955557Y208150D01*
X955476Y208107D01*
X955393Y208071D01*
X955360Y208045D01*
X955340Y208034D01*
X955318Y208011D01*
X955262Y207966D01*
X953723Y206428D01*
X951307Y205427D01*
X948693Y205427D01*
X946277Y206428D01*
X944428Y208277D01*
X943427Y210693D01*
X943427Y213307D01*
X944428Y215723D01*
X946277Y217572D01*
X948408Y218455D01*
X948491Y218506D01*
X948577Y218552D01*
X948594Y218570D01*
X948617Y218584D01*
X948679Y218660D01*
X948746Y218730D01*
X948757Y218754D01*
X948774Y218774D01*
X948808Y218865D01*
X948850Y218953D01*
X948852Y218979D01*
X948862Y219003D01*
X948866Y219101D01*
X948877Y219197D01*
X948871Y219223D01*
X948872Y219249D01*
X948845Y219343D01*
X948824Y219438D01*
X948811Y219460D01*
X948804Y219485D01*
X948748Y219565D01*
X948698Y219649D01*
X948678Y219666D01*
X948663Y219687D01*
X948585Y219746D01*
X948511Y219809D01*
X948487Y219819D01*
X948466Y219834D01*
X948374Y219864D01*
X948283Y219901D01*
X948251Y219904D01*
X948232Y219910D01*
X948199Y219910D01*
X948116Y219919D01*
X858308Y219919D01*
X858237Y219908D01*
X858165Y219906D01*
X858116Y219888D01*
X858065Y219880D01*
X858002Y219846D01*
X857934Y219821D01*
X857894Y219789D01*
X857848Y219764D01*
X857798Y219712D01*
X857742Y219668D01*
X857714Y219624D01*
X857678Y219586D01*
X857648Y219521D01*
X857609Y219461D01*
X857597Y219410D01*
X857575Y219363D01*
X857567Y219292D01*
X857549Y219222D01*
X857553Y219170D01*
X857548Y219119D01*
X857563Y219048D01*
X857568Y218977D01*
X857589Y218929D01*
X857600Y218878D01*
X857637Y218817D01*
X857665Y218751D01*
X857709Y218695D01*
X857726Y218667D01*
X857744Y218652D01*
X857769Y218620D01*
X872711Y203678D01*
X872711Y200353D01*
X872730Y200238D01*
X872747Y200122D01*
X872749Y200117D01*
X872750Y200110D01*
X872805Y200008D01*
X872858Y199903D01*
X872863Y199899D01*
X872866Y199893D01*
X872950Y199813D01*
X873034Y199731D01*
X873040Y199727D01*
X873044Y199724D01*
X873061Y199716D01*
X873181Y199650D01*
X874512Y199099D01*
X877299Y196312D01*
X878807Y192671D01*
X878807Y188729D01*
X877299Y185088D01*
X874512Y182301D01*
X870871Y180793D01*
X866929Y180793D01*
X863288Y182301D01*
X860501Y185088D01*
X858993Y188729D01*
X858993Y192671D01*
X860501Y196312D01*
X863288Y199099D01*
X864515Y199607D01*
X864554Y199631D01*
X864598Y199647D01*
X864658Y199695D01*
X864724Y199736D01*
X864754Y199772D01*
X864790Y199800D01*
X864832Y199866D01*
X864881Y199926D01*
X864898Y199969D01*
X864923Y200007D01*
X864942Y200083D01*
X864969Y200156D01*
X864971Y200201D01*
X864983Y200246D01*
X864977Y200323D01*
X864980Y200401D01*
X864967Y200445D01*
X864964Y200491D01*
X864933Y200563D01*
X864911Y200637D01*
X864885Y200675D01*
X864867Y200717D01*
X864782Y200824D01*
X864771Y200840D01*
X864767Y200843D01*
X864762Y200848D01*
X852984Y212626D01*
X852911Y212679D01*
X852841Y212739D01*
X852811Y212751D01*
X852785Y212770D01*
X852698Y212797D01*
X852613Y212831D01*
X852572Y212835D01*
X852550Y212842D01*
X852517Y212841D01*
X852446Y212849D01*
X811378Y212849D01*
X811307Y212838D01*
X811235Y212836D01*
X811186Y212818D01*
X811135Y212810D01*
X811072Y212776D01*
X811004Y212751D01*
X810964Y212719D01*
X810918Y212694D01*
X810868Y212642D01*
X810812Y212598D01*
X810784Y212554D01*
X810748Y212516D01*
X810718Y212451D01*
X810679Y212391D01*
X810667Y212340D01*
X810645Y212293D01*
X810637Y212222D01*
X810619Y212152D01*
X810623Y212100D01*
X810618Y212049D01*
X810633Y211978D01*
X810638Y211907D01*
X810659Y211859D01*
X810670Y211808D01*
X810707Y211747D01*
X810735Y211681D01*
X810779Y211625D01*
X810796Y211597D01*
X810814Y211582D01*
X810839Y211550D01*
X821911Y200478D01*
X821911Y200353D01*
X821930Y200238D01*
X821947Y200122D01*
X821949Y200117D01*
X821950Y200110D01*
X822005Y200008D01*
X822058Y199903D01*
X822063Y199899D01*
X822066Y199893D01*
X822150Y199813D01*
X822234Y199731D01*
X822240Y199727D01*
X822244Y199724D01*
X822261Y199716D01*
X822381Y199650D01*
X823712Y199099D01*
X826499Y196312D01*
X828007Y192671D01*
X828007Y188729D01*
X826499Y185088D01*
X823712Y182301D01*
X820071Y180793D01*
X816129Y180793D01*
X812488Y182301D01*
X809701Y185088D01*
X808193Y188729D01*
X808193Y192671D01*
X809701Y196312D01*
X811962Y198572D01*
X811974Y198588D01*
X811989Y198601D01*
X812045Y198688D01*
X812106Y198772D01*
X812111Y198791D01*
X812122Y198808D01*
X812147Y198908D01*
X812178Y199007D01*
X812177Y199027D01*
X812182Y199046D01*
X812174Y199149D01*
X812172Y199253D01*
X812165Y199272D01*
X812163Y199292D01*
X812123Y199386D01*
X812087Y199484D01*
X812075Y199500D01*
X812067Y199518D01*
X811962Y199649D01*
X804064Y207546D01*
X803991Y207599D01*
X803921Y207659D01*
X803891Y207671D01*
X803865Y207690D01*
X803778Y207717D01*
X803693Y207751D01*
X803652Y207755D01*
X803630Y207762D01*
X803597Y207761D01*
X803526Y207769D01*
X766458Y207769D01*
X766387Y207758D01*
X766315Y207756D01*
X766266Y207738D01*
X766215Y207730D01*
X766152Y207696D01*
X766084Y207671D01*
X766044Y207639D01*
X765998Y207614D01*
X765948Y207562D01*
X765892Y207518D01*
X765864Y207474D01*
X765828Y207436D01*
X765798Y207371D01*
X765759Y207311D01*
X765747Y207260D01*
X765725Y207213D01*
X765717Y207142D01*
X765699Y207072D01*
X765703Y207020D01*
X765698Y206969D01*
X765713Y206898D01*
X765718Y206827D01*
X765739Y206779D01*
X765750Y206728D01*
X765787Y206667D01*
X765815Y206601D01*
X765859Y206545D01*
X765876Y206517D01*
X765894Y206502D01*
X765919Y206470D01*
X771111Y201278D01*
X771111Y200353D01*
X771130Y200238D01*
X771147Y200122D01*
X771149Y200117D01*
X771150Y200110D01*
X771205Y200008D01*
X771258Y199903D01*
X771263Y199899D01*
X771266Y199893D01*
X771350Y199813D01*
X771434Y199731D01*
X771440Y199727D01*
X771444Y199724D01*
X771461Y199716D01*
X771581Y199650D01*
X772912Y199099D01*
X775699Y196312D01*
X777207Y192671D01*
X777207Y188729D01*
X775699Y185088D01*
X772912Y182301D01*
X769271Y180793D01*
X765329Y180793D01*
X761688Y182301D01*
X758901Y185088D01*
X757393Y188729D01*
X757393Y192671D01*
X758901Y196312D01*
X761562Y198972D01*
X761574Y198988D01*
X761589Y199001D01*
X761645Y199088D01*
X761706Y199172D01*
X761711Y199191D01*
X761722Y199208D01*
X761747Y199308D01*
X761778Y199407D01*
X761777Y199427D01*
X761782Y199446D01*
X761774Y199549D01*
X761772Y199653D01*
X761765Y199672D01*
X761763Y199692D01*
X761723Y199786D01*
X761687Y199884D01*
X761675Y199900D01*
X761667Y199918D01*
X761562Y200049D01*
X759144Y202466D01*
X759070Y202519D01*
X759001Y202579D01*
X758971Y202591D01*
X758945Y202610D01*
X758858Y202637D01*
X758773Y202671D01*
X758732Y202675D01*
X758710Y202682D01*
X758677Y202681D01*
X758606Y202689D01*
X738394Y202689D01*
X738304Y202675D01*
X738213Y202667D01*
X738183Y202655D01*
X738151Y202650D01*
X738071Y202607D01*
X737986Y202571D01*
X737954Y202545D01*
X737934Y202534D01*
X737912Y202511D01*
X737856Y202466D01*
X735921Y200531D01*
X735864Y200452D01*
X735802Y200377D01*
X735792Y200353D01*
X735777Y200332D01*
X735748Y200239D01*
X735714Y200148D01*
X735712Y200122D01*
X735705Y200097D01*
X735707Y199999D01*
X735703Y199902D01*
X735710Y199877D01*
X735711Y199851D01*
X735745Y199759D01*
X735772Y199666D01*
X735787Y199644D01*
X735796Y199620D01*
X735856Y199544D01*
X735912Y199464D01*
X735933Y199448D01*
X735949Y199428D01*
X736031Y199375D01*
X736109Y199317D01*
X736134Y199309D01*
X736156Y199295D01*
X736251Y199271D01*
X736343Y199241D01*
X736369Y199241D01*
X736395Y199235D01*
X736492Y199242D01*
X736589Y199243D01*
X736621Y199252D01*
X736640Y199254D01*
X736670Y199267D01*
X736750Y199290D01*
X739929Y200607D01*
X743871Y200607D01*
X747512Y199099D01*
X750299Y196312D01*
X751807Y192671D01*
X751807Y188729D01*
X750299Y185088D01*
X747512Y182301D01*
X746181Y181750D01*
X746081Y181689D01*
X745981Y181629D01*
X745977Y181624D01*
X745972Y181621D01*
X745897Y181531D01*
X745821Y181442D01*
X745819Y181436D01*
X745815Y181431D01*
X745773Y181323D01*
X745729Y181214D01*
X745728Y181206D01*
X745727Y181201D01*
X745726Y181183D01*
X745711Y181047D01*
X745711Y119322D01*
X743256Y116866D01*
X733499Y107110D01*
X733458Y107052D01*
X733408Y107000D01*
X733386Y106953D01*
X733356Y106911D01*
X733335Y106842D01*
X733305Y106777D01*
X733299Y106725D01*
X733284Y106675D01*
X733285Y106604D01*
X733278Y106533D01*
X733289Y106482D01*
X733290Y106430D01*
X733315Y106362D01*
X733330Y106292D01*
X733356Y106247D01*
X733374Y106199D01*
X733419Y106143D01*
X733456Y106081D01*
X733496Y106047D01*
X733528Y106007D01*
X733588Y105968D01*
X733643Y105921D01*
X733691Y105902D01*
X733735Y105874D01*
X733804Y105856D01*
X733871Y105829D01*
X733942Y105821D01*
X733974Y105813D01*
X733997Y105815D01*
X734038Y105811D01*
X735106Y105811D01*
X735196Y105825D01*
X735287Y105833D01*
X735317Y105845D01*
X735349Y105850D01*
X735430Y105893D01*
X735514Y105929D01*
X735546Y105955D01*
X735566Y105966D01*
X735589Y105989D01*
X735644Y106034D01*
X753966Y124356D01*
X754019Y124429D01*
X754079Y124499D01*
X754091Y124529D01*
X754110Y124555D01*
X754137Y124642D01*
X754171Y124727D01*
X754175Y124768D01*
X754182Y124790D01*
X754181Y124823D01*
X754189Y124894D01*
X754189Y157578D01*
X783180Y186569D01*
X783247Y186663D01*
X783318Y186757D01*
X783319Y186764D01*
X783323Y186769D01*
X783357Y186879D01*
X783394Y186991D01*
X783394Y186998D01*
X783395Y187004D01*
X783392Y187120D01*
X783391Y187237D01*
X783389Y187244D01*
X783389Y187250D01*
X783383Y187267D01*
X783345Y187398D01*
X782793Y188729D01*
X782793Y192671D01*
X784301Y196312D01*
X787088Y199099D01*
X790729Y200607D01*
X794671Y200607D01*
X798312Y199099D01*
X801099Y196312D01*
X802607Y192671D01*
X802607Y188729D01*
X801099Y185088D01*
X798312Y182301D01*
X794671Y180793D01*
X790729Y180793D01*
X789398Y181345D01*
X789285Y181371D01*
X789171Y181400D01*
X789165Y181399D01*
X789159Y181401D01*
X789042Y181390D01*
X788926Y181381D01*
X788920Y181378D01*
X788914Y181378D01*
X788807Y181330D01*
X788700Y181284D01*
X788694Y181280D01*
X788689Y181278D01*
X788676Y181265D01*
X788569Y181180D01*
X762034Y154644D01*
X761981Y154571D01*
X761921Y154501D01*
X761909Y154471D01*
X761890Y154445D01*
X761863Y154358D01*
X761829Y154273D01*
X761825Y154232D01*
X761818Y154210D01*
X761819Y154177D01*
X761811Y154106D01*
X761811Y121422D01*
X741034Y100644D01*
X739499Y99110D01*
X739458Y99052D01*
X739408Y99000D01*
X739386Y98953D01*
X739356Y98911D01*
X739335Y98842D01*
X739305Y98777D01*
X739299Y98725D01*
X739284Y98675D01*
X739285Y98604D01*
X739278Y98533D01*
X739289Y98482D01*
X739290Y98430D01*
X739315Y98362D01*
X739330Y98292D01*
X739356Y98247D01*
X739374Y98199D01*
X739419Y98143D01*
X739456Y98081D01*
X739496Y98047D01*
X739528Y98007D01*
X739588Y97968D01*
X739643Y97921D01*
X739691Y97902D01*
X739735Y97874D01*
X739804Y97856D01*
X739871Y97829D01*
X739942Y97821D01*
X739974Y97813D01*
X739997Y97815D01*
X740038Y97811D01*
X794578Y97811D01*
X799276Y93114D01*
X799349Y93061D01*
X799419Y93001D01*
X799449Y92989D01*
X799475Y92970D01*
X799562Y92943D01*
X799647Y92909D01*
X799688Y92905D01*
X799710Y92898D01*
X799743Y92899D01*
X799814Y92891D01*
X831042Y92891D01*
X831113Y92902D01*
X831185Y92904D01*
X831234Y92922D01*
X831285Y92930D01*
X831348Y92964D01*
X831416Y92989D01*
X831456Y93021D01*
X831502Y93046D01*
X831552Y93098D01*
X831608Y93142D01*
X831636Y93186D01*
X831672Y93224D01*
X831702Y93289D01*
X831741Y93349D01*
X831753Y93400D01*
X831775Y93447D01*
X831783Y93518D01*
X831801Y93588D01*
X831797Y93640D01*
X831802Y93691D01*
X831787Y93762D01*
X831782Y93833D01*
X831761Y93881D01*
X831750Y93932D01*
X831713Y93993D01*
X831685Y94059D01*
X831641Y94115D01*
X831624Y94143D01*
X831606Y94158D01*
X831581Y94190D01*
X827844Y97926D01*
X825809Y99962D01*
X825755Y100000D01*
X825709Y100046D01*
X825636Y100087D01*
X825609Y100106D01*
X825590Y100112D01*
X825562Y100127D01*
X823088Y101152D01*
X820052Y104188D01*
X818409Y108154D01*
X818409Y112446D01*
X820052Y116412D01*
X823088Y119448D01*
X827054Y121091D01*
X831346Y121091D01*
X835312Y119448D01*
X838348Y116412D01*
X839991Y112446D01*
X839991Y108154D01*
X838348Y104188D01*
X835893Y101733D01*
X835881Y101717D01*
X835866Y101704D01*
X835810Y101617D01*
X835750Y101533D01*
X835744Y101514D01*
X835733Y101497D01*
X835708Y101397D01*
X835677Y101298D01*
X835678Y101278D01*
X835673Y101259D01*
X835681Y101156D01*
X835684Y101052D01*
X835690Y101033D01*
X835692Y101013D01*
X835732Y100919D01*
X835768Y100821D01*
X835781Y100805D01*
X835788Y100787D01*
X835893Y100656D01*
X838355Y98194D01*
X838429Y98141D01*
X838499Y98081D01*
X838529Y98069D01*
X838555Y98050D01*
X838642Y98023D01*
X838727Y97989D01*
X838768Y97985D01*
X838790Y97978D01*
X838822Y97979D01*
X838894Y97971D01*
X857251Y97971D01*
X857321Y97982D01*
X857393Y97984D01*
X857442Y98002D01*
X857494Y98010D01*
X857557Y98044D01*
X857624Y98069D01*
X857665Y98101D01*
X857711Y98126D01*
X857760Y98177D01*
X857816Y98222D01*
X857844Y98266D01*
X857880Y98304D01*
X857910Y98369D01*
X857949Y98429D01*
X857962Y98480D01*
X857984Y98527D01*
X857992Y98598D01*
X858009Y98668D01*
X858005Y98720D01*
X858011Y98771D01*
X857996Y98842D01*
X857990Y98913D01*
X857970Y98961D01*
X857959Y99012D01*
X857922Y99073D01*
X857894Y99139D01*
X857849Y99195D01*
X857833Y99223D01*
X857815Y99238D01*
X857789Y99270D01*
X857674Y99385D01*
X857580Y99453D01*
X857486Y99523D01*
X857480Y99525D01*
X857475Y99529D01*
X857363Y99563D01*
X857252Y99599D01*
X857245Y99599D01*
X857240Y99601D01*
X857123Y99598D01*
X857006Y99597D01*
X856999Y99595D01*
X856994Y99595D01*
X856976Y99588D01*
X856845Y99550D01*
X856746Y99509D01*
X852454Y99509D01*
X848488Y101152D01*
X845452Y104188D01*
X843809Y108154D01*
X843809Y112446D01*
X845452Y116412D01*
X848488Y119448D01*
X852454Y121091D01*
X856746Y121091D01*
X860712Y119448D01*
X863748Y116412D01*
X865391Y112446D01*
X865391Y108154D01*
X863914Y104588D01*
X863887Y104475D01*
X863859Y104361D01*
X863859Y104355D01*
X863858Y104349D01*
X863869Y104231D01*
X863878Y104116D01*
X863880Y104110D01*
X863881Y104104D01*
X863929Y103996D01*
X863974Y103890D01*
X863979Y103884D01*
X863981Y103879D01*
X863994Y103865D01*
X864079Y103759D01*
X871804Y96034D01*
X871878Y95981D01*
X871947Y95921D01*
X871978Y95909D01*
X872004Y95890D01*
X872091Y95863D01*
X872176Y95829D01*
X872217Y95825D01*
X872239Y95818D01*
X872271Y95819D01*
X872342Y95811D01*
X937106Y95811D01*
X937196Y95825D01*
X937287Y95833D01*
X937317Y95845D01*
X937349Y95850D01*
X937430Y95893D01*
X937514Y95929D01*
X937546Y95955D01*
X937566Y95966D01*
X937589Y95989D01*
X937644Y96034D01*
X968422Y126811D01*
X991106Y126811D01*
X991196Y126825D01*
X991287Y126833D01*
X991317Y126845D01*
X991349Y126850D01*
X991430Y126893D01*
X991514Y126929D01*
X991546Y126955D01*
X991566Y126966D01*
X991589Y126989D01*
X991644Y127034D01*
X1004966Y140356D01*
X1005019Y140429D01*
X1005079Y140499D01*
X1005091Y140529D01*
X1005110Y140555D01*
X1005137Y140642D01*
X1005171Y140727D01*
X1005175Y140768D01*
X1005182Y140790D01*
X1005181Y140823D01*
X1005189Y140894D01*
X1005189Y156200D01*
X1005175Y156290D01*
X1005167Y156381D01*
X1005155Y156411D01*
X1005150Y156443D01*
X1005107Y156524D01*
X1005071Y156607D01*
X1005045Y156640D01*
X1005034Y156660D01*
X1005011Y156682D01*
X1004966Y156738D01*
X1003428Y158277D01*
X1002427Y160693D01*
X1002427Y163307D01*
X1003428Y165723D01*
X1004966Y167262D01*
X1005019Y167336D01*
X1005079Y167405D01*
X1005091Y167435D01*
X1005110Y167461D01*
X1005137Y167548D01*
X1005171Y167633D01*
X1005175Y167674D01*
X1005182Y167696D01*
X1005181Y167729D01*
X1005189Y167800D01*
X1005189Y179978D01*
X1007644Y182434D01*
X1007645Y182434D01*
X1011780Y186569D01*
X1011847Y186663D01*
X1011918Y186757D01*
X1011919Y186763D01*
X1011923Y186769D01*
X1011957Y186879D01*
X1011994Y186991D01*
X1011994Y186998D01*
X1011995Y187004D01*
X1011992Y187120D01*
X1011991Y187237D01*
X1011989Y187244D01*
X1011989Y187249D01*
X1011983Y187267D01*
X1011945Y187398D01*
X1011393Y188729D01*
X1011393Y192671D01*
X1012901Y196312D01*
X1015688Y199099D01*
X1019329Y200607D01*
X1023271Y200607D01*
X1026912Y199099D01*
X1029699Y196312D01*
X1031207Y192671D01*
X1031207Y188729D01*
X1029699Y185088D01*
X1026912Y182301D01*
X1023271Y180793D01*
X1019329Y180793D01*
X1017998Y181345D01*
X1017885Y181371D01*
X1017771Y181400D01*
X1017765Y181399D01*
X1017759Y181401D01*
X1017642Y181390D01*
X1017526Y181381D01*
X1017520Y181378D01*
X1017514Y181378D01*
X1017406Y181330D01*
X1017300Y181284D01*
X1017294Y181280D01*
X1017289Y181278D01*
X1017276Y181265D01*
X1017169Y181180D01*
X1013034Y177045D01*
X1012981Y176971D01*
X1012921Y176901D01*
X1012909Y176871D01*
X1012890Y176845D01*
X1012863Y176758D01*
X1012829Y176673D01*
X1012825Y176632D01*
X1012818Y176610D01*
X1012819Y176578D01*
X1012811Y176506D01*
X1012811Y167800D01*
X1012825Y167710D01*
X1012833Y167619D01*
X1012845Y167589D01*
X1012850Y167557D01*
X1012893Y167476D01*
X1012929Y167393D01*
X1012955Y167360D01*
X1012966Y167340D01*
X1012989Y167318D01*
X1013034Y167262D01*
X1014572Y165723D01*
X1015573Y163307D01*
X1015573Y160693D01*
X1014572Y158277D01*
X1013034Y156738D01*
X1012981Y156664D01*
X1012921Y156595D01*
X1012909Y156565D01*
X1012890Y156539D01*
X1012863Y156452D01*
X1012829Y156367D01*
X1012825Y156326D01*
X1012818Y156304D01*
X1012819Y156271D01*
X1012811Y156200D01*
X1012811Y137422D01*
X1012261Y136872D01*
X1012220Y136814D01*
X1012170Y136762D01*
X1012148Y136715D01*
X1012118Y136673D01*
X1012097Y136604D01*
X1012067Y136539D01*
X1012061Y136487D01*
X1012046Y136437D01*
X1012047Y136366D01*
X1012040Y136295D01*
X1012051Y136244D01*
X1012052Y136192D01*
X1012077Y136124D01*
X1012092Y136054D01*
X1012118Y136009D01*
X1012136Y135961D01*
X1012181Y135905D01*
X1012218Y135843D01*
X1012258Y135809D01*
X1012290Y135769D01*
X1012350Y135730D01*
X1012405Y135683D01*
X1012453Y135664D01*
X1012497Y135636D01*
X1012566Y135618D01*
X1012633Y135591D01*
X1012704Y135583D01*
X1012735Y135575D01*
X1012759Y135577D01*
X1012800Y135573D01*
X1014307Y135573D01*
X1016723Y134572D01*
X1018572Y132723D01*
X1019573Y130307D01*
X1019573Y130132D01*
X1019587Y130042D01*
X1019595Y129951D01*
X1019607Y129921D01*
X1019612Y129889D01*
X1019655Y129808D01*
X1019691Y129724D01*
X1019717Y129692D01*
X1019728Y129672D01*
X1019751Y129649D01*
X1019796Y129594D01*
X1032811Y116578D01*
X1032811Y57894D01*
X1032825Y57804D01*
X1032833Y57713D01*
X1032845Y57683D01*
X1032850Y57651D01*
X1032893Y57570D01*
X1032929Y57486D01*
X1032955Y57454D01*
X1032966Y57434D01*
X1032989Y57411D01*
X1033034Y57356D01*
X1042569Y47820D01*
X1042663Y47753D01*
X1042757Y47682D01*
X1042763Y47681D01*
X1042768Y47677D01*
X1042880Y47643D01*
X1042991Y47606D01*
X1042998Y47606D01*
X1043004Y47605D01*
X1043120Y47608D01*
X1043237Y47609D01*
X1043244Y47611D01*
X1043249Y47611D01*
X1043267Y47617D01*
X1043398Y47655D01*
X1044729Y48207D01*
X1048671Y48207D01*
X1052312Y46699D01*
X1055099Y43912D01*
X1056607Y40271D01*
X1056607Y36329D01*
X1055099Y32688D01*
X1052312Y29901D01*
X1048671Y28393D01*
X1044729Y28393D01*
X1041088Y29901D01*
X1038301Y32688D01*
X1036793Y36329D01*
X1036793Y40271D01*
X1037345Y41602D01*
X1037371Y41715D01*
X1037400Y41829D01*
X1037399Y41835D01*
X1037401Y41841D01*
X1037390Y41958D01*
X1037381Y42074D01*
X1037378Y42080D01*
X1037378Y42086D01*
X1037330Y42194D01*
X1037284Y42300D01*
X1037280Y42306D01*
X1037278Y42311D01*
X1037265Y42324D01*
X1037180Y42431D01*
X1027644Y51966D01*
X1025189Y54422D01*
X1025189Y113106D01*
X1025175Y113196D01*
X1025167Y113287D01*
X1025155Y113317D01*
X1025150Y113349D01*
X1025107Y113430D01*
X1025071Y113514D01*
X1025045Y113546D01*
X1025034Y113566D01*
X1025011Y113589D01*
X1024966Y113644D01*
X1015994Y122617D01*
X1015899Y122685D01*
X1015805Y122755D01*
X1015799Y122757D01*
X1015794Y122761D01*
X1015683Y122795D01*
X1015571Y122831D01*
X1015565Y122831D01*
X1015559Y122833D01*
X1015442Y122830D01*
X1015325Y122829D01*
X1015318Y122827D01*
X1015313Y122827D01*
X1015296Y122820D01*
X1015164Y122782D01*
X1014307Y122427D01*
X1012132Y122427D01*
X1012042Y122413D01*
X1011951Y122405D01*
X1011921Y122393D01*
X1011889Y122388D01*
X1011808Y122345D01*
X1011724Y122309D01*
X1011692Y122283D01*
X1011672Y122272D01*
X1011649Y122249D01*
X1011594Y122204D01*
X1003498Y114109D01*
X973998Y114109D01*
X973908Y114095D01*
X973817Y114087D01*
X973787Y114075D01*
X973755Y114070D01*
X973675Y114027D01*
X973591Y113991D01*
X973559Y113965D01*
X973538Y113954D01*
X973516Y113931D01*
X973460Y113886D01*
X942683Y83109D01*
X872198Y83109D01*
X872127Y83098D01*
X872055Y83096D01*
X872006Y83078D01*
X871955Y83070D01*
X871892Y83036D01*
X871824Y83011D01*
X871784Y82979D01*
X871738Y82954D01*
X871688Y82902D01*
X871632Y82858D01*
X871604Y82814D01*
X871568Y82776D01*
X871538Y82711D01*
X871499Y82651D01*
X871487Y82600D01*
X871465Y82553D01*
X871457Y82482D01*
X871439Y82412D01*
X871443Y82360D01*
X871438Y82309D01*
X871453Y82238D01*
X871458Y82167D01*
X871479Y82119D01*
X871490Y82068D01*
X871527Y82006D01*
X871555Y81941D01*
X871599Y81885D01*
X871616Y81857D01*
X871634Y81842D01*
X871659Y81810D01*
X895656Y57814D01*
X898111Y55358D01*
X898111Y47953D01*
X898130Y47838D01*
X898147Y47722D01*
X898149Y47717D01*
X898150Y47710D01*
X898205Y47608D01*
X898258Y47503D01*
X898263Y47499D01*
X898266Y47493D01*
X898350Y47413D01*
X898434Y47331D01*
X898440Y47327D01*
X898444Y47324D01*
X898461Y47316D01*
X898581Y47250D01*
X899912Y46699D01*
X902699Y43912D01*
X904207Y40271D01*
X904207Y36329D01*
X902699Y32688D01*
X899912Y29901D01*
X896271Y28393D01*
X892329Y28393D01*
X888688Y29901D01*
X885901Y32688D01*
X884393Y36329D01*
X884393Y40271D01*
X885901Y43912D01*
X888688Y46699D01*
X890019Y47250D01*
X890119Y47311D01*
X890219Y47371D01*
X890223Y47376D01*
X890228Y47379D01*
X890303Y47469D01*
X890379Y47558D01*
X890381Y47564D01*
X890385Y47569D01*
X890427Y47677D01*
X890471Y47786D01*
X890472Y47794D01*
X890473Y47799D01*
X890474Y47817D01*
X890489Y47953D01*
X890489Y51886D01*
X890475Y51976D01*
X890467Y52067D01*
X890455Y52097D01*
X890450Y52129D01*
X890407Y52210D01*
X890371Y52294D01*
X890345Y52326D01*
X890334Y52346D01*
X890311Y52369D01*
X890266Y52424D01*
X874010Y68681D01*
X873952Y68722D01*
X873900Y68772D01*
X873853Y68794D01*
X873811Y68824D01*
X873742Y68845D01*
X873677Y68875D01*
X873625Y68881D01*
X873575Y68896D01*
X873504Y68895D01*
X873433Y68902D01*
X873382Y68891D01*
X873330Y68890D01*
X873262Y68865D01*
X873192Y68850D01*
X873147Y68824D01*
X873099Y68806D01*
X873043Y68761D01*
X872981Y68724D01*
X872947Y68684D01*
X872907Y68652D01*
X872868Y68592D01*
X872821Y68537D01*
X872802Y68489D01*
X872774Y68445D01*
X872756Y68376D01*
X872729Y68309D01*
X872721Y68238D01*
X872713Y68206D01*
X872715Y68183D01*
X872711Y68142D01*
X872711Y47953D01*
X872730Y47838D01*
X872747Y47722D01*
X872749Y47717D01*
X872750Y47710D01*
X872805Y47608D01*
X872858Y47503D01*
X872863Y47499D01*
X872866Y47493D01*
X872950Y47413D01*
X873034Y47331D01*
X873040Y47327D01*
X873044Y47324D01*
X873061Y47316D01*
X873181Y47250D01*
X874512Y46699D01*
X877299Y43912D01*
X878807Y40271D01*
X878807Y36329D01*
X877299Y32688D01*
X874512Y29901D01*
X870871Y28393D01*
X866929Y28393D01*
X863288Y29901D01*
X860501Y32688D01*
X858993Y36329D01*
X858993Y40271D01*
X860501Y43912D01*
X863288Y46699D01*
X864619Y47250D01*
X864719Y47312D01*
X864819Y47371D01*
X864823Y47376D01*
X864828Y47379D01*
X864903Y47470D01*
X864979Y47558D01*
X864981Y47564D01*
X864985Y47569D01*
X865027Y47677D01*
X865071Y47786D01*
X865072Y47794D01*
X865073Y47799D01*
X865074Y47817D01*
X865089Y47953D01*
X865089Y67113D01*
X865074Y67209D01*
X865064Y67306D01*
X865054Y67329D01*
X865050Y67355D01*
X865004Y67442D01*
X864964Y67530D01*
X864947Y67550D01*
X864934Y67573D01*
X864864Y67640D01*
X864798Y67711D01*
X864775Y67724D01*
X864756Y67742D01*
X864668Y67783D01*
X864582Y67830D01*
X864557Y67835D01*
X864533Y67846D01*
X864436Y67856D01*
X864340Y67874D01*
X864314Y67870D01*
X864289Y67873D01*
X864193Y67852D01*
X864097Y67838D01*
X864074Y67826D01*
X864048Y67821D01*
X863965Y67771D01*
X863878Y67726D01*
X863859Y67708D01*
X863837Y67694D01*
X863774Y67620D01*
X863706Y67551D01*
X863690Y67522D01*
X863677Y67507D01*
X863665Y67477D01*
X863625Y67404D01*
X863572Y67277D01*
X861723Y65428D01*
X859307Y64427D01*
X856693Y64427D01*
X854277Y65428D01*
X852428Y67277D01*
X851703Y69026D01*
X851665Y69087D01*
X851636Y69153D01*
X851601Y69191D01*
X851574Y69235D01*
X851518Y69281D01*
X851470Y69334D01*
X851424Y69359D01*
X851384Y69392D01*
X851317Y69418D01*
X851254Y69452D01*
X851203Y69462D01*
X851155Y69480D01*
X851083Y69483D01*
X851012Y69496D01*
X850961Y69488D01*
X850909Y69491D01*
X850840Y69471D01*
X850769Y69460D01*
X850723Y69437D01*
X850673Y69422D01*
X850614Y69381D01*
X850550Y69349D01*
X850513Y69312D01*
X850471Y69282D01*
X850428Y69224D01*
X850378Y69173D01*
X850343Y69110D01*
X850324Y69085D01*
X850317Y69062D01*
X850297Y69026D01*
X849572Y67277D01*
X847723Y65428D01*
X845307Y64427D01*
X842693Y64427D01*
X840277Y65428D01*
X838738Y66966D01*
X838664Y67019D01*
X838595Y67079D01*
X838565Y67091D01*
X838539Y67110D01*
X838452Y67137D01*
X838367Y67171D01*
X838326Y67175D01*
X838304Y67182D01*
X838271Y67181D01*
X838200Y67189D01*
X794038Y67189D01*
X793967Y67178D01*
X793895Y67176D01*
X793846Y67158D01*
X793795Y67150D01*
X793732Y67116D01*
X793664Y67091D01*
X793624Y67059D01*
X793578Y67034D01*
X793528Y66983D01*
X793472Y66938D01*
X793444Y66894D01*
X793408Y66856D01*
X793378Y66791D01*
X793339Y66731D01*
X793327Y66680D01*
X793305Y66633D01*
X793297Y66562D01*
X793279Y66492D01*
X793283Y66440D01*
X793278Y66389D01*
X793293Y66318D01*
X793298Y66247D01*
X793319Y66199D01*
X793330Y66148D01*
X793367Y66087D01*
X793395Y66021D01*
X793439Y65965D01*
X793456Y65937D01*
X793474Y65922D01*
X793499Y65890D01*
X794055Y65334D01*
X794056Y65334D01*
X796511Y62878D01*
X796511Y47953D01*
X796530Y47838D01*
X796547Y47722D01*
X796549Y47717D01*
X796550Y47710D01*
X796605Y47608D01*
X796658Y47503D01*
X796663Y47499D01*
X796666Y47493D01*
X796750Y47413D01*
X796834Y47331D01*
X796840Y47327D01*
X796844Y47324D01*
X796861Y47316D01*
X796981Y47250D01*
X798312Y46699D01*
X801099Y43912D01*
X802607Y40271D01*
X802607Y36329D01*
X801099Y32688D01*
X798312Y29901D01*
X794671Y28393D01*
X790729Y28393D01*
X787088Y29901D01*
X784301Y32688D01*
X782793Y36329D01*
X782793Y40271D01*
X784301Y43912D01*
X787088Y46699D01*
X788419Y47250D01*
X788519Y47311D01*
X788619Y47371D01*
X788623Y47376D01*
X788628Y47379D01*
X788703Y47469D01*
X788779Y47558D01*
X788781Y47564D01*
X788785Y47569D01*
X788827Y47677D01*
X788871Y47786D01*
X788872Y47794D01*
X788873Y47799D01*
X788874Y47817D01*
X788889Y47953D01*
X788889Y59406D01*
X788875Y59496D01*
X788867Y59587D01*
X788855Y59617D01*
X788850Y59649D01*
X788807Y59730D01*
X788771Y59814D01*
X788745Y59846D01*
X788734Y59866D01*
X788711Y59889D01*
X788666Y59945D01*
X783872Y64739D01*
X783814Y64780D01*
X783762Y64830D01*
X783715Y64852D01*
X783673Y64882D01*
X783604Y64903D01*
X783539Y64933D01*
X783487Y64939D01*
X783437Y64954D01*
X783366Y64953D01*
X783295Y64960D01*
X783244Y64949D01*
X783192Y64948D01*
X783124Y64923D01*
X783054Y64908D01*
X783010Y64882D01*
X782961Y64864D01*
X782905Y64819D01*
X782843Y64782D01*
X782809Y64742D01*
X782769Y64710D01*
X782730Y64650D01*
X782683Y64595D01*
X782664Y64547D01*
X782636Y64503D01*
X782618Y64434D01*
X782591Y64367D01*
X782583Y64296D01*
X782575Y64264D01*
X782577Y64241D01*
X782573Y64200D01*
X782573Y63693D01*
X781572Y61277D01*
X779723Y59428D01*
X777307Y58427D01*
X774693Y58427D01*
X774479Y58516D01*
X774409Y58532D01*
X774342Y58558D01*
X774290Y58560D01*
X774239Y58572D01*
X774168Y58565D01*
X774096Y58568D01*
X774046Y58554D01*
X773994Y58549D01*
X773929Y58520D01*
X773860Y58500D01*
X773817Y58470D01*
X773770Y58449D01*
X773717Y58400D01*
X773658Y58360D01*
X773627Y58318D01*
X773589Y58283D01*
X773554Y58220D01*
X773511Y58162D01*
X773495Y58113D01*
X773470Y58067D01*
X773457Y57996D01*
X773435Y57928D01*
X773436Y57876D01*
X773426Y57825D01*
X773437Y57754D01*
X773437Y57682D01*
X773457Y57613D01*
X773462Y57582D01*
X773473Y57561D01*
X773484Y57521D01*
X773573Y57307D01*
X773573Y54693D01*
X772572Y52277D01*
X770723Y50428D01*
X768896Y49671D01*
X768813Y49620D01*
X768728Y49574D01*
X768710Y49556D01*
X768687Y49542D01*
X768625Y49466D01*
X768558Y49396D01*
X768547Y49372D01*
X768531Y49352D01*
X768496Y49261D01*
X768455Y49173D01*
X768452Y49147D01*
X768442Y49123D01*
X768438Y49025D01*
X768428Y48929D01*
X768433Y48903D01*
X768432Y48877D01*
X768459Y48783D01*
X768480Y48688D01*
X768493Y48666D01*
X768501Y48641D01*
X768556Y48561D01*
X768606Y48477D01*
X768626Y48460D01*
X768641Y48439D01*
X768719Y48380D01*
X768793Y48317D01*
X768817Y48307D01*
X768838Y48292D01*
X768931Y48262D01*
X769021Y48225D01*
X769054Y48222D01*
X769072Y48216D01*
X769105Y48216D01*
X769188Y48207D01*
X769271Y48207D01*
X772912Y46699D01*
X775699Y43912D01*
X777207Y40271D01*
X777207Y36329D01*
X775699Y32688D01*
X772912Y29901D01*
X769271Y28393D01*
X765329Y28393D01*
X761688Y29901D01*
X758901Y32688D01*
X757393Y36329D01*
X757393Y40271D01*
X758901Y43912D01*
X761688Y46699D01*
X765286Y48189D01*
X765347Y48227D01*
X765413Y48256D01*
X765451Y48291D01*
X765495Y48318D01*
X765541Y48374D01*
X765594Y48422D01*
X765619Y48468D01*
X765652Y48508D01*
X765678Y48575D01*
X765713Y48638D01*
X765722Y48689D01*
X765740Y48738D01*
X765744Y48809D01*
X765756Y48880D01*
X765749Y48931D01*
X765751Y48983D01*
X765731Y49052D01*
X765720Y49123D01*
X765697Y49170D01*
X765682Y49220D01*
X765642Y49278D01*
X765609Y49342D01*
X765572Y49379D01*
X765542Y49422D01*
X765485Y49464D01*
X765433Y49515D01*
X765371Y49549D01*
X765345Y49568D01*
X765322Y49576D01*
X765286Y49596D01*
X763277Y50428D01*
X761428Y52277D01*
X760427Y54693D01*
X760427Y56104D01*
X760425Y56116D01*
X760426Y56124D01*
X760417Y56166D01*
X760413Y56194D01*
X760405Y56285D01*
X760393Y56315D01*
X760388Y56347D01*
X760345Y56427D01*
X760309Y56511D01*
X760283Y56543D01*
X760272Y56564D01*
X760249Y56586D01*
X760204Y56642D01*
X757645Y59202D01*
X757571Y59255D01*
X757501Y59315D01*
X757471Y59327D01*
X757445Y59346D01*
X757358Y59372D01*
X757273Y59407D01*
X757232Y59411D01*
X757210Y59418D01*
X757178Y59417D01*
X757106Y59425D01*
X741682Y59425D01*
X741592Y59410D01*
X741501Y59403D01*
X741472Y59391D01*
X741440Y59385D01*
X741359Y59343D01*
X741275Y59307D01*
X741243Y59281D01*
X741222Y59270D01*
X741200Y59247D01*
X741144Y59202D01*
X727891Y45949D01*
X724699Y45949D01*
X724628Y45938D01*
X724556Y45936D01*
X724507Y45918D01*
X724456Y45910D01*
X724393Y45876D01*
X724325Y45851D01*
X724285Y45819D01*
X724239Y45794D01*
X724189Y45742D01*
X724133Y45698D01*
X724105Y45654D01*
X724069Y45616D01*
X724039Y45551D01*
X724000Y45491D01*
X723988Y45440D01*
X723966Y45393D01*
X723958Y45322D01*
X723940Y45252D01*
X723944Y45200D01*
X723939Y45149D01*
X723954Y45078D01*
X723959Y45007D01*
X723980Y44959D01*
X723991Y44908D01*
X724028Y44847D01*
X724056Y44781D01*
X724100Y44725D01*
X724117Y44697D01*
X724135Y44682D01*
X724160Y44650D01*
X724899Y43912D01*
X726407Y40271D01*
X726407Y36329D01*
X724899Y32688D01*
X722112Y29901D01*
X718471Y28393D01*
X714529Y28393D01*
X710888Y29901D01*
X708101Y32688D01*
X706593Y36329D01*
X706593Y40271D01*
X708101Y43912D01*
X708840Y44650D01*
X708881Y44708D01*
X708931Y44760D01*
X708953Y44807D01*
X708983Y44849D01*
X709004Y44918D01*
X709034Y44983D01*
X709040Y45035D01*
X709055Y45085D01*
X709054Y45156D01*
X709061Y45227D01*
X709050Y45278D01*
X709049Y45330D01*
X709024Y45398D01*
X709009Y45468D01*
X708982Y45513D01*
X708965Y45561D01*
X708920Y45617D01*
X708883Y45679D01*
X708843Y45713D01*
X708811Y45753D01*
X708751Y45792D01*
X708696Y45839D01*
X708648Y45858D01*
X708604Y45886D01*
X708534Y45904D01*
X708468Y45931D01*
X708397Y45939D01*
X708365Y45947D01*
X708342Y45945D01*
X708301Y45949D01*
X548654Y45949D01*
X548564Y45935D01*
X548473Y45927D01*
X548443Y45915D01*
X548411Y45910D01*
X548330Y45867D01*
X548246Y45831D01*
X548214Y45805D01*
X548194Y45794D01*
X548171Y45771D01*
X548116Y45726D01*
X527753Y25364D01*
X527712Y25306D01*
X527662Y25254D01*
X527640Y25207D01*
X527610Y25165D01*
X527589Y25096D01*
X527559Y25031D01*
X527553Y24979D01*
X527538Y24929D01*
X527539Y24858D01*
X527532Y24787D01*
X527543Y24736D01*
X527544Y24684D01*
X527569Y24616D01*
X527584Y24546D01*
X527610Y24501D01*
X527628Y24453D01*
X527673Y24397D01*
X527710Y24335D01*
X527750Y24301D01*
X527782Y24261D01*
X527842Y24222D01*
X527897Y24175D01*
X527945Y24156D01*
X527989Y24128D01*
X528058Y24110D01*
X528125Y24083D01*
X528196Y24075D01*
X528228Y24067D01*
X528251Y24069D01*
X528292Y24065D01*
X563796Y24065D01*
X571953Y15908D01*
X572027Y15855D01*
X572096Y15795D01*
X572126Y15783D01*
X572152Y15764D01*
X572239Y15737D01*
X572324Y15703D01*
X572365Y15699D01*
X572387Y15692D01*
X572420Y15693D01*
X572491Y15685D01*
X574307Y15685D01*
X576723Y14684D01*
X578572Y12835D01*
X579573Y10419D01*
X579573Y7805D01*
X578880Y6133D01*
X578870Y6089D01*
X578851Y6047D01*
X578842Y5970D01*
X578824Y5894D01*
X578829Y5848D01*
X578824Y5803D01*
X578840Y5726D01*
X578847Y5649D01*
X578866Y5607D01*
X578876Y5562D01*
X578916Y5495D01*
X578947Y5424D01*
X578978Y5390D01*
X579002Y5351D01*
X579061Y5300D01*
X579114Y5243D01*
X579154Y5221D01*
X579189Y5191D01*
X579261Y5162D01*
X579329Y5125D01*
X579374Y5116D01*
X579417Y5099D01*
X579553Y5084D01*
X579571Y5081D01*
X579576Y5082D01*
X579584Y5081D01*
X693896Y5081D01*
X693967Y5092D01*
G37*
G36*
X78857Y5092D02*
X78857Y5092D01*
X78929Y5094D01*
X78978Y5112D01*
X79029Y5120D01*
X79092Y5154D01*
X79160Y5179D01*
X79200Y5211D01*
X79246Y5236D01*
X79296Y5288D01*
X79352Y5332D01*
X79380Y5376D01*
X79416Y5414D01*
X79446Y5479D01*
X79485Y5539D01*
X79497Y5590D01*
X79519Y5637D01*
X79527Y5708D01*
X79545Y5778D01*
X79541Y5830D01*
X79546Y5881D01*
X79531Y5952D01*
X79526Y6023D01*
X79505Y6071D01*
X79494Y6122D01*
X79457Y6183D01*
X79429Y6249D01*
X79384Y6305D01*
X79368Y6333D01*
X79350Y6348D01*
X79324Y6380D01*
X78428Y7277D01*
X77427Y9693D01*
X77427Y12307D01*
X78428Y14723D01*
X80277Y16572D01*
X82693Y17573D01*
X85307Y17573D01*
X87723Y16572D01*
X88262Y16034D01*
X88336Y15981D01*
X88405Y15921D01*
X88435Y15909D01*
X88461Y15890D01*
X88548Y15863D01*
X88633Y15829D01*
X88674Y15825D01*
X88696Y15818D01*
X88729Y15819D01*
X88800Y15811D01*
X153200Y15811D01*
X153290Y15825D01*
X153381Y15833D01*
X153411Y15845D01*
X153443Y15850D01*
X153524Y15893D01*
X153607Y15929D01*
X153640Y15955D01*
X153660Y15966D01*
X153682Y15989D01*
X153738Y16034D01*
X155277Y17572D01*
X157693Y18573D01*
X160307Y18573D01*
X162723Y17572D01*
X164572Y15723D01*
X165573Y13307D01*
X165573Y10693D01*
X164572Y8277D01*
X162676Y6380D01*
X162634Y6322D01*
X162584Y6270D01*
X162562Y6223D01*
X162532Y6181D01*
X162511Y6112D01*
X162481Y6047D01*
X162475Y5995D01*
X162460Y5945D01*
X162461Y5874D01*
X162454Y5803D01*
X162465Y5752D01*
X162466Y5700D01*
X162491Y5632D01*
X162506Y5562D01*
X162533Y5517D01*
X162550Y5469D01*
X162595Y5413D01*
X162632Y5351D01*
X162672Y5317D01*
X162704Y5277D01*
X162764Y5238D01*
X162819Y5191D01*
X162867Y5172D01*
X162911Y5144D01*
X162981Y5126D01*
X163047Y5099D01*
X163118Y5091D01*
X163150Y5083D01*
X163173Y5085D01*
X163214Y5081D01*
X566416Y5081D01*
X566461Y5088D01*
X566507Y5086D01*
X566582Y5108D01*
X566659Y5120D01*
X566700Y5142D01*
X566744Y5155D01*
X566808Y5199D01*
X566876Y5236D01*
X566908Y5269D01*
X566946Y5295D01*
X566992Y5358D01*
X567046Y5414D01*
X567065Y5456D01*
X567092Y5492D01*
X567117Y5566D01*
X567149Y5637D01*
X567154Y5683D01*
X567169Y5726D01*
X567168Y5804D01*
X567176Y5881D01*
X567167Y5926D01*
X567166Y5972D01*
X567128Y6104D01*
X567124Y6122D01*
X567122Y6126D01*
X567120Y6133D01*
X566427Y7805D01*
X566427Y9621D01*
X566413Y9711D01*
X566405Y9802D01*
X566393Y9832D01*
X566388Y9864D01*
X566345Y9944D01*
X566309Y10028D01*
X566283Y10060D01*
X566272Y10081D01*
X566249Y10103D01*
X566221Y10138D01*
X566221Y10139D01*
X566220Y10140D01*
X566204Y10159D01*
X560651Y15712D01*
X560577Y15765D01*
X560508Y15825D01*
X560478Y15837D01*
X560452Y15856D01*
X560365Y15883D01*
X560280Y15917D01*
X560239Y15921D01*
X560216Y15928D01*
X560184Y15927D01*
X560113Y15935D01*
X413316Y15935D01*
X406047Y23204D01*
X405973Y23257D01*
X405904Y23317D01*
X405874Y23329D01*
X405848Y23348D01*
X405761Y23375D01*
X405676Y23409D01*
X405635Y23413D01*
X405612Y23420D01*
X405580Y23419D01*
X405509Y23427D01*
X403693Y23427D01*
X401277Y24428D01*
X399428Y26277D01*
X398427Y28693D01*
X398427Y31307D01*
X399428Y33723D01*
X401277Y35572D01*
X403693Y36573D01*
X406307Y36573D01*
X408723Y35572D01*
X410572Y33723D01*
X411573Y31307D01*
X411573Y29491D01*
X411587Y29401D01*
X411595Y29310D01*
X411607Y29280D01*
X411612Y29248D01*
X411655Y29168D01*
X411691Y29084D01*
X411717Y29052D01*
X411728Y29031D01*
X411751Y29009D01*
X411796Y28953D01*
X416461Y24288D01*
X416535Y24235D01*
X416604Y24175D01*
X416634Y24163D01*
X416660Y24144D01*
X416747Y24117D01*
X416832Y24083D01*
X416873Y24079D01*
X416896Y24072D01*
X416928Y24073D01*
X416999Y24065D01*
X506708Y24065D01*
X506779Y24076D01*
X506851Y24078D01*
X506900Y24096D01*
X506951Y24104D01*
X507014Y24138D01*
X507082Y24163D01*
X507122Y24195D01*
X507168Y24220D01*
X507218Y24271D01*
X507274Y24316D01*
X507302Y24360D01*
X507338Y24398D01*
X507368Y24463D01*
X507407Y24523D01*
X507419Y24574D01*
X507441Y24621D01*
X507449Y24692D01*
X507467Y24762D01*
X507463Y24814D01*
X507468Y24865D01*
X507453Y24936D01*
X507448Y25007D01*
X507427Y25055D01*
X507416Y25106D01*
X507379Y25167D01*
X507351Y25233D01*
X507307Y25289D01*
X507290Y25317D01*
X507272Y25332D01*
X507247Y25364D01*
X503407Y29204D01*
X503333Y29257D01*
X503263Y29317D01*
X503233Y29329D01*
X503207Y29348D01*
X503120Y29375D01*
X503035Y29409D01*
X502994Y29413D01*
X502972Y29420D01*
X502940Y29419D01*
X502868Y29427D01*
X500693Y29427D01*
X498277Y30428D01*
X496428Y32277D01*
X495427Y34693D01*
X495427Y37307D01*
X496428Y39723D01*
X498277Y41572D01*
X500693Y42573D01*
X503307Y42573D01*
X505723Y41572D01*
X507572Y39723D01*
X507797Y39181D01*
X507834Y39120D01*
X507864Y39054D01*
X507899Y39016D01*
X507926Y38972D01*
X507982Y38926D01*
X508030Y38873D01*
X508076Y38848D01*
X508116Y38815D01*
X508183Y38789D01*
X508246Y38755D01*
X508297Y38746D01*
X508345Y38727D01*
X508417Y38724D01*
X508488Y38711D01*
X508539Y38719D01*
X508591Y38716D01*
X508660Y38736D01*
X508731Y38747D01*
X508777Y38770D01*
X508827Y38785D01*
X508886Y38826D01*
X508950Y38858D01*
X508987Y38896D01*
X509029Y38925D01*
X509072Y38983D01*
X509122Y39034D01*
X509157Y39097D01*
X509176Y39123D01*
X509184Y39145D01*
X509203Y39181D01*
X509428Y39723D01*
X511277Y41572D01*
X513693Y42573D01*
X515868Y42573D01*
X515958Y42587D01*
X516049Y42595D01*
X516079Y42607D01*
X516111Y42612D01*
X516192Y42655D01*
X516276Y42691D01*
X516308Y42717D01*
X516328Y42728D01*
X516351Y42751D01*
X516406Y42796D01*
X517838Y44228D01*
X517865Y44265D01*
X517899Y44296D01*
X517937Y44364D01*
X517982Y44427D01*
X517995Y44471D01*
X518018Y44511D01*
X518031Y44588D01*
X518054Y44662D01*
X518053Y44708D01*
X518061Y44753D01*
X518050Y44831D01*
X518048Y44908D01*
X518032Y44951D01*
X518025Y44997D01*
X517990Y45066D01*
X517963Y45139D01*
X517935Y45175D01*
X517914Y45216D01*
X517858Y45271D01*
X517810Y45331D01*
X517771Y45356D01*
X517738Y45388D01*
X517619Y45454D01*
X517603Y45464D01*
X517598Y45466D01*
X517591Y45469D01*
X515277Y46428D01*
X513428Y48277D01*
X512427Y50693D01*
X512427Y53307D01*
X513428Y55723D01*
X514966Y57262D01*
X515019Y57336D01*
X515079Y57405D01*
X515091Y57435D01*
X515110Y57461D01*
X515127Y57516D01*
X517501Y59890D01*
X517542Y59948D01*
X517592Y60000D01*
X517614Y60047D01*
X517644Y60089D01*
X517665Y60158D01*
X517695Y60223D01*
X517701Y60275D01*
X517716Y60325D01*
X517715Y60396D01*
X517722Y60467D01*
X517711Y60518D01*
X517710Y60570D01*
X517685Y60638D01*
X517670Y60708D01*
X517644Y60753D01*
X517626Y60801D01*
X517581Y60857D01*
X517544Y60919D01*
X517504Y60953D01*
X517472Y60993D01*
X517412Y61032D01*
X517357Y61079D01*
X517309Y61098D01*
X517265Y61126D01*
X517196Y61144D01*
X517129Y61171D01*
X517058Y61179D01*
X517026Y61187D01*
X517003Y61185D01*
X516962Y61189D01*
X264894Y61189D01*
X264804Y61175D01*
X264713Y61167D01*
X264683Y61155D01*
X264651Y61150D01*
X264570Y61107D01*
X264486Y61071D01*
X264454Y61045D01*
X264434Y61034D01*
X264411Y61011D01*
X264356Y60966D01*
X263796Y60406D01*
X263750Y60343D01*
X263727Y60319D01*
X263723Y60309D01*
X263683Y60263D01*
X263671Y60233D01*
X263652Y60207D01*
X263625Y60120D01*
X263591Y60035D01*
X263587Y59994D01*
X263580Y59972D01*
X263581Y59939D01*
X263573Y59868D01*
X263573Y57693D01*
X262572Y55277D01*
X260723Y53428D01*
X258307Y52427D01*
X255693Y52427D01*
X253277Y53428D01*
X251428Y55277D01*
X250427Y57693D01*
X250427Y60307D01*
X251428Y62723D01*
X253277Y64572D01*
X253838Y64805D01*
X253921Y64856D01*
X254007Y64902D01*
X254025Y64921D01*
X254047Y64934D01*
X254110Y65009D01*
X254177Y65080D01*
X254188Y65104D01*
X254204Y65124D01*
X254239Y65215D01*
X254280Y65303D01*
X254283Y65329D01*
X254293Y65353D01*
X254297Y65451D01*
X254307Y65547D01*
X254302Y65573D01*
X254303Y65599D01*
X254276Y65693D01*
X254255Y65788D01*
X254242Y65810D01*
X254234Y65835D01*
X254179Y65915D01*
X254129Y65999D01*
X254109Y66016D01*
X254094Y66037D01*
X254016Y66096D01*
X253942Y66159D01*
X253918Y66169D01*
X253897Y66184D01*
X253804Y66214D01*
X253714Y66251D01*
X253681Y66254D01*
X253663Y66260D01*
X253630Y66260D01*
X253547Y66269D01*
X88880Y66269D01*
X88790Y66255D01*
X88699Y66247D01*
X88669Y66235D01*
X88637Y66230D01*
X88556Y66187D01*
X88473Y66151D01*
X88440Y66125D01*
X88420Y66114D01*
X88398Y66091D01*
X88342Y66046D01*
X87723Y65428D01*
X85307Y64427D01*
X82693Y64427D01*
X80277Y65428D01*
X78428Y67277D01*
X77427Y69693D01*
X77427Y72307D01*
X78428Y74723D01*
X80277Y76572D01*
X82693Y77573D01*
X85307Y77573D01*
X87723Y76572D01*
X89572Y74723D01*
X89722Y74361D01*
X89784Y74261D01*
X89844Y74161D01*
X89848Y74157D01*
X89852Y74152D01*
X89942Y74077D01*
X90031Y74001D01*
X90037Y73999D01*
X90041Y73995D01*
X90150Y73953D01*
X90259Y73909D01*
X90266Y73908D01*
X90271Y73907D01*
X90289Y73906D01*
X90426Y73891D01*
X242576Y73891D01*
X242647Y73902D01*
X242719Y73904D01*
X242768Y73922D01*
X242819Y73930D01*
X242882Y73964D01*
X242950Y73989D01*
X242990Y74021D01*
X243036Y74046D01*
X243086Y74098D01*
X243142Y74142D01*
X243170Y74186D01*
X243206Y74224D01*
X243236Y74289D01*
X243275Y74349D01*
X243287Y74400D01*
X243309Y74447D01*
X243317Y74518D01*
X243335Y74588D01*
X243331Y74640D01*
X243336Y74691D01*
X243321Y74762D01*
X243316Y74833D01*
X243295Y74881D01*
X243284Y74932D01*
X243247Y74993D01*
X243219Y75059D01*
X243174Y75115D01*
X243158Y75143D01*
X243140Y75158D01*
X243114Y75190D01*
X241428Y76877D01*
X240427Y79293D01*
X240427Y81109D01*
X240413Y81199D01*
X240405Y81290D01*
X240393Y81320D01*
X240388Y81352D01*
X240345Y81432D01*
X240309Y81516D01*
X240283Y81549D01*
X240272Y81569D01*
X240249Y81591D01*
X240204Y81647D01*
X237539Y84312D01*
X234935Y86916D01*
X234935Y97208D01*
X234933Y97221D01*
X234934Y97231D01*
X234924Y97280D01*
X234922Y97350D01*
X234904Y97399D01*
X234896Y97451D01*
X234862Y97514D01*
X234837Y97581D01*
X234805Y97622D01*
X234780Y97668D01*
X234728Y97717D01*
X234684Y97773D01*
X234640Y97802D01*
X234602Y97838D01*
X234537Y97868D01*
X234477Y97906D01*
X234426Y97919D01*
X234379Y97941D01*
X234308Y97949D01*
X234238Y97967D01*
X234186Y97962D01*
X234135Y97968D01*
X234064Y97953D01*
X233993Y97947D01*
X233945Y97927D01*
X233894Y97916D01*
X233833Y97879D01*
X233767Y97851D01*
X233711Y97806D01*
X233683Y97790D01*
X233668Y97772D01*
X233636Y97746D01*
X231656Y95766D01*
X227921Y94219D01*
X223879Y94219D01*
X220144Y95766D01*
X217286Y98624D01*
X215739Y102359D01*
X215739Y121641D01*
X217286Y125376D01*
X220144Y128234D01*
X223879Y129781D01*
X227921Y129781D01*
X231656Y128234D01*
X233636Y126254D01*
X233694Y126212D01*
X233746Y126162D01*
X233793Y126141D01*
X233835Y126110D01*
X233904Y126089D01*
X233969Y126059D01*
X234021Y126053D01*
X234071Y126038D01*
X234142Y126040D01*
X234213Y126032D01*
X234264Y126043D01*
X234316Y126044D01*
X234384Y126069D01*
X234454Y126084D01*
X234499Y126111D01*
X234547Y126129D01*
X234603Y126173D01*
X234665Y126210D01*
X234699Y126250D01*
X234739Y126282D01*
X234778Y126343D01*
X234825Y126397D01*
X234844Y126445D01*
X234872Y126489D01*
X234890Y126559D01*
X234917Y126625D01*
X234925Y126697D01*
X234933Y126728D01*
X234931Y126751D01*
X234935Y126792D01*
X234935Y128454D01*
X234921Y128544D01*
X234913Y128635D01*
X234901Y128665D01*
X234896Y128697D01*
X234853Y128778D01*
X234817Y128862D01*
X234791Y128894D01*
X234780Y128914D01*
X234757Y128936D01*
X234712Y128992D01*
X233428Y130277D01*
X232427Y132693D01*
X232427Y135307D01*
X233428Y137723D01*
X235277Y139572D01*
X237693Y140573D01*
X240307Y140573D01*
X242723Y139572D01*
X244572Y137723D01*
X245573Y135307D01*
X245573Y132693D01*
X244572Y130277D01*
X243288Y128992D01*
X243235Y128918D01*
X243175Y128849D01*
X243163Y128819D01*
X243144Y128793D01*
X243117Y128706D01*
X243083Y128621D01*
X243079Y128580D01*
X243072Y128558D01*
X243073Y128525D01*
X243065Y128454D01*
X243065Y127592D01*
X243076Y127521D01*
X243078Y127450D01*
X243096Y127401D01*
X243104Y127349D01*
X243138Y127286D01*
X243163Y127219D01*
X243195Y127178D01*
X243220Y127132D01*
X243272Y127083D01*
X243316Y127027D01*
X243360Y126998D01*
X243398Y126962D01*
X243463Y126932D01*
X243523Y126894D01*
X243574Y126881D01*
X243621Y126859D01*
X243692Y126851D01*
X243762Y126833D01*
X243814Y126838D01*
X243865Y126832D01*
X243936Y126847D01*
X244007Y126853D01*
X244055Y126873D01*
X244106Y126884D01*
X244167Y126921D01*
X244233Y126949D01*
X244289Y126994D01*
X244317Y127010D01*
X244332Y127028D01*
X244364Y127054D01*
X245544Y128234D01*
X249279Y129781D01*
X253321Y129781D01*
X257056Y128234D01*
X259914Y125376D01*
X261461Y121641D01*
X261461Y102359D01*
X259914Y98624D01*
X257056Y95766D01*
X253321Y94219D01*
X249279Y94219D01*
X245544Y95766D01*
X244364Y96946D01*
X244306Y96988D01*
X244254Y97038D01*
X244207Y97059D01*
X244165Y97090D01*
X244096Y97111D01*
X244031Y97141D01*
X243979Y97147D01*
X243929Y97162D01*
X243858Y97160D01*
X243787Y97168D01*
X243736Y97157D01*
X243684Y97156D01*
X243616Y97131D01*
X243546Y97116D01*
X243501Y97089D01*
X243453Y97071D01*
X243397Y97027D01*
X243335Y96990D01*
X243301Y96950D01*
X243261Y96918D01*
X243222Y96857D01*
X243175Y96803D01*
X243156Y96755D01*
X243128Y96711D01*
X243110Y96641D01*
X243083Y96575D01*
X243075Y96503D01*
X243067Y96472D01*
X243069Y96449D01*
X243065Y96408D01*
X243065Y90599D01*
X243079Y90509D01*
X243087Y90418D01*
X243099Y90388D01*
X243104Y90356D01*
X243147Y90276D01*
X243183Y90192D01*
X243209Y90159D01*
X243220Y90139D01*
X243243Y90117D01*
X243288Y90061D01*
X245953Y87396D01*
X246027Y87343D01*
X246096Y87283D01*
X246126Y87271D01*
X246152Y87252D01*
X246240Y87225D01*
X246324Y87191D01*
X246365Y87187D01*
X246388Y87180D01*
X246420Y87181D01*
X246491Y87173D01*
X248307Y87173D01*
X250723Y86172D01*
X252572Y84323D01*
X253573Y81907D01*
X253573Y80826D01*
X253576Y80806D01*
X253574Y80787D01*
X253596Y80685D01*
X253612Y80583D01*
X253622Y80566D01*
X253626Y80546D01*
X253679Y80457D01*
X253728Y80366D01*
X253742Y80352D01*
X253752Y80335D01*
X253831Y80268D01*
X253906Y80196D01*
X253924Y80188D01*
X253939Y80175D01*
X254035Y80136D01*
X254129Y80093D01*
X254149Y80091D01*
X254167Y80083D01*
X254334Y80065D01*
X398666Y80065D01*
X398686Y80068D01*
X398705Y80066D01*
X398807Y80088D01*
X398909Y80104D01*
X398926Y80114D01*
X398946Y80118D01*
X399035Y80171D01*
X399126Y80220D01*
X399140Y80234D01*
X399157Y80244D01*
X399224Y80323D01*
X399296Y80398D01*
X399304Y80416D01*
X399317Y80431D01*
X399356Y80527D01*
X399399Y80621D01*
X399401Y80641D01*
X399409Y80659D01*
X399427Y80826D01*
X399427Y82307D01*
X400428Y84723D01*
X402277Y86572D01*
X404693Y87573D01*
X407307Y87573D01*
X409723Y86572D01*
X411572Y84723D01*
X412573Y82307D01*
X412573Y79693D01*
X411572Y77277D01*
X409723Y75428D01*
X409548Y75355D01*
X409465Y75304D01*
X409379Y75258D01*
X409361Y75240D01*
X409339Y75226D01*
X409277Y75151D01*
X409210Y75080D01*
X409199Y75056D01*
X409182Y75036D01*
X409147Y74945D01*
X409106Y74857D01*
X409103Y74831D01*
X409094Y74807D01*
X409090Y74709D01*
X409079Y74613D01*
X409084Y74587D01*
X409083Y74561D01*
X409110Y74467D01*
X409131Y74372D01*
X409145Y74350D01*
X409152Y74325D01*
X409207Y74245D01*
X409257Y74161D01*
X409277Y74144D01*
X409292Y74123D01*
X409370Y74064D01*
X409444Y74001D01*
X409468Y73991D01*
X409489Y73976D01*
X409582Y73946D01*
X409672Y73909D01*
X409705Y73906D01*
X409723Y73900D01*
X409756Y73900D01*
X409839Y73891D01*
X473042Y73891D01*
X473113Y73902D01*
X473185Y73904D01*
X473234Y73922D01*
X473285Y73930D01*
X473348Y73964D01*
X473416Y73989D01*
X473456Y74021D01*
X473502Y74046D01*
X473552Y74098D01*
X473608Y74142D01*
X473636Y74186D01*
X473672Y74224D01*
X473702Y74289D01*
X473741Y74349D01*
X473753Y74400D01*
X473775Y74447D01*
X473783Y74518D01*
X473801Y74588D01*
X473797Y74640D01*
X473802Y74691D01*
X473787Y74762D01*
X473782Y74833D01*
X473761Y74881D01*
X473750Y74932D01*
X473713Y74993D01*
X473685Y75059D01*
X473641Y75115D01*
X473624Y75143D01*
X473606Y75158D01*
X473581Y75190D01*
X393779Y154991D01*
X393706Y155044D01*
X393636Y155104D01*
X393606Y155116D01*
X393580Y155135D01*
X393493Y155162D01*
X393408Y155196D01*
X393367Y155200D01*
X393345Y155207D01*
X393312Y155206D01*
X393241Y155214D01*
X219586Y155214D01*
X219490Y155199D01*
X219393Y155189D01*
X219369Y155179D01*
X219343Y155175D01*
X219257Y155129D01*
X219168Y155089D01*
X219149Y155072D01*
X219126Y155059D01*
X219059Y154989D01*
X218987Y154923D01*
X218974Y154900D01*
X218956Y154881D01*
X218915Y154793D01*
X218868Y154707D01*
X218864Y154682D01*
X218853Y154658D01*
X218842Y154561D01*
X218824Y154465D01*
X218828Y154439D01*
X218825Y154414D01*
X218846Y154319D01*
X218860Y154222D01*
X218872Y154199D01*
X218878Y154173D01*
X218928Y154090D01*
X218972Y154003D01*
X218990Y153984D01*
X219004Y153962D01*
X219078Y153899D01*
X219147Y153831D01*
X219176Y153815D01*
X219191Y153802D01*
X219222Y153790D01*
X219294Y153750D01*
X219723Y153572D01*
X221008Y152288D01*
X221082Y152235D01*
X221151Y152175D01*
X221181Y152163D01*
X221207Y152144D01*
X221294Y152117D01*
X221379Y152083D01*
X221420Y152079D01*
X221442Y152072D01*
X221475Y152073D01*
X221546Y152065D01*
X365684Y152065D01*
X382065Y135684D01*
X382065Y104546D01*
X382079Y104456D01*
X382087Y104365D01*
X382099Y104335D01*
X382104Y104303D01*
X382147Y104222D01*
X382183Y104139D01*
X382209Y104106D01*
X382220Y104086D01*
X382243Y104064D01*
X382288Y104008D01*
X383572Y102723D01*
X384573Y100307D01*
X384573Y97693D01*
X383572Y95277D01*
X381723Y93428D01*
X379307Y92427D01*
X376693Y92427D01*
X374277Y93428D01*
X372428Y95277D01*
X371427Y97693D01*
X371427Y100307D01*
X372428Y102723D01*
X373712Y104008D01*
X373765Y104082D01*
X373825Y104151D01*
X373837Y104181D01*
X373856Y104207D01*
X373883Y104294D01*
X373917Y104379D01*
X373921Y104420D01*
X373928Y104442D01*
X373927Y104475D01*
X373935Y104546D01*
X373935Y132001D01*
X373921Y132091D01*
X373913Y132182D01*
X373901Y132212D01*
X373896Y132244D01*
X373853Y132324D01*
X373817Y132408D01*
X373791Y132440D01*
X373780Y132461D01*
X373757Y132483D01*
X373712Y132539D01*
X362539Y143712D01*
X362465Y143765D01*
X362396Y143825D01*
X362366Y143837D01*
X362340Y143856D01*
X362253Y143883D01*
X362168Y143917D01*
X362127Y143921D01*
X362104Y143928D01*
X362072Y143927D01*
X362001Y143935D01*
X221546Y143935D01*
X221456Y143921D01*
X221365Y143913D01*
X221335Y143901D01*
X221303Y143896D01*
X221222Y143853D01*
X221139Y143817D01*
X221106Y143791D01*
X221086Y143780D01*
X221064Y143757D01*
X221008Y143712D01*
X219723Y142428D01*
X217307Y141427D01*
X214693Y141427D01*
X212277Y142428D01*
X210428Y144277D01*
X209427Y146693D01*
X209427Y149307D01*
X210428Y151723D01*
X212277Y153572D01*
X212706Y153750D01*
X212788Y153801D01*
X212874Y153847D01*
X212892Y153866D01*
X212915Y153879D01*
X212977Y153954D01*
X213044Y154025D01*
X213055Y154049D01*
X213072Y154069D01*
X213106Y154160D01*
X213147Y154248D01*
X213150Y154274D01*
X213160Y154298D01*
X213164Y154396D01*
X213175Y154492D01*
X213169Y154518D01*
X213170Y154544D01*
X213143Y154638D01*
X213122Y154733D01*
X213109Y154755D01*
X213102Y154780D01*
X213046Y154860D01*
X212996Y154944D01*
X212976Y154961D01*
X212961Y154982D01*
X212883Y155040D01*
X212809Y155104D01*
X212785Y155114D01*
X212764Y155129D01*
X212671Y155159D01*
X212581Y155196D01*
X212549Y155199D01*
X212530Y155205D01*
X212497Y155205D01*
X212414Y155214D01*
X211869Y155214D01*
X211779Y155200D01*
X211688Y155192D01*
X211658Y155180D01*
X211626Y155175D01*
X211545Y155132D01*
X211461Y155096D01*
X211429Y155070D01*
X211409Y155059D01*
X211386Y155036D01*
X211331Y154991D01*
X183566Y127226D01*
X183546Y127226D01*
X183497Y127208D01*
X183445Y127200D01*
X183382Y127166D01*
X183315Y127141D01*
X183274Y127109D01*
X183228Y127084D01*
X183179Y127033D01*
X183123Y126988D01*
X183094Y126944D01*
X183058Y126906D01*
X183028Y126841D01*
X182990Y126781D01*
X182977Y126730D01*
X182955Y126683D01*
X182947Y126612D01*
X182929Y126542D01*
X182934Y126490D01*
X182928Y126439D01*
X182943Y126368D01*
X182949Y126297D01*
X182969Y126249D01*
X182980Y126198D01*
X183017Y126137D01*
X183045Y126071D01*
X183090Y126015D01*
X183106Y125987D01*
X183124Y125972D01*
X183150Y125940D01*
X183714Y125376D01*
X185261Y121641D01*
X185261Y102359D01*
X183714Y98624D01*
X180856Y95766D01*
X177121Y94219D01*
X173079Y94219D01*
X169344Y95766D01*
X166486Y98624D01*
X164939Y102359D01*
X164939Y121641D01*
X166486Y125376D01*
X167000Y125890D01*
X167042Y125948D01*
X167092Y126000D01*
X167113Y126047D01*
X167144Y126089D01*
X167165Y126158D01*
X167195Y126223D01*
X167201Y126275D01*
X167216Y126325D01*
X167214Y126396D01*
X167222Y126467D01*
X167211Y126518D01*
X167210Y126570D01*
X167185Y126638D01*
X167170Y126708D01*
X167143Y126753D01*
X167125Y126801D01*
X167081Y126857D01*
X167044Y126919D01*
X167004Y126953D01*
X166972Y126993D01*
X166911Y127032D01*
X166857Y127079D01*
X166809Y127098D01*
X166765Y127126D01*
X166695Y127144D01*
X166629Y127171D01*
X166557Y127179D01*
X166526Y127187D01*
X166503Y127185D01*
X166462Y127189D01*
X144094Y127189D01*
X144004Y127175D01*
X143913Y127167D01*
X143883Y127155D01*
X143851Y127150D01*
X143770Y127107D01*
X143686Y127071D01*
X143654Y127045D01*
X143634Y127034D01*
X143611Y127011D01*
X143556Y126966D01*
X109396Y92806D01*
X109343Y92733D01*
X109283Y92663D01*
X109271Y92633D01*
X109252Y92607D01*
X109225Y92520D01*
X109191Y92435D01*
X109187Y92394D01*
X109180Y92372D01*
X109181Y92339D01*
X109173Y92268D01*
X109173Y90093D01*
X108172Y87677D01*
X106323Y85828D01*
X103907Y84827D01*
X101293Y84827D01*
X98877Y85828D01*
X97028Y87677D01*
X96027Y90093D01*
X96027Y92707D01*
X97028Y95123D01*
X98877Y96972D01*
X101293Y97973D01*
X103468Y97973D01*
X103558Y97987D01*
X103649Y97995D01*
X103679Y98007D01*
X103711Y98012D01*
X103792Y98055D01*
X103876Y98091D01*
X103908Y98117D01*
X103928Y98128D01*
X103951Y98151D01*
X104006Y98196D01*
X138166Y132356D01*
X139701Y133890D01*
X139742Y133948D01*
X139792Y134000D01*
X139814Y134047D01*
X139844Y134089D01*
X139865Y134158D01*
X139895Y134223D01*
X139901Y134275D01*
X139916Y134325D01*
X139915Y134396D01*
X139922Y134467D01*
X139911Y134518D01*
X139910Y134570D01*
X139885Y134638D01*
X139870Y134708D01*
X139844Y134753D01*
X139826Y134801D01*
X139781Y134857D01*
X139744Y134919D01*
X139704Y134953D01*
X139672Y134993D01*
X139612Y135032D01*
X139557Y135079D01*
X139509Y135098D01*
X139465Y135126D01*
X139396Y135144D01*
X139329Y135171D01*
X139258Y135179D01*
X139226Y135187D01*
X139203Y135185D01*
X139162Y135189D01*
X113173Y135189D01*
X113077Y135174D01*
X112980Y135164D01*
X112956Y135154D01*
X112930Y135150D01*
X112844Y135104D01*
X112755Y135064D01*
X112736Y135047D01*
X112712Y135034D01*
X112645Y134964D01*
X112574Y134898D01*
X112561Y134875D01*
X112543Y134856D01*
X112502Y134768D01*
X112455Y134682D01*
X112450Y134657D01*
X112439Y134633D01*
X112429Y134536D01*
X112411Y134440D01*
X112415Y134414D01*
X112412Y134389D01*
X112433Y134293D01*
X112447Y134197D01*
X112459Y134174D01*
X112465Y134148D01*
X112515Y134065D01*
X112559Y133978D01*
X112577Y133959D01*
X112591Y133937D01*
X112665Y133874D01*
X112734Y133806D01*
X112763Y133790D01*
X112778Y133777D01*
X112808Y133765D01*
X112881Y133725D01*
X114356Y133114D01*
X116204Y131265D01*
X117205Y128849D01*
X117205Y126235D01*
X116204Y123819D01*
X114356Y121970D01*
X111940Y120969D01*
X109764Y120969D01*
X109674Y120955D01*
X109583Y120947D01*
X109553Y120935D01*
X109521Y120930D01*
X109441Y120887D01*
X109357Y120851D01*
X109325Y120825D01*
X109304Y120814D01*
X109282Y120791D01*
X109226Y120746D01*
X87034Y98554D01*
X86981Y98480D01*
X86921Y98411D01*
X86909Y98381D01*
X86890Y98354D01*
X86863Y98267D01*
X86829Y98183D01*
X86825Y98142D01*
X86818Y98119D01*
X86819Y98087D01*
X86811Y98016D01*
X86811Y91800D01*
X86825Y91710D01*
X86833Y91619D01*
X86845Y91589D01*
X86850Y91557D01*
X86893Y91476D01*
X86929Y91393D01*
X86955Y91360D01*
X86966Y91340D01*
X86989Y91318D01*
X87034Y91262D01*
X88572Y89723D01*
X89573Y87307D01*
X89573Y84693D01*
X88572Y82277D01*
X86723Y80428D01*
X84307Y79427D01*
X81693Y79427D01*
X79277Y80428D01*
X77428Y82277D01*
X76427Y84693D01*
X76427Y87307D01*
X77428Y89723D01*
X78966Y91262D01*
X79019Y91336D01*
X79079Y91405D01*
X79091Y91435D01*
X79110Y91461D01*
X79137Y91548D01*
X79171Y91633D01*
X79175Y91674D01*
X79182Y91696D01*
X79181Y91728D01*
X79189Y91800D01*
X79189Y101488D01*
X80195Y102494D01*
X80222Y102531D01*
X80256Y102562D01*
X80293Y102631D01*
X80339Y102694D01*
X80352Y102738D01*
X80374Y102778D01*
X80388Y102855D01*
X80411Y102929D01*
X80410Y102975D01*
X80418Y103020D01*
X80407Y103097D01*
X80405Y103175D01*
X80389Y103218D01*
X80382Y103263D01*
X80347Y103333D01*
X80320Y103406D01*
X80292Y103442D01*
X80271Y103483D01*
X80215Y103537D01*
X80167Y103598D01*
X80128Y103623D01*
X80095Y103655D01*
X79975Y103721D01*
X79960Y103731D01*
X79955Y103732D01*
X79948Y103736D01*
X78277Y104428D01*
X76428Y106277D01*
X75427Y108693D01*
X75427Y111307D01*
X76428Y113723D01*
X77966Y115262D01*
X78019Y115336D01*
X78079Y115405D01*
X78091Y115435D01*
X78110Y115461D01*
X78137Y115548D01*
X78171Y115633D01*
X78175Y115674D01*
X78182Y115696D01*
X78181Y115729D01*
X78189Y115800D01*
X78189Y124578D01*
X96422Y142811D01*
X172200Y142811D01*
X172290Y142825D01*
X172381Y142833D01*
X172411Y142845D01*
X172443Y142850D01*
X172524Y142893D01*
X172607Y142929D01*
X172640Y142955D01*
X172660Y142966D01*
X172682Y142989D01*
X172738Y143034D01*
X174277Y144572D01*
X176693Y145573D01*
X179307Y145573D01*
X181723Y144572D01*
X183572Y142723D01*
X184516Y140444D01*
X184540Y140405D01*
X184556Y140362D01*
X184605Y140301D01*
X184646Y140235D01*
X184681Y140206D01*
X184710Y140170D01*
X184775Y140128D01*
X184835Y140078D01*
X184878Y140062D01*
X184917Y140037D01*
X184992Y140018D01*
X185065Y139990D01*
X185111Y139988D01*
X185155Y139977D01*
X185233Y139983D01*
X185311Y139979D01*
X185355Y139992D01*
X185400Y139996D01*
X185472Y140026D01*
X185547Y140048D01*
X185585Y140074D01*
X185627Y140092D01*
X185733Y140178D01*
X185749Y140188D01*
X185752Y140192D01*
X185758Y140197D01*
X205941Y160380D01*
X206548Y160987D01*
X206559Y161003D01*
X206575Y161015D01*
X206631Y161102D01*
X206691Y161186D01*
X206697Y161205D01*
X206708Y161222D01*
X206733Y161323D01*
X206763Y161422D01*
X206763Y161441D01*
X206768Y161461D01*
X206760Y161564D01*
X206757Y161667D01*
X206750Y161686D01*
X206749Y161706D01*
X206708Y161801D01*
X206673Y161898D01*
X206660Y161914D01*
X206652Y161932D01*
X206548Y162063D01*
X205861Y162749D01*
X205861Y162750D01*
X156644Y211966D01*
X156571Y212019D01*
X156501Y212079D01*
X156471Y212091D01*
X156445Y212110D01*
X156358Y212137D01*
X156273Y212171D01*
X156232Y212175D01*
X156210Y212182D01*
X156177Y212181D01*
X156106Y212189D01*
X73894Y212189D01*
X73804Y212175D01*
X73713Y212167D01*
X73683Y212155D01*
X73651Y212150D01*
X73570Y212107D01*
X73486Y212071D01*
X73454Y212045D01*
X73434Y212034D01*
X73411Y212011D01*
X73356Y211966D01*
X47796Y186407D01*
X47743Y186333D01*
X47683Y186263D01*
X47671Y186233D01*
X47652Y186207D01*
X47625Y186120D01*
X47591Y186035D01*
X47587Y185994D01*
X47580Y185972D01*
X47581Y185940D01*
X47573Y185868D01*
X47573Y183693D01*
X46572Y181277D01*
X44723Y179428D01*
X42307Y178427D01*
X39693Y178427D01*
X37277Y179428D01*
X36380Y180324D01*
X36322Y180366D01*
X36270Y180416D01*
X36223Y180438D01*
X36181Y180468D01*
X36112Y180489D01*
X36047Y180519D01*
X35995Y180525D01*
X35945Y180540D01*
X35874Y180539D01*
X35803Y180546D01*
X35752Y180535D01*
X35700Y180534D01*
X35632Y180509D01*
X35562Y180494D01*
X35517Y180467D01*
X35469Y180450D01*
X35413Y180405D01*
X35351Y180368D01*
X35317Y180328D01*
X35277Y180296D01*
X35238Y180236D01*
X35191Y180181D01*
X35172Y180133D01*
X35144Y180089D01*
X35126Y180019D01*
X35099Y179953D01*
X35091Y179882D01*
X35083Y179850D01*
X35085Y179827D01*
X35081Y179786D01*
X35081Y161308D01*
X35092Y161237D01*
X35094Y161165D01*
X35112Y161116D01*
X35120Y161065D01*
X35154Y161002D01*
X35179Y160934D01*
X35211Y160894D01*
X35236Y160848D01*
X35288Y160798D01*
X35332Y160742D01*
X35376Y160714D01*
X35414Y160678D01*
X35479Y160648D01*
X35539Y160609D01*
X35590Y160597D01*
X35637Y160575D01*
X35708Y160567D01*
X35778Y160549D01*
X35830Y160553D01*
X35881Y160548D01*
X35952Y160563D01*
X36023Y160568D01*
X36071Y160589D01*
X36122Y160600D01*
X36183Y160637D01*
X36249Y160665D01*
X36305Y160709D01*
X36333Y160726D01*
X36348Y160744D01*
X36380Y160769D01*
X50966Y175356D01*
X53422Y177811D01*
X134713Y177811D01*
X134828Y177830D01*
X134944Y177847D01*
X134949Y177849D01*
X134956Y177850D01*
X135058Y177905D01*
X135163Y177958D01*
X135168Y177963D01*
X135173Y177966D01*
X135253Y178050D01*
X135335Y178134D01*
X135339Y178140D01*
X135342Y178144D01*
X135350Y178161D01*
X135416Y178281D01*
X136428Y180723D01*
X137666Y181962D01*
X137678Y181978D01*
X137694Y181990D01*
X137750Y182078D01*
X137810Y182161D01*
X137816Y182180D01*
X137827Y182197D01*
X137852Y182298D01*
X137882Y182397D01*
X137882Y182416D01*
X137887Y182436D01*
X137879Y182539D01*
X137876Y182642D01*
X137869Y182661D01*
X137868Y182681D01*
X137827Y182776D01*
X137792Y182873D01*
X137779Y182889D01*
X137771Y182907D01*
X137666Y183038D01*
X136538Y184166D01*
X136522Y184178D01*
X136510Y184194D01*
X136423Y184250D01*
X136339Y184310D01*
X136319Y184316D01*
X136303Y184327D01*
X136202Y184352D01*
X136103Y184382D01*
X136084Y184382D01*
X136064Y184387D01*
X135961Y184379D01*
X135858Y184376D01*
X135839Y184369D01*
X135819Y184368D01*
X135724Y184327D01*
X135627Y184292D01*
X135611Y184279D01*
X135593Y184271D01*
X135462Y184166D01*
X133723Y182428D01*
X131307Y181427D01*
X128693Y181427D01*
X126277Y182428D01*
X124738Y183966D01*
X124664Y184019D01*
X124595Y184079D01*
X124565Y184091D01*
X124539Y184110D01*
X124484Y184127D01*
X114690Y193921D01*
X114616Y193974D01*
X114546Y194034D01*
X114516Y194046D01*
X114490Y194065D01*
X114403Y194091D01*
X114318Y194126D01*
X114277Y194130D01*
X114255Y194137D01*
X114223Y194136D01*
X114151Y194144D01*
X96755Y194144D01*
X96665Y194129D01*
X96574Y194122D01*
X96544Y194110D01*
X96512Y194104D01*
X96431Y194062D01*
X96347Y194026D01*
X96315Y194000D01*
X96295Y193989D01*
X96272Y193966D01*
X96216Y193921D01*
X94678Y192383D01*
X92262Y191382D01*
X89647Y191382D01*
X87232Y192383D01*
X85383Y194232D01*
X84382Y196647D01*
X84382Y199262D01*
X85383Y201678D01*
X87232Y203527D01*
X89647Y204528D01*
X92262Y204528D01*
X94678Y203527D01*
X96216Y201989D01*
X96290Y201935D01*
X96360Y201876D01*
X96390Y201864D01*
X96416Y201845D01*
X96503Y201818D01*
X96588Y201784D01*
X96629Y201780D01*
X96651Y201773D01*
X96683Y201773D01*
X96755Y201766D01*
X117624Y201766D01*
X120079Y199310D01*
X125592Y193797D01*
X125686Y193730D01*
X125781Y193659D01*
X125787Y193657D01*
X125792Y193654D01*
X125903Y193619D01*
X126015Y193583D01*
X126021Y193583D01*
X126027Y193581D01*
X126144Y193584D01*
X126261Y193585D01*
X126268Y193587D01*
X126273Y193588D01*
X126290Y193594D01*
X126422Y193632D01*
X128693Y194573D01*
X131307Y194573D01*
X133723Y193572D01*
X135462Y191834D01*
X135478Y191822D01*
X135490Y191806D01*
X135578Y191750D01*
X135661Y191690D01*
X135680Y191684D01*
X135697Y191673D01*
X135798Y191648D01*
X135897Y191618D01*
X135916Y191618D01*
X135936Y191613D01*
X136039Y191621D01*
X136142Y191624D01*
X136161Y191631D01*
X136181Y191632D01*
X136276Y191673D01*
X136373Y191708D01*
X136389Y191721D01*
X136407Y191729D01*
X136538Y191834D01*
X138277Y193572D01*
X140693Y194573D01*
X143307Y194573D01*
X145723Y193572D01*
X147572Y191723D01*
X148573Y189307D01*
X148573Y186693D01*
X147572Y184277D01*
X146334Y183038D01*
X146322Y183022D01*
X146306Y183010D01*
X146250Y182922D01*
X146190Y182839D01*
X146184Y182820D01*
X146173Y182803D01*
X146148Y182702D01*
X146118Y182603D01*
X146118Y182584D01*
X146113Y182564D01*
X146121Y182461D01*
X146124Y182358D01*
X146131Y182339D01*
X146132Y182319D01*
X146173Y182224D01*
X146208Y182127D01*
X146221Y182111D01*
X146229Y182093D01*
X146334Y181962D01*
X147572Y180723D01*
X148573Y178307D01*
X148573Y175693D01*
X147572Y173277D01*
X145723Y171428D01*
X143307Y170427D01*
X141132Y170427D01*
X141042Y170413D01*
X140951Y170405D01*
X140921Y170393D01*
X140889Y170388D01*
X140808Y170345D01*
X140724Y170309D01*
X140692Y170283D01*
X140672Y170272D01*
X140649Y170249D01*
X140594Y170204D01*
X140578Y170189D01*
X56894Y170189D01*
X56804Y170175D01*
X56713Y170167D01*
X56683Y170155D01*
X56651Y170150D01*
X56571Y170107D01*
X56487Y170071D01*
X56454Y170045D01*
X56434Y170034D01*
X56412Y170011D01*
X56356Y169966D01*
X56262Y169872D01*
X56220Y169814D01*
X56170Y169762D01*
X56148Y169715D01*
X56118Y169673D01*
X56097Y169604D01*
X56067Y169539D01*
X56061Y169487D01*
X56046Y169438D01*
X56047Y169366D01*
X56040Y169295D01*
X56051Y169244D01*
X56052Y169192D01*
X56077Y169124D01*
X56092Y169054D01*
X56119Y169009D01*
X56136Y168961D01*
X56181Y168905D01*
X56218Y168843D01*
X56258Y168809D01*
X56290Y168769D01*
X56350Y168730D01*
X56405Y168683D01*
X56453Y168664D01*
X56497Y168636D01*
X56566Y168618D01*
X56633Y168591D01*
X56704Y168583D01*
X56735Y168575D01*
X56759Y168577D01*
X56800Y168573D01*
X57307Y168573D01*
X59723Y167572D01*
X61572Y165723D01*
X62573Y163307D01*
X62573Y160693D01*
X61572Y158277D01*
X59723Y156428D01*
X57307Y155427D01*
X55132Y155427D01*
X55042Y155413D01*
X54951Y155405D01*
X54921Y155393D01*
X54889Y155388D01*
X54808Y155345D01*
X54724Y155309D01*
X54692Y155283D01*
X54672Y155272D01*
X54649Y155249D01*
X54594Y155204D01*
X49034Y149644D01*
X48981Y149571D01*
X48921Y149501D01*
X48909Y149471D01*
X48890Y149445D01*
X48863Y149358D01*
X48829Y149273D01*
X48825Y149232D01*
X48818Y149210D01*
X48819Y149177D01*
X48811Y149106D01*
X48811Y112873D01*
X48830Y112758D01*
X48847Y112642D01*
X48849Y112636D01*
X48850Y112630D01*
X48905Y112527D01*
X48958Y112423D01*
X48963Y112418D01*
X48966Y112413D01*
X49050Y112333D01*
X49134Y112250D01*
X49140Y112247D01*
X49144Y112243D01*
X49161Y112236D01*
X49281Y112170D01*
X50723Y111572D01*
X52572Y109723D01*
X53573Y107307D01*
X53573Y104693D01*
X52572Y102277D01*
X50723Y100428D01*
X48307Y99427D01*
X46446Y99427D01*
X46426Y99424D01*
X46407Y99426D01*
X46305Y99404D01*
X46203Y99388D01*
X46186Y99378D01*
X46166Y99374D01*
X46077Y99321D01*
X45986Y99272D01*
X45972Y99258D01*
X45955Y99248D01*
X45888Y99169D01*
X45816Y99094D01*
X45808Y99076D01*
X45795Y99061D01*
X45756Y98965D01*
X45713Y98871D01*
X45711Y98851D01*
X45703Y98833D01*
X45685Y98666D01*
X45685Y96693D01*
X44684Y94277D01*
X42835Y92428D01*
X40419Y91427D01*
X37805Y91427D01*
X36133Y92120D01*
X36089Y92130D01*
X36047Y92149D01*
X35970Y92158D01*
X35894Y92176D01*
X35848Y92171D01*
X35803Y92176D01*
X35726Y92160D01*
X35649Y92153D01*
X35607Y92134D01*
X35562Y92124D01*
X35495Y92084D01*
X35424Y92053D01*
X35390Y92022D01*
X35351Y91998D01*
X35300Y91939D01*
X35243Y91886D01*
X35221Y91846D01*
X35191Y91811D01*
X35162Y91739D01*
X35125Y91671D01*
X35116Y91626D01*
X35099Y91583D01*
X35084Y91447D01*
X35081Y91429D01*
X35082Y91424D01*
X35081Y91416D01*
X35081Y5842D01*
X35084Y5822D01*
X35082Y5803D01*
X35104Y5701D01*
X35120Y5599D01*
X35130Y5582D01*
X35134Y5562D01*
X35187Y5473D01*
X35236Y5382D01*
X35250Y5368D01*
X35260Y5351D01*
X35339Y5284D01*
X35414Y5212D01*
X35432Y5204D01*
X35447Y5191D01*
X35543Y5152D01*
X35637Y5109D01*
X35657Y5107D01*
X35675Y5099D01*
X35842Y5081D01*
X78786Y5081D01*
X78857Y5092D01*
G37*
G36*
X1392194Y12576D02*
X1392194Y12576D01*
X1392213Y12574D01*
X1392315Y12596D01*
X1392417Y12612D01*
X1392434Y12622D01*
X1392454Y12626D01*
X1392543Y12679D01*
X1392634Y12728D01*
X1392648Y12742D01*
X1392665Y12752D01*
X1392732Y12831D01*
X1392804Y12906D01*
X1392812Y12924D01*
X1392825Y12939D01*
X1392864Y13035D01*
X1392907Y13129D01*
X1392909Y13149D01*
X1392917Y13167D01*
X1392935Y13334D01*
X1392935Y34684D01*
X1421316Y63065D01*
X1426454Y63065D01*
X1426544Y63079D01*
X1426635Y63087D01*
X1426665Y63099D01*
X1426697Y63104D01*
X1426778Y63147D01*
X1426861Y63183D01*
X1426894Y63209D01*
X1426914Y63220D01*
X1426936Y63243D01*
X1426992Y63288D01*
X1428277Y64572D01*
X1430693Y65573D01*
X1433307Y65573D01*
X1435723Y64572D01*
X1437572Y62723D01*
X1438573Y60307D01*
X1438573Y57693D01*
X1437572Y55277D01*
X1435723Y53428D01*
X1433307Y52427D01*
X1430693Y52427D01*
X1428277Y53428D01*
X1426992Y54712D01*
X1426918Y54765D01*
X1426849Y54825D01*
X1426819Y54837D01*
X1426793Y54856D01*
X1426706Y54883D01*
X1426621Y54917D01*
X1426580Y54921D01*
X1426558Y54928D01*
X1426525Y54927D01*
X1426454Y54935D01*
X1424999Y54935D01*
X1424909Y54921D01*
X1424818Y54913D01*
X1424788Y54901D01*
X1424756Y54896D01*
X1424676Y54853D01*
X1424592Y54817D01*
X1424560Y54791D01*
X1424539Y54780D01*
X1424517Y54757D01*
X1424461Y54712D01*
X1401288Y31539D01*
X1401235Y31465D01*
X1401175Y31396D01*
X1401163Y31366D01*
X1401144Y31340D01*
X1401117Y31253D01*
X1401083Y31168D01*
X1401079Y31127D01*
X1401072Y31104D01*
X1401073Y31072D01*
X1401065Y31001D01*
X1401065Y13334D01*
X1401068Y13314D01*
X1401066Y13295D01*
X1401088Y13193D01*
X1401104Y13091D01*
X1401114Y13074D01*
X1401118Y13054D01*
X1401171Y12965D01*
X1401220Y12874D01*
X1401234Y12860D01*
X1401244Y12843D01*
X1401323Y12776D01*
X1401398Y12704D01*
X1401416Y12696D01*
X1401431Y12683D01*
X1401527Y12644D01*
X1401621Y12601D01*
X1401641Y12599D01*
X1401659Y12591D01*
X1401826Y12573D01*
X1468791Y12573D01*
X1468881Y12587D01*
X1468972Y12595D01*
X1469001Y12607D01*
X1469033Y12612D01*
X1469114Y12655D01*
X1469198Y12691D01*
X1469230Y12717D01*
X1469251Y12728D01*
X1469273Y12751D01*
X1469329Y12796D01*
X1475169Y18636D01*
X1475211Y18694D01*
X1475260Y18746D01*
X1475282Y18793D01*
X1475312Y18835D01*
X1475334Y18904D01*
X1475364Y18969D01*
X1475369Y19021D01*
X1475385Y19071D01*
X1475383Y19142D01*
X1475391Y19213D01*
X1475380Y19264D01*
X1475378Y19316D01*
X1475354Y19384D01*
X1475339Y19454D01*
X1475312Y19499D01*
X1475294Y19547D01*
X1475249Y19603D01*
X1475212Y19665D01*
X1475173Y19699D01*
X1475140Y19739D01*
X1475080Y19778D01*
X1475026Y19825D01*
X1474977Y19844D01*
X1474933Y19872D01*
X1474864Y19890D01*
X1474797Y19917D01*
X1474726Y19925D01*
X1474695Y19933D01*
X1474672Y19931D01*
X1474631Y19935D01*
X1426353Y19935D01*
X1426239Y19916D01*
X1426123Y19899D01*
X1426117Y19897D01*
X1426111Y19896D01*
X1426008Y19841D01*
X1425903Y19788D01*
X1425899Y19783D01*
X1425893Y19780D01*
X1425814Y19696D01*
X1425731Y19612D01*
X1425727Y19606D01*
X1425724Y19602D01*
X1425716Y19585D01*
X1425650Y19465D01*
X1425572Y19277D01*
X1423723Y17428D01*
X1421307Y16427D01*
X1418693Y16427D01*
X1416277Y17428D01*
X1414428Y19277D01*
X1413427Y21693D01*
X1413427Y24307D01*
X1414428Y26723D01*
X1416277Y28572D01*
X1418693Y29573D01*
X1421307Y29573D01*
X1423723Y28572D01*
X1424008Y28288D01*
X1424082Y28235D01*
X1424151Y28175D01*
X1424181Y28163D01*
X1424207Y28144D01*
X1424294Y28117D01*
X1424379Y28083D01*
X1424420Y28079D01*
X1424442Y28072D01*
X1424475Y28073D01*
X1424546Y28065D01*
X1472001Y28065D01*
X1472091Y28079D01*
X1472182Y28087D01*
X1472212Y28099D01*
X1472244Y28104D01*
X1472324Y28147D01*
X1472408Y28183D01*
X1472440Y28209D01*
X1472461Y28220D01*
X1472483Y28243D01*
X1472539Y28288D01*
X1499812Y55561D01*
X1499856Y55622D01*
X1499889Y55656D01*
X1499895Y55669D01*
X1499925Y55704D01*
X1499937Y55734D01*
X1499956Y55760D01*
X1499983Y55847D01*
X1500017Y55932D01*
X1500021Y55973D01*
X1500028Y55996D01*
X1500027Y56028D01*
X1500035Y56099D01*
X1500035Y61982D01*
X1500020Y62078D01*
X1500010Y62175D01*
X1500000Y62199D01*
X1499996Y62225D01*
X1499950Y62311D01*
X1499910Y62400D01*
X1499893Y62419D01*
X1499880Y62442D01*
X1499810Y62509D01*
X1499744Y62581D01*
X1499721Y62594D01*
X1499702Y62612D01*
X1499614Y62653D01*
X1499528Y62700D01*
X1499503Y62704D01*
X1499479Y62715D01*
X1499382Y62726D01*
X1499286Y62743D01*
X1499260Y62740D01*
X1499235Y62742D01*
X1499139Y62722D01*
X1499043Y62708D01*
X1499020Y62696D01*
X1498994Y62690D01*
X1498911Y62640D01*
X1498824Y62596D01*
X1498805Y62577D01*
X1498783Y62564D01*
X1498720Y62490D01*
X1498652Y62420D01*
X1498636Y62392D01*
X1498623Y62377D01*
X1498611Y62346D01*
X1498573Y62278D01*
X1496723Y60428D01*
X1494307Y59427D01*
X1491693Y59427D01*
X1489277Y60428D01*
X1487428Y62277D01*
X1486427Y64693D01*
X1486427Y66868D01*
X1486413Y66958D01*
X1486405Y67049D01*
X1486393Y67079D01*
X1486388Y67111D01*
X1486345Y67192D01*
X1486309Y67276D01*
X1486283Y67308D01*
X1486272Y67328D01*
X1486249Y67351D01*
X1486204Y67406D01*
X1468189Y85422D01*
X1468189Y118106D01*
X1468175Y118196D01*
X1468167Y118287D01*
X1468155Y118317D01*
X1468150Y118349D01*
X1468107Y118430D01*
X1468071Y118514D01*
X1468045Y118546D01*
X1468034Y118566D01*
X1468011Y118589D01*
X1467966Y118644D01*
X1453644Y132966D01*
X1453571Y133019D01*
X1453501Y133079D01*
X1453471Y133091D01*
X1453445Y133110D01*
X1453358Y133137D01*
X1453273Y133171D01*
X1453232Y133175D01*
X1453210Y133182D01*
X1453177Y133181D01*
X1453106Y133189D01*
X1440548Y133189D01*
X1440452Y133174D01*
X1440355Y133164D01*
X1440331Y133154D01*
X1440305Y133150D01*
X1440219Y133104D01*
X1440130Y133064D01*
X1440111Y133047D01*
X1440087Y133034D01*
X1440020Y132964D01*
X1439949Y132898D01*
X1439936Y132875D01*
X1439918Y132856D01*
X1439877Y132768D01*
X1439830Y132682D01*
X1439825Y132657D01*
X1439814Y132633D01*
X1439804Y132536D01*
X1439786Y132440D01*
X1439790Y132414D01*
X1439787Y132389D01*
X1439808Y132293D01*
X1439822Y132197D01*
X1439834Y132174D01*
X1439840Y132148D01*
X1439890Y132065D01*
X1439934Y131978D01*
X1439952Y131959D01*
X1439966Y131937D01*
X1440040Y131874D01*
X1440109Y131806D01*
X1440138Y131790D01*
X1440153Y131777D01*
X1440183Y131765D01*
X1440256Y131725D01*
X1443856Y130234D01*
X1446714Y127376D01*
X1448261Y123641D01*
X1448261Y104359D01*
X1446714Y100624D01*
X1443856Y97766D01*
X1442381Y97155D01*
X1442281Y97093D01*
X1442181Y97034D01*
X1442177Y97029D01*
X1442172Y97026D01*
X1442097Y96935D01*
X1442021Y96847D01*
X1442019Y96841D01*
X1442015Y96836D01*
X1441973Y96728D01*
X1441929Y96619D01*
X1441928Y96611D01*
X1441927Y96607D01*
X1441926Y96588D01*
X1441911Y96452D01*
X1441911Y95522D01*
X1414578Y68189D01*
X1395800Y68189D01*
X1395710Y68175D01*
X1395619Y68167D01*
X1395589Y68155D01*
X1395557Y68150D01*
X1395476Y68107D01*
X1395393Y68071D01*
X1395360Y68045D01*
X1395340Y68034D01*
X1395318Y68011D01*
X1395262Y67966D01*
X1393723Y66428D01*
X1391307Y65427D01*
X1388693Y65427D01*
X1386277Y66428D01*
X1384428Y68277D01*
X1383427Y70693D01*
X1383427Y73307D01*
X1384428Y75723D01*
X1386277Y77572D01*
X1388693Y78573D01*
X1391307Y78573D01*
X1393723Y77572D01*
X1395262Y76034D01*
X1395336Y75981D01*
X1395405Y75921D01*
X1395435Y75909D01*
X1395461Y75890D01*
X1395548Y75863D01*
X1395633Y75829D01*
X1395674Y75825D01*
X1395696Y75818D01*
X1395729Y75819D01*
X1395800Y75811D01*
X1411106Y75811D01*
X1411196Y75825D01*
X1411287Y75833D01*
X1411317Y75845D01*
X1411349Y75850D01*
X1411430Y75893D01*
X1411514Y75929D01*
X1411546Y75955D01*
X1411566Y75966D01*
X1411589Y75989D01*
X1411644Y76034D01*
X1432322Y96712D01*
X1432334Y96728D01*
X1432350Y96740D01*
X1432406Y96828D01*
X1432466Y96911D01*
X1432472Y96930D01*
X1432483Y96947D01*
X1432508Y97048D01*
X1432538Y97146D01*
X1432538Y97166D01*
X1432543Y97186D01*
X1432535Y97289D01*
X1432532Y97392D01*
X1432525Y97411D01*
X1432524Y97431D01*
X1432483Y97526D01*
X1432447Y97623D01*
X1432435Y97639D01*
X1432427Y97657D01*
X1432322Y97788D01*
X1429486Y100624D01*
X1427939Y104359D01*
X1427939Y123641D01*
X1429486Y127376D01*
X1432344Y130234D01*
X1435944Y131725D01*
X1436027Y131776D01*
X1436113Y131822D01*
X1436131Y131841D01*
X1436153Y131854D01*
X1436215Y131929D01*
X1436282Y132000D01*
X1436293Y132024D01*
X1436310Y132044D01*
X1436344Y132135D01*
X1436386Y132223D01*
X1436388Y132249D01*
X1436398Y132273D01*
X1436402Y132371D01*
X1436413Y132467D01*
X1436407Y132493D01*
X1436408Y132519D01*
X1436381Y132613D01*
X1436360Y132708D01*
X1436347Y132730D01*
X1436340Y132755D01*
X1436284Y132835D01*
X1436234Y132919D01*
X1436214Y132936D01*
X1436199Y132957D01*
X1436121Y133016D01*
X1436047Y133079D01*
X1436023Y133089D01*
X1436002Y133104D01*
X1435910Y133134D01*
X1435819Y133171D01*
X1435787Y133174D01*
X1435768Y133180D01*
X1435735Y133180D01*
X1435652Y133189D01*
X1429894Y133189D01*
X1429804Y133175D01*
X1429713Y133167D01*
X1429683Y133155D01*
X1429651Y133150D01*
X1429570Y133107D01*
X1429486Y133071D01*
X1429454Y133045D01*
X1429434Y133034D01*
X1429411Y133011D01*
X1429356Y132966D01*
X1422391Y126002D01*
X1422324Y125908D01*
X1422253Y125814D01*
X1422251Y125807D01*
X1422248Y125802D01*
X1422214Y125691D01*
X1422177Y125580D01*
X1422177Y125573D01*
X1422175Y125567D01*
X1422179Y125451D01*
X1422180Y125334D01*
X1422182Y125326D01*
X1422182Y125321D01*
X1422188Y125304D01*
X1422226Y125173D01*
X1422861Y123641D01*
X1422861Y104359D01*
X1421314Y100624D01*
X1418456Y97766D01*
X1414721Y96219D01*
X1410679Y96219D01*
X1406944Y97766D01*
X1404086Y100624D01*
X1402539Y104359D01*
X1402539Y123641D01*
X1404086Y127376D01*
X1406944Y130234D01*
X1410679Y131781D01*
X1414721Y131781D01*
X1416139Y131193D01*
X1416253Y131167D01*
X1416367Y131138D01*
X1416373Y131138D01*
X1416379Y131137D01*
X1416495Y131148D01*
X1416612Y131157D01*
X1416617Y131160D01*
X1416624Y131160D01*
X1416731Y131208D01*
X1416838Y131253D01*
X1416844Y131258D01*
X1416849Y131260D01*
X1416862Y131273D01*
X1416969Y131358D01*
X1424501Y138890D01*
X1424542Y138948D01*
X1424592Y139000D01*
X1424614Y139047D01*
X1424644Y139089D01*
X1424665Y139158D01*
X1424695Y139223D01*
X1424701Y139275D01*
X1424716Y139325D01*
X1424715Y139396D01*
X1424722Y139467D01*
X1424711Y139518D01*
X1424710Y139570D01*
X1424685Y139638D01*
X1424670Y139708D01*
X1424644Y139752D01*
X1424626Y139801D01*
X1424581Y139857D01*
X1424544Y139919D01*
X1424504Y139953D01*
X1424472Y139993D01*
X1424412Y140032D01*
X1424357Y140079D01*
X1424309Y140098D01*
X1424265Y140126D01*
X1424196Y140144D01*
X1424129Y140171D01*
X1424058Y140179D01*
X1424026Y140187D01*
X1424003Y140185D01*
X1423962Y140189D01*
X1371894Y140189D01*
X1371804Y140175D01*
X1371713Y140167D01*
X1371683Y140155D01*
X1371651Y140150D01*
X1371570Y140107D01*
X1371486Y140071D01*
X1371454Y140045D01*
X1371434Y140034D01*
X1371411Y140011D01*
X1371356Y139966D01*
X1366034Y134644D01*
X1365981Y134571D01*
X1365921Y134501D01*
X1365909Y134471D01*
X1365890Y134445D01*
X1365863Y134358D01*
X1365829Y134273D01*
X1365825Y134232D01*
X1365818Y134210D01*
X1365819Y134177D01*
X1365811Y134106D01*
X1365811Y131507D01*
X1365830Y131392D01*
X1365847Y131276D01*
X1365849Y131270D01*
X1365850Y131264D01*
X1365905Y131161D01*
X1365958Y131056D01*
X1365963Y131052D01*
X1365966Y131047D01*
X1366050Y130967D01*
X1366134Y130884D01*
X1366140Y130881D01*
X1366144Y130877D01*
X1366161Y130869D01*
X1366281Y130803D01*
X1367656Y130234D01*
X1370514Y127376D01*
X1372061Y123641D01*
X1372061Y104359D01*
X1370514Y100624D01*
X1369184Y99295D01*
X1369142Y99236D01*
X1369093Y99184D01*
X1369071Y99137D01*
X1369040Y99095D01*
X1369019Y99026D01*
X1368989Y98961D01*
X1368983Y98909D01*
X1368968Y98860D01*
X1368970Y98788D01*
X1368962Y98717D01*
X1368973Y98666D01*
X1368974Y98614D01*
X1368999Y98546D01*
X1369014Y98476D01*
X1369041Y98432D01*
X1369059Y98383D01*
X1369104Y98327D01*
X1369140Y98265D01*
X1369180Y98231D01*
X1369213Y98191D01*
X1369273Y98152D01*
X1369327Y98105D01*
X1369376Y98086D01*
X1369419Y98058D01*
X1369489Y98040D01*
X1369556Y98013D01*
X1369627Y98006D01*
X1369658Y97998D01*
X1369681Y98000D01*
X1369722Y97995D01*
X1379210Y97995D01*
X1379301Y98010D01*
X1379391Y98017D01*
X1379421Y98029D01*
X1379453Y98035D01*
X1379534Y98077D01*
X1379618Y98113D01*
X1379650Y98139D01*
X1379671Y98150D01*
X1379693Y98173D01*
X1379749Y98218D01*
X1379882Y98352D01*
X1379894Y98368D01*
X1379910Y98380D01*
X1379966Y98468D01*
X1380026Y98551D01*
X1380032Y98570D01*
X1380043Y98587D01*
X1380068Y98688D01*
X1380098Y98786D01*
X1380098Y98806D01*
X1380103Y98826D01*
X1380095Y98929D01*
X1380092Y99032D01*
X1380085Y99051D01*
X1380084Y99071D01*
X1380043Y99166D01*
X1380007Y99263D01*
X1379995Y99279D01*
X1379987Y99297D01*
X1379882Y99428D01*
X1378686Y100624D01*
X1377139Y104359D01*
X1377139Y123641D01*
X1378686Y127376D01*
X1381544Y130234D01*
X1385279Y131781D01*
X1389321Y131781D01*
X1393056Y130234D01*
X1395914Y127376D01*
X1397461Y123641D01*
X1397461Y104359D01*
X1395914Y100624D01*
X1393056Y97766D01*
X1389321Y96219D01*
X1388844Y96219D01*
X1388754Y96205D01*
X1388663Y96197D01*
X1388633Y96185D01*
X1388601Y96180D01*
X1388521Y96137D01*
X1388436Y96101D01*
X1388404Y96075D01*
X1388384Y96064D01*
X1388362Y96041D01*
X1388306Y95996D01*
X1386012Y93702D01*
X1385970Y93644D01*
X1385920Y93592D01*
X1385898Y93545D01*
X1385868Y93503D01*
X1385847Y93434D01*
X1385817Y93369D01*
X1385811Y93317D01*
X1385796Y93268D01*
X1385798Y93196D01*
X1385790Y93125D01*
X1385801Y93074D01*
X1385802Y93022D01*
X1385827Y92954D01*
X1385842Y92884D01*
X1385869Y92840D01*
X1385886Y92791D01*
X1385931Y92735D01*
X1385968Y92673D01*
X1386008Y92639D01*
X1386040Y92599D01*
X1386100Y92560D01*
X1386155Y92513D01*
X1386203Y92494D01*
X1386247Y92466D01*
X1386317Y92448D01*
X1386383Y92421D01*
X1386454Y92413D01*
X1386486Y92406D01*
X1386509Y92407D01*
X1386550Y92403D01*
X1393958Y92403D01*
X1394073Y92422D01*
X1394189Y92439D01*
X1394195Y92442D01*
X1394201Y92443D01*
X1394304Y92497D01*
X1394408Y92550D01*
X1394413Y92555D01*
X1394418Y92558D01*
X1394498Y92642D01*
X1394581Y92726D01*
X1394584Y92732D01*
X1394588Y92736D01*
X1394595Y92753D01*
X1394661Y92873D01*
X1395428Y94723D01*
X1397277Y96572D01*
X1399693Y97573D01*
X1402307Y97573D01*
X1404723Y96572D01*
X1406572Y94723D01*
X1407573Y92307D01*
X1407573Y89693D01*
X1406572Y87277D01*
X1404723Y85428D01*
X1402307Y84427D01*
X1399693Y84427D01*
X1398978Y84723D01*
X1398914Y84738D01*
X1398853Y84763D01*
X1398770Y84772D01*
X1398738Y84780D01*
X1398719Y84778D01*
X1398686Y84781D01*
X1350660Y84781D01*
X1350615Y84774D01*
X1350569Y84776D01*
X1350494Y84754D01*
X1350417Y84742D01*
X1350377Y84720D01*
X1350333Y84707D01*
X1350269Y84663D01*
X1350200Y84627D01*
X1350168Y84593D01*
X1350131Y84567D01*
X1350084Y84505D01*
X1350031Y84448D01*
X1350011Y84407D01*
X1349984Y84370D01*
X1349960Y84296D01*
X1349927Y84225D01*
X1349922Y84180D01*
X1349908Y84136D01*
X1349908Y84058D01*
X1349900Y83981D01*
X1349910Y83936D01*
X1349910Y83890D01*
X1349948Y83758D01*
X1349952Y83740D01*
X1349955Y83736D01*
X1349957Y83729D01*
X1350173Y83207D01*
X1350173Y80593D01*
X1349172Y78177D01*
X1347323Y76328D01*
X1344907Y75327D01*
X1342293Y75327D01*
X1339877Y76328D01*
X1338028Y78177D01*
X1337027Y80593D01*
X1337027Y83207D01*
X1338028Y85623D01*
X1338969Y86565D01*
X1338981Y86581D01*
X1338997Y86593D01*
X1339053Y86681D01*
X1339113Y86764D01*
X1339119Y86783D01*
X1339130Y86800D01*
X1339155Y86901D01*
X1339185Y87000D01*
X1339185Y87019D01*
X1339190Y87039D01*
X1339182Y87142D01*
X1339179Y87245D01*
X1339172Y87264D01*
X1339171Y87284D01*
X1339130Y87379D01*
X1339095Y87476D01*
X1339082Y87492D01*
X1339074Y87510D01*
X1338969Y87641D01*
X1320644Y105966D01*
X1320571Y106019D01*
X1320501Y106079D01*
X1320471Y106091D01*
X1320445Y106110D01*
X1320358Y106137D01*
X1320273Y106171D01*
X1320232Y106175D01*
X1320210Y106182D01*
X1320177Y106181D01*
X1320106Y106189D01*
X1318944Y106189D01*
X1318873Y106178D01*
X1318801Y106176D01*
X1318752Y106158D01*
X1318701Y106150D01*
X1318638Y106116D01*
X1318570Y106091D01*
X1318530Y106059D01*
X1318484Y106034D01*
X1318434Y105983D01*
X1318378Y105938D01*
X1318350Y105894D01*
X1318314Y105856D01*
X1318284Y105791D01*
X1318245Y105731D01*
X1318233Y105680D01*
X1318211Y105633D01*
X1318203Y105562D01*
X1318185Y105492D01*
X1318189Y105440D01*
X1318184Y105389D01*
X1318199Y105318D01*
X1318204Y105247D01*
X1318225Y105199D01*
X1318236Y105148D01*
X1318273Y105087D01*
X1318301Y105021D01*
X1318346Y104965D01*
X1318362Y104937D01*
X1318380Y104922D01*
X1318406Y104890D01*
X1318572Y104723D01*
X1319573Y102307D01*
X1319573Y99693D01*
X1318572Y97277D01*
X1316723Y95428D01*
X1314307Y94427D01*
X1311693Y94427D01*
X1309277Y95428D01*
X1307738Y96966D01*
X1307664Y97019D01*
X1307595Y97079D01*
X1307565Y97091D01*
X1307539Y97110D01*
X1307452Y97137D01*
X1307367Y97171D01*
X1307326Y97175D01*
X1307304Y97182D01*
X1307271Y97181D01*
X1307200Y97189D01*
X1298262Y97189D01*
X1298172Y97175D01*
X1298081Y97167D01*
X1298052Y97155D01*
X1298020Y97150D01*
X1297939Y97107D01*
X1297855Y97071D01*
X1297823Y97045D01*
X1297802Y97034D01*
X1297780Y97011D01*
X1297724Y96966D01*
X1283774Y83016D01*
X1261721Y83016D01*
X1261631Y83002D01*
X1261540Y82994D01*
X1261510Y82982D01*
X1261478Y82977D01*
X1261397Y82934D01*
X1261313Y82898D01*
X1261281Y82872D01*
X1261261Y82861D01*
X1261238Y82838D01*
X1261183Y82793D01*
X1259796Y81406D01*
X1259743Y81333D01*
X1259683Y81263D01*
X1259671Y81233D01*
X1259652Y81207D01*
X1259625Y81120D01*
X1259591Y81035D01*
X1259587Y80994D01*
X1259580Y80972D01*
X1259581Y80939D01*
X1259573Y80868D01*
X1259573Y78693D01*
X1258572Y76277D01*
X1256723Y74428D01*
X1254307Y73427D01*
X1251693Y73427D01*
X1249277Y74428D01*
X1247428Y76277D01*
X1246427Y78693D01*
X1246427Y81307D01*
X1246831Y82282D01*
X1246841Y82326D01*
X1246861Y82368D01*
X1246869Y82445D01*
X1246887Y82521D01*
X1246883Y82567D01*
X1246888Y82612D01*
X1246871Y82688D01*
X1246864Y82766D01*
X1246845Y82808D01*
X1246836Y82853D01*
X1246796Y82920D01*
X1246764Y82991D01*
X1246733Y83025D01*
X1246709Y83064D01*
X1246650Y83115D01*
X1246598Y83172D01*
X1246557Y83194D01*
X1246522Y83224D01*
X1246450Y83253D01*
X1246382Y83290D01*
X1246337Y83299D01*
X1246294Y83316D01*
X1246158Y83331D01*
X1246140Y83334D01*
X1246135Y83333D01*
X1246128Y83334D01*
X1245591Y83334D01*
X1243175Y84335D01*
X1241326Y86184D01*
X1240325Y88600D01*
X1240325Y91214D01*
X1241349Y93686D01*
X1241359Y93731D01*
X1241379Y93772D01*
X1241387Y93850D01*
X1241405Y93925D01*
X1241401Y93971D01*
X1241406Y94017D01*
X1241389Y94093D01*
X1241382Y94170D01*
X1241363Y94212D01*
X1241354Y94257D01*
X1241314Y94324D01*
X1241282Y94395D01*
X1241251Y94429D01*
X1241227Y94468D01*
X1241168Y94519D01*
X1241116Y94576D01*
X1241075Y94598D01*
X1241041Y94628D01*
X1240968Y94657D01*
X1240900Y94695D01*
X1240855Y94703D01*
X1240812Y94720D01*
X1240676Y94735D01*
X1240658Y94738D01*
X1240653Y94738D01*
X1240646Y94738D01*
X1240193Y94738D01*
X1237777Y95739D01*
X1235928Y97588D01*
X1234927Y100004D01*
X1234927Y102619D01*
X1235928Y105034D01*
X1237777Y106883D01*
X1239463Y107582D01*
X1239502Y107606D01*
X1239545Y107622D01*
X1239606Y107670D01*
X1239672Y107711D01*
X1239701Y107747D01*
X1239737Y107775D01*
X1239779Y107841D01*
X1239829Y107901D01*
X1239845Y107944D01*
X1239870Y107982D01*
X1239889Y108058D01*
X1239917Y108130D01*
X1239919Y108176D01*
X1239930Y108221D01*
X1239924Y108298D01*
X1239927Y108376D01*
X1239915Y108420D01*
X1239911Y108466D01*
X1239881Y108537D01*
X1239859Y108612D01*
X1239833Y108650D01*
X1239815Y108692D01*
X1239729Y108799D01*
X1239719Y108814D01*
X1239715Y108817D01*
X1239710Y108823D01*
X1231329Y117204D01*
X1228427Y120106D01*
X1228427Y174791D01*
X1228413Y174881D01*
X1228405Y174972D01*
X1228393Y175001D01*
X1228388Y175033D01*
X1228345Y175114D01*
X1228309Y175198D01*
X1228283Y175230D01*
X1228272Y175251D01*
X1228249Y175273D01*
X1228204Y175329D01*
X1207329Y196204D01*
X1207255Y196257D01*
X1207185Y196317D01*
X1207155Y196329D01*
X1207129Y196348D01*
X1207042Y196375D01*
X1206957Y196409D01*
X1206916Y196413D01*
X1206894Y196420D01*
X1206862Y196419D01*
X1206791Y196427D01*
X1100209Y196427D01*
X1100119Y196413D01*
X1100028Y196405D01*
X1099999Y196393D01*
X1099967Y196388D01*
X1099886Y196345D01*
X1099802Y196309D01*
X1099770Y196283D01*
X1099749Y196272D01*
X1099727Y196249D01*
X1099671Y196204D01*
X1085796Y182329D01*
X1085743Y182255D01*
X1085683Y182185D01*
X1085671Y182155D01*
X1085652Y182129D01*
X1085625Y182042D01*
X1085591Y181957D01*
X1085587Y181916D01*
X1085580Y181894D01*
X1085581Y181862D01*
X1085573Y181791D01*
X1085573Y179494D01*
X1084420Y176710D01*
X1082796Y175086D01*
X1082743Y175012D01*
X1082683Y174943D01*
X1082671Y174913D01*
X1082652Y174887D01*
X1082625Y174800D01*
X1082591Y174715D01*
X1082587Y174674D01*
X1082580Y174651D01*
X1082581Y174619D01*
X1082573Y174548D01*
X1082573Y26106D01*
X1073796Y17329D01*
X1072847Y16380D01*
X1072805Y16322D01*
X1072756Y16270D01*
X1072734Y16223D01*
X1072704Y16181D01*
X1072682Y16112D01*
X1072652Y16047D01*
X1072647Y15995D01*
X1072631Y15945D01*
X1072633Y15874D01*
X1072625Y15803D01*
X1072636Y15752D01*
X1072638Y15700D01*
X1072662Y15632D01*
X1072677Y15562D01*
X1072704Y15517D01*
X1072722Y15469D01*
X1072767Y15413D01*
X1072804Y15351D01*
X1072843Y15317D01*
X1072876Y15277D01*
X1072936Y15238D01*
X1072990Y15191D01*
X1073039Y15172D01*
X1073083Y15144D01*
X1073152Y15126D01*
X1073219Y15099D01*
X1073290Y15091D01*
X1073321Y15083D01*
X1073344Y15085D01*
X1073385Y15081D01*
X1077580Y15081D01*
X1077670Y15095D01*
X1077761Y15103D01*
X1077791Y15115D01*
X1077823Y15120D01*
X1077904Y15163D01*
X1077987Y15199D01*
X1078020Y15225D01*
X1078040Y15236D01*
X1078062Y15259D01*
X1078118Y15304D01*
X1103696Y40882D01*
X1103749Y40955D01*
X1103809Y41025D01*
X1103821Y41055D01*
X1103840Y41081D01*
X1103867Y41168D01*
X1103901Y41253D01*
X1103905Y41294D01*
X1103912Y41316D01*
X1103911Y41349D01*
X1103919Y41420D01*
X1103919Y79056D01*
X1103905Y79146D01*
X1103897Y79237D01*
X1103885Y79267D01*
X1103880Y79299D01*
X1103837Y79379D01*
X1103801Y79463D01*
X1103775Y79495D01*
X1103764Y79516D01*
X1103741Y79538D01*
X1103696Y79594D01*
X1102580Y80710D01*
X1101427Y83494D01*
X1101427Y86506D01*
X1102580Y89290D01*
X1104710Y91420D01*
X1107494Y92573D01*
X1110506Y92573D01*
X1113290Y91420D01*
X1115420Y89290D01*
X1116573Y86506D01*
X1116573Y84209D01*
X1116587Y84119D01*
X1116595Y84028D01*
X1116607Y83999D01*
X1116612Y83967D01*
X1116655Y83886D01*
X1116691Y83802D01*
X1116717Y83770D01*
X1116728Y83749D01*
X1116751Y83727D01*
X1116796Y83671D01*
X1138671Y61796D01*
X1138745Y61743D01*
X1138815Y61683D01*
X1138845Y61671D01*
X1138871Y61652D01*
X1138958Y61625D01*
X1139043Y61591D01*
X1139084Y61587D01*
X1139106Y61580D01*
X1139138Y61581D01*
X1139209Y61573D01*
X1296791Y61573D01*
X1296881Y61587D01*
X1296972Y61595D01*
X1297001Y61607D01*
X1297033Y61612D01*
X1297114Y61655D01*
X1297198Y61691D01*
X1297230Y61717D01*
X1297251Y61728D01*
X1297273Y61751D01*
X1297329Y61796D01*
X1308204Y72671D01*
X1308257Y72745D01*
X1308317Y72815D01*
X1308329Y72845D01*
X1308348Y72871D01*
X1308375Y72958D01*
X1308409Y73043D01*
X1308413Y73084D01*
X1308420Y73106D01*
X1308419Y73138D01*
X1308427Y73209D01*
X1308427Y74307D01*
X1309428Y76723D01*
X1311277Y78572D01*
X1313693Y79573D01*
X1316307Y79573D01*
X1318723Y78572D01*
X1320572Y76723D01*
X1321573Y74307D01*
X1321573Y71693D01*
X1320572Y69277D01*
X1319796Y68500D01*
X1319743Y68426D01*
X1319683Y68357D01*
X1319671Y68327D01*
X1319652Y68301D01*
X1319625Y68214D01*
X1319591Y68129D01*
X1319587Y68088D01*
X1319580Y68066D01*
X1319581Y68033D01*
X1319573Y67962D01*
X1319573Y26041D01*
X1319587Y25951D01*
X1319595Y25860D01*
X1319607Y25831D01*
X1319612Y25799D01*
X1319655Y25718D01*
X1319691Y25634D01*
X1319717Y25602D01*
X1319728Y25581D01*
X1319751Y25559D01*
X1319796Y25503D01*
X1332503Y12796D01*
X1332577Y12743D01*
X1332647Y12683D01*
X1332677Y12671D01*
X1332703Y12652D01*
X1332790Y12625D01*
X1332875Y12591D01*
X1332916Y12587D01*
X1332938Y12580D01*
X1332970Y12581D01*
X1333041Y12573D01*
X1392174Y12573D01*
X1392194Y12576D01*
G37*
G36*
X515113Y99302D02*
X515113Y99302D01*
X515185Y99304D01*
X515234Y99322D01*
X515285Y99330D01*
X515348Y99364D01*
X515416Y99389D01*
X515456Y99421D01*
X515502Y99446D01*
X515552Y99498D01*
X515608Y99542D01*
X515636Y99586D01*
X515672Y99624D01*
X515702Y99689D01*
X515741Y99749D01*
X515753Y99800D01*
X515775Y99847D01*
X515783Y99918D01*
X515801Y99988D01*
X515797Y100040D01*
X515802Y100091D01*
X515787Y100162D01*
X515782Y100233D01*
X515761Y100281D01*
X515750Y100332D01*
X515713Y100393D01*
X515685Y100459D01*
X515641Y100515D01*
X515624Y100543D01*
X515606Y100558D01*
X515581Y100590D01*
X508644Y107526D01*
X506189Y109982D01*
X506189Y194200D01*
X506175Y194290D01*
X506167Y194381D01*
X506155Y194411D01*
X506150Y194443D01*
X506107Y194524D01*
X506071Y194607D01*
X506045Y194640D01*
X506034Y194660D01*
X506011Y194682D01*
X505966Y194738D01*
X504428Y196277D01*
X503427Y198693D01*
X503427Y201307D01*
X504428Y203723D01*
X506277Y205572D01*
X508693Y206573D01*
X511307Y206573D01*
X513723Y205572D01*
X515572Y203723D01*
X516573Y201307D01*
X516573Y198693D01*
X516106Y197567D01*
X516084Y197472D01*
X516056Y197379D01*
X516056Y197353D01*
X516050Y197327D01*
X516059Y197230D01*
X516062Y197133D01*
X516071Y197108D01*
X516073Y197082D01*
X516113Y196994D01*
X516146Y196902D01*
X516163Y196882D01*
X516173Y196858D01*
X516239Y196786D01*
X516300Y196710D01*
X516322Y196696D01*
X516340Y196677D01*
X516425Y196630D01*
X516507Y196577D01*
X516532Y196571D01*
X516555Y196558D01*
X516651Y196541D01*
X516745Y196517D01*
X516772Y196519D01*
X516797Y196514D01*
X516894Y196528D01*
X516991Y196536D01*
X517015Y196546D01*
X517041Y196550D01*
X517128Y196594D01*
X517217Y196632D01*
X517242Y196653D01*
X517260Y196662D01*
X517283Y196685D01*
X517348Y196737D01*
X527996Y207385D01*
X528049Y207459D01*
X528109Y207529D01*
X528121Y207559D01*
X528140Y207585D01*
X528167Y207672D01*
X528201Y207757D01*
X528205Y207798D01*
X528212Y207820D01*
X528211Y207852D01*
X528219Y207924D01*
X528219Y208121D01*
X529766Y211856D01*
X532624Y214714D01*
X536359Y216261D01*
X555641Y216261D01*
X559376Y214714D01*
X562234Y211856D01*
X563781Y208121D01*
X563781Y204079D01*
X562234Y200344D01*
X559376Y197486D01*
X555641Y195939D01*
X536359Y195939D01*
X532624Y197486D01*
X531288Y198822D01*
X531272Y198834D01*
X531260Y198850D01*
X531172Y198906D01*
X531088Y198966D01*
X531069Y198972D01*
X531053Y198983D01*
X530952Y199008D01*
X530853Y199038D01*
X530833Y199038D01*
X530814Y199043D01*
X530711Y199035D01*
X530607Y199032D01*
X530589Y199025D01*
X530569Y199024D01*
X530474Y198983D01*
X530376Y198947D01*
X530361Y198935D01*
X530343Y198927D01*
X530212Y198822D01*
X519114Y187725D01*
X519061Y187651D01*
X519001Y187581D01*
X518989Y187551D01*
X518970Y187525D01*
X518943Y187438D01*
X518909Y187353D01*
X518905Y187312D01*
X518898Y187290D01*
X518899Y187258D01*
X518891Y187186D01*
X518891Y115558D01*
X518905Y115468D01*
X518913Y115377D01*
X518925Y115347D01*
X518930Y115315D01*
X518973Y115235D01*
X519009Y115151D01*
X519035Y115119D01*
X519046Y115098D01*
X519069Y115076D01*
X519114Y115020D01*
X524460Y109674D01*
X524534Y109621D01*
X524603Y109561D01*
X524633Y109549D01*
X524659Y109530D01*
X524746Y109503D01*
X524831Y109469D01*
X524872Y109465D01*
X524895Y109458D01*
X524927Y109459D01*
X524998Y109451D01*
X602009Y109451D01*
X602099Y109465D01*
X602190Y109473D01*
X602220Y109485D01*
X602252Y109490D01*
X602333Y109533D01*
X602417Y109569D01*
X602449Y109595D01*
X602469Y109606D01*
X602492Y109629D01*
X602547Y109674D01*
X614005Y121131D01*
X683106Y121131D01*
X683196Y121145D01*
X683287Y121153D01*
X683317Y121165D01*
X683349Y121170D01*
X683430Y121213D01*
X683514Y121249D01*
X683546Y121275D01*
X683566Y121286D01*
X683589Y121309D01*
X683644Y121354D01*
X688702Y126411D01*
X688755Y126485D01*
X688815Y126555D01*
X688827Y126585D01*
X688846Y126611D01*
X688872Y126698D01*
X688907Y126783D01*
X688911Y126824D01*
X688918Y126846D01*
X688917Y126878D01*
X688925Y126950D01*
X688925Y204867D01*
X702073Y218015D01*
X702074Y218015D01*
X702678Y218620D01*
X702720Y218678D01*
X702769Y218730D01*
X702791Y218777D01*
X702821Y218819D01*
X702842Y218888D01*
X702873Y218953D01*
X702878Y219005D01*
X702894Y219055D01*
X702892Y219126D01*
X702900Y219197D01*
X702889Y219248D01*
X702887Y219300D01*
X702863Y219368D01*
X702847Y219438D01*
X702821Y219483D01*
X702803Y219531D01*
X702758Y219587D01*
X702721Y219649D01*
X702682Y219683D01*
X702649Y219723D01*
X702589Y219762D01*
X702534Y219809D01*
X702486Y219828D01*
X702442Y219856D01*
X702373Y219874D01*
X702306Y219901D01*
X702235Y219909D01*
X702204Y219917D01*
X702180Y219915D01*
X702140Y219919D01*
X687683Y219919D01*
X687663Y219916D01*
X687644Y219918D01*
X687542Y219896D01*
X687440Y219880D01*
X687423Y219870D01*
X687403Y219866D01*
X687314Y219813D01*
X687223Y219764D01*
X687209Y219750D01*
X687192Y219740D01*
X687125Y219661D01*
X687053Y219586D01*
X687045Y219568D01*
X687032Y219553D01*
X686993Y219457D01*
X686950Y219363D01*
X686948Y219343D01*
X686940Y219325D01*
X686922Y219158D01*
X686922Y185374D01*
X686932Y185310D01*
X686933Y185246D01*
X686952Y185190D01*
X686961Y185131D01*
X686992Y185074D01*
X687004Y185039D01*
X686924Y183923D01*
X686926Y183903D01*
X686922Y183869D01*
X686922Y182745D01*
X686894Y182706D01*
X686875Y182644D01*
X686847Y182586D01*
X686831Y182502D01*
X686821Y182471D01*
X686822Y182452D01*
X686816Y182421D01*
X686747Y181456D01*
X686751Y181419D01*
X686746Y181382D01*
X686762Y181297D01*
X686770Y181211D01*
X686785Y181177D01*
X686792Y181141D01*
X686858Y181006D01*
X686656Y180078D01*
X686655Y180046D01*
X686641Y179971D01*
X686573Y179022D01*
X686561Y179008D01*
X686532Y178986D01*
X686483Y178914D01*
X686428Y178848D01*
X686414Y178813D01*
X686393Y178782D01*
X686340Y178623D01*
X686103Y177533D01*
X686101Y177496D01*
X686091Y177460D01*
X686095Y177374D01*
X686090Y177288D01*
X686100Y177252D01*
X686102Y177215D01*
X686149Y177072D01*
X685817Y176183D01*
X685811Y176150D01*
X685786Y176078D01*
X685584Y175149D01*
X685570Y175137D01*
X685538Y175118D01*
X685480Y175055D01*
X685415Y174997D01*
X685397Y174964D01*
X685372Y174937D01*
X685296Y174787D01*
X684907Y173742D01*
X684900Y173706D01*
X684884Y173672D01*
X684876Y173585D01*
X684859Y173501D01*
X684864Y173464D01*
X684860Y173427D01*
X684886Y173279D01*
X684431Y172446D01*
X684421Y172415D01*
X684386Y172347D01*
X684054Y171456D01*
X684039Y171445D01*
X684004Y171432D01*
X683937Y171377D01*
X683865Y171329D01*
X683843Y171300D01*
X683814Y171276D01*
X683718Y171138D01*
X683183Y170160D01*
X683171Y170125D01*
X683151Y170093D01*
X683130Y170009D01*
X683102Y169928D01*
X683101Y169890D01*
X683092Y169854D01*
X683097Y169704D01*
X682528Y168944D01*
X682513Y168915D01*
X682469Y168852D01*
X682014Y168018D01*
X681997Y168010D01*
X681961Y168002D01*
X681887Y167957D01*
X681809Y167919D01*
X681782Y167893D01*
X681750Y167874D01*
X681636Y167752D01*
X680967Y166859D01*
X680950Y166826D01*
X680926Y166798D01*
X680894Y166717D01*
X680854Y166641D01*
X680848Y166604D01*
X680834Y166569D01*
X680817Y166420D01*
X680146Y165749D01*
X680127Y165722D01*
X680075Y165667D01*
X679505Y164905D01*
X679487Y164900D01*
X679450Y164897D01*
X679371Y164863D01*
X679288Y164837D01*
X679258Y164815D01*
X679224Y164801D01*
X679093Y164696D01*
X678304Y163907D01*
X678283Y163877D01*
X678255Y163852D01*
X678211Y163777D01*
X678161Y163707D01*
X678150Y163672D01*
X678131Y163639D01*
X678093Y163494D01*
X677333Y162925D01*
X677311Y162902D01*
X677251Y162854D01*
X676579Y162181D01*
X676561Y162179D01*
X676523Y162181D01*
X676440Y162159D01*
X676355Y162145D01*
X676322Y162127D01*
X676286Y162118D01*
X676141Y162033D01*
X675248Y161364D01*
X675222Y161337D01*
X675191Y161317D01*
X675138Y161249D01*
X675078Y161187D01*
X675062Y161153D01*
X675039Y161124D01*
X674981Y160986D01*
X674148Y160531D01*
X674122Y160511D01*
X674056Y160472D01*
X673295Y159902D01*
X673276Y159901D01*
X673240Y159909D01*
X673154Y159899D01*
X673068Y159897D01*
X673033Y159885D01*
X672996Y159881D01*
X672840Y159817D01*
X671862Y159282D01*
X671832Y159259D01*
X671798Y159244D01*
X671736Y159184D01*
X671668Y159131D01*
X671647Y159100D01*
X671620Y159074D01*
X671543Y158946D01*
X670653Y158614D01*
X670625Y158597D01*
X670554Y158569D01*
X669720Y158113D01*
X669701Y158115D01*
X669666Y158128D01*
X669580Y158130D01*
X669494Y158141D01*
X669458Y158133D01*
X669421Y158134D01*
X669258Y158093D01*
X668213Y157704D01*
X668181Y157685D01*
X668145Y157674D01*
X668074Y157624D01*
X667999Y157581D01*
X667975Y157554D01*
X667944Y157532D01*
X667850Y157416D01*
X666922Y157214D01*
X666891Y157202D01*
X666817Y157183D01*
X665926Y156851D01*
X665909Y156856D01*
X665876Y156873D01*
X665791Y156888D01*
X665707Y156910D01*
X665670Y156908D01*
X665633Y156915D01*
X665467Y156897D01*
X664377Y156660D01*
X664342Y156646D01*
X664305Y156641D01*
X664228Y156601D01*
X664148Y156570D01*
X664120Y156546D01*
X664086Y156529D01*
X663976Y156427D01*
X663029Y156359D01*
X662997Y156351D01*
X662922Y156344D01*
X661992Y156141D01*
X661975Y156149D01*
X661945Y156171D01*
X661863Y156197D01*
X661784Y156232D01*
X661747Y156235D01*
X661711Y156246D01*
X661544Y156253D01*
X660579Y156184D01*
X660516Y156169D01*
X660452Y156164D01*
X660397Y156141D01*
X660339Y156127D01*
X660285Y156093D01*
X660251Y156078D01*
X659131Y156078D01*
X659111Y156075D01*
X659077Y156076D01*
X657956Y155996D01*
X657915Y156021D01*
X657853Y156036D01*
X657793Y156060D01*
X657708Y156069D01*
X657676Y156077D01*
X657657Y156075D01*
X657626Y156078D01*
X602374Y156078D01*
X602310Y156068D01*
X602246Y156067D01*
X602190Y156048D01*
X602131Y156039D01*
X602074Y156008D01*
X602039Y155996D01*
X600923Y156076D01*
X600903Y156074D01*
X600869Y156078D01*
X599745Y156078D01*
X599706Y156106D01*
X599644Y156125D01*
X599586Y156153D01*
X599502Y156169D01*
X599471Y156179D01*
X599452Y156178D01*
X599421Y156184D01*
X597887Y156293D01*
X597850Y156290D01*
X597813Y156295D01*
X597728Y156279D01*
X597642Y156271D01*
X597608Y156256D01*
X597572Y156249D01*
X597437Y156182D01*
X596509Y156384D01*
X596477Y156386D01*
X596402Y156400D01*
X595453Y156468D01*
X595439Y156479D01*
X595416Y156509D01*
X595345Y156558D01*
X595279Y156613D01*
X595244Y156626D01*
X595213Y156647D01*
X595054Y156701D01*
X593406Y157059D01*
X593369Y157061D01*
X593333Y157071D01*
X593247Y157067D01*
X593161Y157072D01*
X593125Y157062D01*
X593088Y157060D01*
X592945Y157013D01*
X592056Y157345D01*
X592023Y157351D01*
X591951Y157376D01*
X591022Y157578D01*
X591010Y157592D01*
X590992Y157624D01*
X590928Y157682D01*
X590870Y157747D01*
X590838Y157765D01*
X590810Y157790D01*
X590660Y157866D01*
X589080Y158455D01*
X589044Y158462D01*
X589010Y158477D01*
X588924Y158486D01*
X588839Y158502D01*
X588802Y158498D01*
X588765Y158501D01*
X588617Y158475D01*
X587784Y158930D01*
X587753Y158941D01*
X587685Y158975D01*
X586794Y159308D01*
X586784Y159323D01*
X586771Y159358D01*
X586716Y159424D01*
X586668Y159496D01*
X586638Y159519D01*
X586614Y159548D01*
X586477Y159644D01*
X584997Y160452D01*
X584962Y160464D01*
X584930Y160484D01*
X584847Y160505D01*
X584765Y160533D01*
X584728Y160534D01*
X584692Y160543D01*
X584542Y160538D01*
X583781Y161107D01*
X583752Y161122D01*
X583690Y161166D01*
X582855Y161621D01*
X582847Y161638D01*
X582839Y161674D01*
X582794Y161748D01*
X582757Y161826D01*
X582731Y161853D01*
X582712Y161885D01*
X582589Y161999D01*
X581239Y163010D01*
X581206Y163027D01*
X581178Y163051D01*
X581098Y163083D01*
X581021Y163123D01*
X580985Y163129D01*
X580950Y163143D01*
X580801Y163160D01*
X580129Y163831D01*
X580103Y163850D01*
X580047Y163902D01*
X579286Y164472D01*
X579280Y164490D01*
X579277Y164527D01*
X579244Y164606D01*
X579218Y164689D01*
X579196Y164719D01*
X579181Y164753D01*
X579076Y164884D01*
X577884Y166076D01*
X577854Y166098D01*
X577829Y166126D01*
X577754Y166169D01*
X577684Y166220D01*
X577649Y166231D01*
X577616Y166249D01*
X577471Y166287D01*
X576902Y167047D01*
X576879Y167070D01*
X576831Y167129D01*
X576158Y167802D01*
X576156Y167820D01*
X576158Y167857D01*
X576136Y167941D01*
X576122Y168026D01*
X576104Y168059D01*
X576095Y168095D01*
X576010Y168239D01*
X574999Y169589D01*
X574972Y169615D01*
X574952Y169646D01*
X574884Y169700D01*
X574822Y169760D01*
X574788Y169776D01*
X574759Y169799D01*
X574621Y169857D01*
X574166Y170690D01*
X574145Y170716D01*
X574107Y170781D01*
X573537Y171543D01*
X573536Y171561D01*
X573544Y171598D01*
X573534Y171683D01*
X573532Y171770D01*
X573520Y171805D01*
X573516Y171842D01*
X573452Y171997D01*
X572644Y173477D01*
X572621Y173506D01*
X572605Y173540D01*
X572546Y173603D01*
X572493Y173671D01*
X572462Y173691D01*
X572436Y173718D01*
X572307Y173795D01*
X571975Y174685D01*
X571959Y174713D01*
X571930Y174784D01*
X571474Y175619D01*
X571477Y175637D01*
X571489Y175672D01*
X571492Y175758D01*
X571502Y175844D01*
X571495Y175881D01*
X571496Y175918D01*
X571455Y176080D01*
X570866Y177660D01*
X570847Y177693D01*
X570836Y177728D01*
X570786Y177799D01*
X570744Y177874D01*
X570716Y177898D01*
X570694Y177929D01*
X570578Y178023D01*
X570376Y178951D01*
X570364Y178982D01*
X570345Y179056D01*
X570013Y179947D01*
X570018Y179964D01*
X570035Y179997D01*
X570050Y180082D01*
X570073Y180166D01*
X570070Y180203D01*
X570077Y180240D01*
X570059Y180406D01*
X569701Y182054D01*
X569687Y182089D01*
X569682Y182125D01*
X569642Y182202D01*
X569610Y182283D01*
X569586Y182311D01*
X569569Y182344D01*
X569467Y182455D01*
X569400Y183402D01*
X569392Y183434D01*
X569384Y183509D01*
X569182Y184439D01*
X569189Y184455D01*
X569211Y184485D01*
X569238Y184568D01*
X569272Y184647D01*
X569275Y184684D01*
X569287Y184720D01*
X569293Y184887D01*
X569184Y186421D01*
X569169Y186484D01*
X569164Y186548D01*
X569141Y186603D01*
X569127Y186661D01*
X569093Y186715D01*
X569078Y186749D01*
X569078Y187869D01*
X569075Y187889D01*
X569076Y187923D01*
X568996Y189044D01*
X569021Y189085D01*
X569036Y189147D01*
X569060Y189207D01*
X569069Y189292D01*
X569077Y189324D01*
X569075Y189343D01*
X569078Y189374D01*
X569078Y219158D01*
X569075Y219178D01*
X569077Y219197D01*
X569055Y219299D01*
X569039Y219401D01*
X569029Y219418D01*
X569025Y219438D01*
X568972Y219527D01*
X568923Y219618D01*
X568909Y219632D01*
X568899Y219649D01*
X568820Y219716D01*
X568745Y219788D01*
X568727Y219796D01*
X568712Y219809D01*
X568616Y219848D01*
X568522Y219891D01*
X568502Y219893D01*
X568484Y219901D01*
X568317Y219919D01*
X179214Y219919D01*
X179143Y219908D01*
X179071Y219906D01*
X179022Y219888D01*
X178971Y219880D01*
X178908Y219846D01*
X178840Y219821D01*
X178800Y219789D01*
X178754Y219764D01*
X178704Y219712D01*
X178648Y219668D01*
X178620Y219624D01*
X178584Y219586D01*
X178554Y219521D01*
X178515Y219461D01*
X178503Y219410D01*
X178481Y219363D01*
X178473Y219292D01*
X178455Y219222D01*
X178459Y219170D01*
X178454Y219119D01*
X178469Y219048D01*
X178474Y218977D01*
X178495Y218929D01*
X178506Y218878D01*
X178543Y218817D01*
X178571Y218751D01*
X178616Y218695D01*
X178632Y218667D01*
X178650Y218652D01*
X178676Y218620D01*
X180572Y216723D01*
X181573Y214307D01*
X181573Y212491D01*
X181587Y212401D01*
X181595Y212310D01*
X181607Y212280D01*
X181612Y212248D01*
X181655Y212168D01*
X181691Y212084D01*
X181717Y212052D01*
X181728Y212031D01*
X181751Y212009D01*
X181796Y211953D01*
X217461Y176288D01*
X217535Y176235D01*
X217604Y176175D01*
X217634Y176163D01*
X217660Y176144D01*
X217747Y176117D01*
X217832Y176083D01*
X217873Y176079D01*
X217896Y176072D01*
X217928Y176073D01*
X217999Y176065D01*
X287454Y176065D01*
X287544Y176079D01*
X287635Y176087D01*
X287665Y176099D01*
X287697Y176104D01*
X287777Y176147D01*
X287861Y176183D01*
X287894Y176209D01*
X287914Y176220D01*
X287936Y176243D01*
X287992Y176288D01*
X289166Y177462D01*
X289178Y177478D01*
X289194Y177490D01*
X289250Y177577D01*
X289310Y177661D01*
X289316Y177680D01*
X289327Y177697D01*
X289352Y177798D01*
X289382Y177897D01*
X289382Y177916D01*
X289387Y177936D01*
X289379Y178039D01*
X289376Y178142D01*
X289369Y178161D01*
X289368Y178181D01*
X289327Y178276D01*
X289292Y178373D01*
X289279Y178389D01*
X289271Y178407D01*
X289166Y178538D01*
X287428Y180277D01*
X286427Y182693D01*
X286427Y185307D01*
X287428Y187723D01*
X289277Y189572D01*
X291693Y190573D01*
X294307Y190573D01*
X296723Y189572D01*
X298572Y187723D01*
X299155Y186316D01*
X299189Y186260D01*
X299215Y186200D01*
X299267Y186136D01*
X299284Y186107D01*
X299299Y186095D01*
X299320Y186069D01*
X312171Y173219D01*
X312244Y173166D01*
X312314Y173106D01*
X312344Y173094D01*
X312370Y173075D01*
X312457Y173048D01*
X312542Y173014D01*
X312583Y173010D01*
X312605Y173003D01*
X312638Y173004D01*
X312709Y172996D01*
X362871Y172996D01*
X362942Y173007D01*
X363014Y173009D01*
X363063Y173027D01*
X363114Y173035D01*
X363177Y173069D01*
X363245Y173094D01*
X363285Y173126D01*
X363331Y173151D01*
X363381Y173203D01*
X363437Y173247D01*
X363465Y173291D01*
X363501Y173329D01*
X363531Y173394D01*
X363570Y173454D01*
X363582Y173505D01*
X363604Y173552D01*
X363612Y173623D01*
X363630Y173693D01*
X363626Y173745D01*
X363631Y173796D01*
X363616Y173867D01*
X363611Y173938D01*
X363590Y173986D01*
X363579Y174037D01*
X363542Y174098D01*
X363514Y174164D01*
X363469Y174220D01*
X363453Y174248D01*
X363435Y174263D01*
X363432Y174267D01*
X362427Y176693D01*
X362427Y179307D01*
X363428Y181723D01*
X365277Y183572D01*
X367693Y184573D01*
X370307Y184573D01*
X372723Y183572D01*
X374572Y181723D01*
X375573Y179307D01*
X375573Y178837D01*
X375576Y178817D01*
X375574Y178798D01*
X375596Y178696D01*
X375612Y178594D01*
X375622Y178577D01*
X375626Y178557D01*
X375679Y178468D01*
X375728Y178377D01*
X375742Y178363D01*
X375752Y178346D01*
X375831Y178279D01*
X375906Y178207D01*
X375924Y178199D01*
X375939Y178186D01*
X376035Y178147D01*
X376129Y178104D01*
X376149Y178102D01*
X376167Y178094D01*
X376334Y178076D01*
X430498Y178076D01*
X454891Y153683D01*
X454891Y133711D01*
X454893Y133700D01*
X454892Y133693D01*
X454900Y133656D01*
X454905Y133621D01*
X454913Y133530D01*
X454925Y133500D01*
X454930Y133468D01*
X454973Y133387D01*
X455009Y133303D01*
X455035Y133271D01*
X455046Y133251D01*
X455069Y133228D01*
X455114Y133173D01*
X488773Y99514D01*
X488846Y99461D01*
X488916Y99401D01*
X488946Y99389D01*
X488972Y99370D01*
X489059Y99343D01*
X489144Y99309D01*
X489185Y99305D01*
X489207Y99298D01*
X489240Y99299D01*
X489311Y99291D01*
X515042Y99291D01*
X515113Y99302D01*
G37*
G36*
X1325517Y5092D02*
X1325517Y5092D01*
X1325589Y5094D01*
X1325638Y5112D01*
X1325689Y5120D01*
X1325753Y5154D01*
X1325820Y5179D01*
X1325861Y5211D01*
X1325907Y5236D01*
X1325956Y5288D01*
X1326012Y5332D01*
X1326040Y5376D01*
X1326076Y5414D01*
X1326106Y5479D01*
X1326145Y5539D01*
X1326158Y5590D01*
X1326180Y5637D01*
X1326188Y5708D01*
X1326205Y5778D01*
X1326201Y5830D01*
X1326207Y5881D01*
X1326192Y5952D01*
X1326186Y6023D01*
X1326166Y6071D01*
X1326155Y6122D01*
X1326118Y6183D01*
X1326090Y6249D01*
X1326045Y6305D01*
X1326028Y6333D01*
X1326011Y6348D01*
X1325985Y6380D01*
X1310427Y21938D01*
X1310427Y60123D01*
X1310416Y60193D01*
X1310414Y60265D01*
X1310396Y60314D01*
X1310388Y60365D01*
X1310354Y60429D01*
X1310329Y60496D01*
X1310297Y60537D01*
X1310272Y60583D01*
X1310220Y60632D01*
X1310176Y60688D01*
X1310132Y60716D01*
X1310094Y60752D01*
X1310029Y60782D01*
X1309969Y60821D01*
X1309918Y60834D01*
X1309871Y60856D01*
X1309800Y60864D01*
X1309730Y60881D01*
X1309678Y60877D01*
X1309627Y60883D01*
X1309556Y60868D01*
X1309485Y60862D01*
X1309437Y60842D01*
X1309386Y60831D01*
X1309325Y60794D01*
X1309259Y60766D01*
X1309203Y60721D01*
X1309175Y60704D01*
X1309160Y60687D01*
X1309128Y60661D01*
X1303796Y55329D01*
X1300894Y52427D01*
X1135106Y52427D01*
X1132204Y55329D01*
X1115380Y72153D01*
X1115322Y72195D01*
X1115270Y72244D01*
X1115223Y72266D01*
X1115181Y72296D01*
X1115112Y72318D01*
X1115047Y72348D01*
X1114995Y72354D01*
X1114945Y72369D01*
X1114874Y72367D01*
X1114803Y72375D01*
X1114752Y72364D01*
X1114700Y72362D01*
X1114632Y72338D01*
X1114562Y72323D01*
X1114518Y72296D01*
X1114469Y72278D01*
X1114413Y72233D01*
X1114351Y72196D01*
X1114317Y72157D01*
X1114277Y72124D01*
X1114238Y72064D01*
X1114191Y72010D01*
X1114172Y71961D01*
X1114144Y71917D01*
X1114126Y71848D01*
X1114099Y71781D01*
X1114091Y71710D01*
X1114083Y71679D01*
X1114085Y71656D01*
X1114081Y71615D01*
X1114081Y36895D01*
X1085304Y8118D01*
X1083565Y6380D01*
X1083524Y6322D01*
X1083474Y6270D01*
X1083452Y6223D01*
X1083422Y6181D01*
X1083401Y6112D01*
X1083371Y6047D01*
X1083365Y5995D01*
X1083350Y5945D01*
X1083351Y5874D01*
X1083344Y5803D01*
X1083355Y5752D01*
X1083356Y5700D01*
X1083381Y5632D01*
X1083396Y5562D01*
X1083423Y5517D01*
X1083440Y5469D01*
X1083485Y5413D01*
X1083522Y5351D01*
X1083562Y5317D01*
X1083594Y5277D01*
X1083654Y5238D01*
X1083709Y5191D01*
X1083757Y5172D01*
X1083801Y5144D01*
X1083870Y5126D01*
X1083937Y5099D01*
X1084008Y5091D01*
X1084040Y5083D01*
X1084063Y5085D01*
X1084104Y5081D01*
X1325447Y5081D01*
X1325517Y5092D01*
G37*
%LPC*%
G36*
X877854Y99509D02*
X877854Y99509D01*
X873888Y101152D01*
X870852Y104188D01*
X869209Y108154D01*
X869209Y112446D01*
X870852Y116412D01*
X873888Y119448D01*
X877854Y121091D01*
X882146Y121091D01*
X883978Y120332D01*
X884092Y120305D01*
X884205Y120277D01*
X884212Y120277D01*
X884218Y120276D01*
X884334Y120287D01*
X884451Y120296D01*
X884456Y120298D01*
X884463Y120299D01*
X884570Y120347D01*
X884677Y120392D01*
X884683Y120397D01*
X884687Y120399D01*
X884701Y120412D01*
X884808Y120497D01*
X888966Y124656D01*
X889019Y124730D01*
X889079Y124799D01*
X889091Y124829D01*
X889110Y124855D01*
X889137Y124942D01*
X889171Y125027D01*
X889175Y125068D01*
X889182Y125090D01*
X889181Y125123D01*
X889189Y125194D01*
X889189Y127791D01*
X889178Y127862D01*
X889176Y127934D01*
X889158Y127982D01*
X889150Y128034D01*
X889116Y128097D01*
X889091Y128165D01*
X889059Y128205D01*
X889034Y128251D01*
X888982Y128301D01*
X888938Y128357D01*
X888894Y128385D01*
X888856Y128421D01*
X888791Y128451D01*
X888731Y128490D01*
X888680Y128502D01*
X888633Y128524D01*
X888562Y128532D01*
X888492Y128550D01*
X888440Y128546D01*
X888389Y128551D01*
X888318Y128536D01*
X888247Y128530D01*
X888199Y128510D01*
X888148Y128499D01*
X888087Y128462D01*
X888021Y128434D01*
X887965Y128389D01*
X887937Y128373D01*
X887922Y128355D01*
X887890Y128329D01*
X887030Y127469D01*
X885655Y126471D01*
X884142Y125700D01*
X882527Y125175D01*
X881523Y125016D01*
X881523Y134938D01*
X881520Y134958D01*
X881522Y134977D01*
X881500Y135079D01*
X881483Y135181D01*
X881474Y135198D01*
X881470Y135218D01*
X881417Y135307D01*
X881368Y135398D01*
X881354Y135412D01*
X881344Y135429D01*
X881265Y135496D01*
X881190Y135567D01*
X881172Y135576D01*
X881157Y135589D01*
X881061Y135627D01*
X880967Y135671D01*
X880947Y135673D01*
X880929Y135681D01*
X880762Y135699D01*
X879999Y135699D01*
X879999Y135701D01*
X880762Y135701D01*
X880782Y135704D01*
X880801Y135702D01*
X880903Y135724D01*
X881005Y135741D01*
X881022Y135750D01*
X881042Y135754D01*
X881131Y135807D01*
X881222Y135856D01*
X881236Y135870D01*
X881253Y135880D01*
X881320Y135959D01*
X881391Y136034D01*
X881400Y136052D01*
X881413Y136067D01*
X881452Y136163D01*
X881495Y136257D01*
X881497Y136277D01*
X881505Y136295D01*
X881523Y136462D01*
X881523Y146384D01*
X882527Y146225D01*
X884142Y145700D01*
X885655Y144929D01*
X887030Y143931D01*
X888097Y142863D01*
X888113Y142851D01*
X888126Y142836D01*
X888213Y142780D01*
X888297Y142720D01*
X888316Y142714D01*
X888333Y142703D01*
X888433Y142678D01*
X888532Y142647D01*
X888552Y142648D01*
X888571Y142643D01*
X888674Y142651D01*
X888778Y142654D01*
X888797Y142660D01*
X888817Y142662D01*
X888911Y142702D01*
X889009Y142738D01*
X889025Y142750D01*
X889043Y142758D01*
X889174Y142863D01*
X891644Y145334D01*
X915666Y169356D01*
X915719Y169429D01*
X915779Y169499D01*
X915791Y169529D01*
X915810Y169555D01*
X915837Y169642D01*
X915871Y169727D01*
X915875Y169768D01*
X915882Y169790D01*
X915881Y169823D01*
X915889Y169894D01*
X915889Y181047D01*
X915870Y181162D01*
X915853Y181278D01*
X915851Y181283D01*
X915850Y181290D01*
X915795Y181392D01*
X915742Y181497D01*
X915737Y181501D01*
X915734Y181507D01*
X915651Y181586D01*
X915566Y181669D01*
X915560Y181673D01*
X915556Y181676D01*
X915539Y181684D01*
X915419Y181750D01*
X914088Y182301D01*
X911301Y185088D01*
X909793Y188729D01*
X909793Y192671D01*
X911301Y196312D01*
X914088Y199099D01*
X917729Y200607D01*
X921671Y200607D01*
X925312Y199099D01*
X926890Y197520D01*
X926948Y197479D01*
X927000Y197429D01*
X927047Y197407D01*
X927089Y197377D01*
X927158Y197356D01*
X927223Y197326D01*
X927275Y197320D01*
X927325Y197305D01*
X927396Y197306D01*
X927467Y197299D01*
X927518Y197310D01*
X927570Y197311D01*
X927638Y197336D01*
X927708Y197351D01*
X927753Y197378D01*
X927801Y197395D01*
X927857Y197440D01*
X927919Y197477D01*
X927953Y197517D01*
X927993Y197549D01*
X928032Y197609D01*
X928079Y197664D01*
X928098Y197712D01*
X928126Y197756D01*
X928144Y197825D01*
X928171Y197892D01*
X928179Y197963D01*
X928187Y197995D01*
X928185Y198018D01*
X928189Y198059D01*
X928189Y200106D01*
X928175Y200196D01*
X928167Y200287D01*
X928155Y200317D01*
X928150Y200349D01*
X928107Y200430D01*
X928071Y200514D01*
X928045Y200546D01*
X928034Y200566D01*
X928011Y200589D01*
X927966Y200644D01*
X920644Y207966D01*
X920571Y208019D01*
X920501Y208079D01*
X920471Y208091D01*
X920445Y208110D01*
X920358Y208137D01*
X920273Y208171D01*
X920232Y208175D01*
X920210Y208182D01*
X920177Y208181D01*
X920106Y208189D01*
X905194Y208189D01*
X905104Y208175D01*
X905013Y208167D01*
X904983Y208155D01*
X904951Y208150D01*
X904870Y208107D01*
X904786Y208071D01*
X904754Y208045D01*
X904734Y208034D01*
X904711Y208011D01*
X904656Y207966D01*
X898334Y201644D01*
X898281Y201571D01*
X898221Y201501D01*
X898209Y201471D01*
X898190Y201445D01*
X898163Y201358D01*
X898129Y201273D01*
X898125Y201232D01*
X898118Y201210D01*
X898119Y201177D01*
X898111Y201106D01*
X898111Y200353D01*
X898130Y200238D01*
X898147Y200122D01*
X898149Y200117D01*
X898150Y200110D01*
X898205Y200008D01*
X898258Y199903D01*
X898263Y199899D01*
X898266Y199893D01*
X898350Y199813D01*
X898434Y199731D01*
X898440Y199727D01*
X898444Y199724D01*
X898461Y199716D01*
X898581Y199650D01*
X899912Y199099D01*
X902699Y196312D01*
X904207Y192671D01*
X904207Y188729D01*
X902699Y185088D01*
X899912Y182301D01*
X896271Y180793D01*
X892329Y180793D01*
X888688Y182301D01*
X885901Y185088D01*
X884393Y188729D01*
X884393Y192671D01*
X885901Y196312D01*
X888688Y199099D01*
X890019Y199650D01*
X890119Y199711D01*
X890219Y199771D01*
X890223Y199776D01*
X890228Y199779D01*
X890303Y199869D01*
X890379Y199958D01*
X890381Y199964D01*
X890385Y199969D01*
X890426Y200076D01*
X890471Y200186D01*
X890472Y200194D01*
X890473Y200199D01*
X890474Y200217D01*
X890489Y200353D01*
X890489Y204578D01*
X901722Y215811D01*
X923578Y215811D01*
X935811Y203578D01*
X935811Y197259D01*
X935822Y197188D01*
X935824Y197116D01*
X935842Y197067D01*
X935850Y197016D01*
X935884Y196953D01*
X935909Y196885D01*
X935941Y196845D01*
X935966Y196799D01*
X936018Y196749D01*
X936062Y196693D01*
X936106Y196665D01*
X936144Y196629D01*
X936209Y196599D01*
X936269Y196560D01*
X936320Y196548D01*
X936367Y196526D01*
X936438Y196518D01*
X936508Y196500D01*
X936560Y196504D01*
X936611Y196499D01*
X936682Y196514D01*
X936753Y196519D01*
X936801Y196540D01*
X936852Y196551D01*
X936913Y196588D01*
X936979Y196616D01*
X937035Y196660D01*
X937063Y196677D01*
X937078Y196695D01*
X937110Y196720D01*
X939488Y199099D01*
X943129Y200607D01*
X947071Y200607D01*
X950712Y199099D01*
X953499Y196312D01*
X955007Y192671D01*
X955007Y188729D01*
X953499Y185088D01*
X950712Y182301D01*
X949381Y181750D01*
X949281Y181689D01*
X949181Y181629D01*
X949177Y181624D01*
X949172Y181621D01*
X949097Y181531D01*
X949021Y181442D01*
X949019Y181436D01*
X949015Y181431D01*
X948973Y181323D01*
X948929Y181214D01*
X948928Y181206D01*
X948927Y181201D01*
X948926Y181183D01*
X948911Y181047D01*
X948911Y123022D01*
X946456Y120566D01*
X940997Y115108D01*
X940928Y115012D01*
X940859Y114919D01*
X940857Y114913D01*
X940853Y114908D01*
X940819Y114796D01*
X940783Y114685D01*
X940783Y114679D01*
X940781Y114673D01*
X940784Y114556D01*
X940785Y114439D01*
X940787Y114432D01*
X940787Y114427D01*
X940794Y114410D01*
X940832Y114278D01*
X941591Y112446D01*
X941591Y108154D01*
X939948Y104188D01*
X936912Y101152D01*
X932946Y99509D01*
X928654Y99509D01*
X924688Y101152D01*
X921652Y104188D01*
X920009Y108154D01*
X920009Y112446D01*
X921652Y116412D01*
X924688Y119448D01*
X928654Y121091D01*
X932946Y121091D01*
X934778Y120332D01*
X934892Y120305D01*
X935005Y120277D01*
X935012Y120277D01*
X935018Y120276D01*
X935134Y120287D01*
X935251Y120296D01*
X935256Y120298D01*
X935263Y120299D01*
X935370Y120347D01*
X935477Y120392D01*
X935483Y120397D01*
X935487Y120399D01*
X935501Y120412D01*
X935608Y120497D01*
X938721Y123610D01*
X938762Y123668D01*
X938812Y123720D01*
X938834Y123767D01*
X938864Y123809D01*
X938885Y123878D01*
X938915Y123943D01*
X938921Y123995D01*
X938936Y124045D01*
X938935Y124116D01*
X938942Y124187D01*
X938931Y124238D01*
X938930Y124290D01*
X938905Y124358D01*
X938890Y124428D01*
X938864Y124472D01*
X938846Y124521D01*
X938801Y124577D01*
X938764Y124639D01*
X938724Y124673D01*
X938692Y124713D01*
X938632Y124752D01*
X938577Y124799D01*
X938529Y124818D01*
X938485Y124846D01*
X938416Y124864D01*
X938349Y124891D01*
X938278Y124899D01*
X938246Y124907D01*
X938223Y124905D01*
X938182Y124909D01*
X922032Y124909D01*
X922012Y124906D01*
X921993Y124908D01*
X921891Y124886D01*
X921789Y124870D01*
X921772Y124860D01*
X921752Y124856D01*
X921663Y124803D01*
X921572Y124754D01*
X921558Y124740D01*
X921541Y124730D01*
X921474Y124651D01*
X921402Y124576D01*
X921394Y124558D01*
X921381Y124543D01*
X921342Y124447D01*
X921299Y124353D01*
X921297Y124333D01*
X921289Y124315D01*
X921271Y124148D01*
X921271Y120782D01*
X918816Y118326D01*
X915597Y115108D01*
X915528Y115012D01*
X915459Y114919D01*
X915457Y114913D01*
X915453Y114908D01*
X915419Y114796D01*
X915383Y114685D01*
X915383Y114679D01*
X915381Y114673D01*
X915384Y114556D01*
X915385Y114439D01*
X915387Y114432D01*
X915387Y114427D01*
X915394Y114410D01*
X915432Y114278D01*
X916191Y112446D01*
X916191Y108154D01*
X914548Y104188D01*
X911512Y101152D01*
X907546Y99509D01*
X903254Y99509D01*
X899288Y101152D01*
X896252Y104188D01*
X894609Y108154D01*
X894609Y112446D01*
X896252Y116412D01*
X899288Y119448D01*
X903254Y121091D01*
X907546Y121091D01*
X909378Y120332D01*
X909492Y120305D01*
X909605Y120277D01*
X909612Y120277D01*
X909618Y120276D01*
X909734Y120287D01*
X909851Y120296D01*
X909856Y120298D01*
X909863Y120299D01*
X909970Y120347D01*
X910077Y120392D01*
X910083Y120397D01*
X910087Y120399D01*
X910101Y120411D01*
X910208Y120497D01*
X913426Y123716D01*
X913479Y123790D01*
X913539Y123859D01*
X913551Y123889D01*
X913570Y123915D01*
X913597Y124002D01*
X913631Y124087D01*
X913635Y124128D01*
X913642Y124150D01*
X913641Y124183D01*
X913649Y124254D01*
X913649Y126861D01*
X913647Y126873D01*
X913649Y126885D01*
X913628Y126993D01*
X913610Y127104D01*
X913604Y127115D01*
X913602Y127126D01*
X913546Y127223D01*
X913494Y127321D01*
X913486Y127330D01*
X913480Y127340D01*
X913397Y127414D01*
X913316Y127491D01*
X913305Y127496D01*
X913296Y127504D01*
X913194Y127548D01*
X913093Y127594D01*
X913081Y127596D01*
X913070Y127601D01*
X912959Y127609D01*
X912849Y127622D01*
X912837Y127619D01*
X912825Y127620D01*
X912717Y127593D01*
X912608Y127569D01*
X912598Y127563D01*
X912586Y127560D01*
X912441Y127477D01*
X911056Y126471D01*
X909542Y125700D01*
X907927Y125175D01*
X906923Y125016D01*
X906923Y134938D01*
X906920Y134958D01*
X906922Y134977D01*
X906900Y135079D01*
X906883Y135181D01*
X906874Y135198D01*
X906870Y135218D01*
X906817Y135307D01*
X906768Y135398D01*
X906754Y135412D01*
X906744Y135429D01*
X906665Y135496D01*
X906590Y135567D01*
X906572Y135576D01*
X906557Y135589D01*
X906461Y135627D01*
X906367Y135671D01*
X906347Y135673D01*
X906329Y135681D01*
X906162Y135699D01*
X904638Y135699D01*
X904618Y135696D01*
X904599Y135698D01*
X904497Y135676D01*
X904395Y135659D01*
X904378Y135650D01*
X904358Y135646D01*
X904269Y135593D01*
X904178Y135544D01*
X904164Y135530D01*
X904147Y135520D01*
X904080Y135441D01*
X904009Y135366D01*
X904000Y135348D01*
X903987Y135333D01*
X903948Y135237D01*
X903905Y135143D01*
X903903Y135123D01*
X903895Y135105D01*
X903877Y134938D01*
X903877Y125016D01*
X902873Y125175D01*
X901258Y125700D01*
X899745Y126471D01*
X898370Y127469D01*
X898110Y127729D01*
X898052Y127771D01*
X898000Y127821D01*
X897953Y127843D01*
X897911Y127873D01*
X897842Y127894D01*
X897777Y127924D01*
X897725Y127930D01*
X897675Y127945D01*
X897604Y127943D01*
X897533Y127951D01*
X897482Y127940D01*
X897430Y127939D01*
X897362Y127914D01*
X897292Y127899D01*
X897247Y127872D01*
X897199Y127854D01*
X897143Y127810D01*
X897081Y127773D01*
X897047Y127733D01*
X897007Y127701D01*
X896968Y127641D01*
X896921Y127586D01*
X896902Y127538D01*
X896874Y127494D01*
X896856Y127424D01*
X896829Y127358D01*
X896821Y127286D01*
X896813Y127255D01*
X896815Y127232D01*
X896811Y127191D01*
X896811Y121722D01*
X894356Y119266D01*
X890197Y115108D01*
X890128Y115012D01*
X890059Y114919D01*
X890057Y114913D01*
X890053Y114908D01*
X890019Y114796D01*
X889983Y114685D01*
X889983Y114679D01*
X889981Y114673D01*
X889984Y114556D01*
X889985Y114439D01*
X889987Y114432D01*
X889987Y114427D01*
X889994Y114410D01*
X890032Y114278D01*
X890791Y112446D01*
X890791Y108154D01*
X889148Y104188D01*
X886112Y101152D01*
X882146Y99509D01*
X877854Y99509D01*
G37*
%LPD*%
G36*
X1352757Y99445D02*
X1352757Y99445D01*
X1352783Y99446D01*
X1352875Y99479D01*
X1352968Y99506D01*
X1352989Y99521D01*
X1353014Y99530D01*
X1353090Y99591D01*
X1353170Y99647D01*
X1353186Y99668D01*
X1353206Y99684D01*
X1353259Y99766D01*
X1353317Y99844D01*
X1353325Y99869D01*
X1353339Y99891D01*
X1353363Y99985D01*
X1353393Y100078D01*
X1353393Y100104D01*
X1353399Y100129D01*
X1353392Y100226D01*
X1353391Y100324D01*
X1353382Y100355D01*
X1353380Y100375D01*
X1353367Y100405D01*
X1353344Y100485D01*
X1351739Y104359D01*
X1351739Y123641D01*
X1353286Y127376D01*
X1356144Y130234D01*
X1357719Y130886D01*
X1357819Y130948D01*
X1357919Y131008D01*
X1357923Y131013D01*
X1357928Y131016D01*
X1358003Y131105D01*
X1358079Y131195D01*
X1358081Y131201D01*
X1358085Y131205D01*
X1358127Y131313D01*
X1358171Y131423D01*
X1358172Y131430D01*
X1358173Y131435D01*
X1358174Y131453D01*
X1358189Y131590D01*
X1358189Y137578D01*
X1368422Y147811D01*
X1456106Y147811D01*
X1456196Y147825D01*
X1456287Y147833D01*
X1456317Y147845D01*
X1456349Y147850D01*
X1456430Y147893D01*
X1456514Y147929D01*
X1456546Y147955D01*
X1456566Y147966D01*
X1456589Y147989D01*
X1456644Y148034D01*
X1473467Y164856D01*
X1479245Y164856D01*
X1479335Y164871D01*
X1479426Y164878D01*
X1479456Y164890D01*
X1479488Y164896D01*
X1479569Y164938D01*
X1479653Y164974D01*
X1479685Y165000D01*
X1479705Y165011D01*
X1479728Y165034D01*
X1479784Y165079D01*
X1481322Y166617D01*
X1483738Y167618D01*
X1486353Y167618D01*
X1488418Y166762D01*
X1488513Y166740D01*
X1488606Y166711D01*
X1488632Y166712D01*
X1488658Y166706D01*
X1488754Y166715D01*
X1488852Y166718D01*
X1488876Y166727D01*
X1488902Y166729D01*
X1488991Y166769D01*
X1489083Y166802D01*
X1489103Y166819D01*
X1489127Y166829D01*
X1489199Y166895D01*
X1489275Y166956D01*
X1489289Y166978D01*
X1489308Y166996D01*
X1489355Y167081D01*
X1489408Y167163D01*
X1489414Y167188D01*
X1489427Y167211D01*
X1489444Y167307D01*
X1489468Y167401D01*
X1489466Y167427D01*
X1489471Y167453D01*
X1489456Y167550D01*
X1489449Y167647D01*
X1489439Y167671D01*
X1489435Y167697D01*
X1489391Y167784D01*
X1489353Y167873D01*
X1489332Y167898D01*
X1489323Y167916D01*
X1489300Y167939D01*
X1489248Y168004D01*
X1485539Y171712D01*
X1485465Y171765D01*
X1485396Y171825D01*
X1485366Y171837D01*
X1485340Y171856D01*
X1485253Y171883D01*
X1485168Y171917D01*
X1485127Y171921D01*
X1485104Y171928D01*
X1485072Y171927D01*
X1485001Y171935D01*
X1433691Y171935D01*
X1433601Y171921D01*
X1433510Y171913D01*
X1433480Y171901D01*
X1433448Y171896D01*
X1433368Y171853D01*
X1433284Y171817D01*
X1433252Y171791D01*
X1433231Y171780D01*
X1433209Y171757D01*
X1433153Y171712D01*
X1427796Y166355D01*
X1427743Y166281D01*
X1427683Y166212D01*
X1427671Y166182D01*
X1427652Y166156D01*
X1427625Y166069D01*
X1427591Y165984D01*
X1427587Y165943D01*
X1427580Y165920D01*
X1427581Y165888D01*
X1427573Y165817D01*
X1427573Y164001D01*
X1426572Y161585D01*
X1424723Y159736D01*
X1422307Y158735D01*
X1419693Y158735D01*
X1417277Y159736D01*
X1415428Y161585D01*
X1414427Y164001D01*
X1414427Y165099D01*
X1414413Y165189D01*
X1414405Y165280D01*
X1414393Y165309D01*
X1414388Y165341D01*
X1414345Y165422D01*
X1414309Y165506D01*
X1414283Y165538D01*
X1414272Y165559D01*
X1414249Y165581D01*
X1414204Y165637D01*
X1403637Y176204D01*
X1403563Y176257D01*
X1403493Y176317D01*
X1403463Y176329D01*
X1403437Y176348D01*
X1403350Y176375D01*
X1403265Y176409D01*
X1403224Y176413D01*
X1403202Y176420D01*
X1403170Y176419D01*
X1403099Y176427D01*
X1328209Y176427D01*
X1328119Y176413D01*
X1328028Y176405D01*
X1327999Y176393D01*
X1327967Y176388D01*
X1327886Y176345D01*
X1327802Y176309D01*
X1327770Y176283D01*
X1327749Y176272D01*
X1327727Y176249D01*
X1327671Y176204D01*
X1319963Y168497D01*
X1319937Y168459D01*
X1319903Y168428D01*
X1319865Y168360D01*
X1319820Y168297D01*
X1319806Y168253D01*
X1319784Y168213D01*
X1319770Y168136D01*
X1319747Y168062D01*
X1319749Y168016D01*
X1319740Y167971D01*
X1319752Y167894D01*
X1319754Y167816D01*
X1319770Y167773D01*
X1319776Y167727D01*
X1319812Y167658D01*
X1319838Y167585D01*
X1319867Y167549D01*
X1319888Y167508D01*
X1319943Y167454D01*
X1319992Y167393D01*
X1320031Y167368D01*
X1320063Y167336D01*
X1320183Y167270D01*
X1320199Y167260D01*
X1320204Y167259D01*
X1320210Y167255D01*
X1322723Y166214D01*
X1324572Y164365D01*
X1325573Y161949D01*
X1325573Y159774D01*
X1325587Y159684D01*
X1325595Y159593D01*
X1325607Y159563D01*
X1325612Y159531D01*
X1325655Y159450D01*
X1325691Y159366D01*
X1325717Y159334D01*
X1325728Y159314D01*
X1325751Y159291D01*
X1325796Y159235D01*
X1340995Y144036D01*
X1340995Y111078D01*
X1341010Y110988D01*
X1341017Y110897D01*
X1341029Y110867D01*
X1341035Y110835D01*
X1341077Y110755D01*
X1341113Y110671D01*
X1341139Y110639D01*
X1341150Y110618D01*
X1341173Y110596D01*
X1341218Y110540D01*
X1352102Y99655D01*
X1352181Y99599D01*
X1352256Y99536D01*
X1352281Y99527D01*
X1352302Y99512D01*
X1352395Y99483D01*
X1352486Y99448D01*
X1352512Y99447D01*
X1352537Y99439D01*
X1352635Y99442D01*
X1352732Y99438D01*
X1352757Y99445D01*
G37*
G36*
X1507644Y161522D02*
X1507644Y161522D01*
X1507696Y161523D01*
X1507764Y161548D01*
X1507834Y161563D01*
X1507879Y161590D01*
X1507927Y161608D01*
X1507983Y161652D01*
X1508045Y161689D01*
X1508079Y161729D01*
X1508119Y161761D01*
X1508158Y161822D01*
X1508205Y161876D01*
X1508224Y161924D01*
X1508252Y161968D01*
X1508270Y162038D01*
X1508297Y162104D01*
X1508305Y162176D01*
X1508313Y162207D01*
X1508311Y162230D01*
X1508315Y162271D01*
X1508315Y164903D01*
X1508301Y164993D01*
X1508293Y165084D01*
X1508281Y165113D01*
X1508276Y165145D01*
X1508233Y165226D01*
X1508197Y165310D01*
X1508171Y165342D01*
X1508160Y165363D01*
X1508137Y165385D01*
X1508092Y165441D01*
X1475660Y197874D01*
X1475643Y197885D01*
X1475631Y197901D01*
X1475544Y197957D01*
X1475460Y198017D01*
X1475441Y198023D01*
X1475424Y198034D01*
X1475324Y198059D01*
X1475225Y198089D01*
X1475205Y198089D01*
X1475185Y198094D01*
X1475082Y198086D01*
X1474979Y198083D01*
X1474960Y198076D01*
X1474940Y198075D01*
X1474845Y198034D01*
X1474748Y197999D01*
X1474732Y197986D01*
X1474714Y197978D01*
X1474583Y197874D01*
X1474290Y197580D01*
X1471506Y196427D01*
X1468494Y196427D01*
X1465710Y197580D01*
X1463580Y199710D01*
X1462427Y202494D01*
X1462427Y205506D01*
X1463580Y208290D01*
X1465710Y210420D01*
X1468494Y211573D01*
X1471506Y211573D01*
X1474290Y210420D01*
X1475914Y208796D01*
X1475988Y208743D01*
X1476057Y208683D01*
X1476087Y208671D01*
X1476114Y208652D01*
X1476200Y208625D01*
X1476285Y208591D01*
X1476326Y208587D01*
X1476349Y208580D01*
X1476381Y208581D01*
X1476452Y208573D01*
X1477894Y208573D01*
X1513620Y172847D01*
X1513678Y172805D01*
X1513730Y172756D01*
X1513777Y172734D01*
X1513819Y172704D01*
X1513888Y172682D01*
X1513953Y172652D01*
X1514005Y172646D01*
X1514055Y172631D01*
X1514126Y172633D01*
X1514197Y172625D01*
X1514248Y172636D01*
X1514300Y172638D01*
X1514368Y172662D01*
X1514438Y172677D01*
X1514483Y172704D01*
X1514531Y172722D01*
X1514587Y172767D01*
X1514649Y172804D01*
X1514683Y172843D01*
X1514723Y172876D01*
X1514762Y172936D01*
X1514809Y172990D01*
X1514828Y173039D01*
X1514856Y173083D01*
X1514874Y173152D01*
X1514901Y173219D01*
X1514909Y173290D01*
X1514917Y173321D01*
X1514915Y173344D01*
X1514919Y173385D01*
X1514919Y219158D01*
X1514916Y219178D01*
X1514918Y219197D01*
X1514896Y219299D01*
X1514880Y219401D01*
X1514870Y219418D01*
X1514866Y219438D01*
X1514813Y219527D01*
X1514764Y219618D01*
X1514750Y219632D01*
X1514740Y219649D01*
X1514661Y219716D01*
X1514586Y219788D01*
X1514568Y219796D01*
X1514553Y219809D01*
X1514457Y219848D01*
X1514363Y219891D01*
X1514343Y219893D01*
X1514325Y219901D01*
X1514158Y219919D01*
X1414958Y219919D01*
X1414887Y219908D01*
X1414815Y219906D01*
X1414766Y219888D01*
X1414715Y219880D01*
X1414652Y219846D01*
X1414584Y219821D01*
X1414544Y219789D01*
X1414498Y219764D01*
X1414448Y219712D01*
X1414392Y219668D01*
X1414364Y219624D01*
X1414328Y219586D01*
X1414298Y219521D01*
X1414259Y219461D01*
X1414247Y219410D01*
X1414225Y219363D01*
X1414217Y219292D01*
X1414199Y219222D01*
X1414203Y219170D01*
X1414198Y219119D01*
X1414213Y219048D01*
X1414218Y218977D01*
X1414239Y218929D01*
X1414250Y218878D01*
X1414287Y218817D01*
X1414315Y218751D01*
X1414359Y218695D01*
X1414376Y218667D01*
X1414394Y218652D01*
X1414419Y218620D01*
X1433356Y199684D01*
X1435811Y197228D01*
X1435811Y191800D01*
X1435825Y191710D01*
X1435833Y191619D01*
X1435845Y191589D01*
X1435850Y191557D01*
X1435893Y191476D01*
X1435929Y191393D01*
X1435955Y191360D01*
X1435966Y191340D01*
X1435989Y191318D01*
X1436034Y191262D01*
X1437572Y189723D01*
X1438573Y187307D01*
X1438573Y184693D01*
X1437572Y182277D01*
X1436660Y181364D01*
X1436618Y181306D01*
X1436568Y181254D01*
X1436546Y181207D01*
X1436516Y181165D01*
X1436495Y181096D01*
X1436465Y181031D01*
X1436459Y180979D01*
X1436444Y180929D01*
X1436445Y180858D01*
X1436438Y180787D01*
X1436449Y180736D01*
X1436450Y180684D01*
X1436475Y180616D01*
X1436490Y180546D01*
X1436517Y180501D01*
X1436534Y180453D01*
X1436579Y180397D01*
X1436616Y180335D01*
X1436656Y180301D01*
X1436688Y180261D01*
X1436748Y180222D01*
X1436803Y180175D01*
X1436851Y180156D01*
X1436895Y180128D01*
X1436965Y180110D01*
X1437031Y180083D01*
X1437102Y180075D01*
X1437134Y180067D01*
X1437157Y180069D01*
X1437198Y180065D01*
X1488684Y180065D01*
X1505561Y163188D01*
X1507016Y161733D01*
X1507074Y161691D01*
X1507126Y161641D01*
X1507173Y161619D01*
X1507215Y161589D01*
X1507284Y161568D01*
X1507349Y161538D01*
X1507401Y161532D01*
X1507451Y161517D01*
X1507522Y161519D01*
X1507593Y161511D01*
X1507644Y161522D01*
G37*
G36*
X716356Y115985D02*
X716356Y115985D01*
X716447Y115993D01*
X716477Y116005D01*
X716509Y116010D01*
X716590Y116053D01*
X716674Y116089D01*
X716706Y116115D01*
X716726Y116126D01*
X716749Y116149D01*
X716804Y116194D01*
X725966Y125356D01*
X726019Y125429D01*
X726079Y125499D01*
X726091Y125529D01*
X726110Y125555D01*
X726137Y125642D01*
X726171Y125727D01*
X726175Y125768D01*
X726182Y125790D01*
X726181Y125823D01*
X726189Y125894D01*
X726189Y184839D01*
X726188Y184847D01*
X726189Y184855D01*
X726168Y184968D01*
X726150Y185082D01*
X726146Y185089D01*
X726144Y185097D01*
X726088Y185197D01*
X726034Y185299D01*
X726029Y185305D01*
X726025Y185312D01*
X725940Y185389D01*
X725856Y185468D01*
X725849Y185472D01*
X725843Y185477D01*
X725737Y185524D01*
X725633Y185572D01*
X725625Y185573D01*
X725618Y185576D01*
X725503Y185587D01*
X725389Y185599D01*
X725381Y185597D01*
X725373Y185598D01*
X725260Y185571D01*
X725148Y185547D01*
X725141Y185543D01*
X725134Y185541D01*
X725035Y185480D01*
X724937Y185421D01*
X724932Y185415D01*
X724925Y185410D01*
X724812Y185286D01*
X724056Y184246D01*
X722954Y183144D01*
X721692Y182227D01*
X720303Y181519D01*
X718820Y181037D01*
X718023Y180911D01*
X718023Y189938D01*
X718020Y189958D01*
X718022Y189977D01*
X718000Y190079D01*
X717983Y190181D01*
X717974Y190198D01*
X717970Y190218D01*
X717917Y190307D01*
X717868Y190398D01*
X717854Y190412D01*
X717844Y190429D01*
X717765Y190496D01*
X717690Y190567D01*
X717672Y190576D01*
X717657Y190589D01*
X717561Y190627D01*
X717467Y190671D01*
X717447Y190673D01*
X717429Y190681D01*
X717262Y190699D01*
X716499Y190699D01*
X716499Y190701D01*
X717262Y190701D01*
X717282Y190704D01*
X717301Y190702D01*
X717403Y190724D01*
X717505Y190741D01*
X717522Y190750D01*
X717542Y190754D01*
X717631Y190807D01*
X717722Y190856D01*
X717736Y190870D01*
X717753Y190880D01*
X717820Y190959D01*
X717891Y191034D01*
X717900Y191052D01*
X717913Y191067D01*
X717952Y191163D01*
X717995Y191257D01*
X717997Y191277D01*
X718005Y191295D01*
X718023Y191462D01*
X718023Y200489D01*
X718820Y200363D01*
X720303Y199881D01*
X721692Y199173D01*
X722954Y198256D01*
X724056Y197154D01*
X724812Y196114D01*
X724818Y196108D01*
X724822Y196101D01*
X724905Y196022D01*
X724987Y195941D01*
X724994Y195937D01*
X725000Y195932D01*
X725104Y195883D01*
X725208Y195832D01*
X725216Y195831D01*
X725223Y195828D01*
X725337Y195815D01*
X725452Y195800D01*
X725460Y195802D01*
X725467Y195801D01*
X725580Y195825D01*
X725693Y195847D01*
X725700Y195851D01*
X725708Y195853D01*
X725807Y195912D01*
X725907Y195969D01*
X725912Y195975D01*
X725919Y195979D01*
X725994Y196067D01*
X726071Y196153D01*
X726074Y196160D01*
X726079Y196166D01*
X726122Y196272D01*
X726167Y196379D01*
X726168Y196387D01*
X726171Y196394D01*
X726189Y196561D01*
X726189Y201578D01*
X731081Y206470D01*
X731122Y206528D01*
X731172Y206580D01*
X731194Y206627D01*
X731224Y206669D01*
X731245Y206738D01*
X731275Y206803D01*
X731281Y206855D01*
X731296Y206905D01*
X731295Y206976D01*
X731302Y207047D01*
X731291Y207098D01*
X731290Y207150D01*
X731265Y207218D01*
X731250Y207288D01*
X731224Y207333D01*
X731206Y207381D01*
X731161Y207437D01*
X731124Y207499D01*
X731084Y207533D01*
X731052Y207573D01*
X730992Y207612D01*
X730937Y207659D01*
X730889Y207678D01*
X730845Y207706D01*
X730776Y207724D01*
X730709Y207751D01*
X730638Y207759D01*
X730606Y207767D01*
X730583Y207765D01*
X730542Y207769D01*
X710105Y207769D01*
X710015Y207755D01*
X709924Y207747D01*
X709895Y207735D01*
X709863Y207730D01*
X709782Y207687D01*
X709698Y207651D01*
X709666Y207625D01*
X709645Y207614D01*
X709623Y207591D01*
X709567Y207546D01*
X701849Y199829D01*
X701796Y199755D01*
X701737Y199685D01*
X701725Y199655D01*
X701706Y199629D01*
X701679Y199542D01*
X701645Y199457D01*
X701640Y199416D01*
X701634Y199394D01*
X701634Y199362D01*
X701626Y199290D01*
X701626Y117790D01*
X701107Y117270D01*
X701065Y117212D01*
X701015Y117160D01*
X700994Y117113D01*
X700963Y117071D01*
X700942Y117002D01*
X700912Y116937D01*
X700906Y116885D01*
X700891Y116835D01*
X700893Y116764D01*
X700885Y116693D01*
X700896Y116642D01*
X700897Y116590D01*
X700922Y116522D01*
X700937Y116452D01*
X700964Y116407D01*
X700982Y116359D01*
X701026Y116303D01*
X701063Y116241D01*
X701103Y116207D01*
X701135Y116167D01*
X701196Y116128D01*
X701250Y116081D01*
X701298Y116062D01*
X701342Y116034D01*
X701412Y116016D01*
X701478Y115989D01*
X701550Y115981D01*
X701581Y115973D01*
X701604Y115975D01*
X701645Y115971D01*
X716266Y115971D01*
X716356Y115985D01*
G37*
G36*
X1332703Y112289D02*
X1332703Y112289D01*
X1332755Y112290D01*
X1332822Y112315D01*
X1332892Y112330D01*
X1332937Y112356D01*
X1332986Y112374D01*
X1333042Y112419D01*
X1333103Y112456D01*
X1333137Y112496D01*
X1333178Y112528D01*
X1333216Y112588D01*
X1333263Y112643D01*
X1333283Y112691D01*
X1333311Y112735D01*
X1333328Y112804D01*
X1333355Y112871D01*
X1333363Y112942D01*
X1333371Y112974D01*
X1333369Y112997D01*
X1333374Y113038D01*
X1333374Y140564D01*
X1333359Y140654D01*
X1333352Y140745D01*
X1333339Y140775D01*
X1333334Y140807D01*
X1333291Y140887D01*
X1333255Y140971D01*
X1333230Y141003D01*
X1333219Y141024D01*
X1333195Y141046D01*
X1333180Y141065D01*
X1333175Y141074D01*
X1333169Y141079D01*
X1333151Y141102D01*
X1320407Y153846D01*
X1320333Y153899D01*
X1320263Y153959D01*
X1320233Y153971D01*
X1320207Y153990D01*
X1320120Y154017D01*
X1320035Y154051D01*
X1319994Y154055D01*
X1319972Y154062D01*
X1319940Y154061D01*
X1319868Y154069D01*
X1317693Y154069D01*
X1315277Y155070D01*
X1313428Y156919D01*
X1312387Y159432D01*
X1312363Y159471D01*
X1312347Y159514D01*
X1312299Y159575D01*
X1312257Y159641D01*
X1312222Y159670D01*
X1312193Y159706D01*
X1312128Y159748D01*
X1312068Y159798D01*
X1312025Y159814D01*
X1311987Y159839D01*
X1311911Y159858D01*
X1311838Y159886D01*
X1311793Y159888D01*
X1311748Y159899D01*
X1311670Y159893D01*
X1311593Y159896D01*
X1311548Y159883D01*
X1311503Y159880D01*
X1311431Y159849D01*
X1311356Y159828D01*
X1311319Y159801D01*
X1311276Y159783D01*
X1311170Y159698D01*
X1311154Y159687D01*
X1311151Y159683D01*
X1311145Y159679D01*
X1295296Y143829D01*
X1295243Y143755D01*
X1295183Y143685D01*
X1295171Y143655D01*
X1295152Y143629D01*
X1295125Y143542D01*
X1295091Y143457D01*
X1295087Y143416D01*
X1295080Y143394D01*
X1295081Y143362D01*
X1295073Y143291D01*
X1295073Y121606D01*
X1293657Y120190D01*
X1293615Y120132D01*
X1293566Y120080D01*
X1293544Y120033D01*
X1293514Y119991D01*
X1293492Y119922D01*
X1293462Y119857D01*
X1293457Y119805D01*
X1293441Y119755D01*
X1293443Y119684D01*
X1293435Y119613D01*
X1293446Y119562D01*
X1293448Y119510D01*
X1293472Y119442D01*
X1293487Y119372D01*
X1293514Y119327D01*
X1293532Y119279D01*
X1293577Y119223D01*
X1293614Y119161D01*
X1293653Y119127D01*
X1293686Y119087D01*
X1293746Y119048D01*
X1293800Y119001D01*
X1293849Y118982D01*
X1293893Y118954D01*
X1293962Y118936D01*
X1294029Y118909D01*
X1294100Y118901D01*
X1294131Y118893D01*
X1294154Y118895D01*
X1294195Y118891D01*
X1325683Y118891D01*
X1332074Y112499D01*
X1332132Y112458D01*
X1332184Y112408D01*
X1332231Y112386D01*
X1332274Y112356D01*
X1332342Y112335D01*
X1332407Y112305D01*
X1332459Y112299D01*
X1332509Y112284D01*
X1332581Y112285D01*
X1332652Y112278D01*
X1332703Y112289D01*
G37*
%LPC*%
G36*
X69693Y48427D02*
X69693Y48427D01*
X67277Y49428D01*
X65428Y51277D01*
X64427Y53693D01*
X64427Y56307D01*
X65428Y58723D01*
X67277Y60572D01*
X69693Y61573D01*
X72307Y61573D01*
X74723Y60572D01*
X76262Y59034D01*
X76336Y58981D01*
X76405Y58921D01*
X76435Y58909D01*
X76461Y58890D01*
X76548Y58863D01*
X76633Y58829D01*
X76674Y58825D01*
X76696Y58818D01*
X76729Y58819D01*
X76800Y58811D01*
X194541Y58811D01*
X194656Y58829D01*
X194772Y58847D01*
X194778Y58849D01*
X194784Y58850D01*
X194887Y58905D01*
X194992Y58958D01*
X194996Y58963D01*
X195001Y58966D01*
X195082Y59050D01*
X195164Y59134D01*
X195167Y59140D01*
X195171Y59144D01*
X195179Y59161D01*
X195245Y59281D01*
X195428Y59723D01*
X197277Y61572D01*
X199693Y62573D01*
X202307Y62573D01*
X204723Y61572D01*
X206572Y59723D01*
X207573Y57307D01*
X207573Y54693D01*
X206572Y52277D01*
X204723Y50428D01*
X202307Y49427D01*
X199693Y49427D01*
X197277Y50428D01*
X196738Y50966D01*
X196664Y51019D01*
X196595Y51079D01*
X196565Y51091D01*
X196539Y51110D01*
X196452Y51137D01*
X196367Y51171D01*
X196326Y51175D01*
X196304Y51182D01*
X196271Y51181D01*
X196200Y51189D01*
X76800Y51189D01*
X76710Y51175D01*
X76619Y51167D01*
X76589Y51155D01*
X76557Y51150D01*
X76476Y51107D01*
X76393Y51071D01*
X76360Y51045D01*
X76340Y51034D01*
X76318Y51011D01*
X76262Y50966D01*
X74723Y49428D01*
X72307Y48427D01*
X69693Y48427D01*
G37*
%LPD*%
%LPC*%
G36*
X254693Y30427D02*
X254693Y30427D01*
X252277Y31428D01*
X250428Y33277D01*
X249427Y35693D01*
X249427Y38307D01*
X250428Y40723D01*
X252277Y42572D01*
X254693Y43573D01*
X257307Y43573D01*
X259723Y42572D01*
X261262Y41034D01*
X261336Y40981D01*
X261405Y40921D01*
X261435Y40909D01*
X261461Y40890D01*
X261548Y40863D01*
X261633Y40829D01*
X261674Y40825D01*
X261696Y40818D01*
X261729Y40819D01*
X261800Y40811D01*
X329200Y40811D01*
X329290Y40825D01*
X329381Y40833D01*
X329411Y40845D01*
X329443Y40850D01*
X329524Y40893D01*
X329607Y40929D01*
X329640Y40955D01*
X329660Y40966D01*
X329682Y40989D01*
X329738Y41034D01*
X331277Y42572D01*
X333693Y43573D01*
X336307Y43573D01*
X338723Y42572D01*
X340572Y40723D01*
X341573Y38307D01*
X341573Y35693D01*
X340572Y33277D01*
X338723Y31428D01*
X336307Y30427D01*
X333693Y30427D01*
X331277Y31428D01*
X329738Y32966D01*
X329664Y33019D01*
X329595Y33079D01*
X329565Y33091D01*
X329539Y33110D01*
X329452Y33137D01*
X329367Y33171D01*
X329326Y33175D01*
X329304Y33182D01*
X329271Y33181D01*
X329200Y33189D01*
X261800Y33189D01*
X261710Y33175D01*
X261619Y33167D01*
X261589Y33155D01*
X261557Y33150D01*
X261476Y33107D01*
X261393Y33071D01*
X261360Y33045D01*
X261340Y33034D01*
X261318Y33011D01*
X261262Y32966D01*
X259723Y31428D01*
X257307Y30427D01*
X254693Y30427D01*
G37*
%LPD*%
%LPC*%
G36*
X350879Y94219D02*
X350879Y94219D01*
X347144Y95766D01*
X344286Y98624D01*
X342739Y102359D01*
X342739Y121641D01*
X344286Y125376D01*
X347144Y128234D01*
X350879Y129781D01*
X354921Y129781D01*
X358656Y128234D01*
X361514Y125376D01*
X363061Y121641D01*
X363061Y102359D01*
X361514Y98624D01*
X358656Y95766D01*
X354921Y94219D01*
X350879Y94219D01*
G37*
%LPD*%
%LPC*%
G36*
X536359Y170539D02*
X536359Y170539D01*
X532624Y172086D01*
X529766Y174944D01*
X528219Y178679D01*
X528219Y182721D01*
X529766Y186456D01*
X532624Y189314D01*
X536359Y190861D01*
X555641Y190861D01*
X559376Y189314D01*
X562234Y186456D01*
X563781Y182721D01*
X563781Y178679D01*
X562234Y174944D01*
X559376Y172086D01*
X555641Y170539D01*
X536359Y170539D01*
G37*
%LPD*%
%LPC*%
G36*
X300079Y94219D02*
X300079Y94219D01*
X296344Y95766D01*
X293486Y98624D01*
X291939Y102359D01*
X291939Y121641D01*
X293486Y125376D01*
X296344Y128234D01*
X300079Y129781D01*
X304121Y129781D01*
X307856Y128234D01*
X310714Y125376D01*
X312261Y121641D01*
X312261Y102359D01*
X310714Y98624D01*
X307856Y95766D01*
X304121Y94219D01*
X300079Y94219D01*
G37*
%LPD*%
%LPC*%
G36*
X274679Y94219D02*
X274679Y94219D01*
X270944Y95766D01*
X268086Y98624D01*
X266539Y102359D01*
X266539Y121641D01*
X268086Y125376D01*
X270944Y128234D01*
X274679Y129781D01*
X278721Y129781D01*
X282456Y128234D01*
X285314Y125376D01*
X286861Y121641D01*
X286861Y102359D01*
X285314Y98624D01*
X282456Y95766D01*
X278721Y94219D01*
X274679Y94219D01*
G37*
%LPD*%
%LPC*%
G36*
X198479Y94219D02*
X198479Y94219D01*
X194744Y95766D01*
X191886Y98624D01*
X190339Y102359D01*
X190339Y121641D01*
X191886Y125376D01*
X194744Y128234D01*
X198479Y129781D01*
X202521Y129781D01*
X206256Y128234D01*
X209114Y125376D01*
X210661Y121641D01*
X210661Y102359D01*
X209114Y98624D01*
X206256Y95766D01*
X202521Y94219D01*
X198479Y94219D01*
G37*
%LPD*%
%LPC*%
G36*
X1250359Y148139D02*
X1250359Y148139D01*
X1246624Y149686D01*
X1243766Y152544D01*
X1242219Y156279D01*
X1242219Y160321D01*
X1243766Y164056D01*
X1246624Y166914D01*
X1250359Y168461D01*
X1269641Y168461D01*
X1273376Y166914D01*
X1276234Y164056D01*
X1277781Y160321D01*
X1277781Y156279D01*
X1276234Y152544D01*
X1273376Y149686D01*
X1269641Y148139D01*
X1250359Y148139D01*
G37*
%LPD*%
%LPC*%
G36*
X325479Y94219D02*
X325479Y94219D01*
X321744Y95766D01*
X318886Y98624D01*
X317339Y102359D01*
X317339Y121641D01*
X318886Y125376D01*
X321744Y128234D01*
X325479Y129781D01*
X329521Y129781D01*
X333256Y128234D01*
X336114Y125376D01*
X337661Y121641D01*
X337661Y102359D01*
X336114Y98624D01*
X333256Y95766D01*
X329521Y94219D01*
X325479Y94219D01*
G37*
%LPD*%
%LPC*%
G36*
X536359Y119739D02*
X536359Y119739D01*
X532624Y121286D01*
X529766Y124144D01*
X528219Y127879D01*
X528219Y131921D01*
X529766Y135656D01*
X532624Y138514D01*
X536359Y140061D01*
X555641Y140061D01*
X559376Y138514D01*
X562234Y135656D01*
X563781Y131921D01*
X563781Y127879D01*
X562234Y124144D01*
X559376Y121286D01*
X555641Y119739D01*
X536359Y119739D01*
G37*
%LPD*%
%LPC*%
G36*
X536359Y145139D02*
X536359Y145139D01*
X532624Y146686D01*
X529766Y149544D01*
X528219Y153279D01*
X528219Y157321D01*
X529766Y161056D01*
X532624Y163914D01*
X536359Y165461D01*
X555641Y165461D01*
X559376Y163914D01*
X562234Y161056D01*
X563781Y157321D01*
X563781Y153279D01*
X562234Y149544D01*
X559376Y146686D01*
X555641Y145139D01*
X536359Y145139D01*
G37*
%LPD*%
%LPC*%
G36*
X1250359Y122739D02*
X1250359Y122739D01*
X1246624Y124286D01*
X1243766Y127144D01*
X1242219Y130879D01*
X1242219Y134921D01*
X1243766Y138656D01*
X1246624Y141514D01*
X1250359Y143061D01*
X1269641Y143061D01*
X1273376Y141514D01*
X1276234Y138656D01*
X1277781Y134921D01*
X1277781Y130879D01*
X1276234Y127144D01*
X1273376Y124286D01*
X1269641Y122739D01*
X1250359Y122739D01*
G37*
%LPD*%
%LPC*%
G36*
X1379437Y19477D02*
X1379437Y19477D01*
X1377021Y20478D01*
X1375483Y22016D01*
X1375409Y22069D01*
X1375339Y22129D01*
X1375309Y22141D01*
X1375283Y22160D01*
X1375196Y22187D01*
X1375111Y22221D01*
X1375070Y22225D01*
X1375048Y22232D01*
X1375016Y22231D01*
X1374944Y22239D01*
X1339372Y22239D01*
X1333406Y28204D01*
X1333333Y28257D01*
X1333263Y28317D01*
X1333233Y28329D01*
X1333207Y28348D01*
X1333120Y28375D01*
X1333035Y28409D01*
X1332994Y28413D01*
X1332972Y28420D01*
X1332939Y28419D01*
X1332868Y28427D01*
X1330693Y28427D01*
X1328277Y29428D01*
X1326428Y31277D01*
X1325427Y33693D01*
X1325427Y36307D01*
X1326428Y38723D01*
X1328277Y40572D01*
X1330693Y41573D01*
X1333307Y41573D01*
X1335723Y40572D01*
X1337572Y38723D01*
X1338573Y36307D01*
X1338573Y34132D01*
X1338588Y34042D01*
X1338595Y33951D01*
X1338607Y33921D01*
X1338612Y33889D01*
X1338655Y33808D01*
X1338691Y33724D01*
X1338717Y33692D01*
X1338728Y33672D01*
X1338751Y33649D01*
X1338796Y33594D01*
X1342306Y30084D01*
X1342379Y30031D01*
X1342449Y29971D01*
X1342479Y29959D01*
X1342505Y29940D01*
X1342592Y29913D01*
X1342677Y29879D01*
X1342718Y29875D01*
X1342740Y29868D01*
X1342773Y29869D01*
X1342844Y29861D01*
X1374944Y29861D01*
X1375034Y29875D01*
X1375125Y29883D01*
X1375155Y29895D01*
X1375187Y29900D01*
X1375268Y29943D01*
X1375352Y29979D01*
X1375384Y30005D01*
X1375404Y30016D01*
X1375427Y30039D01*
X1375483Y30084D01*
X1377021Y31622D01*
X1379437Y32623D01*
X1382052Y32623D01*
X1384467Y31622D01*
X1386316Y29773D01*
X1387317Y27357D01*
X1387317Y24743D01*
X1386316Y22327D01*
X1384467Y20478D01*
X1382052Y19477D01*
X1379437Y19477D01*
G37*
%LPD*%
G36*
X1476682Y98199D02*
X1476682Y98199D01*
X1476753Y98204D01*
X1476801Y98225D01*
X1476852Y98236D01*
X1476913Y98273D01*
X1476979Y98301D01*
X1477035Y98346D01*
X1477063Y98362D01*
X1477078Y98380D01*
X1477110Y98406D01*
X1477966Y99262D01*
X1478019Y99336D01*
X1478079Y99405D01*
X1478091Y99435D01*
X1478110Y99461D01*
X1478137Y99548D01*
X1478171Y99633D01*
X1478175Y99674D01*
X1478182Y99696D01*
X1478181Y99729D01*
X1478189Y99800D01*
X1478189Y156473D01*
X1478186Y156493D01*
X1478188Y156513D01*
X1478166Y156614D01*
X1478150Y156716D01*
X1478140Y156733D01*
X1478136Y156753D01*
X1478083Y156842D01*
X1478034Y156933D01*
X1478020Y156947D01*
X1478010Y156964D01*
X1477931Y157031D01*
X1477856Y157103D01*
X1477838Y157111D01*
X1477823Y157124D01*
X1477727Y157163D01*
X1477633Y157206D01*
X1477613Y157208D01*
X1477595Y157216D01*
X1477428Y157234D01*
X1476939Y157234D01*
X1476849Y157220D01*
X1476758Y157213D01*
X1476728Y157200D01*
X1476696Y157195D01*
X1476616Y157152D01*
X1476532Y157116D01*
X1476500Y157091D01*
X1476479Y157080D01*
X1476457Y157056D01*
X1476401Y157011D01*
X1459578Y140189D01*
X1459038Y140189D01*
X1458967Y140178D01*
X1458895Y140176D01*
X1458846Y140158D01*
X1458795Y140150D01*
X1458732Y140116D01*
X1458664Y140091D01*
X1458624Y140059D01*
X1458578Y140034D01*
X1458528Y139982D01*
X1458472Y139938D01*
X1458444Y139894D01*
X1458408Y139856D01*
X1458378Y139791D01*
X1458339Y139731D01*
X1458327Y139680D01*
X1458305Y139633D01*
X1458297Y139562D01*
X1458279Y139492D01*
X1458283Y139440D01*
X1458278Y139389D01*
X1458293Y139318D01*
X1458298Y139247D01*
X1458319Y139199D01*
X1458330Y139148D01*
X1458367Y139087D01*
X1458395Y139021D01*
X1458439Y138965D01*
X1458456Y138937D01*
X1458474Y138922D01*
X1458499Y138890D01*
X1475811Y121578D01*
X1475811Y98944D01*
X1475822Y98873D01*
X1475824Y98801D01*
X1475842Y98752D01*
X1475850Y98701D01*
X1475884Y98638D01*
X1475909Y98570D01*
X1475941Y98530D01*
X1475966Y98484D01*
X1476018Y98434D01*
X1476062Y98378D01*
X1476106Y98350D01*
X1476144Y98314D01*
X1476209Y98284D01*
X1476269Y98245D01*
X1476320Y98233D01*
X1476367Y98211D01*
X1476438Y98203D01*
X1476508Y98185D01*
X1476560Y98189D01*
X1476611Y98184D01*
X1476682Y98199D01*
G37*
%LPC*%
G36*
X777854Y109209D02*
X777854Y109209D01*
X773888Y110852D01*
X770852Y113888D01*
X769209Y117854D01*
X769209Y122146D01*
X770852Y126112D01*
X773888Y129148D01*
X777854Y130791D01*
X782146Y130791D01*
X786112Y129148D01*
X789148Y126112D01*
X790791Y122146D01*
X790791Y117854D01*
X789148Y113888D01*
X786112Y110852D01*
X782146Y109209D01*
X777854Y109209D01*
G37*
%LPD*%
%LPC*%
G36*
X1177279Y70039D02*
X1177279Y70039D01*
X1173544Y71586D01*
X1170686Y74444D01*
X1169139Y78179D01*
X1169139Y82221D01*
X1170686Y85956D01*
X1173544Y88814D01*
X1177279Y90361D01*
X1181321Y90361D01*
X1185056Y88814D01*
X1187914Y85956D01*
X1189461Y82221D01*
X1189461Y78179D01*
X1187914Y74444D01*
X1185056Y71586D01*
X1181321Y70039D01*
X1177279Y70039D01*
G37*
%LPD*%
%LPC*%
G36*
X1202679Y171639D02*
X1202679Y171639D01*
X1198944Y173186D01*
X1196086Y176044D01*
X1194539Y179779D01*
X1194539Y183821D01*
X1196086Y187556D01*
X1198944Y190414D01*
X1202679Y191961D01*
X1206721Y191961D01*
X1210456Y190414D01*
X1213314Y187556D01*
X1214861Y183821D01*
X1214861Y179779D01*
X1213314Y176044D01*
X1210456Y173186D01*
X1206721Y171639D01*
X1202679Y171639D01*
G37*
%LPD*%
%LPC*%
G36*
X1177279Y171639D02*
X1177279Y171639D01*
X1173544Y173186D01*
X1170686Y176044D01*
X1169139Y179779D01*
X1169139Y183821D01*
X1170686Y187556D01*
X1173544Y190414D01*
X1177279Y191961D01*
X1181321Y191961D01*
X1185056Y190414D01*
X1187914Y187556D01*
X1189461Y183821D01*
X1189461Y179779D01*
X1187914Y176044D01*
X1185056Y173186D01*
X1181321Y171639D01*
X1177279Y171639D01*
G37*
%LPD*%
%LPC*%
G36*
X1202679Y70039D02*
X1202679Y70039D01*
X1198944Y71586D01*
X1196086Y74444D01*
X1194539Y78179D01*
X1194539Y82221D01*
X1196086Y85956D01*
X1198944Y88814D01*
X1202679Y90361D01*
X1206721Y90361D01*
X1210456Y88814D01*
X1213314Y85956D01*
X1214861Y82221D01*
X1214861Y78179D01*
X1213314Y74444D01*
X1210456Y71586D01*
X1206721Y70039D01*
X1202679Y70039D01*
G37*
%LPD*%
%LPC*%
G36*
X943129Y28393D02*
X943129Y28393D01*
X939488Y29901D01*
X936701Y32688D01*
X935193Y36329D01*
X935193Y40271D01*
X936701Y43912D01*
X939488Y46699D01*
X943129Y48207D01*
X947071Y48207D01*
X950712Y46699D01*
X953499Y43912D01*
X955007Y40271D01*
X955007Y36329D01*
X953499Y32688D01*
X950712Y29901D01*
X947071Y28393D01*
X943129Y28393D01*
G37*
%LPD*%
%LPC*%
G36*
X968529Y28393D02*
X968529Y28393D01*
X964888Y29901D01*
X962101Y32688D01*
X960593Y36329D01*
X960593Y40271D01*
X962101Y43912D01*
X964888Y46699D01*
X968529Y48207D01*
X972471Y48207D01*
X976112Y46699D01*
X978899Y43912D01*
X980407Y40271D01*
X980407Y36329D01*
X978899Y32688D01*
X976112Y29901D01*
X972471Y28393D01*
X968529Y28393D01*
G37*
%LPD*%
%LPC*%
G36*
X1044729Y53793D02*
X1044729Y53793D01*
X1041088Y55301D01*
X1038301Y58088D01*
X1036793Y61729D01*
X1036793Y65671D01*
X1038301Y69312D01*
X1041088Y72099D01*
X1044729Y73607D01*
X1048671Y73607D01*
X1052312Y72099D01*
X1055099Y69312D01*
X1056607Y65671D01*
X1056607Y61729D01*
X1055099Y58088D01*
X1052312Y55301D01*
X1048671Y53793D01*
X1044729Y53793D01*
G37*
%LPD*%
%LPC*%
G36*
X968529Y180793D02*
X968529Y180793D01*
X964888Y182301D01*
X962101Y185088D01*
X960593Y188729D01*
X960593Y192671D01*
X962101Y196312D01*
X964888Y199099D01*
X968529Y200607D01*
X972471Y200607D01*
X976112Y199099D01*
X978899Y196312D01*
X980407Y192671D01*
X980407Y188729D01*
X978899Y185088D01*
X976112Y182301D01*
X972471Y180793D01*
X968529Y180793D01*
G37*
%LPD*%
%LPC*%
G36*
X993929Y180793D02*
X993929Y180793D01*
X990288Y182301D01*
X987501Y185088D01*
X985993Y188729D01*
X985993Y192671D01*
X987501Y196312D01*
X990288Y199099D01*
X993929Y200607D01*
X997871Y200607D01*
X1001512Y199099D01*
X1004299Y196312D01*
X1005807Y192671D01*
X1005807Y188729D01*
X1004299Y185088D01*
X1001512Y182301D01*
X997871Y180793D01*
X993929Y180793D01*
G37*
%LPD*%
%LPC*%
G36*
X1044729Y180793D02*
X1044729Y180793D01*
X1041088Y182301D01*
X1038301Y185088D01*
X1036793Y188729D01*
X1036793Y192671D01*
X1038301Y196312D01*
X1041088Y199099D01*
X1044729Y200607D01*
X1048671Y200607D01*
X1052312Y199099D01*
X1055099Y196312D01*
X1056607Y192671D01*
X1056607Y188729D01*
X1055099Y185088D01*
X1052312Y182301D01*
X1048671Y180793D01*
X1044729Y180793D01*
G37*
%LPD*%
%LPC*%
G36*
X841529Y180793D02*
X841529Y180793D01*
X837888Y182301D01*
X835101Y185088D01*
X833593Y188729D01*
X833593Y192671D01*
X835101Y196312D01*
X837888Y199099D01*
X841529Y200607D01*
X845471Y200607D01*
X849112Y199099D01*
X851899Y196312D01*
X853407Y192671D01*
X853407Y188729D01*
X851899Y185088D01*
X849112Y182301D01*
X845471Y180793D01*
X841529Y180793D01*
G37*
%LPD*%
%LPC*%
G36*
X1019329Y28393D02*
X1019329Y28393D01*
X1015688Y29901D01*
X1012901Y32688D01*
X1011393Y36329D01*
X1011393Y40271D01*
X1012901Y43912D01*
X1015688Y46699D01*
X1019329Y48207D01*
X1023271Y48207D01*
X1026912Y46699D01*
X1029699Y43912D01*
X1031207Y40271D01*
X1031207Y36329D01*
X1029699Y32688D01*
X1026912Y29901D01*
X1023271Y28393D01*
X1019329Y28393D01*
G37*
%LPD*%
%LPC*%
G36*
X917729Y28393D02*
X917729Y28393D01*
X914088Y29901D01*
X911301Y32688D01*
X909793Y36329D01*
X909793Y40271D01*
X911301Y43912D01*
X914088Y46699D01*
X917729Y48207D01*
X921671Y48207D01*
X925312Y46699D01*
X928099Y43912D01*
X929607Y40271D01*
X929607Y36329D01*
X928099Y32688D01*
X925312Y29901D01*
X921671Y28393D01*
X917729Y28393D01*
G37*
%LPD*%
%LPC*%
G36*
X993929Y28393D02*
X993929Y28393D01*
X990288Y29901D01*
X987501Y32688D01*
X985993Y36329D01*
X985993Y40271D01*
X987501Y43912D01*
X990288Y46699D01*
X993929Y48207D01*
X997871Y48207D01*
X1001512Y46699D01*
X1004299Y43912D01*
X1005807Y40271D01*
X1005807Y36329D01*
X1004299Y32688D01*
X1001512Y29901D01*
X997871Y28393D01*
X993929Y28393D01*
G37*
%LPD*%
%LPC*%
G36*
X841529Y28393D02*
X841529Y28393D01*
X837888Y29901D01*
X835101Y32688D01*
X833593Y36329D01*
X833593Y40271D01*
X835101Y43912D01*
X837888Y46699D01*
X841529Y48207D01*
X845471Y48207D01*
X849112Y46699D01*
X851899Y43912D01*
X853407Y40271D01*
X853407Y36329D01*
X851899Y32688D01*
X849112Y29901D01*
X845471Y28393D01*
X841529Y28393D01*
G37*
%LPD*%
%LPC*%
G36*
X816129Y28393D02*
X816129Y28393D01*
X812488Y29901D01*
X809701Y32688D01*
X808193Y36329D01*
X808193Y40271D01*
X809701Y43912D01*
X812488Y46699D01*
X816129Y48207D01*
X820071Y48207D01*
X823712Y46699D01*
X826499Y43912D01*
X828007Y40271D01*
X828007Y36329D01*
X826499Y32688D01*
X823712Y29901D01*
X820071Y28393D01*
X816129Y28393D01*
G37*
%LPD*%
%LPC*%
G36*
X1467693Y66427D02*
X1467693Y66427D01*
X1465277Y67428D01*
X1463428Y69277D01*
X1462427Y71693D01*
X1462427Y74307D01*
X1463428Y76723D01*
X1465277Y78572D01*
X1467693Y79573D01*
X1470307Y79573D01*
X1472723Y78572D01*
X1474572Y76723D01*
X1475573Y74307D01*
X1475573Y71693D01*
X1474572Y69277D01*
X1472723Y67428D01*
X1470307Y66427D01*
X1467693Y66427D01*
G37*
%LPD*%
G36*
X906182Y135704D02*
X906182Y135704D01*
X906201Y135702D01*
X906303Y135724D01*
X906405Y135741D01*
X906422Y135750D01*
X906442Y135754D01*
X906531Y135807D01*
X906622Y135856D01*
X906636Y135870D01*
X906653Y135880D01*
X906720Y135959D01*
X906791Y136034D01*
X906800Y136052D01*
X906813Y136067D01*
X906852Y136163D01*
X906895Y136257D01*
X906897Y136277D01*
X906905Y136295D01*
X906923Y136462D01*
X906923Y146384D01*
X907927Y146225D01*
X909542Y145700D01*
X911056Y144929D01*
X912441Y143923D01*
X912451Y143917D01*
X912460Y143909D01*
X912561Y143862D01*
X912660Y143812D01*
X912672Y143811D01*
X912683Y143806D01*
X912794Y143793D01*
X912904Y143778D01*
X912916Y143780D01*
X912927Y143778D01*
X913036Y143802D01*
X913146Y143822D01*
X913156Y143828D01*
X913168Y143831D01*
X913264Y143888D01*
X913361Y143942D01*
X913369Y143951D01*
X913379Y143957D01*
X913451Y144042D01*
X913526Y144124D01*
X913531Y144135D01*
X913539Y144144D01*
X913581Y144247D01*
X913625Y144349D01*
X913626Y144361D01*
X913631Y144372D01*
X913649Y144539D01*
X913649Y154722D01*
X913638Y154793D01*
X913636Y154865D01*
X913618Y154914D01*
X913610Y154965D01*
X913576Y155028D01*
X913551Y155096D01*
X913519Y155136D01*
X913494Y155182D01*
X913442Y155232D01*
X913398Y155288D01*
X913354Y155316D01*
X913316Y155352D01*
X913251Y155382D01*
X913191Y155421D01*
X913140Y155433D01*
X913093Y155455D01*
X913022Y155463D01*
X912952Y155481D01*
X912900Y155477D01*
X912849Y155482D01*
X912778Y155467D01*
X912707Y155462D01*
X912659Y155441D01*
X912608Y155430D01*
X912547Y155393D01*
X912481Y155365D01*
X912425Y155321D01*
X912397Y155304D01*
X912382Y155286D01*
X912350Y155261D01*
X904100Y147011D01*
X904047Y146937D01*
X903987Y146867D01*
X903975Y146837D01*
X903956Y146811D01*
X903929Y146724D01*
X903895Y146639D01*
X903891Y146598D01*
X903884Y146576D01*
X903885Y146544D01*
X903877Y146472D01*
X903877Y136462D01*
X903880Y136442D01*
X903878Y136423D01*
X903900Y136321D01*
X903917Y136219D01*
X903926Y136202D01*
X903930Y136182D01*
X903983Y136093D01*
X904032Y136002D01*
X904046Y135988D01*
X904056Y135971D01*
X904135Y135904D01*
X904210Y135833D01*
X904228Y135824D01*
X904243Y135811D01*
X904339Y135773D01*
X904433Y135729D01*
X904453Y135727D01*
X904471Y135719D01*
X904638Y135701D01*
X906162Y135701D01*
X906182Y135704D01*
G37*
%LPC*%
G36*
X856123Y137223D02*
X856123Y137223D01*
X856123Y146384D01*
X857127Y146225D01*
X858742Y145700D01*
X860255Y144929D01*
X861630Y143931D01*
X862831Y142730D01*
X863829Y141355D01*
X864600Y139842D01*
X865125Y138227D01*
X865284Y137223D01*
X856123Y137223D01*
G37*
%LPD*%
%LPC*%
G36*
X830723Y137223D02*
X830723Y137223D01*
X830723Y146384D01*
X831727Y146225D01*
X833342Y145700D01*
X834855Y144929D01*
X836230Y143931D01*
X837431Y142730D01*
X838429Y141355D01*
X839200Y139842D01*
X839725Y138227D01*
X839884Y137223D01*
X830723Y137223D01*
G37*
%LPD*%
%LPC*%
G36*
X869316Y137223D02*
X869316Y137223D01*
X869475Y138227D01*
X870000Y139842D01*
X870771Y141355D01*
X871769Y142730D01*
X872970Y143931D01*
X874345Y144929D01*
X875858Y145700D01*
X877473Y146225D01*
X878477Y146384D01*
X878477Y137223D01*
X869316Y137223D01*
G37*
%LPD*%
%LPC*%
G36*
X818516Y137223D02*
X818516Y137223D01*
X818675Y138227D01*
X819200Y139842D01*
X819971Y141355D01*
X820969Y142730D01*
X822170Y143931D01*
X823545Y144929D01*
X825058Y145700D01*
X826673Y146225D01*
X827677Y146384D01*
X827677Y137223D01*
X818516Y137223D01*
G37*
%LPD*%
%LPC*%
G36*
X856123Y134177D02*
X856123Y134177D01*
X865284Y134177D01*
X865125Y133173D01*
X864600Y131558D01*
X863829Y130045D01*
X862831Y128670D01*
X861630Y127469D01*
X860255Y126471D01*
X858742Y125700D01*
X857127Y125175D01*
X856123Y125016D01*
X856123Y134177D01*
G37*
%LPD*%
%LPC*%
G36*
X843916Y137223D02*
X843916Y137223D01*
X844075Y138227D01*
X844600Y139842D01*
X845371Y141355D01*
X846369Y142730D01*
X847570Y143931D01*
X848945Y144929D01*
X850458Y145700D01*
X852073Y146225D01*
X853077Y146384D01*
X853077Y137223D01*
X843916Y137223D01*
G37*
%LPD*%
%LPC*%
G36*
X830723Y134177D02*
X830723Y134177D01*
X839884Y134177D01*
X839725Y133173D01*
X839200Y131558D01*
X838429Y130045D01*
X837431Y128670D01*
X836230Y127469D01*
X834855Y126471D01*
X833342Y125700D01*
X831727Y125175D01*
X830723Y125016D01*
X830723Y134177D01*
G37*
%LPD*%
%LPC*%
G36*
X877473Y125175D02*
X877473Y125175D01*
X875858Y125700D01*
X874345Y126471D01*
X872970Y127469D01*
X871769Y128670D01*
X870771Y130045D01*
X870000Y131558D01*
X869475Y133173D01*
X869316Y134177D01*
X878477Y134177D01*
X878477Y125016D01*
X877473Y125175D01*
G37*
%LPD*%
%LPC*%
G36*
X826673Y125175D02*
X826673Y125175D01*
X825058Y125700D01*
X823545Y126471D01*
X822170Y127469D01*
X820969Y128670D01*
X819971Y130045D01*
X819200Y131558D01*
X818675Y133173D01*
X818516Y134177D01*
X827677Y134177D01*
X827677Y125016D01*
X826673Y125175D01*
G37*
%LPD*%
%LPC*%
G36*
X852073Y125175D02*
X852073Y125175D01*
X850458Y125700D01*
X848945Y126471D01*
X847570Y127469D01*
X846369Y128670D01*
X845371Y130045D01*
X844600Y131558D01*
X844075Y133173D01*
X843916Y134177D01*
X853077Y134177D01*
X853077Y125016D01*
X852073Y125175D01*
G37*
%LPD*%
%LPC*%
G36*
X1180823Y132523D02*
X1180823Y132523D01*
X1180823Y141046D01*
X1181679Y140911D01*
X1183200Y140416D01*
X1184625Y139690D01*
X1185919Y138750D01*
X1187050Y137619D01*
X1187990Y136325D01*
X1188716Y134900D01*
X1189211Y133379D01*
X1189346Y132523D01*
X1180823Y132523D01*
G37*
%LPD*%
%LPC*%
G36*
X1180823Y157923D02*
X1180823Y157923D01*
X1180823Y166446D01*
X1181679Y166311D01*
X1183200Y165816D01*
X1184625Y165090D01*
X1185919Y164150D01*
X1187050Y163019D01*
X1187990Y161725D01*
X1188716Y160300D01*
X1189211Y158779D01*
X1189346Y157923D01*
X1180823Y157923D01*
G37*
%LPD*%
%LPC*%
G36*
X1206223Y157923D02*
X1206223Y157923D01*
X1206223Y166446D01*
X1207079Y166311D01*
X1208600Y165816D01*
X1210025Y165090D01*
X1211319Y164150D01*
X1212450Y163019D01*
X1213390Y161725D01*
X1214116Y160300D01*
X1214611Y158779D01*
X1214746Y157923D01*
X1206223Y157923D01*
G37*
%LPD*%
%LPC*%
G36*
X1206223Y107123D02*
X1206223Y107123D01*
X1206223Y115646D01*
X1207079Y115511D01*
X1208600Y115016D01*
X1210025Y114290D01*
X1211319Y113350D01*
X1212450Y112219D01*
X1213390Y110925D01*
X1214116Y109500D01*
X1214611Y107979D01*
X1214746Y107123D01*
X1206223Y107123D01*
G37*
%LPD*%
%LPC*%
G36*
X1206223Y132523D02*
X1206223Y132523D01*
X1206223Y141046D01*
X1207079Y140911D01*
X1208600Y140416D01*
X1210025Y139690D01*
X1211319Y138750D01*
X1212450Y137619D01*
X1213390Y136325D01*
X1214116Y134900D01*
X1214611Y133379D01*
X1214746Y132523D01*
X1206223Y132523D01*
G37*
%LPD*%
%LPC*%
G36*
X1180823Y107123D02*
X1180823Y107123D01*
X1180823Y115646D01*
X1181679Y115511D01*
X1183200Y115016D01*
X1184625Y114290D01*
X1185919Y113350D01*
X1187050Y112219D01*
X1187990Y110925D01*
X1188716Y109500D01*
X1189211Y107979D01*
X1189346Y107123D01*
X1180823Y107123D01*
G37*
%LPD*%
%LPC*%
G36*
X1180823Y129477D02*
X1180823Y129477D01*
X1189346Y129477D01*
X1189211Y128621D01*
X1188716Y127100D01*
X1187990Y125675D01*
X1187050Y124381D01*
X1185919Y123250D01*
X1184625Y122310D01*
X1183200Y121584D01*
X1181679Y121089D01*
X1180823Y120954D01*
X1180823Y129477D01*
G37*
%LPD*%
%LPC*%
G36*
X1180823Y104077D02*
X1180823Y104077D01*
X1189346Y104077D01*
X1189211Y103221D01*
X1188716Y101700D01*
X1187990Y100275D01*
X1187050Y98981D01*
X1185919Y97850D01*
X1184625Y96910D01*
X1183200Y96184D01*
X1181679Y95689D01*
X1180823Y95554D01*
X1180823Y104077D01*
G37*
%LPD*%
%LPC*%
G36*
X1206223Y129477D02*
X1206223Y129477D01*
X1214746Y129477D01*
X1214611Y128621D01*
X1214116Y127100D01*
X1213390Y125675D01*
X1212450Y124381D01*
X1211319Y123250D01*
X1210025Y122310D01*
X1208600Y121584D01*
X1207079Y121089D01*
X1206223Y120954D01*
X1206223Y129477D01*
G37*
%LPD*%
%LPC*%
G36*
X1194654Y107123D02*
X1194654Y107123D01*
X1194789Y107979D01*
X1195284Y109500D01*
X1196010Y110925D01*
X1196950Y112219D01*
X1198081Y113350D01*
X1199375Y114290D01*
X1200800Y115016D01*
X1202321Y115511D01*
X1203177Y115646D01*
X1203177Y107123D01*
X1194654Y107123D01*
G37*
%LPD*%
%LPC*%
G36*
X1169254Y107123D02*
X1169254Y107123D01*
X1169389Y107979D01*
X1169884Y109500D01*
X1170610Y110925D01*
X1171550Y112219D01*
X1172681Y113350D01*
X1173975Y114290D01*
X1175400Y115016D01*
X1176921Y115511D01*
X1177777Y115646D01*
X1177777Y107123D01*
X1169254Y107123D01*
G37*
%LPD*%
%LPC*%
G36*
X1206223Y154877D02*
X1206223Y154877D01*
X1214746Y154877D01*
X1214611Y154021D01*
X1214116Y152500D01*
X1213390Y151075D01*
X1212450Y149781D01*
X1211319Y148650D01*
X1210025Y147710D01*
X1208600Y146984D01*
X1207079Y146489D01*
X1206223Y146354D01*
X1206223Y154877D01*
G37*
%LPD*%
%LPC*%
G36*
X1180823Y154877D02*
X1180823Y154877D01*
X1189346Y154877D01*
X1189211Y154021D01*
X1188716Y152500D01*
X1187990Y151075D01*
X1187050Y149781D01*
X1185919Y148650D01*
X1184625Y147710D01*
X1183200Y146984D01*
X1181679Y146489D01*
X1180823Y146354D01*
X1180823Y154877D01*
G37*
%LPD*%
%LPC*%
G36*
X1194654Y157923D02*
X1194654Y157923D01*
X1194789Y158779D01*
X1195284Y160300D01*
X1196010Y161725D01*
X1196950Y163019D01*
X1198081Y164150D01*
X1199375Y165090D01*
X1200800Y165816D01*
X1202321Y166311D01*
X1203177Y166446D01*
X1203177Y157923D01*
X1194654Y157923D01*
G37*
%LPD*%
%LPC*%
G36*
X1169254Y157923D02*
X1169254Y157923D01*
X1169389Y158779D01*
X1169884Y160300D01*
X1170610Y161725D01*
X1171550Y163019D01*
X1172681Y164150D01*
X1173975Y165090D01*
X1175400Y165816D01*
X1176921Y166311D01*
X1177777Y166446D01*
X1177777Y157923D01*
X1169254Y157923D01*
G37*
%LPD*%
%LPC*%
G36*
X1169254Y132523D02*
X1169254Y132523D01*
X1169389Y133379D01*
X1169884Y134900D01*
X1170610Y136325D01*
X1171550Y137619D01*
X1172681Y138750D01*
X1173975Y139690D01*
X1175400Y140416D01*
X1176921Y140911D01*
X1177777Y141046D01*
X1177777Y132523D01*
X1169254Y132523D01*
G37*
%LPD*%
%LPC*%
G36*
X1206223Y104077D02*
X1206223Y104077D01*
X1214746Y104077D01*
X1214611Y103221D01*
X1214116Y101700D01*
X1213390Y100275D01*
X1212450Y98981D01*
X1211319Y97850D01*
X1210025Y96910D01*
X1208600Y96184D01*
X1207079Y95689D01*
X1206223Y95554D01*
X1206223Y104077D01*
G37*
%LPD*%
%LPC*%
G36*
X1194654Y132523D02*
X1194654Y132523D01*
X1194789Y133379D01*
X1195284Y134900D01*
X1196010Y136325D01*
X1196950Y137619D01*
X1198081Y138750D01*
X1199375Y139690D01*
X1200800Y140416D01*
X1202321Y140911D01*
X1203177Y141046D01*
X1203177Y132523D01*
X1194654Y132523D01*
G37*
%LPD*%
%LPC*%
G36*
X1202321Y95689D02*
X1202321Y95689D01*
X1200800Y96184D01*
X1199375Y96910D01*
X1198081Y97850D01*
X1196950Y98981D01*
X1196010Y100275D01*
X1195284Y101700D01*
X1194789Y103221D01*
X1194654Y104077D01*
X1203177Y104077D01*
X1203177Y95554D01*
X1202321Y95689D01*
G37*
%LPD*%
%LPC*%
G36*
X1202321Y121089D02*
X1202321Y121089D01*
X1200800Y121584D01*
X1199375Y122310D01*
X1198081Y123250D01*
X1196950Y124381D01*
X1196010Y125675D01*
X1195284Y127100D01*
X1194789Y128621D01*
X1194654Y129477D01*
X1203177Y129477D01*
X1203177Y120954D01*
X1202321Y121089D01*
G37*
%LPD*%
%LPC*%
G36*
X1176921Y95689D02*
X1176921Y95689D01*
X1175400Y96184D01*
X1173975Y96910D01*
X1172681Y97850D01*
X1171550Y98981D01*
X1170610Y100275D01*
X1169884Y101700D01*
X1169389Y103221D01*
X1169254Y104077D01*
X1177777Y104077D01*
X1177777Y95554D01*
X1176921Y95689D01*
G37*
%LPD*%
%LPC*%
G36*
X1176921Y146489D02*
X1176921Y146489D01*
X1175400Y146984D01*
X1173975Y147710D01*
X1172681Y148650D01*
X1171550Y149781D01*
X1170610Y151075D01*
X1169884Y152500D01*
X1169389Y154021D01*
X1169254Y154877D01*
X1177777Y154877D01*
X1177777Y146354D01*
X1176921Y146489D01*
G37*
%LPD*%
%LPC*%
G36*
X1202321Y146489D02*
X1202321Y146489D01*
X1200800Y146984D01*
X1199375Y147710D01*
X1198081Y148650D01*
X1196950Y149781D01*
X1196010Y151075D01*
X1195284Y152500D01*
X1194789Y154021D01*
X1194654Y154877D01*
X1203177Y154877D01*
X1203177Y146354D01*
X1202321Y146489D01*
G37*
%LPD*%
%LPC*%
G36*
X1176921Y121089D02*
X1176921Y121089D01*
X1175400Y121584D01*
X1173975Y122310D01*
X1172681Y123250D01*
X1171550Y124381D01*
X1170610Y125675D01*
X1169884Y127100D01*
X1169389Y128621D01*
X1169254Y129477D01*
X1177777Y129477D01*
X1177777Y120954D01*
X1176921Y121089D01*
G37*
%LPD*%
%LPC*%
G36*
X743423Y39823D02*
X743423Y39823D01*
X743423Y48089D01*
X744220Y47963D01*
X745703Y47481D01*
X747092Y46773D01*
X748354Y45856D01*
X749456Y44754D01*
X750373Y43492D01*
X751081Y42103D01*
X751563Y40620D01*
X751689Y39823D01*
X743423Y39823D01*
G37*
%LPD*%
%LPC*%
G36*
X706711Y192223D02*
X706711Y192223D01*
X706837Y193020D01*
X707319Y194503D01*
X708027Y195892D01*
X708944Y197154D01*
X710046Y198256D01*
X711308Y199173D01*
X712697Y199881D01*
X714180Y200363D01*
X714977Y200489D01*
X714977Y192223D01*
X706711Y192223D01*
G37*
%LPD*%
%LPC*%
G36*
X743423Y36777D02*
X743423Y36777D01*
X751689Y36777D01*
X751563Y35980D01*
X751081Y34497D01*
X750373Y33108D01*
X749456Y31846D01*
X748354Y30744D01*
X747092Y29827D01*
X745703Y29119D01*
X744220Y28637D01*
X743423Y28511D01*
X743423Y36777D01*
G37*
%LPD*%
%LPC*%
G36*
X732111Y39823D02*
X732111Y39823D01*
X732237Y40620D01*
X732719Y42103D01*
X733427Y43492D01*
X734344Y44754D01*
X735446Y45856D01*
X736708Y46773D01*
X738097Y47481D01*
X739580Y47963D01*
X740377Y48089D01*
X740377Y39823D01*
X732111Y39823D01*
G37*
%LPD*%
%LPC*%
G36*
X739580Y28637D02*
X739580Y28637D01*
X738097Y29119D01*
X736708Y29827D01*
X735446Y30744D01*
X734344Y31846D01*
X733427Y33108D01*
X732719Y34497D01*
X732237Y35980D01*
X732111Y36777D01*
X740377Y36777D01*
X740377Y28511D01*
X739580Y28637D01*
G37*
%LPD*%
%LPC*%
G36*
X714180Y181037D02*
X714180Y181037D01*
X712697Y181519D01*
X711308Y182227D01*
X710046Y183144D01*
X708944Y184246D01*
X708027Y185508D01*
X707319Y186897D01*
X706837Y188380D01*
X706711Y189177D01*
X714977Y189177D01*
X714977Y180911D01*
X714180Y181037D01*
G37*
%LPD*%
%LPC*%
G36*
X1179299Y156399D02*
X1179299Y156399D01*
X1179299Y156401D01*
X1179301Y156401D01*
X1179301Y156399D01*
X1179299Y156399D01*
G37*
%LPD*%
%LPC*%
G36*
X1204699Y105599D02*
X1204699Y105599D01*
X1204699Y105601D01*
X1204701Y105601D01*
X1204701Y105599D01*
X1204699Y105599D01*
G37*
%LPD*%
%LPC*%
G36*
X1179299Y105599D02*
X1179299Y105599D01*
X1179299Y105601D01*
X1179301Y105601D01*
X1179301Y105599D01*
X1179299Y105599D01*
G37*
%LPD*%
%LPC*%
G36*
X829199Y135699D02*
X829199Y135699D01*
X829199Y135701D01*
X829201Y135701D01*
X829201Y135699D01*
X829199Y135699D01*
G37*
%LPD*%
%LPC*%
G36*
X1204699Y156399D02*
X1204699Y156399D01*
X1204699Y156401D01*
X1204701Y156401D01*
X1204701Y156399D01*
X1204699Y156399D01*
G37*
%LPD*%
%LPC*%
G36*
X854599Y135699D02*
X854599Y135699D01*
X854599Y135701D01*
X854601Y135701D01*
X854601Y135699D01*
X854599Y135699D01*
G37*
%LPD*%
%LPC*%
G36*
X741899Y38299D02*
X741899Y38299D01*
X741899Y38301D01*
X741901Y38301D01*
X741901Y38299D01*
X741899Y38299D01*
G37*
%LPD*%
%LPC*%
G36*
X1179299Y130999D02*
X1179299Y130999D01*
X1179299Y131001D01*
X1179301Y131001D01*
X1179301Y130999D01*
X1179299Y130999D01*
G37*
%LPD*%
%LPC*%
G36*
X1204699Y130999D02*
X1204699Y130999D01*
X1204699Y131001D01*
X1204701Y131001D01*
X1204701Y130999D01*
X1204699Y130999D01*
G37*
%LPD*%
D10*
X1204700Y181800D03*
X1179300Y181800D03*
X1204700Y156400D03*
X1179300Y156400D03*
X1204700Y131000D03*
X1179300Y131000D03*
X1204700Y105600D03*
X1179300Y105600D03*
X1204700Y80200D03*
X1179300Y80200D03*
D11*
X780000Y120000D03*
D12*
X175100Y119620D02*
X175100Y104380D01*
X200500Y104380D02*
X200500Y119620D01*
X225900Y119620D02*
X225900Y104380D01*
X251300Y104380D02*
X251300Y119620D01*
X276700Y119620D02*
X276700Y104380D01*
X302100Y104380D02*
X302100Y119620D01*
X327500Y119620D02*
X327500Y104380D01*
X352900Y104380D02*
X352900Y119620D01*
X1361900Y121620D02*
X1361900Y106380D01*
X1387300Y106380D02*
X1387300Y121620D01*
X1412700Y121620D02*
X1412700Y106380D01*
X1438100Y106380D02*
X1438100Y121620D01*
X553620Y206100D02*
X538380Y206100D01*
X538380Y180700D02*
X553620Y180700D01*
X553620Y155300D02*
X538380Y155300D01*
X538380Y129900D02*
X553620Y129900D01*
X1252380Y209100D02*
X1267620Y209100D01*
X1267620Y183700D02*
X1252380Y183700D01*
X1252380Y158300D02*
X1267620Y158300D01*
X1267620Y132900D02*
X1252380Y132900D01*
D13*
X930800Y135700D03*
D11*
X905400Y135700D03*
X880000Y135700D03*
X854600Y135700D03*
X829200Y135700D03*
X829200Y110300D03*
X854600Y110300D03*
X880000Y110300D03*
X905400Y110300D03*
X930800Y110300D03*
D14*
X716500Y190700D03*
X741900Y190700D03*
X767300Y190700D03*
X792700Y190700D03*
X818100Y190700D03*
X843500Y190700D03*
X868900Y190700D03*
X894300Y190700D03*
X919700Y190700D03*
X945100Y190700D03*
X970500Y190700D03*
X995900Y190700D03*
X1021300Y190700D03*
X1046700Y190700D03*
X1046700Y63700D03*
X1046700Y38300D03*
X1021300Y38300D03*
X995900Y38300D03*
X970500Y38300D03*
X945100Y38300D03*
X919700Y38300D03*
X894300Y38300D03*
X868900Y38300D03*
X843500Y38300D03*
X818100Y38300D03*
X792700Y38300D03*
X767300Y38300D03*
X741900Y38300D03*
X716500Y38300D03*
D15*
X604000Y30000D03*
X956000Y65000D03*
X1015000Y67000D03*
X956000Y87000D03*
D16*
X1255000Y27000D03*
X407000Y113000D03*
D15*
X470000Y37000D03*
X415000Y49000D03*
X121000Y159000D03*
X131000Y151000D03*
X121000Y208000D03*
D17*
X648000Y127000D03*
X680000Y127000D03*
X580000Y148000D03*
X580000Y127000D03*
X680000Y148000D03*
D15*
X1325000Y126000D03*
X1281000Y165000D03*
D18*
X1398000Y154000D03*
X1462000Y113000D03*
X1462000Y98000D03*
D15*
X1335000Y19000D03*
X1327000Y80000D03*
X1416000Y91000D03*
X1510000Y191000D03*
X1468000Y140000D03*
X68000Y92000D03*
X57000Y56000D03*
X103000Y24000D03*
X54000Y11000D03*
X265000Y212000D03*
X345000Y212000D03*
X421000Y213000D03*
X492000Y213000D03*
X486000Y144000D03*
X486000Y124000D03*
X181000Y86000D03*
X315000Y90000D03*
X328000Y52000D03*
X391000Y47000D03*
X293000Y184000D03*
D19*
X296000Y184000D01*
X310815Y169185D01*
X446000Y150000D02*
X446000Y129713D01*
X485313Y90400D02*
X610216Y90400D01*
X485313Y90400D02*
X446000Y129713D01*
X610216Y90400D02*
X621896Y102080D01*
X446000Y150000D02*
X426815Y169185D01*
X310815Y169185D01*
X694896Y102080D02*
X699896Y107080D01*
X728080Y107080D01*
X694896Y102080D02*
X621896Y102080D01*
X728080Y107080D02*
X741900Y120900D01*
X741900Y190700D01*
D15*
X369000Y178000D03*
D19*
X372735Y174265D01*
X451080Y131817D02*
X487417Y95480D01*
X608112Y95480D01*
X619792Y107160D01*
X760500Y206500D02*
X767300Y199700D01*
X451080Y152104D02*
X428919Y174265D01*
X372735Y174265D01*
X451080Y152104D02*
X451080Y131817D01*
X697792Y112160D02*
X718160Y112160D01*
X730000Y124000D02*
X730000Y200000D01*
X730000Y124000D02*
X718160Y112160D01*
X730000Y200000D02*
X736500Y206500D01*
X760500Y206500D01*
X692792Y107160D02*
X619792Y107160D01*
X692792Y107160D02*
X697792Y112160D01*
X767300Y190700D02*
X767300Y199700D01*
D15*
X431000Y149000D03*
D19*
X431000Y137529D01*
X483209Y85320D01*
X612320Y85320D02*
X624000Y97000D01*
X612320Y85320D02*
X483209Y85320D01*
X758000Y123000D02*
X758000Y156000D01*
X758000Y123000D02*
X737000Y102000D01*
X702000Y102000D02*
X697000Y97000D01*
X624000Y97000D01*
X702000Y102000D02*
X737000Y102000D01*
X758000Y156000D02*
X792700Y190700D01*
X606007Y100560D02*
X521000Y100560D01*
X606007Y100560D02*
X617687Y112240D01*
X521000Y100560D02*
X510000Y111560D01*
X510000Y200000D01*
D15*
X510000Y200000D03*
D19*
X697816Y201184D02*
X708212Y211580D01*
X795000Y211580D01*
X797220Y211580D01*
X697816Y201184D02*
X697816Y119369D01*
X690687Y112240D02*
X617687Y112240D01*
X690687Y112240D02*
X697816Y119369D01*
X797220Y211580D02*
X805420Y211580D01*
X818100Y198900D02*
X818100Y190700D01*
X818100Y198900D02*
X805420Y211580D01*
X1257100Y212000D02*
X1260000Y209100D01*
D15*
X950000Y212000D03*
D19*
X1257100Y212000D01*
X546000Y206100D02*
X532100Y206100D01*
X515080Y189080D01*
X515080Y113664D02*
X523104Y105640D01*
X515080Y113664D02*
X515080Y189080D01*
X523104Y105640D02*
X603903Y105640D01*
X615583Y117320D01*
X685000Y117320D01*
X692736Y125056D01*
X692736Y203289D02*
X706107Y216660D01*
X692736Y203289D02*
X692736Y125056D01*
X868900Y190700D02*
X868900Y202100D01*
X854340Y216660D02*
X706107Y216660D01*
X854340Y216660D02*
X868900Y202100D01*
X917460Y122360D02*
X905400Y110300D01*
X917460Y122360D02*
X917460Y153460D01*
X932000Y168000D01*
X932000Y202000D01*
X922000Y212000D01*
X903300Y212000D02*
X894300Y203000D01*
X903300Y212000D02*
X922000Y212000D01*
X894300Y203000D02*
X894300Y190700D01*
X893000Y123300D02*
X880000Y110300D01*
X893000Y141300D02*
X919700Y168000D01*
X893000Y141300D02*
X893000Y123300D01*
X919700Y168000D02*
X919700Y190700D01*
X945100Y124600D02*
X930800Y110300D01*
X945100Y124600D02*
X945100Y190700D01*
X1009000Y178400D02*
X1009000Y162000D01*
D15*
X1009000Y162000D03*
D19*
X1009000Y139000D01*
X993000Y123000D01*
X970000Y123000D02*
X939000Y92000D01*
X970000Y123000D02*
X993000Y123000D01*
X854600Y110300D02*
X854600Y107849D01*
X870449Y92000D02*
X939000Y92000D01*
X870449Y92000D02*
X854600Y107849D01*
X1009000Y178400D02*
X1021300Y190700D01*
D15*
X1013000Y129000D03*
D19*
X1015000Y129000D01*
X837000Y94160D02*
X829200Y101960D01*
X829200Y110300D01*
X861104Y94160D02*
X868344Y86920D01*
X941104Y86920D01*
X861104Y94160D02*
X837000Y94160D01*
X972104Y117920D02*
X1001920Y117920D01*
X1013000Y129000D01*
X972104Y117920D02*
X941104Y86920D01*
X1029000Y56000D02*
X1046700Y38300D01*
X1029000Y115000D02*
X1015000Y129000D01*
X1029000Y115000D02*
X1029000Y56000D01*
X263000Y65000D02*
X257000Y59000D01*
D15*
X257000Y59000D03*
D19*
X263000Y65000D02*
X720000Y65000D01*
X733760Y78760D01*
X784000Y78760D01*
D15*
X844000Y71000D03*
D19*
X791760Y71000D02*
X784000Y78760D01*
X791760Y71000D02*
X844000Y71000D01*
X84920Y70080D02*
X84000Y71000D01*
D15*
X84000Y71000D03*
D19*
X84920Y70080D02*
X716209Y70080D01*
X729969Y83840D02*
X787000Y83840D01*
X729969Y83840D02*
X716209Y70080D01*
X850920Y78920D02*
X858000Y71840D01*
X858000Y71000D01*
D15*
X858000Y71000D03*
D19*
X791920Y78920D02*
X787000Y83840D01*
X791920Y78920D02*
X850920Y78920D01*
D15*
X41000Y185000D03*
D19*
X397239Y164105D02*
X481104Y80240D01*
X712000Y80240D01*
X397239Y164105D02*
X209895Y164105D01*
X712000Y80240D02*
X725760Y94000D01*
X793000Y94000D01*
X209895Y164105D02*
X158000Y216000D01*
X72000Y216000D01*
X41000Y185000D01*
X793000Y94000D02*
X797920Y89080D01*
X859000Y89080D01*
X894300Y53780D01*
X894300Y38300D01*
X170366Y131050D02*
X170316Y131000D01*
X170366Y131050D02*
X182000Y131050D01*
X142200Y131000D02*
X102600Y91400D01*
D15*
X102600Y91400D03*
D19*
X142200Y131000D02*
X170316Y131000D01*
X182000Y131050D02*
X209975Y159025D01*
X395135Y159025D02*
X479000Y75160D01*
X714104Y75160D01*
X395135Y159025D02*
X209975Y159025D01*
X714104Y75160D02*
X727864Y88920D01*
X789104Y88920D02*
X794024Y84000D01*
X856090Y84000D02*
X868900Y71190D01*
X856090Y84000D02*
X794024Y84000D01*
X789104Y88920D02*
X727864Y88920D01*
X868900Y71190D02*
X868900Y38300D01*
X737684Y68316D02*
X724209Y54840D01*
X737684Y68316D02*
X772684Y68316D01*
X776000Y65000D01*
D15*
X776000Y65000D03*
X515000Y36000D03*
D19*
X533840Y54840D01*
X724209Y54840D01*
D15*
X502000Y36000D03*
D19*
X525000Y28000D02*
X546760Y49760D01*
X739789Y63236D02*
X759000Y63236D01*
X739789Y63236D02*
X726313Y49760D01*
X546760Y49760D01*
X759000Y63236D02*
X766236Y56000D01*
X767000Y56000D01*
D15*
X767000Y56000D03*
D19*
X525000Y28000D02*
X510000Y28000D01*
X502000Y36000D01*
X722104Y59920D02*
X735864Y73680D01*
X722104Y59920D02*
X522920Y59920D01*
X735864Y73680D02*
X780320Y73680D01*
X792700Y61300D01*
X522920Y59920D02*
X519000Y56000D01*
X519000Y52000D01*
D15*
X519000Y52000D03*
D19*
X792700Y61300D02*
X792700Y38300D01*
D17*
X1470000Y204000D03*
D20*
X1476000Y204000D01*
X1512888Y167112D01*
D17*
X1109000Y85000D03*
D21*
X1109000Y39000D01*
X1080000Y10000D01*
D20*
X1137000Y57000D02*
X1109000Y85000D01*
D17*
X688000Y20000D03*
D21*
X698000Y10000D01*
X1080000Y10000D01*
D20*
X1471000Y8000D02*
X1512888Y49888D01*
X1512888Y167112D01*
X1471000Y8000D02*
X1397000Y8000D01*
D22*
X1397000Y33000D01*
X1423000Y59000D01*
X1432000Y59000D01*
D15*
X1432000Y59000D03*
X1315000Y73000D03*
D20*
X1315000Y23832D01*
X1330832Y8000D01*
X1397000Y8000D01*
X1315000Y73000D02*
X1299000Y57000D01*
X1137000Y57000D01*
D17*
X1078000Y181000D03*
D20*
X1078000Y28000D01*
X1069000Y19000D01*
X706000Y19000D01*
X1233000Y122000D02*
X1250000Y105000D01*
X1233000Y122000D02*
X1233000Y177000D01*
X1209000Y201000D01*
X1098000Y201000D01*
X1078000Y181000D01*
X706000Y19000D02*
X693000Y32000D01*
X679000Y32000D01*
D15*
X655000Y23000D03*
D20*
X670000Y23000D02*
X679000Y32000D01*
X670000Y23000D02*
X655000Y23000D01*
X1250000Y105000D02*
X1272000Y105000D01*
X1281000Y114000D01*
X1290500Y123500D01*
D22*
X1431692Y176000D02*
X1487000Y176000D01*
D15*
X1420000Y23000D03*
X1279722Y113632D03*
D19*
X1280632Y113632D01*
X1281000Y114000D01*
D20*
X1290500Y123500D02*
X1290500Y145500D01*
D22*
X1420000Y23000D02*
X1421000Y24000D01*
X1504100Y158900D02*
X1487000Y176000D01*
X1504100Y158900D02*
X1504100Y54100D01*
X1474000Y24000D01*
X1421000Y24000D01*
D20*
X1290500Y145500D02*
X1326000Y181000D01*
D22*
X1421000Y165308D02*
X1431692Y176000D01*
D15*
X1421000Y165308D03*
D20*
X1405308Y181000D01*
X1326000Y181000D01*
D15*
X573000Y9112D03*
X405000Y30000D03*
D22*
X415000Y20000D01*
X562112Y20000D01*
X573000Y9112D01*
D15*
X406000Y81000D03*
D22*
X401000Y76000D01*
X251600Y76000D02*
X247000Y80600D01*
D15*
X247000Y80600D03*
D22*
X251600Y76000D02*
X401000Y76000D01*
D15*
X142000Y188000D03*
D22*
X239000Y88600D02*
X247000Y80600D01*
D15*
X239000Y134000D03*
X293000Y172000D03*
D22*
X216000Y172000D01*
X175000Y213000D01*
D15*
X175000Y213000D03*
D22*
X239000Y134000D02*
X239000Y88600D01*
D15*
X82000Y110000D03*
X56000Y162000D03*
X178000Y139000D03*
D22*
X378000Y134000D02*
X378000Y99000D01*
X378000Y134000D02*
X364000Y148000D01*
D15*
X216000Y148000D03*
D22*
X364000Y148000D01*
D15*
X378000Y99000D03*
D19*
X178000Y139000D02*
X98000Y139000D01*
X82000Y123000D02*
X82000Y110000D01*
X82000Y123000D02*
X98000Y139000D01*
X56000Y162000D02*
X45000Y151000D01*
X45000Y108000D02*
X47000Y106000D01*
D15*
X47000Y106000D03*
D19*
X45000Y108000D02*
X45000Y151000D01*
D15*
X1380744Y26050D03*
D19*
X1340950Y26050D01*
X1332000Y35000D01*
D15*
X1332000Y35000D03*
X90955Y197955D03*
D19*
X116045Y197955D01*
X126000Y188000D02*
X130000Y188000D01*
D15*
X130000Y188000D03*
D19*
X126000Y188000D02*
X116045Y197955D01*
D15*
X71000Y55000D03*
D19*
X200000Y55000D01*
X201000Y56000D01*
D15*
X201000Y56000D03*
X83000Y86000D03*
X110632Y127542D03*
D19*
X83000Y99910D01*
X83000Y86000D01*
D15*
X39112Y98000D03*
D19*
X39112Y158112D01*
X55000Y174000D01*
D15*
X142000Y177000D03*
D19*
X139000Y174000D01*
X55000Y174000D01*
D15*
X159000Y12000D03*
D19*
X85000Y12000D01*
X84000Y11000D01*
D15*
X84000Y11000D03*
X335000Y37000D03*
X256000Y37000D03*
D19*
X335000Y37000D01*
D15*
X1233000Y197000D03*
D19*
X1292000Y197000D01*
X1311650Y216650D02*
X1411000Y216650D01*
X1311650Y216650D02*
X1292000Y197000D01*
X1411000Y216650D02*
X1432000Y195650D01*
X1432000Y186000D01*
D15*
X1432000Y186000D03*
X1319000Y160642D03*
D19*
X1387300Y114000D02*
X1387300Y100380D01*
X1381104Y94184D01*
X1352184Y94184D02*
X1337184Y109184D01*
X1352184Y94184D02*
X1381104Y94184D01*
X1337184Y109184D02*
X1337184Y142458D01*
X1319000Y160642D01*
D15*
X1316000Y208000D03*
X1420000Y190000D03*
D19*
X1408000Y208000D02*
X1316000Y208000D01*
X1420000Y196000D02*
X1420000Y190000D01*
X1420000Y196000D02*
X1408000Y208000D01*
D15*
X1241500Y101311D03*
D19*
X1244811Y98000D01*
X1279000Y98000D01*
D15*
X1401000Y91000D03*
D19*
X1296080Y115080D02*
X1279000Y98000D01*
X1398592Y88592D02*
X1401000Y91000D01*
X1324104Y115080D02*
X1296080Y115080D01*
X1324104Y115080D02*
X1350592Y88592D01*
X1398592Y88592D01*
D15*
X1493000Y66000D03*
D19*
X1472000Y87000D01*
X1472000Y120000D01*
X1455000Y137000D02*
X1428000Y137000D01*
X1412700Y121700D01*
X1412700Y114000D01*
X1455000Y137000D02*
X1472000Y120000D01*
D15*
X1246898Y89907D03*
X1343600Y81900D03*
D19*
X1280000Y91907D02*
X1248898Y91907D01*
X1246898Y89907D01*
X1280000Y91907D02*
X1281013Y92920D01*
X1281104Y92920D01*
X1298184Y110000D01*
X1322000Y110000D01*
X1343600Y88400D02*
X1343600Y81900D01*
X1343600Y88400D02*
X1322000Y110000D01*
X1438100Y114000D02*
X1438100Y97100D01*
X1413000Y72000D01*
D15*
X1390000Y72000D03*
D19*
X1413000Y72000D01*
D15*
X710000Y92330D03*
X629000Y89000D03*
D20*
X706670Y89000D01*
X710000Y92330D01*
D23*
X572000Y188000D02*
X572000Y219539D01*
X684000Y219539D01*
X684000Y184000D01*
X683746Y180442D01*
X682987Y176957D01*
X681741Y173615D01*
X680031Y170484D01*
X677894Y167628D01*
X675372Y165106D01*
X672516Y162969D01*
X669385Y161259D01*
X666043Y160013D01*
X662558Y159254D01*
X659000Y159000D01*
X601000Y159000D01*
X596873Y159295D01*
X592830Y160175D01*
X588953Y161621D01*
X585321Y163604D01*
X582009Y166083D01*
X579083Y169009D01*
X576604Y172321D01*
X574621Y175953D01*
X573175Y179830D01*
X572295Y183873D01*
X572000Y188000D01*
X593633Y160000D02*
X665985Y160000D01*
X675230Y165000D02*
X583456Y165000D01*
X578341Y170000D02*
X679669Y170000D01*
X682258Y175000D02*
X575141Y175000D01*
X573138Y180000D02*
X683649Y180000D01*
X684000Y185000D02*
X572215Y185000D01*
X572000Y190000D02*
X684000Y190000D01*
X684000Y195000D02*
X572000Y195000D01*
X572000Y200000D02*
X684000Y200000D01*
X684000Y205000D02*
X572000Y205000D01*
X572000Y210000D02*
X684000Y210000D01*
X684000Y215000D02*
X572000Y215000D01*
X575000Y219539D02*
X575000Y175258D01*
X580000Y168092D02*
X580000Y219539D01*
X585000Y219539D02*
X585000Y163844D01*
X590000Y161230D02*
X590000Y219539D01*
X595000Y219539D02*
X595000Y159703D01*
X600000Y159072D02*
X600000Y219539D01*
X605000Y219539D02*
X605000Y159000D01*
X610000Y159000D02*
X610000Y219539D01*
X615000Y219539D02*
X615000Y159000D01*
X620000Y159000D02*
X620000Y219539D01*
X625000Y219539D02*
X625000Y159000D01*
X630000Y159000D02*
X630000Y219539D01*
X635000Y219539D02*
X635000Y159000D01*
X640000Y159000D02*
X640000Y219539D01*
X645000Y219539D02*
X645000Y159000D01*
X650000Y159000D02*
X650000Y219539D01*
X655000Y219539D02*
X655000Y159000D01*
X660000Y159072D02*
X660000Y219539D01*
X665000Y219539D02*
X665000Y159786D01*
X670000Y161595D02*
X670000Y219539D01*
X675000Y219539D02*
X675000Y164828D01*
X680000Y170442D02*
X680000Y219539D01*
D15*
X607000Y190000D03*
X619000Y190000D03*
X631000Y190000D03*
X644000Y190000D03*
X655000Y190000D03*
X664000Y178000D03*
X652000Y178000D03*
X640000Y178000D03*
X627000Y178000D03*
X615000Y178000D03*
X604000Y178000D03*
X607000Y166000D03*
X619000Y166000D03*
X631000Y166000D03*
X644000Y166000D03*
X656000Y166000D03*
X1485045Y161045D03*
D19*
X1475045Y161045D01*
X1458000Y144000D01*
X1370000Y144000D01*
X1362000Y136000D01*
X1362000Y114100D01*
X1361900Y114000D01*
D15*
X1482000Y94000D03*
D19*
X1482000Y158000D02*
X1485045Y161045D01*
X1482000Y158000D02*
X1482000Y94000D01*
D15*
X1313000Y101000D03*
X1253000Y80000D03*
D19*
X1259827Y86827D01*
X1296369Y101000D02*
X1313000Y101000D01*
X1296369Y101000D02*
X1282196Y86827D01*
X1259827Y86827D01*
D15*
X1469000Y73000D03*
D24*
X30000Y0D02*
X1520000Y0D01*
X1520000Y225000D01*
X30000Y225000D01*
X30000Y0D01*
M02*
