M48
;GenerationSoftware,Autodesk,EAGLE,9.5.0*%
;CreationDate,2019-09-29T04:35:29Z*%
FMAT,2
ICI,OFF
METRIC,TZ,000.000
T7C0.400
T6C0.450
T5C0.600
T4C0.965
T3C1.016
T2C1.100
T1C3.000
%
G90
M71
T1
X125500Y2700
X40700Y11300
T2
X85460Y11030
X78000Y12000
X93080Y13570
X90540Y13570
X88000Y13570
X85460Y13570
X82920Y13570
X82920Y11030
X88000Y11030
X90540Y11030
X93080Y11030
T3
X120470Y18180
X126000Y13290
X117930Y18180
X120470Y15640
X117930Y15640
X120470Y13100
X117930Y13100
X120470Y10560
X117930Y10560
X120470Y8020
X117930Y8020
X17510Y11200
X20050Y11200
X22590Y11200
X25130Y11200
X27670Y11200
X30210Y11200
X32750Y11200
X35290Y11200
X136190Y11400
X138730Y11400
X141270Y11400
X143810Y11400
X54600Y20610
X54600Y18070
X54600Y15530
X54600Y12990
X126000Y20910
X126000Y18370
X126000Y15830
T4
X89430Y3830
X86890Y3830
X84350Y3830
X81810Y3830
X79270Y3830
X76730Y3830
X71650Y3830
X94510Y3830
X91970Y3830
X97050Y3830
X99590Y3830
X71650Y19070
X74190Y19070
X76730Y19070
X79270Y19070
X102130Y3830
X104670Y3830
X74190Y3830
X81810Y19070
X84350Y19070
X104670Y6370
X86890Y19070
X89430Y19070
X91970Y19070
X94510Y19070
X97050Y19070
X99590Y19070
X102130Y19070
X104670Y19070
T5
X107800Y18100
X68800Y2000
X110900Y8500
X147000Y20400
X68000Y12700
X64800Y12700
X58000Y14800
X68000Y14800
X58000Y12700
T6
X146200Y9800
X146200Y11300
X139800Y15400
T7
X9095Y19795
X13000Y18800
X7100Y5500
X20100Y5600
X8300Y8600
X11063Y12754
X3911Y9800
X14200Y17700
X15900Y1200
X8400Y1100
X33500Y3700
X25600Y3700
X123300Y19700
X143200Y18600
X131900Y16064
X131600Y20800
X60400Y3000
X124150Y10131
X140100Y9100
X149300Y6600
X124690Y8991
X134360Y8190
X139000Y7200
X71000Y9233
X62900Y8900
X60700Y19000
X61900Y19000
X63100Y19000
X64400Y19000
X65500Y19000
X66400Y17800
X65200Y17800
X64000Y17800
X62700Y17800
X61500Y17800
X60400Y17800
X60700Y16600
X61900Y16600
X63100Y16600
X64400Y16600
X65600Y16600
X148505Y16105
X148200Y9400
X131300Y10100
X125300Y8000
X146900Y7300
X133200Y3500
X138074Y2605
X4700Y10600
X37800Y9900
X21600Y14800
X17800Y13900
X5600Y16200
X8200Y11000
X17500Y21300
X29300Y17200
X23900Y13400
X14200Y18800
X24700Y8060
X40600Y8100
X40500Y3000
X57300Y911
X142100Y16531
X127972Y11363
X142000Y2300
X65500Y2300
X131500Y7300
X143200Y5900
X51900Y5200
X76700Y5600
X50200Y3600
X51500Y3600
X77600Y6500
X10260Y9140
X4100Y18500
X85800Y7100
X8400Y7100
X84400Y7100
X25700Y5900
X101300Y12900
X100900Y16200
X95000Y21200
X51000Y20000
X43100Y14900
X36900Y17800
X29300Y18400
X39100Y4700
X32800Y5200
X31500Y9000
X18100Y8600
X48600Y12400
X48600Y14400
X49200Y21300
X42100Y21300
X34500Y21200
X26500Y21200
X5400Y1100
X10300Y2400
X5700Y5600
X6800Y9200
X146800Y14000
X151000Y19100
X141600Y9100
X132700Y8000
X133500Y1900
X128100Y16500
X132500Y12600
X12100Y20800
X13100Y15100
X12100Y15900
X41500Y4900
X47000Y3700
X95600Y8700
X101500Y6700
X95600Y6500
X142000Y19000
M30