G04 EAGLE Gerber RS-274X export*
G75*
%MOMM*%
%FSLAX34Y34*%
%LPD*%
%INSoldermask Top*%
%IPPOS*%
%AMOC8*
5,1,8,0,0,1.08239X$1,22.5*%
G01*
%ADD10C,0.000000*%
%ADD11R,1.603200X2.803200*%
%ADD12R,2.803200X1.603200*%
%ADD13R,1.603200X1.603200*%
%ADD14R,0.558800X1.676400*%
%ADD15R,1.303200X1.203200*%
%ADD16R,1.422400X2.438400*%
%ADD17R,3.803200X2.403200*%
%ADD18R,1.603200X2.403200*%
%ADD19R,3.003200X1.603200*%
%ADD20C,0.499716*%
%ADD21R,1.703200X2.203200*%
%ADD22R,2.203200X1.703200*%
%ADD23R,1.203200X1.303200*%
%ADD24R,0.903200X1.203200*%
%ADD25R,2.403200X0.703200*%
%ADD26R,1.346200X1.219200*%
%ADD27R,2.403200X0.803200*%
%ADD28C,1.727200*%
%ADD29R,0.762000X1.320800*%
%ADD30C,1.853200*%
%ADD31C,1.727200*%
%ADD32R,1.853200X1.853200*%
%ADD33C,1.676400*%
%ADD34R,0.803200X1.403200*%
%ADD35C,4.219200*%
%ADD36C,0.254000*%

G36*
X635793Y135795D02*
X635793Y135795D01*
X635823Y135805D01*
X635866Y135809D01*
X637555Y136321D01*
X637582Y136337D01*
X637623Y136350D01*
X639179Y137181D01*
X639203Y137202D01*
X639241Y137223D01*
X640605Y138342D01*
X640624Y138367D01*
X640658Y138395D01*
X641777Y139759D01*
X641791Y139787D01*
X641819Y139821D01*
X642650Y141377D01*
X642658Y141407D01*
X642679Y141445D01*
X643191Y143134D01*
X643192Y143146D01*
X643194Y143152D01*
X643194Y143168D01*
X643205Y143207D01*
X643378Y144963D01*
X643376Y144979D01*
X643380Y145000D01*
X643380Y156979D01*
X643448Y157582D01*
X643642Y158136D01*
X643954Y158632D01*
X644368Y159046D01*
X644864Y159358D01*
X645418Y159552D01*
X646021Y159620D01*
X667000Y159620D01*
X667015Y159623D01*
X667033Y159621D01*
X668770Y159773D01*
X668797Y159782D01*
X668835Y159785D01*
X670519Y160236D01*
X670543Y160249D01*
X670581Y160258D01*
X672161Y160995D01*
X672183Y161013D01*
X672218Y161028D01*
X673646Y162028D01*
X673665Y162049D01*
X673697Y162071D01*
X674929Y163303D01*
X674944Y163327D01*
X674972Y163354D01*
X675972Y164782D01*
X675982Y164808D01*
X676005Y164839D01*
X676742Y166419D01*
X676747Y166447D01*
X676764Y166481D01*
X677215Y168165D01*
X677216Y168193D01*
X677227Y168230D01*
X677379Y169967D01*
X677377Y169982D01*
X677380Y170000D01*
X677380Y225000D01*
X677369Y225050D01*
X677367Y225101D01*
X677349Y225133D01*
X677341Y225169D01*
X677308Y225208D01*
X677284Y225253D01*
X677254Y225274D01*
X677231Y225302D01*
X677184Y225323D01*
X677142Y225353D01*
X677100Y225361D01*
X677072Y225373D01*
X677042Y225372D01*
X677000Y225380D01*
X590000Y225380D01*
X589950Y225369D01*
X589899Y225367D01*
X589867Y225349D01*
X589831Y225341D01*
X589792Y225308D01*
X589747Y225284D01*
X589726Y225254D01*
X589698Y225231D01*
X589677Y225184D01*
X589647Y225142D01*
X589639Y225100D01*
X589627Y225072D01*
X589627Y225053D01*
X589627Y225051D01*
X589627Y225038D01*
X589620Y225000D01*
X589620Y171000D01*
X589623Y170986D01*
X589621Y170967D01*
X589788Y169057D01*
X589797Y169030D01*
X589800Y168991D01*
X589803Y168981D01*
X589904Y168601D01*
X589905Y168601D01*
X590006Y168221D01*
X590006Y168220D01*
X590108Y167840D01*
X590210Y167460D01*
X590296Y167139D01*
X590309Y167115D01*
X590319Y167077D01*
X591129Y165339D01*
X591147Y165317D01*
X591162Y165282D01*
X592262Y163711D01*
X592283Y163692D01*
X592305Y163660D01*
X593660Y162305D01*
X593685Y162290D01*
X593711Y162262D01*
X595282Y161162D01*
X595308Y161152D01*
X595339Y161129D01*
X597077Y160319D01*
X597105Y160313D01*
X597139Y160296D01*
X598991Y159800D01*
X599020Y159799D01*
X599057Y159788D01*
X600967Y159621D01*
X600982Y159623D01*
X601000Y159620D01*
X619979Y159620D01*
X621027Y159502D01*
X622003Y159160D01*
X622879Y158610D01*
X623610Y157879D01*
X624160Y157003D01*
X624502Y156027D01*
X624620Y154979D01*
X624620Y145000D01*
X624624Y144984D01*
X624622Y144963D01*
X624795Y143207D01*
X624805Y143177D01*
X624809Y143134D01*
X625321Y141445D01*
X625337Y141418D01*
X625350Y141377D01*
X626181Y139821D01*
X626202Y139797D01*
X626223Y139759D01*
X627342Y138395D01*
X627367Y138376D01*
X627395Y138342D01*
X628759Y137223D01*
X628787Y137209D01*
X628821Y137181D01*
X630377Y136350D01*
X630407Y136342D01*
X630445Y136321D01*
X632134Y135809D01*
X632165Y135807D01*
X632207Y135795D01*
X633963Y135622D01*
X633994Y135626D01*
X634037Y135622D01*
X635793Y135795D01*
G37*
D10*
X30000Y0D02*
X1520000Y0D01*
X1520000Y225000D01*
X30000Y225000D01*
X30000Y0D01*
D11*
X1101200Y163100D03*
X1101200Y204100D03*
D12*
X1147900Y105700D03*
X1106900Y105700D03*
D13*
X1147000Y64700D03*
X1109000Y64700D03*
X1154700Y163900D03*
X1154700Y201900D03*
D14*
X973740Y84590D03*
X980344Y84590D03*
X986948Y84590D03*
X993298Y84590D03*
X999902Y84590D03*
X1006252Y84590D03*
X1012856Y84590D03*
X1019460Y84590D03*
X1019460Y143010D03*
X1012856Y143010D03*
X1006252Y143010D03*
X999902Y143010D03*
X993298Y143010D03*
X986948Y143010D03*
X980344Y143010D03*
X973740Y143010D03*
D15*
X994700Y163900D03*
X977700Y163900D03*
X996100Y63900D03*
X979100Y63900D03*
X723500Y164100D03*
X740500Y164100D03*
D16*
X610786Y146612D03*
X633900Y146612D03*
X657014Y146612D03*
D17*
X633900Y208590D03*
D18*
X666100Y79000D03*
X666100Y111000D03*
X597900Y77500D03*
X597900Y109500D03*
D19*
X542300Y99800D03*
X542300Y75800D03*
D20*
X462468Y58768D02*
X462468Y50332D01*
X459532Y50332D01*
X459532Y58768D01*
X462468Y58768D01*
X462468Y55079D02*
X459532Y55079D01*
X471968Y58768D02*
X471968Y50332D01*
X469032Y50332D01*
X469032Y58768D01*
X471968Y58768D01*
X471968Y55079D02*
X469032Y55079D01*
X481468Y58768D02*
X481468Y50332D01*
X478532Y50332D01*
X478532Y58768D01*
X481468Y58768D01*
X481468Y55079D02*
X478532Y55079D01*
X478532Y75232D02*
X478532Y83668D01*
X481468Y83668D01*
X481468Y75232D01*
X478532Y75232D01*
X478532Y79979D02*
X481468Y79979D01*
X459532Y83668D02*
X459532Y75232D01*
X459532Y83668D02*
X462468Y83668D01*
X462468Y75232D01*
X459532Y75232D01*
X459532Y79979D02*
X462468Y79979D01*
D21*
X451000Y21000D03*
X421000Y21000D03*
D15*
X554500Y47500D03*
X537500Y47500D03*
D22*
X434500Y80500D03*
X434500Y50500D03*
D15*
X447500Y110500D03*
X464500Y110500D03*
D23*
X670500Y42500D03*
X670500Y25500D03*
X636500Y59000D03*
X619500Y59000D03*
X587200Y42200D03*
X587200Y25200D03*
D24*
X629000Y13000D03*
X619500Y35000D03*
X638500Y35000D03*
D23*
X1331400Y162400D03*
X1331400Y179400D03*
D25*
X99960Y188550D03*
X99960Y175950D03*
X99960Y163250D03*
X99960Y150550D03*
X163040Y188550D03*
X163040Y175850D03*
X163040Y163150D03*
X163040Y150450D03*
D23*
X42800Y166800D03*
X42800Y149800D03*
D15*
X42500Y196500D03*
X42500Y213500D03*
X71000Y150000D03*
X71000Y167000D03*
D23*
X49600Y119700D03*
X66600Y119700D03*
D15*
X71000Y212500D03*
X71000Y195500D03*
D23*
X195500Y205700D03*
X195500Y188700D03*
X66900Y74800D03*
X49900Y74800D03*
D15*
X195500Y167000D03*
X195500Y150000D03*
X71000Y26100D03*
X71000Y43100D03*
X43300Y43000D03*
X43300Y26000D03*
D25*
X171960Y63550D03*
X171960Y50950D03*
X171960Y38250D03*
X171960Y25550D03*
X235040Y63550D03*
X235040Y50850D03*
X235040Y38150D03*
X235040Y25450D03*
D15*
X140200Y57000D03*
X123200Y57000D03*
D23*
X123000Y102500D03*
X140000Y102500D03*
X140000Y35700D03*
X123000Y35700D03*
X140000Y12500D03*
X123000Y12500D03*
X140100Y79500D03*
X123100Y79500D03*
D15*
X287600Y37000D03*
X270600Y37000D03*
D23*
X270400Y59000D03*
X287400Y59000D03*
X270600Y15200D03*
X287600Y15200D03*
D15*
X352200Y58600D03*
X352200Y75600D03*
X351800Y17500D03*
X351800Y34500D03*
D26*
X276860Y173000D03*
X256540Y164110D03*
X256540Y181890D03*
D15*
X234100Y164600D03*
X234100Y147600D03*
X234500Y188500D03*
X234500Y205500D03*
D26*
X353260Y173200D03*
X332940Y164310D03*
X332940Y182090D03*
D15*
X310900Y168600D03*
X310900Y151600D03*
X311100Y188700D03*
X311100Y205700D03*
D26*
X430360Y174100D03*
X410040Y165210D03*
X410040Y182990D03*
D15*
X388600Y168300D03*
X388600Y151300D03*
X388300Y187900D03*
X388300Y204900D03*
D26*
X510160Y174500D03*
X489840Y165610D03*
X489840Y183390D03*
D15*
X463100Y168100D03*
X463100Y151100D03*
X463300Y188300D03*
X463300Y205300D03*
D27*
X1400000Y190850D03*
X1452000Y190850D03*
X1400000Y203550D03*
X1400000Y178150D03*
X1400000Y165450D03*
X1452000Y203550D03*
X1452000Y178150D03*
X1452000Y165450D03*
D23*
X1057000Y161000D03*
X1040000Y161000D03*
X1501100Y110300D03*
X1484100Y110300D03*
X1484000Y173000D03*
X1501000Y173000D03*
D15*
X1501000Y141000D03*
X1484000Y141000D03*
X1297500Y193500D03*
X1297500Y210500D03*
X1331500Y193500D03*
X1331500Y210500D03*
D23*
X1363000Y210400D03*
X1363000Y193400D03*
X1056900Y137500D03*
X1039900Y137500D03*
D27*
X1400000Y47350D03*
X1452000Y47350D03*
X1400000Y60050D03*
X1400000Y34650D03*
X1400000Y21950D03*
X1452000Y60050D03*
X1452000Y34650D03*
X1452000Y21950D03*
D23*
X1056800Y113700D03*
X1039800Y113700D03*
X1500500Y17000D03*
X1483500Y17000D03*
X1500500Y46500D03*
X1483500Y46500D03*
D15*
X1483500Y79000D03*
X1500500Y79000D03*
D23*
X1372400Y79300D03*
X1355400Y79300D03*
X1372400Y59200D03*
X1355400Y59200D03*
D15*
X1355400Y37500D03*
X1372400Y37500D03*
D23*
X1056400Y90600D03*
X1039400Y90600D03*
D15*
X1484000Y205500D03*
X1501000Y205500D03*
X1437000Y148500D03*
X1420000Y148500D03*
X1452500Y79000D03*
X1435500Y79000D03*
X1355000Y15000D03*
X1372000Y15000D03*
X153000Y209500D03*
X136000Y209500D03*
X287200Y80600D03*
X270200Y80600D03*
D28*
X1204700Y181800D03*
X1179300Y181800D03*
X1204700Y156400D03*
X1179300Y156400D03*
X1204700Y131000D03*
X1179300Y131000D03*
X1204700Y105600D03*
X1179300Y105600D03*
X1204700Y80200D03*
X1179300Y80200D03*
D29*
X730602Y112062D03*
X749398Y112062D03*
X740000Y135938D03*
D30*
X780000Y120000D03*
D31*
X175100Y119620D02*
X175100Y104380D01*
X200500Y104380D02*
X200500Y119620D01*
X225900Y119620D02*
X225900Y104380D01*
X251300Y104380D02*
X251300Y119620D01*
X276700Y119620D02*
X276700Y104380D01*
X302100Y104380D02*
X302100Y119620D01*
X327500Y119620D02*
X327500Y104380D01*
X352900Y104380D02*
X352900Y119620D01*
X1361900Y121620D02*
X1361900Y106380D01*
X1387300Y106380D02*
X1387300Y121620D01*
X1412700Y121620D02*
X1412700Y106380D01*
X1438100Y106380D02*
X1438100Y121620D01*
X553620Y206100D02*
X538380Y206100D01*
X538380Y180700D02*
X553620Y180700D01*
X553620Y155300D02*
X538380Y155300D01*
X538380Y129900D02*
X553620Y129900D01*
X1252380Y209100D02*
X1267620Y209100D01*
X1267620Y183700D02*
X1252380Y183700D01*
X1252380Y158300D02*
X1267620Y158300D01*
X1267620Y132900D02*
X1252380Y132900D01*
D32*
X930800Y135700D03*
D30*
X905400Y135700D03*
X880000Y135700D03*
X854600Y135700D03*
X829200Y135700D03*
X829200Y110300D03*
X854600Y110300D03*
X880000Y110300D03*
X905400Y110300D03*
X930800Y110300D03*
D33*
X716500Y190700D03*
X741900Y190700D03*
X767300Y190700D03*
X792700Y190700D03*
X818100Y190700D03*
X843500Y190700D03*
X868900Y190700D03*
X894300Y190700D03*
X919700Y190700D03*
X945100Y190700D03*
X970500Y190700D03*
X995900Y190700D03*
X1021300Y190700D03*
X1046700Y190700D03*
X1046700Y63700D03*
X1046700Y38300D03*
X1021300Y38300D03*
X995900Y38300D03*
X970500Y38300D03*
X945100Y38300D03*
X919700Y38300D03*
X894300Y38300D03*
X868900Y38300D03*
X843500Y38300D03*
X818100Y38300D03*
X792700Y38300D03*
X767300Y38300D03*
X741900Y38300D03*
X716500Y38300D03*
D34*
X1302500Y74940D03*
X1283500Y74940D03*
X1302500Y101060D03*
X1293000Y101060D03*
X1283500Y101060D03*
D15*
X1329000Y57300D03*
X1312000Y57300D03*
X1309500Y121000D03*
X1292500Y121000D03*
X1297500Y162100D03*
X1297500Y179100D03*
D23*
X1292500Y141800D03*
X1309500Y141800D03*
X930500Y164000D03*
X913500Y164000D03*
X994500Y212000D03*
X977500Y212000D03*
D21*
X1365000Y147000D03*
X1365000Y173000D03*
D23*
X1296500Y34000D03*
X1313500Y34000D03*
D15*
X1296600Y16200D03*
X1313600Y16200D03*
D23*
X1281000Y57100D03*
X1298000Y57100D03*
D35*
X1255000Y27000D03*
X407000Y113000D03*
D36*
X30000Y0D02*
X1520000Y0D01*
X1520000Y225000D01*
X30000Y225000D01*
X30000Y0D01*
M02*
