G04 EAGLE Gerber RS-274X export*
G75*
%MOMM*%
%FSLAX34Y34*%
%LPD*%
%INSoldermask Bottom*%
%IPPOS*%
%AMOC8*
5,1,8,0,0,1.08239X$1,22.5*%
G01*
%ADD10C,0.000000*%
%ADD11C,1.727200*%
%ADD12C,1.853200*%
%ADD13C,1.727200*%
%ADD14R,1.853200X1.853200*%
%ADD15C,1.676400*%
%ADD16C,4.219200*%
%ADD17C,0.254000*%

G36*
X659012Y158623D02*
X659012Y158623D01*
X659027Y158621D01*
X662585Y158875D01*
X662608Y158882D01*
X662639Y158883D01*
X666124Y159641D01*
X666146Y159651D01*
X666176Y159656D01*
X669518Y160903D01*
X669538Y160916D01*
X669568Y160925D01*
X672698Y162635D01*
X672716Y162651D01*
X672744Y162664D01*
X675599Y164802D01*
X675615Y164820D01*
X675640Y164837D01*
X678163Y167360D01*
X678175Y167380D01*
X678198Y167401D01*
X680336Y170256D01*
X680345Y170278D01*
X680365Y170302D01*
X682075Y173432D01*
X682081Y173455D01*
X682097Y173482D01*
X683344Y176824D01*
X683347Y176847D01*
X683359Y176876D01*
X684117Y180361D01*
X684117Y180385D01*
X684125Y180415D01*
X684379Y183973D01*
X684377Y183985D01*
X684380Y184000D01*
X684380Y225000D01*
X684369Y225050D01*
X684367Y225101D01*
X684349Y225133D01*
X684341Y225169D01*
X684308Y225208D01*
X684284Y225253D01*
X684254Y225274D01*
X684231Y225302D01*
X684184Y225323D01*
X684142Y225353D01*
X684100Y225361D01*
X684072Y225373D01*
X684042Y225372D01*
X684000Y225380D01*
X572000Y225380D01*
X571950Y225369D01*
X571899Y225367D01*
X571867Y225349D01*
X571831Y225341D01*
X571792Y225308D01*
X571747Y225284D01*
X571726Y225254D01*
X571698Y225231D01*
X571677Y225184D01*
X571647Y225142D01*
X571639Y225100D01*
X571627Y225072D01*
X571628Y225042D01*
X571620Y225000D01*
X571620Y188000D01*
X571623Y187988D01*
X571621Y187973D01*
X571916Y183846D01*
X571923Y183823D01*
X571924Y183792D01*
X572803Y179749D01*
X572813Y179728D01*
X572818Y179697D01*
X574264Y175820D01*
X574278Y175800D01*
X574287Y175771D01*
X576270Y172139D01*
X576286Y172122D01*
X576299Y172094D01*
X578779Y168781D01*
X578797Y168766D01*
X578814Y168740D01*
X581740Y165814D01*
X581760Y165802D01*
X581781Y165779D01*
X585094Y163299D01*
X585115Y163290D01*
X585139Y163270D01*
X588771Y161287D01*
X588794Y161281D01*
X588820Y161264D01*
X592697Y159818D01*
X592720Y159815D01*
X592749Y159803D01*
X596792Y158924D01*
X596816Y158924D01*
X596846Y158916D01*
X600973Y158621D01*
X600985Y158623D01*
X601000Y158620D01*
X659000Y158620D01*
X659012Y158623D01*
G37*
D10*
X30000Y0D02*
X1520000Y0D01*
X1520000Y225000D01*
X30000Y225000D01*
X30000Y0D01*
D11*
X1204700Y181800D03*
X1179300Y181800D03*
X1204700Y156400D03*
X1179300Y156400D03*
X1204700Y131000D03*
X1179300Y131000D03*
X1204700Y105600D03*
X1179300Y105600D03*
X1204700Y80200D03*
X1179300Y80200D03*
D12*
X780000Y120000D03*
D13*
X175100Y119620D02*
X175100Y104380D01*
X200500Y104380D02*
X200500Y119620D01*
X225900Y119620D02*
X225900Y104380D01*
X251300Y104380D02*
X251300Y119620D01*
X276700Y119620D02*
X276700Y104380D01*
X302100Y104380D02*
X302100Y119620D01*
X327500Y119620D02*
X327500Y104380D01*
X352900Y104380D02*
X352900Y119620D01*
X1361900Y121620D02*
X1361900Y106380D01*
X1387300Y106380D02*
X1387300Y121620D01*
X1412700Y121620D02*
X1412700Y106380D01*
X1438100Y106380D02*
X1438100Y121620D01*
X553620Y206100D02*
X538380Y206100D01*
X538380Y180700D02*
X553620Y180700D01*
X553620Y155300D02*
X538380Y155300D01*
X538380Y129900D02*
X553620Y129900D01*
X1252380Y209100D02*
X1267620Y209100D01*
X1267620Y183700D02*
X1252380Y183700D01*
X1252380Y158300D02*
X1267620Y158300D01*
X1267620Y132900D02*
X1252380Y132900D01*
D14*
X930800Y135700D03*
D12*
X905400Y135700D03*
X880000Y135700D03*
X854600Y135700D03*
X829200Y135700D03*
X829200Y110300D03*
X854600Y110300D03*
X880000Y110300D03*
X905400Y110300D03*
X930800Y110300D03*
D15*
X716500Y190700D03*
X741900Y190700D03*
X767300Y190700D03*
X792700Y190700D03*
X818100Y190700D03*
X843500Y190700D03*
X868900Y190700D03*
X894300Y190700D03*
X919700Y190700D03*
X945100Y190700D03*
X970500Y190700D03*
X995900Y190700D03*
X1021300Y190700D03*
X1046700Y190700D03*
X1046700Y63700D03*
X1046700Y38300D03*
X1021300Y38300D03*
X995900Y38300D03*
X970500Y38300D03*
X945100Y38300D03*
X919700Y38300D03*
X894300Y38300D03*
X868900Y38300D03*
X843500Y38300D03*
X818100Y38300D03*
X792700Y38300D03*
X767300Y38300D03*
X741900Y38300D03*
X716500Y38300D03*
D16*
X1255000Y27000D03*
X407000Y113000D03*
D17*
X30000Y0D02*
X1520000Y0D01*
X1520000Y225000D01*
X30000Y225000D01*
X30000Y0D01*
M02*
