G04 EAGLE Gerber RS-274X export*
G75*
%MOMM*%
%FSLAX34Y34*%
%LPD*%
%INTop Copper*%
%IPPOS*%
%AMOC8*
5,1,8,0,0,1.08239X$1,22.5*%
G01*
%ADD10C,4.016000*%
%ADD11C,1.508000*%
%ADD12C,1.650000*%
%ADD13C,2.250000*%
%ADD14C,1.879600*%
%ADD15P,1.924489X8X112.500000*%
%ADD16P,1.924489X8X292.500000*%
%ADD17C,1.524000*%
%ADD18R,1.650000X1.650000*%
%ADD19C,0.304800*%
%ADD20C,0.254000*%
%ADD21C,0.254000*%

G36*
X612595Y5088D02*
X612595Y5088D01*
X612641Y5086D01*
X612716Y5108D01*
X612793Y5120D01*
X612833Y5142D01*
X612877Y5155D01*
X612941Y5199D01*
X613010Y5236D01*
X613041Y5269D01*
X613079Y5295D01*
X613126Y5358D01*
X613179Y5414D01*
X613199Y5456D01*
X613226Y5492D01*
X613250Y5566D01*
X613283Y5637D01*
X613288Y5683D01*
X613302Y5726D01*
X613301Y5804D01*
X613310Y5881D01*
X613300Y5926D01*
X613300Y5972D01*
X613262Y6104D01*
X613258Y6122D01*
X613255Y6126D01*
X613253Y6133D01*
X611959Y9257D01*
X611959Y14743D01*
X614059Y19812D01*
X617938Y23691D01*
X623007Y25791D01*
X650993Y25791D01*
X656062Y23691D01*
X659941Y19812D01*
X662041Y14743D01*
X662041Y9257D01*
X660747Y6133D01*
X660736Y6089D01*
X660717Y6047D01*
X660709Y5970D01*
X660691Y5894D01*
X660695Y5848D01*
X660690Y5803D01*
X660707Y5726D01*
X660714Y5649D01*
X660732Y5607D01*
X660742Y5562D01*
X660782Y5495D01*
X660814Y5424D01*
X660845Y5390D01*
X660868Y5351D01*
X660928Y5300D01*
X660980Y5243D01*
X661020Y5221D01*
X661055Y5191D01*
X661128Y5162D01*
X661196Y5125D01*
X661241Y5116D01*
X661283Y5099D01*
X661419Y5084D01*
X661438Y5081D01*
X661443Y5082D01*
X661450Y5081D01*
X1125550Y5081D01*
X1125595Y5088D01*
X1125641Y5086D01*
X1125716Y5108D01*
X1125793Y5120D01*
X1125833Y5142D01*
X1125877Y5155D01*
X1125941Y5199D01*
X1126010Y5236D01*
X1126041Y5269D01*
X1126079Y5295D01*
X1126126Y5358D01*
X1126179Y5414D01*
X1126199Y5456D01*
X1126226Y5492D01*
X1126250Y5566D01*
X1126283Y5637D01*
X1126288Y5683D01*
X1126302Y5726D01*
X1126301Y5804D01*
X1126310Y5881D01*
X1126300Y5926D01*
X1126300Y5972D01*
X1126262Y6104D01*
X1126258Y6122D01*
X1126255Y6126D01*
X1126253Y6133D01*
X1124959Y9257D01*
X1124959Y14743D01*
X1127059Y19812D01*
X1130938Y23691D01*
X1136007Y25791D01*
X1163993Y25791D01*
X1169062Y23691D01*
X1172941Y19812D01*
X1175041Y14743D01*
X1175041Y9257D01*
X1173747Y6133D01*
X1173736Y6089D01*
X1173717Y6047D01*
X1173709Y5970D01*
X1173691Y5894D01*
X1173695Y5848D01*
X1173690Y5803D01*
X1173707Y5726D01*
X1173714Y5649D01*
X1173732Y5607D01*
X1173742Y5562D01*
X1173782Y5495D01*
X1173814Y5424D01*
X1173845Y5390D01*
X1173868Y5351D01*
X1173928Y5300D01*
X1173980Y5243D01*
X1174020Y5221D01*
X1174055Y5191D01*
X1174128Y5162D01*
X1174196Y5125D01*
X1174241Y5116D01*
X1174283Y5099D01*
X1174419Y5084D01*
X1174438Y5081D01*
X1174443Y5082D01*
X1174450Y5081D01*
X1514158Y5081D01*
X1514178Y5084D01*
X1514197Y5082D01*
X1514299Y5104D01*
X1514401Y5120D01*
X1514418Y5130D01*
X1514438Y5134D01*
X1514527Y5187D01*
X1514618Y5236D01*
X1514632Y5250D01*
X1514649Y5260D01*
X1514716Y5339D01*
X1514788Y5414D01*
X1514796Y5432D01*
X1514809Y5447D01*
X1514848Y5543D01*
X1514891Y5637D01*
X1514893Y5657D01*
X1514901Y5675D01*
X1514919Y5842D01*
X1514919Y41466D01*
X1514908Y41537D01*
X1514906Y41608D01*
X1514888Y41657D01*
X1514880Y41709D01*
X1514846Y41772D01*
X1514821Y41839D01*
X1514789Y41880D01*
X1514764Y41926D01*
X1514712Y41975D01*
X1514668Y42031D01*
X1514624Y42060D01*
X1514586Y42095D01*
X1514521Y42126D01*
X1514461Y42164D01*
X1514410Y42177D01*
X1514363Y42199D01*
X1514292Y42207D01*
X1514222Y42225D01*
X1514170Y42220D01*
X1514119Y42226D01*
X1514048Y42211D01*
X1513977Y42205D01*
X1513929Y42185D01*
X1513878Y42174D01*
X1513817Y42137D01*
X1513751Y42109D01*
X1513695Y42064D01*
X1513667Y42048D01*
X1513652Y42030D01*
X1513620Y42004D01*
X1508185Y36569D01*
X1498715Y36569D01*
X1492019Y43265D01*
X1492019Y52757D01*
X1492038Y52786D01*
X1492098Y52870D01*
X1492104Y52889D01*
X1492115Y52906D01*
X1492140Y53006D01*
X1492171Y53105D01*
X1492170Y53125D01*
X1492175Y53144D01*
X1492167Y53247D01*
X1492164Y53351D01*
X1492157Y53370D01*
X1492156Y53390D01*
X1492116Y53484D01*
X1492080Y53582D01*
X1492067Y53598D01*
X1492060Y53616D01*
X1491955Y53747D01*
X1474989Y70712D01*
X1474915Y70765D01*
X1474846Y70825D01*
X1474816Y70837D01*
X1474790Y70856D01*
X1474703Y70883D01*
X1474618Y70917D01*
X1474577Y70921D01*
X1474555Y70928D01*
X1474522Y70927D01*
X1474451Y70935D01*
X1452316Y70935D01*
X1434035Y89216D01*
X1434035Y96557D01*
X1434017Y96671D01*
X1433999Y96788D01*
X1433997Y96794D01*
X1433996Y96800D01*
X1433941Y96902D01*
X1433888Y97007D01*
X1433883Y97012D01*
X1433880Y97017D01*
X1433796Y97097D01*
X1433712Y97180D01*
X1433706Y97183D01*
X1433702Y97187D01*
X1433685Y97194D01*
X1433565Y97260D01*
X1432344Y97766D01*
X1429486Y100624D01*
X1427939Y104359D01*
X1427939Y123641D01*
X1429486Y127376D01*
X1432344Y130234D01*
X1436079Y131781D01*
X1440121Y131781D01*
X1443856Y130234D01*
X1446714Y127376D01*
X1448261Y123641D01*
X1448261Y104359D01*
X1446714Y100624D01*
X1443856Y97766D01*
X1442635Y97260D01*
X1442535Y97199D01*
X1442435Y97139D01*
X1442431Y97134D01*
X1442426Y97131D01*
X1442351Y97041D01*
X1442275Y96952D01*
X1442273Y96946D01*
X1442269Y96941D01*
X1442227Y96832D01*
X1442183Y96724D01*
X1442182Y96716D01*
X1442181Y96712D01*
X1442180Y96693D01*
X1442165Y96557D01*
X1442165Y92899D01*
X1442179Y92809D01*
X1442187Y92718D01*
X1442199Y92688D01*
X1442204Y92656D01*
X1442247Y92576D01*
X1442283Y92492D01*
X1442309Y92460D01*
X1442320Y92439D01*
X1442343Y92417D01*
X1442388Y92361D01*
X1455461Y79288D01*
X1455535Y79235D01*
X1455604Y79175D01*
X1455634Y79163D01*
X1455660Y79144D01*
X1455747Y79117D01*
X1455832Y79083D01*
X1455873Y79079D01*
X1455896Y79072D01*
X1455928Y79073D01*
X1455999Y79065D01*
X1478134Y79065D01*
X1480738Y76461D01*
X1497703Y59495D01*
X1497719Y59484D01*
X1497732Y59468D01*
X1497819Y59412D01*
X1497903Y59352D01*
X1497922Y59346D01*
X1497939Y59335D01*
X1498039Y59310D01*
X1498138Y59279D01*
X1498158Y59280D01*
X1498177Y59275D01*
X1498280Y59283D01*
X1498384Y59286D01*
X1498403Y59293D01*
X1498423Y59294D01*
X1498517Y59334D01*
X1498615Y59370D01*
X1498631Y59383D01*
X1498649Y59390D01*
X1498699Y59431D01*
X1508185Y59431D01*
X1513620Y53996D01*
X1513678Y53954D01*
X1513730Y53905D01*
X1513777Y53883D01*
X1513819Y53852D01*
X1513888Y53831D01*
X1513953Y53801D01*
X1514005Y53795D01*
X1514055Y53780D01*
X1514126Y53782D01*
X1514197Y53774D01*
X1514248Y53785D01*
X1514300Y53786D01*
X1514368Y53811D01*
X1514438Y53826D01*
X1514483Y53853D01*
X1514531Y53871D01*
X1514587Y53916D01*
X1514649Y53952D01*
X1514683Y53992D01*
X1514723Y54024D01*
X1514762Y54085D01*
X1514809Y54139D01*
X1514828Y54187D01*
X1514856Y54231D01*
X1514874Y54301D01*
X1514901Y54367D01*
X1514909Y54439D01*
X1514917Y54470D01*
X1514915Y54493D01*
X1514919Y54534D01*
X1514919Y170466D01*
X1514908Y170537D01*
X1514906Y170608D01*
X1514888Y170657D01*
X1514880Y170709D01*
X1514846Y170772D01*
X1514821Y170839D01*
X1514789Y170880D01*
X1514764Y170926D01*
X1514712Y170975D01*
X1514668Y171031D01*
X1514624Y171060D01*
X1514586Y171095D01*
X1514521Y171126D01*
X1514461Y171164D01*
X1514410Y171177D01*
X1514363Y171199D01*
X1514292Y171207D01*
X1514222Y171225D01*
X1514170Y171220D01*
X1514119Y171226D01*
X1514048Y171211D01*
X1513977Y171205D01*
X1513929Y171185D01*
X1513878Y171174D01*
X1513817Y171137D01*
X1513751Y171109D01*
X1513695Y171064D01*
X1513667Y171048D01*
X1513652Y171030D01*
X1513620Y171004D01*
X1508169Y165554D01*
X1508135Y165546D01*
X1508033Y165530D01*
X1508016Y165520D01*
X1507996Y165516D01*
X1507907Y165463D01*
X1507816Y165414D01*
X1507802Y165400D01*
X1507785Y165390D01*
X1507718Y165311D01*
X1507646Y165236D01*
X1507638Y165218D01*
X1507625Y165203D01*
X1507586Y165107D01*
X1507543Y165013D01*
X1507541Y164993D01*
X1507533Y164975D01*
X1507515Y164808D01*
X1507515Y160766D01*
X1491684Y144935D01*
X1404999Y144935D01*
X1404909Y144921D01*
X1404818Y144913D01*
X1404788Y144901D01*
X1404756Y144896D01*
X1404676Y144853D01*
X1404592Y144817D01*
X1404560Y144791D01*
X1404539Y144780D01*
X1404517Y144757D01*
X1404461Y144712D01*
X1391688Y131940D01*
X1391661Y131902D01*
X1391627Y131871D01*
X1391590Y131803D01*
X1391544Y131740D01*
X1391531Y131696D01*
X1391509Y131656D01*
X1391495Y131579D01*
X1391472Y131505D01*
X1391473Y131459D01*
X1391465Y131414D01*
X1391476Y131337D01*
X1391478Y131259D01*
X1391494Y131216D01*
X1391501Y131170D01*
X1391536Y131101D01*
X1391563Y131028D01*
X1391592Y130992D01*
X1391612Y130951D01*
X1391668Y130897D01*
X1391717Y130836D01*
X1391755Y130811D01*
X1391788Y130779D01*
X1391908Y130713D01*
X1391924Y130703D01*
X1391928Y130702D01*
X1391935Y130698D01*
X1393056Y130234D01*
X1395914Y127376D01*
X1397461Y123641D01*
X1397461Y104359D01*
X1395914Y100624D01*
X1393056Y97766D01*
X1389321Y96219D01*
X1385279Y96219D01*
X1381544Y97766D01*
X1378686Y100624D01*
X1377139Y104359D01*
X1377139Y123641D01*
X1378686Y127376D01*
X1381544Y130234D01*
X1382765Y130740D01*
X1382865Y130801D01*
X1382921Y130835D01*
X1382934Y130842D01*
X1382936Y130844D01*
X1382965Y130861D01*
X1382969Y130866D01*
X1382974Y130869D01*
X1383049Y130960D01*
X1383079Y130994D01*
X1383104Y131020D01*
X1383106Y131026D01*
X1383125Y131048D01*
X1383127Y131054D01*
X1383131Y131059D01*
X1383173Y131167D01*
X1383180Y131185D01*
X1383207Y131243D01*
X1383209Y131256D01*
X1383217Y131276D01*
X1383218Y131284D01*
X1383219Y131288D01*
X1383220Y131307D01*
X1383235Y131443D01*
X1383235Y134984D01*
X1401316Y153065D01*
X1488001Y153065D01*
X1488091Y153079D01*
X1488182Y153087D01*
X1488212Y153099D01*
X1488244Y153104D01*
X1488324Y153147D01*
X1488408Y153183D01*
X1488440Y153209D01*
X1488461Y153220D01*
X1488483Y153243D01*
X1488539Y153288D01*
X1499162Y163911D01*
X1499215Y163985D01*
X1499275Y164054D01*
X1499287Y164084D01*
X1499306Y164110D01*
X1499333Y164197D01*
X1499367Y164282D01*
X1499371Y164323D01*
X1499378Y164346D01*
X1499377Y164378D01*
X1499385Y164449D01*
X1499385Y164808D01*
X1499382Y164828D01*
X1499384Y164847D01*
X1499362Y164949D01*
X1499346Y165051D01*
X1499336Y165068D01*
X1499332Y165088D01*
X1499279Y165177D01*
X1499230Y165268D01*
X1499216Y165282D01*
X1499206Y165299D01*
X1499127Y165366D01*
X1499052Y165438D01*
X1499034Y165446D01*
X1499019Y165459D01*
X1498923Y165498D01*
X1498829Y165541D01*
X1498809Y165543D01*
X1498791Y165551D01*
X1498727Y165558D01*
X1492019Y172265D01*
X1492019Y181735D01*
X1498715Y188431D01*
X1508185Y188431D01*
X1513620Y182996D01*
X1513678Y182954D01*
X1513730Y182905D01*
X1513777Y182883D01*
X1513819Y182852D01*
X1513888Y182831D01*
X1513953Y182801D01*
X1514005Y182795D01*
X1514055Y182780D01*
X1514126Y182782D01*
X1514197Y182774D01*
X1514248Y182785D01*
X1514300Y182786D01*
X1514368Y182811D01*
X1514438Y182826D01*
X1514483Y182853D01*
X1514531Y182871D01*
X1514587Y182916D01*
X1514649Y182952D01*
X1514683Y182992D01*
X1514723Y183024D01*
X1514762Y183085D01*
X1514809Y183139D01*
X1514828Y183187D01*
X1514856Y183231D01*
X1514874Y183301D01*
X1514901Y183367D01*
X1514909Y183439D01*
X1514917Y183470D01*
X1514915Y183493D01*
X1514919Y183534D01*
X1514919Y219158D01*
X1514916Y219178D01*
X1514918Y219197D01*
X1514896Y219299D01*
X1514880Y219401D01*
X1514870Y219418D01*
X1514866Y219438D01*
X1514813Y219527D01*
X1514764Y219618D01*
X1514750Y219632D01*
X1514740Y219649D01*
X1514661Y219716D01*
X1514586Y219788D01*
X1514568Y219796D01*
X1514553Y219809D01*
X1514457Y219848D01*
X1514363Y219891D01*
X1514343Y219893D01*
X1514325Y219901D01*
X1514158Y219919D01*
X1271878Y219919D01*
X1271782Y219904D01*
X1271685Y219894D01*
X1271661Y219884D01*
X1271636Y219880D01*
X1271550Y219834D01*
X1271461Y219794D01*
X1271441Y219777D01*
X1271418Y219764D01*
X1271351Y219694D01*
X1271279Y219628D01*
X1271267Y219605D01*
X1271249Y219586D01*
X1271208Y219498D01*
X1271161Y219412D01*
X1271156Y219387D01*
X1271145Y219363D01*
X1271134Y219266D01*
X1271117Y219170D01*
X1271121Y219144D01*
X1271118Y219119D01*
X1271139Y219023D01*
X1271153Y218927D01*
X1271165Y218904D01*
X1271170Y218878D01*
X1271220Y218795D01*
X1271264Y218708D01*
X1271283Y218689D01*
X1271296Y218667D01*
X1271370Y218604D01*
X1271440Y218536D01*
X1271469Y218520D01*
X1271483Y218507D01*
X1271514Y218495D01*
X1271587Y218455D01*
X1273376Y217714D01*
X1276234Y214856D01*
X1277781Y211121D01*
X1277781Y207079D01*
X1276234Y203344D01*
X1273376Y200486D01*
X1269641Y198939D01*
X1250359Y198939D01*
X1246624Y200486D01*
X1243766Y203344D01*
X1242219Y207079D01*
X1242219Y211121D01*
X1243766Y214856D01*
X1246624Y217714D01*
X1248413Y218455D01*
X1248496Y218506D01*
X1248582Y218552D01*
X1248600Y218570D01*
X1248622Y218584D01*
X1248684Y218660D01*
X1248751Y218730D01*
X1248762Y218754D01*
X1248779Y218774D01*
X1248814Y218865D01*
X1248855Y218953D01*
X1248858Y218979D01*
X1248867Y219003D01*
X1248871Y219101D01*
X1248882Y219197D01*
X1248876Y219223D01*
X1248878Y219249D01*
X1248850Y219343D01*
X1248830Y219438D01*
X1248816Y219460D01*
X1248809Y219485D01*
X1248753Y219565D01*
X1248704Y219649D01*
X1248684Y219666D01*
X1248669Y219687D01*
X1248591Y219746D01*
X1248517Y219809D01*
X1248492Y219819D01*
X1248471Y219834D01*
X1248379Y219864D01*
X1248288Y219901D01*
X1248256Y219904D01*
X1248237Y219910D01*
X1248204Y219910D01*
X1248122Y219919D01*
X1194387Y219919D01*
X1194371Y219917D01*
X1194355Y219919D01*
X1194250Y219897D01*
X1194144Y219880D01*
X1194130Y219872D01*
X1194114Y219869D01*
X1194021Y219815D01*
X1193926Y219764D01*
X1193915Y219753D01*
X1193902Y219745D01*
X1193831Y219664D01*
X1193757Y219586D01*
X1193750Y219572D01*
X1193740Y219560D01*
X1193699Y219461D01*
X1193653Y219363D01*
X1193652Y219347D01*
X1193646Y219332D01*
X1193638Y219225D01*
X1193626Y219119D01*
X1193630Y219103D01*
X1193629Y219087D01*
X1193663Y218923D01*
X1194157Y217402D01*
X1194358Y216129D01*
X1183274Y216129D01*
X1183254Y216126D01*
X1183235Y216128D01*
X1183133Y216106D01*
X1183031Y216089D01*
X1183014Y216080D01*
X1182994Y216076D01*
X1182905Y216023D01*
X1182814Y215974D01*
X1182800Y215960D01*
X1182783Y215950D01*
X1182716Y215871D01*
X1182645Y215796D01*
X1182636Y215778D01*
X1182623Y215763D01*
X1182585Y215667D01*
X1182541Y215573D01*
X1182539Y215553D01*
X1182531Y215535D01*
X1182513Y215368D01*
X1182513Y214605D01*
X1182511Y214605D01*
X1182511Y215368D01*
X1182508Y215388D01*
X1182510Y215407D01*
X1182488Y215509D01*
X1182471Y215611D01*
X1182462Y215628D01*
X1182458Y215648D01*
X1182405Y215737D01*
X1182356Y215828D01*
X1182342Y215842D01*
X1182332Y215859D01*
X1182253Y215926D01*
X1182178Y215997D01*
X1182160Y216006D01*
X1182145Y216019D01*
X1182049Y216058D01*
X1181955Y216101D01*
X1181935Y216103D01*
X1181917Y216111D01*
X1181750Y216129D01*
X1170666Y216129D01*
X1170867Y217402D01*
X1171361Y218923D01*
X1171364Y218939D01*
X1171371Y218953D01*
X1171382Y219059D01*
X1171399Y219166D01*
X1171396Y219182D01*
X1171398Y219197D01*
X1171375Y219302D01*
X1171356Y219408D01*
X1171349Y219422D01*
X1171345Y219438D01*
X1171291Y219530D01*
X1171239Y219624D01*
X1171227Y219635D01*
X1171219Y219649D01*
X1171138Y219719D01*
X1171059Y219792D01*
X1171044Y219798D01*
X1171032Y219809D01*
X1170933Y219849D01*
X1170835Y219893D01*
X1170819Y219895D01*
X1170804Y219901D01*
X1170637Y219919D01*
X1129363Y219919D01*
X1129347Y219917D01*
X1129331Y219919D01*
X1129226Y219897D01*
X1129120Y219880D01*
X1129106Y219872D01*
X1129090Y219869D01*
X1128997Y219815D01*
X1128902Y219764D01*
X1128891Y219753D01*
X1128878Y219745D01*
X1128807Y219664D01*
X1128733Y219586D01*
X1128726Y219572D01*
X1128716Y219560D01*
X1128675Y219461D01*
X1128629Y219363D01*
X1128628Y219347D01*
X1128622Y219332D01*
X1128614Y219225D01*
X1128602Y219119D01*
X1128606Y219103D01*
X1128605Y219087D01*
X1128639Y218923D01*
X1129133Y217402D01*
X1129334Y216129D01*
X1118250Y216129D01*
X1118230Y216126D01*
X1118211Y216128D01*
X1118109Y216106D01*
X1118007Y216089D01*
X1117990Y216080D01*
X1117970Y216076D01*
X1117881Y216023D01*
X1117790Y215974D01*
X1117776Y215960D01*
X1117759Y215950D01*
X1117692Y215871D01*
X1117621Y215796D01*
X1117612Y215778D01*
X1117599Y215763D01*
X1117561Y215667D01*
X1117517Y215573D01*
X1117515Y215553D01*
X1117507Y215535D01*
X1117489Y215368D01*
X1117489Y214605D01*
X1117487Y214605D01*
X1117487Y215368D01*
X1117484Y215388D01*
X1117486Y215407D01*
X1117464Y215509D01*
X1117447Y215611D01*
X1117438Y215628D01*
X1117434Y215648D01*
X1117381Y215737D01*
X1117332Y215828D01*
X1117318Y215842D01*
X1117308Y215859D01*
X1117229Y215926D01*
X1117154Y215997D01*
X1117136Y216006D01*
X1117121Y216019D01*
X1117025Y216058D01*
X1116931Y216101D01*
X1116911Y216103D01*
X1116893Y216111D01*
X1116726Y216129D01*
X1105642Y216129D01*
X1105843Y217402D01*
X1106337Y218923D01*
X1106340Y218939D01*
X1106347Y218953D01*
X1106358Y219059D01*
X1106375Y219166D01*
X1106372Y219182D01*
X1106374Y219197D01*
X1106351Y219302D01*
X1106332Y219408D01*
X1106325Y219422D01*
X1106321Y219438D01*
X1106267Y219530D01*
X1106215Y219624D01*
X1106203Y219635D01*
X1106195Y219649D01*
X1106114Y219719D01*
X1106035Y219792D01*
X1106020Y219798D01*
X1106008Y219809D01*
X1105909Y219849D01*
X1105811Y219893D01*
X1105795Y219895D01*
X1105780Y219901D01*
X1105613Y219919D01*
X681387Y219919D01*
X681371Y219917D01*
X681355Y219919D01*
X681250Y219897D01*
X681144Y219880D01*
X681130Y219872D01*
X681114Y219869D01*
X681021Y219815D01*
X680926Y219764D01*
X680915Y219753D01*
X680902Y219745D01*
X680831Y219664D01*
X680757Y219586D01*
X680750Y219572D01*
X680740Y219560D01*
X680699Y219461D01*
X680653Y219363D01*
X680652Y219347D01*
X680646Y219332D01*
X680638Y219225D01*
X680626Y219119D01*
X680630Y219103D01*
X680629Y219087D01*
X680663Y218923D01*
X681157Y217402D01*
X681358Y216129D01*
X670274Y216129D01*
X670254Y216126D01*
X670235Y216128D01*
X670133Y216106D01*
X670031Y216089D01*
X670014Y216080D01*
X669994Y216076D01*
X669905Y216023D01*
X669814Y215974D01*
X669800Y215960D01*
X669783Y215950D01*
X669716Y215871D01*
X669645Y215796D01*
X669636Y215778D01*
X669623Y215763D01*
X669585Y215667D01*
X669541Y215573D01*
X669539Y215553D01*
X669531Y215535D01*
X669513Y215368D01*
X669513Y214605D01*
X669511Y214605D01*
X669511Y215368D01*
X669508Y215388D01*
X669510Y215407D01*
X669488Y215509D01*
X669471Y215611D01*
X669462Y215628D01*
X669458Y215648D01*
X669405Y215737D01*
X669356Y215828D01*
X669342Y215842D01*
X669332Y215859D01*
X669253Y215926D01*
X669178Y215997D01*
X669160Y216006D01*
X669145Y216019D01*
X669049Y216058D01*
X668955Y216101D01*
X668935Y216103D01*
X668917Y216111D01*
X668750Y216129D01*
X657666Y216129D01*
X657867Y217402D01*
X658361Y218923D01*
X658364Y218939D01*
X658371Y218953D01*
X658382Y219059D01*
X658399Y219166D01*
X658396Y219182D01*
X658398Y219197D01*
X658375Y219302D01*
X658356Y219408D01*
X658349Y219422D01*
X658345Y219438D01*
X658291Y219530D01*
X658239Y219624D01*
X658227Y219635D01*
X658219Y219649D01*
X658138Y219719D01*
X658059Y219792D01*
X658044Y219798D01*
X658032Y219809D01*
X657933Y219849D01*
X657835Y219893D01*
X657819Y219895D01*
X657804Y219901D01*
X657637Y219919D01*
X616363Y219919D01*
X616347Y219917D01*
X616331Y219919D01*
X616226Y219897D01*
X616120Y219880D01*
X616106Y219872D01*
X616090Y219869D01*
X615997Y219815D01*
X615902Y219764D01*
X615891Y219753D01*
X615878Y219745D01*
X615807Y219664D01*
X615733Y219586D01*
X615726Y219572D01*
X615716Y219560D01*
X615675Y219461D01*
X615629Y219363D01*
X615628Y219347D01*
X615622Y219332D01*
X615614Y219225D01*
X615602Y219119D01*
X615606Y219103D01*
X615605Y219087D01*
X615639Y218923D01*
X616133Y217402D01*
X616334Y216129D01*
X605250Y216129D01*
X605230Y216126D01*
X605211Y216128D01*
X605109Y216106D01*
X605007Y216089D01*
X604990Y216080D01*
X604970Y216076D01*
X604881Y216023D01*
X604790Y215974D01*
X604776Y215960D01*
X604759Y215950D01*
X604692Y215871D01*
X604621Y215796D01*
X604612Y215778D01*
X604599Y215763D01*
X604561Y215667D01*
X604517Y215573D01*
X604515Y215553D01*
X604507Y215535D01*
X604489Y215368D01*
X604489Y214605D01*
X604487Y214605D01*
X604487Y215368D01*
X604484Y215388D01*
X604486Y215407D01*
X604464Y215509D01*
X604447Y215611D01*
X604438Y215628D01*
X604434Y215648D01*
X604381Y215737D01*
X604332Y215828D01*
X604318Y215842D01*
X604308Y215859D01*
X604229Y215926D01*
X604154Y215997D01*
X604136Y216006D01*
X604121Y216019D01*
X604025Y216058D01*
X603931Y216101D01*
X603911Y216103D01*
X603893Y216111D01*
X603726Y216129D01*
X592642Y216129D01*
X592843Y217402D01*
X593337Y218923D01*
X593340Y218939D01*
X593347Y218953D01*
X593358Y219059D01*
X593375Y219166D01*
X593372Y219182D01*
X593374Y219197D01*
X593351Y219302D01*
X593332Y219408D01*
X593325Y219422D01*
X593321Y219438D01*
X593267Y219530D01*
X593215Y219624D01*
X593203Y219635D01*
X593195Y219649D01*
X593114Y219719D01*
X593035Y219792D01*
X593020Y219798D01*
X593008Y219809D01*
X592909Y219849D01*
X592811Y219893D01*
X592795Y219895D01*
X592780Y219901D01*
X592613Y219919D01*
X35842Y219919D01*
X35822Y219916D01*
X35803Y219918D01*
X35701Y219896D01*
X35599Y219880D01*
X35582Y219870D01*
X35562Y219866D01*
X35473Y219813D01*
X35382Y219764D01*
X35368Y219750D01*
X35351Y219740D01*
X35284Y219661D01*
X35212Y219586D01*
X35204Y219568D01*
X35191Y219553D01*
X35152Y219457D01*
X35109Y219363D01*
X35107Y219343D01*
X35099Y219325D01*
X35081Y219158D01*
X35081Y182534D01*
X35092Y182463D01*
X35094Y182392D01*
X35112Y182343D01*
X35120Y182291D01*
X35154Y182228D01*
X35179Y182161D01*
X35211Y182120D01*
X35236Y182074D01*
X35288Y182025D01*
X35332Y181969D01*
X35376Y181940D01*
X35414Y181905D01*
X35479Y181874D01*
X35539Y181836D01*
X35590Y181823D01*
X35637Y181801D01*
X35708Y181793D01*
X35778Y181775D01*
X35830Y181780D01*
X35881Y181774D01*
X35952Y181789D01*
X36023Y181795D01*
X36071Y181815D01*
X36122Y181826D01*
X36183Y181863D01*
X36249Y181891D01*
X36305Y181936D01*
X36333Y181952D01*
X36348Y181970D01*
X36380Y181996D01*
X42815Y188431D01*
X52285Y188431D01*
X58981Y181735D01*
X58981Y172265D01*
X52285Y165569D01*
X51826Y165569D01*
X51806Y165566D01*
X51787Y165568D01*
X51685Y165546D01*
X51583Y165530D01*
X51566Y165520D01*
X51546Y165516D01*
X51457Y165463D01*
X51366Y165414D01*
X51352Y165400D01*
X51335Y165390D01*
X51268Y165311D01*
X51196Y165236D01*
X51188Y165218D01*
X51175Y165203D01*
X51136Y165107D01*
X51093Y165013D01*
X51091Y164993D01*
X51083Y164975D01*
X51065Y164808D01*
X51065Y151999D01*
X51068Y151981D01*
X51066Y151963D01*
X51081Y151894D01*
X51087Y151818D01*
X51099Y151788D01*
X51104Y151756D01*
X51115Y151737D01*
X51118Y151722D01*
X51150Y151668D01*
X51183Y151592D01*
X51209Y151560D01*
X51220Y151539D01*
X51238Y151521D01*
X51244Y151511D01*
X51254Y151502D01*
X51288Y151461D01*
X56461Y146288D01*
X56535Y146235D01*
X56604Y146175D01*
X56634Y146163D01*
X56660Y146144D01*
X56747Y146117D01*
X56832Y146083D01*
X56873Y146079D01*
X56896Y146072D01*
X56928Y146073D01*
X56999Y146065D01*
X172184Y146065D01*
X191841Y126407D01*
X191857Y126396D01*
X191870Y126380D01*
X191957Y126324D01*
X192041Y126264D01*
X192060Y126258D01*
X192077Y126247D01*
X192177Y126222D01*
X192276Y126191D01*
X192296Y126192D01*
X192315Y126187D01*
X192418Y126195D01*
X192522Y126198D01*
X192541Y126205D01*
X192560Y126206D01*
X192655Y126246D01*
X192753Y126282D01*
X192769Y126295D01*
X192787Y126302D01*
X192918Y126407D01*
X194744Y128234D01*
X198479Y129781D01*
X202521Y129781D01*
X206256Y128234D01*
X209114Y125376D01*
X210661Y121641D01*
X210661Y102359D01*
X209114Y98624D01*
X206256Y95766D01*
X202521Y94219D01*
X198479Y94219D01*
X194744Y95766D01*
X191886Y98624D01*
X190339Y102359D01*
X190339Y116097D01*
X190325Y116187D01*
X190317Y116278D01*
X190305Y116308D01*
X190300Y116340D01*
X190257Y116420D01*
X190221Y116504D01*
X190195Y116537D01*
X190184Y116557D01*
X190161Y116579D01*
X190116Y116635D01*
X186560Y120191D01*
X186502Y120233D01*
X186450Y120283D01*
X186403Y120305D01*
X186361Y120335D01*
X186292Y120356D01*
X186227Y120386D01*
X186175Y120392D01*
X186125Y120407D01*
X186054Y120405D01*
X185983Y120413D01*
X185932Y120402D01*
X185880Y120401D01*
X185812Y120376D01*
X185742Y120361D01*
X185697Y120334D01*
X185649Y120316D01*
X185593Y120272D01*
X185531Y120235D01*
X185497Y120195D01*
X185457Y120163D01*
X185418Y120102D01*
X185371Y120048D01*
X185352Y120000D01*
X185324Y119956D01*
X185306Y119886D01*
X185279Y119820D01*
X185271Y119748D01*
X185263Y119717D01*
X185265Y119694D01*
X185261Y119653D01*
X185261Y102359D01*
X183714Y98624D01*
X180856Y95766D01*
X177121Y94219D01*
X173079Y94219D01*
X169344Y95766D01*
X167518Y97593D01*
X167502Y97604D01*
X167489Y97620D01*
X167402Y97676D01*
X167318Y97736D01*
X167299Y97742D01*
X167282Y97753D01*
X167182Y97778D01*
X167083Y97809D01*
X167063Y97808D01*
X167044Y97813D01*
X166941Y97805D01*
X166837Y97802D01*
X166818Y97795D01*
X166798Y97794D01*
X166704Y97754D01*
X166606Y97718D01*
X166590Y97705D01*
X166572Y97698D01*
X166441Y97593D01*
X144388Y75539D01*
X141784Y72935D01*
X67549Y72935D01*
X67459Y72921D01*
X67368Y72913D01*
X67338Y72901D01*
X67306Y72896D01*
X67226Y72853D01*
X67142Y72817D01*
X67110Y72791D01*
X67089Y72780D01*
X67067Y72757D01*
X67011Y72712D01*
X53545Y59247D01*
X53534Y59231D01*
X53518Y59218D01*
X53462Y59131D01*
X53402Y59047D01*
X53396Y59028D01*
X53385Y59011D01*
X53360Y58911D01*
X53329Y58812D01*
X53330Y58792D01*
X53325Y58773D01*
X53333Y58670D01*
X53336Y58566D01*
X53343Y58547D01*
X53344Y58528D01*
X53384Y58433D01*
X53420Y58335D01*
X53433Y58319D01*
X53440Y58301D01*
X53545Y58170D01*
X58981Y52735D01*
X58981Y43265D01*
X52285Y36569D01*
X42815Y36569D01*
X36380Y43004D01*
X36322Y43046D01*
X36270Y43095D01*
X36223Y43117D01*
X36181Y43148D01*
X36112Y43169D01*
X36047Y43199D01*
X35995Y43205D01*
X35945Y43220D01*
X35874Y43218D01*
X35803Y43226D01*
X35752Y43215D01*
X35700Y43214D01*
X35632Y43189D01*
X35562Y43174D01*
X35517Y43147D01*
X35469Y43129D01*
X35413Y43084D01*
X35351Y43048D01*
X35317Y43008D01*
X35277Y42976D01*
X35238Y42915D01*
X35191Y42861D01*
X35172Y42813D01*
X35144Y42769D01*
X35126Y42699D01*
X35099Y42633D01*
X35091Y42561D01*
X35083Y42530D01*
X35085Y42507D01*
X35081Y42466D01*
X35081Y5842D01*
X35084Y5822D01*
X35082Y5803D01*
X35104Y5701D01*
X35120Y5599D01*
X35130Y5582D01*
X35134Y5562D01*
X35187Y5473D01*
X35236Y5382D01*
X35250Y5368D01*
X35260Y5351D01*
X35339Y5284D01*
X35414Y5212D01*
X35432Y5204D01*
X35447Y5191D01*
X35543Y5152D01*
X35637Y5109D01*
X35657Y5107D01*
X35675Y5099D01*
X35842Y5081D01*
X612550Y5081D01*
X612595Y5088D01*
G37*
%LPC*%
G36*
X881816Y51935D02*
X881816Y51935D01*
X879212Y54539D01*
X833754Y99998D01*
X833660Y100065D01*
X833565Y100136D01*
X833559Y100138D01*
X833554Y100141D01*
X833443Y100175D01*
X833331Y100212D01*
X833325Y100212D01*
X833319Y100214D01*
X833202Y100211D01*
X833085Y100210D01*
X833078Y100207D01*
X833073Y100207D01*
X833056Y100201D01*
X832924Y100163D01*
X831346Y99509D01*
X827054Y99509D01*
X823088Y101152D01*
X820052Y104188D01*
X818409Y108154D01*
X818409Y112446D01*
X820052Y116412D01*
X823088Y119448D01*
X827054Y121091D01*
X831346Y121091D01*
X835312Y119448D01*
X838348Y116412D01*
X839991Y112446D01*
X839991Y108154D01*
X839337Y106576D01*
X839329Y106540D01*
X839325Y106532D01*
X839323Y106516D01*
X839311Y106462D01*
X839282Y106349D01*
X839282Y106342D01*
X839281Y106336D01*
X839292Y106220D01*
X839301Y106103D01*
X839304Y106098D01*
X839304Y106091D01*
X839352Y105984D01*
X839397Y105877D01*
X839402Y105871D01*
X839404Y105867D01*
X839417Y105853D01*
X839502Y105746D01*
X884961Y60288D01*
X885035Y60235D01*
X885104Y60175D01*
X885134Y60163D01*
X885160Y60144D01*
X885247Y60117D01*
X885332Y60083D01*
X885373Y60079D01*
X885396Y60072D01*
X885428Y60073D01*
X885499Y60065D01*
X888937Y60065D01*
X889008Y60076D01*
X889080Y60078D01*
X889128Y60096D01*
X889180Y60104D01*
X889243Y60138D01*
X889311Y60163D01*
X889351Y60195D01*
X889397Y60220D01*
X889447Y60272D01*
X889503Y60316D01*
X889531Y60360D01*
X889567Y60398D01*
X889597Y60463D01*
X889636Y60523D01*
X889648Y60574D01*
X889670Y60621D01*
X889678Y60692D01*
X889696Y60762D01*
X889692Y60814D01*
X889697Y60865D01*
X889682Y60936D01*
X889676Y61007D01*
X889656Y61055D01*
X889645Y61106D01*
X889608Y61167D01*
X889580Y61233D01*
X889535Y61289D01*
X889519Y61317D01*
X889501Y61332D01*
X889475Y61364D01*
X853139Y97700D01*
X850643Y100196D01*
X850590Y100235D01*
X850543Y100281D01*
X850470Y100321D01*
X850443Y100340D01*
X850425Y100346D01*
X850396Y100361D01*
X848488Y101152D01*
X845452Y104188D01*
X843809Y108154D01*
X843809Y112446D01*
X845452Y116412D01*
X848488Y119448D01*
X852454Y121091D01*
X856746Y121091D01*
X860712Y119448D01*
X863748Y116412D01*
X865391Y112446D01*
X865391Y108154D01*
X863748Y104188D01*
X861487Y101926D01*
X861475Y101910D01*
X861459Y101898D01*
X861403Y101810D01*
X861343Y101727D01*
X861337Y101708D01*
X861326Y101691D01*
X861301Y101590D01*
X861271Y101491D01*
X861271Y101472D01*
X861266Y101452D01*
X861274Y101349D01*
X861277Y101246D01*
X861284Y101227D01*
X861286Y101207D01*
X861326Y101112D01*
X861362Y101015D01*
X861374Y100999D01*
X861382Y100981D01*
X861487Y100850D01*
X896461Y65876D01*
X896535Y65823D01*
X896604Y65763D01*
X896634Y65751D01*
X896660Y65732D01*
X896747Y65705D01*
X896832Y65671D01*
X896873Y65667D01*
X896896Y65660D01*
X896928Y65661D01*
X896999Y65653D01*
X904761Y65653D01*
X904832Y65664D01*
X904904Y65666D01*
X904952Y65684D01*
X905004Y65692D01*
X905067Y65726D01*
X905135Y65751D01*
X905175Y65783D01*
X905221Y65808D01*
X905271Y65860D01*
X905327Y65904D01*
X905355Y65948D01*
X905391Y65986D01*
X905421Y66051D01*
X905460Y66111D01*
X905472Y66162D01*
X905494Y66209D01*
X905502Y66280D01*
X905520Y66350D01*
X905516Y66402D01*
X905521Y66453D01*
X905506Y66524D01*
X905500Y66595D01*
X905480Y66643D01*
X905469Y66694D01*
X905432Y66755D01*
X905404Y66821D01*
X905359Y66877D01*
X905343Y66905D01*
X905325Y66920D01*
X905299Y66952D01*
X878539Y93712D01*
X875935Y96316D01*
X875935Y99795D01*
X875916Y99910D01*
X875899Y100026D01*
X875897Y100032D01*
X875896Y100038D01*
X875841Y100141D01*
X875788Y100245D01*
X875783Y100250D01*
X875780Y100255D01*
X875696Y100335D01*
X875612Y100418D01*
X875606Y100421D01*
X875602Y100425D01*
X875585Y100433D01*
X875465Y100499D01*
X873888Y101152D01*
X870852Y104188D01*
X869209Y108154D01*
X869209Y112446D01*
X870852Y116412D01*
X873888Y119448D01*
X877854Y121091D01*
X882146Y121091D01*
X886112Y119448D01*
X889148Y116412D01*
X890791Y112446D01*
X890791Y108154D01*
X889148Y104188D01*
X886112Y101152D01*
X884679Y100558D01*
X884640Y100534D01*
X884597Y100518D01*
X884536Y100470D01*
X884470Y100429D01*
X884440Y100393D01*
X884405Y100365D01*
X884363Y100299D01*
X884313Y100239D01*
X884296Y100196D01*
X884272Y100158D01*
X884253Y100082D01*
X884225Y100009D01*
X884223Y99964D01*
X884212Y99919D01*
X884218Y99842D01*
X884214Y99764D01*
X884227Y99720D01*
X884231Y99674D01*
X884261Y99602D01*
X884283Y99528D01*
X884309Y99490D01*
X884327Y99448D01*
X884412Y99341D01*
X884423Y99325D01*
X884427Y99322D01*
X884432Y99317D01*
X912285Y71464D01*
X912359Y71411D01*
X912428Y71351D01*
X912458Y71339D01*
X912484Y71320D01*
X912571Y71293D01*
X912656Y71259D01*
X912697Y71255D01*
X912720Y71248D01*
X912752Y71249D01*
X912823Y71241D01*
X923173Y71241D01*
X923244Y71252D01*
X923316Y71254D01*
X923364Y71272D01*
X923416Y71280D01*
X923479Y71314D01*
X923547Y71339D01*
X923587Y71371D01*
X923633Y71396D01*
X923683Y71448D01*
X923739Y71492D01*
X923767Y71536D01*
X923803Y71574D01*
X923833Y71639D01*
X923872Y71699D01*
X923884Y71750D01*
X923906Y71797D01*
X923914Y71868D01*
X923932Y71938D01*
X923928Y71990D01*
X923933Y72041D01*
X923918Y72112D01*
X923912Y72183D01*
X923892Y72231D01*
X923881Y72282D01*
X923844Y72343D01*
X923816Y72409D01*
X923771Y72465D01*
X923755Y72493D01*
X923737Y72508D01*
X923711Y72540D01*
X901335Y94916D01*
X901335Y99795D01*
X901316Y99910D01*
X901299Y100026D01*
X901297Y100032D01*
X901296Y100038D01*
X901241Y100141D01*
X901188Y100245D01*
X901183Y100250D01*
X901180Y100255D01*
X901096Y100335D01*
X901012Y100418D01*
X901006Y100421D01*
X901002Y100425D01*
X900985Y100433D01*
X900865Y100499D01*
X899288Y101152D01*
X896252Y104188D01*
X894609Y108154D01*
X894609Y112446D01*
X896252Y116412D01*
X899288Y119448D01*
X903254Y121091D01*
X907546Y121091D01*
X911512Y119448D01*
X914548Y116412D01*
X916191Y112446D01*
X916191Y108154D01*
X914548Y104188D01*
X911512Y101152D01*
X909935Y100499D01*
X909835Y100437D01*
X909735Y100377D01*
X909731Y100372D01*
X909726Y100369D01*
X909651Y100278D01*
X909575Y100190D01*
X909573Y100184D01*
X909569Y100179D01*
X909527Y100071D01*
X909483Y99962D01*
X909482Y99954D01*
X909481Y99950D01*
X909480Y99932D01*
X909465Y99795D01*
X909465Y98599D01*
X909479Y98509D01*
X909487Y98418D01*
X909499Y98388D01*
X909504Y98356D01*
X909547Y98276D01*
X909583Y98192D01*
X909609Y98160D01*
X909620Y98139D01*
X909643Y98117D01*
X909688Y98061D01*
X930461Y77288D01*
X930535Y77235D01*
X930604Y77175D01*
X930634Y77163D01*
X930660Y77144D01*
X930747Y77117D01*
X930832Y77083D01*
X930873Y77079D01*
X930896Y77072D01*
X930928Y77073D01*
X930999Y77065D01*
X956814Y77065D01*
X956904Y77079D01*
X956995Y77087D01*
X957025Y77099D01*
X957057Y77104D01*
X957137Y77147D01*
X957221Y77183D01*
X957253Y77209D01*
X957274Y77220D01*
X957296Y77243D01*
X957352Y77288D01*
X1010424Y130359D01*
X1010481Y130438D01*
X1010543Y130513D01*
X1010552Y130538D01*
X1010567Y130559D01*
X1010596Y130652D01*
X1010631Y130743D01*
X1010632Y130769D01*
X1010640Y130794D01*
X1010637Y130891D01*
X1010641Y130989D01*
X1010634Y131014D01*
X1010633Y131040D01*
X1010600Y131131D01*
X1010573Y131225D01*
X1010558Y131246D01*
X1010549Y131271D01*
X1010488Y131347D01*
X1010432Y131427D01*
X1010411Y131443D01*
X1010395Y131463D01*
X1010313Y131516D01*
X1010235Y131574D01*
X1010210Y131582D01*
X1010188Y131596D01*
X1010094Y131620D01*
X1010001Y131650D01*
X1009975Y131650D01*
X1009950Y131656D01*
X1009853Y131648D01*
X1009755Y131648D01*
X1009724Y131638D01*
X1009704Y131637D01*
X1009674Y131624D01*
X1009594Y131601D01*
X1002300Y128579D01*
X993300Y128579D01*
X984986Y132023D01*
X978623Y138386D01*
X975179Y146700D01*
X975179Y155700D01*
X978623Y164014D01*
X984986Y170377D01*
X993300Y173821D01*
X1002300Y173821D01*
X1010614Y170377D01*
X1016977Y164014D01*
X1020421Y155700D01*
X1020421Y146700D01*
X1017399Y139406D01*
X1017377Y139311D01*
X1017348Y139218D01*
X1017349Y139192D01*
X1017343Y139166D01*
X1017352Y139070D01*
X1017355Y138972D01*
X1017364Y138948D01*
X1017366Y138922D01*
X1017406Y138832D01*
X1017439Y138741D01*
X1017456Y138721D01*
X1017466Y138697D01*
X1017532Y138625D01*
X1017593Y138549D01*
X1017615Y138535D01*
X1017633Y138516D01*
X1017718Y138469D01*
X1017800Y138416D01*
X1017825Y138410D01*
X1017848Y138397D01*
X1017944Y138380D01*
X1018038Y138356D01*
X1018064Y138358D01*
X1018090Y138353D01*
X1018187Y138368D01*
X1018284Y138375D01*
X1018308Y138385D01*
X1018333Y138389D01*
X1018420Y138433D01*
X1018510Y138471D01*
X1018535Y138492D01*
X1018553Y138501D01*
X1018576Y138524D01*
X1018641Y138576D01*
X1046705Y166640D01*
X1046772Y166734D01*
X1046843Y166829D01*
X1046844Y166835D01*
X1046848Y166840D01*
X1046882Y166951D01*
X1046919Y167063D01*
X1046919Y167069D01*
X1046920Y167075D01*
X1046917Y167192D01*
X1046916Y167309D01*
X1046914Y167316D01*
X1046914Y167321D01*
X1046908Y167338D01*
X1046870Y167470D01*
X1046383Y168645D01*
X1046383Y172656D01*
X1047917Y176361D01*
X1050753Y179196D01*
X1054458Y180731D01*
X1058469Y180731D01*
X1062174Y179196D01*
X1065009Y176361D01*
X1066544Y172656D01*
X1066544Y168645D01*
X1065009Y164940D01*
X1062174Y162104D01*
X1058469Y160570D01*
X1054458Y160570D01*
X1053283Y161057D01*
X1053169Y161083D01*
X1053055Y161112D01*
X1053049Y161111D01*
X1053043Y161113D01*
X1052927Y161102D01*
X1052810Y161093D01*
X1052805Y161090D01*
X1052798Y161090D01*
X1052691Y161042D01*
X1052584Y160996D01*
X1052578Y160992D01*
X1052574Y160990D01*
X1052560Y160977D01*
X1052453Y160892D01*
X964102Y72540D01*
X964060Y72482D01*
X964010Y72430D01*
X963988Y72383D01*
X963958Y72341D01*
X963937Y72272D01*
X963907Y72207D01*
X963901Y72155D01*
X963886Y72105D01*
X963888Y72034D01*
X963880Y71963D01*
X963891Y71912D01*
X963892Y71860D01*
X963917Y71792D01*
X963932Y71722D01*
X963959Y71678D01*
X963976Y71629D01*
X964021Y71573D01*
X964058Y71511D01*
X964098Y71477D01*
X964130Y71437D01*
X964190Y71398D01*
X964245Y71351D01*
X964293Y71332D01*
X964337Y71304D01*
X964407Y71286D01*
X964473Y71259D01*
X964544Y71251D01*
X964576Y71243D01*
X964599Y71245D01*
X964640Y71241D01*
X976390Y71241D01*
X976480Y71255D01*
X976571Y71263D01*
X976601Y71275D01*
X976633Y71280D01*
X976713Y71323D01*
X976797Y71359D01*
X976829Y71385D01*
X976850Y71396D01*
X976872Y71419D01*
X976928Y71464D01*
X1046705Y141240D01*
X1046772Y141334D01*
X1046843Y141429D01*
X1046844Y141435D01*
X1046848Y141440D01*
X1046882Y141549D01*
X1046919Y141663D01*
X1046919Y141669D01*
X1046920Y141675D01*
X1046917Y141792D01*
X1046916Y141909D01*
X1046914Y141916D01*
X1046914Y141921D01*
X1046908Y141938D01*
X1046870Y142070D01*
X1046383Y143245D01*
X1046383Y147256D01*
X1047917Y150961D01*
X1050753Y153796D01*
X1054458Y155331D01*
X1058469Y155331D01*
X1062174Y153796D01*
X1065009Y150961D01*
X1066544Y147256D01*
X1066544Y143245D01*
X1065009Y139540D01*
X1062174Y136704D01*
X1058469Y135170D01*
X1054458Y135170D01*
X1053283Y135657D01*
X1053169Y135683D01*
X1053055Y135712D01*
X1053049Y135711D01*
X1053043Y135713D01*
X1052927Y135702D01*
X1052810Y135693D01*
X1052805Y135690D01*
X1052798Y135690D01*
X1052691Y135642D01*
X1052584Y135596D01*
X1052578Y135592D01*
X1052574Y135590D01*
X1052560Y135577D01*
X1052453Y135492D01*
X983914Y66952D01*
X983872Y66894D01*
X983822Y66842D01*
X983800Y66795D01*
X983770Y66753D01*
X983749Y66684D01*
X983719Y66619D01*
X983713Y66567D01*
X983698Y66517D01*
X983700Y66446D01*
X983692Y66375D01*
X983703Y66324D01*
X983704Y66272D01*
X983729Y66204D01*
X983744Y66134D01*
X983771Y66089D01*
X983788Y66041D01*
X983833Y65985D01*
X983870Y65923D01*
X983910Y65889D01*
X983942Y65849D01*
X984002Y65810D01*
X984057Y65763D01*
X984105Y65744D01*
X984149Y65716D01*
X984219Y65698D01*
X984285Y65671D01*
X984356Y65663D01*
X984388Y65655D01*
X984411Y65657D01*
X984452Y65653D01*
X996202Y65653D01*
X996292Y65667D01*
X996383Y65675D01*
X996413Y65687D01*
X996445Y65692D01*
X996525Y65735D01*
X996609Y65771D01*
X996641Y65797D01*
X996662Y65808D01*
X996684Y65831D01*
X996740Y65876D01*
X1046705Y115840D01*
X1046773Y115935D01*
X1046843Y116029D01*
X1046845Y116035D01*
X1046848Y116040D01*
X1046882Y116151D01*
X1046919Y116263D01*
X1046919Y116269D01*
X1046921Y116275D01*
X1046917Y116392D01*
X1046916Y116509D01*
X1046914Y116516D01*
X1046914Y116521D01*
X1046908Y116538D01*
X1046870Y116670D01*
X1046383Y117845D01*
X1046383Y121856D01*
X1047917Y125561D01*
X1050753Y128396D01*
X1054458Y129931D01*
X1058469Y129931D01*
X1062174Y128396D01*
X1065009Y125561D01*
X1066544Y121856D01*
X1066544Y117845D01*
X1065009Y114140D01*
X1062174Y111304D01*
X1058469Y109770D01*
X1054458Y109770D01*
X1053283Y110257D01*
X1053170Y110283D01*
X1053055Y110312D01*
X1053049Y110311D01*
X1053043Y110313D01*
X1052927Y110302D01*
X1052810Y110293D01*
X1052805Y110290D01*
X1052798Y110290D01*
X1052690Y110242D01*
X1052584Y110197D01*
X1052578Y110192D01*
X1052574Y110190D01*
X1052559Y110177D01*
X1052453Y110092D01*
X1042176Y99815D01*
X1042134Y99757D01*
X1042085Y99705D01*
X1042063Y99657D01*
X1042032Y99615D01*
X1042011Y99547D01*
X1041981Y99481D01*
X1041975Y99430D01*
X1041960Y99380D01*
X1041962Y99308D01*
X1041954Y99237D01*
X1041965Y99186D01*
X1041966Y99134D01*
X1041991Y99067D01*
X1042006Y98997D01*
X1042033Y98952D01*
X1042051Y98903D01*
X1042096Y98847D01*
X1042133Y98786D01*
X1042172Y98752D01*
X1042205Y98711D01*
X1042265Y98672D01*
X1042319Y98626D01*
X1042368Y98606D01*
X1042412Y98578D01*
X1042481Y98560D01*
X1042548Y98534D01*
X1042619Y98526D01*
X1042650Y98518D01*
X1042673Y98520D01*
X1042714Y98515D01*
X1046727Y98515D01*
X1046842Y98534D01*
X1046958Y98551D01*
X1046964Y98554D01*
X1046970Y98555D01*
X1047072Y98609D01*
X1047177Y98663D01*
X1047182Y98667D01*
X1047187Y98670D01*
X1047267Y98754D01*
X1047350Y98838D01*
X1047353Y98845D01*
X1047357Y98848D01*
X1047364Y98865D01*
X1047430Y98985D01*
X1047917Y100161D01*
X1050753Y102996D01*
X1054458Y104531D01*
X1058469Y104531D01*
X1062174Y102996D01*
X1065009Y100161D01*
X1066544Y96456D01*
X1066544Y92445D01*
X1065009Y88740D01*
X1062174Y85904D01*
X1058469Y84370D01*
X1054458Y84370D01*
X1050753Y85904D01*
X1047917Y88740D01*
X1047430Y89916D01*
X1047368Y90016D01*
X1047309Y90115D01*
X1047304Y90119D01*
X1047301Y90125D01*
X1047210Y90200D01*
X1047122Y90275D01*
X1047116Y90278D01*
X1047111Y90282D01*
X1047003Y90323D01*
X1046894Y90367D01*
X1046886Y90368D01*
X1046882Y90370D01*
X1046863Y90371D01*
X1046727Y90386D01*
X1044449Y90386D01*
X1044359Y90371D01*
X1044268Y90364D01*
X1044239Y90351D01*
X1044207Y90346D01*
X1044126Y90303D01*
X1044042Y90268D01*
X1044010Y90242D01*
X1043989Y90231D01*
X1043967Y90208D01*
X1043911Y90163D01*
X1005684Y51935D01*
X881816Y51935D01*
G37*
%LPD*%
%LPC*%
G36*
X374715Y36569D02*
X374715Y36569D01*
X368019Y43265D01*
X368019Y52757D01*
X368038Y52786D01*
X368098Y52870D01*
X368104Y52889D01*
X368115Y52906D01*
X368140Y53006D01*
X368171Y53105D01*
X368170Y53125D01*
X368175Y53144D01*
X368167Y53247D01*
X368164Y53351D01*
X368157Y53370D01*
X368156Y53390D01*
X368116Y53484D01*
X368080Y53582D01*
X368067Y53598D01*
X368060Y53616D01*
X367955Y53747D01*
X354989Y66712D01*
X354915Y66765D01*
X354846Y66825D01*
X354816Y66837D01*
X354790Y66856D01*
X354703Y66883D01*
X354618Y66917D01*
X354577Y66921D01*
X354554Y66928D01*
X354522Y66927D01*
X354451Y66935D01*
X292316Y66935D01*
X272935Y86316D01*
X272935Y94433D01*
X272917Y94547D01*
X272899Y94664D01*
X272897Y94669D01*
X272896Y94676D01*
X272841Y94778D01*
X272788Y94883D01*
X272783Y94887D01*
X272780Y94893D01*
X272696Y94973D01*
X272612Y95055D01*
X272606Y95059D01*
X272602Y95062D01*
X272585Y95070D01*
X272465Y95136D01*
X270944Y95766D01*
X268086Y98624D01*
X266539Y102359D01*
X266539Y121641D01*
X268086Y125376D01*
X270944Y128234D01*
X274679Y129781D01*
X278721Y129781D01*
X282456Y128234D01*
X285314Y125376D01*
X286861Y121641D01*
X286861Y102359D01*
X285314Y98624D01*
X282456Y95766D01*
X281535Y95385D01*
X281435Y95323D01*
X281335Y95263D01*
X281331Y95258D01*
X281326Y95255D01*
X281251Y95165D01*
X281175Y95076D01*
X281173Y95070D01*
X281169Y95066D01*
X281127Y94957D01*
X281083Y94848D01*
X281082Y94841D01*
X281081Y94836D01*
X281080Y94818D01*
X281065Y94681D01*
X281065Y89999D01*
X281079Y89909D01*
X281087Y89818D01*
X281099Y89788D01*
X281104Y89756D01*
X281147Y89676D01*
X281183Y89592D01*
X281209Y89560D01*
X281220Y89539D01*
X281243Y89517D01*
X281288Y89461D01*
X295461Y75288D01*
X295535Y75235D01*
X295604Y75175D01*
X295634Y75163D01*
X295660Y75144D01*
X295747Y75117D01*
X295832Y75083D01*
X295873Y75079D01*
X295896Y75072D01*
X295928Y75073D01*
X295999Y75065D01*
X339349Y75065D01*
X339420Y75076D01*
X339492Y75078D01*
X339540Y75096D01*
X339592Y75104D01*
X339655Y75138D01*
X339723Y75163D01*
X339763Y75195D01*
X339809Y75220D01*
X339859Y75272D01*
X339915Y75316D01*
X339943Y75360D01*
X339979Y75398D01*
X340009Y75463D01*
X340048Y75523D01*
X340060Y75574D01*
X340082Y75621D01*
X340090Y75692D01*
X340108Y75762D01*
X340104Y75814D01*
X340109Y75865D01*
X340094Y75936D01*
X340088Y76007D01*
X340068Y76055D01*
X340057Y76106D01*
X340020Y76167D01*
X339992Y76233D01*
X339947Y76289D01*
X339931Y76317D01*
X339913Y76332D01*
X339887Y76364D01*
X338212Y78039D01*
X323435Y92816D01*
X323435Y94557D01*
X323417Y94671D01*
X323399Y94788D01*
X323397Y94794D01*
X323396Y94800D01*
X323341Y94902D01*
X323288Y95007D01*
X323283Y95012D01*
X323280Y95017D01*
X323196Y95097D01*
X323112Y95180D01*
X323106Y95183D01*
X323102Y95187D01*
X323085Y95194D01*
X322965Y95260D01*
X321744Y95766D01*
X318886Y98624D01*
X317339Y102359D01*
X317339Y121641D01*
X318886Y125376D01*
X321744Y128234D01*
X325479Y129781D01*
X329521Y129781D01*
X333256Y128234D01*
X336114Y125376D01*
X337661Y121641D01*
X337661Y102359D01*
X336114Y98624D01*
X333157Y95668D01*
X333146Y95652D01*
X333130Y95639D01*
X333074Y95552D01*
X333014Y95468D01*
X333008Y95449D01*
X332997Y95432D01*
X332972Y95332D01*
X332941Y95233D01*
X332942Y95213D01*
X332937Y95194D01*
X332945Y95091D01*
X332948Y94987D01*
X332955Y94968D01*
X332956Y94948D01*
X332996Y94854D01*
X333032Y94756D01*
X333045Y94740D01*
X333052Y94722D01*
X333157Y94591D01*
X343961Y83788D01*
X344035Y83735D01*
X344104Y83675D01*
X344134Y83663D01*
X344160Y83644D01*
X344247Y83617D01*
X344332Y83583D01*
X344373Y83579D01*
X344396Y83572D01*
X344428Y83573D01*
X344499Y83565D01*
X479634Y83565D01*
X503703Y59495D01*
X503719Y59484D01*
X503732Y59468D01*
X503819Y59412D01*
X503903Y59352D01*
X503922Y59346D01*
X503939Y59335D01*
X504039Y59310D01*
X504138Y59279D01*
X504158Y59280D01*
X504177Y59275D01*
X504280Y59283D01*
X504384Y59286D01*
X504403Y59293D01*
X504423Y59294D01*
X504517Y59334D01*
X504615Y59370D01*
X504631Y59383D01*
X504649Y59390D01*
X504699Y59431D01*
X514185Y59431D01*
X520881Y52735D01*
X520881Y43265D01*
X514185Y36569D01*
X504715Y36569D01*
X498019Y43265D01*
X498019Y52757D01*
X498038Y52786D01*
X498098Y52870D01*
X498104Y52889D01*
X498115Y52906D01*
X498140Y53006D01*
X498171Y53105D01*
X498170Y53125D01*
X498175Y53144D01*
X498167Y53247D01*
X498164Y53351D01*
X498157Y53370D01*
X498156Y53390D01*
X498116Y53484D01*
X498080Y53582D01*
X498067Y53598D01*
X498060Y53616D01*
X497955Y53747D01*
X476489Y75212D01*
X476415Y75265D01*
X476346Y75325D01*
X476316Y75337D01*
X476290Y75356D01*
X476203Y75383D01*
X476118Y75417D01*
X476077Y75421D01*
X476054Y75428D01*
X476022Y75427D01*
X475951Y75435D01*
X359601Y75435D01*
X359530Y75424D01*
X359458Y75422D01*
X359410Y75404D01*
X359358Y75396D01*
X359295Y75362D01*
X359227Y75337D01*
X359187Y75305D01*
X359141Y75280D01*
X359091Y75228D01*
X359035Y75184D01*
X359007Y75140D01*
X358971Y75102D01*
X358941Y75037D01*
X358902Y74977D01*
X358890Y74926D01*
X358868Y74879D01*
X358860Y74808D01*
X358842Y74738D01*
X358846Y74686D01*
X358841Y74635D01*
X358856Y74564D01*
X358862Y74493D01*
X358882Y74445D01*
X358893Y74394D01*
X358930Y74333D01*
X358958Y74267D01*
X359003Y74211D01*
X359019Y74183D01*
X359037Y74168D01*
X359063Y74136D01*
X360738Y72461D01*
X373703Y59495D01*
X373719Y59484D01*
X373732Y59468D01*
X373819Y59412D01*
X373903Y59352D01*
X373922Y59346D01*
X373939Y59335D01*
X374039Y59310D01*
X374138Y59279D01*
X374158Y59280D01*
X374177Y59275D01*
X374280Y59283D01*
X374384Y59286D01*
X374403Y59293D01*
X374423Y59294D01*
X374517Y59334D01*
X374615Y59370D01*
X374631Y59383D01*
X374649Y59390D01*
X374699Y59431D01*
X384185Y59431D01*
X390881Y52735D01*
X390881Y43265D01*
X384185Y36569D01*
X374715Y36569D01*
G37*
%LPD*%
%LPC*%
G36*
X559854Y33209D02*
X559854Y33209D01*
X555888Y34852D01*
X552852Y37888D01*
X551209Y41854D01*
X551209Y46146D01*
X552852Y50112D01*
X555888Y53148D01*
X559854Y54791D01*
X564146Y54791D01*
X568112Y53148D01*
X571148Y50112D01*
X571801Y48535D01*
X571863Y48435D01*
X571923Y48335D01*
X571928Y48331D01*
X571931Y48326D01*
X572021Y48251D01*
X572110Y48175D01*
X572116Y48173D01*
X572121Y48169D01*
X572229Y48127D01*
X572338Y48083D01*
X572346Y48082D01*
X572350Y48081D01*
X572368Y48080D01*
X572505Y48065D01*
X573001Y48065D01*
X573091Y48079D01*
X573182Y48087D01*
X573212Y48099D01*
X573244Y48104D01*
X573324Y48147D01*
X573408Y48183D01*
X573440Y48209D01*
X573461Y48220D01*
X573483Y48243D01*
X573539Y48288D01*
X585062Y59811D01*
X585115Y59885D01*
X585175Y59954D01*
X585187Y59984D01*
X585206Y60010D01*
X585233Y60097D01*
X585267Y60182D01*
X585271Y60223D01*
X585278Y60246D01*
X585277Y60278D01*
X585285Y60349D01*
X585285Y94699D01*
X585274Y94770D01*
X585272Y94842D01*
X585254Y94890D01*
X585246Y94942D01*
X585212Y95005D01*
X585187Y95073D01*
X585155Y95113D01*
X585130Y95159D01*
X585078Y95209D01*
X585034Y95265D01*
X584990Y95293D01*
X584952Y95329D01*
X584887Y95359D01*
X584827Y95398D01*
X584776Y95410D01*
X584729Y95432D01*
X584658Y95440D01*
X584588Y95458D01*
X584536Y95454D01*
X584485Y95459D01*
X584414Y95444D01*
X584343Y95438D01*
X584295Y95418D01*
X584244Y95407D01*
X584183Y95370D01*
X584117Y95342D01*
X584061Y95297D01*
X584033Y95281D01*
X584018Y95263D01*
X583986Y95237D01*
X578684Y89935D01*
X572505Y89935D01*
X572390Y89916D01*
X572274Y89899D01*
X572268Y89897D01*
X572262Y89896D01*
X572159Y89841D01*
X572055Y89788D01*
X572050Y89783D01*
X572045Y89780D01*
X571965Y89696D01*
X571882Y89612D01*
X571879Y89606D01*
X571875Y89602D01*
X571867Y89585D01*
X571801Y89465D01*
X571148Y87888D01*
X568112Y84852D01*
X564146Y83209D01*
X559854Y83209D01*
X555888Y84852D01*
X552852Y87888D01*
X551209Y91854D01*
X551209Y96146D01*
X552852Y100112D01*
X555888Y103148D01*
X559854Y104791D01*
X564146Y104791D01*
X568112Y103148D01*
X571148Y100112D01*
X571801Y98535D01*
X571863Y98435D01*
X571923Y98335D01*
X571928Y98331D01*
X571931Y98326D01*
X572021Y98251D01*
X572110Y98175D01*
X572116Y98173D01*
X572121Y98169D01*
X572229Y98127D01*
X572338Y98083D01*
X572346Y98082D01*
X572350Y98081D01*
X572368Y98080D01*
X572505Y98065D01*
X575001Y98065D01*
X575091Y98079D01*
X575182Y98087D01*
X575212Y98099D01*
X575244Y98104D01*
X575324Y98147D01*
X575408Y98183D01*
X575440Y98209D01*
X575461Y98220D01*
X575483Y98243D01*
X575539Y98288D01*
X579474Y102223D01*
X579527Y102297D01*
X579587Y102366D01*
X579599Y102396D01*
X579618Y102422D01*
X579645Y102509D01*
X579679Y102594D01*
X579683Y102635D01*
X579690Y102658D01*
X579689Y102690D01*
X579697Y102761D01*
X579697Y144239D01*
X579683Y144329D01*
X579675Y144420D01*
X579663Y144450D01*
X579658Y144482D01*
X579615Y144562D01*
X579579Y144646D01*
X579553Y144678D01*
X579542Y144699D01*
X579519Y144721D01*
X579474Y144777D01*
X573539Y150712D01*
X573465Y150765D01*
X573396Y150825D01*
X573366Y150837D01*
X573340Y150856D01*
X573253Y150883D01*
X573168Y150917D01*
X573127Y150921D01*
X573104Y150928D01*
X573072Y150927D01*
X573001Y150935D01*
X563319Y150935D01*
X563204Y150916D01*
X563088Y150899D01*
X563082Y150897D01*
X563076Y150896D01*
X562973Y150841D01*
X562868Y150788D01*
X562864Y150783D01*
X562858Y150780D01*
X562779Y150696D01*
X562696Y150612D01*
X562693Y150606D01*
X562689Y150602D01*
X562681Y150585D01*
X562615Y150465D01*
X562234Y149544D01*
X559376Y146686D01*
X555641Y145139D01*
X536359Y145139D01*
X532624Y146686D01*
X529766Y149544D01*
X528219Y153279D01*
X528219Y157321D01*
X529766Y161056D01*
X532624Y163914D01*
X536359Y165461D01*
X555641Y165461D01*
X559376Y163914D01*
X562234Y161056D01*
X562864Y159535D01*
X562925Y159435D01*
X562985Y159335D01*
X562990Y159331D01*
X562993Y159326D01*
X563084Y159251D01*
X563172Y159175D01*
X563178Y159173D01*
X563183Y159169D01*
X563291Y159127D01*
X563400Y159083D01*
X563408Y159082D01*
X563413Y159081D01*
X563431Y159080D01*
X563567Y159065D01*
X576684Y159065D01*
X583986Y151763D01*
X584044Y151721D01*
X584096Y151671D01*
X584143Y151649D01*
X584185Y151619D01*
X584254Y151598D01*
X584319Y151568D01*
X584371Y151562D01*
X584421Y151547D01*
X584492Y151549D01*
X584563Y151541D01*
X584614Y151552D01*
X584666Y151553D01*
X584734Y151578D01*
X584804Y151593D01*
X584849Y151620D01*
X584897Y151638D01*
X584953Y151682D01*
X585015Y151719D01*
X585049Y151759D01*
X585089Y151791D01*
X585128Y151852D01*
X585175Y151906D01*
X585194Y151954D01*
X585222Y151998D01*
X585240Y152068D01*
X585267Y152134D01*
X585275Y152206D01*
X585283Y152237D01*
X585281Y152260D01*
X585285Y152301D01*
X585285Y152651D01*
X585271Y152741D01*
X585263Y152832D01*
X585251Y152862D01*
X585246Y152894D01*
X585203Y152974D01*
X585167Y153058D01*
X585141Y153090D01*
X585130Y153111D01*
X585107Y153133D01*
X585062Y153189D01*
X563309Y174943D01*
X563293Y174954D01*
X563280Y174970D01*
X563193Y175026D01*
X563109Y175086D01*
X563090Y175092D01*
X563073Y175103D01*
X562973Y175128D01*
X562874Y175159D01*
X562854Y175158D01*
X562835Y175163D01*
X562732Y175155D01*
X562628Y175152D01*
X562609Y175145D01*
X562590Y175144D01*
X562495Y175104D01*
X562397Y175068D01*
X562381Y175055D01*
X562363Y175048D01*
X562232Y174943D01*
X559376Y172086D01*
X555641Y170539D01*
X536359Y170539D01*
X532624Y172086D01*
X529766Y174944D01*
X528219Y178679D01*
X528219Y182721D01*
X529766Y186456D01*
X532624Y189314D01*
X536359Y190861D01*
X555641Y190861D01*
X559376Y189314D01*
X562234Y186456D01*
X562740Y185235D01*
X562801Y185135D01*
X562861Y185035D01*
X562866Y185031D01*
X562869Y185026D01*
X562959Y184951D01*
X563048Y184875D01*
X563054Y184873D01*
X563059Y184869D01*
X563167Y184827D01*
X563276Y184783D01*
X563284Y184782D01*
X563288Y184781D01*
X563307Y184780D01*
X563443Y184765D01*
X564984Y184765D01*
X593415Y156334D01*
X593415Y56666D01*
X576684Y39935D01*
X572505Y39935D01*
X572390Y39916D01*
X572274Y39899D01*
X572268Y39897D01*
X572262Y39896D01*
X572159Y39841D01*
X572055Y39788D01*
X572050Y39783D01*
X572045Y39780D01*
X571965Y39696D01*
X571882Y39612D01*
X571879Y39606D01*
X571875Y39602D01*
X571867Y39585D01*
X571801Y39465D01*
X571148Y37888D01*
X568112Y34852D01*
X564146Y33209D01*
X559854Y33209D01*
G37*
%LPD*%
%LPC*%
G36*
X350879Y94219D02*
X350879Y94219D01*
X347144Y95766D01*
X344286Y98624D01*
X342739Y102359D01*
X342739Y121641D01*
X344286Y125376D01*
X347144Y128234D01*
X350879Y129781D01*
X354921Y129781D01*
X358656Y128234D01*
X360482Y126407D01*
X360498Y126396D01*
X360511Y126380D01*
X360598Y126324D01*
X360682Y126264D01*
X360701Y126258D01*
X360718Y126247D01*
X360818Y126222D01*
X360917Y126191D01*
X360937Y126192D01*
X360956Y126187D01*
X361059Y126195D01*
X361163Y126198D01*
X361182Y126205D01*
X361202Y126206D01*
X361296Y126246D01*
X361394Y126282D01*
X361410Y126295D01*
X361428Y126302D01*
X361559Y126407D01*
X384612Y149461D01*
X387216Y152065D01*
X478451Y152065D01*
X478541Y152079D01*
X478632Y152087D01*
X478662Y152099D01*
X478694Y152104D01*
X478774Y152147D01*
X478858Y152183D01*
X478890Y152209D01*
X478911Y152220D01*
X478933Y152243D01*
X478989Y152288D01*
X497955Y171253D01*
X497966Y171269D01*
X497982Y171282D01*
X498023Y171345D01*
X498043Y171366D01*
X498055Y171393D01*
X498098Y171453D01*
X498104Y171472D01*
X498115Y171489D01*
X498133Y171560D01*
X498147Y171589D01*
X498150Y171621D01*
X498171Y171688D01*
X498170Y171708D01*
X498175Y171727D01*
X498170Y171797D01*
X498174Y171834D01*
X498166Y171869D01*
X498164Y171934D01*
X498157Y171953D01*
X498156Y171973D01*
X498131Y172032D01*
X498121Y172074D01*
X498100Y172111D01*
X498080Y172165D01*
X498067Y172181D01*
X498060Y172199D01*
X498019Y172249D01*
X498019Y181735D01*
X504715Y188431D01*
X514185Y188431D01*
X520881Y181735D01*
X520881Y172265D01*
X514185Y165569D01*
X504693Y165569D01*
X504675Y165581D01*
X504660Y165594D01*
X504650Y165598D01*
X504580Y165648D01*
X504561Y165654D01*
X504544Y165665D01*
X504444Y165690D01*
X504345Y165721D01*
X504325Y165720D01*
X504306Y165725D01*
X504203Y165717D01*
X504099Y165714D01*
X504080Y165707D01*
X504060Y165706D01*
X503966Y165666D01*
X503868Y165630D01*
X503852Y165617D01*
X503834Y165610D01*
X503762Y165552D01*
X503758Y165550D01*
X503754Y165546D01*
X503703Y165505D01*
X484738Y146539D01*
X482134Y143935D01*
X390899Y143935D01*
X390809Y143921D01*
X390718Y143913D01*
X390688Y143901D01*
X390656Y143896D01*
X390576Y143853D01*
X390492Y143817D01*
X390460Y143791D01*
X390439Y143780D01*
X390417Y143757D01*
X390361Y143712D01*
X363284Y116635D01*
X363231Y116561D01*
X363171Y116492D01*
X363159Y116462D01*
X363140Y116436D01*
X363113Y116349D01*
X363079Y116264D01*
X363075Y116223D01*
X363068Y116201D01*
X363069Y116168D01*
X363061Y116097D01*
X363061Y102359D01*
X361514Y98624D01*
X358656Y95766D01*
X354921Y94219D01*
X350879Y94219D01*
G37*
%LPD*%
%LPC*%
G36*
X1222854Y33209D02*
X1222854Y33209D01*
X1218888Y34852D01*
X1215852Y37888D01*
X1214209Y41854D01*
X1214209Y46146D01*
X1215852Y50112D01*
X1218888Y53148D01*
X1222854Y54791D01*
X1227146Y54791D01*
X1228724Y54137D01*
X1228838Y54110D01*
X1228951Y54082D01*
X1228958Y54082D01*
X1228964Y54081D01*
X1229080Y54092D01*
X1229197Y54101D01*
X1229202Y54104D01*
X1229209Y54104D01*
X1229316Y54152D01*
X1229423Y54197D01*
X1229429Y54202D01*
X1229433Y54204D01*
X1229447Y54217D01*
X1229554Y54302D01*
X1285712Y110461D01*
X1285765Y110535D01*
X1285825Y110604D01*
X1285837Y110634D01*
X1285856Y110660D01*
X1285883Y110747D01*
X1285917Y110832D01*
X1285921Y110873D01*
X1285928Y110896D01*
X1285927Y110928D01*
X1285935Y110999D01*
X1285935Y145001D01*
X1285921Y145091D01*
X1285913Y145182D01*
X1285901Y145212D01*
X1285896Y145244D01*
X1285853Y145324D01*
X1285817Y145408D01*
X1285791Y145440D01*
X1285780Y145461D01*
X1285757Y145483D01*
X1285712Y145539D01*
X1277764Y153488D01*
X1277727Y153515D01*
X1277696Y153548D01*
X1277627Y153586D01*
X1277564Y153631D01*
X1277520Y153645D01*
X1277480Y153667D01*
X1277403Y153681D01*
X1277329Y153704D01*
X1277283Y153702D01*
X1277238Y153711D01*
X1277161Y153699D01*
X1277083Y153697D01*
X1277040Y153682D01*
X1276995Y153675D01*
X1276925Y153640D01*
X1276852Y153613D01*
X1276816Y153584D01*
X1276775Y153563D01*
X1276721Y153508D01*
X1276660Y153459D01*
X1276635Y153420D01*
X1276603Y153388D01*
X1276537Y153268D01*
X1276527Y153252D01*
X1276526Y153247D01*
X1276522Y153241D01*
X1276234Y152544D01*
X1273376Y149686D01*
X1269641Y148139D01*
X1250359Y148139D01*
X1246624Y149686D01*
X1243766Y152544D01*
X1242219Y156279D01*
X1242219Y160321D01*
X1243766Y164056D01*
X1246624Y166914D01*
X1250359Y168461D01*
X1269641Y168461D01*
X1273376Y166914D01*
X1276234Y164056D01*
X1276740Y162835D01*
X1276801Y162735D01*
X1276861Y162635D01*
X1276866Y162631D01*
X1276869Y162626D01*
X1276960Y162551D01*
X1277048Y162475D01*
X1277054Y162473D01*
X1277059Y162469D01*
X1277167Y162427D01*
X1277276Y162383D01*
X1277284Y162382D01*
X1277288Y162381D01*
X1277307Y162380D01*
X1277443Y162365D01*
X1280384Y162365D01*
X1294065Y148684D01*
X1294065Y107316D01*
X1235302Y48554D01*
X1235234Y48459D01*
X1235164Y48365D01*
X1235162Y48359D01*
X1235159Y48354D01*
X1235124Y48243D01*
X1235088Y48131D01*
X1235088Y48125D01*
X1235086Y48119D01*
X1235089Y48002D01*
X1235090Y47885D01*
X1235093Y47878D01*
X1235093Y47873D01*
X1235099Y47856D01*
X1235137Y47724D01*
X1235791Y46146D01*
X1235791Y41854D01*
X1234148Y37888D01*
X1231112Y34852D01*
X1227146Y33209D01*
X1222854Y33209D01*
G37*
%LPD*%
%LPC*%
G36*
X1295815Y36569D02*
X1295815Y36569D01*
X1289119Y43265D01*
X1289119Y52735D01*
X1295815Y59431D01*
X1305285Y59431D01*
X1310945Y53770D01*
X1310961Y53759D01*
X1310974Y53743D01*
X1311061Y53687D01*
X1311145Y53627D01*
X1311164Y53621D01*
X1311181Y53610D01*
X1311281Y53585D01*
X1311380Y53554D01*
X1311400Y53555D01*
X1311419Y53550D01*
X1311522Y53558D01*
X1311626Y53561D01*
X1311645Y53568D01*
X1311665Y53569D01*
X1311759Y53609D01*
X1311857Y53645D01*
X1311873Y53658D01*
X1311891Y53665D01*
X1312022Y53770D01*
X1337316Y79065D01*
X1396001Y79065D01*
X1396091Y79079D01*
X1396182Y79087D01*
X1396212Y79099D01*
X1396244Y79104D01*
X1396324Y79147D01*
X1396408Y79183D01*
X1396440Y79209D01*
X1396461Y79220D01*
X1396483Y79243D01*
X1396539Y79288D01*
X1408412Y91161D01*
X1408465Y91235D01*
X1408525Y91304D01*
X1408537Y91334D01*
X1408556Y91360D01*
X1408583Y91447D01*
X1408617Y91532D01*
X1408621Y91573D01*
X1408628Y91596D01*
X1408627Y91628D01*
X1408635Y91699D01*
X1408635Y96557D01*
X1408617Y96671D01*
X1408599Y96788D01*
X1408597Y96794D01*
X1408596Y96800D01*
X1408541Y96902D01*
X1408488Y97007D01*
X1408483Y97012D01*
X1408480Y97017D01*
X1408396Y97097D01*
X1408312Y97180D01*
X1408306Y97183D01*
X1408302Y97187D01*
X1408285Y97194D01*
X1408165Y97260D01*
X1406944Y97766D01*
X1404086Y100624D01*
X1402539Y104359D01*
X1402539Y123641D01*
X1404086Y127376D01*
X1406944Y130234D01*
X1410679Y131781D01*
X1414721Y131781D01*
X1418456Y130234D01*
X1421314Y127376D01*
X1422861Y123641D01*
X1422861Y104359D01*
X1421314Y100624D01*
X1418456Y97766D01*
X1417235Y97260D01*
X1417135Y97199D01*
X1417035Y97139D01*
X1417031Y97134D01*
X1417026Y97131D01*
X1416951Y97041D01*
X1416875Y96952D01*
X1416873Y96946D01*
X1416869Y96941D01*
X1416827Y96832D01*
X1416783Y96724D01*
X1416782Y96716D01*
X1416781Y96712D01*
X1416780Y96693D01*
X1416765Y96557D01*
X1416765Y88016D01*
X1399684Y70935D01*
X1340999Y70935D01*
X1340909Y70921D01*
X1340818Y70913D01*
X1340788Y70901D01*
X1340756Y70896D01*
X1340676Y70853D01*
X1340592Y70817D01*
X1340560Y70791D01*
X1340539Y70780D01*
X1340517Y70757D01*
X1340461Y70712D01*
X1313684Y43935D01*
X1312742Y43935D01*
X1312722Y43932D01*
X1312703Y43934D01*
X1312601Y43912D01*
X1312499Y43896D01*
X1312482Y43886D01*
X1312462Y43882D01*
X1312373Y43829D01*
X1312282Y43780D01*
X1312268Y43766D01*
X1312251Y43756D01*
X1312184Y43677D01*
X1312112Y43602D01*
X1312104Y43584D01*
X1312091Y43569D01*
X1312052Y43473D01*
X1312009Y43379D01*
X1312007Y43359D01*
X1311999Y43341D01*
X1311992Y43277D01*
X1305285Y36569D01*
X1295815Y36569D01*
G37*
%LPD*%
%LPC*%
G36*
X921498Y99509D02*
X921498Y99509D01*
X920009Y100998D01*
X920009Y119602D01*
X921498Y121091D01*
X935527Y121091D01*
X935617Y121105D01*
X935708Y121113D01*
X935738Y121125D01*
X935770Y121130D01*
X935850Y121173D01*
X935934Y121209D01*
X935966Y121235D01*
X935987Y121246D01*
X936009Y121269D01*
X936065Y121314D01*
X955712Y140961D01*
X955765Y141035D01*
X955825Y141104D01*
X955837Y141134D01*
X955856Y141160D01*
X955883Y141247D01*
X955917Y141332D01*
X955921Y141373D01*
X955928Y141395D01*
X955927Y141428D01*
X955935Y141499D01*
X955935Y167684D01*
X988367Y200115D01*
X1046727Y200115D01*
X1046842Y200134D01*
X1046958Y200151D01*
X1046964Y200154D01*
X1046970Y200155D01*
X1047072Y200209D01*
X1047177Y200263D01*
X1047182Y200267D01*
X1047187Y200270D01*
X1047267Y200354D01*
X1047350Y200438D01*
X1047353Y200445D01*
X1047357Y200448D01*
X1047364Y200465D01*
X1047430Y200585D01*
X1047917Y201761D01*
X1050753Y204596D01*
X1054458Y206131D01*
X1058469Y206131D01*
X1062174Y204596D01*
X1065009Y201761D01*
X1066544Y198056D01*
X1066544Y194045D01*
X1065009Y190340D01*
X1062174Y187504D01*
X1058469Y185970D01*
X1054458Y185970D01*
X1050753Y187504D01*
X1047917Y190340D01*
X1047430Y191516D01*
X1047368Y191616D01*
X1047309Y191715D01*
X1047304Y191719D01*
X1047301Y191725D01*
X1047210Y191800D01*
X1047122Y191875D01*
X1047116Y191878D01*
X1047111Y191882D01*
X1047003Y191923D01*
X1046894Y191967D01*
X1046886Y191968D01*
X1046882Y191970D01*
X1046863Y191971D01*
X1046727Y191986D01*
X992049Y191986D01*
X991959Y191971D01*
X991868Y191964D01*
X991839Y191951D01*
X991807Y191946D01*
X991726Y191903D01*
X991642Y191868D01*
X991610Y191842D01*
X991589Y191831D01*
X991567Y191808D01*
X991511Y191763D01*
X964288Y164539D01*
X964235Y164465D01*
X964175Y164396D01*
X964163Y164366D01*
X964144Y164340D01*
X964117Y164253D01*
X964083Y164168D01*
X964079Y164127D01*
X964072Y164104D01*
X964073Y164072D01*
X964065Y164001D01*
X964065Y137816D01*
X961461Y135212D01*
X941814Y115565D01*
X941761Y115491D01*
X941701Y115422D01*
X941689Y115392D01*
X941670Y115366D01*
X941643Y115279D01*
X941609Y115194D01*
X941605Y115153D01*
X941598Y115131D01*
X941599Y115098D01*
X941591Y115027D01*
X941591Y100998D01*
X940102Y99509D01*
X921498Y99509D01*
G37*
%LPD*%
%LPC*%
G36*
X736300Y20579D02*
X736300Y20579D01*
X727986Y24023D01*
X721623Y30386D01*
X718179Y38700D01*
X718179Y38965D01*
X718164Y39061D01*
X718154Y39158D01*
X718144Y39182D01*
X718140Y39207D01*
X718094Y39293D01*
X718054Y39382D01*
X718037Y39402D01*
X718024Y39425D01*
X717954Y39492D01*
X717888Y39563D01*
X717865Y39576D01*
X717846Y39594D01*
X717758Y39635D01*
X717672Y39682D01*
X717647Y39687D01*
X717623Y39698D01*
X717526Y39708D01*
X717430Y39726D01*
X717404Y39722D01*
X717379Y39725D01*
X717283Y39704D01*
X717187Y39690D01*
X717164Y39678D01*
X717138Y39673D01*
X717055Y39623D01*
X716968Y39578D01*
X716949Y39560D01*
X716927Y39546D01*
X716864Y39472D01*
X716796Y39403D01*
X716780Y39374D01*
X716767Y39359D01*
X716755Y39329D01*
X716715Y39256D01*
X716148Y37888D01*
X713112Y34852D01*
X709146Y33209D01*
X704854Y33209D01*
X700888Y34852D01*
X697852Y37888D01*
X696209Y41854D01*
X696209Y46146D01*
X697852Y50112D01*
X700888Y53148D01*
X704854Y54791D01*
X709146Y54791D01*
X713112Y53148D01*
X716148Y50112D01*
X716960Y48152D01*
X716998Y48091D01*
X717027Y48025D01*
X717062Y47987D01*
X717090Y47943D01*
X717145Y47897D01*
X717193Y47844D01*
X717239Y47819D01*
X717279Y47786D01*
X717346Y47760D01*
X717409Y47726D01*
X717460Y47716D01*
X717509Y47698D01*
X717580Y47695D01*
X717651Y47682D01*
X717702Y47690D01*
X717754Y47687D01*
X717823Y47707D01*
X717894Y47718D01*
X717941Y47741D01*
X717991Y47756D01*
X718050Y47797D01*
X718114Y47829D01*
X718150Y47867D01*
X718193Y47896D01*
X718236Y47954D01*
X718286Y48005D01*
X718320Y48068D01*
X718340Y48094D01*
X718347Y48116D01*
X718367Y48152D01*
X721623Y56014D01*
X727986Y62377D01*
X736300Y65821D01*
X745300Y65821D01*
X753614Y62377D01*
X759977Y56014D01*
X763421Y47700D01*
X763421Y38700D01*
X759977Y30386D01*
X753614Y24023D01*
X745300Y20579D01*
X736300Y20579D01*
G37*
%LPD*%
%LPC*%
G36*
X300079Y94219D02*
X300079Y94219D01*
X296344Y95766D01*
X293486Y98624D01*
X291939Y102359D01*
X291939Y121641D01*
X293486Y125376D01*
X296344Y128234D01*
X297565Y128740D01*
X297665Y128801D01*
X297765Y128861D01*
X297769Y128866D01*
X297774Y128869D01*
X297849Y128959D01*
X297925Y129048D01*
X297927Y129054D01*
X297931Y129059D01*
X297973Y129167D01*
X298017Y129276D01*
X298018Y129284D01*
X298019Y129288D01*
X298020Y129307D01*
X298035Y129443D01*
X298035Y132784D01*
X312316Y147065D01*
X360001Y147065D01*
X360091Y147079D01*
X360182Y147087D01*
X360212Y147099D01*
X360244Y147104D01*
X360324Y147147D01*
X360408Y147183D01*
X360440Y147209D01*
X360461Y147220D01*
X360483Y147243D01*
X360539Y147288D01*
X374712Y161461D01*
X374765Y161535D01*
X374825Y161604D01*
X374837Y161634D01*
X374856Y161660D01*
X374883Y161747D01*
X374917Y161832D01*
X374921Y161873D01*
X374928Y161896D01*
X374927Y161928D01*
X374935Y161999D01*
X374935Y165034D01*
X374921Y165124D01*
X374913Y165215D01*
X374901Y165245D01*
X374896Y165277D01*
X374853Y165357D01*
X374817Y165441D01*
X374791Y165473D01*
X374780Y165494D01*
X374757Y165516D01*
X374712Y165572D01*
X368019Y172265D01*
X368019Y181735D01*
X374715Y188431D01*
X384185Y188431D01*
X390881Y181735D01*
X390881Y172265D01*
X384185Y165569D01*
X383826Y165569D01*
X383806Y165566D01*
X383787Y165568D01*
X383685Y165546D01*
X383583Y165530D01*
X383566Y165520D01*
X383546Y165516D01*
X383457Y165463D01*
X383366Y165414D01*
X383352Y165400D01*
X383335Y165390D01*
X383268Y165311D01*
X383196Y165236D01*
X383188Y165218D01*
X383175Y165203D01*
X383136Y165107D01*
X383093Y165013D01*
X383091Y164993D01*
X383083Y164975D01*
X383065Y164808D01*
X383065Y158316D01*
X380461Y155712D01*
X366288Y141539D01*
X363684Y138935D01*
X315999Y138935D01*
X315909Y138921D01*
X315818Y138913D01*
X315788Y138901D01*
X315756Y138896D01*
X315676Y138853D01*
X315592Y138817D01*
X315560Y138791D01*
X315539Y138780D01*
X315517Y138757D01*
X315461Y138712D01*
X306629Y129881D01*
X306603Y129844D01*
X306569Y129813D01*
X306531Y129744D01*
X306486Y129681D01*
X306472Y129638D01*
X306450Y129597D01*
X306436Y129521D01*
X306414Y129446D01*
X306415Y129400D01*
X306407Y129355D01*
X306418Y129278D01*
X306420Y129200D01*
X306436Y129157D01*
X306442Y129112D01*
X306478Y129042D01*
X306504Y128969D01*
X306533Y128933D01*
X306554Y128893D01*
X306609Y128838D01*
X306658Y128777D01*
X306697Y128752D01*
X306729Y128720D01*
X306849Y128654D01*
X306865Y128644D01*
X306870Y128643D01*
X306876Y128639D01*
X307856Y128234D01*
X310714Y125376D01*
X312261Y121641D01*
X312261Y102359D01*
X310714Y98624D01*
X307856Y95766D01*
X304121Y94219D01*
X300079Y94219D01*
G37*
%LPD*%
%LPC*%
G36*
X1359879Y96219D02*
X1359879Y96219D01*
X1356144Y97766D01*
X1353286Y100624D01*
X1351739Y104359D01*
X1351739Y109174D01*
X1351736Y109194D01*
X1351738Y109213D01*
X1351716Y109315D01*
X1351700Y109417D01*
X1351690Y109434D01*
X1351686Y109454D01*
X1351633Y109543D01*
X1351584Y109634D01*
X1351570Y109648D01*
X1351560Y109665D01*
X1351481Y109732D01*
X1351406Y109804D01*
X1351388Y109812D01*
X1351373Y109825D01*
X1351277Y109864D01*
X1351183Y109907D01*
X1351163Y109909D01*
X1351145Y109917D01*
X1350978Y109935D01*
X1326316Y109935D01*
X1296485Y139766D01*
X1296485Y164808D01*
X1296482Y164828D01*
X1296484Y164847D01*
X1296462Y164949D01*
X1296446Y165051D01*
X1296436Y165068D01*
X1296432Y165088D01*
X1296379Y165177D01*
X1296330Y165268D01*
X1296316Y165282D01*
X1296306Y165299D01*
X1296227Y165366D01*
X1296152Y165438D01*
X1296134Y165446D01*
X1296119Y165459D01*
X1296023Y165498D01*
X1295929Y165541D01*
X1295909Y165543D01*
X1295891Y165551D01*
X1295827Y165558D01*
X1289119Y172265D01*
X1289119Y181735D01*
X1295815Y188431D01*
X1305285Y188431D01*
X1311981Y181735D01*
X1311981Y172265D01*
X1305269Y165554D01*
X1305235Y165546D01*
X1305133Y165530D01*
X1305116Y165520D01*
X1305096Y165516D01*
X1305007Y165463D01*
X1304916Y165414D01*
X1304902Y165400D01*
X1304885Y165390D01*
X1304818Y165311D01*
X1304746Y165236D01*
X1304738Y165218D01*
X1304725Y165203D01*
X1304686Y165107D01*
X1304643Y165013D01*
X1304641Y164993D01*
X1304633Y164975D01*
X1304615Y164808D01*
X1304615Y143449D01*
X1304629Y143359D01*
X1304637Y143268D01*
X1304649Y143238D01*
X1304654Y143206D01*
X1304697Y143126D01*
X1304733Y143042D01*
X1304759Y143010D01*
X1304770Y142989D01*
X1304793Y142967D01*
X1304838Y142911D01*
X1329461Y118288D01*
X1329535Y118235D01*
X1329604Y118175D01*
X1329634Y118163D01*
X1329660Y118144D01*
X1329747Y118117D01*
X1329832Y118083D01*
X1329873Y118079D01*
X1329896Y118072D01*
X1329928Y118073D01*
X1329999Y118065D01*
X1350978Y118065D01*
X1350998Y118068D01*
X1351017Y118066D01*
X1351119Y118088D01*
X1351221Y118104D01*
X1351238Y118114D01*
X1351258Y118118D01*
X1351347Y118171D01*
X1351438Y118220D01*
X1351452Y118234D01*
X1351469Y118244D01*
X1351536Y118323D01*
X1351608Y118398D01*
X1351616Y118416D01*
X1351629Y118431D01*
X1351668Y118527D01*
X1351711Y118621D01*
X1351713Y118641D01*
X1351721Y118659D01*
X1351739Y118826D01*
X1351739Y123641D01*
X1353286Y127376D01*
X1356144Y130234D01*
X1359879Y131781D01*
X1363921Y131781D01*
X1367656Y130234D01*
X1370514Y127376D01*
X1372061Y123641D01*
X1372061Y104359D01*
X1370514Y100624D01*
X1367656Y97766D01*
X1363921Y96219D01*
X1359879Y96219D01*
G37*
%LPD*%
%LPC*%
G36*
X1222854Y83209D02*
X1222854Y83209D01*
X1218888Y84852D01*
X1215852Y87888D01*
X1214209Y91854D01*
X1214209Y96146D01*
X1215852Y100112D01*
X1218888Y103148D01*
X1220719Y103907D01*
X1220819Y103968D01*
X1220919Y104028D01*
X1220923Y104033D01*
X1220928Y104036D01*
X1221003Y104126D01*
X1221079Y104215D01*
X1221081Y104221D01*
X1221085Y104226D01*
X1221127Y104334D01*
X1221171Y104443D01*
X1221172Y104451D01*
X1221173Y104455D01*
X1221174Y104474D01*
X1221189Y104610D01*
X1221189Y170578D01*
X1238122Y187511D01*
X1242452Y187511D01*
X1242567Y187530D01*
X1242683Y187547D01*
X1242688Y187549D01*
X1242695Y187550D01*
X1242797Y187605D01*
X1242902Y187658D01*
X1242907Y187663D01*
X1242912Y187666D01*
X1242992Y187750D01*
X1243074Y187834D01*
X1243078Y187840D01*
X1243081Y187844D01*
X1243089Y187861D01*
X1243155Y187981D01*
X1243766Y189456D01*
X1246624Y192314D01*
X1250359Y193861D01*
X1269641Y193861D01*
X1273376Y192314D01*
X1276234Y189456D01*
X1277781Y185721D01*
X1277781Y181679D01*
X1276234Y177944D01*
X1273376Y175086D01*
X1269641Y173539D01*
X1250359Y173539D01*
X1246624Y175086D01*
X1243766Y177944D01*
X1243155Y179419D01*
X1243093Y179519D01*
X1243034Y179619D01*
X1243029Y179623D01*
X1243026Y179628D01*
X1242935Y179703D01*
X1242847Y179779D01*
X1242841Y179781D01*
X1242836Y179785D01*
X1242728Y179827D01*
X1242619Y179871D01*
X1242611Y179872D01*
X1242607Y179873D01*
X1242588Y179874D01*
X1242452Y179889D01*
X1241594Y179889D01*
X1241504Y179875D01*
X1241413Y179867D01*
X1241383Y179855D01*
X1241351Y179850D01*
X1241270Y179807D01*
X1241186Y179771D01*
X1241154Y179745D01*
X1241134Y179734D01*
X1241111Y179711D01*
X1241056Y179666D01*
X1229034Y167644D01*
X1228981Y167571D01*
X1228921Y167501D01*
X1228909Y167471D01*
X1228890Y167445D01*
X1228863Y167358D01*
X1228829Y167273D01*
X1228825Y167232D01*
X1228818Y167210D01*
X1228819Y167177D01*
X1228811Y167106D01*
X1228811Y104610D01*
X1228830Y104495D01*
X1228847Y104379D01*
X1228849Y104373D01*
X1228850Y104367D01*
X1228905Y104265D01*
X1228958Y104160D01*
X1228963Y104155D01*
X1228966Y104150D01*
X1229050Y104070D01*
X1229134Y103988D01*
X1229140Y103984D01*
X1229144Y103980D01*
X1229161Y103973D01*
X1229281Y103907D01*
X1231112Y103148D01*
X1234148Y100112D01*
X1235791Y96146D01*
X1235791Y91854D01*
X1234148Y87888D01*
X1231112Y84852D01*
X1227146Y83209D01*
X1222854Y83209D01*
G37*
%LPD*%
%LPC*%
G36*
X735300Y168579D02*
X735300Y168579D01*
X726986Y172023D01*
X720623Y178386D01*
X717179Y186700D01*
X717179Y195700D01*
X720623Y204014D01*
X726986Y210377D01*
X735300Y213821D01*
X744300Y213821D01*
X752614Y210377D01*
X758977Y204014D01*
X762421Y195700D01*
X762421Y186700D01*
X758977Y178386D01*
X752614Y172023D01*
X744300Y168579D01*
X735300Y168579D01*
G37*
%LPD*%
%LPC*%
G36*
X245715Y36569D02*
X245715Y36569D01*
X239019Y43265D01*
X239019Y52735D01*
X244730Y58445D01*
X244741Y58461D01*
X244757Y58474D01*
X244813Y58561D01*
X244873Y58645D01*
X244879Y58664D01*
X244890Y58681D01*
X244915Y58781D01*
X244946Y58880D01*
X244945Y58900D01*
X244950Y58919D01*
X244942Y59022D01*
X244939Y59126D01*
X244932Y59145D01*
X244931Y59165D01*
X244891Y59259D01*
X244855Y59357D01*
X244842Y59373D01*
X244835Y59391D01*
X244730Y59522D01*
X221835Y82416D01*
X221835Y94557D01*
X221817Y94671D01*
X221799Y94788D01*
X221797Y94794D01*
X221796Y94800D01*
X221741Y94902D01*
X221688Y95007D01*
X221683Y95012D01*
X221680Y95017D01*
X221596Y95097D01*
X221512Y95180D01*
X221506Y95183D01*
X221502Y95187D01*
X221485Y95194D01*
X221365Y95260D01*
X220144Y95766D01*
X217286Y98624D01*
X215739Y102359D01*
X215739Y121641D01*
X217286Y125376D01*
X220144Y128234D01*
X223879Y129781D01*
X227921Y129781D01*
X231656Y128234D01*
X234514Y125376D01*
X236061Y121641D01*
X236061Y102359D01*
X234514Y98624D01*
X231656Y95766D01*
X230435Y95260D01*
X230335Y95199D01*
X230235Y95139D01*
X230231Y95134D01*
X230226Y95131D01*
X230151Y95040D01*
X230075Y94952D01*
X230073Y94946D01*
X230069Y94941D01*
X230027Y94833D01*
X229983Y94724D01*
X229982Y94716D01*
X229981Y94712D01*
X229980Y94693D01*
X229965Y94557D01*
X229965Y86099D01*
X229979Y86009D01*
X229987Y85918D01*
X229999Y85888D01*
X230004Y85856D01*
X230047Y85776D01*
X230083Y85692D01*
X230109Y85660D01*
X230120Y85639D01*
X230143Y85617D01*
X230188Y85561D01*
X254515Y61234D01*
X254515Y60192D01*
X254518Y60172D01*
X254516Y60153D01*
X254538Y60051D01*
X254554Y59949D01*
X254564Y59932D01*
X254568Y59912D01*
X254621Y59823D01*
X254670Y59732D01*
X254684Y59718D01*
X254694Y59701D01*
X254773Y59634D01*
X254848Y59562D01*
X254866Y59554D01*
X254881Y59541D01*
X254977Y59502D01*
X255071Y59459D01*
X255091Y59457D01*
X255109Y59449D01*
X255173Y59442D01*
X261881Y52735D01*
X261881Y43265D01*
X255185Y36569D01*
X245715Y36569D01*
G37*
%LPD*%
%LPC*%
G36*
X249279Y94219D02*
X249279Y94219D01*
X245544Y95766D01*
X242686Y98624D01*
X241139Y102359D01*
X241139Y121641D01*
X242686Y125376D01*
X245544Y128234D01*
X245915Y128387D01*
X246015Y128449D01*
X246115Y128509D01*
X246119Y128514D01*
X246124Y128517D01*
X246199Y128608D01*
X246275Y128696D01*
X246277Y128702D01*
X246281Y128707D01*
X246323Y128815D01*
X246367Y128924D01*
X246368Y128932D01*
X246369Y128936D01*
X246370Y128954D01*
X246385Y129091D01*
X246385Y164808D01*
X246382Y164828D01*
X246384Y164847D01*
X246362Y164949D01*
X246346Y165051D01*
X246336Y165068D01*
X246332Y165088D01*
X246279Y165177D01*
X246230Y165268D01*
X246216Y165282D01*
X246206Y165299D01*
X246127Y165366D01*
X246052Y165438D01*
X246034Y165446D01*
X246019Y165459D01*
X245923Y165498D01*
X245829Y165541D01*
X245809Y165543D01*
X245791Y165551D01*
X245727Y165558D01*
X239019Y172265D01*
X239019Y181735D01*
X245715Y188431D01*
X255185Y188431D01*
X261881Y181735D01*
X261881Y172265D01*
X255169Y165554D01*
X255135Y165546D01*
X255033Y165530D01*
X255016Y165520D01*
X254996Y165516D01*
X254907Y165463D01*
X254816Y165414D01*
X254802Y165400D01*
X254785Y165390D01*
X254718Y165311D01*
X254646Y165236D01*
X254638Y165218D01*
X254625Y165203D01*
X254586Y165107D01*
X254543Y165013D01*
X254541Y164993D01*
X254533Y164975D01*
X254515Y164808D01*
X254515Y129795D01*
X254534Y129680D01*
X254551Y129564D01*
X254553Y129558D01*
X254554Y129552D01*
X254609Y129450D01*
X254662Y129345D01*
X254667Y129340D01*
X254670Y129335D01*
X254754Y129255D01*
X254838Y129173D01*
X254844Y129169D01*
X254848Y129165D01*
X254865Y129158D01*
X254985Y129092D01*
X257056Y128234D01*
X259914Y125376D01*
X261461Y121641D01*
X261461Y102359D01*
X259914Y98624D01*
X257056Y95766D01*
X253321Y94219D01*
X249279Y94219D01*
G37*
%LPD*%
%LPC*%
G36*
X1136007Y112209D02*
X1136007Y112209D01*
X1130938Y114309D01*
X1127059Y118188D01*
X1124959Y123257D01*
X1124959Y128743D01*
X1127059Y133812D01*
X1130938Y137691D01*
X1136007Y139791D01*
X1163993Y139791D01*
X1169062Y137691D01*
X1172941Y133812D01*
X1175041Y128743D01*
X1175041Y123257D01*
X1172941Y118188D01*
X1169062Y114309D01*
X1163993Y112209D01*
X1136007Y112209D01*
G37*
%LPD*%
%LPC*%
G36*
X623007Y112209D02*
X623007Y112209D01*
X617938Y114309D01*
X614059Y118188D01*
X611959Y123257D01*
X611959Y128743D01*
X614059Y133812D01*
X617938Y137691D01*
X623007Y139791D01*
X650993Y139791D01*
X656062Y137691D01*
X659941Y133812D01*
X662041Y128743D01*
X662041Y123257D01*
X659941Y118188D01*
X656062Y114309D01*
X650993Y112209D01*
X623007Y112209D01*
G37*
%LPD*%
%LPC*%
G36*
X202602Y159919D02*
X202602Y159919D01*
X196325Y162520D01*
X191520Y167325D01*
X188919Y173602D01*
X188919Y180398D01*
X191520Y186675D01*
X196325Y191480D01*
X202602Y194081D01*
X209398Y194081D01*
X215675Y191480D01*
X220480Y186675D01*
X223081Y180398D01*
X223081Y173602D01*
X220480Y167325D01*
X215675Y162520D01*
X209398Y159919D01*
X202602Y159919D01*
G37*
%LPD*%
%LPC*%
G36*
X331602Y159919D02*
X331602Y159919D01*
X325325Y162520D01*
X320520Y167325D01*
X317919Y173602D01*
X317919Y180398D01*
X320520Y186675D01*
X325325Y191480D01*
X331602Y194081D01*
X338398Y194081D01*
X344675Y191480D01*
X349480Y186675D01*
X352081Y180398D01*
X352081Y173602D01*
X349480Y167325D01*
X344675Y162520D01*
X338398Y159919D01*
X331602Y159919D01*
G37*
%LPD*%
%LPC*%
G36*
X461602Y159919D02*
X461602Y159919D01*
X455325Y162520D01*
X450520Y167325D01*
X447919Y173602D01*
X447919Y180398D01*
X450520Y186675D01*
X455325Y191480D01*
X461602Y194081D01*
X468398Y194081D01*
X474675Y191480D01*
X479480Y186675D01*
X482081Y180398D01*
X482081Y173602D01*
X479480Y167325D01*
X474675Y162520D01*
X468398Y159919D01*
X461602Y159919D01*
G37*
%LPD*%
%LPC*%
G36*
X461602Y30919D02*
X461602Y30919D01*
X455325Y33520D01*
X450520Y38325D01*
X447919Y44602D01*
X447919Y51398D01*
X450520Y57675D01*
X455325Y62480D01*
X461602Y65081D01*
X468398Y65081D01*
X474675Y62480D01*
X479480Y57675D01*
X482081Y51398D01*
X482081Y44602D01*
X479480Y38325D01*
X474675Y33520D01*
X468398Y30919D01*
X461602Y30919D01*
G37*
%LPD*%
%LPC*%
G36*
X1341602Y30919D02*
X1341602Y30919D01*
X1335325Y33520D01*
X1330520Y38325D01*
X1327919Y44602D01*
X1327919Y51398D01*
X1330520Y57675D01*
X1335325Y62480D01*
X1341602Y65081D01*
X1348398Y65081D01*
X1354675Y62480D01*
X1359480Y57675D01*
X1362081Y51398D01*
X1362081Y44602D01*
X1359480Y38325D01*
X1354675Y33520D01*
X1348398Y30919D01*
X1341602Y30919D01*
G37*
%LPD*%
%LPC*%
G36*
X331602Y30919D02*
X331602Y30919D01*
X325325Y33520D01*
X320520Y38325D01*
X317919Y44602D01*
X317919Y51398D01*
X320520Y57675D01*
X325325Y62480D01*
X331602Y65081D01*
X338398Y65081D01*
X344675Y62480D01*
X349480Y57675D01*
X352081Y51398D01*
X352081Y44602D01*
X349480Y38325D01*
X344675Y33520D01*
X338398Y30919D01*
X331602Y30919D01*
G37*
%LPD*%
%LPC*%
G36*
X88602Y159919D02*
X88602Y159919D01*
X82325Y162520D01*
X77520Y167325D01*
X74919Y173602D01*
X74919Y180398D01*
X77520Y186675D01*
X82325Y191480D01*
X88602Y194081D01*
X95398Y194081D01*
X101675Y191480D01*
X106480Y186675D01*
X109081Y180398D01*
X109081Y173602D01*
X106480Y167325D01*
X101675Y162520D01*
X95398Y159919D01*
X88602Y159919D01*
G37*
%LPD*%
%LPC*%
G36*
X1455602Y30919D02*
X1455602Y30919D01*
X1449325Y33520D01*
X1444520Y38325D01*
X1441919Y44602D01*
X1441919Y51398D01*
X1444520Y57675D01*
X1449325Y62480D01*
X1455602Y65081D01*
X1462398Y65081D01*
X1468675Y62480D01*
X1473480Y57675D01*
X1476081Y51398D01*
X1476081Y44602D01*
X1473480Y38325D01*
X1468675Y33520D01*
X1462398Y30919D01*
X1455602Y30919D01*
G37*
%LPD*%
%LPC*%
G36*
X1455602Y159919D02*
X1455602Y159919D01*
X1449325Y162520D01*
X1444520Y167325D01*
X1441919Y173602D01*
X1441919Y180398D01*
X1444520Y186675D01*
X1449325Y191480D01*
X1455602Y194081D01*
X1462398Y194081D01*
X1468675Y191480D01*
X1473480Y186675D01*
X1476081Y180398D01*
X1476081Y173602D01*
X1473480Y167325D01*
X1468675Y162520D01*
X1462398Y159919D01*
X1455602Y159919D01*
G37*
%LPD*%
%LPC*%
G36*
X202602Y30919D02*
X202602Y30919D01*
X196325Y33520D01*
X191520Y38325D01*
X188919Y44602D01*
X188919Y51398D01*
X191520Y57675D01*
X196325Y62480D01*
X202602Y65081D01*
X209398Y65081D01*
X215675Y62480D01*
X220480Y57675D01*
X223081Y51398D01*
X223081Y44602D01*
X220480Y38325D01*
X215675Y33520D01*
X209398Y30919D01*
X202602Y30919D01*
G37*
%LPD*%
%LPC*%
G36*
X1341602Y159919D02*
X1341602Y159919D01*
X1335325Y162520D01*
X1330520Y167325D01*
X1327919Y173602D01*
X1327919Y180398D01*
X1330520Y186675D01*
X1335325Y191480D01*
X1341602Y194081D01*
X1348398Y194081D01*
X1354675Y191480D01*
X1359480Y186675D01*
X1362081Y180398D01*
X1362081Y173602D01*
X1359480Y167325D01*
X1354675Y162520D01*
X1348398Y159919D01*
X1341602Y159919D01*
G37*
%LPD*%
%LPC*%
G36*
X88602Y30919D02*
X88602Y30919D01*
X82325Y33520D01*
X77520Y38325D01*
X74919Y44602D01*
X74919Y51398D01*
X77520Y57675D01*
X82325Y62480D01*
X88602Y65081D01*
X95398Y65081D01*
X101675Y62480D01*
X106480Y57675D01*
X109081Y51398D01*
X109081Y44602D01*
X106480Y38325D01*
X101675Y33520D01*
X95398Y30919D01*
X88602Y30919D01*
G37*
%LPD*%
%LPC*%
G36*
X536359Y119739D02*
X536359Y119739D01*
X532624Y121286D01*
X529766Y124144D01*
X528219Y127879D01*
X528219Y131921D01*
X529766Y135656D01*
X532624Y138514D01*
X536359Y140061D01*
X555641Y140061D01*
X559376Y138514D01*
X562234Y135656D01*
X563781Y131921D01*
X563781Y127879D01*
X562234Y124144D01*
X559376Y121286D01*
X555641Y119739D01*
X536359Y119739D01*
G37*
%LPD*%
%LPC*%
G36*
X536359Y195939D02*
X536359Y195939D01*
X532624Y197486D01*
X529766Y200344D01*
X528219Y204079D01*
X528219Y208121D01*
X529766Y211856D01*
X532624Y214714D01*
X536359Y216261D01*
X555641Y216261D01*
X559376Y214714D01*
X562234Y211856D01*
X563781Y208121D01*
X563781Y204079D01*
X562234Y200344D01*
X559376Y197486D01*
X555641Y195939D01*
X536359Y195939D01*
G37*
%LPD*%
%LPC*%
G36*
X1250359Y122739D02*
X1250359Y122739D01*
X1246624Y124286D01*
X1243766Y127144D01*
X1242219Y130879D01*
X1242219Y134921D01*
X1243766Y138656D01*
X1246624Y141514D01*
X1250359Y143061D01*
X1269641Y143061D01*
X1273376Y141514D01*
X1276234Y138656D01*
X1277781Y134921D01*
X1277781Y130879D01*
X1276234Y127144D01*
X1273376Y124286D01*
X1269641Y122739D01*
X1250359Y122739D01*
G37*
%LPD*%
%LPC*%
G36*
X1115113Y157455D02*
X1115113Y157455D01*
X1110725Y159273D01*
X1107367Y162631D01*
X1105549Y167019D01*
X1105549Y171769D01*
X1107367Y176157D01*
X1110725Y179515D01*
X1115113Y181333D01*
X1119863Y181333D01*
X1124251Y179515D01*
X1127609Y176157D01*
X1129427Y171769D01*
X1129427Y167019D01*
X1127609Y162631D01*
X1124251Y159273D01*
X1119863Y157455D01*
X1115113Y157455D01*
G37*
%LPD*%
%LPC*%
G36*
X1180137Y157455D02*
X1180137Y157455D01*
X1175749Y159273D01*
X1172391Y162631D01*
X1170573Y167019D01*
X1170573Y171769D01*
X1172391Y176157D01*
X1175749Y179515D01*
X1180137Y181333D01*
X1184887Y181333D01*
X1189275Y179515D01*
X1192633Y176157D01*
X1194451Y171769D01*
X1194451Y167019D01*
X1192633Y162631D01*
X1189275Y159273D01*
X1184887Y157455D01*
X1180137Y157455D01*
G37*
%LPD*%
%LPC*%
G36*
X667137Y157455D02*
X667137Y157455D01*
X662749Y159273D01*
X659391Y162631D01*
X657573Y167019D01*
X657573Y171769D01*
X659391Y176157D01*
X662749Y179515D01*
X667137Y181333D01*
X671887Y181333D01*
X676275Y179515D01*
X679633Y176157D01*
X681451Y171769D01*
X681451Y167019D01*
X679633Y162631D01*
X676275Y159273D01*
X671887Y157455D01*
X667137Y157455D01*
G37*
%LPD*%
%LPC*%
G36*
X602113Y157455D02*
X602113Y157455D01*
X597725Y159273D01*
X594367Y162631D01*
X592549Y167019D01*
X592549Y171769D01*
X594367Y176157D01*
X597725Y179515D01*
X602113Y181333D01*
X606863Y181333D01*
X611251Y179515D01*
X614609Y176157D01*
X616427Y171769D01*
X616427Y167019D01*
X614609Y162631D01*
X611251Y159273D01*
X606863Y157455D01*
X602113Y157455D01*
G37*
%LPD*%
%LPC*%
G36*
X1372015Y36569D02*
X1372015Y36569D01*
X1365319Y43265D01*
X1365319Y52735D01*
X1372015Y59431D01*
X1381485Y59431D01*
X1388181Y52735D01*
X1388181Y43265D01*
X1381485Y36569D01*
X1372015Y36569D01*
G37*
%LPD*%
%LPC*%
G36*
X1422515Y36569D02*
X1422515Y36569D01*
X1415819Y43265D01*
X1415819Y52735D01*
X1422515Y59431D01*
X1431985Y59431D01*
X1438681Y52735D01*
X1438681Y43265D01*
X1431985Y36569D01*
X1422515Y36569D01*
G37*
%LPD*%
%LPC*%
G36*
X1372015Y165569D02*
X1372015Y165569D01*
X1365319Y172265D01*
X1365319Y181735D01*
X1372015Y188431D01*
X1381485Y188431D01*
X1388181Y181735D01*
X1388181Y172265D01*
X1381485Y165569D01*
X1372015Y165569D01*
G37*
%LPD*%
%LPC*%
G36*
X1422515Y165569D02*
X1422515Y165569D01*
X1415819Y172265D01*
X1415819Y181735D01*
X1422515Y188431D01*
X1431985Y188431D01*
X1438681Y181735D01*
X1438681Y172265D01*
X1431985Y165569D01*
X1422515Y165569D01*
G37*
%LPD*%
%LPC*%
G36*
X928654Y124909D02*
X928654Y124909D01*
X924688Y126552D01*
X921652Y129588D01*
X920009Y133554D01*
X920009Y137846D01*
X921652Y141812D01*
X924688Y144848D01*
X928654Y146491D01*
X932946Y146491D01*
X936912Y144848D01*
X939948Y141812D01*
X941591Y137846D01*
X941591Y133554D01*
X939948Y129588D01*
X936912Y126552D01*
X932946Y124909D01*
X928654Y124909D01*
G37*
%LPD*%
%LPC*%
G36*
X1077854Y83209D02*
X1077854Y83209D01*
X1073888Y84852D01*
X1070852Y87888D01*
X1069209Y91854D01*
X1069209Y96146D01*
X1070852Y100112D01*
X1073888Y103148D01*
X1077854Y104791D01*
X1082146Y104791D01*
X1086112Y103148D01*
X1089148Y100112D01*
X1090791Y96146D01*
X1090791Y91854D01*
X1089148Y87888D01*
X1086112Y84852D01*
X1082146Y83209D01*
X1077854Y83209D01*
G37*
%LPD*%
%LPC*%
G36*
X1054458Y58970D02*
X1054458Y58970D01*
X1050753Y60504D01*
X1047917Y63340D01*
X1046383Y67045D01*
X1046383Y71056D01*
X1047917Y74761D01*
X1050753Y77596D01*
X1054458Y79131D01*
X1058469Y79131D01*
X1062174Y77596D01*
X1065009Y74761D01*
X1066544Y71056D01*
X1066544Y67045D01*
X1065009Y63340D01*
X1062174Y60504D01*
X1058469Y58970D01*
X1054458Y58970D01*
G37*
%LPD*%
%LPC*%
G36*
X1403373Y49523D02*
X1403373Y49523D01*
X1403373Y59431D01*
X1406885Y59431D01*
X1413581Y52735D01*
X1413581Y49523D01*
X1403373Y49523D01*
G37*
%LPD*%
%LPC*%
G36*
X150373Y49523D02*
X150373Y49523D01*
X150373Y59431D01*
X153885Y59431D01*
X160581Y52735D01*
X160581Y49523D01*
X150373Y49523D01*
G37*
%LPD*%
%LPC*%
G36*
X1403373Y178523D02*
X1403373Y178523D01*
X1403373Y188431D01*
X1406885Y188431D01*
X1413581Y181735D01*
X1413581Y178523D01*
X1403373Y178523D01*
G37*
%LPD*%
%LPC*%
G36*
X150373Y178523D02*
X150373Y178523D01*
X150373Y188431D01*
X153885Y188431D01*
X160581Y181735D01*
X160581Y178523D01*
X150373Y178523D01*
G37*
%LPD*%
%LPC*%
G36*
X137419Y178523D02*
X137419Y178523D01*
X137419Y181735D01*
X144115Y188431D01*
X147627Y188431D01*
X147627Y178523D01*
X137419Y178523D01*
G37*
%LPD*%
%LPC*%
G36*
X137419Y49523D02*
X137419Y49523D01*
X137419Y52735D01*
X144115Y59431D01*
X147627Y59431D01*
X147627Y49523D01*
X137419Y49523D01*
G37*
%LPD*%
%LPC*%
G36*
X1390419Y178523D02*
X1390419Y178523D01*
X1390419Y181735D01*
X1397115Y188431D01*
X1400627Y188431D01*
X1400627Y178523D01*
X1390419Y178523D01*
G37*
%LPD*%
%LPC*%
G36*
X1390419Y49523D02*
X1390419Y49523D01*
X1390419Y52735D01*
X1397115Y59431D01*
X1400627Y59431D01*
X1400627Y49523D01*
X1390419Y49523D01*
G37*
%LPD*%
%LPC*%
G36*
X150373Y165569D02*
X150373Y165569D01*
X150373Y175477D01*
X160581Y175477D01*
X160581Y172265D01*
X153885Y165569D01*
X150373Y165569D01*
G37*
%LPD*%
%LPC*%
G36*
X1403373Y165569D02*
X1403373Y165569D01*
X1403373Y175477D01*
X1413581Y175477D01*
X1413581Y172265D01*
X1406885Y165569D01*
X1403373Y165569D01*
G37*
%LPD*%
%LPC*%
G36*
X150373Y36569D02*
X150373Y36569D01*
X150373Y46477D01*
X160581Y46477D01*
X160581Y43265D01*
X153885Y36569D01*
X150373Y36569D01*
G37*
%LPD*%
%LPC*%
G36*
X1403373Y36569D02*
X1403373Y36569D01*
X1403373Y46477D01*
X1413581Y46477D01*
X1413581Y43265D01*
X1406885Y36569D01*
X1403373Y36569D01*
G37*
%LPD*%
%LPC*%
G36*
X1397115Y36569D02*
X1397115Y36569D01*
X1390419Y43265D01*
X1390419Y46477D01*
X1400627Y46477D01*
X1400627Y36569D01*
X1397115Y36569D01*
G37*
%LPD*%
%LPC*%
G36*
X1397115Y165569D02*
X1397115Y165569D01*
X1390419Y172265D01*
X1390419Y175477D01*
X1400627Y175477D01*
X1400627Y165569D01*
X1397115Y165569D01*
G37*
%LPD*%
%LPC*%
G36*
X144115Y36569D02*
X144115Y36569D01*
X137419Y43265D01*
X137419Y46477D01*
X147627Y46477D01*
X147627Y36569D01*
X144115Y36569D01*
G37*
%LPD*%
%LPC*%
G36*
X144115Y165569D02*
X144115Y165569D01*
X137419Y172265D01*
X137419Y175477D01*
X147627Y175477D01*
X147627Y165569D01*
X144115Y165569D01*
G37*
%LPD*%
%LPC*%
G36*
X671035Y213083D02*
X671035Y213083D01*
X681358Y213083D01*
X681157Y211810D01*
X680576Y210023D01*
X679723Y208349D01*
X678618Y206828D01*
X677290Y205500D01*
X675769Y204395D01*
X674095Y203542D01*
X672308Y202961D01*
X671035Y202760D01*
X671035Y213083D01*
G37*
%LPD*%
%LPC*%
G36*
X1184035Y213083D02*
X1184035Y213083D01*
X1194358Y213083D01*
X1194157Y211810D01*
X1193576Y210023D01*
X1192723Y208349D01*
X1191618Y206828D01*
X1190290Y205500D01*
X1188769Y204395D01*
X1187095Y203542D01*
X1185308Y202961D01*
X1184035Y202760D01*
X1184035Y213083D01*
G37*
%LPD*%
%LPC*%
G36*
X1119011Y213083D02*
X1119011Y213083D01*
X1129334Y213083D01*
X1129133Y211810D01*
X1128552Y210023D01*
X1127699Y208349D01*
X1126594Y206828D01*
X1125266Y205500D01*
X1123745Y204395D01*
X1122071Y203542D01*
X1120284Y202961D01*
X1119011Y202760D01*
X1119011Y213083D01*
G37*
%LPD*%
%LPC*%
G36*
X606011Y213083D02*
X606011Y213083D01*
X616334Y213083D01*
X616133Y211810D01*
X615552Y210023D01*
X614699Y208349D01*
X613594Y206828D01*
X612266Y205500D01*
X610745Y204395D01*
X609071Y203542D01*
X607284Y202961D01*
X606011Y202760D01*
X606011Y213083D01*
G37*
%LPD*%
%LPC*%
G36*
X601692Y202961D02*
X601692Y202961D01*
X599905Y203542D01*
X598231Y204395D01*
X596710Y205500D01*
X595382Y206828D01*
X594277Y208349D01*
X593424Y210023D01*
X592843Y211810D01*
X592642Y213083D01*
X602965Y213083D01*
X602965Y202760D01*
X601692Y202961D01*
G37*
%LPD*%
%LPC*%
G36*
X1179716Y202961D02*
X1179716Y202961D01*
X1177929Y203542D01*
X1176255Y204395D01*
X1174734Y205500D01*
X1173406Y206828D01*
X1172301Y208349D01*
X1171448Y210023D01*
X1170867Y211810D01*
X1170666Y213083D01*
X1180989Y213083D01*
X1180989Y202760D01*
X1179716Y202961D01*
G37*
%LPD*%
%LPC*%
G36*
X666716Y202961D02*
X666716Y202961D01*
X664929Y203542D01*
X663255Y204395D01*
X661734Y205500D01*
X660406Y206828D01*
X659301Y208349D01*
X658448Y210023D01*
X657867Y211810D01*
X657666Y213083D01*
X667989Y213083D01*
X667989Y202760D01*
X666716Y202961D01*
G37*
%LPD*%
%LPC*%
G36*
X1114692Y202961D02*
X1114692Y202961D01*
X1112905Y203542D01*
X1111231Y204395D01*
X1109710Y205500D01*
X1108382Y206828D01*
X1107277Y208349D01*
X1106424Y210023D01*
X1105843Y211810D01*
X1105642Y213083D01*
X1115965Y213083D01*
X1115965Y202760D01*
X1114692Y202961D01*
G37*
%LPD*%
%LPC*%
G36*
X434773Y49523D02*
X434773Y49523D01*
X434773Y59431D01*
X437985Y59431D01*
X444681Y52735D01*
X444681Y49523D01*
X434773Y49523D01*
G37*
%LPD*%
%LPC*%
G36*
X175773Y49523D02*
X175773Y49523D01*
X175773Y59431D01*
X178985Y59431D01*
X185681Y52735D01*
X185681Y49523D01*
X175773Y49523D01*
G37*
%LPD*%
%LPC*%
G36*
X125273Y49523D02*
X125273Y49523D01*
X125273Y59431D01*
X128485Y59431D01*
X135181Y52735D01*
X135181Y49523D01*
X125273Y49523D01*
G37*
%LPD*%
%LPC*%
G36*
X304773Y49523D02*
X304773Y49523D01*
X304773Y59431D01*
X307985Y59431D01*
X314681Y52735D01*
X314681Y49523D01*
X304773Y49523D01*
G37*
%LPD*%
%LPC*%
G36*
X409373Y49523D02*
X409373Y49523D01*
X409373Y59431D01*
X412585Y59431D01*
X419281Y52735D01*
X419281Y49523D01*
X409373Y49523D01*
G37*
%LPD*%
%LPC*%
G36*
X279373Y49523D02*
X279373Y49523D01*
X279373Y59431D01*
X282585Y59431D01*
X289281Y52735D01*
X289281Y49523D01*
X279373Y49523D01*
G37*
%LPD*%
%LPC*%
G36*
X175773Y178523D02*
X175773Y178523D01*
X175773Y188431D01*
X178985Y188431D01*
X185681Y181735D01*
X185681Y178523D01*
X175773Y178523D01*
G37*
%LPD*%
%LPC*%
G36*
X125273Y178523D02*
X125273Y178523D01*
X125273Y188431D01*
X128485Y188431D01*
X135181Y181735D01*
X135181Y178523D01*
X125273Y178523D01*
G37*
%LPD*%
%LPC*%
G36*
X409373Y178523D02*
X409373Y178523D01*
X409373Y188431D01*
X412585Y188431D01*
X419281Y181735D01*
X419281Y178523D01*
X409373Y178523D01*
G37*
%LPD*%
%LPC*%
G36*
X279373Y178523D02*
X279373Y178523D01*
X279373Y188431D01*
X282585Y188431D01*
X289281Y181735D01*
X289281Y178523D01*
X279373Y178523D01*
G37*
%LPD*%
%LPC*%
G36*
X434773Y178523D02*
X434773Y178523D01*
X434773Y188431D01*
X437985Y188431D01*
X444681Y181735D01*
X444681Y178523D01*
X434773Y178523D01*
G37*
%LPD*%
%LPC*%
G36*
X304773Y178523D02*
X304773Y178523D01*
X304773Y188431D01*
X307985Y188431D01*
X314681Y181735D01*
X314681Y178523D01*
X304773Y178523D01*
G37*
%LPD*%
%LPC*%
G36*
X291819Y178523D02*
X291819Y178523D01*
X291819Y181735D01*
X298515Y188431D01*
X301727Y188431D01*
X301727Y178523D01*
X291819Y178523D01*
G37*
%LPD*%
%LPC*%
G36*
X291819Y49523D02*
X291819Y49523D01*
X291819Y52735D01*
X298515Y59431D01*
X301727Y59431D01*
X301727Y49523D01*
X291819Y49523D01*
G37*
%LPD*%
%LPC*%
G36*
X112319Y49523D02*
X112319Y49523D01*
X112319Y52735D01*
X119015Y59431D01*
X122227Y59431D01*
X122227Y49523D01*
X112319Y49523D01*
G37*
%LPD*%
%LPC*%
G36*
X396419Y49523D02*
X396419Y49523D01*
X396419Y52735D01*
X403115Y59431D01*
X406327Y59431D01*
X406327Y49523D01*
X396419Y49523D01*
G37*
%LPD*%
%LPC*%
G36*
X421819Y49523D02*
X421819Y49523D01*
X421819Y52735D01*
X428515Y59431D01*
X431727Y59431D01*
X431727Y49523D01*
X421819Y49523D01*
G37*
%LPD*%
%LPC*%
G36*
X396419Y178523D02*
X396419Y178523D01*
X396419Y181735D01*
X403115Y188431D01*
X406327Y188431D01*
X406327Y178523D01*
X396419Y178523D01*
G37*
%LPD*%
%LPC*%
G36*
X266419Y178523D02*
X266419Y178523D01*
X266419Y181735D01*
X273115Y188431D01*
X276327Y188431D01*
X276327Y178523D01*
X266419Y178523D01*
G37*
%LPD*%
%LPC*%
G36*
X162819Y178523D02*
X162819Y178523D01*
X162819Y181735D01*
X169515Y188431D01*
X172727Y188431D01*
X172727Y178523D01*
X162819Y178523D01*
G37*
%LPD*%
%LPC*%
G36*
X162819Y49523D02*
X162819Y49523D01*
X162819Y52735D01*
X169515Y59431D01*
X172727Y59431D01*
X172727Y49523D01*
X162819Y49523D01*
G37*
%LPD*%
%LPC*%
G36*
X421819Y178523D02*
X421819Y178523D01*
X421819Y181735D01*
X428515Y188431D01*
X431727Y188431D01*
X431727Y178523D01*
X421819Y178523D01*
G37*
%LPD*%
%LPC*%
G36*
X266419Y49523D02*
X266419Y49523D01*
X266419Y52735D01*
X273115Y59431D01*
X276327Y59431D01*
X276327Y49523D01*
X266419Y49523D01*
G37*
%LPD*%
%LPC*%
G36*
X112319Y178523D02*
X112319Y178523D01*
X112319Y181735D01*
X119015Y188431D01*
X122227Y188431D01*
X122227Y178523D01*
X112319Y178523D01*
G37*
%LPD*%
%LPC*%
G36*
X125273Y36569D02*
X125273Y36569D01*
X125273Y46477D01*
X135181Y46477D01*
X135181Y43265D01*
X128485Y36569D01*
X125273Y36569D01*
G37*
%LPD*%
%LPC*%
G36*
X434773Y165569D02*
X434773Y165569D01*
X434773Y175477D01*
X444681Y175477D01*
X444681Y172265D01*
X437985Y165569D01*
X434773Y165569D01*
G37*
%LPD*%
%LPC*%
G36*
X409373Y165569D02*
X409373Y165569D01*
X409373Y175477D01*
X419281Y175477D01*
X419281Y172265D01*
X412585Y165569D01*
X409373Y165569D01*
G37*
%LPD*%
%LPC*%
G36*
X304773Y165569D02*
X304773Y165569D01*
X304773Y175477D01*
X314681Y175477D01*
X314681Y172265D01*
X307985Y165569D01*
X304773Y165569D01*
G37*
%LPD*%
%LPC*%
G36*
X434773Y36569D02*
X434773Y36569D01*
X434773Y46477D01*
X444681Y46477D01*
X444681Y43265D01*
X437985Y36569D01*
X434773Y36569D01*
G37*
%LPD*%
%LPC*%
G36*
X125273Y165569D02*
X125273Y165569D01*
X125273Y175477D01*
X135181Y175477D01*
X135181Y172265D01*
X128485Y165569D01*
X125273Y165569D01*
G37*
%LPD*%
%LPC*%
G36*
X279373Y165569D02*
X279373Y165569D01*
X279373Y175477D01*
X289281Y175477D01*
X289281Y172265D01*
X282585Y165569D01*
X279373Y165569D01*
G37*
%LPD*%
%LPC*%
G36*
X175773Y165569D02*
X175773Y165569D01*
X175773Y175477D01*
X185681Y175477D01*
X185681Y172265D01*
X178985Y165569D01*
X175773Y165569D01*
G37*
%LPD*%
%LPC*%
G36*
X175773Y36569D02*
X175773Y36569D01*
X175773Y46477D01*
X185681Y46477D01*
X185681Y43265D01*
X178985Y36569D01*
X175773Y36569D01*
G37*
%LPD*%
%LPC*%
G36*
X279373Y36569D02*
X279373Y36569D01*
X279373Y46477D01*
X289281Y46477D01*
X289281Y43265D01*
X282585Y36569D01*
X279373Y36569D01*
G37*
%LPD*%
%LPC*%
G36*
X304773Y36569D02*
X304773Y36569D01*
X304773Y46477D01*
X314681Y46477D01*
X314681Y43265D01*
X307985Y36569D01*
X304773Y36569D01*
G37*
%LPD*%
%LPC*%
G36*
X409373Y36569D02*
X409373Y36569D01*
X409373Y46477D01*
X419281Y46477D01*
X419281Y43265D01*
X412585Y36569D01*
X409373Y36569D01*
G37*
%LPD*%
%LPC*%
G36*
X428515Y36569D02*
X428515Y36569D01*
X421819Y43265D01*
X421819Y46477D01*
X431727Y46477D01*
X431727Y36569D01*
X428515Y36569D01*
G37*
%LPD*%
%LPC*%
G36*
X169515Y165569D02*
X169515Y165569D01*
X162819Y172265D01*
X162819Y175477D01*
X172727Y175477D01*
X172727Y165569D01*
X169515Y165569D01*
G37*
%LPD*%
%LPC*%
G36*
X403115Y36569D02*
X403115Y36569D01*
X396419Y43265D01*
X396419Y46477D01*
X406327Y46477D01*
X406327Y36569D01*
X403115Y36569D01*
G37*
%LPD*%
%LPC*%
G36*
X273115Y165569D02*
X273115Y165569D01*
X266419Y172265D01*
X266419Y175477D01*
X276327Y175477D01*
X276327Y165569D01*
X273115Y165569D01*
G37*
%LPD*%
%LPC*%
G36*
X298515Y36569D02*
X298515Y36569D01*
X291819Y43265D01*
X291819Y46477D01*
X301727Y46477D01*
X301727Y36569D01*
X298515Y36569D01*
G37*
%LPD*%
%LPC*%
G36*
X428515Y165569D02*
X428515Y165569D01*
X421819Y172265D01*
X421819Y175477D01*
X431727Y175477D01*
X431727Y165569D01*
X428515Y165569D01*
G37*
%LPD*%
%LPC*%
G36*
X403115Y165569D02*
X403115Y165569D01*
X396419Y172265D01*
X396419Y175477D01*
X406327Y175477D01*
X406327Y165569D01*
X403115Y165569D01*
G37*
%LPD*%
%LPC*%
G36*
X119015Y165569D02*
X119015Y165569D01*
X112319Y172265D01*
X112319Y175477D01*
X122227Y175477D01*
X122227Y165569D01*
X119015Y165569D01*
G37*
%LPD*%
%LPC*%
G36*
X273115Y36569D02*
X273115Y36569D01*
X266419Y43265D01*
X266419Y46477D01*
X276327Y46477D01*
X276327Y36569D01*
X273115Y36569D01*
G37*
%LPD*%
%LPC*%
G36*
X169515Y36569D02*
X169515Y36569D01*
X162819Y43265D01*
X162819Y46477D01*
X172727Y46477D01*
X172727Y36569D01*
X169515Y36569D01*
G37*
%LPD*%
%LPC*%
G36*
X119015Y36569D02*
X119015Y36569D01*
X112319Y43265D01*
X112319Y46477D01*
X122227Y46477D01*
X122227Y36569D01*
X119015Y36569D01*
G37*
%LPD*%
%LPC*%
G36*
X298515Y165569D02*
X298515Y165569D01*
X291819Y172265D01*
X291819Y175477D01*
X301727Y175477D01*
X301727Y165569D01*
X298515Y165569D01*
G37*
%LPD*%
%LPC*%
G36*
X708523Y95523D02*
X708523Y95523D01*
X708523Y104684D01*
X709527Y104525D01*
X711142Y104000D01*
X712655Y103229D01*
X714030Y102231D01*
X715231Y101030D01*
X716229Y99655D01*
X717000Y98142D01*
X717525Y96527D01*
X717684Y95523D01*
X708523Y95523D01*
G37*
%LPD*%
%LPC*%
G36*
X563523Y70523D02*
X563523Y70523D01*
X563523Y79684D01*
X564527Y79525D01*
X566142Y79000D01*
X567655Y78229D01*
X569030Y77231D01*
X570231Y76030D01*
X571229Y74655D01*
X572000Y73142D01*
X572525Y71527D01*
X572684Y70523D01*
X563523Y70523D01*
G37*
%LPD*%
%LPC*%
G36*
X1226523Y70523D02*
X1226523Y70523D01*
X1226523Y79684D01*
X1227527Y79525D01*
X1229142Y79000D01*
X1230655Y78229D01*
X1232030Y77231D01*
X1233231Y76030D01*
X1234229Y74655D01*
X1235000Y73142D01*
X1235525Y71527D01*
X1235684Y70523D01*
X1226523Y70523D01*
G37*
%LPD*%
%LPC*%
G36*
X1081523Y45523D02*
X1081523Y45523D01*
X1081523Y54684D01*
X1082527Y54525D01*
X1084142Y54000D01*
X1085655Y53229D01*
X1087030Y52231D01*
X1088231Y51030D01*
X1089229Y49655D01*
X1090000Y48142D01*
X1090525Y46527D01*
X1090684Y45523D01*
X1081523Y45523D01*
G37*
%LPD*%
%LPC*%
G36*
X830723Y137223D02*
X830723Y137223D01*
X830723Y146384D01*
X831727Y146225D01*
X833342Y145700D01*
X834855Y144929D01*
X836230Y143931D01*
X837431Y142730D01*
X838429Y141355D01*
X839200Y139842D01*
X839725Y138227D01*
X839884Y137223D01*
X830723Y137223D01*
G37*
%LPD*%
%LPC*%
G36*
X881523Y137223D02*
X881523Y137223D01*
X881523Y146384D01*
X882527Y146225D01*
X884142Y145700D01*
X885655Y144929D01*
X887030Y143931D01*
X888231Y142730D01*
X889229Y141355D01*
X890000Y139842D01*
X890525Y138227D01*
X890684Y137223D01*
X881523Y137223D01*
G37*
%LPD*%
%LPC*%
G36*
X856123Y137223D02*
X856123Y137223D01*
X856123Y146384D01*
X857127Y146225D01*
X858742Y145700D01*
X860255Y144929D01*
X861630Y143931D01*
X862831Y142730D01*
X863829Y141355D01*
X864600Y139842D01*
X865125Y138227D01*
X865284Y137223D01*
X856123Y137223D01*
G37*
%LPD*%
%LPC*%
G36*
X906923Y137223D02*
X906923Y137223D01*
X906923Y146384D01*
X907927Y146225D01*
X909542Y145700D01*
X911055Y144929D01*
X912430Y143931D01*
X913631Y142730D01*
X914629Y141355D01*
X915400Y139842D01*
X915925Y138227D01*
X916084Y137223D01*
X906923Y137223D01*
G37*
%LPD*%
%LPC*%
G36*
X869316Y137223D02*
X869316Y137223D01*
X869475Y138227D01*
X870000Y139842D01*
X870771Y141355D01*
X871769Y142730D01*
X872970Y143931D01*
X874345Y144929D01*
X875858Y145700D01*
X877473Y146225D01*
X878477Y146384D01*
X878477Y137223D01*
X869316Y137223D01*
G37*
%LPD*%
%LPC*%
G36*
X818516Y137223D02*
X818516Y137223D01*
X818675Y138227D01*
X819200Y139842D01*
X819971Y141355D01*
X820969Y142730D01*
X822170Y143931D01*
X823545Y144929D01*
X825058Y145700D01*
X826673Y146225D01*
X827677Y146384D01*
X827677Y137223D01*
X818516Y137223D01*
G37*
%LPD*%
%LPC*%
G36*
X708523Y92477D02*
X708523Y92477D01*
X717684Y92477D01*
X717525Y91473D01*
X717000Y89858D01*
X716229Y88345D01*
X715231Y86970D01*
X714030Y85769D01*
X712655Y84771D01*
X711142Y84000D01*
X709527Y83475D01*
X708523Y83316D01*
X708523Y92477D01*
G37*
%LPD*%
%LPC*%
G36*
X1069316Y45523D02*
X1069316Y45523D01*
X1069475Y46527D01*
X1070000Y48142D01*
X1070771Y49655D01*
X1071769Y51030D01*
X1072970Y52231D01*
X1074345Y53229D01*
X1075858Y54000D01*
X1077473Y54525D01*
X1078477Y54684D01*
X1078477Y45523D01*
X1069316Y45523D01*
G37*
%LPD*%
%LPC*%
G36*
X1214316Y70523D02*
X1214316Y70523D01*
X1214475Y71527D01*
X1215000Y73142D01*
X1215771Y74655D01*
X1216769Y76030D01*
X1217970Y77231D01*
X1219345Y78229D01*
X1220858Y79000D01*
X1222473Y79525D01*
X1223477Y79684D01*
X1223477Y70523D01*
X1214316Y70523D01*
G37*
%LPD*%
%LPC*%
G36*
X830723Y134177D02*
X830723Y134177D01*
X839884Y134177D01*
X839725Y133173D01*
X839200Y131558D01*
X838429Y130045D01*
X837431Y128670D01*
X836230Y127469D01*
X834855Y126471D01*
X833342Y125700D01*
X831727Y125175D01*
X830723Y125016D01*
X830723Y134177D01*
G37*
%LPD*%
%LPC*%
G36*
X894716Y137223D02*
X894716Y137223D01*
X894875Y138227D01*
X895400Y139842D01*
X896171Y141355D01*
X897169Y142730D01*
X898370Y143931D01*
X899745Y144929D01*
X901258Y145700D01*
X902873Y146225D01*
X903877Y146384D01*
X903877Y137223D01*
X894716Y137223D01*
G37*
%LPD*%
%LPC*%
G36*
X696316Y95523D02*
X696316Y95523D01*
X696475Y96527D01*
X697000Y98142D01*
X697771Y99655D01*
X698769Y101030D01*
X699970Y102231D01*
X701345Y103229D01*
X702858Y104000D01*
X704473Y104525D01*
X705477Y104684D01*
X705477Y95523D01*
X696316Y95523D01*
G37*
%LPD*%
%LPC*%
G36*
X843916Y137223D02*
X843916Y137223D01*
X844075Y138227D01*
X844600Y139842D01*
X845371Y141355D01*
X846369Y142730D01*
X847570Y143931D01*
X848945Y144929D01*
X850458Y145700D01*
X852073Y146225D01*
X853077Y146384D01*
X853077Y137223D01*
X843916Y137223D01*
G37*
%LPD*%
%LPC*%
G36*
X1081523Y42477D02*
X1081523Y42477D01*
X1090684Y42477D01*
X1090525Y41473D01*
X1090000Y39858D01*
X1089229Y38345D01*
X1088231Y36970D01*
X1087030Y35769D01*
X1085655Y34771D01*
X1084142Y34000D01*
X1082527Y33475D01*
X1081523Y33316D01*
X1081523Y42477D01*
G37*
%LPD*%
%LPC*%
G36*
X856123Y134177D02*
X856123Y134177D01*
X865284Y134177D01*
X865125Y133173D01*
X864600Y131558D01*
X863829Y130045D01*
X862831Y128670D01*
X861630Y127469D01*
X860255Y126471D01*
X858742Y125700D01*
X857127Y125175D01*
X856123Y125016D01*
X856123Y134177D01*
G37*
%LPD*%
%LPC*%
G36*
X1226523Y67477D02*
X1226523Y67477D01*
X1235684Y67477D01*
X1235525Y66473D01*
X1235000Y64858D01*
X1234229Y63345D01*
X1233231Y61970D01*
X1232030Y60769D01*
X1230655Y59771D01*
X1229142Y59000D01*
X1227527Y58475D01*
X1226523Y58316D01*
X1226523Y67477D01*
G37*
%LPD*%
%LPC*%
G36*
X551316Y70523D02*
X551316Y70523D01*
X551475Y71527D01*
X552000Y73142D01*
X552771Y74655D01*
X553769Y76030D01*
X554970Y77231D01*
X556345Y78229D01*
X557858Y79000D01*
X559473Y79525D01*
X560477Y79684D01*
X560477Y70523D01*
X551316Y70523D01*
G37*
%LPD*%
%LPC*%
G36*
X563523Y67477D02*
X563523Y67477D01*
X572684Y67477D01*
X572525Y66473D01*
X572000Y64858D01*
X571229Y63345D01*
X570231Y61970D01*
X569030Y60769D01*
X567655Y59771D01*
X566142Y59000D01*
X564527Y58475D01*
X563523Y58316D01*
X563523Y67477D01*
G37*
%LPD*%
%LPC*%
G36*
X906923Y134177D02*
X906923Y134177D01*
X916084Y134177D01*
X915925Y133173D01*
X915400Y131558D01*
X914629Y130045D01*
X913631Y128670D01*
X912430Y127469D01*
X911055Y126471D01*
X909542Y125700D01*
X907927Y125175D01*
X906923Y125016D01*
X906923Y134177D01*
G37*
%LPD*%
%LPC*%
G36*
X881523Y134177D02*
X881523Y134177D01*
X890684Y134177D01*
X890525Y133173D01*
X890000Y131558D01*
X889229Y130045D01*
X888231Y128670D01*
X887030Y127469D01*
X885655Y126471D01*
X884142Y125700D01*
X882527Y125175D01*
X881523Y125016D01*
X881523Y134177D01*
G37*
%LPD*%
%LPC*%
G36*
X559473Y58475D02*
X559473Y58475D01*
X557858Y59000D01*
X556345Y59771D01*
X554970Y60769D01*
X553769Y61970D01*
X552771Y63345D01*
X552000Y64858D01*
X551475Y66473D01*
X551316Y67477D01*
X560477Y67477D01*
X560477Y58316D01*
X559473Y58475D01*
G37*
%LPD*%
%LPC*%
G36*
X1222473Y58475D02*
X1222473Y58475D01*
X1220858Y59000D01*
X1219345Y59771D01*
X1217970Y60769D01*
X1216769Y61970D01*
X1215771Y63345D01*
X1215000Y64858D01*
X1214475Y66473D01*
X1214316Y67477D01*
X1223477Y67477D01*
X1223477Y58316D01*
X1222473Y58475D01*
G37*
%LPD*%
%LPC*%
G36*
X826673Y125175D02*
X826673Y125175D01*
X825058Y125700D01*
X823545Y126471D01*
X822170Y127469D01*
X820969Y128670D01*
X819971Y130045D01*
X819200Y131558D01*
X818675Y133173D01*
X818516Y134177D01*
X827677Y134177D01*
X827677Y125016D01*
X826673Y125175D01*
G37*
%LPD*%
%LPC*%
G36*
X877473Y125175D02*
X877473Y125175D01*
X875858Y125700D01*
X874345Y126471D01*
X872970Y127469D01*
X871769Y128670D01*
X870771Y130045D01*
X870000Y131558D01*
X869475Y133173D01*
X869316Y134177D01*
X878477Y134177D01*
X878477Y125016D01*
X877473Y125175D01*
G37*
%LPD*%
%LPC*%
G36*
X852073Y125175D02*
X852073Y125175D01*
X850458Y125700D01*
X848945Y126471D01*
X847570Y127469D01*
X846369Y128670D01*
X845371Y130045D01*
X844600Y131558D01*
X844075Y133173D01*
X843916Y134177D01*
X853077Y134177D01*
X853077Y125016D01*
X852073Y125175D01*
G37*
%LPD*%
%LPC*%
G36*
X902873Y125175D02*
X902873Y125175D01*
X901258Y125700D01*
X899745Y126471D01*
X898370Y127469D01*
X897169Y128670D01*
X896171Y130045D01*
X895400Y131558D01*
X894875Y133173D01*
X894716Y134177D01*
X903877Y134177D01*
X903877Y125016D01*
X902873Y125175D01*
G37*
%LPD*%
%LPC*%
G36*
X704473Y83475D02*
X704473Y83475D01*
X702858Y84000D01*
X701345Y84771D01*
X699970Y85769D01*
X698769Y86970D01*
X697771Y88345D01*
X697000Y89858D01*
X696475Y91473D01*
X696316Y92477D01*
X705477Y92477D01*
X705477Y83316D01*
X704473Y83475D01*
G37*
%LPD*%
%LPC*%
G36*
X1077473Y33475D02*
X1077473Y33475D01*
X1075858Y34000D01*
X1074345Y34771D01*
X1072970Y35769D01*
X1071769Y36970D01*
X1070771Y38345D01*
X1070000Y39858D01*
X1069475Y41473D01*
X1069316Y42477D01*
X1078477Y42477D01*
X1078477Y33316D01*
X1077473Y33475D01*
G37*
%LPD*%
%LPC*%
G36*
X1057987Y45174D02*
X1057987Y45174D01*
X1057987Y53616D01*
X1058824Y53483D01*
X1060333Y52993D01*
X1061747Y52272D01*
X1063031Y51340D01*
X1064152Y50218D01*
X1065085Y48934D01*
X1065806Y47520D01*
X1066296Y46011D01*
X1066429Y45174D01*
X1057987Y45174D01*
G37*
%LPD*%
%LPC*%
G36*
X1057987Y42127D02*
X1057987Y42127D01*
X1066429Y42127D01*
X1066296Y41290D01*
X1065806Y39781D01*
X1065085Y38367D01*
X1064152Y37083D01*
X1063031Y35961D01*
X1061747Y35029D01*
X1060333Y34308D01*
X1058824Y33818D01*
X1057987Y33685D01*
X1057987Y42127D01*
G37*
%LPD*%
%LPC*%
G36*
X1046498Y45174D02*
X1046498Y45174D01*
X1046631Y46011D01*
X1047121Y47520D01*
X1047842Y48934D01*
X1048774Y50218D01*
X1049896Y51340D01*
X1051180Y52272D01*
X1052594Y52993D01*
X1054103Y53483D01*
X1054940Y53616D01*
X1054940Y45174D01*
X1046498Y45174D01*
G37*
%LPD*%
%LPC*%
G36*
X1054103Y33818D02*
X1054103Y33818D01*
X1052594Y34308D01*
X1051180Y35029D01*
X1049896Y35961D01*
X1048774Y37083D01*
X1047842Y38367D01*
X1047121Y39781D01*
X1046631Y41290D01*
X1046498Y42127D01*
X1054940Y42127D01*
X1054940Y33685D01*
X1054103Y33818D01*
G37*
%LPD*%
%LPC*%
G36*
X1401849Y176999D02*
X1401849Y176999D01*
X1401849Y177001D01*
X1402151Y177001D01*
X1402151Y176999D01*
X1401849Y176999D01*
G37*
%LPD*%
%LPC*%
G36*
X148849Y47999D02*
X148849Y47999D01*
X148849Y48001D01*
X149151Y48001D01*
X149151Y47999D01*
X148849Y47999D01*
G37*
%LPD*%
%LPC*%
G36*
X148849Y176999D02*
X148849Y176999D01*
X148849Y177001D01*
X149151Y177001D01*
X149151Y176999D01*
X148849Y176999D01*
G37*
%LPD*%
%LPC*%
G36*
X1401849Y47999D02*
X1401849Y47999D01*
X1401849Y48001D01*
X1402151Y48001D01*
X1402151Y47999D01*
X1401849Y47999D01*
G37*
%LPD*%
%LPC*%
G36*
X433249Y47999D02*
X433249Y47999D01*
X433249Y48001D01*
X433251Y48001D01*
X433251Y47999D01*
X433249Y47999D01*
G37*
%LPD*%
%LPC*%
G36*
X303249Y47999D02*
X303249Y47999D01*
X303249Y48001D01*
X303251Y48001D01*
X303251Y47999D01*
X303249Y47999D01*
G37*
%LPD*%
%LPC*%
G36*
X1224999Y68999D02*
X1224999Y68999D01*
X1224999Y69001D01*
X1225001Y69001D01*
X1225001Y68999D01*
X1224999Y68999D01*
G37*
%LPD*%
%LPC*%
G36*
X561999Y68999D02*
X561999Y68999D01*
X561999Y69001D01*
X562001Y69001D01*
X562001Y68999D01*
X561999Y68999D01*
G37*
%LPD*%
%LPC*%
G36*
X706999Y93999D02*
X706999Y93999D01*
X706999Y94001D01*
X707001Y94001D01*
X707001Y93999D01*
X706999Y93999D01*
G37*
%LPD*%
%LPC*%
G36*
X407849Y47999D02*
X407849Y47999D01*
X407849Y48001D01*
X407851Y48001D01*
X407851Y47999D01*
X407849Y47999D01*
G37*
%LPD*%
%LPC*%
G36*
X879999Y135699D02*
X879999Y135699D01*
X879999Y135701D01*
X880001Y135701D01*
X880001Y135699D01*
X879999Y135699D01*
G37*
%LPD*%
%LPC*%
G36*
X829199Y135699D02*
X829199Y135699D01*
X829199Y135701D01*
X829201Y135701D01*
X829201Y135699D01*
X829199Y135699D01*
G37*
%LPD*%
%LPC*%
G36*
X905399Y135699D02*
X905399Y135699D01*
X905399Y135701D01*
X905401Y135701D01*
X905401Y135699D01*
X905399Y135699D01*
G37*
%LPD*%
%LPC*%
G36*
X123749Y176999D02*
X123749Y176999D01*
X123749Y177001D01*
X123751Y177001D01*
X123751Y176999D01*
X123749Y176999D01*
G37*
%LPD*%
%LPC*%
G36*
X123749Y47999D02*
X123749Y47999D01*
X123749Y48001D01*
X123751Y48001D01*
X123751Y47999D01*
X123749Y47999D01*
G37*
%LPD*%
%LPC*%
G36*
X303249Y176999D02*
X303249Y176999D01*
X303249Y177001D01*
X303251Y177001D01*
X303251Y176999D01*
X303249Y176999D01*
G37*
%LPD*%
%LPC*%
G36*
X407849Y176999D02*
X407849Y176999D01*
X407849Y177001D01*
X407851Y177001D01*
X407851Y176999D01*
X407849Y176999D01*
G37*
%LPD*%
%LPC*%
G36*
X433249Y176999D02*
X433249Y176999D01*
X433249Y177001D01*
X433251Y177001D01*
X433251Y176999D01*
X433249Y176999D01*
G37*
%LPD*%
%LPC*%
G36*
X174249Y47999D02*
X174249Y47999D01*
X174249Y48001D01*
X174251Y48001D01*
X174251Y47999D01*
X174249Y47999D01*
G37*
%LPD*%
%LPC*%
G36*
X1079999Y43999D02*
X1079999Y43999D01*
X1079999Y44001D01*
X1080001Y44001D01*
X1080001Y43999D01*
X1079999Y43999D01*
G37*
%LPD*%
%LPC*%
G36*
X1056462Y43650D02*
X1056462Y43650D01*
X1056462Y43651D01*
X1056464Y43651D01*
X1056464Y43650D01*
X1056462Y43650D01*
G37*
%LPD*%
%LPC*%
G36*
X174249Y176999D02*
X174249Y176999D01*
X174249Y177001D01*
X174251Y177001D01*
X174251Y176999D01*
X174249Y176999D01*
G37*
%LPD*%
%LPC*%
G36*
X277849Y176999D02*
X277849Y176999D01*
X277849Y177001D01*
X277851Y177001D01*
X277851Y176999D01*
X277849Y176999D01*
G37*
%LPD*%
%LPC*%
G36*
X277849Y47999D02*
X277849Y47999D01*
X277849Y48001D01*
X277851Y48001D01*
X277851Y47999D01*
X277849Y47999D01*
G37*
%LPD*%
%LPC*%
G36*
X854599Y135699D02*
X854599Y135699D01*
X854599Y135701D01*
X854601Y135701D01*
X854601Y135699D01*
X854599Y135699D01*
G37*
%LPD*%
D10*
X739800Y191200D03*
X740800Y43200D03*
D11*
X1056463Y196050D03*
X1056463Y170650D03*
X1056463Y145250D03*
X1056463Y119850D03*
X1056463Y94450D03*
X1056463Y69050D03*
X1056463Y43650D03*
D10*
X997800Y151200D03*
D12*
X707000Y94000D03*
X707000Y44000D03*
X562000Y94000D03*
X562000Y44000D03*
X562000Y69000D03*
D13*
X625750Y126000D02*
X648250Y126000D01*
X648250Y12000D02*
X625750Y12000D01*
D12*
X1080000Y44000D03*
X1080000Y94000D03*
X1225000Y44000D03*
X1225000Y94000D03*
X1225000Y69000D03*
D13*
X1161250Y12000D02*
X1138750Y12000D01*
X1138750Y126000D02*
X1161250Y126000D01*
D14*
X669512Y169394D03*
X604488Y169394D03*
X669512Y214606D03*
X604488Y214606D03*
X1182512Y169394D03*
X1117488Y169394D03*
X1182512Y214606D03*
X1117488Y214606D03*
D15*
X149150Y48000D03*
X123750Y48000D03*
X47550Y48000D03*
D16*
X148850Y48000D03*
X174250Y48000D03*
X250450Y48000D03*
X277850Y48000D03*
X303250Y48000D03*
X379450Y48000D03*
X407850Y48000D03*
X433250Y48000D03*
X509450Y48000D03*
D15*
X149150Y177000D03*
X123750Y177000D03*
X47550Y177000D03*
D16*
X148850Y177000D03*
X174250Y177000D03*
X250450Y177000D03*
X277850Y177000D03*
X303250Y177000D03*
X379450Y177000D03*
X407850Y177000D03*
X433250Y177000D03*
X509450Y177000D03*
D15*
X1402150Y177000D03*
X1376750Y177000D03*
X1300550Y177000D03*
D16*
X1401850Y177000D03*
X1427250Y177000D03*
X1503450Y177000D03*
D15*
X1402150Y48000D03*
X1376750Y48000D03*
X1300550Y48000D03*
D16*
X1401850Y48000D03*
X1427250Y48000D03*
X1503450Y48000D03*
D17*
X175100Y104380D02*
X175100Y119620D01*
X200500Y119620D02*
X200500Y104380D01*
X225900Y104380D02*
X225900Y119620D01*
X251300Y119620D02*
X251300Y104380D01*
X276700Y104380D02*
X276700Y119620D01*
X302100Y119620D02*
X302100Y104380D01*
X327500Y104380D02*
X327500Y119620D01*
X352900Y119620D02*
X352900Y104380D01*
X1361900Y106380D02*
X1361900Y121620D01*
X1387300Y121620D02*
X1387300Y106380D01*
X1412700Y106380D02*
X1412700Y121620D01*
X1438100Y121620D02*
X1438100Y106380D01*
X553620Y206100D02*
X538380Y206100D01*
X538380Y180700D02*
X553620Y180700D01*
X553620Y155300D02*
X538380Y155300D01*
X538380Y129900D02*
X553620Y129900D01*
X1252380Y209100D02*
X1267620Y209100D01*
X1267620Y183700D02*
X1252380Y183700D01*
X1252380Y158300D02*
X1267620Y158300D01*
X1267620Y132900D02*
X1252380Y132900D01*
D18*
X930800Y110300D03*
D12*
X905400Y110300D03*
X880000Y110300D03*
X854600Y110300D03*
X829200Y110300D03*
X829200Y135700D03*
X854600Y135700D03*
X880000Y135700D03*
X905400Y135700D03*
X930800Y135700D03*
D10*
X407000Y113000D03*
X1255000Y27000D03*
D19*
X905400Y96600D02*
X905400Y110300D01*
X905400Y96600D02*
X929000Y73000D01*
X958813Y73000D02*
X1056463Y170650D01*
X958813Y73000D02*
X929000Y73000D01*
X978389Y67176D02*
X1056463Y145250D01*
X910824Y67176D02*
X880000Y98000D01*
X880000Y110300D01*
X910824Y67176D02*
X978389Y67176D01*
X930800Y110300D02*
X960000Y139500D01*
X960000Y166000D01*
X990050Y196050D01*
X1056463Y196050D01*
X1056463Y119850D02*
X998201Y61588D01*
X895000Y61588D01*
X854600Y101988D01*
X854600Y110300D01*
X829200Y110300D02*
X883500Y56000D01*
X1004000Y56000D01*
X1042450Y94450D01*
X1056463Y94450D01*
D20*
X1239700Y183700D02*
X1260000Y183700D01*
X1239700Y183700D02*
X1225000Y169000D01*
X1225000Y94000D01*
D19*
X1260000Y158300D02*
X1278700Y158300D01*
X1290000Y147000D01*
X1290000Y109000D02*
X1225000Y44000D01*
X1290000Y109000D02*
X1290000Y147000D01*
X546300Y155000D02*
X546000Y155300D01*
X546300Y155000D02*
X575000Y155000D01*
X583762Y146238D01*
X577000Y94000D02*
X562000Y94000D01*
X577000Y94000D02*
X583762Y100762D01*
X583762Y146238D01*
X575000Y44000D02*
X562000Y44000D01*
X575000Y44000D02*
X589350Y58350D01*
X563300Y180700D02*
X546000Y180700D01*
X563300Y180700D02*
X589350Y154650D01*
X589350Y58350D01*
X200500Y112000D02*
X170500Y142000D01*
X55000Y142000D02*
X47000Y150000D01*
X47000Y176450D01*
X47550Y177000D01*
X55000Y142000D02*
X170500Y142000D01*
X250450Y112850D02*
X251300Y112000D01*
X250450Y112850D02*
X250450Y177000D01*
X352900Y112000D02*
X388900Y148000D01*
X480450Y148000D02*
X509450Y177000D01*
X480450Y148000D02*
X388900Y148000D01*
X302100Y131100D02*
X302100Y112000D01*
X362000Y143000D02*
X379000Y160000D01*
X379000Y176550D01*
X379450Y177000D01*
X314000Y143000D02*
X302100Y131100D01*
X314000Y143000D02*
X362000Y143000D01*
X175100Y112000D02*
X140100Y77000D01*
X47550Y59000D02*
X47550Y48000D01*
X47550Y59000D02*
X65550Y77000D01*
X140100Y77000D01*
X225900Y84100D02*
X225900Y112000D01*
X250450Y59550D02*
X250450Y48000D01*
X250450Y59550D02*
X225900Y84100D01*
X356450Y71000D02*
X379450Y48000D01*
X277000Y88000D02*
X277000Y111700D01*
X276700Y112000D01*
X277000Y88000D02*
X294000Y71000D01*
X356450Y71000D01*
X327500Y94500D02*
X327500Y112000D01*
X327500Y94500D02*
X342500Y79500D01*
X477950Y79500D01*
X509450Y48000D01*
X1387300Y114000D02*
X1387300Y133300D01*
X1403000Y149000D01*
X1490000Y149000D01*
X1503450Y162450D02*
X1503450Y177000D01*
X1503450Y162450D02*
X1490000Y149000D01*
X1398000Y75000D02*
X1339000Y75000D01*
X1312000Y48000D02*
X1300550Y48000D01*
X1312000Y48000D02*
X1339000Y75000D01*
X1398000Y75000D02*
X1412700Y89700D01*
X1412700Y114000D01*
X1476450Y75000D02*
X1503450Y48000D01*
X1476450Y75000D02*
X1454000Y75000D01*
X1438100Y90900D02*
X1438100Y114000D01*
X1438100Y90900D02*
X1454000Y75000D01*
X1300550Y141450D02*
X1300550Y177000D01*
X1300550Y141450D02*
X1328000Y114000D01*
X1361900Y114000D01*
D21*
X30000Y0D02*
X1520000Y0D01*
X1520000Y225000D01*
X30000Y225000D01*
X30000Y0D01*
M02*
