G04 EAGLE Gerber RS-274X export*
G75*
%MOMM*%
%FSLAX34Y34*%
%LPD*%
%INBottom Copper*%
%IPPOS*%
%AMOC8*
5,1,8,0,0,1.08239X$1,22.5*%
G01*
%ADD10C,4.016000*%
%ADD11C,1.508000*%
%ADD12R,1.100000X1.000000*%
%ADD13R,1.000000X1.100000*%
%ADD14C,1.650000*%
%ADD15C,2.250000*%
%ADD16C,1.879600*%
%ADD17P,1.924489X8X112.500000*%
%ADD18P,1.924489X8X292.500000*%
%ADD19C,1.524000*%
%ADD20R,1.650000X1.650000*%
%ADD21C,0.304800*%
%ADD22C,0.254000*%
%ADD23C,0.254000*%

G36*
X612595Y5088D02*
X612595Y5088D01*
X612641Y5086D01*
X612716Y5108D01*
X612793Y5120D01*
X612833Y5142D01*
X612877Y5155D01*
X612941Y5199D01*
X613010Y5236D01*
X613041Y5269D01*
X613079Y5295D01*
X613126Y5358D01*
X613179Y5414D01*
X613199Y5456D01*
X613226Y5492D01*
X613250Y5566D01*
X613283Y5637D01*
X613288Y5683D01*
X613302Y5726D01*
X613301Y5804D01*
X613310Y5881D01*
X613300Y5926D01*
X613300Y5972D01*
X613262Y6104D01*
X613258Y6122D01*
X613255Y6126D01*
X613253Y6133D01*
X611959Y9257D01*
X611959Y14743D01*
X614059Y19812D01*
X617938Y23691D01*
X623007Y25791D01*
X650993Y25791D01*
X656062Y23691D01*
X659941Y19812D01*
X662041Y14743D01*
X662041Y9257D01*
X660747Y6133D01*
X660736Y6089D01*
X660717Y6047D01*
X660709Y5970D01*
X660691Y5894D01*
X660695Y5848D01*
X660690Y5803D01*
X660707Y5726D01*
X660714Y5649D01*
X660732Y5607D01*
X660742Y5562D01*
X660782Y5495D01*
X660814Y5424D01*
X660845Y5390D01*
X660868Y5351D01*
X660928Y5300D01*
X660980Y5243D01*
X661020Y5221D01*
X661055Y5191D01*
X661128Y5162D01*
X661196Y5125D01*
X661241Y5116D01*
X661283Y5099D01*
X661419Y5084D01*
X661438Y5081D01*
X661443Y5082D01*
X661450Y5081D01*
X1125550Y5081D01*
X1125595Y5088D01*
X1125641Y5086D01*
X1125716Y5108D01*
X1125793Y5120D01*
X1125833Y5142D01*
X1125877Y5155D01*
X1125941Y5199D01*
X1126010Y5236D01*
X1126041Y5269D01*
X1126079Y5295D01*
X1126126Y5358D01*
X1126179Y5414D01*
X1126199Y5456D01*
X1126226Y5492D01*
X1126250Y5566D01*
X1126283Y5637D01*
X1126288Y5683D01*
X1126302Y5726D01*
X1126301Y5804D01*
X1126310Y5881D01*
X1126300Y5926D01*
X1126300Y5972D01*
X1126262Y6104D01*
X1126258Y6122D01*
X1126255Y6126D01*
X1126253Y6133D01*
X1124959Y9257D01*
X1124959Y14743D01*
X1127059Y19812D01*
X1130938Y23691D01*
X1136007Y25791D01*
X1163993Y25791D01*
X1169062Y23691D01*
X1172941Y19812D01*
X1175041Y14743D01*
X1175041Y9257D01*
X1173747Y6133D01*
X1173736Y6089D01*
X1173717Y6047D01*
X1173709Y5970D01*
X1173691Y5894D01*
X1173695Y5848D01*
X1173690Y5803D01*
X1173707Y5726D01*
X1173714Y5649D01*
X1173732Y5607D01*
X1173742Y5562D01*
X1173782Y5495D01*
X1173814Y5424D01*
X1173845Y5390D01*
X1173868Y5351D01*
X1173928Y5300D01*
X1173980Y5243D01*
X1174020Y5221D01*
X1174055Y5191D01*
X1174128Y5162D01*
X1174196Y5125D01*
X1174241Y5116D01*
X1174283Y5099D01*
X1174419Y5084D01*
X1174438Y5081D01*
X1174443Y5082D01*
X1174450Y5081D01*
X1514158Y5081D01*
X1514178Y5084D01*
X1514197Y5082D01*
X1514299Y5104D01*
X1514401Y5120D01*
X1514418Y5130D01*
X1514438Y5134D01*
X1514527Y5187D01*
X1514618Y5236D01*
X1514632Y5250D01*
X1514649Y5260D01*
X1514716Y5339D01*
X1514788Y5414D01*
X1514796Y5432D01*
X1514809Y5447D01*
X1514848Y5543D01*
X1514891Y5637D01*
X1514893Y5657D01*
X1514901Y5675D01*
X1514919Y5842D01*
X1514919Y41466D01*
X1514908Y41537D01*
X1514906Y41608D01*
X1514888Y41657D01*
X1514880Y41709D01*
X1514846Y41772D01*
X1514821Y41839D01*
X1514789Y41880D01*
X1514764Y41926D01*
X1514712Y41975D01*
X1514668Y42031D01*
X1514624Y42060D01*
X1514586Y42095D01*
X1514521Y42126D01*
X1514461Y42164D01*
X1514410Y42177D01*
X1514363Y42199D01*
X1514292Y42207D01*
X1514222Y42225D01*
X1514170Y42220D01*
X1514119Y42226D01*
X1514048Y42211D01*
X1513977Y42205D01*
X1513929Y42185D01*
X1513878Y42174D01*
X1513817Y42137D01*
X1513751Y42109D01*
X1513695Y42064D01*
X1513667Y42048D01*
X1513652Y42030D01*
X1513620Y42004D01*
X1508185Y36569D01*
X1498715Y36569D01*
X1492019Y43265D01*
X1492019Y52735D01*
X1498715Y59431D01*
X1508185Y59431D01*
X1513620Y53996D01*
X1513678Y53954D01*
X1513730Y53905D01*
X1513777Y53883D01*
X1513819Y53852D01*
X1513888Y53831D01*
X1513953Y53801D01*
X1514005Y53795D01*
X1514055Y53780D01*
X1514126Y53782D01*
X1514197Y53774D01*
X1514248Y53785D01*
X1514300Y53786D01*
X1514368Y53811D01*
X1514438Y53826D01*
X1514483Y53853D01*
X1514531Y53871D01*
X1514587Y53916D01*
X1514649Y53952D01*
X1514683Y53992D01*
X1514723Y54024D01*
X1514762Y54085D01*
X1514809Y54139D01*
X1514828Y54187D01*
X1514856Y54231D01*
X1514874Y54301D01*
X1514901Y54367D01*
X1514909Y54439D01*
X1514917Y54470D01*
X1514915Y54493D01*
X1514919Y54534D01*
X1514919Y170466D01*
X1514908Y170537D01*
X1514906Y170608D01*
X1514888Y170657D01*
X1514880Y170709D01*
X1514846Y170772D01*
X1514821Y170839D01*
X1514789Y170880D01*
X1514764Y170926D01*
X1514712Y170975D01*
X1514668Y171031D01*
X1514624Y171060D01*
X1514586Y171095D01*
X1514521Y171126D01*
X1514461Y171164D01*
X1514410Y171177D01*
X1514363Y171199D01*
X1514292Y171207D01*
X1514222Y171225D01*
X1514170Y171220D01*
X1514119Y171226D01*
X1514048Y171211D01*
X1513977Y171205D01*
X1513929Y171185D01*
X1513878Y171174D01*
X1513817Y171137D01*
X1513751Y171109D01*
X1513695Y171064D01*
X1513667Y171048D01*
X1513652Y171030D01*
X1513620Y171004D01*
X1508185Y165569D01*
X1498715Y165569D01*
X1492019Y172265D01*
X1492019Y181735D01*
X1498715Y188431D01*
X1508185Y188431D01*
X1513620Y182996D01*
X1513678Y182954D01*
X1513730Y182905D01*
X1513777Y182883D01*
X1513819Y182852D01*
X1513888Y182831D01*
X1513953Y182801D01*
X1514005Y182795D01*
X1514055Y182780D01*
X1514126Y182782D01*
X1514197Y182774D01*
X1514248Y182785D01*
X1514300Y182786D01*
X1514368Y182811D01*
X1514438Y182826D01*
X1514483Y182853D01*
X1514531Y182871D01*
X1514587Y182916D01*
X1514649Y182952D01*
X1514683Y182992D01*
X1514723Y183024D01*
X1514762Y183085D01*
X1514809Y183139D01*
X1514828Y183187D01*
X1514856Y183231D01*
X1514874Y183301D01*
X1514901Y183367D01*
X1514909Y183439D01*
X1514917Y183470D01*
X1514915Y183493D01*
X1514919Y183534D01*
X1514919Y219158D01*
X1514916Y219178D01*
X1514918Y219197D01*
X1514896Y219299D01*
X1514880Y219401D01*
X1514870Y219418D01*
X1514866Y219438D01*
X1514813Y219527D01*
X1514764Y219618D01*
X1514750Y219632D01*
X1514740Y219649D01*
X1514661Y219716D01*
X1514586Y219788D01*
X1514568Y219796D01*
X1514553Y219809D01*
X1514457Y219848D01*
X1514363Y219891D01*
X1514343Y219893D01*
X1514325Y219901D01*
X1514158Y219919D01*
X1271878Y219919D01*
X1271782Y219904D01*
X1271685Y219894D01*
X1271661Y219884D01*
X1271636Y219880D01*
X1271550Y219834D01*
X1271461Y219794D01*
X1271441Y219777D01*
X1271418Y219764D01*
X1271351Y219694D01*
X1271279Y219628D01*
X1271267Y219605D01*
X1271249Y219586D01*
X1271208Y219498D01*
X1271161Y219412D01*
X1271156Y219387D01*
X1271145Y219363D01*
X1271134Y219266D01*
X1271117Y219170D01*
X1271121Y219144D01*
X1271118Y219119D01*
X1271139Y219023D01*
X1271153Y218927D01*
X1271165Y218904D01*
X1271170Y218878D01*
X1271220Y218795D01*
X1271264Y218708D01*
X1271283Y218689D01*
X1271296Y218667D01*
X1271370Y218604D01*
X1271440Y218536D01*
X1271469Y218520D01*
X1271483Y218507D01*
X1271514Y218495D01*
X1271587Y218455D01*
X1273376Y217714D01*
X1276234Y214856D01*
X1277781Y211121D01*
X1277781Y207079D01*
X1276234Y203344D01*
X1273376Y200486D01*
X1269641Y198939D01*
X1250359Y198939D01*
X1246624Y200486D01*
X1243766Y203344D01*
X1243260Y204565D01*
X1243199Y204665D01*
X1243139Y204765D01*
X1243134Y204769D01*
X1243131Y204774D01*
X1243041Y204849D01*
X1242952Y204925D01*
X1242946Y204927D01*
X1242941Y204931D01*
X1242833Y204973D01*
X1242724Y205017D01*
X1242716Y205018D01*
X1242712Y205019D01*
X1242693Y205020D01*
X1242557Y205035D01*
X1234099Y205035D01*
X1234009Y205021D01*
X1233918Y205013D01*
X1233888Y205001D01*
X1233856Y204996D01*
X1233776Y204953D01*
X1233692Y204917D01*
X1233660Y204891D01*
X1233639Y204880D01*
X1233617Y204857D01*
X1233561Y204812D01*
X1220184Y191435D01*
X1158302Y191435D01*
X1158282Y191432D01*
X1158263Y191434D01*
X1158161Y191412D01*
X1158059Y191396D01*
X1158042Y191386D01*
X1158022Y191382D01*
X1157933Y191329D01*
X1157842Y191280D01*
X1157828Y191266D01*
X1157811Y191256D01*
X1157744Y191177D01*
X1157672Y191102D01*
X1157664Y191084D01*
X1157651Y191069D01*
X1157612Y190973D01*
X1157569Y190879D01*
X1157567Y190859D01*
X1157559Y190841D01*
X1157541Y190674D01*
X1157541Y188948D01*
X1156052Y187459D01*
X1154572Y187459D01*
X1154552Y187456D01*
X1154533Y187458D01*
X1154431Y187436D01*
X1154329Y187420D01*
X1154312Y187410D01*
X1154292Y187406D01*
X1154203Y187353D01*
X1154112Y187304D01*
X1154098Y187290D01*
X1154081Y187280D01*
X1154014Y187201D01*
X1153942Y187126D01*
X1153934Y187108D01*
X1153921Y187093D01*
X1153882Y186997D01*
X1153839Y186903D01*
X1153837Y186883D01*
X1153829Y186865D01*
X1153811Y186698D01*
X1153811Y184802D01*
X1153814Y184782D01*
X1153812Y184763D01*
X1153834Y184661D01*
X1153850Y184559D01*
X1153860Y184542D01*
X1153864Y184522D01*
X1153917Y184433D01*
X1153966Y184342D01*
X1153980Y184328D01*
X1153990Y184311D01*
X1154069Y184244D01*
X1154144Y184172D01*
X1154162Y184164D01*
X1154177Y184151D01*
X1154273Y184112D01*
X1154367Y184069D01*
X1154387Y184067D01*
X1154405Y184059D01*
X1154572Y184041D01*
X1156552Y184041D01*
X1158041Y182552D01*
X1158041Y170448D01*
X1156552Y168959D01*
X1143448Y168959D01*
X1141959Y170448D01*
X1141959Y182552D01*
X1143448Y184041D01*
X1145428Y184041D01*
X1145448Y184044D01*
X1145467Y184042D01*
X1145569Y184064D01*
X1145671Y184080D01*
X1145688Y184090D01*
X1145708Y184094D01*
X1145797Y184147D01*
X1145888Y184196D01*
X1145902Y184210D01*
X1145919Y184220D01*
X1145986Y184299D01*
X1146058Y184374D01*
X1146066Y184392D01*
X1146079Y184407D01*
X1146118Y184503D01*
X1146161Y184597D01*
X1146163Y184617D01*
X1146171Y184635D01*
X1146189Y184802D01*
X1146189Y186698D01*
X1146186Y186718D01*
X1146188Y186737D01*
X1146166Y186839D01*
X1146150Y186941D01*
X1146140Y186958D01*
X1146136Y186978D01*
X1146083Y187067D01*
X1146034Y187158D01*
X1146020Y187172D01*
X1146010Y187189D01*
X1145931Y187256D01*
X1145856Y187328D01*
X1145838Y187336D01*
X1145823Y187349D01*
X1145727Y187388D01*
X1145633Y187431D01*
X1145613Y187433D01*
X1145595Y187441D01*
X1145428Y187459D01*
X1143948Y187459D01*
X1142459Y188948D01*
X1142459Y202052D01*
X1143964Y203558D01*
X1144033Y203653D01*
X1144104Y203750D01*
X1144106Y203754D01*
X1144108Y203757D01*
X1144143Y203870D01*
X1144179Y203984D01*
X1144179Y203988D01*
X1144180Y203992D01*
X1144177Y204111D01*
X1144175Y204230D01*
X1144174Y204234D01*
X1144174Y204238D01*
X1144133Y204350D01*
X1144094Y204462D01*
X1144091Y204465D01*
X1144090Y204469D01*
X1144015Y204563D01*
X1143942Y204656D01*
X1143938Y204659D01*
X1143936Y204661D01*
X1143924Y204669D01*
X1143807Y204755D01*
X1143440Y204967D01*
X1142967Y205440D01*
X1142632Y206019D01*
X1142459Y206666D01*
X1142459Y210977D01*
X1149238Y210977D01*
X1149258Y210980D01*
X1149277Y210978D01*
X1149379Y211000D01*
X1149481Y211017D01*
X1149498Y211026D01*
X1149518Y211030D01*
X1149607Y211083D01*
X1149698Y211132D01*
X1149712Y211146D01*
X1149729Y211156D01*
X1149796Y211235D01*
X1149867Y211310D01*
X1149876Y211328D01*
X1149889Y211343D01*
X1149928Y211439D01*
X1149971Y211533D01*
X1149973Y211553D01*
X1149981Y211571D01*
X1149999Y211738D01*
X1149999Y213262D01*
X1149996Y213282D01*
X1149998Y213301D01*
X1149976Y213403D01*
X1149959Y213505D01*
X1149950Y213522D01*
X1149946Y213542D01*
X1149893Y213631D01*
X1149844Y213722D01*
X1149830Y213736D01*
X1149820Y213753D01*
X1149741Y213820D01*
X1149666Y213891D01*
X1149648Y213900D01*
X1149633Y213913D01*
X1149537Y213952D01*
X1149443Y213995D01*
X1149423Y213997D01*
X1149405Y214005D01*
X1149238Y214023D01*
X1142459Y214023D01*
X1142459Y218334D01*
X1142627Y218961D01*
X1142639Y219080D01*
X1142652Y219197D01*
X1142651Y219202D01*
X1142652Y219206D01*
X1142625Y219321D01*
X1142600Y219438D01*
X1142598Y219441D01*
X1142597Y219445D01*
X1142535Y219546D01*
X1142474Y219649D01*
X1142470Y219652D01*
X1142468Y219655D01*
X1142377Y219732D01*
X1142287Y219809D01*
X1142283Y219810D01*
X1142280Y219813D01*
X1142169Y219856D01*
X1142059Y219901D01*
X1142054Y219901D01*
X1142050Y219903D01*
X1142037Y219903D01*
X1141892Y219919D01*
X1129363Y219919D01*
X1129347Y219917D01*
X1129331Y219919D01*
X1129226Y219897D01*
X1129120Y219880D01*
X1129106Y219872D01*
X1129090Y219869D01*
X1128997Y219815D01*
X1128902Y219764D01*
X1128891Y219753D01*
X1128878Y219745D01*
X1128807Y219664D01*
X1128733Y219586D01*
X1128726Y219572D01*
X1128716Y219560D01*
X1128675Y219461D01*
X1128629Y219363D01*
X1128628Y219347D01*
X1128622Y219332D01*
X1128614Y219225D01*
X1128602Y219119D01*
X1128606Y219103D01*
X1128605Y219087D01*
X1128639Y218923D01*
X1129133Y217402D01*
X1129334Y216129D01*
X1118250Y216129D01*
X1118230Y216126D01*
X1118211Y216128D01*
X1118109Y216106D01*
X1118007Y216089D01*
X1117990Y216080D01*
X1117970Y216076D01*
X1117881Y216023D01*
X1117790Y215974D01*
X1117776Y215960D01*
X1117759Y215950D01*
X1117692Y215871D01*
X1117621Y215796D01*
X1117612Y215778D01*
X1117599Y215763D01*
X1117561Y215667D01*
X1117517Y215573D01*
X1117515Y215553D01*
X1117507Y215535D01*
X1117489Y215368D01*
X1117489Y214605D01*
X1117487Y214605D01*
X1117487Y215368D01*
X1117484Y215388D01*
X1117486Y215407D01*
X1117464Y215509D01*
X1117447Y215611D01*
X1117438Y215628D01*
X1117434Y215648D01*
X1117381Y215737D01*
X1117332Y215828D01*
X1117318Y215842D01*
X1117308Y215859D01*
X1117229Y215926D01*
X1117154Y215997D01*
X1117136Y216006D01*
X1117121Y216019D01*
X1117025Y216058D01*
X1116931Y216101D01*
X1116911Y216103D01*
X1116893Y216111D01*
X1116726Y216129D01*
X1105642Y216129D01*
X1105843Y217402D01*
X1106337Y218923D01*
X1106340Y218939D01*
X1106347Y218953D01*
X1106358Y219059D01*
X1106375Y219166D01*
X1106372Y219182D01*
X1106374Y219197D01*
X1106351Y219302D01*
X1106332Y219408D01*
X1106325Y219422D01*
X1106321Y219438D01*
X1106267Y219530D01*
X1106215Y219624D01*
X1106203Y219635D01*
X1106195Y219649D01*
X1106114Y219719D01*
X1106035Y219792D01*
X1106020Y219798D01*
X1106008Y219809D01*
X1105909Y219849D01*
X1105811Y219893D01*
X1105795Y219895D01*
X1105780Y219901D01*
X1105613Y219919D01*
X681386Y219919D01*
X681371Y219917D01*
X681355Y219919D01*
X681250Y219897D01*
X681144Y219880D01*
X681130Y219872D01*
X681114Y219869D01*
X681021Y219815D01*
X680926Y219764D01*
X680915Y219753D01*
X680902Y219745D01*
X680831Y219664D01*
X680757Y219586D01*
X680750Y219572D01*
X680740Y219560D01*
X680699Y219460D01*
X680653Y219363D01*
X680652Y219347D01*
X680645Y219332D01*
X680638Y219225D01*
X680626Y219119D01*
X680630Y219103D01*
X680629Y219087D01*
X680662Y218923D01*
X681157Y217402D01*
X681358Y216129D01*
X670274Y216129D01*
X670254Y216126D01*
X670235Y216128D01*
X670133Y216106D01*
X670031Y216089D01*
X670014Y216080D01*
X669994Y216076D01*
X669905Y216023D01*
X669814Y215974D01*
X669800Y215960D01*
X669783Y215950D01*
X669716Y215871D01*
X669645Y215796D01*
X669636Y215778D01*
X669623Y215763D01*
X669585Y215667D01*
X669541Y215573D01*
X669539Y215553D01*
X669531Y215535D01*
X669513Y215368D01*
X669513Y214605D01*
X669511Y214605D01*
X669511Y215368D01*
X669508Y215388D01*
X669510Y215407D01*
X669488Y215509D01*
X669471Y215611D01*
X669462Y215628D01*
X669458Y215648D01*
X669405Y215737D01*
X669356Y215828D01*
X669342Y215842D01*
X669332Y215859D01*
X669253Y215926D01*
X669178Y215997D01*
X669160Y216006D01*
X669145Y216019D01*
X669049Y216058D01*
X668955Y216101D01*
X668935Y216103D01*
X668917Y216111D01*
X668750Y216129D01*
X657666Y216129D01*
X657867Y217402D01*
X658361Y218923D01*
X658364Y218939D01*
X658371Y218953D01*
X658382Y219059D01*
X658399Y219166D01*
X658396Y219182D01*
X658398Y219197D01*
X658375Y219302D01*
X658356Y219408D01*
X658349Y219422D01*
X658345Y219438D01*
X658291Y219530D01*
X658239Y219624D01*
X658227Y219635D01*
X658219Y219649D01*
X658138Y219719D01*
X658059Y219792D01*
X658044Y219798D01*
X658032Y219809D01*
X657933Y219849D01*
X657835Y219893D01*
X657819Y219895D01*
X657804Y219901D01*
X657637Y219919D01*
X645108Y219919D01*
X644991Y219900D01*
X644873Y219882D01*
X644870Y219880D01*
X644865Y219880D01*
X644761Y219824D01*
X644655Y219769D01*
X644652Y219766D01*
X644648Y219764D01*
X644567Y219679D01*
X644483Y219593D01*
X644482Y219589D01*
X644479Y219586D01*
X644428Y219478D01*
X644377Y219371D01*
X644377Y219367D01*
X644375Y219363D01*
X644362Y219245D01*
X644348Y219127D01*
X644348Y219122D01*
X644348Y219119D01*
X644351Y219105D01*
X644373Y218961D01*
X644541Y218334D01*
X644541Y214023D01*
X637762Y214023D01*
X637742Y214020D01*
X637723Y214022D01*
X637621Y214000D01*
X637519Y213983D01*
X637502Y213974D01*
X637482Y213970D01*
X637393Y213917D01*
X637302Y213868D01*
X637288Y213854D01*
X637271Y213844D01*
X637204Y213765D01*
X637133Y213690D01*
X637124Y213672D01*
X637111Y213657D01*
X637072Y213561D01*
X637029Y213467D01*
X637027Y213447D01*
X637019Y213429D01*
X637001Y213262D01*
X637001Y211738D01*
X637004Y211718D01*
X637002Y211699D01*
X637024Y211597D01*
X637041Y211495D01*
X637050Y211478D01*
X637054Y211458D01*
X637107Y211369D01*
X637156Y211278D01*
X637170Y211264D01*
X637180Y211247D01*
X637259Y211180D01*
X637334Y211109D01*
X637352Y211100D01*
X637367Y211087D01*
X637463Y211048D01*
X637557Y211005D01*
X637577Y211003D01*
X637595Y210995D01*
X637762Y210977D01*
X644541Y210977D01*
X644541Y206666D01*
X644368Y206019D01*
X644033Y205440D01*
X643560Y204967D01*
X643193Y204755D01*
X643100Y204679D01*
X643008Y204606D01*
X643006Y204602D01*
X643003Y204599D01*
X642939Y204497D01*
X642875Y204399D01*
X642874Y204395D01*
X642872Y204391D01*
X642844Y204275D01*
X642815Y204160D01*
X642816Y204156D01*
X642815Y204152D01*
X642825Y204033D01*
X642834Y203915D01*
X642836Y203911D01*
X642836Y203907D01*
X642884Y203797D01*
X642931Y203689D01*
X642934Y203685D01*
X642935Y203682D01*
X642945Y203671D01*
X643036Y203558D01*
X644541Y202052D01*
X644541Y188948D01*
X643052Y187459D01*
X641826Y187459D01*
X641806Y187456D01*
X641787Y187458D01*
X641685Y187436D01*
X641583Y187420D01*
X641566Y187410D01*
X641546Y187406D01*
X641457Y187353D01*
X641366Y187304D01*
X641352Y187290D01*
X641335Y187280D01*
X641268Y187201D01*
X641196Y187126D01*
X641188Y187108D01*
X641175Y187093D01*
X641136Y186997D01*
X641093Y186903D01*
X641091Y186883D01*
X641083Y186865D01*
X641065Y186698D01*
X641065Y184802D01*
X641068Y184782D01*
X641066Y184763D01*
X641088Y184661D01*
X641104Y184559D01*
X641114Y184542D01*
X641118Y184522D01*
X641171Y184433D01*
X641220Y184342D01*
X641234Y184328D01*
X641244Y184311D01*
X641323Y184244D01*
X641398Y184172D01*
X641416Y184164D01*
X641431Y184151D01*
X641527Y184112D01*
X641621Y184069D01*
X641641Y184067D01*
X641659Y184059D01*
X641826Y184041D01*
X643552Y184041D01*
X645041Y182552D01*
X645041Y170448D01*
X643552Y168959D01*
X630448Y168959D01*
X628959Y170448D01*
X628959Y182552D01*
X630448Y184041D01*
X632174Y184041D01*
X632194Y184044D01*
X632213Y184042D01*
X632315Y184064D01*
X632417Y184080D01*
X632434Y184090D01*
X632454Y184094D01*
X632543Y184147D01*
X632634Y184196D01*
X632648Y184210D01*
X632665Y184220D01*
X632732Y184299D01*
X632804Y184374D01*
X632812Y184392D01*
X632825Y184407D01*
X632864Y184503D01*
X632907Y184597D01*
X632909Y184617D01*
X632917Y184635D01*
X632935Y184802D01*
X632935Y186698D01*
X632932Y186718D01*
X632934Y186737D01*
X632912Y186839D01*
X632896Y186941D01*
X632886Y186958D01*
X632882Y186978D01*
X632829Y187067D01*
X632780Y187158D01*
X632766Y187172D01*
X632756Y187189D01*
X632677Y187256D01*
X632602Y187328D01*
X632584Y187336D01*
X632569Y187349D01*
X632473Y187388D01*
X632379Y187431D01*
X632359Y187433D01*
X632341Y187441D01*
X632174Y187459D01*
X630948Y187459D01*
X629459Y188948D01*
X629459Y190674D01*
X629456Y190694D01*
X629458Y190713D01*
X629436Y190815D01*
X629420Y190917D01*
X629410Y190934D01*
X629406Y190954D01*
X629353Y191043D01*
X629304Y191134D01*
X629290Y191148D01*
X629280Y191165D01*
X629201Y191232D01*
X629126Y191304D01*
X629108Y191312D01*
X629093Y191325D01*
X628997Y191364D01*
X628903Y191407D01*
X628883Y191409D01*
X628865Y191417D01*
X628698Y191435D01*
X582816Y191435D01*
X572439Y201812D01*
X572365Y201865D01*
X572296Y201925D01*
X572266Y201937D01*
X572240Y201956D01*
X572153Y201983D01*
X572068Y202017D01*
X572027Y202021D01*
X572004Y202028D01*
X571972Y202027D01*
X571901Y202035D01*
X563443Y202035D01*
X563328Y202016D01*
X563212Y201999D01*
X563206Y201997D01*
X563200Y201996D01*
X563098Y201941D01*
X562993Y201888D01*
X562988Y201883D01*
X562983Y201880D01*
X562903Y201796D01*
X562820Y201712D01*
X562817Y201706D01*
X562813Y201702D01*
X562806Y201685D01*
X562740Y201565D01*
X562234Y200344D01*
X559376Y197486D01*
X555641Y195939D01*
X536359Y195939D01*
X532624Y197486D01*
X529766Y200344D01*
X528219Y204079D01*
X528219Y208121D01*
X529766Y211856D01*
X532624Y214714D01*
X536359Y216261D01*
X555641Y216261D01*
X559376Y214714D01*
X562234Y211856D01*
X562740Y210635D01*
X562801Y210535D01*
X562861Y210435D01*
X562866Y210431D01*
X562869Y210426D01*
X562959Y210351D01*
X563048Y210275D01*
X563054Y210273D01*
X563059Y210269D01*
X563167Y210227D01*
X563276Y210183D01*
X563284Y210182D01*
X563288Y210181D01*
X563307Y210180D01*
X563443Y210165D01*
X575584Y210165D01*
X585961Y199788D01*
X586035Y199735D01*
X586104Y199675D01*
X586134Y199663D01*
X586160Y199644D01*
X586247Y199617D01*
X586332Y199583D01*
X586373Y199579D01*
X586396Y199572D01*
X586428Y199573D01*
X586499Y199565D01*
X628698Y199565D01*
X628718Y199568D01*
X628737Y199566D01*
X628839Y199588D01*
X628941Y199604D01*
X628958Y199614D01*
X628978Y199618D01*
X629067Y199671D01*
X629158Y199720D01*
X629172Y199734D01*
X629189Y199744D01*
X629256Y199823D01*
X629328Y199898D01*
X629336Y199916D01*
X629349Y199931D01*
X629388Y200027D01*
X629431Y200121D01*
X629433Y200141D01*
X629441Y200159D01*
X629459Y200326D01*
X629459Y202052D01*
X630964Y203558D01*
X631033Y203653D01*
X631104Y203750D01*
X631106Y203754D01*
X631108Y203757D01*
X631143Y203870D01*
X631179Y203984D01*
X631179Y203988D01*
X631180Y203992D01*
X631177Y204111D01*
X631175Y204230D01*
X631174Y204234D01*
X631174Y204238D01*
X631133Y204350D01*
X631094Y204462D01*
X631091Y204465D01*
X631090Y204469D01*
X631015Y204563D01*
X630942Y204656D01*
X630938Y204659D01*
X630936Y204661D01*
X630924Y204669D01*
X630807Y204755D01*
X630440Y204967D01*
X629967Y205440D01*
X629632Y206019D01*
X629459Y206666D01*
X629459Y210977D01*
X636238Y210977D01*
X636258Y210980D01*
X636277Y210978D01*
X636379Y211000D01*
X636481Y211017D01*
X636498Y211026D01*
X636518Y211030D01*
X636607Y211083D01*
X636698Y211132D01*
X636712Y211146D01*
X636729Y211156D01*
X636796Y211235D01*
X636867Y211310D01*
X636876Y211328D01*
X636889Y211343D01*
X636928Y211439D01*
X636971Y211533D01*
X636973Y211553D01*
X636981Y211571D01*
X636999Y211738D01*
X636999Y213262D01*
X636996Y213282D01*
X636998Y213301D01*
X636976Y213403D01*
X636959Y213505D01*
X636950Y213522D01*
X636946Y213542D01*
X636893Y213631D01*
X636844Y213722D01*
X636830Y213736D01*
X636820Y213753D01*
X636741Y213820D01*
X636666Y213891D01*
X636648Y213900D01*
X636633Y213913D01*
X636537Y213952D01*
X636443Y213995D01*
X636423Y213997D01*
X636405Y214005D01*
X636238Y214023D01*
X629459Y214023D01*
X629459Y218334D01*
X629627Y218961D01*
X629639Y219080D01*
X629652Y219197D01*
X629651Y219202D01*
X629652Y219206D01*
X629625Y219321D01*
X629600Y219438D01*
X629598Y219441D01*
X629597Y219445D01*
X629535Y219546D01*
X629474Y219649D01*
X629470Y219652D01*
X629468Y219655D01*
X629377Y219732D01*
X629287Y219809D01*
X629283Y219810D01*
X629280Y219813D01*
X629169Y219856D01*
X629059Y219901D01*
X629054Y219901D01*
X629050Y219903D01*
X629037Y219903D01*
X628892Y219919D01*
X616363Y219919D01*
X616347Y219917D01*
X616331Y219919D01*
X616226Y219897D01*
X616120Y219880D01*
X616106Y219872D01*
X616090Y219869D01*
X615997Y219815D01*
X615902Y219764D01*
X615891Y219753D01*
X615878Y219745D01*
X615807Y219664D01*
X615733Y219586D01*
X615726Y219572D01*
X615716Y219560D01*
X615675Y219461D01*
X615629Y219363D01*
X615628Y219347D01*
X615622Y219332D01*
X615614Y219225D01*
X615602Y219119D01*
X615606Y219103D01*
X615605Y219087D01*
X615639Y218923D01*
X616133Y217402D01*
X616334Y216129D01*
X605250Y216129D01*
X605230Y216126D01*
X605211Y216128D01*
X605109Y216106D01*
X605007Y216089D01*
X604990Y216080D01*
X604970Y216076D01*
X604881Y216023D01*
X604790Y215974D01*
X604776Y215960D01*
X604759Y215950D01*
X604692Y215871D01*
X604621Y215796D01*
X604612Y215778D01*
X604599Y215763D01*
X604561Y215667D01*
X604517Y215573D01*
X604515Y215553D01*
X604507Y215535D01*
X604489Y215368D01*
X604489Y214605D01*
X604487Y214605D01*
X604487Y215368D01*
X604484Y215388D01*
X604486Y215407D01*
X604464Y215509D01*
X604447Y215611D01*
X604438Y215628D01*
X604434Y215648D01*
X604381Y215737D01*
X604332Y215828D01*
X604318Y215842D01*
X604308Y215859D01*
X604229Y215926D01*
X604154Y215997D01*
X604136Y216006D01*
X604121Y216019D01*
X604025Y216058D01*
X603931Y216101D01*
X603911Y216103D01*
X603893Y216111D01*
X603726Y216129D01*
X592642Y216129D01*
X592843Y217402D01*
X593338Y218923D01*
X593340Y218939D01*
X593347Y218953D01*
X593358Y219059D01*
X593375Y219166D01*
X593372Y219182D01*
X593374Y219197D01*
X593351Y219302D01*
X593332Y219408D01*
X593325Y219422D01*
X593321Y219438D01*
X593266Y219530D01*
X593215Y219624D01*
X593203Y219635D01*
X593195Y219649D01*
X593114Y219719D01*
X593035Y219792D01*
X593021Y219798D01*
X593008Y219809D01*
X592909Y219849D01*
X592811Y219893D01*
X592795Y219895D01*
X592780Y219901D01*
X592614Y219919D01*
X35842Y219919D01*
X35822Y219916D01*
X35803Y219918D01*
X35701Y219896D01*
X35599Y219880D01*
X35582Y219870D01*
X35562Y219866D01*
X35473Y219813D01*
X35382Y219764D01*
X35368Y219750D01*
X35351Y219740D01*
X35284Y219661D01*
X35212Y219586D01*
X35204Y219568D01*
X35191Y219553D01*
X35152Y219457D01*
X35109Y219363D01*
X35107Y219343D01*
X35099Y219325D01*
X35081Y219158D01*
X35081Y182534D01*
X35092Y182463D01*
X35094Y182392D01*
X35112Y182343D01*
X35120Y182291D01*
X35154Y182228D01*
X35179Y182161D01*
X35211Y182120D01*
X35236Y182074D01*
X35288Y182025D01*
X35332Y181969D01*
X35376Y181940D01*
X35414Y181905D01*
X35479Y181874D01*
X35539Y181836D01*
X35590Y181823D01*
X35637Y181801D01*
X35708Y181793D01*
X35778Y181775D01*
X35830Y181780D01*
X35881Y181774D01*
X35952Y181789D01*
X36023Y181795D01*
X36071Y181815D01*
X36122Y181826D01*
X36183Y181863D01*
X36249Y181891D01*
X36305Y181936D01*
X36333Y181952D01*
X36348Y181970D01*
X36380Y181996D01*
X42815Y188431D01*
X52285Y188431D01*
X58981Y181735D01*
X58981Y172265D01*
X52285Y165569D01*
X42815Y165569D01*
X36380Y172004D01*
X36322Y172046D01*
X36270Y172095D01*
X36223Y172117D01*
X36181Y172148D01*
X36112Y172169D01*
X36047Y172199D01*
X35995Y172205D01*
X35945Y172220D01*
X35874Y172218D01*
X35803Y172226D01*
X35752Y172215D01*
X35700Y172214D01*
X35632Y172189D01*
X35562Y172174D01*
X35517Y172147D01*
X35469Y172129D01*
X35413Y172084D01*
X35351Y172048D01*
X35317Y172008D01*
X35277Y171976D01*
X35238Y171915D01*
X35191Y171861D01*
X35172Y171813D01*
X35144Y171769D01*
X35126Y171699D01*
X35099Y171633D01*
X35091Y171561D01*
X35083Y171530D01*
X35085Y171507D01*
X35081Y171466D01*
X35081Y53534D01*
X35092Y53463D01*
X35094Y53392D01*
X35112Y53343D01*
X35120Y53291D01*
X35154Y53228D01*
X35179Y53161D01*
X35211Y53120D01*
X35236Y53074D01*
X35288Y53025D01*
X35332Y52969D01*
X35376Y52940D01*
X35414Y52905D01*
X35479Y52874D01*
X35539Y52836D01*
X35590Y52823D01*
X35637Y52801D01*
X35708Y52793D01*
X35778Y52775D01*
X35830Y52780D01*
X35881Y52774D01*
X35952Y52789D01*
X36023Y52795D01*
X36071Y52815D01*
X36122Y52826D01*
X36183Y52863D01*
X36249Y52891D01*
X36305Y52936D01*
X36333Y52952D01*
X36348Y52970D01*
X36380Y52996D01*
X42815Y59431D01*
X52285Y59431D01*
X58981Y52735D01*
X58981Y43265D01*
X52285Y36569D01*
X42815Y36569D01*
X36380Y43004D01*
X36322Y43046D01*
X36270Y43095D01*
X36223Y43117D01*
X36181Y43148D01*
X36112Y43169D01*
X36047Y43199D01*
X35995Y43205D01*
X35945Y43220D01*
X35874Y43218D01*
X35803Y43226D01*
X35752Y43215D01*
X35700Y43214D01*
X35632Y43189D01*
X35562Y43174D01*
X35517Y43147D01*
X35469Y43129D01*
X35413Y43084D01*
X35351Y43048D01*
X35317Y43008D01*
X35277Y42976D01*
X35238Y42915D01*
X35191Y42861D01*
X35172Y42813D01*
X35144Y42769D01*
X35126Y42699D01*
X35099Y42633D01*
X35091Y42561D01*
X35083Y42530D01*
X35085Y42507D01*
X35081Y42466D01*
X35081Y5842D01*
X35084Y5822D01*
X35082Y5803D01*
X35104Y5701D01*
X35120Y5599D01*
X35130Y5582D01*
X35134Y5562D01*
X35187Y5473D01*
X35236Y5382D01*
X35250Y5368D01*
X35260Y5351D01*
X35339Y5284D01*
X35414Y5212D01*
X35432Y5204D01*
X35447Y5191D01*
X35543Y5152D01*
X35637Y5109D01*
X35657Y5107D01*
X35675Y5099D01*
X35842Y5081D01*
X612550Y5081D01*
X612595Y5088D01*
G37*
%LPC*%
G36*
X736300Y20579D02*
X736300Y20579D01*
X727986Y24023D01*
X721623Y30386D01*
X718179Y38700D01*
X718179Y38965D01*
X718164Y39061D01*
X718154Y39158D01*
X718144Y39182D01*
X718140Y39207D01*
X718094Y39293D01*
X718054Y39382D01*
X718037Y39402D01*
X718024Y39425D01*
X717954Y39492D01*
X717888Y39563D01*
X717865Y39576D01*
X717846Y39594D01*
X717758Y39635D01*
X717672Y39682D01*
X717647Y39687D01*
X717623Y39698D01*
X717526Y39708D01*
X717430Y39726D01*
X717404Y39722D01*
X717379Y39725D01*
X717283Y39704D01*
X717187Y39690D01*
X717164Y39678D01*
X717138Y39673D01*
X717055Y39623D01*
X716968Y39578D01*
X716949Y39560D01*
X716927Y39546D01*
X716864Y39472D01*
X716796Y39403D01*
X716780Y39374D01*
X716767Y39359D01*
X716755Y39329D01*
X716715Y39256D01*
X716148Y37888D01*
X713112Y34852D01*
X709146Y33209D01*
X704854Y33209D01*
X700888Y34852D01*
X697852Y37888D01*
X697323Y39165D01*
X697261Y39265D01*
X697201Y39365D01*
X697196Y39369D01*
X697193Y39374D01*
X697103Y39449D01*
X697014Y39525D01*
X697009Y39527D01*
X697004Y39531D01*
X696895Y39573D01*
X696786Y39617D01*
X696779Y39618D01*
X696774Y39619D01*
X696756Y39620D01*
X696619Y39635D01*
X684202Y39635D01*
X684182Y39632D01*
X684163Y39634D01*
X684061Y39612D01*
X683959Y39596D01*
X683942Y39586D01*
X683922Y39582D01*
X683833Y39529D01*
X683742Y39480D01*
X683728Y39466D01*
X683711Y39456D01*
X683644Y39377D01*
X683572Y39302D01*
X683564Y39284D01*
X683551Y39269D01*
X683512Y39173D01*
X683469Y39079D01*
X683467Y39059D01*
X683459Y39041D01*
X683441Y38874D01*
X683441Y37148D01*
X681952Y35659D01*
X669848Y35659D01*
X668359Y37148D01*
X668359Y38874D01*
X668356Y38894D01*
X668358Y38913D01*
X668336Y39015D01*
X668320Y39117D01*
X668310Y39134D01*
X668306Y39154D01*
X668253Y39243D01*
X668204Y39334D01*
X668190Y39348D01*
X668180Y39365D01*
X668101Y39432D01*
X668026Y39504D01*
X668008Y39512D01*
X667993Y39525D01*
X667897Y39564D01*
X667803Y39607D01*
X667783Y39609D01*
X667765Y39617D01*
X667598Y39635D01*
X661616Y39635D01*
X575639Y125612D01*
X575565Y125665D01*
X575496Y125725D01*
X575466Y125737D01*
X575440Y125756D01*
X575353Y125783D01*
X575268Y125817D01*
X575227Y125821D01*
X575204Y125828D01*
X575172Y125827D01*
X575101Y125835D01*
X563443Y125835D01*
X563328Y125816D01*
X563212Y125799D01*
X563206Y125797D01*
X563200Y125796D01*
X563098Y125741D01*
X562993Y125688D01*
X562988Y125683D01*
X562983Y125680D01*
X562903Y125596D01*
X562820Y125512D01*
X562817Y125506D01*
X562813Y125502D01*
X562806Y125485D01*
X562740Y125365D01*
X562234Y124144D01*
X559376Y121286D01*
X555641Y119739D01*
X536359Y119739D01*
X532624Y121286D01*
X529766Y124144D01*
X528219Y127879D01*
X528219Y131921D01*
X529766Y135656D01*
X532624Y138514D01*
X536359Y140061D01*
X555641Y140061D01*
X559376Y138514D01*
X562234Y135656D01*
X562740Y134435D01*
X562801Y134335D01*
X562861Y134235D01*
X562866Y134231D01*
X562869Y134226D01*
X562959Y134151D01*
X563048Y134075D01*
X563054Y134073D01*
X563059Y134069D01*
X563167Y134027D01*
X563276Y133983D01*
X563284Y133982D01*
X563288Y133981D01*
X563307Y133980D01*
X563443Y133965D01*
X578784Y133965D01*
X664761Y47988D01*
X664835Y47935D01*
X664904Y47875D01*
X664934Y47863D01*
X664960Y47844D01*
X665047Y47817D01*
X665132Y47783D01*
X665173Y47779D01*
X665196Y47772D01*
X665228Y47773D01*
X665299Y47765D01*
X667598Y47765D01*
X667618Y47768D01*
X667637Y47766D01*
X667739Y47788D01*
X667841Y47804D01*
X667858Y47814D01*
X667878Y47818D01*
X667967Y47871D01*
X668058Y47920D01*
X668072Y47934D01*
X668089Y47944D01*
X668156Y48023D01*
X668228Y48098D01*
X668236Y48116D01*
X668249Y48131D01*
X668288Y48227D01*
X668331Y48321D01*
X668333Y48341D01*
X668341Y48359D01*
X668359Y48526D01*
X668359Y50252D01*
X669864Y51758D01*
X669909Y51820D01*
X669938Y51850D01*
X669950Y51876D01*
X670004Y51950D01*
X670006Y51954D01*
X670008Y51957D01*
X670043Y52070D01*
X670079Y52184D01*
X670079Y52188D01*
X670080Y52192D01*
X670077Y52309D01*
X670075Y52430D01*
X670074Y52434D01*
X670074Y52438D01*
X670034Y52549D01*
X669994Y52662D01*
X669991Y52665D01*
X669990Y52669D01*
X669915Y52763D01*
X669842Y52856D01*
X669838Y52859D01*
X669836Y52861D01*
X669824Y52869D01*
X669707Y52955D01*
X669340Y53167D01*
X668867Y53640D01*
X668532Y54219D01*
X668359Y54866D01*
X668359Y59177D01*
X675138Y59177D01*
X675158Y59180D01*
X675177Y59178D01*
X675279Y59200D01*
X675381Y59217D01*
X675398Y59226D01*
X675418Y59230D01*
X675507Y59283D01*
X675598Y59332D01*
X675612Y59346D01*
X675629Y59356D01*
X675696Y59435D01*
X675767Y59510D01*
X675776Y59528D01*
X675789Y59543D01*
X675828Y59639D01*
X675871Y59733D01*
X675873Y59753D01*
X675881Y59771D01*
X675899Y59938D01*
X675899Y60701D01*
X675901Y60701D01*
X675901Y59938D01*
X675904Y59918D01*
X675902Y59899D01*
X675924Y59797D01*
X675941Y59695D01*
X675950Y59678D01*
X675954Y59658D01*
X676007Y59569D01*
X676056Y59478D01*
X676070Y59464D01*
X676080Y59447D01*
X676159Y59380D01*
X676234Y59309D01*
X676252Y59300D01*
X676267Y59287D01*
X676363Y59248D01*
X676457Y59205D01*
X676477Y59203D01*
X676495Y59195D01*
X676662Y59177D01*
X683441Y59177D01*
X683441Y54866D01*
X683268Y54219D01*
X682933Y53640D01*
X682460Y53167D01*
X682093Y52955D01*
X682000Y52879D01*
X681908Y52806D01*
X681906Y52802D01*
X681903Y52799D01*
X681839Y52698D01*
X681775Y52599D01*
X681774Y52595D01*
X681772Y52591D01*
X681744Y52475D01*
X681715Y52360D01*
X681716Y52356D01*
X681715Y52352D01*
X681725Y52233D01*
X681734Y52115D01*
X681736Y52111D01*
X681736Y52107D01*
X681783Y52000D01*
X681784Y51998D01*
X681785Y51996D01*
X681831Y51889D01*
X681834Y51885D01*
X681835Y51882D01*
X681845Y51871D01*
X681904Y51797D01*
X681910Y51787D01*
X681916Y51782D01*
X681936Y51758D01*
X683441Y50252D01*
X683441Y48526D01*
X683444Y48506D01*
X683442Y48487D01*
X683464Y48385D01*
X683480Y48283D01*
X683490Y48266D01*
X683494Y48246D01*
X683547Y48157D01*
X683596Y48066D01*
X683610Y48052D01*
X683620Y48035D01*
X683699Y47968D01*
X683774Y47896D01*
X683792Y47888D01*
X683807Y47875D01*
X683903Y47836D01*
X683997Y47793D01*
X684017Y47791D01*
X684035Y47783D01*
X684202Y47765D01*
X696371Y47765D01*
X696486Y47784D01*
X696602Y47801D01*
X696608Y47803D01*
X696614Y47804D01*
X696716Y47859D01*
X696821Y47912D01*
X696826Y47917D01*
X696831Y47920D01*
X696911Y48004D01*
X696993Y48088D01*
X696997Y48094D01*
X697000Y48098D01*
X697008Y48115D01*
X697074Y48235D01*
X697852Y50112D01*
X700888Y53148D01*
X704854Y54791D01*
X709146Y54791D01*
X713112Y53148D01*
X716148Y50112D01*
X716960Y48152D01*
X716998Y48091D01*
X717027Y48025D01*
X717062Y47987D01*
X717090Y47943D01*
X717145Y47897D01*
X717193Y47844D01*
X717239Y47819D01*
X717279Y47786D01*
X717346Y47760D01*
X717409Y47726D01*
X717460Y47716D01*
X717509Y47698D01*
X717580Y47695D01*
X717651Y47682D01*
X717702Y47690D01*
X717754Y47687D01*
X717823Y47707D01*
X717894Y47718D01*
X717941Y47741D01*
X717991Y47756D01*
X718050Y47797D01*
X718114Y47829D01*
X718150Y47867D01*
X718193Y47896D01*
X718236Y47954D01*
X718286Y48005D01*
X718320Y48068D01*
X718340Y48094D01*
X718347Y48116D01*
X718367Y48152D01*
X721623Y56014D01*
X727986Y62377D01*
X736300Y65821D01*
X745300Y65821D01*
X753614Y62377D01*
X759977Y56014D01*
X763421Y47700D01*
X763421Y38700D01*
X759977Y30386D01*
X753614Y24023D01*
X745300Y20579D01*
X736300Y20579D01*
G37*
%LPD*%
%LPC*%
G36*
X1001453Y57215D02*
X1001453Y57215D01*
X1001453Y63993D01*
X1001450Y64013D01*
X1001452Y64033D01*
X1001430Y64134D01*
X1001413Y64236D01*
X1001404Y64254D01*
X1001400Y64273D01*
X1001347Y64362D01*
X1001298Y64453D01*
X1001284Y64467D01*
X1001274Y64484D01*
X1001195Y64552D01*
X1001120Y64623D01*
X1001102Y64631D01*
X1001087Y64644D01*
X1000990Y64683D01*
X1000897Y64726D01*
X1000877Y64729D01*
X1000859Y64736D01*
X1000692Y64755D01*
X999929Y64755D01*
X999929Y64756D01*
X1000692Y64756D01*
X1000712Y64759D01*
X1000731Y64757D01*
X1000833Y64779D01*
X1000935Y64796D01*
X1000952Y64805D01*
X1000972Y64810D01*
X1001061Y64863D01*
X1001152Y64911D01*
X1001166Y64925D01*
X1001183Y64936D01*
X1001250Y65014D01*
X1001321Y65089D01*
X1001330Y65107D01*
X1001343Y65123D01*
X1001381Y65219D01*
X1001425Y65312D01*
X1001427Y65332D01*
X1001435Y65351D01*
X1001453Y65517D01*
X1001453Y72296D01*
X1005764Y72296D01*
X1006411Y72123D01*
X1006990Y71788D01*
X1007463Y71316D01*
X1007675Y70949D01*
X1007751Y70855D01*
X1007824Y70764D01*
X1007828Y70761D01*
X1007831Y70758D01*
X1007932Y70695D01*
X1008031Y70631D01*
X1008035Y70630D01*
X1008039Y70627D01*
X1008155Y70600D01*
X1008270Y70571D01*
X1008274Y70571D01*
X1008278Y70570D01*
X1008397Y70581D01*
X1008515Y70590D01*
X1008519Y70591D01*
X1008523Y70592D01*
X1008633Y70640D01*
X1008741Y70686D01*
X1008745Y70689D01*
X1008748Y70691D01*
X1008759Y70700D01*
X1008872Y70791D01*
X1010377Y72296D01*
X1012104Y72296D01*
X1012124Y72299D01*
X1012143Y72297D01*
X1012245Y72319D01*
X1012347Y72336D01*
X1012364Y72345D01*
X1012384Y72349D01*
X1012473Y72403D01*
X1012564Y72451D01*
X1012578Y72465D01*
X1012595Y72476D01*
X1012662Y72554D01*
X1012733Y72629D01*
X1012742Y72647D01*
X1012755Y72662D01*
X1012794Y72759D01*
X1012837Y72852D01*
X1012839Y72872D01*
X1012847Y72891D01*
X1012865Y73057D01*
X1012865Y76071D01*
X1012850Y76161D01*
X1012843Y76252D01*
X1012831Y76282D01*
X1012825Y76314D01*
X1012783Y76395D01*
X1012747Y76478D01*
X1012721Y76511D01*
X1012710Y76531D01*
X1012687Y76553D01*
X1012642Y76609D01*
X957839Y131412D01*
X957765Y131465D01*
X957696Y131525D01*
X957666Y131537D01*
X957640Y131556D01*
X957553Y131583D01*
X957468Y131617D01*
X957427Y131621D01*
X957404Y131628D01*
X957372Y131627D01*
X957301Y131635D01*
X941305Y131635D01*
X941190Y131616D01*
X941074Y131599D01*
X941068Y131597D01*
X941062Y131596D01*
X940959Y131541D01*
X940855Y131488D01*
X940850Y131483D01*
X940845Y131480D01*
X940765Y131396D01*
X940682Y131312D01*
X940679Y131306D01*
X940675Y131302D01*
X940667Y131285D01*
X940601Y131165D01*
X939948Y129588D01*
X936912Y126552D01*
X932946Y124909D01*
X928654Y124909D01*
X924688Y126552D01*
X921652Y129588D01*
X920009Y133554D01*
X920009Y137846D01*
X921652Y141812D01*
X924688Y144848D01*
X926265Y145501D01*
X926365Y145563D01*
X926465Y145623D01*
X926469Y145628D01*
X926474Y145631D01*
X926549Y145721D01*
X926625Y145810D01*
X926627Y145816D01*
X926631Y145821D01*
X926673Y145929D01*
X926717Y146038D01*
X926718Y146046D01*
X926719Y146050D01*
X926720Y146068D01*
X926735Y146205D01*
X926735Y162484D01*
X960816Y196565D01*
X992198Y196565D01*
X992218Y196568D01*
X992237Y196566D01*
X992339Y196588D01*
X992441Y196604D01*
X992458Y196614D01*
X992478Y196618D01*
X992567Y196671D01*
X992658Y196720D01*
X992672Y196734D01*
X992689Y196744D01*
X992756Y196823D01*
X992828Y196898D01*
X992836Y196916D01*
X992849Y196931D01*
X992888Y197027D01*
X992931Y197121D01*
X992933Y197141D01*
X992941Y197159D01*
X992959Y197326D01*
X992959Y199052D01*
X994448Y200541D01*
X1006552Y200541D01*
X1008041Y199052D01*
X1008041Y185948D01*
X1006552Y184459D01*
X994448Y184459D01*
X992959Y185948D01*
X992959Y187674D01*
X992956Y187694D01*
X992958Y187713D01*
X992936Y187815D01*
X992920Y187917D01*
X992910Y187934D01*
X992906Y187954D01*
X992853Y188043D01*
X992804Y188134D01*
X992790Y188148D01*
X992780Y188165D01*
X992701Y188232D01*
X992626Y188304D01*
X992608Y188312D01*
X992593Y188325D01*
X992497Y188364D01*
X992403Y188407D01*
X992383Y188409D01*
X992365Y188417D01*
X992198Y188435D01*
X964499Y188435D01*
X964409Y188421D01*
X964318Y188413D01*
X964288Y188401D01*
X964256Y188396D01*
X964176Y188353D01*
X964092Y188317D01*
X964060Y188291D01*
X964039Y188280D01*
X964017Y188257D01*
X963961Y188212D01*
X935088Y159339D01*
X935035Y159265D01*
X934975Y159196D01*
X934963Y159166D01*
X934944Y159140D01*
X934917Y159053D01*
X934883Y158968D01*
X934879Y158927D01*
X934872Y158904D01*
X934873Y158872D01*
X934865Y158801D01*
X934865Y146205D01*
X934884Y146089D01*
X934901Y145974D01*
X934903Y145968D01*
X934904Y145962D01*
X934959Y145859D01*
X935012Y145755D01*
X935017Y145750D01*
X935020Y145745D01*
X935104Y145665D01*
X935188Y145582D01*
X935194Y145579D01*
X935198Y145575D01*
X935215Y145567D01*
X935335Y145501D01*
X936912Y144848D01*
X939948Y141812D01*
X940601Y140235D01*
X940663Y140135D01*
X940723Y140035D01*
X940728Y140031D01*
X940731Y140026D01*
X940821Y139951D01*
X940910Y139875D01*
X940916Y139873D01*
X940921Y139869D01*
X941029Y139827D01*
X941138Y139783D01*
X941146Y139782D01*
X941150Y139781D01*
X941168Y139780D01*
X941305Y139765D01*
X960984Y139765D01*
X1020995Y79754D01*
X1020995Y73057D01*
X1020998Y73038D01*
X1020996Y73018D01*
X1021018Y72917D01*
X1021034Y72815D01*
X1021044Y72797D01*
X1021048Y72778D01*
X1021101Y72689D01*
X1021149Y72597D01*
X1021164Y72584D01*
X1021174Y72566D01*
X1021253Y72499D01*
X1021328Y72428D01*
X1021346Y72419D01*
X1021361Y72407D01*
X1021457Y72368D01*
X1021551Y72324D01*
X1021571Y72322D01*
X1021589Y72315D01*
X1021756Y72296D01*
X1023482Y72296D01*
X1024971Y70808D01*
X1024971Y69581D01*
X1024974Y69562D01*
X1024972Y69542D01*
X1024994Y69441D01*
X1025010Y69339D01*
X1025020Y69321D01*
X1025024Y69302D01*
X1025077Y69213D01*
X1025125Y69121D01*
X1025140Y69108D01*
X1025150Y69090D01*
X1025229Y69023D01*
X1025304Y68952D01*
X1025322Y68943D01*
X1025337Y68931D01*
X1025433Y68892D01*
X1025527Y68848D01*
X1025547Y68846D01*
X1025565Y68839D01*
X1025732Y68820D01*
X1045621Y68820D01*
X1045641Y68823D01*
X1045661Y68821D01*
X1045762Y68843D01*
X1045864Y68860D01*
X1045882Y68869D01*
X1045901Y68873D01*
X1045990Y68927D01*
X1046082Y68975D01*
X1046095Y68989D01*
X1046112Y69000D01*
X1046180Y69078D01*
X1046251Y69153D01*
X1046259Y69171D01*
X1046272Y69186D01*
X1046311Y69283D01*
X1046355Y69376D01*
X1046357Y69396D01*
X1046364Y69415D01*
X1046383Y69581D01*
X1046383Y71056D01*
X1047917Y74761D01*
X1050753Y77596D01*
X1054458Y79131D01*
X1058469Y79131D01*
X1062174Y77596D01*
X1065009Y74761D01*
X1066544Y71056D01*
X1066544Y67045D01*
X1065009Y63340D01*
X1062174Y60504D01*
X1058469Y58970D01*
X1054458Y58970D01*
X1050719Y60519D01*
X1050716Y60521D01*
X1050646Y60580D01*
X1050616Y60592D01*
X1050590Y60611D01*
X1050503Y60638D01*
X1050418Y60672D01*
X1050377Y60677D01*
X1050355Y60684D01*
X1050323Y60683D01*
X1050252Y60691D01*
X1025732Y60691D01*
X1025712Y60687D01*
X1025692Y60690D01*
X1025591Y60668D01*
X1025489Y60651D01*
X1025472Y60642D01*
X1025452Y60637D01*
X1025363Y60584D01*
X1025272Y60536D01*
X1025258Y60521D01*
X1025241Y60511D01*
X1025174Y60432D01*
X1025102Y60357D01*
X1025094Y60339D01*
X1025081Y60324D01*
X1025042Y60228D01*
X1024999Y60134D01*
X1024997Y60115D01*
X1024989Y60096D01*
X1024971Y59929D01*
X1024971Y58703D01*
X1023482Y57215D01*
X1010377Y57215D01*
X1008872Y58720D01*
X1008777Y58788D01*
X1008680Y58860D01*
X1008676Y58861D01*
X1008673Y58863D01*
X1008560Y58898D01*
X1008446Y58935D01*
X1008441Y58935D01*
X1008438Y58936D01*
X1008319Y58933D01*
X1008200Y58931D01*
X1008196Y58929D01*
X1008192Y58929D01*
X1008080Y58888D01*
X1007968Y58849D01*
X1007965Y58846D01*
X1007961Y58845D01*
X1007867Y58770D01*
X1007774Y58697D01*
X1007771Y58693D01*
X1007769Y58691D01*
X1007761Y58680D01*
X1007675Y58562D01*
X1007463Y58195D01*
X1006990Y57722D01*
X1006411Y57388D01*
X1005764Y57215D01*
X1001453Y57215D01*
G37*
%LPD*%
%LPC*%
G36*
X1112999Y71499D02*
X1112999Y71499D01*
X1112999Y72262D01*
X1112996Y72282D01*
X1112998Y72301D01*
X1112976Y72403D01*
X1112959Y72505D01*
X1112950Y72522D01*
X1112946Y72542D01*
X1112893Y72631D01*
X1112844Y72722D01*
X1112830Y72736D01*
X1112820Y72753D01*
X1112741Y72820D01*
X1112666Y72891D01*
X1112648Y72900D01*
X1112633Y72913D01*
X1112537Y72952D01*
X1112443Y72995D01*
X1112423Y72997D01*
X1112405Y73005D01*
X1112238Y73023D01*
X1105459Y73023D01*
X1105459Y77334D01*
X1105632Y77981D01*
X1105967Y78560D01*
X1106440Y79033D01*
X1106807Y79245D01*
X1106900Y79321D01*
X1106992Y79394D01*
X1106994Y79398D01*
X1106997Y79401D01*
X1107060Y79501D01*
X1107125Y79601D01*
X1107126Y79605D01*
X1107128Y79609D01*
X1107156Y79725D01*
X1107185Y79840D01*
X1107184Y79844D01*
X1107185Y79848D01*
X1107175Y79967D01*
X1107166Y80085D01*
X1107164Y80089D01*
X1107164Y80093D01*
X1107116Y80202D01*
X1107069Y80311D01*
X1107066Y80315D01*
X1107065Y80318D01*
X1107055Y80329D01*
X1106964Y80442D01*
X1105459Y81948D01*
X1105459Y83674D01*
X1105456Y83694D01*
X1105458Y83713D01*
X1105436Y83815D01*
X1105420Y83917D01*
X1105410Y83934D01*
X1105406Y83954D01*
X1105353Y84043D01*
X1105304Y84134D01*
X1105290Y84148D01*
X1105280Y84165D01*
X1105201Y84232D01*
X1105126Y84304D01*
X1105108Y84312D01*
X1105093Y84325D01*
X1104997Y84364D01*
X1104903Y84407D01*
X1104883Y84409D01*
X1104865Y84417D01*
X1104698Y84435D01*
X1085258Y84435D01*
X1085193Y84425D01*
X1085127Y84424D01*
X1085047Y84401D01*
X1085015Y84396D01*
X1084998Y84386D01*
X1084966Y84377D01*
X1082146Y83209D01*
X1077854Y83209D01*
X1073888Y84852D01*
X1070852Y87888D01*
X1069209Y91854D01*
X1069209Y96146D01*
X1070852Y100112D01*
X1073888Y103148D01*
X1077854Y104791D01*
X1082146Y104791D01*
X1086112Y103148D01*
X1089148Y100112D01*
X1090791Y96146D01*
X1090791Y93326D01*
X1090794Y93306D01*
X1090792Y93287D01*
X1090814Y93185D01*
X1090830Y93083D01*
X1090840Y93066D01*
X1090844Y93046D01*
X1090897Y92957D01*
X1090946Y92866D01*
X1090960Y92852D01*
X1090970Y92835D01*
X1091049Y92768D01*
X1091124Y92696D01*
X1091142Y92688D01*
X1091157Y92675D01*
X1091253Y92636D01*
X1091347Y92593D01*
X1091367Y92591D01*
X1091385Y92583D01*
X1091552Y92565D01*
X1104698Y92565D01*
X1104718Y92568D01*
X1104737Y92566D01*
X1104839Y92588D01*
X1104941Y92604D01*
X1104958Y92614D01*
X1104978Y92618D01*
X1105067Y92671D01*
X1105158Y92720D01*
X1105172Y92734D01*
X1105189Y92744D01*
X1105256Y92823D01*
X1105328Y92898D01*
X1105336Y92916D01*
X1105349Y92931D01*
X1105388Y93027D01*
X1105431Y93121D01*
X1105433Y93141D01*
X1105441Y93159D01*
X1105459Y93326D01*
X1105459Y95052D01*
X1106948Y96541D01*
X1119052Y96541D01*
X1120541Y95052D01*
X1120541Y92826D01*
X1120544Y92806D01*
X1120542Y92787D01*
X1120564Y92685D01*
X1120580Y92583D01*
X1120590Y92566D01*
X1120594Y92546D01*
X1120647Y92457D01*
X1120696Y92366D01*
X1120710Y92352D01*
X1120720Y92335D01*
X1120799Y92268D01*
X1120874Y92196D01*
X1120892Y92188D01*
X1120907Y92175D01*
X1121003Y92136D01*
X1121097Y92093D01*
X1121117Y92091D01*
X1121135Y92083D01*
X1121302Y92065D01*
X1189001Y92065D01*
X1189091Y92079D01*
X1189182Y92087D01*
X1189212Y92099D01*
X1189244Y92104D01*
X1189324Y92147D01*
X1189408Y92183D01*
X1189440Y92209D01*
X1189461Y92220D01*
X1189483Y92243D01*
X1189539Y92288D01*
X1234216Y136965D01*
X1242557Y136965D01*
X1242672Y136984D01*
X1242788Y137001D01*
X1242794Y137003D01*
X1242800Y137004D01*
X1242902Y137059D01*
X1243007Y137112D01*
X1243012Y137117D01*
X1243017Y137120D01*
X1243097Y137204D01*
X1243180Y137288D01*
X1243183Y137294D01*
X1243187Y137298D01*
X1243194Y137315D01*
X1243260Y137435D01*
X1243766Y138656D01*
X1246624Y141514D01*
X1250359Y143061D01*
X1269641Y143061D01*
X1273376Y141514D01*
X1276234Y138656D01*
X1277781Y134921D01*
X1277781Y130879D01*
X1276234Y127144D01*
X1273376Y124286D01*
X1269641Y122739D01*
X1250359Y122739D01*
X1246624Y124286D01*
X1243766Y127144D01*
X1243260Y128365D01*
X1243199Y128464D01*
X1243139Y128565D01*
X1243134Y128569D01*
X1243131Y128574D01*
X1243040Y128649D01*
X1242952Y128725D01*
X1242946Y128727D01*
X1242941Y128731D01*
X1242833Y128773D01*
X1242724Y128817D01*
X1242716Y128818D01*
X1242712Y128819D01*
X1242693Y128820D01*
X1242557Y128835D01*
X1237899Y128835D01*
X1237809Y128821D01*
X1237718Y128813D01*
X1237688Y128801D01*
X1237656Y128796D01*
X1237576Y128753D01*
X1237492Y128717D01*
X1237460Y128691D01*
X1237439Y128680D01*
X1237417Y128657D01*
X1237361Y128612D01*
X1192684Y83935D01*
X1121302Y83935D01*
X1121282Y83932D01*
X1121263Y83934D01*
X1121161Y83912D01*
X1121059Y83896D01*
X1121042Y83886D01*
X1121022Y83882D01*
X1120933Y83829D01*
X1120842Y83780D01*
X1120828Y83766D01*
X1120811Y83756D01*
X1120744Y83677D01*
X1120672Y83602D01*
X1120664Y83584D01*
X1120651Y83569D01*
X1120612Y83473D01*
X1120569Y83379D01*
X1120567Y83359D01*
X1120559Y83341D01*
X1120541Y83174D01*
X1120541Y81948D01*
X1119036Y80442D01*
X1118967Y80347D01*
X1118896Y80250D01*
X1118894Y80246D01*
X1118892Y80243D01*
X1118857Y80130D01*
X1118821Y80016D01*
X1118821Y80012D01*
X1118820Y80008D01*
X1118823Y79888D01*
X1118825Y79770D01*
X1118826Y79766D01*
X1118826Y79762D01*
X1118867Y79650D01*
X1118906Y79538D01*
X1118909Y79535D01*
X1118910Y79531D01*
X1118985Y79437D01*
X1119058Y79344D01*
X1119062Y79341D01*
X1119064Y79339D01*
X1119076Y79331D01*
X1119193Y79245D01*
X1119560Y79033D01*
X1120033Y78560D01*
X1120368Y77981D01*
X1120541Y77334D01*
X1120541Y73023D01*
X1113762Y73023D01*
X1113742Y73020D01*
X1113723Y73022D01*
X1113621Y73000D01*
X1113519Y72983D01*
X1113502Y72974D01*
X1113482Y72970D01*
X1113393Y72917D01*
X1113302Y72868D01*
X1113288Y72854D01*
X1113271Y72844D01*
X1113204Y72765D01*
X1113133Y72690D01*
X1113124Y72672D01*
X1113111Y72657D01*
X1113072Y72561D01*
X1113029Y72467D01*
X1113027Y72447D01*
X1113019Y72429D01*
X1113001Y72262D01*
X1113001Y71499D01*
X1112999Y71499D01*
G37*
%LPD*%
%LPC*%
G36*
X993300Y128579D02*
X993300Y128579D01*
X984986Y132023D01*
X978623Y138386D01*
X975179Y146700D01*
X975179Y155700D01*
X978623Y164014D01*
X984986Y170377D01*
X993300Y173821D01*
X1002300Y173821D01*
X1010614Y170377D01*
X1016977Y164014D01*
X1020421Y155700D01*
X1020421Y146700D01*
X1016977Y138386D01*
X1010614Y132023D01*
X1002300Y128579D01*
X993300Y128579D01*
G37*
%LPD*%
%LPC*%
G36*
X735300Y168579D02*
X735300Y168579D01*
X726986Y172023D01*
X720623Y178386D01*
X717179Y186700D01*
X717179Y195700D01*
X720623Y204014D01*
X726986Y210377D01*
X735300Y213821D01*
X744300Y213821D01*
X752614Y210377D01*
X758977Y204014D01*
X762421Y195700D01*
X762421Y186700D01*
X758977Y178386D01*
X752614Y172023D01*
X744300Y168579D01*
X735300Y168579D01*
G37*
%LPD*%
G36*
X1216591Y199579D02*
X1216591Y199579D01*
X1216682Y199587D01*
X1216712Y199599D01*
X1216744Y199604D01*
X1216824Y199647D01*
X1216908Y199683D01*
X1216940Y199709D01*
X1216961Y199720D01*
X1216983Y199743D01*
X1217039Y199788D01*
X1230416Y213165D01*
X1242557Y213165D01*
X1242672Y213184D01*
X1242788Y213201D01*
X1242794Y213203D01*
X1242800Y213204D01*
X1242902Y213259D01*
X1243007Y213312D01*
X1243012Y213317D01*
X1243017Y213320D01*
X1243097Y213404D01*
X1243180Y213488D01*
X1243183Y213494D01*
X1243187Y213498D01*
X1243194Y213515D01*
X1243260Y213635D01*
X1243766Y214856D01*
X1246624Y217714D01*
X1248413Y218455D01*
X1248496Y218506D01*
X1248582Y218552D01*
X1248600Y218570D01*
X1248622Y218584D01*
X1248684Y218660D01*
X1248751Y218730D01*
X1248762Y218754D01*
X1248779Y218774D01*
X1248814Y218865D01*
X1248855Y218953D01*
X1248858Y218979D01*
X1248867Y219003D01*
X1248871Y219101D01*
X1248882Y219197D01*
X1248876Y219223D01*
X1248878Y219249D01*
X1248850Y219343D01*
X1248830Y219438D01*
X1248816Y219460D01*
X1248809Y219485D01*
X1248753Y219565D01*
X1248704Y219649D01*
X1248684Y219666D01*
X1248669Y219687D01*
X1248591Y219746D01*
X1248517Y219809D01*
X1248492Y219819D01*
X1248471Y219834D01*
X1248379Y219864D01*
X1248288Y219901D01*
X1248256Y219904D01*
X1248237Y219910D01*
X1248204Y219910D01*
X1248122Y219919D01*
X1194387Y219919D01*
X1194371Y219917D01*
X1194355Y219919D01*
X1194250Y219897D01*
X1194144Y219880D01*
X1194130Y219872D01*
X1194114Y219869D01*
X1194021Y219815D01*
X1193926Y219764D01*
X1193915Y219753D01*
X1193902Y219745D01*
X1193831Y219664D01*
X1193757Y219586D01*
X1193750Y219572D01*
X1193740Y219560D01*
X1193699Y219461D01*
X1193653Y219363D01*
X1193652Y219347D01*
X1193646Y219332D01*
X1193638Y219225D01*
X1193626Y219119D01*
X1193630Y219103D01*
X1193629Y219087D01*
X1193663Y218923D01*
X1194157Y217402D01*
X1194358Y216129D01*
X1183274Y216129D01*
X1183254Y216126D01*
X1183235Y216128D01*
X1183133Y216106D01*
X1183031Y216089D01*
X1183014Y216080D01*
X1182994Y216076D01*
X1182905Y216023D01*
X1182814Y215974D01*
X1182800Y215960D01*
X1182783Y215950D01*
X1182716Y215871D01*
X1182645Y215796D01*
X1182636Y215778D01*
X1182623Y215763D01*
X1182585Y215667D01*
X1182541Y215573D01*
X1182539Y215553D01*
X1182531Y215535D01*
X1182513Y215368D01*
X1182513Y214605D01*
X1182511Y214605D01*
X1182511Y215368D01*
X1182508Y215388D01*
X1182510Y215407D01*
X1182488Y215509D01*
X1182471Y215611D01*
X1182462Y215628D01*
X1182458Y215648D01*
X1182405Y215737D01*
X1182356Y215828D01*
X1182342Y215842D01*
X1182332Y215859D01*
X1182253Y215926D01*
X1182178Y215997D01*
X1182160Y216006D01*
X1182145Y216019D01*
X1182049Y216058D01*
X1181955Y216101D01*
X1181935Y216103D01*
X1181917Y216111D01*
X1181750Y216129D01*
X1170666Y216129D01*
X1170867Y217402D01*
X1171361Y218923D01*
X1171364Y218939D01*
X1171371Y218953D01*
X1171382Y219059D01*
X1171399Y219166D01*
X1171396Y219182D01*
X1171398Y219197D01*
X1171375Y219302D01*
X1171356Y219408D01*
X1171349Y219422D01*
X1171345Y219438D01*
X1171291Y219530D01*
X1171239Y219624D01*
X1171227Y219635D01*
X1171219Y219649D01*
X1171138Y219719D01*
X1171059Y219792D01*
X1171044Y219798D01*
X1171032Y219809D01*
X1170933Y219849D01*
X1170835Y219893D01*
X1170819Y219895D01*
X1170804Y219901D01*
X1170637Y219919D01*
X1158108Y219919D01*
X1157991Y219900D01*
X1157873Y219882D01*
X1157870Y219880D01*
X1157865Y219880D01*
X1157761Y219824D01*
X1157655Y219769D01*
X1157652Y219766D01*
X1157648Y219764D01*
X1157567Y219679D01*
X1157483Y219593D01*
X1157482Y219589D01*
X1157479Y219586D01*
X1157428Y219478D01*
X1157377Y219371D01*
X1157377Y219367D01*
X1157375Y219363D01*
X1157362Y219245D01*
X1157348Y219127D01*
X1157348Y219122D01*
X1157348Y219119D01*
X1157351Y219105D01*
X1157373Y218961D01*
X1157541Y218334D01*
X1157541Y214023D01*
X1150762Y214023D01*
X1150742Y214020D01*
X1150723Y214022D01*
X1150621Y214000D01*
X1150519Y213983D01*
X1150502Y213974D01*
X1150482Y213970D01*
X1150393Y213917D01*
X1150302Y213868D01*
X1150288Y213854D01*
X1150271Y213844D01*
X1150204Y213765D01*
X1150133Y213690D01*
X1150124Y213672D01*
X1150111Y213657D01*
X1150072Y213561D01*
X1150029Y213467D01*
X1150027Y213447D01*
X1150019Y213429D01*
X1150001Y213262D01*
X1150001Y211738D01*
X1150004Y211718D01*
X1150002Y211699D01*
X1150024Y211597D01*
X1150041Y211495D01*
X1150050Y211478D01*
X1150054Y211458D01*
X1150107Y211369D01*
X1150156Y211278D01*
X1150170Y211264D01*
X1150180Y211247D01*
X1150259Y211180D01*
X1150334Y211109D01*
X1150352Y211100D01*
X1150367Y211087D01*
X1150463Y211048D01*
X1150557Y211005D01*
X1150577Y211003D01*
X1150595Y210995D01*
X1150762Y210977D01*
X1157541Y210977D01*
X1157541Y206666D01*
X1157368Y206019D01*
X1157033Y205440D01*
X1156560Y204967D01*
X1156193Y204755D01*
X1156100Y204679D01*
X1156008Y204606D01*
X1156006Y204602D01*
X1156003Y204599D01*
X1155939Y204497D01*
X1155875Y204399D01*
X1155874Y204395D01*
X1155872Y204391D01*
X1155844Y204275D01*
X1155815Y204160D01*
X1155816Y204156D01*
X1155815Y204152D01*
X1155825Y204033D01*
X1155834Y203915D01*
X1155836Y203911D01*
X1155836Y203907D01*
X1155884Y203797D01*
X1155931Y203689D01*
X1155934Y203685D01*
X1155935Y203682D01*
X1155945Y203671D01*
X1156036Y203558D01*
X1157541Y202052D01*
X1157541Y200326D01*
X1157544Y200306D01*
X1157542Y200287D01*
X1157564Y200185D01*
X1157580Y200083D01*
X1157590Y200066D01*
X1157594Y200046D01*
X1157647Y199957D01*
X1157696Y199866D01*
X1157710Y199852D01*
X1157720Y199835D01*
X1157799Y199768D01*
X1157874Y199696D01*
X1157892Y199688D01*
X1157907Y199675D01*
X1158003Y199636D01*
X1158097Y199593D01*
X1158117Y199591D01*
X1158135Y199583D01*
X1158302Y199565D01*
X1216501Y199565D01*
X1216591Y199579D01*
G37*
%LPC*%
G36*
X1143448Y151959D02*
X1143448Y151959D01*
X1141959Y153448D01*
X1141959Y154674D01*
X1141956Y154694D01*
X1141958Y154713D01*
X1141936Y154815D01*
X1141920Y154917D01*
X1141910Y154934D01*
X1141906Y154954D01*
X1141853Y155043D01*
X1141804Y155134D01*
X1141790Y155148D01*
X1141780Y155165D01*
X1141701Y155232D01*
X1141626Y155304D01*
X1141608Y155312D01*
X1141593Y155325D01*
X1141497Y155364D01*
X1141403Y155407D01*
X1141383Y155409D01*
X1141365Y155417D01*
X1141198Y155435D01*
X1125698Y155435D01*
X1122920Y158213D01*
X1122825Y158282D01*
X1122732Y158351D01*
X1122726Y158353D01*
X1122721Y158357D01*
X1122609Y158391D01*
X1122498Y158427D01*
X1122492Y158427D01*
X1122486Y158429D01*
X1122369Y158426D01*
X1122252Y158425D01*
X1122245Y158423D01*
X1122240Y158423D01*
X1122222Y158416D01*
X1122091Y158378D01*
X1119863Y157455D01*
X1115113Y157455D01*
X1110725Y159273D01*
X1107367Y162631D01*
X1105549Y167019D01*
X1105549Y171769D01*
X1107367Y176157D01*
X1110725Y179515D01*
X1115113Y181333D01*
X1119863Y181333D01*
X1124251Y179515D01*
X1127609Y176157D01*
X1129427Y171769D01*
X1129427Y167019D01*
X1128504Y164791D01*
X1128477Y164677D01*
X1128449Y164564D01*
X1128449Y164558D01*
X1128448Y164552D01*
X1128459Y164435D01*
X1128468Y164319D01*
X1128470Y164313D01*
X1128471Y164307D01*
X1128518Y164200D01*
X1128564Y164092D01*
X1128569Y164087D01*
X1128571Y164082D01*
X1128583Y164068D01*
X1128669Y163961D01*
X1128843Y163788D01*
X1128917Y163734D01*
X1128986Y163675D01*
X1129016Y163663D01*
X1129042Y163644D01*
X1129129Y163617D01*
X1129214Y163583D01*
X1129255Y163579D01*
X1129278Y163572D01*
X1129310Y163573D01*
X1129381Y163565D01*
X1141198Y163565D01*
X1141218Y163568D01*
X1141237Y163566D01*
X1141339Y163588D01*
X1141441Y163604D01*
X1141458Y163614D01*
X1141478Y163618D01*
X1141567Y163671D01*
X1141658Y163720D01*
X1141672Y163734D01*
X1141689Y163744D01*
X1141756Y163823D01*
X1141828Y163898D01*
X1141836Y163916D01*
X1141849Y163931D01*
X1141888Y164027D01*
X1141931Y164121D01*
X1141933Y164141D01*
X1141941Y164159D01*
X1141959Y164326D01*
X1141959Y165552D01*
X1143448Y167041D01*
X1156552Y167041D01*
X1158041Y165552D01*
X1158041Y164326D01*
X1158044Y164306D01*
X1158042Y164287D01*
X1158064Y164185D01*
X1158080Y164083D01*
X1158090Y164066D01*
X1158094Y164046D01*
X1158147Y163957D01*
X1158196Y163866D01*
X1158210Y163852D01*
X1158220Y163835D01*
X1158299Y163768D01*
X1158374Y163696D01*
X1158392Y163688D01*
X1158407Y163675D01*
X1158503Y163636D01*
X1158597Y163593D01*
X1158617Y163591D01*
X1158635Y163583D01*
X1158802Y163565D01*
X1170619Y163565D01*
X1170709Y163579D01*
X1170800Y163587D01*
X1170830Y163599D01*
X1170862Y163604D01*
X1170942Y163647D01*
X1171026Y163683D01*
X1171059Y163709D01*
X1171079Y163720D01*
X1171101Y163743D01*
X1171157Y163788D01*
X1171331Y163961D01*
X1171400Y164057D01*
X1171469Y164150D01*
X1171471Y164156D01*
X1171475Y164161D01*
X1171509Y164273D01*
X1171545Y164384D01*
X1171545Y164390D01*
X1171547Y164396D01*
X1171544Y164513D01*
X1171543Y164630D01*
X1171541Y164637D01*
X1171541Y164642D01*
X1171534Y164659D01*
X1171496Y164791D01*
X1170573Y167019D01*
X1170573Y171769D01*
X1172391Y176157D01*
X1175749Y179515D01*
X1180137Y181333D01*
X1184887Y181333D01*
X1189275Y179515D01*
X1192633Y176157D01*
X1194451Y171769D01*
X1194451Y167019D01*
X1192633Y162631D01*
X1189275Y159273D01*
X1184887Y157455D01*
X1180137Y157455D01*
X1177909Y158378D01*
X1177795Y158405D01*
X1177682Y158433D01*
X1177676Y158433D01*
X1177670Y158434D01*
X1177553Y158423D01*
X1177437Y158414D01*
X1177431Y158412D01*
X1177425Y158411D01*
X1177318Y158364D01*
X1177210Y158318D01*
X1177205Y158313D01*
X1177200Y158311D01*
X1177186Y158299D01*
X1177080Y158213D01*
X1174302Y155435D01*
X1158802Y155435D01*
X1158782Y155432D01*
X1158763Y155434D01*
X1158661Y155412D01*
X1158559Y155396D01*
X1158542Y155386D01*
X1158522Y155382D01*
X1158433Y155329D01*
X1158342Y155280D01*
X1158328Y155266D01*
X1158311Y155256D01*
X1158244Y155177D01*
X1158172Y155102D01*
X1158164Y155084D01*
X1158151Y155069D01*
X1158112Y154973D01*
X1158069Y154879D01*
X1158067Y154859D01*
X1158059Y154841D01*
X1158041Y154674D01*
X1158041Y153448D01*
X1156552Y151959D01*
X1143448Y151959D01*
G37*
%LPD*%
%LPC*%
G36*
X630448Y151959D02*
X630448Y151959D01*
X628959Y153448D01*
X628959Y154674D01*
X628956Y154694D01*
X628958Y154713D01*
X628936Y154815D01*
X628920Y154917D01*
X628910Y154934D01*
X628906Y154954D01*
X628853Y155043D01*
X628804Y155134D01*
X628790Y155148D01*
X628780Y155165D01*
X628701Y155232D01*
X628626Y155304D01*
X628608Y155312D01*
X628593Y155325D01*
X628497Y155364D01*
X628403Y155407D01*
X628383Y155409D01*
X628365Y155417D01*
X628198Y155435D01*
X612698Y155435D01*
X609920Y158213D01*
X609825Y158282D01*
X609732Y158351D01*
X609726Y158353D01*
X609721Y158357D01*
X609609Y158391D01*
X609498Y158427D01*
X609492Y158427D01*
X609486Y158429D01*
X609369Y158426D01*
X609252Y158425D01*
X609245Y158423D01*
X609240Y158423D01*
X609222Y158416D01*
X609091Y158378D01*
X606863Y157455D01*
X602113Y157455D01*
X597725Y159273D01*
X594367Y162631D01*
X592549Y167019D01*
X592549Y171769D01*
X594367Y176157D01*
X597725Y179515D01*
X602113Y181333D01*
X606863Y181333D01*
X611251Y179515D01*
X614609Y176157D01*
X616427Y171769D01*
X616427Y167019D01*
X615504Y164791D01*
X615477Y164677D01*
X615449Y164564D01*
X615449Y164558D01*
X615448Y164552D01*
X615459Y164435D01*
X615468Y164319D01*
X615470Y164313D01*
X615471Y164307D01*
X615518Y164200D01*
X615564Y164092D01*
X615569Y164087D01*
X615571Y164082D01*
X615583Y164068D01*
X615669Y163961D01*
X615843Y163788D01*
X615917Y163734D01*
X615986Y163675D01*
X616016Y163663D01*
X616042Y163644D01*
X616129Y163617D01*
X616214Y163583D01*
X616255Y163579D01*
X616278Y163572D01*
X616310Y163573D01*
X616381Y163565D01*
X628198Y163565D01*
X628218Y163568D01*
X628237Y163566D01*
X628339Y163588D01*
X628441Y163604D01*
X628458Y163614D01*
X628478Y163618D01*
X628567Y163671D01*
X628658Y163720D01*
X628672Y163734D01*
X628689Y163744D01*
X628756Y163823D01*
X628828Y163898D01*
X628836Y163916D01*
X628849Y163931D01*
X628888Y164027D01*
X628931Y164121D01*
X628933Y164141D01*
X628941Y164159D01*
X628959Y164326D01*
X628959Y165552D01*
X630448Y167041D01*
X643552Y167041D01*
X645041Y165552D01*
X645041Y164326D01*
X645044Y164306D01*
X645042Y164287D01*
X645064Y164185D01*
X645080Y164083D01*
X645090Y164066D01*
X645094Y164046D01*
X645147Y163957D01*
X645196Y163866D01*
X645210Y163852D01*
X645220Y163835D01*
X645299Y163768D01*
X645374Y163696D01*
X645392Y163688D01*
X645407Y163675D01*
X645503Y163636D01*
X645597Y163593D01*
X645617Y163591D01*
X645635Y163583D01*
X645802Y163565D01*
X657619Y163565D01*
X657709Y163579D01*
X657800Y163587D01*
X657830Y163599D01*
X657862Y163604D01*
X657942Y163647D01*
X658026Y163683D01*
X658059Y163709D01*
X658079Y163720D01*
X658101Y163743D01*
X658157Y163788D01*
X658331Y163961D01*
X658400Y164057D01*
X658469Y164150D01*
X658471Y164156D01*
X658475Y164161D01*
X658509Y164273D01*
X658545Y164384D01*
X658545Y164390D01*
X658547Y164396D01*
X658544Y164513D01*
X658543Y164630D01*
X658541Y164637D01*
X658541Y164642D01*
X658534Y164659D01*
X658496Y164791D01*
X657573Y167019D01*
X657573Y171769D01*
X659391Y176157D01*
X662749Y179515D01*
X667137Y181333D01*
X671887Y181333D01*
X676275Y179515D01*
X679633Y176157D01*
X681451Y171769D01*
X681451Y167019D01*
X679633Y162631D01*
X676275Y159273D01*
X671887Y157455D01*
X667137Y157455D01*
X664909Y158378D01*
X664795Y158405D01*
X664682Y158433D01*
X664676Y158433D01*
X664670Y158434D01*
X664553Y158423D01*
X664437Y158414D01*
X664431Y158412D01*
X664425Y158411D01*
X664318Y158364D01*
X664210Y158318D01*
X664205Y158313D01*
X664200Y158311D01*
X664186Y158299D01*
X664080Y158213D01*
X661302Y155435D01*
X645802Y155435D01*
X645782Y155432D01*
X645763Y155434D01*
X645661Y155412D01*
X645559Y155396D01*
X645542Y155386D01*
X645522Y155382D01*
X645433Y155329D01*
X645342Y155280D01*
X645328Y155266D01*
X645311Y155256D01*
X645244Y155177D01*
X645172Y155102D01*
X645164Y155084D01*
X645151Y155069D01*
X645112Y154973D01*
X645069Y154879D01*
X645067Y154859D01*
X645059Y154841D01*
X645041Y154674D01*
X645041Y153448D01*
X643552Y151959D01*
X630448Y151959D01*
G37*
%LPD*%
%LPC*%
G36*
X623007Y112209D02*
X623007Y112209D01*
X617938Y114309D01*
X614059Y118188D01*
X611959Y123257D01*
X611959Y128743D01*
X614059Y133812D01*
X617938Y137691D01*
X623007Y139791D01*
X650993Y139791D01*
X656062Y137691D01*
X659941Y133812D01*
X662041Y128743D01*
X662041Y123257D01*
X659941Y118188D01*
X656062Y114309D01*
X650993Y112209D01*
X623007Y112209D01*
G37*
%LPD*%
%LPC*%
G36*
X1136007Y112209D02*
X1136007Y112209D01*
X1130938Y114309D01*
X1127059Y118188D01*
X1124959Y123257D01*
X1124959Y128743D01*
X1127059Y133812D01*
X1130938Y137691D01*
X1136007Y139791D01*
X1163993Y139791D01*
X1169062Y137691D01*
X1172941Y133812D01*
X1175041Y128743D01*
X1175041Y123257D01*
X1172941Y118188D01*
X1169062Y114309D01*
X1163993Y112209D01*
X1136007Y112209D01*
G37*
%LPD*%
%LPC*%
G36*
X202602Y159919D02*
X202602Y159919D01*
X196325Y162520D01*
X191520Y167325D01*
X188919Y173602D01*
X188919Y180398D01*
X191520Y186675D01*
X196325Y191480D01*
X202602Y194081D01*
X209398Y194081D01*
X215675Y191480D01*
X220480Y186675D01*
X223081Y180398D01*
X223081Y173602D01*
X220480Y167325D01*
X215675Y162520D01*
X209398Y159919D01*
X202602Y159919D01*
G37*
%LPD*%
%LPC*%
G36*
X461602Y30919D02*
X461602Y30919D01*
X455325Y33520D01*
X450520Y38325D01*
X447919Y44602D01*
X447919Y51398D01*
X450520Y57675D01*
X455325Y62480D01*
X461602Y65081D01*
X468398Y65081D01*
X474675Y62480D01*
X479480Y57675D01*
X482081Y51398D01*
X482081Y44602D01*
X479480Y38325D01*
X474675Y33520D01*
X468398Y30919D01*
X461602Y30919D01*
G37*
%LPD*%
%LPC*%
G36*
X88602Y159919D02*
X88602Y159919D01*
X82325Y162520D01*
X77520Y167325D01*
X74919Y173602D01*
X74919Y180398D01*
X77520Y186675D01*
X82325Y191480D01*
X88602Y194081D01*
X95398Y194081D01*
X101675Y191480D01*
X106480Y186675D01*
X109081Y180398D01*
X109081Y173602D01*
X106480Y167325D01*
X101675Y162520D01*
X95398Y159919D01*
X88602Y159919D01*
G37*
%LPD*%
%LPC*%
G36*
X331602Y30919D02*
X331602Y30919D01*
X325325Y33520D01*
X320520Y38325D01*
X317919Y44602D01*
X317919Y51398D01*
X320520Y57675D01*
X325325Y62480D01*
X331602Y65081D01*
X338398Y65081D01*
X344675Y62480D01*
X349480Y57675D01*
X352081Y51398D01*
X352081Y44602D01*
X349480Y38325D01*
X344675Y33520D01*
X338398Y30919D01*
X331602Y30919D01*
G37*
%LPD*%
%LPC*%
G36*
X1341602Y159919D02*
X1341602Y159919D01*
X1335325Y162520D01*
X1330520Y167325D01*
X1327919Y173602D01*
X1327919Y180398D01*
X1330520Y186675D01*
X1335325Y191480D01*
X1341602Y194081D01*
X1348398Y194081D01*
X1354675Y191480D01*
X1359480Y186675D01*
X1362081Y180398D01*
X1362081Y173602D01*
X1359480Y167325D01*
X1354675Y162520D01*
X1348398Y159919D01*
X1341602Y159919D01*
G37*
%LPD*%
%LPC*%
G36*
X331602Y159919D02*
X331602Y159919D01*
X325325Y162520D01*
X320520Y167325D01*
X317919Y173602D01*
X317919Y180398D01*
X320520Y186675D01*
X325325Y191480D01*
X331602Y194081D01*
X338398Y194081D01*
X344675Y191480D01*
X349480Y186675D01*
X352081Y180398D01*
X352081Y173602D01*
X349480Y167325D01*
X344675Y162520D01*
X338398Y159919D01*
X331602Y159919D01*
G37*
%LPD*%
%LPC*%
G36*
X461602Y159919D02*
X461602Y159919D01*
X455325Y162520D01*
X450520Y167325D01*
X447919Y173602D01*
X447919Y180398D01*
X450520Y186675D01*
X455325Y191480D01*
X461602Y194081D01*
X468398Y194081D01*
X474675Y191480D01*
X479480Y186675D01*
X482081Y180398D01*
X482081Y173602D01*
X479480Y167325D01*
X474675Y162520D01*
X468398Y159919D01*
X461602Y159919D01*
G37*
%LPD*%
%LPC*%
G36*
X1455602Y159919D02*
X1455602Y159919D01*
X1449325Y162520D01*
X1444520Y167325D01*
X1441919Y173602D01*
X1441919Y180398D01*
X1444520Y186675D01*
X1449325Y191480D01*
X1455602Y194081D01*
X1462398Y194081D01*
X1468675Y191480D01*
X1473480Y186675D01*
X1476081Y180398D01*
X1476081Y173602D01*
X1473480Y167325D01*
X1468675Y162520D01*
X1462398Y159919D01*
X1455602Y159919D01*
G37*
%LPD*%
%LPC*%
G36*
X88602Y30919D02*
X88602Y30919D01*
X82325Y33520D01*
X77520Y38325D01*
X74919Y44602D01*
X74919Y51398D01*
X77520Y57675D01*
X82325Y62480D01*
X88602Y65081D01*
X95398Y65081D01*
X101675Y62480D01*
X106480Y57675D01*
X109081Y51398D01*
X109081Y44602D01*
X106480Y38325D01*
X101675Y33520D01*
X95398Y30919D01*
X88602Y30919D01*
G37*
%LPD*%
%LPC*%
G36*
X202602Y30919D02*
X202602Y30919D01*
X196325Y33520D01*
X191520Y38325D01*
X188919Y44602D01*
X188919Y51398D01*
X191520Y57675D01*
X196325Y62480D01*
X202602Y65081D01*
X209398Y65081D01*
X215675Y62480D01*
X220480Y57675D01*
X223081Y51398D01*
X223081Y44602D01*
X220480Y38325D01*
X215675Y33520D01*
X209398Y30919D01*
X202602Y30919D01*
G37*
%LPD*%
%LPC*%
G36*
X1455602Y30919D02*
X1455602Y30919D01*
X1449325Y33520D01*
X1444520Y38325D01*
X1441919Y44602D01*
X1441919Y51398D01*
X1444520Y57675D01*
X1449325Y62480D01*
X1455602Y65081D01*
X1462398Y65081D01*
X1468675Y62480D01*
X1473480Y57675D01*
X1476081Y51398D01*
X1476081Y44602D01*
X1473480Y38325D01*
X1468675Y33520D01*
X1462398Y30919D01*
X1455602Y30919D01*
G37*
%LPD*%
%LPC*%
G36*
X1341602Y30919D02*
X1341602Y30919D01*
X1335325Y33520D01*
X1330520Y38325D01*
X1327919Y44602D01*
X1327919Y51398D01*
X1330520Y57675D01*
X1335325Y62480D01*
X1341602Y65081D01*
X1348398Y65081D01*
X1354675Y62480D01*
X1359480Y57675D01*
X1362081Y51398D01*
X1362081Y44602D01*
X1359480Y38325D01*
X1354675Y33520D01*
X1348398Y30919D01*
X1341602Y30919D01*
G37*
%LPD*%
%LPC*%
G36*
X1011448Y184459D02*
X1011448Y184459D01*
X1009959Y185948D01*
X1009959Y199052D01*
X1011448Y200541D01*
X1023552Y200541D01*
X1025041Y199052D01*
X1025041Y197326D01*
X1025044Y197306D01*
X1025042Y197287D01*
X1025064Y197185D01*
X1025080Y197083D01*
X1025090Y197066D01*
X1025094Y197046D01*
X1025147Y196957D01*
X1025196Y196866D01*
X1025210Y196852D01*
X1025220Y196835D01*
X1025299Y196768D01*
X1025374Y196696D01*
X1025392Y196688D01*
X1025407Y196675D01*
X1025503Y196636D01*
X1025597Y196593D01*
X1025617Y196591D01*
X1025635Y196583D01*
X1025802Y196565D01*
X1045621Y196565D01*
X1045641Y196568D01*
X1045661Y196566D01*
X1045762Y196588D01*
X1045864Y196604D01*
X1045882Y196614D01*
X1045901Y196618D01*
X1045990Y196671D01*
X1046082Y196720D01*
X1046095Y196734D01*
X1046112Y196744D01*
X1046180Y196823D01*
X1046251Y196898D01*
X1046259Y196916D01*
X1046272Y196931D01*
X1046311Y197027D01*
X1046355Y197121D01*
X1046357Y197141D01*
X1046364Y197159D01*
X1046383Y197326D01*
X1046383Y198056D01*
X1047917Y201761D01*
X1050753Y204596D01*
X1054458Y206131D01*
X1058469Y206131D01*
X1062174Y204596D01*
X1065009Y201761D01*
X1066544Y198056D01*
X1066544Y194045D01*
X1065009Y190340D01*
X1062174Y187504D01*
X1058469Y185970D01*
X1054458Y185970D01*
X1050753Y187504D01*
X1050045Y188212D01*
X1049971Y188265D01*
X1049902Y188325D01*
X1049872Y188337D01*
X1049846Y188356D01*
X1049759Y188383D01*
X1049674Y188417D01*
X1049633Y188421D01*
X1049610Y188428D01*
X1049578Y188427D01*
X1049507Y188435D01*
X1025802Y188435D01*
X1025782Y188432D01*
X1025763Y188434D01*
X1025661Y188412D01*
X1025559Y188396D01*
X1025542Y188386D01*
X1025522Y188382D01*
X1025433Y188329D01*
X1025342Y188280D01*
X1025328Y188266D01*
X1025311Y188256D01*
X1025244Y188177D01*
X1025172Y188102D01*
X1025164Y188084D01*
X1025151Y188069D01*
X1025112Y187973D01*
X1025069Y187879D01*
X1025067Y187859D01*
X1025059Y187841D01*
X1025041Y187674D01*
X1025041Y185948D01*
X1023552Y184459D01*
X1011448Y184459D01*
G37*
%LPD*%
%LPC*%
G36*
X1410679Y96219D02*
X1410679Y96219D01*
X1406944Y97766D01*
X1404086Y100624D01*
X1402539Y104359D01*
X1402539Y123641D01*
X1404086Y127376D01*
X1406944Y130234D01*
X1410679Y131781D01*
X1414721Y131781D01*
X1418456Y130234D01*
X1421314Y127376D01*
X1422861Y123641D01*
X1422861Y104359D01*
X1421314Y100624D01*
X1418456Y97766D01*
X1414721Y96219D01*
X1410679Y96219D01*
G37*
%LPD*%
%LPC*%
G36*
X223879Y94219D02*
X223879Y94219D01*
X220144Y95766D01*
X217286Y98624D01*
X215739Y102359D01*
X215739Y121641D01*
X217286Y125376D01*
X220144Y128234D01*
X223879Y129781D01*
X227921Y129781D01*
X231656Y128234D01*
X234514Y125376D01*
X236061Y121641D01*
X236061Y102359D01*
X234514Y98624D01*
X231656Y95766D01*
X227921Y94219D01*
X223879Y94219D01*
G37*
%LPD*%
%LPC*%
G36*
X536359Y170539D02*
X536359Y170539D01*
X532624Y172086D01*
X529766Y174944D01*
X528219Y178679D01*
X528219Y182721D01*
X529766Y186456D01*
X532624Y189314D01*
X536359Y190861D01*
X555641Y190861D01*
X559376Y189314D01*
X562234Y186456D01*
X563781Y182721D01*
X563781Y178679D01*
X562234Y174944D01*
X559376Y172086D01*
X555641Y170539D01*
X536359Y170539D01*
G37*
%LPD*%
%LPC*%
G36*
X1250359Y173539D02*
X1250359Y173539D01*
X1246624Y175086D01*
X1243766Y177944D01*
X1242219Y181679D01*
X1242219Y185721D01*
X1243766Y189456D01*
X1246624Y192314D01*
X1250359Y193861D01*
X1269641Y193861D01*
X1273376Y192314D01*
X1276234Y189456D01*
X1277781Y185721D01*
X1277781Y181679D01*
X1276234Y177944D01*
X1273376Y175086D01*
X1269641Y173539D01*
X1250359Y173539D01*
G37*
%LPD*%
%LPC*%
G36*
X1436079Y96219D02*
X1436079Y96219D01*
X1432344Y97766D01*
X1429486Y100624D01*
X1427939Y104359D01*
X1427939Y123641D01*
X1429486Y127376D01*
X1432344Y130234D01*
X1436079Y131781D01*
X1440121Y131781D01*
X1443856Y130234D01*
X1446714Y127376D01*
X1448261Y123641D01*
X1448261Y104359D01*
X1446714Y100624D01*
X1443856Y97766D01*
X1440121Y96219D01*
X1436079Y96219D01*
G37*
%LPD*%
%LPC*%
G36*
X1385279Y96219D02*
X1385279Y96219D01*
X1381544Y97766D01*
X1378686Y100624D01*
X1377139Y104359D01*
X1377139Y123641D01*
X1378686Y127376D01*
X1381544Y130234D01*
X1385279Y131781D01*
X1389321Y131781D01*
X1393056Y130234D01*
X1395914Y127376D01*
X1397461Y123641D01*
X1397461Y104359D01*
X1395914Y100624D01*
X1393056Y97766D01*
X1389321Y96219D01*
X1385279Y96219D01*
G37*
%LPD*%
%LPC*%
G36*
X1359879Y96219D02*
X1359879Y96219D01*
X1356144Y97766D01*
X1353286Y100624D01*
X1351739Y104359D01*
X1351739Y123641D01*
X1353286Y127376D01*
X1356144Y130234D01*
X1359879Y131781D01*
X1363921Y131781D01*
X1367656Y130234D01*
X1370514Y127376D01*
X1372061Y123641D01*
X1372061Y104359D01*
X1370514Y100624D01*
X1367656Y97766D01*
X1363921Y96219D01*
X1359879Y96219D01*
G37*
%LPD*%
%LPC*%
G36*
X350879Y94219D02*
X350879Y94219D01*
X347144Y95766D01*
X344286Y98624D01*
X342739Y102359D01*
X342739Y121641D01*
X344286Y125376D01*
X347144Y128234D01*
X350879Y129781D01*
X354921Y129781D01*
X358656Y128234D01*
X361514Y125376D01*
X363061Y121641D01*
X363061Y102359D01*
X361514Y98624D01*
X358656Y95766D01*
X354921Y94219D01*
X350879Y94219D01*
G37*
%LPD*%
%LPC*%
G36*
X325479Y94219D02*
X325479Y94219D01*
X321744Y95766D01*
X318886Y98624D01*
X317339Y102359D01*
X317339Y121641D01*
X318886Y125376D01*
X321744Y128234D01*
X325479Y129781D01*
X329521Y129781D01*
X333256Y128234D01*
X336114Y125376D01*
X337661Y121641D01*
X337661Y102359D01*
X336114Y98624D01*
X333256Y95766D01*
X329521Y94219D01*
X325479Y94219D01*
G37*
%LPD*%
%LPC*%
G36*
X300079Y94219D02*
X300079Y94219D01*
X296344Y95766D01*
X293486Y98624D01*
X291939Y102359D01*
X291939Y121641D01*
X293486Y125376D01*
X296344Y128234D01*
X300079Y129781D01*
X304121Y129781D01*
X307856Y128234D01*
X310714Y125376D01*
X312261Y121641D01*
X312261Y102359D01*
X310714Y98624D01*
X307856Y95766D01*
X304121Y94219D01*
X300079Y94219D01*
G37*
%LPD*%
%LPC*%
G36*
X274679Y94219D02*
X274679Y94219D01*
X270944Y95766D01*
X268086Y98624D01*
X266539Y102359D01*
X266539Y121641D01*
X268086Y125376D01*
X270944Y128234D01*
X274679Y129781D01*
X278721Y129781D01*
X282456Y128234D01*
X285314Y125376D01*
X286861Y121641D01*
X286861Y102359D01*
X285314Y98624D01*
X282456Y95766D01*
X278721Y94219D01*
X274679Y94219D01*
G37*
%LPD*%
%LPC*%
G36*
X249279Y94219D02*
X249279Y94219D01*
X245544Y95766D01*
X242686Y98624D01*
X241139Y102359D01*
X241139Y121641D01*
X242686Y125376D01*
X245544Y128234D01*
X249279Y129781D01*
X253321Y129781D01*
X257056Y128234D01*
X259914Y125376D01*
X261461Y121641D01*
X261461Y102359D01*
X259914Y98624D01*
X257056Y95766D01*
X253321Y94219D01*
X249279Y94219D01*
G37*
%LPD*%
%LPC*%
G36*
X536359Y145139D02*
X536359Y145139D01*
X532624Y146686D01*
X529766Y149544D01*
X528219Y153279D01*
X528219Y157321D01*
X529766Y161056D01*
X532624Y163914D01*
X536359Y165461D01*
X555641Y165461D01*
X559376Y163914D01*
X562234Y161056D01*
X563781Y157321D01*
X563781Y153279D01*
X562234Y149544D01*
X559376Y146686D01*
X555641Y145139D01*
X536359Y145139D01*
G37*
%LPD*%
%LPC*%
G36*
X1250359Y148139D02*
X1250359Y148139D01*
X1246624Y149686D01*
X1243766Y152544D01*
X1242219Y156279D01*
X1242219Y160321D01*
X1243766Y164056D01*
X1246624Y166914D01*
X1250359Y168461D01*
X1269641Y168461D01*
X1273376Y166914D01*
X1276234Y164056D01*
X1277781Y160321D01*
X1277781Y156279D01*
X1276234Y152544D01*
X1273376Y149686D01*
X1269641Y148139D01*
X1250359Y148139D01*
G37*
%LPD*%
%LPC*%
G36*
X173079Y94219D02*
X173079Y94219D01*
X169344Y95766D01*
X166486Y98624D01*
X164939Y102359D01*
X164939Y121641D01*
X166486Y125376D01*
X169344Y128234D01*
X173079Y129781D01*
X177121Y129781D01*
X180856Y128234D01*
X183714Y125376D01*
X185261Y121641D01*
X185261Y102359D01*
X183714Y98624D01*
X180856Y95766D01*
X177121Y94219D01*
X173079Y94219D01*
G37*
%LPD*%
%LPC*%
G36*
X198479Y94219D02*
X198479Y94219D01*
X194744Y95766D01*
X191886Y98624D01*
X190339Y102359D01*
X190339Y121641D01*
X191886Y125376D01*
X194744Y128234D01*
X198479Y129781D01*
X202521Y129781D01*
X206256Y128234D01*
X209114Y125376D01*
X210661Y121641D01*
X210661Y102359D01*
X209114Y98624D01*
X206256Y95766D01*
X202521Y94219D01*
X198479Y94219D01*
G37*
%LPD*%
%LPC*%
G36*
X921498Y99509D02*
X921498Y99509D01*
X920009Y100998D01*
X920009Y119602D01*
X921498Y121091D01*
X940102Y121091D01*
X941591Y119602D01*
X941591Y100998D01*
X940102Y99509D01*
X921498Y99509D01*
G37*
%LPD*%
%LPC*%
G36*
X1295815Y165569D02*
X1295815Y165569D01*
X1289119Y172265D01*
X1289119Y181735D01*
X1295815Y188431D01*
X1305285Y188431D01*
X1311981Y181735D01*
X1311981Y172265D01*
X1305285Y165569D01*
X1295815Y165569D01*
G37*
%LPD*%
%LPC*%
G36*
X504715Y165569D02*
X504715Y165569D01*
X498019Y172265D01*
X498019Y181735D01*
X504715Y188431D01*
X514185Y188431D01*
X520881Y181735D01*
X520881Y172265D01*
X514185Y165569D01*
X504715Y165569D01*
G37*
%LPD*%
%LPC*%
G36*
X1422515Y165569D02*
X1422515Y165569D01*
X1415819Y172265D01*
X1415819Y181735D01*
X1422515Y188431D01*
X1431985Y188431D01*
X1438681Y181735D01*
X1438681Y172265D01*
X1431985Y165569D01*
X1422515Y165569D01*
G37*
%LPD*%
%LPC*%
G36*
X1372015Y36569D02*
X1372015Y36569D01*
X1365319Y43265D01*
X1365319Y52735D01*
X1372015Y59431D01*
X1381485Y59431D01*
X1388181Y52735D01*
X1388181Y43265D01*
X1381485Y36569D01*
X1372015Y36569D01*
G37*
%LPD*%
%LPC*%
G36*
X1422515Y36569D02*
X1422515Y36569D01*
X1415819Y43265D01*
X1415819Y52735D01*
X1422515Y59431D01*
X1431985Y59431D01*
X1438681Y52735D01*
X1438681Y43265D01*
X1431985Y36569D01*
X1422515Y36569D01*
G37*
%LPD*%
%LPC*%
G36*
X245715Y36569D02*
X245715Y36569D01*
X239019Y43265D01*
X239019Y52735D01*
X245715Y59431D01*
X255185Y59431D01*
X261881Y52735D01*
X261881Y43265D01*
X255185Y36569D01*
X245715Y36569D01*
G37*
%LPD*%
%LPC*%
G36*
X374715Y36569D02*
X374715Y36569D01*
X368019Y43265D01*
X368019Y52735D01*
X374715Y59431D01*
X384185Y59431D01*
X390881Y52735D01*
X390881Y43265D01*
X384185Y36569D01*
X374715Y36569D01*
G37*
%LPD*%
%LPC*%
G36*
X1295815Y36569D02*
X1295815Y36569D01*
X1289119Y43265D01*
X1289119Y52735D01*
X1295815Y59431D01*
X1305285Y59431D01*
X1311981Y52735D01*
X1311981Y43265D01*
X1305285Y36569D01*
X1295815Y36569D01*
G37*
%LPD*%
%LPC*%
G36*
X504715Y36569D02*
X504715Y36569D01*
X498019Y43265D01*
X498019Y52735D01*
X504715Y59431D01*
X514185Y59431D01*
X520881Y52735D01*
X520881Y43265D01*
X514185Y36569D01*
X504715Y36569D01*
G37*
%LPD*%
%LPC*%
G36*
X374715Y165569D02*
X374715Y165569D01*
X368019Y172265D01*
X368019Y181735D01*
X374715Y188431D01*
X384185Y188431D01*
X390881Y181735D01*
X390881Y172265D01*
X384185Y165569D01*
X374715Y165569D01*
G37*
%LPD*%
%LPC*%
G36*
X1372015Y165569D02*
X1372015Y165569D01*
X1365319Y172265D01*
X1365319Y181735D01*
X1372015Y188431D01*
X1381485Y188431D01*
X1388181Y181735D01*
X1388181Y172265D01*
X1381485Y165569D01*
X1372015Y165569D01*
G37*
%LPD*%
%LPC*%
G36*
X245715Y165569D02*
X245715Y165569D01*
X239019Y172265D01*
X239019Y181735D01*
X245715Y188431D01*
X255185Y188431D01*
X261881Y181735D01*
X261881Y172265D01*
X255185Y165569D01*
X245715Y165569D01*
G37*
%LPD*%
%LPC*%
G36*
X1222854Y33209D02*
X1222854Y33209D01*
X1218888Y34852D01*
X1215852Y37888D01*
X1214209Y41854D01*
X1214209Y46146D01*
X1215852Y50112D01*
X1218888Y53148D01*
X1222854Y54791D01*
X1227146Y54791D01*
X1231112Y53148D01*
X1234148Y50112D01*
X1235791Y46146D01*
X1235791Y41854D01*
X1234148Y37888D01*
X1231112Y34852D01*
X1227146Y33209D01*
X1222854Y33209D01*
G37*
%LPD*%
%LPC*%
G36*
X559854Y33209D02*
X559854Y33209D01*
X555888Y34852D01*
X552852Y37888D01*
X551209Y41854D01*
X551209Y46146D01*
X552852Y50112D01*
X555888Y53148D01*
X559854Y54791D01*
X564146Y54791D01*
X568112Y53148D01*
X571148Y50112D01*
X572791Y46146D01*
X572791Y41854D01*
X571148Y37888D01*
X568112Y34852D01*
X564146Y33209D01*
X559854Y33209D01*
G37*
%LPD*%
%LPC*%
G36*
X559854Y83209D02*
X559854Y83209D01*
X555888Y84852D01*
X552852Y87888D01*
X551209Y91854D01*
X551209Y96146D01*
X552852Y100112D01*
X555888Y103148D01*
X559854Y104791D01*
X564146Y104791D01*
X568112Y103148D01*
X571148Y100112D01*
X572791Y96146D01*
X572791Y91854D01*
X571148Y87888D01*
X568112Y84852D01*
X564146Y83209D01*
X559854Y83209D01*
G37*
%LPD*%
%LPC*%
G36*
X1222854Y83209D02*
X1222854Y83209D01*
X1218888Y84852D01*
X1215852Y87888D01*
X1214209Y91854D01*
X1214209Y96146D01*
X1215852Y100112D01*
X1218888Y103148D01*
X1222854Y104791D01*
X1227146Y104791D01*
X1231112Y103148D01*
X1234148Y100112D01*
X1235791Y96146D01*
X1235791Y91854D01*
X1234148Y87888D01*
X1231112Y84852D01*
X1227146Y83209D01*
X1222854Y83209D01*
G37*
%LPD*%
%LPC*%
G36*
X827054Y99509D02*
X827054Y99509D01*
X823088Y101152D01*
X820052Y104188D01*
X818409Y108154D01*
X818409Y112446D01*
X820052Y116412D01*
X823088Y119448D01*
X827054Y121091D01*
X831346Y121091D01*
X835312Y119448D01*
X838348Y116412D01*
X839991Y112446D01*
X839991Y108154D01*
X838348Y104188D01*
X835312Y101152D01*
X831346Y99509D01*
X827054Y99509D01*
G37*
%LPD*%
%LPC*%
G36*
X852454Y99509D02*
X852454Y99509D01*
X848488Y101152D01*
X845452Y104188D01*
X843809Y108154D01*
X843809Y112446D01*
X845452Y116412D01*
X848488Y119448D01*
X852454Y121091D01*
X856746Y121091D01*
X860712Y119448D01*
X863748Y116412D01*
X865391Y112446D01*
X865391Y108154D01*
X863748Y104188D01*
X860712Y101152D01*
X856746Y99509D01*
X852454Y99509D01*
G37*
%LPD*%
%LPC*%
G36*
X877854Y99509D02*
X877854Y99509D01*
X873888Y101152D01*
X870852Y104188D01*
X869209Y108154D01*
X869209Y112446D01*
X870852Y116412D01*
X873888Y119448D01*
X877854Y121091D01*
X882146Y121091D01*
X886112Y119448D01*
X889148Y116412D01*
X890791Y112446D01*
X890791Y108154D01*
X889148Y104188D01*
X886112Y101152D01*
X882146Y99509D01*
X877854Y99509D01*
G37*
%LPD*%
%LPC*%
G36*
X903254Y99509D02*
X903254Y99509D01*
X899288Y101152D01*
X896252Y104188D01*
X894609Y108154D01*
X894609Y112446D01*
X896252Y116412D01*
X899288Y119448D01*
X903254Y121091D01*
X907546Y121091D01*
X911512Y119448D01*
X914548Y116412D01*
X916191Y112446D01*
X916191Y108154D01*
X914548Y104188D01*
X911512Y101152D01*
X907546Y99509D01*
X903254Y99509D01*
G37*
%LPD*%
%LPC*%
G36*
X1054458Y109770D02*
X1054458Y109770D01*
X1050753Y111304D01*
X1047917Y114140D01*
X1046383Y117845D01*
X1046383Y121856D01*
X1047917Y125561D01*
X1050753Y128396D01*
X1054458Y129931D01*
X1058469Y129931D01*
X1062174Y128396D01*
X1065009Y125561D01*
X1066544Y121856D01*
X1066544Y117845D01*
X1065009Y114140D01*
X1062174Y111304D01*
X1058469Y109770D01*
X1054458Y109770D01*
G37*
%LPD*%
%LPC*%
G36*
X1054458Y160570D02*
X1054458Y160570D01*
X1050753Y162104D01*
X1047917Y164940D01*
X1046383Y168645D01*
X1046383Y172656D01*
X1047917Y176361D01*
X1050753Y179196D01*
X1054458Y180731D01*
X1058469Y180731D01*
X1062174Y179196D01*
X1065009Y176361D01*
X1066544Y172656D01*
X1066544Y168645D01*
X1065009Y164940D01*
X1062174Y162104D01*
X1058469Y160570D01*
X1054458Y160570D01*
G37*
%LPD*%
%LPC*%
G36*
X1054458Y135170D02*
X1054458Y135170D01*
X1050753Y136704D01*
X1047917Y139540D01*
X1046383Y143245D01*
X1046383Y147256D01*
X1047917Y150961D01*
X1050753Y153796D01*
X1054458Y155331D01*
X1058469Y155331D01*
X1062174Y153796D01*
X1065009Y150961D01*
X1066544Y147256D01*
X1066544Y143245D01*
X1065009Y139540D01*
X1062174Y136704D01*
X1058469Y135170D01*
X1054458Y135170D01*
G37*
%LPD*%
%LPC*%
G36*
X1054458Y84370D02*
X1054458Y84370D01*
X1050753Y85904D01*
X1047917Y88740D01*
X1046383Y92445D01*
X1046383Y96456D01*
X1047917Y100161D01*
X1050753Y102996D01*
X1054458Y104531D01*
X1058469Y104531D01*
X1062174Y102996D01*
X1065009Y100161D01*
X1066544Y96456D01*
X1066544Y92445D01*
X1065009Y88740D01*
X1062174Y85904D01*
X1058469Y84370D01*
X1054458Y84370D01*
G37*
%LPD*%
%LPC*%
G36*
X1403373Y49523D02*
X1403373Y49523D01*
X1403373Y59431D01*
X1406885Y59431D01*
X1413581Y52735D01*
X1413581Y49523D01*
X1403373Y49523D01*
G37*
%LPD*%
%LPC*%
G36*
X150373Y49523D02*
X150373Y49523D01*
X150373Y59431D01*
X153885Y59431D01*
X160581Y52735D01*
X160581Y49523D01*
X150373Y49523D01*
G37*
%LPD*%
%LPC*%
G36*
X150373Y178523D02*
X150373Y178523D01*
X150373Y188431D01*
X153885Y188431D01*
X160581Y181735D01*
X160581Y178523D01*
X150373Y178523D01*
G37*
%LPD*%
%LPC*%
G36*
X1403373Y178523D02*
X1403373Y178523D01*
X1403373Y188431D01*
X1406885Y188431D01*
X1413581Y181735D01*
X1413581Y178523D01*
X1403373Y178523D01*
G37*
%LPD*%
%LPC*%
G36*
X137419Y178523D02*
X137419Y178523D01*
X137419Y181735D01*
X144115Y188431D01*
X147627Y188431D01*
X147627Y178523D01*
X137419Y178523D01*
G37*
%LPD*%
%LPC*%
G36*
X137419Y49523D02*
X137419Y49523D01*
X137419Y52735D01*
X144115Y59431D01*
X147627Y59431D01*
X147627Y49523D01*
X137419Y49523D01*
G37*
%LPD*%
%LPC*%
G36*
X1390419Y49523D02*
X1390419Y49523D01*
X1390419Y52735D01*
X1397115Y59431D01*
X1400627Y59431D01*
X1400627Y49523D01*
X1390419Y49523D01*
G37*
%LPD*%
%LPC*%
G36*
X1390419Y178523D02*
X1390419Y178523D01*
X1390419Y181735D01*
X1397115Y188431D01*
X1400627Y188431D01*
X1400627Y178523D01*
X1390419Y178523D01*
G37*
%LPD*%
%LPC*%
G36*
X150373Y36569D02*
X150373Y36569D01*
X150373Y46477D01*
X160581Y46477D01*
X160581Y43265D01*
X153885Y36569D01*
X150373Y36569D01*
G37*
%LPD*%
%LPC*%
G36*
X1403373Y165569D02*
X1403373Y165569D01*
X1403373Y175477D01*
X1413581Y175477D01*
X1413581Y172265D01*
X1406885Y165569D01*
X1403373Y165569D01*
G37*
%LPD*%
%LPC*%
G36*
X1403373Y36569D02*
X1403373Y36569D01*
X1403373Y46477D01*
X1413581Y46477D01*
X1413581Y43265D01*
X1406885Y36569D01*
X1403373Y36569D01*
G37*
%LPD*%
%LPC*%
G36*
X150373Y165569D02*
X150373Y165569D01*
X150373Y175477D01*
X160581Y175477D01*
X160581Y172265D01*
X153885Y165569D01*
X150373Y165569D01*
G37*
%LPD*%
%LPC*%
G36*
X1397115Y165569D02*
X1397115Y165569D01*
X1390419Y172265D01*
X1390419Y175477D01*
X1400627Y175477D01*
X1400627Y165569D01*
X1397115Y165569D01*
G37*
%LPD*%
%LPC*%
G36*
X1397115Y36569D02*
X1397115Y36569D01*
X1390419Y43265D01*
X1390419Y46477D01*
X1400627Y46477D01*
X1400627Y36569D01*
X1397115Y36569D01*
G37*
%LPD*%
%LPC*%
G36*
X144115Y36569D02*
X144115Y36569D01*
X137419Y43265D01*
X137419Y46477D01*
X147627Y46477D01*
X147627Y36569D01*
X144115Y36569D01*
G37*
%LPD*%
%LPC*%
G36*
X144115Y165569D02*
X144115Y165569D01*
X137419Y172265D01*
X137419Y175477D01*
X147627Y175477D01*
X147627Y165569D01*
X144115Y165569D01*
G37*
%LPD*%
%LPC*%
G36*
X671035Y213083D02*
X671035Y213083D01*
X681358Y213083D01*
X681157Y211810D01*
X680576Y210023D01*
X679723Y208349D01*
X678618Y206828D01*
X677290Y205500D01*
X675769Y204395D01*
X674095Y203542D01*
X672308Y202961D01*
X671035Y202760D01*
X671035Y213083D01*
G37*
%LPD*%
%LPC*%
G36*
X1119011Y213083D02*
X1119011Y213083D01*
X1129334Y213083D01*
X1129133Y211810D01*
X1128552Y210023D01*
X1127699Y208349D01*
X1126594Y206828D01*
X1125266Y205500D01*
X1123745Y204395D01*
X1122071Y203542D01*
X1120284Y202961D01*
X1119011Y202760D01*
X1119011Y213083D01*
G37*
%LPD*%
%LPC*%
G36*
X1184035Y213083D02*
X1184035Y213083D01*
X1194358Y213083D01*
X1194157Y211810D01*
X1193576Y210023D01*
X1192723Y208349D01*
X1191618Y206828D01*
X1190290Y205500D01*
X1188769Y204395D01*
X1187095Y203542D01*
X1185308Y202961D01*
X1184035Y202760D01*
X1184035Y213083D01*
G37*
%LPD*%
%LPC*%
G36*
X606011Y213083D02*
X606011Y213083D01*
X616334Y213083D01*
X616133Y211810D01*
X615552Y210023D01*
X614699Y208349D01*
X613594Y206828D01*
X612266Y205500D01*
X610745Y204395D01*
X609071Y203542D01*
X607284Y202961D01*
X606011Y202760D01*
X606011Y213083D01*
G37*
%LPD*%
%LPC*%
G36*
X1179716Y202961D02*
X1179716Y202961D01*
X1177929Y203542D01*
X1176255Y204395D01*
X1174734Y205500D01*
X1173406Y206828D01*
X1172301Y208349D01*
X1171448Y210023D01*
X1170867Y211810D01*
X1170666Y213083D01*
X1180989Y213083D01*
X1180989Y202760D01*
X1179716Y202961D01*
G37*
%LPD*%
%LPC*%
G36*
X601692Y202961D02*
X601692Y202961D01*
X599905Y203542D01*
X598231Y204395D01*
X596710Y205500D01*
X595382Y206828D01*
X594277Y208349D01*
X593424Y210023D01*
X592843Y211810D01*
X592642Y213083D01*
X602965Y213083D01*
X602965Y202760D01*
X601692Y202961D01*
G37*
%LPD*%
%LPC*%
G36*
X1114692Y202961D02*
X1114692Y202961D01*
X1112905Y203542D01*
X1111231Y204395D01*
X1109710Y205500D01*
X1108382Y206828D01*
X1107277Y208349D01*
X1106424Y210023D01*
X1105843Y211810D01*
X1105642Y213083D01*
X1115965Y213083D01*
X1115965Y202760D01*
X1114692Y202961D01*
G37*
%LPD*%
%LPC*%
G36*
X666716Y202961D02*
X666716Y202961D01*
X664929Y203542D01*
X663255Y204395D01*
X661734Y205500D01*
X660406Y206828D01*
X659301Y208349D01*
X658448Y210023D01*
X657867Y211810D01*
X657666Y213083D01*
X667989Y213083D01*
X667989Y202760D01*
X666716Y202961D01*
G37*
%LPD*%
%LPC*%
G36*
X409373Y49523D02*
X409373Y49523D01*
X409373Y59431D01*
X412585Y59431D01*
X419281Y52735D01*
X419281Y49523D01*
X409373Y49523D01*
G37*
%LPD*%
%LPC*%
G36*
X175773Y49523D02*
X175773Y49523D01*
X175773Y59431D01*
X178985Y59431D01*
X185681Y52735D01*
X185681Y49523D01*
X175773Y49523D01*
G37*
%LPD*%
%LPC*%
G36*
X279373Y49523D02*
X279373Y49523D01*
X279373Y59431D01*
X282585Y59431D01*
X289281Y52735D01*
X289281Y49523D01*
X279373Y49523D01*
G37*
%LPD*%
%LPC*%
G36*
X125273Y49523D02*
X125273Y49523D01*
X125273Y59431D01*
X128485Y59431D01*
X135181Y52735D01*
X135181Y49523D01*
X125273Y49523D01*
G37*
%LPD*%
%LPC*%
G36*
X434773Y49523D02*
X434773Y49523D01*
X434773Y59431D01*
X437985Y59431D01*
X444681Y52735D01*
X444681Y49523D01*
X434773Y49523D01*
G37*
%LPD*%
%LPC*%
G36*
X304773Y49523D02*
X304773Y49523D01*
X304773Y59431D01*
X307985Y59431D01*
X314681Y52735D01*
X314681Y49523D01*
X304773Y49523D01*
G37*
%LPD*%
%LPC*%
G36*
X434773Y178523D02*
X434773Y178523D01*
X434773Y188431D01*
X437985Y188431D01*
X444681Y181735D01*
X444681Y178523D01*
X434773Y178523D01*
G37*
%LPD*%
%LPC*%
G36*
X409373Y178523D02*
X409373Y178523D01*
X409373Y188431D01*
X412585Y188431D01*
X419281Y181735D01*
X419281Y178523D01*
X409373Y178523D01*
G37*
%LPD*%
%LPC*%
G36*
X125273Y178523D02*
X125273Y178523D01*
X125273Y188431D01*
X128485Y188431D01*
X135181Y181735D01*
X135181Y178523D01*
X125273Y178523D01*
G37*
%LPD*%
%LPC*%
G36*
X304773Y178523D02*
X304773Y178523D01*
X304773Y188431D01*
X307985Y188431D01*
X314681Y181735D01*
X314681Y178523D01*
X304773Y178523D01*
G37*
%LPD*%
%LPC*%
G36*
X175773Y178523D02*
X175773Y178523D01*
X175773Y188431D01*
X178985Y188431D01*
X185681Y181735D01*
X185681Y178523D01*
X175773Y178523D01*
G37*
%LPD*%
%LPC*%
G36*
X279373Y178523D02*
X279373Y178523D01*
X279373Y188431D01*
X282585Y188431D01*
X289281Y181735D01*
X289281Y178523D01*
X279373Y178523D01*
G37*
%LPD*%
%LPC*%
G36*
X291819Y178523D02*
X291819Y178523D01*
X291819Y181735D01*
X298515Y188431D01*
X301727Y188431D01*
X301727Y178523D01*
X291819Y178523D01*
G37*
%LPD*%
%LPC*%
G36*
X162819Y178523D02*
X162819Y178523D01*
X162819Y181735D01*
X169515Y188431D01*
X172727Y188431D01*
X172727Y178523D01*
X162819Y178523D01*
G37*
%LPD*%
%LPC*%
G36*
X112319Y49523D02*
X112319Y49523D01*
X112319Y52735D01*
X119015Y59431D01*
X122227Y59431D01*
X122227Y49523D01*
X112319Y49523D01*
G37*
%LPD*%
%LPC*%
G36*
X162819Y49523D02*
X162819Y49523D01*
X162819Y52735D01*
X169515Y59431D01*
X172727Y59431D01*
X172727Y49523D01*
X162819Y49523D01*
G37*
%LPD*%
%LPC*%
G36*
X421819Y49523D02*
X421819Y49523D01*
X421819Y52735D01*
X428515Y59431D01*
X431727Y59431D01*
X431727Y49523D01*
X421819Y49523D01*
G37*
%LPD*%
%LPC*%
G36*
X396419Y178523D02*
X396419Y178523D01*
X396419Y181735D01*
X403115Y188431D01*
X406327Y188431D01*
X406327Y178523D01*
X396419Y178523D01*
G37*
%LPD*%
%LPC*%
G36*
X112319Y178523D02*
X112319Y178523D01*
X112319Y181735D01*
X119015Y188431D01*
X122227Y188431D01*
X122227Y178523D01*
X112319Y178523D01*
G37*
%LPD*%
%LPC*%
G36*
X266419Y178523D02*
X266419Y178523D01*
X266419Y181735D01*
X273115Y188431D01*
X276327Y188431D01*
X276327Y178523D01*
X266419Y178523D01*
G37*
%LPD*%
%LPC*%
G36*
X421819Y178523D02*
X421819Y178523D01*
X421819Y181735D01*
X428515Y188431D01*
X431727Y188431D01*
X431727Y178523D01*
X421819Y178523D01*
G37*
%LPD*%
%LPC*%
G36*
X291819Y49523D02*
X291819Y49523D01*
X291819Y52735D01*
X298515Y59431D01*
X301727Y59431D01*
X301727Y49523D01*
X291819Y49523D01*
G37*
%LPD*%
%LPC*%
G36*
X396419Y49523D02*
X396419Y49523D01*
X396419Y52735D01*
X403115Y59431D01*
X406327Y59431D01*
X406327Y49523D01*
X396419Y49523D01*
G37*
%LPD*%
%LPC*%
G36*
X266419Y49523D02*
X266419Y49523D01*
X266419Y52735D01*
X273115Y59431D01*
X276327Y59431D01*
X276327Y49523D01*
X266419Y49523D01*
G37*
%LPD*%
%LPC*%
G36*
X434773Y165569D02*
X434773Y165569D01*
X434773Y175477D01*
X444681Y175477D01*
X444681Y172265D01*
X437985Y165569D01*
X434773Y165569D01*
G37*
%LPD*%
%LPC*%
G36*
X125273Y165569D02*
X125273Y165569D01*
X125273Y175477D01*
X135181Y175477D01*
X135181Y172265D01*
X128485Y165569D01*
X125273Y165569D01*
G37*
%LPD*%
%LPC*%
G36*
X279373Y165569D02*
X279373Y165569D01*
X279373Y175477D01*
X289281Y175477D01*
X289281Y172265D01*
X282585Y165569D01*
X279373Y165569D01*
G37*
%LPD*%
%LPC*%
G36*
X175773Y165569D02*
X175773Y165569D01*
X175773Y175477D01*
X185681Y175477D01*
X185681Y172265D01*
X178985Y165569D01*
X175773Y165569D01*
G37*
%LPD*%
%LPC*%
G36*
X279373Y36569D02*
X279373Y36569D01*
X279373Y46477D01*
X289281Y46477D01*
X289281Y43265D01*
X282585Y36569D01*
X279373Y36569D01*
G37*
%LPD*%
%LPC*%
G36*
X304773Y165569D02*
X304773Y165569D01*
X304773Y175477D01*
X314681Y175477D01*
X314681Y172265D01*
X307985Y165569D01*
X304773Y165569D01*
G37*
%LPD*%
%LPC*%
G36*
X304773Y36569D02*
X304773Y36569D01*
X304773Y46477D01*
X314681Y46477D01*
X314681Y43265D01*
X307985Y36569D01*
X304773Y36569D01*
G37*
%LPD*%
%LPC*%
G36*
X409373Y36569D02*
X409373Y36569D01*
X409373Y46477D01*
X419281Y46477D01*
X419281Y43265D01*
X412585Y36569D01*
X409373Y36569D01*
G37*
%LPD*%
%LPC*%
G36*
X434773Y36569D02*
X434773Y36569D01*
X434773Y46477D01*
X444681Y46477D01*
X444681Y43265D01*
X437985Y36569D01*
X434773Y36569D01*
G37*
%LPD*%
%LPC*%
G36*
X409373Y165569D02*
X409373Y165569D01*
X409373Y175477D01*
X419281Y175477D01*
X419281Y172265D01*
X412585Y165569D01*
X409373Y165569D01*
G37*
%LPD*%
%LPC*%
G36*
X175773Y36569D02*
X175773Y36569D01*
X175773Y46477D01*
X185681Y46477D01*
X185681Y43265D01*
X178985Y36569D01*
X175773Y36569D01*
G37*
%LPD*%
%LPC*%
G36*
X125273Y36569D02*
X125273Y36569D01*
X125273Y46477D01*
X135181Y46477D01*
X135181Y43265D01*
X128485Y36569D01*
X125273Y36569D01*
G37*
%LPD*%
%LPC*%
G36*
X169515Y165569D02*
X169515Y165569D01*
X162819Y172265D01*
X162819Y175477D01*
X172727Y175477D01*
X172727Y165569D01*
X169515Y165569D01*
G37*
%LPD*%
%LPC*%
G36*
X119015Y36569D02*
X119015Y36569D01*
X112319Y43265D01*
X112319Y46477D01*
X122227Y46477D01*
X122227Y36569D01*
X119015Y36569D01*
G37*
%LPD*%
%LPC*%
G36*
X428515Y36569D02*
X428515Y36569D01*
X421819Y43265D01*
X421819Y46477D01*
X431727Y46477D01*
X431727Y36569D01*
X428515Y36569D01*
G37*
%LPD*%
%LPC*%
G36*
X403115Y165569D02*
X403115Y165569D01*
X396419Y172265D01*
X396419Y175477D01*
X406327Y175477D01*
X406327Y165569D01*
X403115Y165569D01*
G37*
%LPD*%
%LPC*%
G36*
X298515Y36569D02*
X298515Y36569D01*
X291819Y43265D01*
X291819Y46477D01*
X301727Y46477D01*
X301727Y36569D01*
X298515Y36569D01*
G37*
%LPD*%
%LPC*%
G36*
X273115Y165569D02*
X273115Y165569D01*
X266419Y172265D01*
X266419Y175477D01*
X276327Y175477D01*
X276327Y165569D01*
X273115Y165569D01*
G37*
%LPD*%
%LPC*%
G36*
X403115Y36569D02*
X403115Y36569D01*
X396419Y43265D01*
X396419Y46477D01*
X406327Y46477D01*
X406327Y36569D01*
X403115Y36569D01*
G37*
%LPD*%
%LPC*%
G36*
X169515Y36569D02*
X169515Y36569D01*
X162819Y43265D01*
X162819Y46477D01*
X172727Y46477D01*
X172727Y36569D01*
X169515Y36569D01*
G37*
%LPD*%
%LPC*%
G36*
X298515Y165569D02*
X298515Y165569D01*
X291819Y172265D01*
X291819Y175477D01*
X301727Y175477D01*
X301727Y165569D01*
X298515Y165569D01*
G37*
%LPD*%
%LPC*%
G36*
X119015Y165569D02*
X119015Y165569D01*
X112319Y172265D01*
X112319Y175477D01*
X122227Y175477D01*
X122227Y165569D01*
X119015Y165569D01*
G37*
%LPD*%
%LPC*%
G36*
X428515Y165569D02*
X428515Y165569D01*
X421819Y172265D01*
X421819Y175477D01*
X431727Y175477D01*
X431727Y165569D01*
X428515Y165569D01*
G37*
%LPD*%
%LPC*%
G36*
X273115Y36569D02*
X273115Y36569D01*
X266419Y43265D01*
X266419Y46477D01*
X276327Y46477D01*
X276327Y36569D01*
X273115Y36569D01*
G37*
%LPD*%
%LPC*%
G36*
X830723Y137223D02*
X830723Y137223D01*
X830723Y146384D01*
X831727Y146225D01*
X833342Y145700D01*
X834855Y144929D01*
X836230Y143931D01*
X837431Y142730D01*
X838429Y141355D01*
X839200Y139842D01*
X839725Y138227D01*
X839884Y137223D01*
X830723Y137223D01*
G37*
%LPD*%
%LPC*%
G36*
X906923Y137223D02*
X906923Y137223D01*
X906923Y146384D01*
X907927Y146225D01*
X909542Y145700D01*
X911055Y144929D01*
X912430Y143931D01*
X913631Y142730D01*
X914629Y141355D01*
X915400Y139842D01*
X915925Y138227D01*
X916084Y137223D01*
X906923Y137223D01*
G37*
%LPD*%
%LPC*%
G36*
X881523Y137223D02*
X881523Y137223D01*
X881523Y146384D01*
X882527Y146225D01*
X884142Y145700D01*
X885655Y144929D01*
X887030Y143931D01*
X888231Y142730D01*
X889229Y141355D01*
X890000Y139842D01*
X890525Y138227D01*
X890684Y137223D01*
X881523Y137223D01*
G37*
%LPD*%
%LPC*%
G36*
X708523Y95523D02*
X708523Y95523D01*
X708523Y104684D01*
X709527Y104525D01*
X711142Y104000D01*
X712655Y103229D01*
X714030Y102231D01*
X715231Y101030D01*
X716229Y99655D01*
X717000Y98142D01*
X717525Y96527D01*
X717684Y95523D01*
X708523Y95523D01*
G37*
%LPD*%
%LPC*%
G36*
X856123Y137223D02*
X856123Y137223D01*
X856123Y146384D01*
X857127Y146225D01*
X858742Y145700D01*
X860255Y144929D01*
X861630Y143931D01*
X862831Y142730D01*
X863829Y141355D01*
X864600Y139842D01*
X865125Y138227D01*
X865284Y137223D01*
X856123Y137223D01*
G37*
%LPD*%
%LPC*%
G36*
X563523Y70523D02*
X563523Y70523D01*
X563523Y79684D01*
X564527Y79525D01*
X566142Y79000D01*
X567655Y78229D01*
X569030Y77231D01*
X570231Y76030D01*
X571229Y74655D01*
X572000Y73142D01*
X572525Y71527D01*
X572684Y70523D01*
X563523Y70523D01*
G37*
%LPD*%
%LPC*%
G36*
X1226523Y70523D02*
X1226523Y70523D01*
X1226523Y79684D01*
X1227527Y79525D01*
X1229142Y79000D01*
X1230655Y78229D01*
X1232030Y77231D01*
X1233231Y76030D01*
X1234229Y74655D01*
X1235000Y73142D01*
X1235525Y71527D01*
X1235684Y70523D01*
X1226523Y70523D01*
G37*
%LPD*%
%LPC*%
G36*
X1081523Y45523D02*
X1081523Y45523D01*
X1081523Y54684D01*
X1082527Y54525D01*
X1084142Y54000D01*
X1085655Y53229D01*
X1087030Y52231D01*
X1088231Y51030D01*
X1089229Y49655D01*
X1090000Y48142D01*
X1090525Y46527D01*
X1090684Y45523D01*
X1081523Y45523D01*
G37*
%LPD*%
%LPC*%
G36*
X1069316Y45523D02*
X1069316Y45523D01*
X1069475Y46527D01*
X1070000Y48142D01*
X1070771Y49655D01*
X1071769Y51030D01*
X1072970Y52231D01*
X1074345Y53229D01*
X1075858Y54000D01*
X1077473Y54525D01*
X1078477Y54684D01*
X1078477Y45523D01*
X1069316Y45523D01*
G37*
%LPD*%
%LPC*%
G36*
X818516Y137223D02*
X818516Y137223D01*
X818675Y138227D01*
X819200Y139842D01*
X819971Y141355D01*
X820969Y142730D01*
X822170Y143931D01*
X823545Y144929D01*
X825058Y145700D01*
X826673Y146225D01*
X827677Y146384D01*
X827677Y137223D01*
X818516Y137223D01*
G37*
%LPD*%
%LPC*%
G36*
X1226523Y67477D02*
X1226523Y67477D01*
X1235684Y67477D01*
X1235525Y66473D01*
X1235000Y64858D01*
X1234229Y63345D01*
X1233231Y61970D01*
X1232030Y60769D01*
X1230655Y59771D01*
X1229142Y59000D01*
X1227527Y58475D01*
X1226523Y58316D01*
X1226523Y67477D01*
G37*
%LPD*%
%LPC*%
G36*
X881523Y134177D02*
X881523Y134177D01*
X890684Y134177D01*
X890525Y133173D01*
X890000Y131558D01*
X889229Y130045D01*
X888231Y128670D01*
X887030Y127469D01*
X885655Y126471D01*
X884142Y125700D01*
X882527Y125175D01*
X881523Y125016D01*
X881523Y134177D01*
G37*
%LPD*%
%LPC*%
G36*
X563523Y67477D02*
X563523Y67477D01*
X572684Y67477D01*
X572525Y66473D01*
X572000Y64858D01*
X571229Y63345D01*
X570231Y61970D01*
X569030Y60769D01*
X567655Y59771D01*
X566142Y59000D01*
X564527Y58475D01*
X563523Y58316D01*
X563523Y67477D01*
G37*
%LPD*%
%LPC*%
G36*
X830723Y134177D02*
X830723Y134177D01*
X839884Y134177D01*
X839725Y133173D01*
X839200Y131558D01*
X838429Y130045D01*
X837431Y128670D01*
X836230Y127469D01*
X834855Y126471D01*
X833342Y125700D01*
X831727Y125175D01*
X830723Y125016D01*
X830723Y134177D01*
G37*
%LPD*%
%LPC*%
G36*
X894716Y137223D02*
X894716Y137223D01*
X894875Y138227D01*
X895400Y139842D01*
X896171Y141355D01*
X897169Y142730D01*
X898370Y143931D01*
X899745Y144929D01*
X901258Y145700D01*
X902873Y146225D01*
X903877Y146384D01*
X903877Y137223D01*
X894716Y137223D01*
G37*
%LPD*%
%LPC*%
G36*
X856123Y134177D02*
X856123Y134177D01*
X865284Y134177D01*
X865125Y133173D01*
X864600Y131558D01*
X863829Y130045D01*
X862831Y128670D01*
X861630Y127469D01*
X860255Y126471D01*
X858742Y125700D01*
X857127Y125175D01*
X856123Y125016D01*
X856123Y134177D01*
G37*
%LPD*%
%LPC*%
G36*
X1081523Y42477D02*
X1081523Y42477D01*
X1090684Y42477D01*
X1090525Y41473D01*
X1090000Y39858D01*
X1089229Y38345D01*
X1088231Y36970D01*
X1087030Y35769D01*
X1085655Y34771D01*
X1084142Y34000D01*
X1082527Y33475D01*
X1081523Y33316D01*
X1081523Y42477D01*
G37*
%LPD*%
%LPC*%
G36*
X869316Y137223D02*
X869316Y137223D01*
X869475Y138227D01*
X870000Y139842D01*
X870771Y141355D01*
X871769Y142730D01*
X872970Y143931D01*
X874345Y144929D01*
X875858Y145700D01*
X877473Y146225D01*
X878477Y146384D01*
X878477Y137223D01*
X869316Y137223D01*
G37*
%LPD*%
%LPC*%
G36*
X551316Y70523D02*
X551316Y70523D01*
X551475Y71527D01*
X552000Y73142D01*
X552771Y74655D01*
X553769Y76030D01*
X554970Y77231D01*
X556345Y78229D01*
X557858Y79000D01*
X559473Y79525D01*
X560477Y79684D01*
X560477Y70523D01*
X551316Y70523D01*
G37*
%LPD*%
%LPC*%
G36*
X1214316Y70523D02*
X1214316Y70523D01*
X1214475Y71527D01*
X1215000Y73142D01*
X1215771Y74655D01*
X1216769Y76030D01*
X1217970Y77231D01*
X1219345Y78229D01*
X1220858Y79000D01*
X1222473Y79525D01*
X1223477Y79684D01*
X1223477Y70523D01*
X1214316Y70523D01*
G37*
%LPD*%
%LPC*%
G36*
X843916Y137223D02*
X843916Y137223D01*
X844075Y138227D01*
X844600Y139842D01*
X845371Y141355D01*
X846369Y142730D01*
X847570Y143931D01*
X848945Y144929D01*
X850458Y145700D01*
X852073Y146225D01*
X853077Y146384D01*
X853077Y137223D01*
X843916Y137223D01*
G37*
%LPD*%
%LPC*%
G36*
X708523Y92477D02*
X708523Y92477D01*
X717684Y92477D01*
X717525Y91473D01*
X717000Y89858D01*
X716229Y88345D01*
X715231Y86970D01*
X714030Y85769D01*
X712655Y84771D01*
X711142Y84000D01*
X709527Y83475D01*
X708523Y83316D01*
X708523Y92477D01*
G37*
%LPD*%
%LPC*%
G36*
X906923Y134177D02*
X906923Y134177D01*
X916084Y134177D01*
X915925Y133173D01*
X915400Y131558D01*
X914629Y130045D01*
X913631Y128670D01*
X912430Y127469D01*
X911055Y126471D01*
X909542Y125700D01*
X907927Y125175D01*
X906923Y125016D01*
X906923Y134177D01*
G37*
%LPD*%
%LPC*%
G36*
X696316Y95523D02*
X696316Y95523D01*
X696475Y96527D01*
X697000Y98142D01*
X697771Y99655D01*
X698769Y101030D01*
X699970Y102231D01*
X701345Y103229D01*
X702858Y104000D01*
X704473Y104525D01*
X705477Y104684D01*
X705477Y95523D01*
X696316Y95523D01*
G37*
%LPD*%
%LPC*%
G36*
X1077473Y33475D02*
X1077473Y33475D01*
X1075858Y34000D01*
X1074345Y34771D01*
X1072970Y35769D01*
X1071769Y36970D01*
X1070771Y38345D01*
X1070000Y39858D01*
X1069475Y41473D01*
X1069316Y42477D01*
X1078477Y42477D01*
X1078477Y33316D01*
X1077473Y33475D01*
G37*
%LPD*%
%LPC*%
G36*
X704473Y83475D02*
X704473Y83475D01*
X702858Y84000D01*
X701345Y84771D01*
X699970Y85769D01*
X698769Y86970D01*
X697771Y88345D01*
X697000Y89858D01*
X696475Y91473D01*
X696316Y92477D01*
X705477Y92477D01*
X705477Y83316D01*
X704473Y83475D01*
G37*
%LPD*%
%LPC*%
G36*
X877473Y125175D02*
X877473Y125175D01*
X875858Y125700D01*
X874345Y126471D01*
X872970Y127469D01*
X871769Y128670D01*
X870771Y130045D01*
X870000Y131558D01*
X869475Y133173D01*
X869316Y134177D01*
X878477Y134177D01*
X878477Y125016D01*
X877473Y125175D01*
G37*
%LPD*%
%LPC*%
G36*
X852073Y125175D02*
X852073Y125175D01*
X850458Y125700D01*
X848945Y126471D01*
X847570Y127469D01*
X846369Y128670D01*
X845371Y130045D01*
X844600Y131558D01*
X844075Y133173D01*
X843916Y134177D01*
X853077Y134177D01*
X853077Y125016D01*
X852073Y125175D01*
G37*
%LPD*%
%LPC*%
G36*
X902873Y125175D02*
X902873Y125175D01*
X901258Y125700D01*
X899745Y126471D01*
X898370Y127469D01*
X897169Y128670D01*
X896171Y130045D01*
X895400Y131558D01*
X894875Y133173D01*
X894716Y134177D01*
X903877Y134177D01*
X903877Y125016D01*
X902873Y125175D01*
G37*
%LPD*%
%LPC*%
G36*
X826673Y125175D02*
X826673Y125175D01*
X825058Y125700D01*
X823545Y126471D01*
X822170Y127469D01*
X820969Y128670D01*
X819971Y130045D01*
X819200Y131558D01*
X818675Y133173D01*
X818516Y134177D01*
X827677Y134177D01*
X827677Y125016D01*
X826673Y125175D01*
G37*
%LPD*%
%LPC*%
G36*
X559473Y58475D02*
X559473Y58475D01*
X557858Y59000D01*
X556345Y59771D01*
X554970Y60769D01*
X553769Y61970D01*
X552771Y63345D01*
X552000Y64858D01*
X551475Y66473D01*
X551316Y67477D01*
X560477Y67477D01*
X560477Y58316D01*
X559473Y58475D01*
G37*
%LPD*%
%LPC*%
G36*
X1222473Y58475D02*
X1222473Y58475D01*
X1220858Y59000D01*
X1219345Y59771D01*
X1217970Y60769D01*
X1216769Y61970D01*
X1215771Y63345D01*
X1215000Y64858D01*
X1214475Y66473D01*
X1214316Y67477D01*
X1223477Y67477D01*
X1223477Y58316D01*
X1222473Y58475D01*
G37*
%LPD*%
%LPC*%
G36*
X1057987Y45174D02*
X1057987Y45174D01*
X1057987Y53616D01*
X1058824Y53483D01*
X1060333Y52993D01*
X1061747Y52272D01*
X1063031Y51340D01*
X1064152Y50218D01*
X1065085Y48934D01*
X1065806Y47520D01*
X1066296Y46011D01*
X1066429Y45174D01*
X1057987Y45174D01*
G37*
%LPD*%
%LPC*%
G36*
X1046498Y45174D02*
X1046498Y45174D01*
X1046631Y46011D01*
X1047121Y47520D01*
X1047842Y48934D01*
X1048774Y50218D01*
X1049896Y51340D01*
X1051180Y52272D01*
X1052594Y52993D01*
X1054103Y53483D01*
X1054940Y53616D01*
X1054940Y45174D01*
X1046498Y45174D01*
G37*
%LPD*%
%LPC*%
G36*
X1057987Y42127D02*
X1057987Y42127D01*
X1066429Y42127D01*
X1066296Y41290D01*
X1065806Y39781D01*
X1065085Y38367D01*
X1064152Y37083D01*
X1063031Y35961D01*
X1061747Y35029D01*
X1060333Y34308D01*
X1058824Y33818D01*
X1057987Y33685D01*
X1057987Y42127D01*
G37*
%LPD*%
%LPC*%
G36*
X1054103Y33818D02*
X1054103Y33818D01*
X1052594Y34308D01*
X1051180Y35029D01*
X1049896Y35961D01*
X1048774Y37083D01*
X1047842Y38367D01*
X1047121Y39781D01*
X1046631Y41290D01*
X1046498Y42127D01*
X1054940Y42127D01*
X1054940Y33685D01*
X1054103Y33818D01*
G37*
%LPD*%
%LPC*%
G36*
X677423Y62223D02*
X677423Y62223D01*
X677423Y68741D01*
X681235Y68741D01*
X681881Y68568D01*
X682460Y68233D01*
X682933Y67760D01*
X683268Y67181D01*
X683441Y66534D01*
X683441Y62223D01*
X677423Y62223D01*
G37*
%LPD*%
%LPC*%
G36*
X991889Y66279D02*
X991889Y66279D01*
X991889Y70090D01*
X992062Y70736D01*
X992397Y71315D01*
X992870Y71788D01*
X993449Y72123D01*
X994095Y72296D01*
X998407Y72296D01*
X998407Y66279D01*
X991889Y66279D01*
G37*
%LPD*%
%LPC*%
G36*
X1114523Y63459D02*
X1114523Y63459D01*
X1114523Y69977D01*
X1120541Y69977D01*
X1120541Y65666D01*
X1120368Y65019D01*
X1120033Y64440D01*
X1119560Y63967D01*
X1118981Y63632D01*
X1118334Y63459D01*
X1114523Y63459D01*
G37*
%LPD*%
%LPC*%
G36*
X668359Y62223D02*
X668359Y62223D01*
X668359Y66534D01*
X668532Y67181D01*
X668867Y67760D01*
X669340Y68233D01*
X669919Y68568D01*
X670566Y68741D01*
X674377Y68741D01*
X674377Y62223D01*
X668359Y62223D01*
G37*
%LPD*%
%LPC*%
G36*
X1107666Y63459D02*
X1107666Y63459D01*
X1107019Y63632D01*
X1106440Y63967D01*
X1105967Y64440D01*
X1105632Y65019D01*
X1105459Y65666D01*
X1105459Y69977D01*
X1111477Y69977D01*
X1111477Y63459D01*
X1107666Y63459D01*
G37*
%LPD*%
%LPC*%
G36*
X994095Y57215D02*
X994095Y57215D01*
X993449Y57388D01*
X992870Y57722D01*
X992397Y58195D01*
X992062Y58775D01*
X991889Y59421D01*
X991889Y63232D01*
X998407Y63232D01*
X998407Y57215D01*
X994095Y57215D01*
G37*
%LPD*%
%LPC*%
G36*
X148849Y176999D02*
X148849Y176999D01*
X148849Y177001D01*
X149151Y177001D01*
X149151Y176999D01*
X148849Y176999D01*
G37*
%LPD*%
%LPC*%
G36*
X1401849Y176999D02*
X1401849Y176999D01*
X1401849Y177001D01*
X1402151Y177001D01*
X1402151Y176999D01*
X1401849Y176999D01*
G37*
%LPD*%
%LPC*%
G36*
X148849Y47999D02*
X148849Y47999D01*
X148849Y48001D01*
X149151Y48001D01*
X149151Y47999D01*
X148849Y47999D01*
G37*
%LPD*%
%LPC*%
G36*
X1401849Y47999D02*
X1401849Y47999D01*
X1401849Y48001D01*
X1402151Y48001D01*
X1402151Y47999D01*
X1401849Y47999D01*
G37*
%LPD*%
%LPC*%
G36*
X1224999Y68999D02*
X1224999Y68999D01*
X1224999Y69001D01*
X1225001Y69001D01*
X1225001Y68999D01*
X1224999Y68999D01*
G37*
%LPD*%
%LPC*%
G36*
X561999Y68999D02*
X561999Y68999D01*
X561999Y69001D01*
X562001Y69001D01*
X562001Y68999D01*
X561999Y68999D01*
G37*
%LPD*%
%LPC*%
G36*
X123749Y47999D02*
X123749Y47999D01*
X123749Y48001D01*
X123751Y48001D01*
X123751Y47999D01*
X123749Y47999D01*
G37*
%LPD*%
%LPC*%
G36*
X407849Y47999D02*
X407849Y47999D01*
X407849Y48001D01*
X407851Y48001D01*
X407851Y47999D01*
X407849Y47999D01*
G37*
%LPD*%
%LPC*%
G36*
X433249Y47999D02*
X433249Y47999D01*
X433249Y48001D01*
X433251Y48001D01*
X433251Y47999D01*
X433249Y47999D01*
G37*
%LPD*%
%LPC*%
G36*
X303249Y47999D02*
X303249Y47999D01*
X303249Y48001D01*
X303251Y48001D01*
X303251Y47999D01*
X303249Y47999D01*
G37*
%LPD*%
%LPC*%
G36*
X277849Y47999D02*
X277849Y47999D01*
X277849Y48001D01*
X277851Y48001D01*
X277851Y47999D01*
X277849Y47999D01*
G37*
%LPD*%
%LPC*%
G36*
X433249Y176999D02*
X433249Y176999D01*
X433249Y177001D01*
X433251Y177001D01*
X433251Y176999D01*
X433249Y176999D01*
G37*
%LPD*%
%LPC*%
G36*
X407849Y176999D02*
X407849Y176999D01*
X407849Y177001D01*
X407851Y177001D01*
X407851Y176999D01*
X407849Y176999D01*
G37*
%LPD*%
%LPC*%
G36*
X303249Y176999D02*
X303249Y176999D01*
X303249Y177001D01*
X303251Y177001D01*
X303251Y176999D01*
X303249Y176999D01*
G37*
%LPD*%
%LPC*%
G36*
X277849Y176999D02*
X277849Y176999D01*
X277849Y177001D01*
X277851Y177001D01*
X277851Y176999D01*
X277849Y176999D01*
G37*
%LPD*%
%LPC*%
G36*
X174249Y176999D02*
X174249Y176999D01*
X174249Y177001D01*
X174251Y177001D01*
X174251Y176999D01*
X174249Y176999D01*
G37*
%LPD*%
%LPC*%
G36*
X174249Y47999D02*
X174249Y47999D01*
X174249Y48001D01*
X174251Y48001D01*
X174251Y47999D01*
X174249Y47999D01*
G37*
%LPD*%
%LPC*%
G36*
X123749Y176999D02*
X123749Y176999D01*
X123749Y177001D01*
X123751Y177001D01*
X123751Y176999D01*
X123749Y176999D01*
G37*
%LPD*%
%LPC*%
G36*
X829199Y135699D02*
X829199Y135699D01*
X829199Y135701D01*
X829201Y135701D01*
X829201Y135699D01*
X829199Y135699D01*
G37*
%LPD*%
%LPC*%
G36*
X1079999Y43999D02*
X1079999Y43999D01*
X1079999Y44001D01*
X1080001Y44001D01*
X1080001Y43999D01*
X1079999Y43999D01*
G37*
%LPD*%
%LPC*%
G36*
X1056462Y43650D02*
X1056462Y43650D01*
X1056462Y43651D01*
X1056464Y43651D01*
X1056464Y43650D01*
X1056462Y43650D01*
G37*
%LPD*%
%LPC*%
G36*
X854599Y135699D02*
X854599Y135699D01*
X854599Y135701D01*
X854601Y135701D01*
X854601Y135699D01*
X854599Y135699D01*
G37*
%LPD*%
%LPC*%
G36*
X879999Y135699D02*
X879999Y135699D01*
X879999Y135701D01*
X880001Y135701D01*
X880001Y135699D01*
X879999Y135699D01*
G37*
%LPD*%
%LPC*%
G36*
X905399Y135699D02*
X905399Y135699D01*
X905399Y135701D01*
X905401Y135701D01*
X905401Y135699D01*
X905399Y135699D01*
G37*
%LPD*%
%LPC*%
G36*
X706999Y93999D02*
X706999Y93999D01*
X706999Y94001D01*
X707001Y94001D01*
X707001Y93999D01*
X706999Y93999D01*
G37*
%LPD*%
D10*
X739800Y191200D03*
X740800Y43200D03*
D11*
X1056463Y196050D03*
X1056463Y170650D03*
X1056463Y145250D03*
X1056463Y119850D03*
X1056463Y94450D03*
X1056463Y69050D03*
X1056463Y43650D03*
D10*
X997800Y151200D03*
D12*
X1016930Y64755D03*
X999930Y64755D03*
D13*
X1017500Y192500D03*
X1000500Y192500D03*
D14*
X707000Y94000D03*
X707000Y44000D03*
X562000Y94000D03*
X562000Y44000D03*
X562000Y69000D03*
D15*
X625750Y126000D02*
X648250Y126000D01*
X648250Y12000D02*
X625750Y12000D01*
D14*
X1080000Y44000D03*
X1080000Y94000D03*
X1225000Y44000D03*
X1225000Y94000D03*
X1225000Y69000D03*
D15*
X1161250Y12000D02*
X1138750Y12000D01*
X1138750Y126000D02*
X1161250Y126000D01*
D13*
X675900Y60700D03*
X675900Y43700D03*
X1113000Y71500D03*
X1113000Y88500D03*
D16*
X669512Y169394D03*
X604488Y169394D03*
X669512Y214606D03*
X604488Y214606D03*
X1182512Y169394D03*
X1117488Y169394D03*
X1182512Y214606D03*
X1117488Y214606D03*
D12*
X637000Y176500D03*
X637000Y159500D03*
X1150000Y176500D03*
X1150000Y159500D03*
D13*
X637000Y195500D03*
X637000Y212500D03*
X1150000Y195500D03*
X1150000Y212500D03*
D17*
X149150Y48000D03*
X123750Y48000D03*
X47550Y48000D03*
D18*
X148850Y48000D03*
X174250Y48000D03*
X250450Y48000D03*
X277850Y48000D03*
X303250Y48000D03*
X379450Y48000D03*
X407850Y48000D03*
X433250Y48000D03*
X509450Y48000D03*
D17*
X149150Y177000D03*
X123750Y177000D03*
X47550Y177000D03*
D18*
X148850Y177000D03*
X174250Y177000D03*
X250450Y177000D03*
X277850Y177000D03*
X303250Y177000D03*
X379450Y177000D03*
X407850Y177000D03*
X433250Y177000D03*
X509450Y177000D03*
D17*
X1402150Y177000D03*
X1376750Y177000D03*
X1300550Y177000D03*
D18*
X1401850Y177000D03*
X1427250Y177000D03*
X1503450Y177000D03*
D17*
X1402150Y48000D03*
X1376750Y48000D03*
X1300550Y48000D03*
D18*
X1401850Y48000D03*
X1427250Y48000D03*
X1503450Y48000D03*
D19*
X175100Y104380D02*
X175100Y119620D01*
X200500Y119620D02*
X200500Y104380D01*
X225900Y104380D02*
X225900Y119620D01*
X251300Y119620D02*
X251300Y104380D01*
X276700Y104380D02*
X276700Y119620D01*
X302100Y119620D02*
X302100Y104380D01*
X327500Y104380D02*
X327500Y119620D01*
X352900Y119620D02*
X352900Y104380D01*
X1361900Y106380D02*
X1361900Y121620D01*
X1387300Y121620D02*
X1387300Y106380D01*
X1412700Y106380D02*
X1412700Y121620D01*
X1438100Y121620D02*
X1438100Y106380D01*
X553620Y206100D02*
X538380Y206100D01*
X538380Y180700D02*
X553620Y180700D01*
X553620Y155300D02*
X538380Y155300D01*
X538380Y129900D02*
X553620Y129900D01*
X1252380Y209100D02*
X1267620Y209100D01*
X1267620Y183700D02*
X1252380Y183700D01*
X1252380Y158300D02*
X1267620Y158300D01*
X1267620Y132900D02*
X1252380Y132900D01*
D20*
X930800Y110300D03*
D14*
X905400Y110300D03*
X880000Y110300D03*
X854600Y110300D03*
X829200Y110300D03*
X829200Y135700D03*
X854600Y135700D03*
X880000Y135700D03*
X905400Y135700D03*
X930800Y135700D03*
D10*
X407000Y113000D03*
X1255000Y27000D03*
D21*
X930800Y135700D02*
X930800Y160800D01*
X962500Y192500D02*
X1000500Y192500D01*
X962500Y192500D02*
X930800Y160800D01*
X930800Y135700D02*
X959300Y135700D01*
X1016930Y78070D02*
X1016930Y64755D01*
X1016930Y78070D02*
X959300Y135700D01*
X1052168Y64755D02*
X1056463Y69050D01*
X1052168Y64755D02*
X1016930Y64755D01*
X1232100Y209100D02*
X1260000Y209100D01*
X1218500Y195500D02*
X1150000Y195500D01*
X1218500Y195500D02*
X1232100Y209100D01*
D22*
X1150000Y195500D02*
X1150000Y176500D01*
D21*
X573900Y206100D02*
X546000Y206100D01*
X573900Y206100D02*
X584500Y195500D01*
X637000Y195500D01*
X637000Y176500D01*
X1052913Y192500D02*
X1056463Y196050D01*
X1052913Y192500D02*
X1017500Y192500D01*
X1235900Y132900D02*
X1260000Y132900D01*
X1235900Y132900D02*
X1191000Y88000D01*
X1113500Y88000D01*
D22*
X1113000Y88500D01*
D21*
X1085500Y88500D01*
X1080000Y94000D01*
X577100Y129900D02*
X546000Y129900D01*
X663300Y43700D02*
X675900Y43700D01*
X663300Y43700D02*
X577100Y129900D01*
X675900Y43700D02*
X706700Y43700D01*
X707000Y44000D01*
X659618Y159500D02*
X637000Y159500D01*
X659618Y159500D02*
X669512Y169394D01*
X637000Y159500D02*
X614382Y159500D01*
X604488Y169394D01*
X1150000Y159500D02*
X1172618Y159500D01*
X1182512Y169394D01*
X1150000Y159500D02*
X1127382Y159500D01*
X1117488Y169394D01*
D23*
X30000Y0D02*
X1520000Y0D01*
X1520000Y225000D01*
X30000Y225000D01*
X30000Y0D01*
M02*
