M48
;GenerationSoftware,Autodesk,EAGLE,9.5.0*%
;CreationDate,2019-09-29T04:38:05Z*%
FMAT,2
ICI,OFF
METRIC,TZ,000.000
T6C1.000
T5C1.016
T4C1.100
T3C1.500
T2C2.400
T1C3.000
%
G90
M71
T1
X40700Y11300
X125500Y2700
X73980Y19120
X74080Y4320
X99780Y15120
T2
X9200Y4800
X20600Y4800
X33500Y4800
X46500Y4800
X9200Y17700
X20600Y17700
X33500Y17700
X46500Y17700
X134500Y17700
X145900Y17700
X134500Y4800
X145900Y4800
T3
X115000Y12600
X115000Y1200
X63700Y1200
X63700Y12600
T4
X93080Y13570
X90540Y13570
X88000Y13570
X70700Y9400
X70700Y4400
X56200Y9400
X56200Y4400
X56200Y6900
X85460Y13570
X82920Y13570
X108000Y4400
X108000Y9400
X122500Y4400
X122500Y9400
X122500Y6900
X82920Y11030
X85460Y11030
X88000Y11030
X90540Y11030
X93080Y11030
T5
X60449Y21461
X118251Y16939
X111749Y16939
X118251Y21461
X111749Y21461
X14915Y4800
X12375Y4800
X4755Y4800
X14885Y4800
X17425Y4800
X25045Y4800
X27785Y4800
X30325Y4800
X37945Y4800
X40785Y4800
X40785Y17700
X50945Y4800
X14915Y17700
X12375Y17700
X4755Y17700
X14885Y17700
X17425Y17700
X25045Y17700
X27785Y17700
X30325Y17700
X37945Y17700
X43325Y4800
X43325Y17700
X50945Y17700
X140215Y17700
X137675Y17700
X130055Y17700
X140185Y17700
X142725Y17700
X150345Y17700
X140215Y4800
X137675Y4800
X130055Y4800
X140185Y4800
X142725Y4800
X150345Y4800
X17510Y11200
X20050Y11200
X22590Y11200
X25130Y11200
X27670Y11200
X30210Y11200
X32750Y11200
X35290Y11200
X136190Y11400
X138730Y11400
X141270Y11400
X143810Y11400
X54600Y20610
X54600Y18070
X54600Y15530
X54600Y12990
X126000Y20910
X126000Y18370
X126000Y15830
X126000Y13290
X66951Y21461
X60449Y16939
X66951Y16939
T6
X105646Y19605
X105646Y17065
X105646Y14525
X105646Y11985
X105646Y9445
X105646Y6905
X105646Y4365
M30