G04 EAGLE Gerber RS-274X export*
G75*
%MOMM*%
%FSLAX34Y34*%
%LPD*%
%INSoldermask Bottom*%
%IPPOS*%
%AMOC8*
5,1,8,0,0,1.08239X$1,22.5*%
G01*
%ADD10C,0.000000*%
%ADD11C,4.219200*%
%ADD12C,1.711200*%
%ADD13R,1.303200X1.203200*%
%ADD14R,1.203200X1.303200*%
%ADD15C,1.853200*%
%ADD16C,2.453200*%
%ADD17C,0.127000*%
%ADD18C,2.082800*%
%ADD19P,2.144431X8X112.500000*%
%ADD20C,2.603200*%
%ADD21P,2.144431X8X292.500000*%
%ADD22C,1.727200*%
%ADD23R,1.853200X1.853200*%
%ADD24C,0.254000*%


D10*
X30000Y0D02*
X1520000Y0D01*
X1520000Y225000D01*
X30000Y225000D01*
X30000Y0D01*
D11*
X739800Y191200D03*
X740800Y43200D03*
D12*
X1056463Y196050D03*
X1056463Y170650D03*
X1056463Y145250D03*
X1056463Y119850D03*
X1056463Y94450D03*
X1056463Y69050D03*
X1056463Y43650D03*
D11*
X997800Y151200D03*
D13*
X1016930Y64755D03*
X999930Y64755D03*
D14*
X1017500Y192500D03*
X1000500Y192500D03*
D15*
X707000Y94000D03*
X707000Y44000D03*
X562000Y94000D03*
X562000Y44000D03*
X562000Y69000D03*
D16*
X625750Y126000D02*
X648250Y126000D01*
X648250Y12000D02*
X625750Y12000D01*
D17*
X647000Y118000D02*
X647195Y117990D01*
X647390Y117985D01*
X647586Y117984D01*
X647781Y117989D01*
X647976Y117998D01*
X648171Y118012D01*
X648366Y118031D01*
X648560Y118054D01*
X648753Y118083D01*
X648946Y118115D01*
X649137Y118153D01*
X649328Y118195D01*
X649518Y118242D01*
X649706Y118294D01*
X649894Y118350D01*
X650079Y118410D01*
X650264Y118475D01*
X650446Y118545D01*
X650627Y118619D01*
X650806Y118697D01*
X650983Y118780D01*
X651158Y118867D01*
X651331Y118959D01*
X651501Y119054D01*
X651669Y119154D01*
X651835Y119257D01*
X651998Y119365D01*
X652158Y119477D01*
X652316Y119592D01*
X652471Y119711D01*
X652623Y119834D01*
X652771Y119961D01*
X652917Y120091D01*
X653059Y120225D01*
X653198Y120362D01*
X653334Y120503D01*
X653466Y120647D01*
X653595Y120794D01*
X653720Y120944D01*
X653842Y121097D01*
X653959Y121253D01*
X654073Y121412D01*
X654183Y121573D01*
X654289Y121738D01*
X654391Y121904D01*
X654488Y122073D01*
X654582Y122245D01*
X654672Y122419D01*
X654757Y122595D01*
X654838Y122772D01*
X654914Y122952D01*
X654986Y123134D01*
X655054Y123317D01*
X655117Y123502D01*
X655175Y123688D01*
X655230Y123876D01*
X655279Y124065D01*
X655324Y124255D01*
X655364Y124447D01*
X655400Y124639D01*
X655430Y124832D01*
X655457Y125025D01*
X655478Y125220D01*
X655495Y125414D01*
X655506Y125609D01*
X655514Y125805D01*
X655516Y126000D01*
X655514Y126195D01*
X655506Y126391D01*
X655495Y126586D01*
X655478Y126780D01*
X655457Y126975D01*
X655430Y127168D01*
X655400Y127361D01*
X655364Y127553D01*
X655324Y127745D01*
X655279Y127935D01*
X655230Y128124D01*
X655175Y128312D01*
X655117Y128498D01*
X655054Y128683D01*
X654986Y128866D01*
X654914Y129048D01*
X654838Y129228D01*
X654757Y129405D01*
X654672Y129581D01*
X654582Y129755D01*
X654488Y129927D01*
X654391Y130096D01*
X654289Y130262D01*
X654183Y130427D01*
X654073Y130588D01*
X653959Y130747D01*
X653842Y130903D01*
X653720Y131056D01*
X653595Y131206D01*
X653466Y131353D01*
X653334Y131497D01*
X653198Y131638D01*
X653059Y131775D01*
X652917Y131909D01*
X652771Y132039D01*
X652623Y132166D01*
X652471Y132289D01*
X652316Y132408D01*
X652158Y132523D01*
X651998Y132635D01*
X651835Y132743D01*
X651669Y132846D01*
X651501Y132946D01*
X651331Y133041D01*
X651158Y133133D01*
X650983Y133220D01*
X650806Y133303D01*
X650627Y133381D01*
X650446Y133455D01*
X650264Y133525D01*
X650079Y133590D01*
X649894Y133650D01*
X649706Y133706D01*
X649518Y133758D01*
X649328Y133805D01*
X649137Y133847D01*
X648946Y133885D01*
X648753Y133917D01*
X648560Y133946D01*
X648366Y133969D01*
X648171Y133988D01*
X647976Y134002D01*
X647781Y134011D01*
X647586Y134016D01*
X647390Y134015D01*
X647195Y134010D01*
X647000Y134000D01*
X627000Y134000D02*
X626805Y134010D01*
X626610Y134015D01*
X626414Y134016D01*
X626219Y134011D01*
X626024Y134002D01*
X625829Y133988D01*
X625634Y133969D01*
X625440Y133946D01*
X625247Y133917D01*
X625054Y133885D01*
X624863Y133847D01*
X624672Y133805D01*
X624482Y133758D01*
X624294Y133706D01*
X624106Y133650D01*
X623921Y133590D01*
X623736Y133525D01*
X623554Y133455D01*
X623373Y133381D01*
X623194Y133303D01*
X623017Y133220D01*
X622842Y133133D01*
X622669Y133041D01*
X622499Y132946D01*
X622331Y132846D01*
X622165Y132743D01*
X622002Y132635D01*
X621842Y132523D01*
X621684Y132408D01*
X621529Y132289D01*
X621377Y132166D01*
X621229Y132039D01*
X621083Y131909D01*
X620941Y131775D01*
X620802Y131638D01*
X620666Y131497D01*
X620534Y131353D01*
X620405Y131206D01*
X620280Y131056D01*
X620158Y130903D01*
X620041Y130747D01*
X619927Y130588D01*
X619817Y130427D01*
X619711Y130262D01*
X619609Y130096D01*
X619512Y129927D01*
X619418Y129755D01*
X619328Y129581D01*
X619243Y129405D01*
X619162Y129228D01*
X619086Y129048D01*
X619014Y128866D01*
X618946Y128683D01*
X618883Y128498D01*
X618825Y128312D01*
X618770Y128124D01*
X618721Y127935D01*
X618676Y127745D01*
X618636Y127553D01*
X618600Y127361D01*
X618570Y127168D01*
X618543Y126975D01*
X618522Y126780D01*
X618505Y126586D01*
X618494Y126391D01*
X618486Y126195D01*
X618484Y126000D01*
X618486Y125805D01*
X618494Y125609D01*
X618505Y125414D01*
X618522Y125220D01*
X618543Y125025D01*
X618570Y124832D01*
X618600Y124639D01*
X618636Y124447D01*
X618676Y124255D01*
X618721Y124065D01*
X618770Y123876D01*
X618825Y123688D01*
X618883Y123502D01*
X618946Y123317D01*
X619014Y123134D01*
X619086Y122952D01*
X619162Y122772D01*
X619243Y122595D01*
X619328Y122419D01*
X619418Y122245D01*
X619512Y122073D01*
X619609Y121904D01*
X619711Y121738D01*
X619817Y121573D01*
X619927Y121412D01*
X620041Y121253D01*
X620158Y121097D01*
X620280Y120944D01*
X620405Y120794D01*
X620534Y120647D01*
X620666Y120503D01*
X620802Y120362D01*
X620941Y120225D01*
X621083Y120091D01*
X621229Y119961D01*
X621377Y119834D01*
X621529Y119711D01*
X621684Y119592D01*
X621842Y119477D01*
X622002Y119365D01*
X622165Y119257D01*
X622331Y119154D01*
X622499Y119054D01*
X622669Y118959D01*
X622842Y118867D01*
X623017Y118780D01*
X623194Y118697D01*
X623373Y118619D01*
X623554Y118545D01*
X623736Y118475D01*
X623921Y118410D01*
X624106Y118350D01*
X624294Y118294D01*
X624482Y118242D01*
X624672Y118195D01*
X624863Y118153D01*
X625054Y118115D01*
X625247Y118083D01*
X625440Y118054D01*
X625634Y118031D01*
X625829Y118012D01*
X626024Y117998D01*
X626219Y117989D01*
X626414Y117984D01*
X626610Y117985D01*
X626805Y117990D01*
X627000Y118000D01*
X647000Y118000D01*
X647000Y134000D02*
X627000Y134000D01*
X647000Y20000D02*
X647195Y20010D01*
X647390Y20015D01*
X647586Y20016D01*
X647781Y20011D01*
X647976Y20002D01*
X648171Y19988D01*
X648366Y19969D01*
X648560Y19946D01*
X648753Y19917D01*
X648946Y19885D01*
X649137Y19847D01*
X649328Y19805D01*
X649518Y19758D01*
X649706Y19706D01*
X649894Y19650D01*
X650079Y19590D01*
X650264Y19525D01*
X650446Y19455D01*
X650627Y19381D01*
X650806Y19303D01*
X650983Y19220D01*
X651158Y19133D01*
X651331Y19041D01*
X651501Y18946D01*
X651669Y18846D01*
X651835Y18743D01*
X651998Y18635D01*
X652158Y18523D01*
X652316Y18408D01*
X652471Y18289D01*
X652623Y18166D01*
X652771Y18039D01*
X652917Y17909D01*
X653059Y17775D01*
X653198Y17638D01*
X653334Y17497D01*
X653466Y17353D01*
X653595Y17206D01*
X653720Y17056D01*
X653842Y16903D01*
X653959Y16747D01*
X654073Y16588D01*
X654183Y16427D01*
X654289Y16262D01*
X654391Y16096D01*
X654488Y15927D01*
X654582Y15755D01*
X654672Y15581D01*
X654757Y15405D01*
X654838Y15228D01*
X654914Y15048D01*
X654986Y14866D01*
X655054Y14683D01*
X655117Y14498D01*
X655175Y14312D01*
X655230Y14124D01*
X655279Y13935D01*
X655324Y13745D01*
X655364Y13553D01*
X655400Y13361D01*
X655430Y13168D01*
X655457Y12975D01*
X655478Y12780D01*
X655495Y12586D01*
X655506Y12391D01*
X655514Y12195D01*
X655516Y12000D01*
X655514Y11805D01*
X655506Y11609D01*
X655495Y11414D01*
X655478Y11220D01*
X655457Y11025D01*
X655430Y10832D01*
X655400Y10639D01*
X655364Y10447D01*
X655324Y10255D01*
X655279Y10065D01*
X655230Y9876D01*
X655175Y9688D01*
X655117Y9502D01*
X655054Y9317D01*
X654986Y9134D01*
X654914Y8952D01*
X654838Y8772D01*
X654757Y8595D01*
X654672Y8419D01*
X654582Y8245D01*
X654488Y8073D01*
X654391Y7904D01*
X654289Y7738D01*
X654183Y7573D01*
X654073Y7412D01*
X653959Y7253D01*
X653842Y7097D01*
X653720Y6944D01*
X653595Y6794D01*
X653466Y6647D01*
X653334Y6503D01*
X653198Y6362D01*
X653059Y6225D01*
X652917Y6091D01*
X652771Y5961D01*
X652623Y5834D01*
X652471Y5711D01*
X652316Y5592D01*
X652158Y5477D01*
X651998Y5365D01*
X651835Y5257D01*
X651669Y5154D01*
X651501Y5054D01*
X651331Y4959D01*
X651158Y4867D01*
X650983Y4780D01*
X650806Y4697D01*
X650627Y4619D01*
X650446Y4545D01*
X650264Y4475D01*
X650079Y4410D01*
X649894Y4350D01*
X649706Y4294D01*
X649518Y4242D01*
X649328Y4195D01*
X649137Y4153D01*
X648946Y4115D01*
X648753Y4083D01*
X648560Y4054D01*
X648366Y4031D01*
X648171Y4012D01*
X647976Y3998D01*
X647781Y3989D01*
X647586Y3984D01*
X647390Y3985D01*
X647195Y3990D01*
X647000Y4000D01*
X627000Y4000D02*
X626805Y3990D01*
X626610Y3985D01*
X626414Y3984D01*
X626219Y3989D01*
X626024Y3998D01*
X625829Y4012D01*
X625634Y4031D01*
X625440Y4054D01*
X625247Y4083D01*
X625054Y4115D01*
X624863Y4153D01*
X624672Y4195D01*
X624482Y4242D01*
X624294Y4294D01*
X624106Y4350D01*
X623921Y4410D01*
X623736Y4475D01*
X623554Y4545D01*
X623373Y4619D01*
X623194Y4697D01*
X623017Y4780D01*
X622842Y4867D01*
X622669Y4959D01*
X622499Y5054D01*
X622331Y5154D01*
X622165Y5257D01*
X622002Y5365D01*
X621842Y5477D01*
X621684Y5592D01*
X621529Y5711D01*
X621377Y5834D01*
X621229Y5961D01*
X621083Y6091D01*
X620941Y6225D01*
X620802Y6362D01*
X620666Y6503D01*
X620534Y6647D01*
X620405Y6794D01*
X620280Y6944D01*
X620158Y7097D01*
X620041Y7253D01*
X619927Y7412D01*
X619817Y7573D01*
X619711Y7738D01*
X619609Y7904D01*
X619512Y8073D01*
X619418Y8245D01*
X619328Y8419D01*
X619243Y8595D01*
X619162Y8772D01*
X619086Y8952D01*
X619014Y9134D01*
X618946Y9317D01*
X618883Y9502D01*
X618825Y9688D01*
X618770Y9876D01*
X618721Y10065D01*
X618676Y10255D01*
X618636Y10447D01*
X618600Y10639D01*
X618570Y10832D01*
X618543Y11025D01*
X618522Y11220D01*
X618505Y11414D01*
X618494Y11609D01*
X618486Y11805D01*
X618484Y12000D01*
X618486Y12195D01*
X618494Y12391D01*
X618505Y12586D01*
X618522Y12780D01*
X618543Y12975D01*
X618570Y13168D01*
X618600Y13361D01*
X618636Y13553D01*
X618676Y13745D01*
X618721Y13935D01*
X618770Y14124D01*
X618825Y14312D01*
X618883Y14498D01*
X618946Y14683D01*
X619014Y14866D01*
X619086Y15048D01*
X619162Y15228D01*
X619243Y15405D01*
X619328Y15581D01*
X619418Y15755D01*
X619512Y15927D01*
X619609Y16096D01*
X619711Y16262D01*
X619817Y16427D01*
X619927Y16588D01*
X620041Y16747D01*
X620158Y16903D01*
X620280Y17056D01*
X620405Y17206D01*
X620534Y17353D01*
X620666Y17497D01*
X620802Y17638D01*
X620941Y17775D01*
X621083Y17909D01*
X621229Y18039D01*
X621377Y18166D01*
X621529Y18289D01*
X621684Y18408D01*
X621842Y18523D01*
X622002Y18635D01*
X622165Y18743D01*
X622331Y18846D01*
X622499Y18946D01*
X622669Y19041D01*
X622842Y19133D01*
X623017Y19220D01*
X623194Y19303D01*
X623373Y19381D01*
X623554Y19455D01*
X623736Y19525D01*
X623921Y19590D01*
X624106Y19650D01*
X624294Y19706D01*
X624482Y19758D01*
X624672Y19805D01*
X624863Y19847D01*
X625054Y19885D01*
X625247Y19917D01*
X625440Y19946D01*
X625634Y19969D01*
X625829Y19988D01*
X626024Y20002D01*
X626219Y20011D01*
X626414Y20016D01*
X626610Y20015D01*
X626805Y20010D01*
X627000Y20000D01*
X627000Y4000D02*
X647000Y4000D01*
X647000Y20000D02*
X627000Y20000D01*
D15*
X1080000Y44000D03*
X1080000Y94000D03*
X1225000Y44000D03*
X1225000Y94000D03*
X1225000Y69000D03*
D16*
X1161250Y12000D02*
X1138750Y12000D01*
X1138750Y126000D02*
X1161250Y126000D01*
D17*
X1140000Y20000D02*
X1139805Y20010D01*
X1139610Y20015D01*
X1139414Y20016D01*
X1139219Y20011D01*
X1139024Y20002D01*
X1138829Y19988D01*
X1138634Y19969D01*
X1138440Y19946D01*
X1138247Y19917D01*
X1138054Y19885D01*
X1137863Y19847D01*
X1137672Y19805D01*
X1137482Y19758D01*
X1137294Y19706D01*
X1137106Y19650D01*
X1136921Y19590D01*
X1136736Y19525D01*
X1136554Y19455D01*
X1136373Y19381D01*
X1136194Y19303D01*
X1136017Y19220D01*
X1135842Y19133D01*
X1135669Y19041D01*
X1135499Y18946D01*
X1135331Y18846D01*
X1135165Y18743D01*
X1135002Y18635D01*
X1134842Y18523D01*
X1134684Y18408D01*
X1134529Y18289D01*
X1134377Y18166D01*
X1134229Y18039D01*
X1134083Y17909D01*
X1133941Y17775D01*
X1133802Y17638D01*
X1133666Y17497D01*
X1133534Y17353D01*
X1133405Y17206D01*
X1133280Y17056D01*
X1133158Y16903D01*
X1133041Y16747D01*
X1132927Y16588D01*
X1132817Y16427D01*
X1132711Y16262D01*
X1132609Y16096D01*
X1132512Y15927D01*
X1132418Y15755D01*
X1132328Y15581D01*
X1132243Y15405D01*
X1132162Y15228D01*
X1132086Y15048D01*
X1132014Y14866D01*
X1131946Y14683D01*
X1131883Y14498D01*
X1131825Y14312D01*
X1131770Y14124D01*
X1131721Y13935D01*
X1131676Y13745D01*
X1131636Y13553D01*
X1131600Y13361D01*
X1131570Y13168D01*
X1131543Y12975D01*
X1131522Y12780D01*
X1131505Y12586D01*
X1131494Y12391D01*
X1131486Y12195D01*
X1131484Y12000D01*
X1131486Y11805D01*
X1131494Y11609D01*
X1131505Y11414D01*
X1131522Y11220D01*
X1131543Y11025D01*
X1131570Y10832D01*
X1131600Y10639D01*
X1131636Y10447D01*
X1131676Y10255D01*
X1131721Y10065D01*
X1131770Y9876D01*
X1131825Y9688D01*
X1131883Y9502D01*
X1131946Y9317D01*
X1132014Y9134D01*
X1132086Y8952D01*
X1132162Y8772D01*
X1132243Y8595D01*
X1132328Y8419D01*
X1132418Y8245D01*
X1132512Y8073D01*
X1132609Y7904D01*
X1132711Y7738D01*
X1132817Y7573D01*
X1132927Y7412D01*
X1133041Y7253D01*
X1133158Y7097D01*
X1133280Y6944D01*
X1133405Y6794D01*
X1133534Y6647D01*
X1133666Y6503D01*
X1133802Y6362D01*
X1133941Y6225D01*
X1134083Y6091D01*
X1134229Y5961D01*
X1134377Y5834D01*
X1134529Y5711D01*
X1134684Y5592D01*
X1134842Y5477D01*
X1135002Y5365D01*
X1135165Y5257D01*
X1135331Y5154D01*
X1135499Y5054D01*
X1135669Y4959D01*
X1135842Y4867D01*
X1136017Y4780D01*
X1136194Y4697D01*
X1136373Y4619D01*
X1136554Y4545D01*
X1136736Y4475D01*
X1136921Y4410D01*
X1137106Y4350D01*
X1137294Y4294D01*
X1137482Y4242D01*
X1137672Y4195D01*
X1137863Y4153D01*
X1138054Y4115D01*
X1138247Y4083D01*
X1138440Y4054D01*
X1138634Y4031D01*
X1138829Y4012D01*
X1139024Y3998D01*
X1139219Y3989D01*
X1139414Y3984D01*
X1139610Y3985D01*
X1139805Y3990D01*
X1140000Y4000D01*
X1160000Y4000D02*
X1160195Y3990D01*
X1160390Y3985D01*
X1160586Y3984D01*
X1160781Y3989D01*
X1160976Y3998D01*
X1161171Y4012D01*
X1161366Y4031D01*
X1161560Y4054D01*
X1161753Y4083D01*
X1161946Y4115D01*
X1162137Y4153D01*
X1162328Y4195D01*
X1162518Y4242D01*
X1162706Y4294D01*
X1162894Y4350D01*
X1163079Y4410D01*
X1163264Y4475D01*
X1163446Y4545D01*
X1163627Y4619D01*
X1163806Y4697D01*
X1163983Y4780D01*
X1164158Y4867D01*
X1164331Y4959D01*
X1164501Y5054D01*
X1164669Y5154D01*
X1164835Y5257D01*
X1164998Y5365D01*
X1165158Y5477D01*
X1165316Y5592D01*
X1165471Y5711D01*
X1165623Y5834D01*
X1165771Y5961D01*
X1165917Y6091D01*
X1166059Y6225D01*
X1166198Y6362D01*
X1166334Y6503D01*
X1166466Y6647D01*
X1166595Y6794D01*
X1166720Y6944D01*
X1166842Y7097D01*
X1166959Y7253D01*
X1167073Y7412D01*
X1167183Y7573D01*
X1167289Y7738D01*
X1167391Y7904D01*
X1167488Y8073D01*
X1167582Y8245D01*
X1167672Y8419D01*
X1167757Y8595D01*
X1167838Y8772D01*
X1167914Y8952D01*
X1167986Y9134D01*
X1168054Y9317D01*
X1168117Y9502D01*
X1168175Y9688D01*
X1168230Y9876D01*
X1168279Y10065D01*
X1168324Y10255D01*
X1168364Y10447D01*
X1168400Y10639D01*
X1168430Y10832D01*
X1168457Y11025D01*
X1168478Y11220D01*
X1168495Y11414D01*
X1168506Y11609D01*
X1168514Y11805D01*
X1168516Y12000D01*
X1168514Y12195D01*
X1168506Y12391D01*
X1168495Y12586D01*
X1168478Y12780D01*
X1168457Y12975D01*
X1168430Y13168D01*
X1168400Y13361D01*
X1168364Y13553D01*
X1168324Y13745D01*
X1168279Y13935D01*
X1168230Y14124D01*
X1168175Y14312D01*
X1168117Y14498D01*
X1168054Y14683D01*
X1167986Y14866D01*
X1167914Y15048D01*
X1167838Y15228D01*
X1167757Y15405D01*
X1167672Y15581D01*
X1167582Y15755D01*
X1167488Y15927D01*
X1167391Y16096D01*
X1167289Y16262D01*
X1167183Y16427D01*
X1167073Y16588D01*
X1166959Y16747D01*
X1166842Y16903D01*
X1166720Y17056D01*
X1166595Y17206D01*
X1166466Y17353D01*
X1166334Y17497D01*
X1166198Y17638D01*
X1166059Y17775D01*
X1165917Y17909D01*
X1165771Y18039D01*
X1165623Y18166D01*
X1165471Y18289D01*
X1165316Y18408D01*
X1165158Y18523D01*
X1164998Y18635D01*
X1164835Y18743D01*
X1164669Y18846D01*
X1164501Y18946D01*
X1164331Y19041D01*
X1164158Y19133D01*
X1163983Y19220D01*
X1163806Y19303D01*
X1163627Y19381D01*
X1163446Y19455D01*
X1163264Y19525D01*
X1163079Y19590D01*
X1162894Y19650D01*
X1162706Y19706D01*
X1162518Y19758D01*
X1162328Y19805D01*
X1162137Y19847D01*
X1161946Y19885D01*
X1161753Y19917D01*
X1161560Y19946D01*
X1161366Y19969D01*
X1161171Y19988D01*
X1160976Y20002D01*
X1160781Y20011D01*
X1160586Y20016D01*
X1160390Y20015D01*
X1160195Y20010D01*
X1160000Y20000D01*
X1140000Y20000D01*
X1140000Y4000D02*
X1160000Y4000D01*
X1140000Y118000D02*
X1139805Y117990D01*
X1139610Y117985D01*
X1139414Y117984D01*
X1139219Y117989D01*
X1139024Y117998D01*
X1138829Y118012D01*
X1138634Y118031D01*
X1138440Y118054D01*
X1138247Y118083D01*
X1138054Y118115D01*
X1137863Y118153D01*
X1137672Y118195D01*
X1137482Y118242D01*
X1137294Y118294D01*
X1137106Y118350D01*
X1136921Y118410D01*
X1136736Y118475D01*
X1136554Y118545D01*
X1136373Y118619D01*
X1136194Y118697D01*
X1136017Y118780D01*
X1135842Y118867D01*
X1135669Y118959D01*
X1135499Y119054D01*
X1135331Y119154D01*
X1135165Y119257D01*
X1135002Y119365D01*
X1134842Y119477D01*
X1134684Y119592D01*
X1134529Y119711D01*
X1134377Y119834D01*
X1134229Y119961D01*
X1134083Y120091D01*
X1133941Y120225D01*
X1133802Y120362D01*
X1133666Y120503D01*
X1133534Y120647D01*
X1133405Y120794D01*
X1133280Y120944D01*
X1133158Y121097D01*
X1133041Y121253D01*
X1132927Y121412D01*
X1132817Y121573D01*
X1132711Y121738D01*
X1132609Y121904D01*
X1132512Y122073D01*
X1132418Y122245D01*
X1132328Y122419D01*
X1132243Y122595D01*
X1132162Y122772D01*
X1132086Y122952D01*
X1132014Y123134D01*
X1131946Y123317D01*
X1131883Y123502D01*
X1131825Y123688D01*
X1131770Y123876D01*
X1131721Y124065D01*
X1131676Y124255D01*
X1131636Y124447D01*
X1131600Y124639D01*
X1131570Y124832D01*
X1131543Y125025D01*
X1131522Y125220D01*
X1131505Y125414D01*
X1131494Y125609D01*
X1131486Y125805D01*
X1131484Y126000D01*
X1131486Y126195D01*
X1131494Y126391D01*
X1131505Y126586D01*
X1131522Y126780D01*
X1131543Y126975D01*
X1131570Y127168D01*
X1131600Y127361D01*
X1131636Y127553D01*
X1131676Y127745D01*
X1131721Y127935D01*
X1131770Y128124D01*
X1131825Y128312D01*
X1131883Y128498D01*
X1131946Y128683D01*
X1132014Y128866D01*
X1132086Y129048D01*
X1132162Y129228D01*
X1132243Y129405D01*
X1132328Y129581D01*
X1132418Y129755D01*
X1132512Y129927D01*
X1132609Y130096D01*
X1132711Y130262D01*
X1132817Y130427D01*
X1132927Y130588D01*
X1133041Y130747D01*
X1133158Y130903D01*
X1133280Y131056D01*
X1133405Y131206D01*
X1133534Y131353D01*
X1133666Y131497D01*
X1133802Y131638D01*
X1133941Y131775D01*
X1134083Y131909D01*
X1134229Y132039D01*
X1134377Y132166D01*
X1134529Y132289D01*
X1134684Y132408D01*
X1134842Y132523D01*
X1135002Y132635D01*
X1135165Y132743D01*
X1135331Y132846D01*
X1135499Y132946D01*
X1135669Y133041D01*
X1135842Y133133D01*
X1136017Y133220D01*
X1136194Y133303D01*
X1136373Y133381D01*
X1136554Y133455D01*
X1136736Y133525D01*
X1136921Y133590D01*
X1137106Y133650D01*
X1137294Y133706D01*
X1137482Y133758D01*
X1137672Y133805D01*
X1137863Y133847D01*
X1138054Y133885D01*
X1138247Y133917D01*
X1138440Y133946D01*
X1138634Y133969D01*
X1138829Y133988D01*
X1139024Y134002D01*
X1139219Y134011D01*
X1139414Y134016D01*
X1139610Y134015D01*
X1139805Y134010D01*
X1140000Y134000D01*
X1160000Y134000D02*
X1160195Y134010D01*
X1160390Y134015D01*
X1160586Y134016D01*
X1160781Y134011D01*
X1160976Y134002D01*
X1161171Y133988D01*
X1161366Y133969D01*
X1161560Y133946D01*
X1161753Y133917D01*
X1161946Y133885D01*
X1162137Y133847D01*
X1162328Y133805D01*
X1162518Y133758D01*
X1162706Y133706D01*
X1162894Y133650D01*
X1163079Y133590D01*
X1163264Y133525D01*
X1163446Y133455D01*
X1163627Y133381D01*
X1163806Y133303D01*
X1163983Y133220D01*
X1164158Y133133D01*
X1164331Y133041D01*
X1164501Y132946D01*
X1164669Y132846D01*
X1164835Y132743D01*
X1164998Y132635D01*
X1165158Y132523D01*
X1165316Y132408D01*
X1165471Y132289D01*
X1165623Y132166D01*
X1165771Y132039D01*
X1165917Y131909D01*
X1166059Y131775D01*
X1166198Y131638D01*
X1166334Y131497D01*
X1166466Y131353D01*
X1166595Y131206D01*
X1166720Y131056D01*
X1166842Y130903D01*
X1166959Y130747D01*
X1167073Y130588D01*
X1167183Y130427D01*
X1167289Y130262D01*
X1167391Y130096D01*
X1167488Y129927D01*
X1167582Y129755D01*
X1167672Y129581D01*
X1167757Y129405D01*
X1167838Y129228D01*
X1167914Y129048D01*
X1167986Y128866D01*
X1168054Y128683D01*
X1168117Y128498D01*
X1168175Y128312D01*
X1168230Y128124D01*
X1168279Y127935D01*
X1168324Y127745D01*
X1168364Y127553D01*
X1168400Y127361D01*
X1168430Y127168D01*
X1168457Y126975D01*
X1168478Y126780D01*
X1168495Y126586D01*
X1168506Y126391D01*
X1168514Y126195D01*
X1168516Y126000D01*
X1168514Y125805D01*
X1168506Y125609D01*
X1168495Y125414D01*
X1168478Y125220D01*
X1168457Y125025D01*
X1168430Y124832D01*
X1168400Y124639D01*
X1168364Y124447D01*
X1168324Y124255D01*
X1168279Y124065D01*
X1168230Y123876D01*
X1168175Y123688D01*
X1168117Y123502D01*
X1168054Y123317D01*
X1167986Y123134D01*
X1167914Y122952D01*
X1167838Y122772D01*
X1167757Y122595D01*
X1167672Y122419D01*
X1167582Y122245D01*
X1167488Y122073D01*
X1167391Y121904D01*
X1167289Y121738D01*
X1167183Y121573D01*
X1167073Y121412D01*
X1166959Y121253D01*
X1166842Y121097D01*
X1166720Y120944D01*
X1166595Y120794D01*
X1166466Y120647D01*
X1166334Y120503D01*
X1166198Y120362D01*
X1166059Y120225D01*
X1165917Y120091D01*
X1165771Y119961D01*
X1165623Y119834D01*
X1165471Y119711D01*
X1165316Y119592D01*
X1165158Y119477D01*
X1164998Y119365D01*
X1164835Y119257D01*
X1164669Y119154D01*
X1164501Y119054D01*
X1164331Y118959D01*
X1164158Y118867D01*
X1163983Y118780D01*
X1163806Y118697D01*
X1163627Y118619D01*
X1163446Y118545D01*
X1163264Y118475D01*
X1163079Y118410D01*
X1162894Y118350D01*
X1162706Y118294D01*
X1162518Y118242D01*
X1162328Y118195D01*
X1162137Y118153D01*
X1161946Y118115D01*
X1161753Y118083D01*
X1161560Y118054D01*
X1161366Y118031D01*
X1161171Y118012D01*
X1160976Y117998D01*
X1160781Y117989D01*
X1160586Y117984D01*
X1160390Y117985D01*
X1160195Y117990D01*
X1160000Y118000D01*
X1160000Y134000D02*
X1140000Y134000D01*
X1140000Y118000D02*
X1160000Y118000D01*
D14*
X675900Y60700D03*
X675900Y43700D03*
X1113000Y71500D03*
X1113000Y88500D03*
D18*
X669512Y169394D03*
X604488Y169394D03*
X669512Y214606D03*
X604488Y214606D03*
X1182512Y169394D03*
X1117488Y169394D03*
X1182512Y214606D03*
X1117488Y214606D03*
D13*
X637000Y176500D03*
X637000Y159500D03*
X1150000Y176500D03*
X1150000Y159500D03*
D14*
X637000Y195500D03*
X637000Y212500D03*
X1150000Y195500D03*
X1150000Y212500D03*
D19*
X149150Y48000D03*
X123750Y48000D03*
X47550Y48000D03*
D10*
X80000Y48000D02*
X80004Y48294D01*
X80014Y48589D01*
X80033Y48883D01*
X80058Y49176D01*
X80090Y49469D01*
X80130Y49761D01*
X80177Y50052D01*
X80231Y50341D01*
X80292Y50629D01*
X80360Y50916D01*
X80435Y51201D01*
X80517Y51483D01*
X80606Y51764D01*
X80701Y52043D01*
X80804Y52319D01*
X80913Y52592D01*
X81029Y52863D01*
X81152Y53131D01*
X81281Y53395D01*
X81417Y53657D01*
X81559Y53915D01*
X81707Y54169D01*
X81862Y54420D01*
X82022Y54667D01*
X82189Y54910D01*
X82362Y55148D01*
X82540Y55383D01*
X82724Y55613D01*
X82913Y55838D01*
X83109Y56059D01*
X83309Y56274D01*
X83515Y56485D01*
X83726Y56691D01*
X83941Y56891D01*
X84162Y57087D01*
X84387Y57276D01*
X84617Y57460D01*
X84852Y57638D01*
X85090Y57811D01*
X85333Y57978D01*
X85580Y58138D01*
X85831Y58293D01*
X86085Y58441D01*
X86343Y58583D01*
X86605Y58719D01*
X86869Y58848D01*
X87137Y58971D01*
X87408Y59087D01*
X87681Y59196D01*
X87957Y59299D01*
X88236Y59394D01*
X88517Y59483D01*
X88799Y59565D01*
X89084Y59640D01*
X89371Y59708D01*
X89659Y59769D01*
X89948Y59823D01*
X90239Y59870D01*
X90531Y59910D01*
X90824Y59942D01*
X91117Y59967D01*
X91411Y59986D01*
X91706Y59996D01*
X92000Y60000D01*
X92294Y59996D01*
X92589Y59986D01*
X92883Y59967D01*
X93176Y59942D01*
X93469Y59910D01*
X93761Y59870D01*
X94052Y59823D01*
X94341Y59769D01*
X94629Y59708D01*
X94916Y59640D01*
X95201Y59565D01*
X95483Y59483D01*
X95764Y59394D01*
X96043Y59299D01*
X96319Y59196D01*
X96592Y59087D01*
X96863Y58971D01*
X97131Y58848D01*
X97395Y58719D01*
X97657Y58583D01*
X97915Y58441D01*
X98169Y58293D01*
X98420Y58138D01*
X98667Y57978D01*
X98910Y57811D01*
X99148Y57638D01*
X99383Y57460D01*
X99613Y57276D01*
X99838Y57087D01*
X100059Y56891D01*
X100274Y56691D01*
X100485Y56485D01*
X100691Y56274D01*
X100891Y56059D01*
X101087Y55838D01*
X101276Y55613D01*
X101460Y55383D01*
X101638Y55148D01*
X101811Y54910D01*
X101978Y54667D01*
X102138Y54420D01*
X102293Y54169D01*
X102441Y53915D01*
X102583Y53657D01*
X102719Y53395D01*
X102848Y53131D01*
X102971Y52863D01*
X103087Y52592D01*
X103196Y52319D01*
X103299Y52043D01*
X103394Y51764D01*
X103483Y51483D01*
X103565Y51201D01*
X103640Y50916D01*
X103708Y50629D01*
X103769Y50341D01*
X103823Y50052D01*
X103870Y49761D01*
X103910Y49469D01*
X103942Y49176D01*
X103967Y48883D01*
X103986Y48589D01*
X103996Y48294D01*
X104000Y48000D01*
X103996Y47706D01*
X103986Y47411D01*
X103967Y47117D01*
X103942Y46824D01*
X103910Y46531D01*
X103870Y46239D01*
X103823Y45948D01*
X103769Y45659D01*
X103708Y45371D01*
X103640Y45084D01*
X103565Y44799D01*
X103483Y44517D01*
X103394Y44236D01*
X103299Y43957D01*
X103196Y43681D01*
X103087Y43408D01*
X102971Y43137D01*
X102848Y42869D01*
X102719Y42605D01*
X102583Y42343D01*
X102441Y42085D01*
X102293Y41831D01*
X102138Y41580D01*
X101978Y41333D01*
X101811Y41090D01*
X101638Y40852D01*
X101460Y40617D01*
X101276Y40387D01*
X101087Y40162D01*
X100891Y39941D01*
X100691Y39726D01*
X100485Y39515D01*
X100274Y39309D01*
X100059Y39109D01*
X99838Y38913D01*
X99613Y38724D01*
X99383Y38540D01*
X99148Y38362D01*
X98910Y38189D01*
X98667Y38022D01*
X98420Y37862D01*
X98169Y37707D01*
X97915Y37559D01*
X97657Y37417D01*
X97395Y37281D01*
X97131Y37152D01*
X96863Y37029D01*
X96592Y36913D01*
X96319Y36804D01*
X96043Y36701D01*
X95764Y36606D01*
X95483Y36517D01*
X95201Y36435D01*
X94916Y36360D01*
X94629Y36292D01*
X94341Y36231D01*
X94052Y36177D01*
X93761Y36130D01*
X93469Y36090D01*
X93176Y36058D01*
X92883Y36033D01*
X92589Y36014D01*
X92294Y36004D01*
X92000Y36000D01*
X91706Y36004D01*
X91411Y36014D01*
X91117Y36033D01*
X90824Y36058D01*
X90531Y36090D01*
X90239Y36130D01*
X89948Y36177D01*
X89659Y36231D01*
X89371Y36292D01*
X89084Y36360D01*
X88799Y36435D01*
X88517Y36517D01*
X88236Y36606D01*
X87957Y36701D01*
X87681Y36804D01*
X87408Y36913D01*
X87137Y37029D01*
X86869Y37152D01*
X86605Y37281D01*
X86343Y37417D01*
X86085Y37559D01*
X85831Y37707D01*
X85580Y37862D01*
X85333Y38022D01*
X85090Y38189D01*
X84852Y38362D01*
X84617Y38540D01*
X84387Y38724D01*
X84162Y38913D01*
X83941Y39109D01*
X83726Y39309D01*
X83515Y39515D01*
X83309Y39726D01*
X83109Y39941D01*
X82913Y40162D01*
X82724Y40387D01*
X82540Y40617D01*
X82362Y40852D01*
X82189Y41090D01*
X82022Y41333D01*
X81862Y41580D01*
X81707Y41831D01*
X81559Y42085D01*
X81417Y42343D01*
X81281Y42605D01*
X81152Y42869D01*
X81029Y43137D01*
X80913Y43408D01*
X80804Y43681D01*
X80701Y43957D01*
X80606Y44236D01*
X80517Y44517D01*
X80435Y44799D01*
X80360Y45084D01*
X80292Y45371D01*
X80231Y45659D01*
X80177Y45948D01*
X80130Y46239D01*
X80090Y46531D01*
X80058Y46824D01*
X80033Y47117D01*
X80014Y47411D01*
X80004Y47706D01*
X80000Y48000D01*
D20*
X92000Y48000D03*
D21*
X148850Y48000D03*
X174250Y48000D03*
X250450Y48000D03*
D10*
X194000Y48000D02*
X194004Y48294D01*
X194014Y48589D01*
X194033Y48883D01*
X194058Y49176D01*
X194090Y49469D01*
X194130Y49761D01*
X194177Y50052D01*
X194231Y50341D01*
X194292Y50629D01*
X194360Y50916D01*
X194435Y51201D01*
X194517Y51483D01*
X194606Y51764D01*
X194701Y52043D01*
X194804Y52319D01*
X194913Y52592D01*
X195029Y52863D01*
X195152Y53131D01*
X195281Y53395D01*
X195417Y53657D01*
X195559Y53915D01*
X195707Y54169D01*
X195862Y54420D01*
X196022Y54667D01*
X196189Y54910D01*
X196362Y55148D01*
X196540Y55383D01*
X196724Y55613D01*
X196913Y55838D01*
X197109Y56059D01*
X197309Y56274D01*
X197515Y56485D01*
X197726Y56691D01*
X197941Y56891D01*
X198162Y57087D01*
X198387Y57276D01*
X198617Y57460D01*
X198852Y57638D01*
X199090Y57811D01*
X199333Y57978D01*
X199580Y58138D01*
X199831Y58293D01*
X200085Y58441D01*
X200343Y58583D01*
X200605Y58719D01*
X200869Y58848D01*
X201137Y58971D01*
X201408Y59087D01*
X201681Y59196D01*
X201957Y59299D01*
X202236Y59394D01*
X202517Y59483D01*
X202799Y59565D01*
X203084Y59640D01*
X203371Y59708D01*
X203659Y59769D01*
X203948Y59823D01*
X204239Y59870D01*
X204531Y59910D01*
X204824Y59942D01*
X205117Y59967D01*
X205411Y59986D01*
X205706Y59996D01*
X206000Y60000D01*
X206294Y59996D01*
X206589Y59986D01*
X206883Y59967D01*
X207176Y59942D01*
X207469Y59910D01*
X207761Y59870D01*
X208052Y59823D01*
X208341Y59769D01*
X208629Y59708D01*
X208916Y59640D01*
X209201Y59565D01*
X209483Y59483D01*
X209764Y59394D01*
X210043Y59299D01*
X210319Y59196D01*
X210592Y59087D01*
X210863Y58971D01*
X211131Y58848D01*
X211395Y58719D01*
X211657Y58583D01*
X211915Y58441D01*
X212169Y58293D01*
X212420Y58138D01*
X212667Y57978D01*
X212910Y57811D01*
X213148Y57638D01*
X213383Y57460D01*
X213613Y57276D01*
X213838Y57087D01*
X214059Y56891D01*
X214274Y56691D01*
X214485Y56485D01*
X214691Y56274D01*
X214891Y56059D01*
X215087Y55838D01*
X215276Y55613D01*
X215460Y55383D01*
X215638Y55148D01*
X215811Y54910D01*
X215978Y54667D01*
X216138Y54420D01*
X216293Y54169D01*
X216441Y53915D01*
X216583Y53657D01*
X216719Y53395D01*
X216848Y53131D01*
X216971Y52863D01*
X217087Y52592D01*
X217196Y52319D01*
X217299Y52043D01*
X217394Y51764D01*
X217483Y51483D01*
X217565Y51201D01*
X217640Y50916D01*
X217708Y50629D01*
X217769Y50341D01*
X217823Y50052D01*
X217870Y49761D01*
X217910Y49469D01*
X217942Y49176D01*
X217967Y48883D01*
X217986Y48589D01*
X217996Y48294D01*
X218000Y48000D01*
X217996Y47706D01*
X217986Y47411D01*
X217967Y47117D01*
X217942Y46824D01*
X217910Y46531D01*
X217870Y46239D01*
X217823Y45948D01*
X217769Y45659D01*
X217708Y45371D01*
X217640Y45084D01*
X217565Y44799D01*
X217483Y44517D01*
X217394Y44236D01*
X217299Y43957D01*
X217196Y43681D01*
X217087Y43408D01*
X216971Y43137D01*
X216848Y42869D01*
X216719Y42605D01*
X216583Y42343D01*
X216441Y42085D01*
X216293Y41831D01*
X216138Y41580D01*
X215978Y41333D01*
X215811Y41090D01*
X215638Y40852D01*
X215460Y40617D01*
X215276Y40387D01*
X215087Y40162D01*
X214891Y39941D01*
X214691Y39726D01*
X214485Y39515D01*
X214274Y39309D01*
X214059Y39109D01*
X213838Y38913D01*
X213613Y38724D01*
X213383Y38540D01*
X213148Y38362D01*
X212910Y38189D01*
X212667Y38022D01*
X212420Y37862D01*
X212169Y37707D01*
X211915Y37559D01*
X211657Y37417D01*
X211395Y37281D01*
X211131Y37152D01*
X210863Y37029D01*
X210592Y36913D01*
X210319Y36804D01*
X210043Y36701D01*
X209764Y36606D01*
X209483Y36517D01*
X209201Y36435D01*
X208916Y36360D01*
X208629Y36292D01*
X208341Y36231D01*
X208052Y36177D01*
X207761Y36130D01*
X207469Y36090D01*
X207176Y36058D01*
X206883Y36033D01*
X206589Y36014D01*
X206294Y36004D01*
X206000Y36000D01*
X205706Y36004D01*
X205411Y36014D01*
X205117Y36033D01*
X204824Y36058D01*
X204531Y36090D01*
X204239Y36130D01*
X203948Y36177D01*
X203659Y36231D01*
X203371Y36292D01*
X203084Y36360D01*
X202799Y36435D01*
X202517Y36517D01*
X202236Y36606D01*
X201957Y36701D01*
X201681Y36804D01*
X201408Y36913D01*
X201137Y37029D01*
X200869Y37152D01*
X200605Y37281D01*
X200343Y37417D01*
X200085Y37559D01*
X199831Y37707D01*
X199580Y37862D01*
X199333Y38022D01*
X199090Y38189D01*
X198852Y38362D01*
X198617Y38540D01*
X198387Y38724D01*
X198162Y38913D01*
X197941Y39109D01*
X197726Y39309D01*
X197515Y39515D01*
X197309Y39726D01*
X197109Y39941D01*
X196913Y40162D01*
X196724Y40387D01*
X196540Y40617D01*
X196362Y40852D01*
X196189Y41090D01*
X196022Y41333D01*
X195862Y41580D01*
X195707Y41831D01*
X195559Y42085D01*
X195417Y42343D01*
X195281Y42605D01*
X195152Y42869D01*
X195029Y43137D01*
X194913Y43408D01*
X194804Y43681D01*
X194701Y43957D01*
X194606Y44236D01*
X194517Y44517D01*
X194435Y44799D01*
X194360Y45084D01*
X194292Y45371D01*
X194231Y45659D01*
X194177Y45948D01*
X194130Y46239D01*
X194090Y46531D01*
X194058Y46824D01*
X194033Y47117D01*
X194014Y47411D01*
X194004Y47706D01*
X194000Y48000D01*
D20*
X206000Y48000D03*
D21*
X277850Y48000D03*
X303250Y48000D03*
X379450Y48000D03*
D10*
X323000Y48000D02*
X323004Y48294D01*
X323014Y48589D01*
X323033Y48883D01*
X323058Y49176D01*
X323090Y49469D01*
X323130Y49761D01*
X323177Y50052D01*
X323231Y50341D01*
X323292Y50629D01*
X323360Y50916D01*
X323435Y51201D01*
X323517Y51483D01*
X323606Y51764D01*
X323701Y52043D01*
X323804Y52319D01*
X323913Y52592D01*
X324029Y52863D01*
X324152Y53131D01*
X324281Y53395D01*
X324417Y53657D01*
X324559Y53915D01*
X324707Y54169D01*
X324862Y54420D01*
X325022Y54667D01*
X325189Y54910D01*
X325362Y55148D01*
X325540Y55383D01*
X325724Y55613D01*
X325913Y55838D01*
X326109Y56059D01*
X326309Y56274D01*
X326515Y56485D01*
X326726Y56691D01*
X326941Y56891D01*
X327162Y57087D01*
X327387Y57276D01*
X327617Y57460D01*
X327852Y57638D01*
X328090Y57811D01*
X328333Y57978D01*
X328580Y58138D01*
X328831Y58293D01*
X329085Y58441D01*
X329343Y58583D01*
X329605Y58719D01*
X329869Y58848D01*
X330137Y58971D01*
X330408Y59087D01*
X330681Y59196D01*
X330957Y59299D01*
X331236Y59394D01*
X331517Y59483D01*
X331799Y59565D01*
X332084Y59640D01*
X332371Y59708D01*
X332659Y59769D01*
X332948Y59823D01*
X333239Y59870D01*
X333531Y59910D01*
X333824Y59942D01*
X334117Y59967D01*
X334411Y59986D01*
X334706Y59996D01*
X335000Y60000D01*
X335294Y59996D01*
X335589Y59986D01*
X335883Y59967D01*
X336176Y59942D01*
X336469Y59910D01*
X336761Y59870D01*
X337052Y59823D01*
X337341Y59769D01*
X337629Y59708D01*
X337916Y59640D01*
X338201Y59565D01*
X338483Y59483D01*
X338764Y59394D01*
X339043Y59299D01*
X339319Y59196D01*
X339592Y59087D01*
X339863Y58971D01*
X340131Y58848D01*
X340395Y58719D01*
X340657Y58583D01*
X340915Y58441D01*
X341169Y58293D01*
X341420Y58138D01*
X341667Y57978D01*
X341910Y57811D01*
X342148Y57638D01*
X342383Y57460D01*
X342613Y57276D01*
X342838Y57087D01*
X343059Y56891D01*
X343274Y56691D01*
X343485Y56485D01*
X343691Y56274D01*
X343891Y56059D01*
X344087Y55838D01*
X344276Y55613D01*
X344460Y55383D01*
X344638Y55148D01*
X344811Y54910D01*
X344978Y54667D01*
X345138Y54420D01*
X345293Y54169D01*
X345441Y53915D01*
X345583Y53657D01*
X345719Y53395D01*
X345848Y53131D01*
X345971Y52863D01*
X346087Y52592D01*
X346196Y52319D01*
X346299Y52043D01*
X346394Y51764D01*
X346483Y51483D01*
X346565Y51201D01*
X346640Y50916D01*
X346708Y50629D01*
X346769Y50341D01*
X346823Y50052D01*
X346870Y49761D01*
X346910Y49469D01*
X346942Y49176D01*
X346967Y48883D01*
X346986Y48589D01*
X346996Y48294D01*
X347000Y48000D01*
X346996Y47706D01*
X346986Y47411D01*
X346967Y47117D01*
X346942Y46824D01*
X346910Y46531D01*
X346870Y46239D01*
X346823Y45948D01*
X346769Y45659D01*
X346708Y45371D01*
X346640Y45084D01*
X346565Y44799D01*
X346483Y44517D01*
X346394Y44236D01*
X346299Y43957D01*
X346196Y43681D01*
X346087Y43408D01*
X345971Y43137D01*
X345848Y42869D01*
X345719Y42605D01*
X345583Y42343D01*
X345441Y42085D01*
X345293Y41831D01*
X345138Y41580D01*
X344978Y41333D01*
X344811Y41090D01*
X344638Y40852D01*
X344460Y40617D01*
X344276Y40387D01*
X344087Y40162D01*
X343891Y39941D01*
X343691Y39726D01*
X343485Y39515D01*
X343274Y39309D01*
X343059Y39109D01*
X342838Y38913D01*
X342613Y38724D01*
X342383Y38540D01*
X342148Y38362D01*
X341910Y38189D01*
X341667Y38022D01*
X341420Y37862D01*
X341169Y37707D01*
X340915Y37559D01*
X340657Y37417D01*
X340395Y37281D01*
X340131Y37152D01*
X339863Y37029D01*
X339592Y36913D01*
X339319Y36804D01*
X339043Y36701D01*
X338764Y36606D01*
X338483Y36517D01*
X338201Y36435D01*
X337916Y36360D01*
X337629Y36292D01*
X337341Y36231D01*
X337052Y36177D01*
X336761Y36130D01*
X336469Y36090D01*
X336176Y36058D01*
X335883Y36033D01*
X335589Y36014D01*
X335294Y36004D01*
X335000Y36000D01*
X334706Y36004D01*
X334411Y36014D01*
X334117Y36033D01*
X333824Y36058D01*
X333531Y36090D01*
X333239Y36130D01*
X332948Y36177D01*
X332659Y36231D01*
X332371Y36292D01*
X332084Y36360D01*
X331799Y36435D01*
X331517Y36517D01*
X331236Y36606D01*
X330957Y36701D01*
X330681Y36804D01*
X330408Y36913D01*
X330137Y37029D01*
X329869Y37152D01*
X329605Y37281D01*
X329343Y37417D01*
X329085Y37559D01*
X328831Y37707D01*
X328580Y37862D01*
X328333Y38022D01*
X328090Y38189D01*
X327852Y38362D01*
X327617Y38540D01*
X327387Y38724D01*
X327162Y38913D01*
X326941Y39109D01*
X326726Y39309D01*
X326515Y39515D01*
X326309Y39726D01*
X326109Y39941D01*
X325913Y40162D01*
X325724Y40387D01*
X325540Y40617D01*
X325362Y40852D01*
X325189Y41090D01*
X325022Y41333D01*
X324862Y41580D01*
X324707Y41831D01*
X324559Y42085D01*
X324417Y42343D01*
X324281Y42605D01*
X324152Y42869D01*
X324029Y43137D01*
X323913Y43408D01*
X323804Y43681D01*
X323701Y43957D01*
X323606Y44236D01*
X323517Y44517D01*
X323435Y44799D01*
X323360Y45084D01*
X323292Y45371D01*
X323231Y45659D01*
X323177Y45948D01*
X323130Y46239D01*
X323090Y46531D01*
X323058Y46824D01*
X323033Y47117D01*
X323014Y47411D01*
X323004Y47706D01*
X323000Y48000D01*
D20*
X335000Y48000D03*
D21*
X407850Y48000D03*
X433250Y48000D03*
X509450Y48000D03*
D10*
X453000Y48000D02*
X453004Y48294D01*
X453014Y48589D01*
X453033Y48883D01*
X453058Y49176D01*
X453090Y49469D01*
X453130Y49761D01*
X453177Y50052D01*
X453231Y50341D01*
X453292Y50629D01*
X453360Y50916D01*
X453435Y51201D01*
X453517Y51483D01*
X453606Y51764D01*
X453701Y52043D01*
X453804Y52319D01*
X453913Y52592D01*
X454029Y52863D01*
X454152Y53131D01*
X454281Y53395D01*
X454417Y53657D01*
X454559Y53915D01*
X454707Y54169D01*
X454862Y54420D01*
X455022Y54667D01*
X455189Y54910D01*
X455362Y55148D01*
X455540Y55383D01*
X455724Y55613D01*
X455913Y55838D01*
X456109Y56059D01*
X456309Y56274D01*
X456515Y56485D01*
X456726Y56691D01*
X456941Y56891D01*
X457162Y57087D01*
X457387Y57276D01*
X457617Y57460D01*
X457852Y57638D01*
X458090Y57811D01*
X458333Y57978D01*
X458580Y58138D01*
X458831Y58293D01*
X459085Y58441D01*
X459343Y58583D01*
X459605Y58719D01*
X459869Y58848D01*
X460137Y58971D01*
X460408Y59087D01*
X460681Y59196D01*
X460957Y59299D01*
X461236Y59394D01*
X461517Y59483D01*
X461799Y59565D01*
X462084Y59640D01*
X462371Y59708D01*
X462659Y59769D01*
X462948Y59823D01*
X463239Y59870D01*
X463531Y59910D01*
X463824Y59942D01*
X464117Y59967D01*
X464411Y59986D01*
X464706Y59996D01*
X465000Y60000D01*
X465294Y59996D01*
X465589Y59986D01*
X465883Y59967D01*
X466176Y59942D01*
X466469Y59910D01*
X466761Y59870D01*
X467052Y59823D01*
X467341Y59769D01*
X467629Y59708D01*
X467916Y59640D01*
X468201Y59565D01*
X468483Y59483D01*
X468764Y59394D01*
X469043Y59299D01*
X469319Y59196D01*
X469592Y59087D01*
X469863Y58971D01*
X470131Y58848D01*
X470395Y58719D01*
X470657Y58583D01*
X470915Y58441D01*
X471169Y58293D01*
X471420Y58138D01*
X471667Y57978D01*
X471910Y57811D01*
X472148Y57638D01*
X472383Y57460D01*
X472613Y57276D01*
X472838Y57087D01*
X473059Y56891D01*
X473274Y56691D01*
X473485Y56485D01*
X473691Y56274D01*
X473891Y56059D01*
X474087Y55838D01*
X474276Y55613D01*
X474460Y55383D01*
X474638Y55148D01*
X474811Y54910D01*
X474978Y54667D01*
X475138Y54420D01*
X475293Y54169D01*
X475441Y53915D01*
X475583Y53657D01*
X475719Y53395D01*
X475848Y53131D01*
X475971Y52863D01*
X476087Y52592D01*
X476196Y52319D01*
X476299Y52043D01*
X476394Y51764D01*
X476483Y51483D01*
X476565Y51201D01*
X476640Y50916D01*
X476708Y50629D01*
X476769Y50341D01*
X476823Y50052D01*
X476870Y49761D01*
X476910Y49469D01*
X476942Y49176D01*
X476967Y48883D01*
X476986Y48589D01*
X476996Y48294D01*
X477000Y48000D01*
X476996Y47706D01*
X476986Y47411D01*
X476967Y47117D01*
X476942Y46824D01*
X476910Y46531D01*
X476870Y46239D01*
X476823Y45948D01*
X476769Y45659D01*
X476708Y45371D01*
X476640Y45084D01*
X476565Y44799D01*
X476483Y44517D01*
X476394Y44236D01*
X476299Y43957D01*
X476196Y43681D01*
X476087Y43408D01*
X475971Y43137D01*
X475848Y42869D01*
X475719Y42605D01*
X475583Y42343D01*
X475441Y42085D01*
X475293Y41831D01*
X475138Y41580D01*
X474978Y41333D01*
X474811Y41090D01*
X474638Y40852D01*
X474460Y40617D01*
X474276Y40387D01*
X474087Y40162D01*
X473891Y39941D01*
X473691Y39726D01*
X473485Y39515D01*
X473274Y39309D01*
X473059Y39109D01*
X472838Y38913D01*
X472613Y38724D01*
X472383Y38540D01*
X472148Y38362D01*
X471910Y38189D01*
X471667Y38022D01*
X471420Y37862D01*
X471169Y37707D01*
X470915Y37559D01*
X470657Y37417D01*
X470395Y37281D01*
X470131Y37152D01*
X469863Y37029D01*
X469592Y36913D01*
X469319Y36804D01*
X469043Y36701D01*
X468764Y36606D01*
X468483Y36517D01*
X468201Y36435D01*
X467916Y36360D01*
X467629Y36292D01*
X467341Y36231D01*
X467052Y36177D01*
X466761Y36130D01*
X466469Y36090D01*
X466176Y36058D01*
X465883Y36033D01*
X465589Y36014D01*
X465294Y36004D01*
X465000Y36000D01*
X464706Y36004D01*
X464411Y36014D01*
X464117Y36033D01*
X463824Y36058D01*
X463531Y36090D01*
X463239Y36130D01*
X462948Y36177D01*
X462659Y36231D01*
X462371Y36292D01*
X462084Y36360D01*
X461799Y36435D01*
X461517Y36517D01*
X461236Y36606D01*
X460957Y36701D01*
X460681Y36804D01*
X460408Y36913D01*
X460137Y37029D01*
X459869Y37152D01*
X459605Y37281D01*
X459343Y37417D01*
X459085Y37559D01*
X458831Y37707D01*
X458580Y37862D01*
X458333Y38022D01*
X458090Y38189D01*
X457852Y38362D01*
X457617Y38540D01*
X457387Y38724D01*
X457162Y38913D01*
X456941Y39109D01*
X456726Y39309D01*
X456515Y39515D01*
X456309Y39726D01*
X456109Y39941D01*
X455913Y40162D01*
X455724Y40387D01*
X455540Y40617D01*
X455362Y40852D01*
X455189Y41090D01*
X455022Y41333D01*
X454862Y41580D01*
X454707Y41831D01*
X454559Y42085D01*
X454417Y42343D01*
X454281Y42605D01*
X454152Y42869D01*
X454029Y43137D01*
X453913Y43408D01*
X453804Y43681D01*
X453701Y43957D01*
X453606Y44236D01*
X453517Y44517D01*
X453435Y44799D01*
X453360Y45084D01*
X453292Y45371D01*
X453231Y45659D01*
X453177Y45948D01*
X453130Y46239D01*
X453090Y46531D01*
X453058Y46824D01*
X453033Y47117D01*
X453014Y47411D01*
X453004Y47706D01*
X453000Y48000D01*
D20*
X465000Y48000D03*
D19*
X149150Y177000D03*
X123750Y177000D03*
X47550Y177000D03*
D10*
X80000Y177000D02*
X80004Y177294D01*
X80014Y177589D01*
X80033Y177883D01*
X80058Y178176D01*
X80090Y178469D01*
X80130Y178761D01*
X80177Y179052D01*
X80231Y179341D01*
X80292Y179629D01*
X80360Y179916D01*
X80435Y180201D01*
X80517Y180483D01*
X80606Y180764D01*
X80701Y181043D01*
X80804Y181319D01*
X80913Y181592D01*
X81029Y181863D01*
X81152Y182131D01*
X81281Y182395D01*
X81417Y182657D01*
X81559Y182915D01*
X81707Y183169D01*
X81862Y183420D01*
X82022Y183667D01*
X82189Y183910D01*
X82362Y184148D01*
X82540Y184383D01*
X82724Y184613D01*
X82913Y184838D01*
X83109Y185059D01*
X83309Y185274D01*
X83515Y185485D01*
X83726Y185691D01*
X83941Y185891D01*
X84162Y186087D01*
X84387Y186276D01*
X84617Y186460D01*
X84852Y186638D01*
X85090Y186811D01*
X85333Y186978D01*
X85580Y187138D01*
X85831Y187293D01*
X86085Y187441D01*
X86343Y187583D01*
X86605Y187719D01*
X86869Y187848D01*
X87137Y187971D01*
X87408Y188087D01*
X87681Y188196D01*
X87957Y188299D01*
X88236Y188394D01*
X88517Y188483D01*
X88799Y188565D01*
X89084Y188640D01*
X89371Y188708D01*
X89659Y188769D01*
X89948Y188823D01*
X90239Y188870D01*
X90531Y188910D01*
X90824Y188942D01*
X91117Y188967D01*
X91411Y188986D01*
X91706Y188996D01*
X92000Y189000D01*
X92294Y188996D01*
X92589Y188986D01*
X92883Y188967D01*
X93176Y188942D01*
X93469Y188910D01*
X93761Y188870D01*
X94052Y188823D01*
X94341Y188769D01*
X94629Y188708D01*
X94916Y188640D01*
X95201Y188565D01*
X95483Y188483D01*
X95764Y188394D01*
X96043Y188299D01*
X96319Y188196D01*
X96592Y188087D01*
X96863Y187971D01*
X97131Y187848D01*
X97395Y187719D01*
X97657Y187583D01*
X97915Y187441D01*
X98169Y187293D01*
X98420Y187138D01*
X98667Y186978D01*
X98910Y186811D01*
X99148Y186638D01*
X99383Y186460D01*
X99613Y186276D01*
X99838Y186087D01*
X100059Y185891D01*
X100274Y185691D01*
X100485Y185485D01*
X100691Y185274D01*
X100891Y185059D01*
X101087Y184838D01*
X101276Y184613D01*
X101460Y184383D01*
X101638Y184148D01*
X101811Y183910D01*
X101978Y183667D01*
X102138Y183420D01*
X102293Y183169D01*
X102441Y182915D01*
X102583Y182657D01*
X102719Y182395D01*
X102848Y182131D01*
X102971Y181863D01*
X103087Y181592D01*
X103196Y181319D01*
X103299Y181043D01*
X103394Y180764D01*
X103483Y180483D01*
X103565Y180201D01*
X103640Y179916D01*
X103708Y179629D01*
X103769Y179341D01*
X103823Y179052D01*
X103870Y178761D01*
X103910Y178469D01*
X103942Y178176D01*
X103967Y177883D01*
X103986Y177589D01*
X103996Y177294D01*
X104000Y177000D01*
X103996Y176706D01*
X103986Y176411D01*
X103967Y176117D01*
X103942Y175824D01*
X103910Y175531D01*
X103870Y175239D01*
X103823Y174948D01*
X103769Y174659D01*
X103708Y174371D01*
X103640Y174084D01*
X103565Y173799D01*
X103483Y173517D01*
X103394Y173236D01*
X103299Y172957D01*
X103196Y172681D01*
X103087Y172408D01*
X102971Y172137D01*
X102848Y171869D01*
X102719Y171605D01*
X102583Y171343D01*
X102441Y171085D01*
X102293Y170831D01*
X102138Y170580D01*
X101978Y170333D01*
X101811Y170090D01*
X101638Y169852D01*
X101460Y169617D01*
X101276Y169387D01*
X101087Y169162D01*
X100891Y168941D01*
X100691Y168726D01*
X100485Y168515D01*
X100274Y168309D01*
X100059Y168109D01*
X99838Y167913D01*
X99613Y167724D01*
X99383Y167540D01*
X99148Y167362D01*
X98910Y167189D01*
X98667Y167022D01*
X98420Y166862D01*
X98169Y166707D01*
X97915Y166559D01*
X97657Y166417D01*
X97395Y166281D01*
X97131Y166152D01*
X96863Y166029D01*
X96592Y165913D01*
X96319Y165804D01*
X96043Y165701D01*
X95764Y165606D01*
X95483Y165517D01*
X95201Y165435D01*
X94916Y165360D01*
X94629Y165292D01*
X94341Y165231D01*
X94052Y165177D01*
X93761Y165130D01*
X93469Y165090D01*
X93176Y165058D01*
X92883Y165033D01*
X92589Y165014D01*
X92294Y165004D01*
X92000Y165000D01*
X91706Y165004D01*
X91411Y165014D01*
X91117Y165033D01*
X90824Y165058D01*
X90531Y165090D01*
X90239Y165130D01*
X89948Y165177D01*
X89659Y165231D01*
X89371Y165292D01*
X89084Y165360D01*
X88799Y165435D01*
X88517Y165517D01*
X88236Y165606D01*
X87957Y165701D01*
X87681Y165804D01*
X87408Y165913D01*
X87137Y166029D01*
X86869Y166152D01*
X86605Y166281D01*
X86343Y166417D01*
X86085Y166559D01*
X85831Y166707D01*
X85580Y166862D01*
X85333Y167022D01*
X85090Y167189D01*
X84852Y167362D01*
X84617Y167540D01*
X84387Y167724D01*
X84162Y167913D01*
X83941Y168109D01*
X83726Y168309D01*
X83515Y168515D01*
X83309Y168726D01*
X83109Y168941D01*
X82913Y169162D01*
X82724Y169387D01*
X82540Y169617D01*
X82362Y169852D01*
X82189Y170090D01*
X82022Y170333D01*
X81862Y170580D01*
X81707Y170831D01*
X81559Y171085D01*
X81417Y171343D01*
X81281Y171605D01*
X81152Y171869D01*
X81029Y172137D01*
X80913Y172408D01*
X80804Y172681D01*
X80701Y172957D01*
X80606Y173236D01*
X80517Y173517D01*
X80435Y173799D01*
X80360Y174084D01*
X80292Y174371D01*
X80231Y174659D01*
X80177Y174948D01*
X80130Y175239D01*
X80090Y175531D01*
X80058Y175824D01*
X80033Y176117D01*
X80014Y176411D01*
X80004Y176706D01*
X80000Y177000D01*
D20*
X92000Y177000D03*
D21*
X148850Y177000D03*
X174250Y177000D03*
X250450Y177000D03*
D10*
X194000Y177000D02*
X194004Y177294D01*
X194014Y177589D01*
X194033Y177883D01*
X194058Y178176D01*
X194090Y178469D01*
X194130Y178761D01*
X194177Y179052D01*
X194231Y179341D01*
X194292Y179629D01*
X194360Y179916D01*
X194435Y180201D01*
X194517Y180483D01*
X194606Y180764D01*
X194701Y181043D01*
X194804Y181319D01*
X194913Y181592D01*
X195029Y181863D01*
X195152Y182131D01*
X195281Y182395D01*
X195417Y182657D01*
X195559Y182915D01*
X195707Y183169D01*
X195862Y183420D01*
X196022Y183667D01*
X196189Y183910D01*
X196362Y184148D01*
X196540Y184383D01*
X196724Y184613D01*
X196913Y184838D01*
X197109Y185059D01*
X197309Y185274D01*
X197515Y185485D01*
X197726Y185691D01*
X197941Y185891D01*
X198162Y186087D01*
X198387Y186276D01*
X198617Y186460D01*
X198852Y186638D01*
X199090Y186811D01*
X199333Y186978D01*
X199580Y187138D01*
X199831Y187293D01*
X200085Y187441D01*
X200343Y187583D01*
X200605Y187719D01*
X200869Y187848D01*
X201137Y187971D01*
X201408Y188087D01*
X201681Y188196D01*
X201957Y188299D01*
X202236Y188394D01*
X202517Y188483D01*
X202799Y188565D01*
X203084Y188640D01*
X203371Y188708D01*
X203659Y188769D01*
X203948Y188823D01*
X204239Y188870D01*
X204531Y188910D01*
X204824Y188942D01*
X205117Y188967D01*
X205411Y188986D01*
X205706Y188996D01*
X206000Y189000D01*
X206294Y188996D01*
X206589Y188986D01*
X206883Y188967D01*
X207176Y188942D01*
X207469Y188910D01*
X207761Y188870D01*
X208052Y188823D01*
X208341Y188769D01*
X208629Y188708D01*
X208916Y188640D01*
X209201Y188565D01*
X209483Y188483D01*
X209764Y188394D01*
X210043Y188299D01*
X210319Y188196D01*
X210592Y188087D01*
X210863Y187971D01*
X211131Y187848D01*
X211395Y187719D01*
X211657Y187583D01*
X211915Y187441D01*
X212169Y187293D01*
X212420Y187138D01*
X212667Y186978D01*
X212910Y186811D01*
X213148Y186638D01*
X213383Y186460D01*
X213613Y186276D01*
X213838Y186087D01*
X214059Y185891D01*
X214274Y185691D01*
X214485Y185485D01*
X214691Y185274D01*
X214891Y185059D01*
X215087Y184838D01*
X215276Y184613D01*
X215460Y184383D01*
X215638Y184148D01*
X215811Y183910D01*
X215978Y183667D01*
X216138Y183420D01*
X216293Y183169D01*
X216441Y182915D01*
X216583Y182657D01*
X216719Y182395D01*
X216848Y182131D01*
X216971Y181863D01*
X217087Y181592D01*
X217196Y181319D01*
X217299Y181043D01*
X217394Y180764D01*
X217483Y180483D01*
X217565Y180201D01*
X217640Y179916D01*
X217708Y179629D01*
X217769Y179341D01*
X217823Y179052D01*
X217870Y178761D01*
X217910Y178469D01*
X217942Y178176D01*
X217967Y177883D01*
X217986Y177589D01*
X217996Y177294D01*
X218000Y177000D01*
X217996Y176706D01*
X217986Y176411D01*
X217967Y176117D01*
X217942Y175824D01*
X217910Y175531D01*
X217870Y175239D01*
X217823Y174948D01*
X217769Y174659D01*
X217708Y174371D01*
X217640Y174084D01*
X217565Y173799D01*
X217483Y173517D01*
X217394Y173236D01*
X217299Y172957D01*
X217196Y172681D01*
X217087Y172408D01*
X216971Y172137D01*
X216848Y171869D01*
X216719Y171605D01*
X216583Y171343D01*
X216441Y171085D01*
X216293Y170831D01*
X216138Y170580D01*
X215978Y170333D01*
X215811Y170090D01*
X215638Y169852D01*
X215460Y169617D01*
X215276Y169387D01*
X215087Y169162D01*
X214891Y168941D01*
X214691Y168726D01*
X214485Y168515D01*
X214274Y168309D01*
X214059Y168109D01*
X213838Y167913D01*
X213613Y167724D01*
X213383Y167540D01*
X213148Y167362D01*
X212910Y167189D01*
X212667Y167022D01*
X212420Y166862D01*
X212169Y166707D01*
X211915Y166559D01*
X211657Y166417D01*
X211395Y166281D01*
X211131Y166152D01*
X210863Y166029D01*
X210592Y165913D01*
X210319Y165804D01*
X210043Y165701D01*
X209764Y165606D01*
X209483Y165517D01*
X209201Y165435D01*
X208916Y165360D01*
X208629Y165292D01*
X208341Y165231D01*
X208052Y165177D01*
X207761Y165130D01*
X207469Y165090D01*
X207176Y165058D01*
X206883Y165033D01*
X206589Y165014D01*
X206294Y165004D01*
X206000Y165000D01*
X205706Y165004D01*
X205411Y165014D01*
X205117Y165033D01*
X204824Y165058D01*
X204531Y165090D01*
X204239Y165130D01*
X203948Y165177D01*
X203659Y165231D01*
X203371Y165292D01*
X203084Y165360D01*
X202799Y165435D01*
X202517Y165517D01*
X202236Y165606D01*
X201957Y165701D01*
X201681Y165804D01*
X201408Y165913D01*
X201137Y166029D01*
X200869Y166152D01*
X200605Y166281D01*
X200343Y166417D01*
X200085Y166559D01*
X199831Y166707D01*
X199580Y166862D01*
X199333Y167022D01*
X199090Y167189D01*
X198852Y167362D01*
X198617Y167540D01*
X198387Y167724D01*
X198162Y167913D01*
X197941Y168109D01*
X197726Y168309D01*
X197515Y168515D01*
X197309Y168726D01*
X197109Y168941D01*
X196913Y169162D01*
X196724Y169387D01*
X196540Y169617D01*
X196362Y169852D01*
X196189Y170090D01*
X196022Y170333D01*
X195862Y170580D01*
X195707Y170831D01*
X195559Y171085D01*
X195417Y171343D01*
X195281Y171605D01*
X195152Y171869D01*
X195029Y172137D01*
X194913Y172408D01*
X194804Y172681D01*
X194701Y172957D01*
X194606Y173236D01*
X194517Y173517D01*
X194435Y173799D01*
X194360Y174084D01*
X194292Y174371D01*
X194231Y174659D01*
X194177Y174948D01*
X194130Y175239D01*
X194090Y175531D01*
X194058Y175824D01*
X194033Y176117D01*
X194014Y176411D01*
X194004Y176706D01*
X194000Y177000D01*
D20*
X206000Y177000D03*
D21*
X277850Y177000D03*
X303250Y177000D03*
X379450Y177000D03*
D10*
X323000Y177000D02*
X323004Y177294D01*
X323014Y177589D01*
X323033Y177883D01*
X323058Y178176D01*
X323090Y178469D01*
X323130Y178761D01*
X323177Y179052D01*
X323231Y179341D01*
X323292Y179629D01*
X323360Y179916D01*
X323435Y180201D01*
X323517Y180483D01*
X323606Y180764D01*
X323701Y181043D01*
X323804Y181319D01*
X323913Y181592D01*
X324029Y181863D01*
X324152Y182131D01*
X324281Y182395D01*
X324417Y182657D01*
X324559Y182915D01*
X324707Y183169D01*
X324862Y183420D01*
X325022Y183667D01*
X325189Y183910D01*
X325362Y184148D01*
X325540Y184383D01*
X325724Y184613D01*
X325913Y184838D01*
X326109Y185059D01*
X326309Y185274D01*
X326515Y185485D01*
X326726Y185691D01*
X326941Y185891D01*
X327162Y186087D01*
X327387Y186276D01*
X327617Y186460D01*
X327852Y186638D01*
X328090Y186811D01*
X328333Y186978D01*
X328580Y187138D01*
X328831Y187293D01*
X329085Y187441D01*
X329343Y187583D01*
X329605Y187719D01*
X329869Y187848D01*
X330137Y187971D01*
X330408Y188087D01*
X330681Y188196D01*
X330957Y188299D01*
X331236Y188394D01*
X331517Y188483D01*
X331799Y188565D01*
X332084Y188640D01*
X332371Y188708D01*
X332659Y188769D01*
X332948Y188823D01*
X333239Y188870D01*
X333531Y188910D01*
X333824Y188942D01*
X334117Y188967D01*
X334411Y188986D01*
X334706Y188996D01*
X335000Y189000D01*
X335294Y188996D01*
X335589Y188986D01*
X335883Y188967D01*
X336176Y188942D01*
X336469Y188910D01*
X336761Y188870D01*
X337052Y188823D01*
X337341Y188769D01*
X337629Y188708D01*
X337916Y188640D01*
X338201Y188565D01*
X338483Y188483D01*
X338764Y188394D01*
X339043Y188299D01*
X339319Y188196D01*
X339592Y188087D01*
X339863Y187971D01*
X340131Y187848D01*
X340395Y187719D01*
X340657Y187583D01*
X340915Y187441D01*
X341169Y187293D01*
X341420Y187138D01*
X341667Y186978D01*
X341910Y186811D01*
X342148Y186638D01*
X342383Y186460D01*
X342613Y186276D01*
X342838Y186087D01*
X343059Y185891D01*
X343274Y185691D01*
X343485Y185485D01*
X343691Y185274D01*
X343891Y185059D01*
X344087Y184838D01*
X344276Y184613D01*
X344460Y184383D01*
X344638Y184148D01*
X344811Y183910D01*
X344978Y183667D01*
X345138Y183420D01*
X345293Y183169D01*
X345441Y182915D01*
X345583Y182657D01*
X345719Y182395D01*
X345848Y182131D01*
X345971Y181863D01*
X346087Y181592D01*
X346196Y181319D01*
X346299Y181043D01*
X346394Y180764D01*
X346483Y180483D01*
X346565Y180201D01*
X346640Y179916D01*
X346708Y179629D01*
X346769Y179341D01*
X346823Y179052D01*
X346870Y178761D01*
X346910Y178469D01*
X346942Y178176D01*
X346967Y177883D01*
X346986Y177589D01*
X346996Y177294D01*
X347000Y177000D01*
X346996Y176706D01*
X346986Y176411D01*
X346967Y176117D01*
X346942Y175824D01*
X346910Y175531D01*
X346870Y175239D01*
X346823Y174948D01*
X346769Y174659D01*
X346708Y174371D01*
X346640Y174084D01*
X346565Y173799D01*
X346483Y173517D01*
X346394Y173236D01*
X346299Y172957D01*
X346196Y172681D01*
X346087Y172408D01*
X345971Y172137D01*
X345848Y171869D01*
X345719Y171605D01*
X345583Y171343D01*
X345441Y171085D01*
X345293Y170831D01*
X345138Y170580D01*
X344978Y170333D01*
X344811Y170090D01*
X344638Y169852D01*
X344460Y169617D01*
X344276Y169387D01*
X344087Y169162D01*
X343891Y168941D01*
X343691Y168726D01*
X343485Y168515D01*
X343274Y168309D01*
X343059Y168109D01*
X342838Y167913D01*
X342613Y167724D01*
X342383Y167540D01*
X342148Y167362D01*
X341910Y167189D01*
X341667Y167022D01*
X341420Y166862D01*
X341169Y166707D01*
X340915Y166559D01*
X340657Y166417D01*
X340395Y166281D01*
X340131Y166152D01*
X339863Y166029D01*
X339592Y165913D01*
X339319Y165804D01*
X339043Y165701D01*
X338764Y165606D01*
X338483Y165517D01*
X338201Y165435D01*
X337916Y165360D01*
X337629Y165292D01*
X337341Y165231D01*
X337052Y165177D01*
X336761Y165130D01*
X336469Y165090D01*
X336176Y165058D01*
X335883Y165033D01*
X335589Y165014D01*
X335294Y165004D01*
X335000Y165000D01*
X334706Y165004D01*
X334411Y165014D01*
X334117Y165033D01*
X333824Y165058D01*
X333531Y165090D01*
X333239Y165130D01*
X332948Y165177D01*
X332659Y165231D01*
X332371Y165292D01*
X332084Y165360D01*
X331799Y165435D01*
X331517Y165517D01*
X331236Y165606D01*
X330957Y165701D01*
X330681Y165804D01*
X330408Y165913D01*
X330137Y166029D01*
X329869Y166152D01*
X329605Y166281D01*
X329343Y166417D01*
X329085Y166559D01*
X328831Y166707D01*
X328580Y166862D01*
X328333Y167022D01*
X328090Y167189D01*
X327852Y167362D01*
X327617Y167540D01*
X327387Y167724D01*
X327162Y167913D01*
X326941Y168109D01*
X326726Y168309D01*
X326515Y168515D01*
X326309Y168726D01*
X326109Y168941D01*
X325913Y169162D01*
X325724Y169387D01*
X325540Y169617D01*
X325362Y169852D01*
X325189Y170090D01*
X325022Y170333D01*
X324862Y170580D01*
X324707Y170831D01*
X324559Y171085D01*
X324417Y171343D01*
X324281Y171605D01*
X324152Y171869D01*
X324029Y172137D01*
X323913Y172408D01*
X323804Y172681D01*
X323701Y172957D01*
X323606Y173236D01*
X323517Y173517D01*
X323435Y173799D01*
X323360Y174084D01*
X323292Y174371D01*
X323231Y174659D01*
X323177Y174948D01*
X323130Y175239D01*
X323090Y175531D01*
X323058Y175824D01*
X323033Y176117D01*
X323014Y176411D01*
X323004Y176706D01*
X323000Y177000D01*
D20*
X335000Y177000D03*
D21*
X407850Y177000D03*
X433250Y177000D03*
X509450Y177000D03*
D10*
X453000Y177000D02*
X453004Y177294D01*
X453014Y177589D01*
X453033Y177883D01*
X453058Y178176D01*
X453090Y178469D01*
X453130Y178761D01*
X453177Y179052D01*
X453231Y179341D01*
X453292Y179629D01*
X453360Y179916D01*
X453435Y180201D01*
X453517Y180483D01*
X453606Y180764D01*
X453701Y181043D01*
X453804Y181319D01*
X453913Y181592D01*
X454029Y181863D01*
X454152Y182131D01*
X454281Y182395D01*
X454417Y182657D01*
X454559Y182915D01*
X454707Y183169D01*
X454862Y183420D01*
X455022Y183667D01*
X455189Y183910D01*
X455362Y184148D01*
X455540Y184383D01*
X455724Y184613D01*
X455913Y184838D01*
X456109Y185059D01*
X456309Y185274D01*
X456515Y185485D01*
X456726Y185691D01*
X456941Y185891D01*
X457162Y186087D01*
X457387Y186276D01*
X457617Y186460D01*
X457852Y186638D01*
X458090Y186811D01*
X458333Y186978D01*
X458580Y187138D01*
X458831Y187293D01*
X459085Y187441D01*
X459343Y187583D01*
X459605Y187719D01*
X459869Y187848D01*
X460137Y187971D01*
X460408Y188087D01*
X460681Y188196D01*
X460957Y188299D01*
X461236Y188394D01*
X461517Y188483D01*
X461799Y188565D01*
X462084Y188640D01*
X462371Y188708D01*
X462659Y188769D01*
X462948Y188823D01*
X463239Y188870D01*
X463531Y188910D01*
X463824Y188942D01*
X464117Y188967D01*
X464411Y188986D01*
X464706Y188996D01*
X465000Y189000D01*
X465294Y188996D01*
X465589Y188986D01*
X465883Y188967D01*
X466176Y188942D01*
X466469Y188910D01*
X466761Y188870D01*
X467052Y188823D01*
X467341Y188769D01*
X467629Y188708D01*
X467916Y188640D01*
X468201Y188565D01*
X468483Y188483D01*
X468764Y188394D01*
X469043Y188299D01*
X469319Y188196D01*
X469592Y188087D01*
X469863Y187971D01*
X470131Y187848D01*
X470395Y187719D01*
X470657Y187583D01*
X470915Y187441D01*
X471169Y187293D01*
X471420Y187138D01*
X471667Y186978D01*
X471910Y186811D01*
X472148Y186638D01*
X472383Y186460D01*
X472613Y186276D01*
X472838Y186087D01*
X473059Y185891D01*
X473274Y185691D01*
X473485Y185485D01*
X473691Y185274D01*
X473891Y185059D01*
X474087Y184838D01*
X474276Y184613D01*
X474460Y184383D01*
X474638Y184148D01*
X474811Y183910D01*
X474978Y183667D01*
X475138Y183420D01*
X475293Y183169D01*
X475441Y182915D01*
X475583Y182657D01*
X475719Y182395D01*
X475848Y182131D01*
X475971Y181863D01*
X476087Y181592D01*
X476196Y181319D01*
X476299Y181043D01*
X476394Y180764D01*
X476483Y180483D01*
X476565Y180201D01*
X476640Y179916D01*
X476708Y179629D01*
X476769Y179341D01*
X476823Y179052D01*
X476870Y178761D01*
X476910Y178469D01*
X476942Y178176D01*
X476967Y177883D01*
X476986Y177589D01*
X476996Y177294D01*
X477000Y177000D01*
X476996Y176706D01*
X476986Y176411D01*
X476967Y176117D01*
X476942Y175824D01*
X476910Y175531D01*
X476870Y175239D01*
X476823Y174948D01*
X476769Y174659D01*
X476708Y174371D01*
X476640Y174084D01*
X476565Y173799D01*
X476483Y173517D01*
X476394Y173236D01*
X476299Y172957D01*
X476196Y172681D01*
X476087Y172408D01*
X475971Y172137D01*
X475848Y171869D01*
X475719Y171605D01*
X475583Y171343D01*
X475441Y171085D01*
X475293Y170831D01*
X475138Y170580D01*
X474978Y170333D01*
X474811Y170090D01*
X474638Y169852D01*
X474460Y169617D01*
X474276Y169387D01*
X474087Y169162D01*
X473891Y168941D01*
X473691Y168726D01*
X473485Y168515D01*
X473274Y168309D01*
X473059Y168109D01*
X472838Y167913D01*
X472613Y167724D01*
X472383Y167540D01*
X472148Y167362D01*
X471910Y167189D01*
X471667Y167022D01*
X471420Y166862D01*
X471169Y166707D01*
X470915Y166559D01*
X470657Y166417D01*
X470395Y166281D01*
X470131Y166152D01*
X469863Y166029D01*
X469592Y165913D01*
X469319Y165804D01*
X469043Y165701D01*
X468764Y165606D01*
X468483Y165517D01*
X468201Y165435D01*
X467916Y165360D01*
X467629Y165292D01*
X467341Y165231D01*
X467052Y165177D01*
X466761Y165130D01*
X466469Y165090D01*
X466176Y165058D01*
X465883Y165033D01*
X465589Y165014D01*
X465294Y165004D01*
X465000Y165000D01*
X464706Y165004D01*
X464411Y165014D01*
X464117Y165033D01*
X463824Y165058D01*
X463531Y165090D01*
X463239Y165130D01*
X462948Y165177D01*
X462659Y165231D01*
X462371Y165292D01*
X462084Y165360D01*
X461799Y165435D01*
X461517Y165517D01*
X461236Y165606D01*
X460957Y165701D01*
X460681Y165804D01*
X460408Y165913D01*
X460137Y166029D01*
X459869Y166152D01*
X459605Y166281D01*
X459343Y166417D01*
X459085Y166559D01*
X458831Y166707D01*
X458580Y166862D01*
X458333Y167022D01*
X458090Y167189D01*
X457852Y167362D01*
X457617Y167540D01*
X457387Y167724D01*
X457162Y167913D01*
X456941Y168109D01*
X456726Y168309D01*
X456515Y168515D01*
X456309Y168726D01*
X456109Y168941D01*
X455913Y169162D01*
X455724Y169387D01*
X455540Y169617D01*
X455362Y169852D01*
X455189Y170090D01*
X455022Y170333D01*
X454862Y170580D01*
X454707Y170831D01*
X454559Y171085D01*
X454417Y171343D01*
X454281Y171605D01*
X454152Y171869D01*
X454029Y172137D01*
X453913Y172408D01*
X453804Y172681D01*
X453701Y172957D01*
X453606Y173236D01*
X453517Y173517D01*
X453435Y173799D01*
X453360Y174084D01*
X453292Y174371D01*
X453231Y174659D01*
X453177Y174948D01*
X453130Y175239D01*
X453090Y175531D01*
X453058Y175824D01*
X453033Y176117D01*
X453014Y176411D01*
X453004Y176706D01*
X453000Y177000D01*
D20*
X465000Y177000D03*
D19*
X1402150Y177000D03*
X1376750Y177000D03*
X1300550Y177000D03*
D10*
X1333000Y177000D02*
X1333004Y177294D01*
X1333014Y177589D01*
X1333033Y177883D01*
X1333058Y178176D01*
X1333090Y178469D01*
X1333130Y178761D01*
X1333177Y179052D01*
X1333231Y179341D01*
X1333292Y179629D01*
X1333360Y179916D01*
X1333435Y180201D01*
X1333517Y180483D01*
X1333606Y180764D01*
X1333701Y181043D01*
X1333804Y181319D01*
X1333913Y181592D01*
X1334029Y181863D01*
X1334152Y182131D01*
X1334281Y182395D01*
X1334417Y182657D01*
X1334559Y182915D01*
X1334707Y183169D01*
X1334862Y183420D01*
X1335022Y183667D01*
X1335189Y183910D01*
X1335362Y184148D01*
X1335540Y184383D01*
X1335724Y184613D01*
X1335913Y184838D01*
X1336109Y185059D01*
X1336309Y185274D01*
X1336515Y185485D01*
X1336726Y185691D01*
X1336941Y185891D01*
X1337162Y186087D01*
X1337387Y186276D01*
X1337617Y186460D01*
X1337852Y186638D01*
X1338090Y186811D01*
X1338333Y186978D01*
X1338580Y187138D01*
X1338831Y187293D01*
X1339085Y187441D01*
X1339343Y187583D01*
X1339605Y187719D01*
X1339869Y187848D01*
X1340137Y187971D01*
X1340408Y188087D01*
X1340681Y188196D01*
X1340957Y188299D01*
X1341236Y188394D01*
X1341517Y188483D01*
X1341799Y188565D01*
X1342084Y188640D01*
X1342371Y188708D01*
X1342659Y188769D01*
X1342948Y188823D01*
X1343239Y188870D01*
X1343531Y188910D01*
X1343824Y188942D01*
X1344117Y188967D01*
X1344411Y188986D01*
X1344706Y188996D01*
X1345000Y189000D01*
X1345294Y188996D01*
X1345589Y188986D01*
X1345883Y188967D01*
X1346176Y188942D01*
X1346469Y188910D01*
X1346761Y188870D01*
X1347052Y188823D01*
X1347341Y188769D01*
X1347629Y188708D01*
X1347916Y188640D01*
X1348201Y188565D01*
X1348483Y188483D01*
X1348764Y188394D01*
X1349043Y188299D01*
X1349319Y188196D01*
X1349592Y188087D01*
X1349863Y187971D01*
X1350131Y187848D01*
X1350395Y187719D01*
X1350657Y187583D01*
X1350915Y187441D01*
X1351169Y187293D01*
X1351420Y187138D01*
X1351667Y186978D01*
X1351910Y186811D01*
X1352148Y186638D01*
X1352383Y186460D01*
X1352613Y186276D01*
X1352838Y186087D01*
X1353059Y185891D01*
X1353274Y185691D01*
X1353485Y185485D01*
X1353691Y185274D01*
X1353891Y185059D01*
X1354087Y184838D01*
X1354276Y184613D01*
X1354460Y184383D01*
X1354638Y184148D01*
X1354811Y183910D01*
X1354978Y183667D01*
X1355138Y183420D01*
X1355293Y183169D01*
X1355441Y182915D01*
X1355583Y182657D01*
X1355719Y182395D01*
X1355848Y182131D01*
X1355971Y181863D01*
X1356087Y181592D01*
X1356196Y181319D01*
X1356299Y181043D01*
X1356394Y180764D01*
X1356483Y180483D01*
X1356565Y180201D01*
X1356640Y179916D01*
X1356708Y179629D01*
X1356769Y179341D01*
X1356823Y179052D01*
X1356870Y178761D01*
X1356910Y178469D01*
X1356942Y178176D01*
X1356967Y177883D01*
X1356986Y177589D01*
X1356996Y177294D01*
X1357000Y177000D01*
X1356996Y176706D01*
X1356986Y176411D01*
X1356967Y176117D01*
X1356942Y175824D01*
X1356910Y175531D01*
X1356870Y175239D01*
X1356823Y174948D01*
X1356769Y174659D01*
X1356708Y174371D01*
X1356640Y174084D01*
X1356565Y173799D01*
X1356483Y173517D01*
X1356394Y173236D01*
X1356299Y172957D01*
X1356196Y172681D01*
X1356087Y172408D01*
X1355971Y172137D01*
X1355848Y171869D01*
X1355719Y171605D01*
X1355583Y171343D01*
X1355441Y171085D01*
X1355293Y170831D01*
X1355138Y170580D01*
X1354978Y170333D01*
X1354811Y170090D01*
X1354638Y169852D01*
X1354460Y169617D01*
X1354276Y169387D01*
X1354087Y169162D01*
X1353891Y168941D01*
X1353691Y168726D01*
X1353485Y168515D01*
X1353274Y168309D01*
X1353059Y168109D01*
X1352838Y167913D01*
X1352613Y167724D01*
X1352383Y167540D01*
X1352148Y167362D01*
X1351910Y167189D01*
X1351667Y167022D01*
X1351420Y166862D01*
X1351169Y166707D01*
X1350915Y166559D01*
X1350657Y166417D01*
X1350395Y166281D01*
X1350131Y166152D01*
X1349863Y166029D01*
X1349592Y165913D01*
X1349319Y165804D01*
X1349043Y165701D01*
X1348764Y165606D01*
X1348483Y165517D01*
X1348201Y165435D01*
X1347916Y165360D01*
X1347629Y165292D01*
X1347341Y165231D01*
X1347052Y165177D01*
X1346761Y165130D01*
X1346469Y165090D01*
X1346176Y165058D01*
X1345883Y165033D01*
X1345589Y165014D01*
X1345294Y165004D01*
X1345000Y165000D01*
X1344706Y165004D01*
X1344411Y165014D01*
X1344117Y165033D01*
X1343824Y165058D01*
X1343531Y165090D01*
X1343239Y165130D01*
X1342948Y165177D01*
X1342659Y165231D01*
X1342371Y165292D01*
X1342084Y165360D01*
X1341799Y165435D01*
X1341517Y165517D01*
X1341236Y165606D01*
X1340957Y165701D01*
X1340681Y165804D01*
X1340408Y165913D01*
X1340137Y166029D01*
X1339869Y166152D01*
X1339605Y166281D01*
X1339343Y166417D01*
X1339085Y166559D01*
X1338831Y166707D01*
X1338580Y166862D01*
X1338333Y167022D01*
X1338090Y167189D01*
X1337852Y167362D01*
X1337617Y167540D01*
X1337387Y167724D01*
X1337162Y167913D01*
X1336941Y168109D01*
X1336726Y168309D01*
X1336515Y168515D01*
X1336309Y168726D01*
X1336109Y168941D01*
X1335913Y169162D01*
X1335724Y169387D01*
X1335540Y169617D01*
X1335362Y169852D01*
X1335189Y170090D01*
X1335022Y170333D01*
X1334862Y170580D01*
X1334707Y170831D01*
X1334559Y171085D01*
X1334417Y171343D01*
X1334281Y171605D01*
X1334152Y171869D01*
X1334029Y172137D01*
X1333913Y172408D01*
X1333804Y172681D01*
X1333701Y172957D01*
X1333606Y173236D01*
X1333517Y173517D01*
X1333435Y173799D01*
X1333360Y174084D01*
X1333292Y174371D01*
X1333231Y174659D01*
X1333177Y174948D01*
X1333130Y175239D01*
X1333090Y175531D01*
X1333058Y175824D01*
X1333033Y176117D01*
X1333014Y176411D01*
X1333004Y176706D01*
X1333000Y177000D01*
D20*
X1345000Y177000D03*
D21*
X1401850Y177000D03*
X1427250Y177000D03*
X1503450Y177000D03*
D10*
X1447000Y177000D02*
X1447004Y177294D01*
X1447014Y177589D01*
X1447033Y177883D01*
X1447058Y178176D01*
X1447090Y178469D01*
X1447130Y178761D01*
X1447177Y179052D01*
X1447231Y179341D01*
X1447292Y179629D01*
X1447360Y179916D01*
X1447435Y180201D01*
X1447517Y180483D01*
X1447606Y180764D01*
X1447701Y181043D01*
X1447804Y181319D01*
X1447913Y181592D01*
X1448029Y181863D01*
X1448152Y182131D01*
X1448281Y182395D01*
X1448417Y182657D01*
X1448559Y182915D01*
X1448707Y183169D01*
X1448862Y183420D01*
X1449022Y183667D01*
X1449189Y183910D01*
X1449362Y184148D01*
X1449540Y184383D01*
X1449724Y184613D01*
X1449913Y184838D01*
X1450109Y185059D01*
X1450309Y185274D01*
X1450515Y185485D01*
X1450726Y185691D01*
X1450941Y185891D01*
X1451162Y186087D01*
X1451387Y186276D01*
X1451617Y186460D01*
X1451852Y186638D01*
X1452090Y186811D01*
X1452333Y186978D01*
X1452580Y187138D01*
X1452831Y187293D01*
X1453085Y187441D01*
X1453343Y187583D01*
X1453605Y187719D01*
X1453869Y187848D01*
X1454137Y187971D01*
X1454408Y188087D01*
X1454681Y188196D01*
X1454957Y188299D01*
X1455236Y188394D01*
X1455517Y188483D01*
X1455799Y188565D01*
X1456084Y188640D01*
X1456371Y188708D01*
X1456659Y188769D01*
X1456948Y188823D01*
X1457239Y188870D01*
X1457531Y188910D01*
X1457824Y188942D01*
X1458117Y188967D01*
X1458411Y188986D01*
X1458706Y188996D01*
X1459000Y189000D01*
X1459294Y188996D01*
X1459589Y188986D01*
X1459883Y188967D01*
X1460176Y188942D01*
X1460469Y188910D01*
X1460761Y188870D01*
X1461052Y188823D01*
X1461341Y188769D01*
X1461629Y188708D01*
X1461916Y188640D01*
X1462201Y188565D01*
X1462483Y188483D01*
X1462764Y188394D01*
X1463043Y188299D01*
X1463319Y188196D01*
X1463592Y188087D01*
X1463863Y187971D01*
X1464131Y187848D01*
X1464395Y187719D01*
X1464657Y187583D01*
X1464915Y187441D01*
X1465169Y187293D01*
X1465420Y187138D01*
X1465667Y186978D01*
X1465910Y186811D01*
X1466148Y186638D01*
X1466383Y186460D01*
X1466613Y186276D01*
X1466838Y186087D01*
X1467059Y185891D01*
X1467274Y185691D01*
X1467485Y185485D01*
X1467691Y185274D01*
X1467891Y185059D01*
X1468087Y184838D01*
X1468276Y184613D01*
X1468460Y184383D01*
X1468638Y184148D01*
X1468811Y183910D01*
X1468978Y183667D01*
X1469138Y183420D01*
X1469293Y183169D01*
X1469441Y182915D01*
X1469583Y182657D01*
X1469719Y182395D01*
X1469848Y182131D01*
X1469971Y181863D01*
X1470087Y181592D01*
X1470196Y181319D01*
X1470299Y181043D01*
X1470394Y180764D01*
X1470483Y180483D01*
X1470565Y180201D01*
X1470640Y179916D01*
X1470708Y179629D01*
X1470769Y179341D01*
X1470823Y179052D01*
X1470870Y178761D01*
X1470910Y178469D01*
X1470942Y178176D01*
X1470967Y177883D01*
X1470986Y177589D01*
X1470996Y177294D01*
X1471000Y177000D01*
X1470996Y176706D01*
X1470986Y176411D01*
X1470967Y176117D01*
X1470942Y175824D01*
X1470910Y175531D01*
X1470870Y175239D01*
X1470823Y174948D01*
X1470769Y174659D01*
X1470708Y174371D01*
X1470640Y174084D01*
X1470565Y173799D01*
X1470483Y173517D01*
X1470394Y173236D01*
X1470299Y172957D01*
X1470196Y172681D01*
X1470087Y172408D01*
X1469971Y172137D01*
X1469848Y171869D01*
X1469719Y171605D01*
X1469583Y171343D01*
X1469441Y171085D01*
X1469293Y170831D01*
X1469138Y170580D01*
X1468978Y170333D01*
X1468811Y170090D01*
X1468638Y169852D01*
X1468460Y169617D01*
X1468276Y169387D01*
X1468087Y169162D01*
X1467891Y168941D01*
X1467691Y168726D01*
X1467485Y168515D01*
X1467274Y168309D01*
X1467059Y168109D01*
X1466838Y167913D01*
X1466613Y167724D01*
X1466383Y167540D01*
X1466148Y167362D01*
X1465910Y167189D01*
X1465667Y167022D01*
X1465420Y166862D01*
X1465169Y166707D01*
X1464915Y166559D01*
X1464657Y166417D01*
X1464395Y166281D01*
X1464131Y166152D01*
X1463863Y166029D01*
X1463592Y165913D01*
X1463319Y165804D01*
X1463043Y165701D01*
X1462764Y165606D01*
X1462483Y165517D01*
X1462201Y165435D01*
X1461916Y165360D01*
X1461629Y165292D01*
X1461341Y165231D01*
X1461052Y165177D01*
X1460761Y165130D01*
X1460469Y165090D01*
X1460176Y165058D01*
X1459883Y165033D01*
X1459589Y165014D01*
X1459294Y165004D01*
X1459000Y165000D01*
X1458706Y165004D01*
X1458411Y165014D01*
X1458117Y165033D01*
X1457824Y165058D01*
X1457531Y165090D01*
X1457239Y165130D01*
X1456948Y165177D01*
X1456659Y165231D01*
X1456371Y165292D01*
X1456084Y165360D01*
X1455799Y165435D01*
X1455517Y165517D01*
X1455236Y165606D01*
X1454957Y165701D01*
X1454681Y165804D01*
X1454408Y165913D01*
X1454137Y166029D01*
X1453869Y166152D01*
X1453605Y166281D01*
X1453343Y166417D01*
X1453085Y166559D01*
X1452831Y166707D01*
X1452580Y166862D01*
X1452333Y167022D01*
X1452090Y167189D01*
X1451852Y167362D01*
X1451617Y167540D01*
X1451387Y167724D01*
X1451162Y167913D01*
X1450941Y168109D01*
X1450726Y168309D01*
X1450515Y168515D01*
X1450309Y168726D01*
X1450109Y168941D01*
X1449913Y169162D01*
X1449724Y169387D01*
X1449540Y169617D01*
X1449362Y169852D01*
X1449189Y170090D01*
X1449022Y170333D01*
X1448862Y170580D01*
X1448707Y170831D01*
X1448559Y171085D01*
X1448417Y171343D01*
X1448281Y171605D01*
X1448152Y171869D01*
X1448029Y172137D01*
X1447913Y172408D01*
X1447804Y172681D01*
X1447701Y172957D01*
X1447606Y173236D01*
X1447517Y173517D01*
X1447435Y173799D01*
X1447360Y174084D01*
X1447292Y174371D01*
X1447231Y174659D01*
X1447177Y174948D01*
X1447130Y175239D01*
X1447090Y175531D01*
X1447058Y175824D01*
X1447033Y176117D01*
X1447014Y176411D01*
X1447004Y176706D01*
X1447000Y177000D01*
D20*
X1459000Y177000D03*
D19*
X1402150Y48000D03*
X1376750Y48000D03*
X1300550Y48000D03*
D10*
X1333000Y48000D02*
X1333004Y48294D01*
X1333014Y48589D01*
X1333033Y48883D01*
X1333058Y49176D01*
X1333090Y49469D01*
X1333130Y49761D01*
X1333177Y50052D01*
X1333231Y50341D01*
X1333292Y50629D01*
X1333360Y50916D01*
X1333435Y51201D01*
X1333517Y51483D01*
X1333606Y51764D01*
X1333701Y52043D01*
X1333804Y52319D01*
X1333913Y52592D01*
X1334029Y52863D01*
X1334152Y53131D01*
X1334281Y53395D01*
X1334417Y53657D01*
X1334559Y53915D01*
X1334707Y54169D01*
X1334862Y54420D01*
X1335022Y54667D01*
X1335189Y54910D01*
X1335362Y55148D01*
X1335540Y55383D01*
X1335724Y55613D01*
X1335913Y55838D01*
X1336109Y56059D01*
X1336309Y56274D01*
X1336515Y56485D01*
X1336726Y56691D01*
X1336941Y56891D01*
X1337162Y57087D01*
X1337387Y57276D01*
X1337617Y57460D01*
X1337852Y57638D01*
X1338090Y57811D01*
X1338333Y57978D01*
X1338580Y58138D01*
X1338831Y58293D01*
X1339085Y58441D01*
X1339343Y58583D01*
X1339605Y58719D01*
X1339869Y58848D01*
X1340137Y58971D01*
X1340408Y59087D01*
X1340681Y59196D01*
X1340957Y59299D01*
X1341236Y59394D01*
X1341517Y59483D01*
X1341799Y59565D01*
X1342084Y59640D01*
X1342371Y59708D01*
X1342659Y59769D01*
X1342948Y59823D01*
X1343239Y59870D01*
X1343531Y59910D01*
X1343824Y59942D01*
X1344117Y59967D01*
X1344411Y59986D01*
X1344706Y59996D01*
X1345000Y60000D01*
X1345294Y59996D01*
X1345589Y59986D01*
X1345883Y59967D01*
X1346176Y59942D01*
X1346469Y59910D01*
X1346761Y59870D01*
X1347052Y59823D01*
X1347341Y59769D01*
X1347629Y59708D01*
X1347916Y59640D01*
X1348201Y59565D01*
X1348483Y59483D01*
X1348764Y59394D01*
X1349043Y59299D01*
X1349319Y59196D01*
X1349592Y59087D01*
X1349863Y58971D01*
X1350131Y58848D01*
X1350395Y58719D01*
X1350657Y58583D01*
X1350915Y58441D01*
X1351169Y58293D01*
X1351420Y58138D01*
X1351667Y57978D01*
X1351910Y57811D01*
X1352148Y57638D01*
X1352383Y57460D01*
X1352613Y57276D01*
X1352838Y57087D01*
X1353059Y56891D01*
X1353274Y56691D01*
X1353485Y56485D01*
X1353691Y56274D01*
X1353891Y56059D01*
X1354087Y55838D01*
X1354276Y55613D01*
X1354460Y55383D01*
X1354638Y55148D01*
X1354811Y54910D01*
X1354978Y54667D01*
X1355138Y54420D01*
X1355293Y54169D01*
X1355441Y53915D01*
X1355583Y53657D01*
X1355719Y53395D01*
X1355848Y53131D01*
X1355971Y52863D01*
X1356087Y52592D01*
X1356196Y52319D01*
X1356299Y52043D01*
X1356394Y51764D01*
X1356483Y51483D01*
X1356565Y51201D01*
X1356640Y50916D01*
X1356708Y50629D01*
X1356769Y50341D01*
X1356823Y50052D01*
X1356870Y49761D01*
X1356910Y49469D01*
X1356942Y49176D01*
X1356967Y48883D01*
X1356986Y48589D01*
X1356996Y48294D01*
X1357000Y48000D01*
X1356996Y47706D01*
X1356986Y47411D01*
X1356967Y47117D01*
X1356942Y46824D01*
X1356910Y46531D01*
X1356870Y46239D01*
X1356823Y45948D01*
X1356769Y45659D01*
X1356708Y45371D01*
X1356640Y45084D01*
X1356565Y44799D01*
X1356483Y44517D01*
X1356394Y44236D01*
X1356299Y43957D01*
X1356196Y43681D01*
X1356087Y43408D01*
X1355971Y43137D01*
X1355848Y42869D01*
X1355719Y42605D01*
X1355583Y42343D01*
X1355441Y42085D01*
X1355293Y41831D01*
X1355138Y41580D01*
X1354978Y41333D01*
X1354811Y41090D01*
X1354638Y40852D01*
X1354460Y40617D01*
X1354276Y40387D01*
X1354087Y40162D01*
X1353891Y39941D01*
X1353691Y39726D01*
X1353485Y39515D01*
X1353274Y39309D01*
X1353059Y39109D01*
X1352838Y38913D01*
X1352613Y38724D01*
X1352383Y38540D01*
X1352148Y38362D01*
X1351910Y38189D01*
X1351667Y38022D01*
X1351420Y37862D01*
X1351169Y37707D01*
X1350915Y37559D01*
X1350657Y37417D01*
X1350395Y37281D01*
X1350131Y37152D01*
X1349863Y37029D01*
X1349592Y36913D01*
X1349319Y36804D01*
X1349043Y36701D01*
X1348764Y36606D01*
X1348483Y36517D01*
X1348201Y36435D01*
X1347916Y36360D01*
X1347629Y36292D01*
X1347341Y36231D01*
X1347052Y36177D01*
X1346761Y36130D01*
X1346469Y36090D01*
X1346176Y36058D01*
X1345883Y36033D01*
X1345589Y36014D01*
X1345294Y36004D01*
X1345000Y36000D01*
X1344706Y36004D01*
X1344411Y36014D01*
X1344117Y36033D01*
X1343824Y36058D01*
X1343531Y36090D01*
X1343239Y36130D01*
X1342948Y36177D01*
X1342659Y36231D01*
X1342371Y36292D01*
X1342084Y36360D01*
X1341799Y36435D01*
X1341517Y36517D01*
X1341236Y36606D01*
X1340957Y36701D01*
X1340681Y36804D01*
X1340408Y36913D01*
X1340137Y37029D01*
X1339869Y37152D01*
X1339605Y37281D01*
X1339343Y37417D01*
X1339085Y37559D01*
X1338831Y37707D01*
X1338580Y37862D01*
X1338333Y38022D01*
X1338090Y38189D01*
X1337852Y38362D01*
X1337617Y38540D01*
X1337387Y38724D01*
X1337162Y38913D01*
X1336941Y39109D01*
X1336726Y39309D01*
X1336515Y39515D01*
X1336309Y39726D01*
X1336109Y39941D01*
X1335913Y40162D01*
X1335724Y40387D01*
X1335540Y40617D01*
X1335362Y40852D01*
X1335189Y41090D01*
X1335022Y41333D01*
X1334862Y41580D01*
X1334707Y41831D01*
X1334559Y42085D01*
X1334417Y42343D01*
X1334281Y42605D01*
X1334152Y42869D01*
X1334029Y43137D01*
X1333913Y43408D01*
X1333804Y43681D01*
X1333701Y43957D01*
X1333606Y44236D01*
X1333517Y44517D01*
X1333435Y44799D01*
X1333360Y45084D01*
X1333292Y45371D01*
X1333231Y45659D01*
X1333177Y45948D01*
X1333130Y46239D01*
X1333090Y46531D01*
X1333058Y46824D01*
X1333033Y47117D01*
X1333014Y47411D01*
X1333004Y47706D01*
X1333000Y48000D01*
D20*
X1345000Y48000D03*
D21*
X1401850Y48000D03*
X1427250Y48000D03*
X1503450Y48000D03*
D10*
X1447000Y48000D02*
X1447004Y48294D01*
X1447014Y48589D01*
X1447033Y48883D01*
X1447058Y49176D01*
X1447090Y49469D01*
X1447130Y49761D01*
X1447177Y50052D01*
X1447231Y50341D01*
X1447292Y50629D01*
X1447360Y50916D01*
X1447435Y51201D01*
X1447517Y51483D01*
X1447606Y51764D01*
X1447701Y52043D01*
X1447804Y52319D01*
X1447913Y52592D01*
X1448029Y52863D01*
X1448152Y53131D01*
X1448281Y53395D01*
X1448417Y53657D01*
X1448559Y53915D01*
X1448707Y54169D01*
X1448862Y54420D01*
X1449022Y54667D01*
X1449189Y54910D01*
X1449362Y55148D01*
X1449540Y55383D01*
X1449724Y55613D01*
X1449913Y55838D01*
X1450109Y56059D01*
X1450309Y56274D01*
X1450515Y56485D01*
X1450726Y56691D01*
X1450941Y56891D01*
X1451162Y57087D01*
X1451387Y57276D01*
X1451617Y57460D01*
X1451852Y57638D01*
X1452090Y57811D01*
X1452333Y57978D01*
X1452580Y58138D01*
X1452831Y58293D01*
X1453085Y58441D01*
X1453343Y58583D01*
X1453605Y58719D01*
X1453869Y58848D01*
X1454137Y58971D01*
X1454408Y59087D01*
X1454681Y59196D01*
X1454957Y59299D01*
X1455236Y59394D01*
X1455517Y59483D01*
X1455799Y59565D01*
X1456084Y59640D01*
X1456371Y59708D01*
X1456659Y59769D01*
X1456948Y59823D01*
X1457239Y59870D01*
X1457531Y59910D01*
X1457824Y59942D01*
X1458117Y59967D01*
X1458411Y59986D01*
X1458706Y59996D01*
X1459000Y60000D01*
X1459294Y59996D01*
X1459589Y59986D01*
X1459883Y59967D01*
X1460176Y59942D01*
X1460469Y59910D01*
X1460761Y59870D01*
X1461052Y59823D01*
X1461341Y59769D01*
X1461629Y59708D01*
X1461916Y59640D01*
X1462201Y59565D01*
X1462483Y59483D01*
X1462764Y59394D01*
X1463043Y59299D01*
X1463319Y59196D01*
X1463592Y59087D01*
X1463863Y58971D01*
X1464131Y58848D01*
X1464395Y58719D01*
X1464657Y58583D01*
X1464915Y58441D01*
X1465169Y58293D01*
X1465420Y58138D01*
X1465667Y57978D01*
X1465910Y57811D01*
X1466148Y57638D01*
X1466383Y57460D01*
X1466613Y57276D01*
X1466838Y57087D01*
X1467059Y56891D01*
X1467274Y56691D01*
X1467485Y56485D01*
X1467691Y56274D01*
X1467891Y56059D01*
X1468087Y55838D01*
X1468276Y55613D01*
X1468460Y55383D01*
X1468638Y55148D01*
X1468811Y54910D01*
X1468978Y54667D01*
X1469138Y54420D01*
X1469293Y54169D01*
X1469441Y53915D01*
X1469583Y53657D01*
X1469719Y53395D01*
X1469848Y53131D01*
X1469971Y52863D01*
X1470087Y52592D01*
X1470196Y52319D01*
X1470299Y52043D01*
X1470394Y51764D01*
X1470483Y51483D01*
X1470565Y51201D01*
X1470640Y50916D01*
X1470708Y50629D01*
X1470769Y50341D01*
X1470823Y50052D01*
X1470870Y49761D01*
X1470910Y49469D01*
X1470942Y49176D01*
X1470967Y48883D01*
X1470986Y48589D01*
X1470996Y48294D01*
X1471000Y48000D01*
X1470996Y47706D01*
X1470986Y47411D01*
X1470967Y47117D01*
X1470942Y46824D01*
X1470910Y46531D01*
X1470870Y46239D01*
X1470823Y45948D01*
X1470769Y45659D01*
X1470708Y45371D01*
X1470640Y45084D01*
X1470565Y44799D01*
X1470483Y44517D01*
X1470394Y44236D01*
X1470299Y43957D01*
X1470196Y43681D01*
X1470087Y43408D01*
X1469971Y43137D01*
X1469848Y42869D01*
X1469719Y42605D01*
X1469583Y42343D01*
X1469441Y42085D01*
X1469293Y41831D01*
X1469138Y41580D01*
X1468978Y41333D01*
X1468811Y41090D01*
X1468638Y40852D01*
X1468460Y40617D01*
X1468276Y40387D01*
X1468087Y40162D01*
X1467891Y39941D01*
X1467691Y39726D01*
X1467485Y39515D01*
X1467274Y39309D01*
X1467059Y39109D01*
X1466838Y38913D01*
X1466613Y38724D01*
X1466383Y38540D01*
X1466148Y38362D01*
X1465910Y38189D01*
X1465667Y38022D01*
X1465420Y37862D01*
X1465169Y37707D01*
X1464915Y37559D01*
X1464657Y37417D01*
X1464395Y37281D01*
X1464131Y37152D01*
X1463863Y37029D01*
X1463592Y36913D01*
X1463319Y36804D01*
X1463043Y36701D01*
X1462764Y36606D01*
X1462483Y36517D01*
X1462201Y36435D01*
X1461916Y36360D01*
X1461629Y36292D01*
X1461341Y36231D01*
X1461052Y36177D01*
X1460761Y36130D01*
X1460469Y36090D01*
X1460176Y36058D01*
X1459883Y36033D01*
X1459589Y36014D01*
X1459294Y36004D01*
X1459000Y36000D01*
X1458706Y36004D01*
X1458411Y36014D01*
X1458117Y36033D01*
X1457824Y36058D01*
X1457531Y36090D01*
X1457239Y36130D01*
X1456948Y36177D01*
X1456659Y36231D01*
X1456371Y36292D01*
X1456084Y36360D01*
X1455799Y36435D01*
X1455517Y36517D01*
X1455236Y36606D01*
X1454957Y36701D01*
X1454681Y36804D01*
X1454408Y36913D01*
X1454137Y37029D01*
X1453869Y37152D01*
X1453605Y37281D01*
X1453343Y37417D01*
X1453085Y37559D01*
X1452831Y37707D01*
X1452580Y37862D01*
X1452333Y38022D01*
X1452090Y38189D01*
X1451852Y38362D01*
X1451617Y38540D01*
X1451387Y38724D01*
X1451162Y38913D01*
X1450941Y39109D01*
X1450726Y39309D01*
X1450515Y39515D01*
X1450309Y39726D01*
X1450109Y39941D01*
X1449913Y40162D01*
X1449724Y40387D01*
X1449540Y40617D01*
X1449362Y40852D01*
X1449189Y41090D01*
X1449022Y41333D01*
X1448862Y41580D01*
X1448707Y41831D01*
X1448559Y42085D01*
X1448417Y42343D01*
X1448281Y42605D01*
X1448152Y42869D01*
X1448029Y43137D01*
X1447913Y43408D01*
X1447804Y43681D01*
X1447701Y43957D01*
X1447606Y44236D01*
X1447517Y44517D01*
X1447435Y44799D01*
X1447360Y45084D01*
X1447292Y45371D01*
X1447231Y45659D01*
X1447177Y45948D01*
X1447130Y46239D01*
X1447090Y46531D01*
X1447058Y46824D01*
X1447033Y47117D01*
X1447014Y47411D01*
X1447004Y47706D01*
X1447000Y48000D01*
D20*
X1459000Y48000D03*
D22*
X175100Y104380D02*
X175100Y119620D01*
X200500Y119620D02*
X200500Y104380D01*
X225900Y104380D02*
X225900Y119620D01*
X251300Y119620D02*
X251300Y104380D01*
X276700Y104380D02*
X276700Y119620D01*
X302100Y119620D02*
X302100Y104380D01*
X327500Y104380D02*
X327500Y119620D01*
X352900Y119620D02*
X352900Y104380D01*
X1361900Y106380D02*
X1361900Y121620D01*
X1387300Y121620D02*
X1387300Y106380D01*
X1412700Y106380D02*
X1412700Y121620D01*
X1438100Y121620D02*
X1438100Y106380D01*
X553620Y206100D02*
X538380Y206100D01*
X538380Y180700D02*
X553620Y180700D01*
X553620Y155300D02*
X538380Y155300D01*
X538380Y129900D02*
X553620Y129900D01*
X1252380Y209100D02*
X1267620Y209100D01*
X1267620Y183700D02*
X1252380Y183700D01*
X1252380Y158300D02*
X1267620Y158300D01*
X1267620Y132900D02*
X1252380Y132900D01*
D23*
X930800Y110300D03*
D15*
X905400Y110300D03*
X880000Y110300D03*
X854600Y110300D03*
X829200Y110300D03*
X829200Y135700D03*
X854600Y135700D03*
X880000Y135700D03*
X905400Y135700D03*
X930800Y135700D03*
D11*
X407000Y113000D03*
X1255000Y27000D03*
D24*
X30000Y0D02*
X1520000Y0D01*
X1520000Y225000D01*
X30000Y225000D01*
X30000Y0D01*
M02*
